<svg xmlns="http://www.w3.org/2000/svg" version="1" x="0" y="0" width="194" height="191" viewBox="0 0 194 191" enable-background="new 0 0 194.324 191.079" xml:space="preserve"><circle fill="#FFFFFF" cx="104" cy="93" r="90"/><path fill="#F27751" stroke="#735F6D" stroke-width="1" stroke-miterlimit="10" d="M104 84c0 0-48-26-30-71l-18-1 2 11L52 1c0 0-22 11-27 7l3 7L23 1c0 0-16 8-22 4C-4 0 11 39 22 55l-4 4c0 0 16 40 60 42l-2-18 30 1"/><polyline fill="#FFECE3" stroke="#735F6D" stroke-width="1" stroke-miterlimit="10" points="95 74 95 84 108 89 108 71 95 74 "/><path fill="#FCDCCA" d="M138 55c0 0 0-1 0-1 0-1 0-1 0-2 0-1 0-2 0-3 0-2 0-7-2-8 0 0 0 0-1 0 -1 0-1 0-2 0 0 0 0 0 0 0 0 0 0 0 0 0 0 0 0 0 0 0 0 0 0 0-1 0 0 0 0 0 0 0 0 0 0 0 0 0 -1 0-1-1 0-1 0 0 0 0 0 0 0-1 0-3 0-5 0-1-1-2-1-4l0-2c0-1 0-2 0-3 0-1 0-1-1-2 -1-2-4-4-6-4 0 0-1 0-1 0 -2-1-4-1-6-2 -2-1-5 0-7 0 -3 0-5 0-8 0 -3 0-5 2-7 3 -3 1-6 2-7 6 0 1 0 3 0 4 0 0 0 1 0 1 0 0 0 0 0 1 0 2 0 5 0 7 0 0 0 1 0 1 0 0 0 0 0 0 -2 0-4-1-5 1 -1 1-1 2-1 3 0 0 0 0 0 0 0 0 0 0 0 1 0 0 0 0 0 0 0 0 0 0 0 1 0 2 0 5 0 7 0 2 0 3 0 5 0 0 0 0 0 1 1 1 3 1 4 1 0 0 0 0 0 0 0 0 1 0 1 0 0 2 0 5 0 7 0 1 0 0 0 1 0 0 0 0 0 1 0 1 1 2 1 2 0 0 0 0 1 0 3 1 7 0 10 0 2 0 2 1 2 2 0 0 0 0 0 0 0 0 0 0 0 0 0 0 0 0 0 1 0 0 1 1 1 1 3 0 6 0 10 0 0 0 0 0 0 0 0 0 1 0 1-1 0-1 0-2 0-2 0 0 0 0 0 0 0-1 1-1 1-1 0 0 0 0 0 0 0 0 0 0 0 0 2 0 4 0 5-1 0 0 1 0 1 0 0 0 0 0 0 0 2 0 3 0 5-1 1 0 4-1 5-2 1-2 0-2 1-4 0-2 0-3 0-5 -1 0-1-1 0-1 1 0 3 0 4 0 1 0 1-1 2-1l0 0c0 0 0 0 0 0C137 58 137 57 138 55z"/><path fill="#FFECE3" d="M109 20c0 0 0 0 0 0 -3 0-5 0-8 0 -3 0-5 2-7 3 -3 1-6 2-7 6 0 1 0 3 0 4 0 0 0 1 0 1 0 0 0 0 0 1 0 2 0 5 0 7 0 0 0 1 0 1 0 0 0 0 0 0 -2 0-4-1-5 1 -1 1-1 2-1 3 0 0 0 0 0 0 0 0 0 0 0 1 0 0 0 0 0 0 0 0 0 0 0 1 0 2 0 5 0 7 0 2 0 3 0 5 0 0 0 0 0 1 1 1 3 1 4 1 0 0 0 0 0 0 0 0 1 0 1 0 0 2 0 5 0 7 0 1 0 0 0 1 0 0 0 0 0 1 0 1 1 2 1 2 0 0 0 0 1 0 3 1 7 0 10 0 2 0 2 1 2 2 0 0 0 0 0 0 0 0 0 0 0 0 0 0 0 0 0 1 0 0 1 1 1 1 2 0 3 0 6 0L109 20z"/><path fill="#FFECE3" d="M108 42c0 0 5 2 6 2 1 0 6 1 6 2 0 1-9 3-13 2 -3 0-1-2-1-2L108 42z"/><path fill="none" stroke="#735F6D" stroke-width="1" stroke-miterlimit="10" d="M131 19"/><path fill="none" stroke="#735F6D" stroke-width="1" stroke-miterlimit="10" d="M131 32l0 39c0 0 1 1-6 2l-11 2 0 4 -6 0"/><path fill="none" stroke="#735F6D" stroke-width="1" stroke-miterlimit="10" d="M108 79l-7 0 0-4 -12 0c0 0-3 0-2-4l0-37"/><path fill="none" stroke="#735F6D" stroke-width="1" stroke-miterlimit="10" d="M107 38c0 0-6-3-13 0"/><path fill="none" stroke="#735F6D" stroke-width="1" stroke-miterlimit="10" d="M114 33c0 0 6-3 10 2"/><path fill="none" stroke="#735F6D" stroke-width="1" stroke-miterlimit="10" d="M86 43c0 0-7-4-7 3 0 7 0 12 0 12s-2 4 7 3"/><path fill="none" stroke="#735F6D" stroke-width="1" stroke-miterlimit="10" d="M131 42c0 0 7-4 7 3 0 7 0 12 0 12s2 4-7 3"/><path fill="none" stroke="#735F6D" stroke-width="1" stroke-miterlimit="10" d="M131 49c0 0 2-3 4-2"/><path fill="none" stroke="#735F6D" stroke-width="1" stroke-miterlimit="10" d="M131 49c0 0 4 1 4 3"/><path fill="none" stroke="#735F6D" stroke-width="1" stroke-miterlimit="10" d="M86 49c0 0-2-3-5-1"/><path fill="none" stroke="#735F6D" stroke-width="1" stroke-miterlimit="10" d="M86 49c0 0-4 1-5 4"/><polygon fill="#FCDCCA" stroke="#735F6D" stroke-width="1" stroke-miterlimit="10" points="108 79 108 89 120 84 120 74 109 74 "/><line fill="none" stroke="#735F6D" stroke-width="1" stroke-miterlimit="10" x1="90" y1="29" x2="82" y2="34"/><line fill="none" stroke="#735F6D" stroke-width="1" stroke-miterlimit="10" x1="90" y1="31" x2="82" y2="36"/><line fill="none" stroke="#735F6D" stroke-width="1" stroke-miterlimit="10" x1="90" y1="34" x2="83" y2="38"/><line fill="none" stroke="#735F6D" stroke-width="1" stroke-miterlimit="10" x1="88" y1="37" x2="83" y2="40"/><line fill="none" stroke="#735F6D" stroke-width="1" stroke-miterlimit="10" x1="127" y1="28" x2="136" y2="34"/><line fill="none" stroke="#735F6D" stroke-width="1" stroke-miterlimit="10" x1="128" y1="31" x2="136" y2="36"/><line fill="none" stroke="#735F6D" stroke-width="1" stroke-miterlimit="10" x1="128" y1="34" x2="134" y2="38"/><line fill="none" stroke="#735F6D" stroke-width="1" stroke-miterlimit="10" x1="129" y1="37" x2="134" y2="40"/><path fill="none" stroke="#735F6D" stroke-width="1" stroke-miterlimit="10" d="M88 27c0 0 13-12 35-5 22 7 22-1 22-1"/><path fill="none" stroke="#735F6D" stroke-width="1" stroke-miterlimit="10" d="M142 17c0 0 4 9-18 1 -22-7-35 5-35 5"/><path fill="none" stroke="#735F6D" stroke-width="1" stroke-miterlimit="10" d="M91 19c-1 1 11-12 32-5 22 7 16 2 16 2"/><path fill="none" stroke="#735F6D" stroke-width="1" stroke-miterlimit="10" d="M92 14c-1 1 11-12 32-5 22 7 10 4 10 4"/><path fill="none" stroke="#735F6D" stroke-width="1" stroke-miterlimit="10" d="M88 23c0 0-3 2-3 6"/><path fill="none" stroke="#735F6D" stroke-width="1" stroke-miterlimit="10" d="M90 19c0 0-6 0-6 6"/><path fill="none" stroke="#735F6D" stroke-width="1" stroke-miterlimit="10" d="M90 16c0 0-6 1-7 6"/><path fill="none" stroke="#735F6D" stroke-width="1" stroke-miterlimit="10" d="M108 78l0-16c0 0 5 0 6-2 0-1-1-1-1-1h-7l11-3c-3 1-10-1-10-1v-3"/><path fill="none" stroke="#735F6D" stroke-width="1" stroke-miterlimit="10" d="M109 20l0 23c0 0 25 5-1 6l0 4"/><path d="M101 38L100 38c-1 0-2 1-2 3 0 2 1 3 3 3 2 0 3-1 3-3C104 39 103 38 101 38z"/><path d="M119 38l-2 0c-1 0-2 1-2 3 0 2 1 3 3 3 2 0 3-1 3-3C121 39 120 38 119 38z"/><ellipse transform="matrix(-1 0.0034 -0.0034 -1 199.8243 77.8346)" opacity="1" fill="#FFFFFF" cx="100" cy="39" rx="2" ry="2"/><ellipse transform="matrix(-1 0.0034 -0.0034 -1 234.9183 76.2525)" opacity="1" fill="#FFFFFF" cx="117" cy="38" rx="2" ry="2"/><path opacity="1" fill="#FFFFFF" d="M102 42l-1-2 2 0C104 41 104 42 102 42z"/><path opacity="1" fill="#FFFFFF" d="M119 43l-1-2 2 0C120 41 121 42 119 43z"/><path fill="none" stroke="#735F6D" stroke-width="1" stroke-miterlimit="10" d="M95 44c0 0 5-2 10 0"/><path fill="none" stroke="#735F6D" stroke-width="1" stroke-miterlimit="10" d="M114 44c0 0 4-2 8 0"/><path fill="none" stroke="#735F6D" stroke-width="1" stroke-miterlimit="10" d="M162 65"/><polygon fill="#0A5D66" stroke="#735F6D" stroke-width="1" stroke-miterlimit="10" points="77 83 136 85 122 143 84 142 "/><path fill="#00C7C4" stroke="#735F6D" stroke-width="1" stroke-miterlimit="10" d="M123 142l32 35 -2 7h-7l-31-33 -16 1 -8 32 -6 2 -1-6 -4-31c0 0 1-8 4-10l0 3 38 2"/><polygon fill="#0A5D66" stroke="#735F6D" stroke-width="1" stroke-miterlimit="10" points="77 84 55 69 49 69 49 76 79 100 "/><path fill="#00C7C4" stroke="#735F6D" stroke-width="1" stroke-miterlimit="10" d="M55 68L44 52l0-12 4-10 -5-1 -3 8L36 26l-4 1 4 13 -6-15 -4 1 5 14 -5-10 -3 1 3 10 -4-3 -2 4 5 3c0 0 7 9 11 11l13 19"/><polyline fill="#0A5D66" stroke="#735F6D" stroke-width="1" stroke-miterlimit="10" points="136 85 136 122 138 126 131 128 127 122 "/><polyline fill="#00C7C4" stroke="#735F6D" stroke-width="1" stroke-miterlimit="10" points="136 120 169 118 176 113 178 105 182 107 180 113 193 113 193 116 183 118 193 119 193 123 182 122 193 127 189 128 180 126 183 130 181 133 178 125 167 124 131 128 "/><polyline fill="#F27751" stroke="#735F6D" stroke-width="1" stroke-miterlimit="10" points="110 91 131 83 144 71 117 82 104 91 "/><polygon fill="#F27751" stroke="#735F6D" stroke-width="1" stroke-miterlimit="10" points="111 84 112 89 116 89 124 91 119 85 "/><polygon fill="#F27751" stroke="#735F6D" stroke-width="1" stroke-miterlimit="10" points="104 83 103 88 99 88 92 90 96 84 "/><polygon fill="#F27751" stroke="#735F6D" stroke-width="1" stroke-miterlimit="10" points="84 186 66 160 64 181 59 177 59 164 59 154 64 153 82 167 "/><polygon fill="#F27751" stroke="#735F6D" stroke-width="1" stroke-miterlimit="10" points="146 185 145 191 137 191 138 185 129 175 135 173 "/><polygon fill="#F27751" stroke="#735F6D" stroke-width="1" stroke-miterlimit="10" points="111 84 111 91 104 91 104 83 "/><polygon fill="#E9D234" stroke="#735F6D" stroke-width="1" stroke-miterlimit="10" points="120 110 108 122 101 122 89 109 91 99 120 100 "/></svg>