<svg xmlns="http://www.w3.org/2000/svg" version="1" x="0" y="0" width="179" height="179" viewBox="0 0 179 179" enable-background="new 0 0 179.274 179.274" xml:space="preserve"><circle fill="#FFFFFF" cx="90" cy="90" r="90"/><path fill="#FCDCCA" d="M147 105c0-1 0-1 0-2 0-1 0-2 0-3 0-1 0-3 0-4 0-4 0-10-3-12 0 0-1 0-1 0 -1 0-2 0-3 0 0 0 0 0-1 0 0 0 0 0 0 0 0 0 0 0 0 0 0 0 0 1-1 1 0 0 0 0 0 0 0 0 0 0 0 0 -1 0-1-1-1-2 0 0 0 0 0-1 -1-2-1-5 0-7 0-2-1-4-1-6v-3c0-2 0-3-1-4 0-1-1-2-1-3 -2-3-6-5-9-6 0 0-1 0-1 0 -3-1-6-2-9-3 -4-1-7-1-11 0 -4 0-8-1-13 0 -4 1-8 2-11 5 -5 2-9 4-10 9 0 2-1 4 0 6 0 1 0 1 0 2 0 0 0 0 0 1 0 3 0 7 0 10 1 0 0 2-1 2 0 0-1 0-1 0 -3 0-6-2-8 1 -1 2-1 3-1 5 0 0 0 0 0 0 0 0 0 1 0 1 0 0 0 0 0 0 0 0 0 1 0 1 0 3 0 7 0 10 0 3 0 5 0 8 0 0 0 1 1 1 2 1 4 2 7 1 0 0 1 0 1 0 0-1 2 0 2 1 0 4 0 7 0 11 0 3 1 6 1 10 0 1 1 1 1 2 0 0 1 1 1 1 0 0 0 0 0 0 4 0 8 0 12 0 2 0 4 0 5 1 0 0 0 0 1 0 1 0 1 0 1 1 0 0 0 0 0 0 0 0 0 1 0 1 1 0 1 1 2 1 5 0 10 0 14 0 0 0 0 0 1 0 1 0 1-1 1-1 0-1 0-2 0-3 0 0 0 0 0 0 0-1 1-1 1-1 0 0 0 0 0 0 0 0 0 0 0 0 3 0 5 0 8-1 0 0 1 0 1 0 0 0 0 0 1 0 2 0 5-1 7-1 2 0 6-1 7-3 1-2 0-6 1-9 0-3 0-5 0-8 -1 0-1-2 0-2 2 0 4 1 6 0 1 0 2-1 3-1v0c0 0 0 0 0-1C146 110 146 108 147 105zM120 90c-5-2-10-3-16-5 0-4 0-9 1-13 0-7 0-14 0-21 -4 0-7 0-11 0 -3 0-6 2-8 3 -4 1-9 3-12 5 0 0-1 1-1 1 -1 1-2 2-2 3 0 0 0 0 0 0 -2 2-2 6-2 9 0 1 0 1 1 1 0 3 0 7 1 10 0 0 0 1 0 1 0 0 0 0 0 0 -1 1-1 1-2 2 -1 0-1 0-2-1 -2-1-4-1-6 0 -1 1-1 2-1 3 0 0 0 1 0 1 -1 2 0 4 0 7 0 2 0 3 0 5 0 2 1 5 0 7 0 0 0 1 0 1 0 2 1 4 4 4 1 0 2 0 3-1 1 0 2 0 3 0 0 0 0 0 1 0 -1 3-1 5-1 8 0 2 0 3 1 5 0 0 0 0 0 1 0 2 0 4 0 6 1 1 1 1 2 2 5 1 10 0 15 0 2 0 5 1 5 3 0 0 0 0 0 0 0 1 1 2 2 3 0 1 0 1 1 1 0 0 1 0 1 0 2 0 3 0 5 0 0 0 0 0 1 0 1 0 1-1 1-2 0 0 0 0 0 0 0-3 0-7 0-10 0 0 0 0 0 0 0-1 0-3-2-3 0-1 0-1 1-2 0-1 0-1 1-1 0 0 1-1 1-1 1 0 2-1 3 0 0 0 0 0 1 0 1 0 3 0 4-1 1 0 3-1 4-2 1-1 0-2-1-2 0 0 0 0-1 0 -1 0-1 0-2 0 0 0 0 0 0 0 -2 0-4 0-5 1 0 0 0 0 0 0 -2 0-3 1-5 2 -1 0-1 1-2 1 0 0 0 0-1 0 -1 1-2 1-3 1 0 0 0 0 0 0 -1 1-2 1-4 1 0 0 0 0 0 0 -2 0-3 0-5 1 -4-1-7-2-9-6 -1-2-2-5-3-7 0-2 0-3 1-4 1-3 4-4 7-5 0 0 0 0 0 0 0 0 0 0 0 0 0 0 1 0 1 0 2 0 5 0 7 0 5 0 9 1 14 1 3 2 8 2 11-1 1-1 0-1 0-2 0 0 0 0 0 0 0 0 0-1-1-1 -3 0-6 0-10 0 0-1 0-1 1-2 -1 0-1-1-1-1 0 0 0 0 0 0 0 0 0 0 0 0 0 0 0 0 0 0 0-1 0-1 0-2 0 0 1 0 1 0 0 0 0 0 0 0 2 0 5 0 7-1 3 0 5 0 8-1C121 92 121 91 120 90zM120 137c0 0 0 0-1 0 0 0-1 0-1 0 -1 0-1 0-1 1 -1 0-3 1-4 1 0 0 0 0 0 0 0 0-1 0-1 0 -2 0-2 2-2 3 0 0 0 1 0 1 0 0 0 1 0 1 0 0 0 1 0 1 -1 0-2 1-3 1 -1 0-2 0-3 0 0 0 0 0-1 0 0 0 0 0 0 0 0 0-1 0-1 0 0-1-1 0-1 0 0 5-2 10-1 15 0 0 1 1 1 1 3-1 6-3 9-4 2-1 4-1 5-2 1 0 2 0 3-1 2 0 2-2 2-4 0-4 0-7 0-11 0 0 0 0 0 0 0 0 0 0 0-1 0 0 0 0 0-1C121 138 121 137 120 137zM100 159c2-2 1-7 1-11 0 0 0-1 0-1 0 0 0 0 0-1 0 0 0 0 0-1 0 0 0-1 0-1 0-1-1-1-1-1 0 0-1 0-1 0 -2 0-4 0-7 0 0 0 0 0 0 0 0 0 0 0-1-1 0-1 0-1-1-2 0-1-1-1-1-2 0 0 0 0 0 0 0 0 0 0-1 0 -2 1-5-1-6 1 0 0 0 0 0 0 -1 0-1 1-1 1 -1 2 0 4-1 6 0 1 0 4 1 5 1 1 2 1 3 1 2 1 4 1 5 2 3 1 5 3 8 3 0 0 0 0 1 1 1 1 1 0 1-1C100 159 100 159 100 159z"/><path fill="none" stroke="#735F6D" stroke-width="1" stroke-miterlimit="10" d="M136 51 105 52l0 34c20 5 20 6 15 7L104 94l0 6 11 0c11 4-8 5-8 5s-33-10-31 10c2 17 20 5 31 4 13-1 13 6 2 5 -11-1-6 5-6 5v15M136 70v60c0 0 2 4-9 5l-17 2v6h-9M101 144h-11v-6l-18-1c0 0-5 0-4-9l0-57"/><polyline fill="none" stroke="#735F6D" stroke-width="1" stroke-miterlimit="10" points="88 76 96 84 87 89 "/><line fill="none" stroke="#735F6D" stroke-width="2" stroke-miterlimit="10" x1="96" y1="84" x2="87" y2="84"/><polyline fill="none" stroke="#735F6D" stroke-width="1" stroke-miterlimit="10" points="122 76 115 82 123 87 "/><line fill="none" stroke="#735F6D" stroke-width="2" stroke-miterlimit="10" x1="115" y1="82" x2="126" y2="82"/><path fill="none" stroke="#735F6D" stroke-width="1" stroke-miterlimit="10" d="M93 73c0 0-7 0-12 5M113 68c0 0 9-3 15 5M69 87c0 0-10-6-10 5 0 11 0 18 0 18s-3 7 10 5M136 86c0 0 10-6 10 5 0 11 0 18 0 18s3 7-10 5M136 96c0 0 3-5 6-4M136 96c0 0 5 2 6 5M69 96c0 0-4-4-7-2M69 96c0 0-6 1-7 6"/><polyline fill="none" stroke="#735F6D" stroke-width="1" stroke-miterlimit="10" points="101 144 101 160 121 152 121 137 "/><polyline fill="none" stroke="#735F6D" stroke-width="1" stroke-miterlimit="10" points="101 160 81 153 81 138 "/><polyline fill="#FFFFFF" stroke="#735F6D" stroke-width="1" stroke-miterlimit="10" points="105 104 105 107 100 107 100 104 "/><polyline fill="#FFFFFF" stroke="#735F6D" stroke-width="1" stroke-miterlimit="10" points="96 103 96 106 91 106 91 103 "/><path fill="none" stroke="#735F6D" stroke-width="1" stroke-miterlimit="10" d="M76 108c0 0 18-7 23 12"/><line fill="none" stroke="#735F6D" stroke-width="1" stroke-miterlimit="10" x1="74" y1="65" x2="62" y2="73"/><line fill="none" stroke="#735F6D" stroke-width="1" stroke-miterlimit="10" x1="74" y1="69" x2="62" y2="76"/><line fill="none" stroke="#735F6D" stroke-width="1" stroke-miterlimit="10" x1="74" y1="73" x2="64" y2="79"/><line fill="none" stroke="#735F6D" stroke-width="1" stroke-miterlimit="10" x1="72" y1="78" x2="64" y2="82"/><line fill="none" stroke="#735F6D" stroke-width="1" stroke-miterlimit="10" x1="131" y1="65" x2="144" y2="73"/><line fill="none" stroke="#735F6D" stroke-width="1" stroke-miterlimit="10" x1="132" y1="69" x2="144" y2="76"/><line fill="none" stroke="#735F6D" stroke-width="1" stroke-miterlimit="10" x1="132" y1="73" x2="142" y2="79"/><line fill="none" stroke="#735F6D" stroke-width="1" stroke-miterlimit="10" x1="133" y1="78" x2="142" y2="82"/><path fill="none" stroke="#735F6D" stroke-width="1" stroke-miterlimit="10" d="M72 62c0 0 20-18 53-7 33 11 33-2 33-2M154 47c0 0 6 13-27 2 -33-11-53 7-53 7M77 50c-2 2 17-18 49-7 33 11 24 3 24 3M78 43c-2 2 17-18 49-7 33 11 16 6 16 6M72 56c0 0-5 3-4 9M74 50c0 0-9 0-8 9M74 46c0 0-9 1-10 9"/><path fill="#FDE3D7" d="M59 99c0-4 0-8-1-12 0-2-2-2-3-2 0 0 0 0-1 0 -2 0-3-1-5-1 0-2 1-4 1-6 0-2 0-4 0-6 1-1 1-2 0-3 0 0 0 0 0 0 0 0 0-1 0-1 0-1 0-1 0-2 0-2 0-4 0-6 0-1-2-2-3-2 -1 1-2 1-3 2 0 0-1 0-1 1 0 0-1 0-1 0 -1 0-2 1-3 1 0 0 0 0 0 0 0 0-1 0-1 0 0 0-1 0-1 0 0 0 0 0 0 0 0 0 0 1-1 1 0 0 0 0 0 1 0 0 0 0 0 0 1 0 1 1 1 1 0 0 0 0 0 0 0 0 0 0 0 0 1 4 3 7 3 11 0 2 0 3 0 5 -1 0-1-1-2-1 -2-1-5-1-7-3 -1 0-1-1-2-1 0 0 0 0-1 0 0 0 0 0 0 0 -1-1-1 0-2 0 0 0 0 0 0 0 0 1 0 2 0 3 0 0 0 0 0 1 0 0 0 0 0 1 0 0 0 0 0 0 0 0 0 0 0 0 0 0 0 0 0 0 0 0 0 0 0 0 0 0 0 0 0-1 0 0 0 0-1-1 0 0-1-1-1-1 0 0-1 0-1 0 0 0 0 0-1-1 0 0 0 0-1 0 0 0 0 0 0-1 0-1-1-1-2 0 0 1 0 1 0 1 0 0 0 1 0 1 0 0 0 0 0 0 0 0 0 0 0 0 0 0 0 1 0 1 0 0-1 0-1 1 0 0 0 0 0 0 0-1-2-2-3-2 0 0 0 0-1 0 -1 0-1 1-1 2 -1 2 0 4 0 6 0 0 0 0 0 0 0 2 0 4 1 6 0 1 1 1 2 2 1 1 2 1 3 1 0 0 0 0 0 0 0 2-1 3-1 4 0 1 0 2 0 4 0 0 0 0 0 1 0 1 0 1 0 2 0 3 1 4 3 5 0 0 1 0 1 0 1 0 3 0 4 0 0 0 0 0 0 0 0 0 0 0 0 0 0 1 0 2 0 3 0 7-1 15 0 22 0 0 0 1 0 1 0 0 0 0 0 0 0 1 1 1 1 1 1 2 3 3 5 4 0 0 0 0 0 0 0 0 0 1 1 1h1c0 1 1 1 2 1 3-2 6-3 9-4 1 0 1-1 1-2 0 0 0-1 0-1 0 0 0 0 0 0 0-3-1-7-1-10 0 0 0 0 0 0 1-2 0-4 0-6 0-1 0-1-1-1 0 0 0 0 0 0 0 0 0 0 0 0 0-1 0-1 0-2 0-1 0-2 0-4 0-1 1-1 2-1 0 0 1 0 1-1 1 0 2-1 2-2 1-2 1-4 1-6 0 0 0 0 0 0 0-1 0-1 0-2 0 0 0 0 0 0 0-1 0-2 1-2 1 0 3 0 4 0 1 0 1-1 1-2C59 99 59 99 59 99zM36 144c0 0 0 0 0 0 0 0 0 0 0 0 0-2 0-4 0-7 0-9 0-18 0-27 0-2 0-5 0-7 0 0 0-1 0-1 0 0 0-1 0-1 0-1-1-1-1 0 -1 0-1 0-2 0 0 0-1 0-1-1 0 0 0 0 0 0 0-1 0-1-1-1 0 0-1 0-1 0 -1 1-3 2-4 2 -1-1-2-2-4-3 -1 0-1 0-1 1 0 0 0 0 0 1 0 0 0 0 0 0 0 3-2 11 0 13 1 1 2 1 3 1 0 0 0 0 0 0 0 0 1 0 1 1 1 0 1 0 1 0 1 0 2 0 3 0 0 1 0 3 0 4 0 7-1 14-1 21 0 2 1 3 2 3 1 1 3 3 4 3C36 145 37 144 36 144z"/><path fill="none" stroke="#735F6D" stroke-width="1" stroke-miterlimit="10" d="M38 147l10-5 -1-27c0 0 5 1 6-3 0-4 0-10 0-10h5V85l-9-1c0 0 4-21 0-26L36 64c0 0 7 9 5 23M42 83l-13-6c0 0-1 19 3 22 4 3 6-2 6-3 0-1-3-5-3-5s1-8 3-4M29 83l-8-4c0 0 0 17 3 20 3 3 7-2 7-2M21 84l-5-2c0 0-3 13 1 16 4 3 5-1 5-1M21 99c0 0-3 14 2 15 4 1 8 0 8 0M52 90c0 0 1 6-8 3 -8-2 0 9 0 9l8-1"/><polyline fill="none" stroke="#735F6D" stroke-width="1" stroke-miterlimit="10" points="29 114 29 141 38 147 "/><line fill="none" stroke="#735F6D" stroke-width="1" stroke-miterlimit="10" x1="36" y1="100" x2="36" y2="145"/></svg>