<?xml version="1.0" encoding="utf-8"?>
<!-- Generator: Adobe Illustrator 17.0.0, SVG Export Plug-In . SVG Version: 6.00 Build 0)  -->
<!DOCTYPE svg PUBLIC "-//W3C//DTD SVG 1.1//EN" "http://www.w3.org/Graphics/SVG/1.1/DTD/svg11.dtd">
<svg version="1.1" id="Layer_1" xmlns="http://www.w3.org/2000/svg" xmlns:xlink="http://www.w3.org/1999/xlink" x="0px" y="0px"
	 width="205.433px" height="185.727px" viewBox="0 0 205.433 185.727" enable-background="new 0 0 205.433 185.727"
	 xml:space="preserve">
<g>
	<circle fill="#FFFFFF" cx="89.637" cy="89.638" r="89.637"/>
	<g>
		<g>
			<path fill="#F27751" stroke="#735F6D" stroke-width="0.5442" stroke-miterlimit="10" d="M82.78,84.049
				c0,0-31.668-17.028-20.078-46.877l-12.246-0.334l1.412,7.533l-3.526-15.424c0,0-14.866,7.491-17.89,4.398l1.764,4.804
				l-2.771-9.308c0,0-10.835,5.318-14.362,2.609c-3.527-2.71,6.299,22.989,13.857,33.319l-2.519,2.962
				c0,0,10.381,26.765,39.462,27.649l-1.316-11.692l19.861,0.359"/>
			<g>
				<path fill="#3994CB" stroke="#2F6A86" stroke-width="0.9411" d="M179.597,121.277c-20.33-5.067-42.34,8.253-42.34,31.455
					c0,23.2,22.01,36.52,42.34,31.453c15.375-3.832,25.336-17.569,25.336-31.454C204.933,138.849,194.972,125.109,179.597,121.277z"
					/>
				<path fill="#2E88B1" d="M180.329,126.551c-16.51-3.444-33.461,7.969-33.461,26.411c0,18.442,16.951,29.806,33.461,26.313
					c13.07-2.766,21.821-14.366,21.821-26.393C202.15,140.854,193.399,129.279,180.329,126.551z"/>
				<g>
					<path fill="#9BC74C" stroke="#788034" stroke-width="0.9411" d="M157.544,148.112c2.268-5.388-5.368-5.432-5.368-5.432v-3.352
						c3.028-4.896-4.452-5.313-4.452-5.313c-3.342-0.898-6.826,5.356-6.826,5.356c-12.242,16.671,3.484,34.48,3.484,34.48
						c-0.686-2.941,5.281-10.907,5.281-10.907c4.947,0.148,6.134-0.868,5.543-3.177c2.338-1.497,4.045-0.648,4.045-0.648
						l5.938-4.639c1.537-1.318-0.521-3.511-0.521-3.511C160.369,150.92,157.544,148.112,157.544,148.112z"/>
					<path fill="#9BC74C" stroke="#788034" stroke-width="0.9411" d="M151.556,170.031c-1.893,3.617,3.65,3.813,6.563,2.485
						C157.545,166.59,151.556,170.031,151.556,170.031z"/>
					<path fill="#D1B644" stroke="#788034" stroke-width="0.9411" d="M179.597,165.707c-4.315,3.29-2.555,7.08-2.555,7.08
						c2.135,1.246,5.008-2.707,5.008-2.707c2.745-1.139,1.584-3.267,1.584-3.267S182.05,164.297,179.597,165.707z"/>
					<path fill="#9BC74C" stroke="#788034" stroke-width="1.8823" d="M194.333,168.012c1.286,0.166,3.162-1.783,2.232-4.051
						C194.333,163.497,194.333,168.012,194.333,168.012z"/>
					<path fill="#9BC74C" stroke="#788034" stroke-width="0.9411" d="M190.286,171.805c-2.864-0.633-1.773,3.582-3.975,4.751
						c-2.289,1.217,0,4.468,0,4.468c8.346-3.708,14.46-12.586,14.46-12.586l-5.152,3.173
						C193.679,173.69,190.286,171.805,190.286,171.805z"/>
					<path fill="#9BC74C" stroke="#788034" stroke-width="0.9411" d="M204.128,145.763c0,0-4.229-0.949-4.229-4.25
						c0,0,0.873-2.522,1.732-2.087c0,0-2.621-8.984-5.066-9.155c0,0-3.549,4.19-4.897,0.06l-2.796-4.919l-3.313-1.523
						c0,0-4.723,1.591-2.316,4.407c0,0,2.693,2.404,0,3.056l-4.484,0.007c0,0-5.744,2.758-3.923,5.053l2.641,1.929l4.575,0.128
						l1.191,3.191l5.271,0.111c0,0,3.154,4.207,3.494,7.063c0,0,5.178,6.943-2.779,4.625l-2.174,3.712c0,0,0,7.768,3.928,4.861
						l1.025-2.564c2.326-0.136,2.974-2.592,2.974-2.592l3.73-1.807l1.771-2.994c-0.291-2.634,1.149-3.561,1.995,1.624
						c0,0,2.189-1.597,2.456-2.852C204.933,151.789,205.199,146.463,204.128,145.763z"/>
					<path fill="#D0DD45" d="M198.71,138.052c0.597-0.914-1.833-4.322-1.833-4.322l-3.198,1.187l-4.451-5.064
						c0,0-4.433-3.51-2.916,2.405c0,0-6.3,2.056-1.901,4.59l5.173,1.038c0,0,1.052,5.875,3.098,4.978l2.939,0.256
						c0,0-2.271,3.657,1.258,4.523v3.055c0,0,2.728-2.597,3.021-3.904l-2.097-4.49C197.802,142.302,198.105,138.977,198.71,138.052z
						"/>
					<path fill="#D0DD45" d="M152.791,147.964l-4.415-1.609l-1.31-7.47c0,0-13.614,7.94-4.759,25.053l2.756-6.198
						c0,0,7.112,3.127,6.492-2.605l4.828-1.472L152.791,147.964z"/>
				</g>
				<path fill="#5AB4D4" d="M152.176,130.237c-5.109,4.197,8.743,0.827,8.743,0.827l-2.801,4.184
					c-4.717,5.139,8.607,2.318,8.607,2.318c4.415-4.133-2.058-3.743-2.058-3.743l9.716-4.429c4.793-0.727,5.628-6.054,5.628-6.054
					C160.921,121.136,152.176,130.237,152.176,130.237z"/>
				<path fill="#5AB4D4" d="M167.482,139.804c-2.108-0.197-3.863,0.73-3.863,2.075c0,1.346,1.755,2.54,3.863,2.665
					c2.043,0.12,3.659-0.816,3.659-2.091C171.141,141.178,169.524,139.995,167.482,139.804z"/>
			</g>
			<g>
				<path fill="none" stroke="#735F6D" stroke-width="0.6619" stroke-miterlimit="10" d="M87.334,59.651
					c0,0-2.382-1.682-5.217-0.992"/>
				
					<line fill="none" stroke="#735F6D" stroke-width="0.6619" stroke-miterlimit="10" x1="82.696" y1="52.616" x2="76.528" y2="52.469"/>
				
					<line fill="none" stroke="#735F6D" stroke-width="0.6619" stroke-miterlimit="10" x1="81.634" y1="53.886" x2="75.706" y2="53.705"/>
				
					<line fill="none" stroke="#735F6D" stroke-width="0.6619" stroke-miterlimit="10" x1="81.171" y1="55.256" x2="76.046" y2="55.218"/>
				
					<line fill="none" stroke="#735F6D" stroke-width="0.6619" stroke-miterlimit="10" x1="78.958" y1="56.56" x2="74.868" y2="56.317"/>
				<path fill="none" stroke="#735F6D" stroke-width="0.6619" stroke-miterlimit="10" d="M83.912,48.963c0,0-2.38-0.182-3.465,2.159
					"/>
				<path fill="none" stroke="#735F6D" stroke-width="0.6619" stroke-miterlimit="10" d="M85.901,47.465
					c0,0-3.264-2.126-4.947,1.014"/>
				<path fill="none" stroke="#735F6D" stroke-width="0.6619" stroke-miterlimit="10" d="M86.985,45.834
					c0,0-3.303-1.727-5.647,0.748"/>
				<path fill="#F27751" stroke="#735F6D" stroke-width="0.5442" stroke-miterlimit="10" d="M17.704,121.974l13.113-12.705
					c0,0,2.551,3.261,3.142,3.689c0.591,0.428-4.304,5.158-5.64,5.029C26.983,117.858,17.704,121.974,17.704,121.974z"/>
				<g>
					<path fill="#FCDCCA" d="M73.694,86.531l-3.662,3.798l8.576,3.516l4.252-6.504c0,0-2.953-3.885-3.248-3.995
						c-0.297-0.11-6.024,2.759-6.024,2.759"/>
					<path fill="#FFECE3" d="M69.584,90.329l-5.726-5.875l5.02-5.876c0,0,5.955,2.331,5.99,2.446
						c0.035,0.114,0.644,5.507,0.644,5.507L69.584,90.329z"/>
					<path fill="#FCDCCA" d="M98.555,83.585c0.12-0.217,0.245-0.431,0.38-0.639c0.238-0.366,0.488-0.723,0.741-1.075
						c0.306-0.529,0.607-1.061,0.901-1.596c0.733-1.341,2.475-3.547,1.752-4.865c-0.08-0.091-0.164-0.178-0.25-0.264
						c-0.373-0.203-0.769-0.363-1.153-0.546c-0.101-0.002-0.202-0.028-0.296-0.09c-0.04-0.027-0.074-0.061-0.105-0.097
						c-0.058,0.04-0.121,0.065-0.186,0.08c-0.115,0.092-0.275,0.122-0.435,0.017c-0.022-0.015-0.038-0.03-0.056-0.046
						c-0.012-0.007-0.023-0.007-0.036-0.015c-0.328-0.218-0.129-0.659,0.173-0.702c0.074-0.053,0.148-0.104,0.223-0.155
						c0.342-0.902,0.929-1.821,1.686-2.468c0.301-0.758,0.573-1.525,0.804-2.307l0.661-0.993c0.352-0.531,0.586-1.064,0.721-1.587
						c0.111-0.369,0.188-0.762,0.212-1.188c0.087-1.524-0.683-3.206-1.917-4.239c-0.113-0.139-0.227-0.274-0.336-0.403
						c-0.841-1.001-1.537-2.104-2.422-3.072c-1.057-1.155-2.484-1.914-3.957-2.563c-1.369-1.134-2.767-2.122-4.521-2.924
						c-1.49-0.683-3.205-0.918-4.876-0.769c-2.062-0.377-3.99-0.792-5.649,0.838c-0.609,0.599-1.143,1.321-1.635,2.09
						c-0.162,0.153-0.317,0.312-0.47,0.471c0.066,0.11,0.083,0.249-0.008,0.39c-0.782,1.21-1.694,2.323-2.521,3.503
						c0.1,0.299-0.237,0.675-0.572,0.451c-0.131-0.087-0.171-0.209-0.162-0.328c-0.836-0.741-1.625-2.191-3.03-1.408
						c-0.632,0.353-1.116,0.837-1.542,1.381c0.002,0.067-0.009,0.138-0.052,0.209c-0.063,0.107-0.13,0.214-0.194,0.321
						c-0.006,0.054-0.025,0.11-0.065,0.168c-0.089,0.129-0.181,0.257-0.272,0.384c-0.767,1.249-1.563,2.486-2.346,3.718
						c-0.593,0.932-1.26,1.811-1.778,2.773c-0.01,0.14-0.012,0.275,0,0.406c0.463,0.914,0.963,1.694,2.014,1.976
						c0.121,0.032,0.196,0.102,0.234,0.188c0.297-0.088,0.66,0.244,0.439,0.576c-0.859,1.296-1.767,2.57-2.587,3.893
						c-0.349,0.563,0.077,0.051-0.227,0.637c0.06,0.115,0.073,0.259,0.007,0.422c-0.27,0.656-0.313,1.229-0.198,1.741
						c0.1,0.026,0.195,0.093,0.274,0.21c1.241,1.868,3.532,2.371,5.201,3.707c0.834,0.666,0.839,1.347,0.328,1.942
						c0.02,0.103-0.006,0.21-0.065,0.297c0.023,0.056,0.052,0.108,0.071,0.167c0.064,0.186-0.008,0.353-0.129,0.456
						c0.125,0.333,0.246,0.667,0.409,0.989c1.685,1.129,3.354,2.28,5.067,3.366c0.077,0.048,0.117,0.11,0.143,0.176
						c0.258,0.015,0.514-0.003,0.762-0.058c0.291-0.383,0.59-0.76,0.932-1.1c0.018-0.048,0.037-0.096,0.051-0.148
						c0.105-0.389,0.598-0.304,0.721-0.006c0.004,0.006,0.009,0.013,0.014,0.02c0.025-0.012,0.05-0.023,0.074-0.032
						c0.953,0.573,1.959,1.092,3.019,1.434c0.134,0.112,0.267,0.229,0.397,0.344c0.078-0.036,0.172-0.042,0.277,0.001
						c0.967,0.397,1.877,0.909,2.838,1.315c0.82,0.346,2.258,1.057,3.137,0.576c1.037-0.565,0.662-0.904,1.552-1.692
						c0.486-0.954,1.056-1.954,1.78-2.75c-0.237-0.382,0.225-0.959,0.669-0.649c0.708,0.493,1.437,1.246,2.291,1.471
						c0.456,0.12,0.899,0.182,1.331,0.311c0-0.001,0-0.001,0-0.001c-0.018-0.08-0.01-0.172,0.037-0.272
						C97.257,85.05,97.926,84.337,98.555,83.585z"/>
					<path fill="#FFECE3" d="M79.856,77.61c2.162-3.355-4.727-6.254-6.893-7.853c-0.415-0.306-0.691-0.884-0.359-1.37
						c0.242-0.356,0.479-0.711,0.662-1.104c0.09-0.194,0.214-0.324,0.354-0.407c0-1.152,1.389-2.16,2.254-1.052
						c0.4,0.514,0.834,0.955,1.283,1.37c0.293,0.016,0.581,0.132,0.813,0.396c3.335,3.776,7.29,6.142,11.526,8.722
						c0.088,0.053,0.162,0.111,0.229,0.174c0.063-0.034,0.125-0.069,0.19-0.103c-0.02-0.074-0.034-0.135-0.028-0.121
						c-0.129-0.336-0.324-0.663-0.523-0.963c-0.301-0.451-0.877-1.161-1.145-1.359c-0.127-0.095-0.238-0.205-0.335-0.323
						c-0.607-0.352-1.194-0.733-1.708-1.215c-1.295-1.214,0.652-3.153,1.943-1.943c1.336,1.252,3.381,1.653,4.604,3.035
						c-0.72-2.166-2.43-3.826-3.452-5.855c-0.471-0.934-0.24-2.017,0.676-2.579c0.166-0.103,0.314-0.224,0.467-0.341
						c-0.012-0.439,0.125-0.908,0.476-1.351c1.446-1.827,3.228-3.473,4.462-5.455c0.537-0.863,1.068-1.692,1.721-2.448
						c-0.461-0.246-0.932-0.479-1.414-0.691c-1.369-1.134-2.767-2.122-4.521-2.924c-1.49-0.683-3.205-0.918-4.876-0.769
						c-2.062-0.377-3.99-0.792-5.649,0.838c-0.609,0.599-1.143,1.321-1.635,2.09c-0.162,0.153-0.317,0.312-0.47,0.471
						c0.066,0.11,0.083,0.249-0.008,0.39c-0.782,1.21-1.694,2.323-2.521,3.503c0.1,0.299-0.237,0.675-0.572,0.451
						c-0.131-0.087-0.171-0.209-0.162-0.328c-0.836-0.741-1.625-2.191-3.03-1.408c-0.632,0.353-1.116,0.837-1.542,1.381
						c0.002,0.067-0.009,0.138-0.052,0.209c-0.063,0.107-0.13,0.214-0.194,0.321c-0.006,0.054-0.025,0.11-0.065,0.168
						c-0.089,0.129-0.181,0.257-0.272,0.384c-0.767,1.249-1.563,2.486-2.346,3.718c-0.593,0.932-1.26,1.811-1.778,2.773
						c-0.01,0.14-0.012,0.275,0,0.406c0.463,0.914,0.963,1.694,2.014,1.976c0.121,0.032,0.196,0.102,0.234,0.188
						c0.297-0.088,0.66,0.244,0.439,0.576c-0.859,1.296-1.767,2.57-2.587,3.893c-0.349,0.563,0.077,0.051-0.227,0.637
						c0.06,0.115,0.073,0.259,0.007,0.422c-0.27,0.656-0.313,1.229-0.198,1.741c0.1,0.026,0.195,0.093,0.274,0.21
						c1.241,1.868,3.532,2.371,5.201,3.707c0.834,0.666,0.839,1.347,0.328,1.942c0.02,0.103-0.006,0.21-0.065,0.297
						c0.023,0.056,0.052,0.108,0.071,0.167c0.064,0.186-0.008,0.353-0.129,0.456c0.125,0.333,0.246,0.667,0.409,0.989
						c0.715,0.479,1.429,0.962,2.143,1.442C75.835,82.568,78.118,80.313,79.856,77.61z"/>
					<path fill="none" stroke="#735F6D" stroke-width="0.6619" stroke-miterlimit="10" d="M107.558,62.1"/>
					<path fill="none" stroke="#735F6D" stroke-width="0.6619" stroke-miterlimit="10" d="M102.993,68.97L89.114,89.85
						c0,0,0.414,0.869-3.707-1.275l-6.592-3.193l-1.369,2.061l-3.022-2.009"/>
					<path fill="none" stroke="#735F6D" stroke-width="0.6619" stroke-miterlimit="10" d="M74.424,85.433l-3.847-2.556l1.461-2.198
						l-5.998-4.383c0,0-1.623-1.146,0.224-3.02l13.099-19.814"/>
					<path fill="none" stroke="#735F6D" stroke-width="0.6619" stroke-miterlimit="10" d="M95.241,63.763
						c0,0,3.705,1.74,2.906,5.898"/>
					<path fill="none" stroke="#735F6D" stroke-width="0.6619" stroke-miterlimit="10" d="M75.512,59.286
						c0,0-2.138-4.457-4.694-0.61c-2.557,3.847-4.245,6.388-4.245,6.388s-2.673,1.591,2.511,3.946"/>
					<path fill="none" stroke="#735F6D" stroke-width="0.6619" stroke-miterlimit="10" d="M99.391,74.464
						c0,0,4.938,0.244,2.381,4.091c-2.557,3.847-4.245,6.388-4.245,6.388s-0.433,3.08-4.611-0.786"/>
					<path fill="none" stroke="#735F6D" stroke-width="0.6619" stroke-miterlimit="10" d="M97.111,77.923c0,0,2.142-0.943,2.968,0.2
						"/>
					<path fill="none" stroke="#735F6D" stroke-width="0.6619" stroke-miterlimit="10" d="M97.111,77.923
						c0,0,1.392,1.974,1.038,3.102"/>
					<path fill="none" stroke="#735F6D" stroke-width="0.6619" stroke-miterlimit="10" d="M73.588,62.112
						c0,0-0.295-2.394-2.058-2.126"/>
					<path fill="none" stroke="#735F6D" stroke-width="0.6619" stroke-miterlimit="10" d="M73.563,62.271c0,0-2.329-0.942-3.882,0.5
						"/>
					<polyline fill="none" stroke="#735F6D" stroke-width="0.6619" stroke-miterlimit="10" points="73.694,86.531 70.032,90.329 
						78.608,93.845 82.86,87.341 					"/>
					<polyline fill="none" stroke="#735F6D" stroke-width="0.6619" stroke-miterlimit="10" points="69.584,90.329 63.858,84.454 
						68.878,78.578 					"/>
					<polyline fill="#FFFFFF" stroke="#735F6D" stroke-width="0.6619" stroke-miterlimit="10" points="84.317,73.081 83.581,74.188 
						82.001,73.139 82.852,71.859 					"/>
					<polyline fill="#FFFFFF" stroke="#735F6D" stroke-width="0.6619" stroke-miterlimit="10" points="81.753,71.277 81.017,72.386 
						79.437,71.335 80.286,70.056 					"/>
					
						<line fill="none" stroke="#735F6D" stroke-width="0.6619" stroke-miterlimit="10" x1="102.526" y1="65.797" x2="105.053" y2="71.427"/>
					
						<line fill="none" stroke="#735F6D" stroke-width="0.6619" stroke-miterlimit="10" x1="101.769" y1="67.268" x2="104.23" y2="72.663"/>
					
						<line fill="none" stroke="#735F6D" stroke-width="0.6619" stroke-miterlimit="10" x1="100.857" y1="68.639" x2="102.878" y2="73.349"/>
					
						<line fill="none" stroke="#735F6D" stroke-width="0.6619" stroke-miterlimit="10" x1="100.339" y1="70.771" x2="102.147" y2="74.447"/>
					<path fill="none" stroke="#735F6D" stroke-width="0.6619" stroke-miterlimit="10" d="M82.544,51.021
						c0,0,11.249-1.436,20.268,10.104c9.016,11.538,12.045,6.98,12.045,6.98"/>
					<path fill="none" stroke="#735F6D" stroke-width="0.6619" stroke-miterlimit="10" d="M114.569,64.96c0,0-0.83,6.02-9.848-5.52
						c-9.018-11.538-20.267-10.104-20.267-10.104"/>
					<path fill="none" stroke="#735F6D" stroke-width="0.6619" stroke-miterlimit="10" d="M86.88,48.072
						c-0.963,0.123,10.26-2.196,18.801,8.732c9.018,11.539,7.929,6.621,7.929,6.621"/>
					<path fill="none" stroke="#735F6D" stroke-width="0.6619" stroke-miterlimit="10" d="M88.856,45.848
						c-0.963,0.123,10.26-2.196,18.801,8.732c9.018,11.538,4.176,5.711,4.176,5.711"/>
					<g>
						<path fill="none" stroke="#735F6D" stroke-width="0.6619" stroke-miterlimit="10" d="M96.7,55.212l-8.219,12.034
							c0,0,11.422,11.341-1.855,2.663l-1.246,2.064c0,0,10.578,8.83-2.711,0.16c0,0-4.029-3.961-7.73-7.217l-2.523,4.393
							l8.449,6.012l-7.17,11.21"/>
						<path fill="none" stroke="#735F6D" stroke-width="0.6619" stroke-miterlimit="10" d="M84.159,75.794
							c0,0,5.516,4.578,9.361,3.553l0.965-1.451l-2.243,3.375"/>
						<path d="M86.049,62.415l-0.724-0.482c-0.623-0.214-1.299-0.044-1.64,0.471c-0.416,0.626-0.18,1.515,0.528,1.985
							c0.709,0.471,1.619,0.345,2.036-0.281C86.591,63.594,86.487,62.906,86.049,62.415z"/>
						
							<ellipse transform="matrix(-0.8329 -0.5534 0.5534 -0.8329 133.8017 178.2115)" cx="93.807" cy="68.905" rx="1.54" ry="1.361"/>
						
							<ellipse transform="matrix(-0.8329 -0.5534 0.5534 -0.8329 133.5862 176.7377)" opacity="0.8" fill="#FFFFFF" cx="93.472" cy="68.204" rx="0.758" ry="0.677"/>
						
							<ellipse transform="matrix(-0.8331 -0.5531 0.5531 -0.8331 120.8031 161.2235)" opacity="0.8" fill="#FFFFFF" cx="84.723" cy="62.388" rx="0.758" ry="0.677"/>
						<path opacity="0.9" fill="#FFFFFF" d="M84.913,64.738v-0.837l0.763,0.507C85.676,64.408,85.361,64.901,84.913,64.738z"/>
						<path opacity="0.9" fill="#FFFFFF" d="M93.698,70.271v-0.838l0.764,0.507C94.462,69.939,94.147,70.433,93.698,70.271z"/>
						<path fill="none" stroke="#735F6D" stroke-width="0.6619" stroke-miterlimit="10" d="M81.621,63.231
							c0,0,2.873,0.201,4.185,3.008"/>
						<path fill="none" stroke="#735F6D" stroke-width="0.6619" stroke-miterlimit="10" d="M90.618,69.05
							c0,0,2.873,0.201,4.186,3.008"/>
					</g>
					<polygon fill="#0A5D66" stroke="#735F6D" stroke-width="0.5442" stroke-miterlimit="10" points="62.819,80.284 87.478,98.14 
						50.962,114.024 33.959,100.154 					"/>
					<path fill="#0A5D66" stroke="#735F6D" stroke-width="0.5442" stroke-miterlimit="10" d="M83.714,97.543l20.584-1.996
						l3.26,0.998l-3.26,3.477c0,0-21.373,4.423-27.852,3.218C69.968,102.035,83.714,97.543,83.714,97.543z"/>
					<path fill="none" stroke="#735F6D" stroke-width="0.6619" stroke-miterlimit="10" d="M70.698,63.062"/>
					<path fill="none" stroke="#735F6D" stroke-width="0.6619" stroke-miterlimit="10" d="M135.395,90.344v1.009l-3.291,0.615
						c0,0,1.176-3.971-1.453-4.922h-1.902"/>
					<path fill="none" stroke="#735F6D" stroke-width="0.6619" stroke-miterlimit="10" d="M132.072,92.191l-2.876,0.447
						c0.672-1.397-0.839-3.522-0.839-3.522l-2.013-0.336"/>
					<path fill="#00C7C4" stroke="#735F6D" stroke-width="0.5442" stroke-miterlimit="10" d="M131.489,86.104h2.35
						c1.51,0.347,1.566,4.521,1.566,4.521l2.516-0.927c-0.279-4.45-1.621-5.394-1.621-5.394c1.063,0.56,1.398,4.306,1.398,4.306
						l2.74-0.838l-3.244-4.698l-0.895,0.392c-4.362-0.783-7.271,1.966-7.271,1.966c4.252-3.066,2.797-5.937,2.797-5.937
						l-3.691-0.022c0.895,2.605-1.789,4.98-1.789,4.98c-6.936,2.665-6.488,5.725-6.824,5.875c-0.335,0.15-15.223,5.218-15.223,5.218
						v4.475c0,0,13.434-5.984,16.006-7.774c0,0,5.314,1.343,8.445-1.789c0,0,0.709,1.343,0.578,1.762l-0.131,0.419l2.47-0.384
						l1.226-0.287l2.504-0.615l0.24-0.063l-0.331-2.938c0,0-0.587-1.531-1.011-1.931"/>
					<path fill="#00C7C4" stroke="#735F6D" stroke-width="0.5442" stroke-miterlimit="10" d="M49.386,115.011l-5.443,5.444
						l-23.863,7.308l-4.624-1.343l1.641-4.176l18.493-8.203c0,0-3.578-1.938-4.772-4.772l-18.941,6.861l-4.624-1.79l3.431-4.475
						c0,0,16.705-7.159,14.094-6.936l7.607-1.789"/>
					<polyline fill="#F27751" stroke="#735F6D" stroke-width="0.5442" stroke-miterlimit="10" points="34.769,99.498 34.099,97.188 
						31.563,96.293 30.817,101.509 					"/>
					<polygon fill="#F27751" stroke="#735F6D" stroke-width="0.5442" stroke-miterlimit="10" points="7.851,113.56 9.936,106.883 
						21.72,97.038 20.824,85.433 24.708,86.531 24.708,90.709 27.089,94.95 24.261,98.901 18.687,106.324 10.683,109.865 					"/>
					<polygon fill="#0A5D66" stroke="#735F6D" stroke-width="0.5442" stroke-miterlimit="10" points="60.718,81.632 37.528,78.578 
						32.793,79.496 34.769,82.423 54.221,86.104 					"/>
					<polygon fill="#00C7C4" stroke="#735F6D" stroke-width="0.5442" stroke-miterlimit="10" points="37.528,78.578 17.704,72.386 
						18.886,68.203 16.499,66.239 15.604,70.555 14.71,70.993 10.981,65.797 8.744,67.499 11.727,70.993 6.655,69.66 5.388,72.188 
						10.906,72.878 6.88,74.966 7.851,77.352 11.876,74.816 10.385,77.501 12.398,77.874 14.113,75.04 17.47,75.189 34.769,82.423 
						32.793,79.496 					"/>
					<path fill="#00C7C4" stroke="#735F6D" stroke-width="0.5442" stroke-miterlimit="10" d="M15.828,71.535
						c0,0-3.207,0.376-2.461,2.574"/>
					<polygon fill="#F27751" stroke="#735F6D" stroke-width="0.5442" stroke-miterlimit="10" points="73.331,90.023 72.371,94.056 
						74.71,96.293 73.588,101.509 76.942,92.639 					"/>
					<polygon fill="#F27751" stroke="#735F6D" stroke-width="0.5442" stroke-miterlimit="10" points="69.603,88.757 65.583,89.771 
						63.313,87.464 58.114,88.659 66.937,85.182 					"/>
					<polygon fill="#E9D234" stroke="#735F6D" stroke-width="0.5442" stroke-miterlimit="10" points="73.331,90.023 68.849,92.639 
						65.884,92.617 65.583,89.771 70.698,87.511 					"/>
					<polygon fill="#E9D234" stroke="#735F6D" stroke-width="0.5442" stroke-miterlimit="10" points="67.591,92.663 56.087,102.482 
						45.343,105.366 50.952,98.129 65.899,90.73 65.896,92.638 					"/>
					<polygon fill="none" stroke="#735F6D" stroke-width="0.6619" stroke-miterlimit="10" points="140.439,86.531 142.228,93.757 
						128.749,99.498 126.359,91.968 					"/>
					<polygon fill="#F27751" stroke="#735F6D" stroke-width="0.5442" stroke-miterlimit="10" points="155.651,106.957 
						160.126,95.24 149.835,90.458 					"/>
					<path fill="#F27751" stroke="#735F6D" stroke-width="0.5442" stroke-miterlimit="10" d="M123.884,101.141l25.951-10.683
						l6.935,16.499h-1.119c0,0,12.305,0.447,11.633,8.054l-2.908,1.119c0,0-0.447-5.369-5.369-3.355
						c-4.922,2.013-9.396-2.462-9.396-2.462l-20.402,6.936L123.884,101.141z"/>
					<path fill="#812018" stroke="#735F6D" stroke-width="0.6619" stroke-miterlimit="10" d="M126.345,108.584l15.883-7.075
						l4.922,3.883v-3.883l6.484-2.011c0-0.597-3.799-9.04-3.799-9.04l-25.951,10.683L126.345,108.584z"/>
					<path fill="none" stroke="#735F6D" stroke-width="0.6619" stroke-miterlimit="10" d="M153.634,98.901"/>
				</g>
			</g>
		</g>
		<g>
			<path fill="#5FC6CE" stroke="#735F6D" stroke-width="0.6619" d="M173.392,120.98c0,0-4.668,6.178,0,6.178
				C178.524,127.158,173.392,120.98,173.392,120.98z"/>
			<path fill="#5FC6CE" stroke="#735F6D" stroke-width="0.6619" d="M174.349,126.071c0,0-4.669,6.177,0,6.177
				C179.482,132.248,174.349,126.071,174.349,126.071z"/>
			<path fill="#5FC6CE" stroke="#735F6D" stroke-width="0.6619" d="M169.035,129.645c0,0-4.669,6.178,0,6.178
				C174.168,135.823,169.035,129.645,169.035,129.645z"/>
			<path fill="#5FC6CE" stroke="#735F6D" stroke-width="0.6619" d="M171.214,132.734c0,0-4.669,6.177,0,6.177
				C176.346,138.911,171.214,132.734,171.214,132.734z"/>
			<path fill="#5FC6CE" stroke="#735F6D" stroke-width="0.6619" d="M169.035,123.972c0,0-4.669,6.178,0,6.178
				C174.168,130.149,169.035,123.972,169.035,123.972z"/>
			<path fill="#5FC6CE" stroke="#735F6D" stroke-width="0.6619" d="M169.035,116.535c0,0-4.669,6.178,0,6.178
				C174.168,122.712,169.035,116.535,169.035,116.535z"/>
			<path fill="#5FC6CE" stroke="#735F6D" stroke-width="0.6619" d="M176.526,132.734c0,0-4.668,6.177,0,6.177
				C181.659,138.911,176.526,132.734,176.526,132.734z"/>
			<path fill="#5FC6CE" stroke="#735F6D" stroke-width="0.6619" d="M178.704,126.071c0,0-4.668,6.177,0,6.177
				C183.837,132.248,178.704,126.071,178.704,126.071z"/>
			<path fill="#5FC6CE" stroke="#735F6D" stroke-width="0.6619" d="M164.679,127.062c0,0-4.668,6.177,0,6.177
				C169.811,133.238,164.679,127.062,164.679,127.062z"/>
			<path fill="#5FC6CE" stroke="#735F6D" stroke-width="0.6619" d="M164.679,113.57c0,0-4.668,6.178,0,6.178
				C169.811,119.748,164.679,113.57,164.679,113.57z"/>
		</g>
	</g>
</g>
</svg>
