<svg xmlns="http://www.w3.org/2000/svg" version="1.1" x="0" y="0" width="205.4" height="185.7" viewBox="0 0 205.4 185.7" enable-background="new 0 0 205.433 185.727" xml:space="preserve"><circle fill="#FFFFFF" cx="89.6" cy="89.6" r="89.6"/><path fill="#F27751" stroke="#735F6D" stroke-width="0.5" stroke-miterlimit="10" d="M82.8 84c0 0-31.7-17-20.1-46.9l-12.2-0.3 1.4 7.5 -3.5-15.4c0 0-14.9 7.5-17.9 4.4l1.8 4.8 -2.8-9.3c0 0-10.8 5.3-14.4 2.6 -3.5-2.7 6.3 23 13.9 33.3l-2.5 3c0 0 10.4 26.8 39.5 27.6l-1.3-11.7 19.9 0.4"/><path fill="#3994CB" stroke="#2F6A86" stroke-width="0.9" d="M179.6 121.3c-20.3-5.1-42.3 8.3-42.3 31.5 0 23.2 22 36.5 42.3 31.5 15.4-3.8 25.3-17.6 25.3-31.5C204.9 138.8 195 125.1 179.6 121.3z"/><path fill="#2E88B1" d="M180.3 126.6c-16.5-3.4-33.5 8-33.5 26.4 0 18.4 17 29.8 33.5 26.3 13.1-2.8 21.8-14.4 21.8-26.4C202.2 140.9 193.4 129.3 180.3 126.6z"/><path fill="#9BC74C" stroke="#788034" stroke-width="0.9" d="M157.5 148.1c2.3-5.4-5.4-5.4-5.4-5.4v-3.4c3-4.9-4.5-5.3-4.5-5.3 -3.3-0.9-6.8 5.4-6.8 5.4 -12.2 16.7 3.5 34.5 3.5 34.5 -0.7-2.9 5.3-10.9 5.3-10.9 4.9 0.1 6.1-0.9 5.5-3.2 2.3-1.5 4-0.6 4-0.6l5.9-4.6c1.5-1.3-0.5-3.5-0.5-3.5C160.4 150.9 157.5 148.1 157.5 148.1z"/><path fill="#9BC74C" stroke="#788034" stroke-width="0.9" d="M151.6 170c-1.9 3.6 3.7 3.8 6.6 2.5C157.5 166.6 151.6 170 151.6 170z"/><path fill="#D1B644" stroke="#788034" stroke-width="0.9" d="M179.6 165.7c-4.3 3.3-2.6 7.1-2.6 7.1 2.1 1.2 5-2.7 5-2.7 2.7-1.1 1.6-3.3 1.6-3.3S182.1 164.3 179.6 165.7z"/><path fill="#9BC74C" stroke="#788034" stroke-width="1.9" d="M194.3 168c1.3 0.2 3.2-1.8 2.2-4.1C194.3 163.5 194.3 168 194.3 168z"/><path fill="#9BC74C" stroke="#788034" stroke-width="0.9" d="M190.3 171.8c-2.9-0.6-1.8 3.6-4 4.8 -2.3 1.2 0 4.5 0 4.5 8.3-3.7 14.5-12.6 14.5-12.6l-5.2 3.2C193.7 173.7 190.3 171.8 190.3 171.8z"/><path fill="#9BC74C" stroke="#788034" stroke-width="0.9" d="M204.1 145.8c0 0-4.2-0.9-4.2-4.2 0 0 0.9-2.5 1.7-2.1 0 0-2.6-9-5.1-9.2 0 0-3.5 4.2-4.9 0.1l-2.8-4.9 -3.3-1.5c0 0-4.7 1.6-2.3 4.4 0 0 2.7 2.4 0 3.1l-4.5 0c0 0-5.7 2.8-3.9 5.1l2.6 1.9 4.6 0.1 1.2 3.2 5.3 0.1c0 0 3.2 4.2 3.5 7.1 0 0 5.2 6.9-2.8 4.6l-2.2 3.7c0 0 0 7.8 3.9 4.9l1-2.6c2.3-0.1 3-2.6 3-2.6l3.7-1.8 1.8-3c-0.3-2.6 1.1-3.6 2 1.6 0 0 2.2-1.6 2.5-2.9C204.9 151.8 205.2 146.5 204.1 145.8z"/><path fill="#D0DD45" d="M198.7 138.1c0.6-0.9-1.8-4.3-1.8-4.3l-3.2 1.2 -4.5-5.1c0 0-4.4-3.5-2.9 2.4 0 0-6.3 2.1-1.9 4.6l5.2 1c0 0 1.1 5.9 3.1 5l2.9 0.3c0 0-2.3 3.7 1.3 4.5v3.1c0 0 2.7-2.6 3-3.9l-2.1-4.5C197.8 142.3 198.1 139 198.7 138.1z"/><path fill="#D0DD45" d="M152.8 148l-4.4-1.6 -1.3-7.5c0 0-13.6 7.9-4.8 25.1l2.8-6.2c0 0 7.1 3.1 6.5-2.6l4.8-1.5L152.8 148z"/><path fill="#5AB4D4" d="M152.2 130.2c-5.1 4.2 8.7 0.8 8.7 0.8l-2.8 4.2c-4.7 5.1 8.6 2.3 8.6 2.3 4.4-4.1-2.1-3.7-2.1-3.7l9.7-4.4c4.8-0.7 5.6-6.1 5.6-6.1C160.9 121.1 152.2 130.2 152.2 130.2z"/><path fill="#5AB4D4" d="M167.5 139.8c-2.1-0.2-3.9 0.7-3.9 2.1 0 1.3 1.8 2.5 3.9 2.7 2 0.1 3.7-0.8 3.7-2.1C171.1 141.2 169.5 140 167.5 139.8z"/><path fill="none" stroke="#735F6D" stroke-width="0.7" stroke-miterlimit="10" d="M87.3 59.7c0 0-2.4-1.7-5.2-1"/><line fill="none" stroke="#735F6D" stroke-width="0.7" stroke-miterlimit="10" x1="82.7" y1="52.6" x2="76.5" y2="52.5"/><line fill="none" stroke="#735F6D" stroke-width="0.7" stroke-miterlimit="10" x1="81.6" y1="53.9" x2="75.7" y2="53.7"/><line fill="none" stroke="#735F6D" stroke-width="0.7" stroke-miterlimit="10" x1="81.2" y1="55.3" x2="76" y2="55.2"/><line fill="none" stroke="#735F6D" stroke-width="0.7" stroke-miterlimit="10" x1="79" y1="56.6" x2="74.9" y2="56.3"/><path fill="none" stroke="#735F6D" stroke-width="0.7" stroke-miterlimit="10" d="M83.9 49c0 0-2.4-0.2-3.5 2.2"/><path fill="none" stroke="#735F6D" stroke-width="0.7" stroke-miterlimit="10" d="M85.9 47.5c0 0-3.3-2.1-4.9 1"/><path fill="none" stroke="#735F6D" stroke-width="0.7" stroke-miterlimit="10" d="M87 45.8c0 0-3.3-1.7-5.6 0.7"/><path fill="#F27751" stroke="#735F6D" stroke-width="0.5" stroke-miterlimit="10" d="M17.7 122l13.1-12.7c0 0 2.6 3.3 3.1 3.7 0.6 0.4-4.3 5.2-5.6 5C27 117.9 17.7 122 17.7 122z"/><path fill="#FCDCCA" d="M73.7 86.5l-3.7 3.8 8.6 3.5 4.3-6.5c0 0-3-3.9-3.2-4 -0.3-0.1-6 2.8-6 2.8"/><path fill="#FFECE3" d="M69.6 90.3l-5.7-5.9 5-5.9c0 0 6 2.3 6 2.4 0 0.1 0.6 5.5 0.6 5.5L69.6 90.3z"/><path fill="#FCDCCA" d="M98.6 83.6c0.1-0.2 0.2-0.4 0.4-0.6 0.2-0.4 0.5-0.7 0.7-1.1 0.3-0.5 0.6-1.1 0.9-1.6 0.7-1.3 2.5-3.5 1.8-4.9 -0.1-0.1-0.2-0.2-0.2-0.3 -0.4-0.2-0.8-0.4-1.2-0.5 -0.1 0-0.2 0-0.3-0.1 0 0-0.1-0.1-0.1-0.1 -0.1 0-0.1 0.1-0.2 0.1 -0.1 0.1-0.3 0.1-0.4 0 0 0 0 0-0.1 0 0 0 0 0 0 0 -0.3-0.2-0.1-0.7 0.2-0.7 0.1-0.1 0.1-0.1 0.2-0.2 0.3-0.9 0.9-1.8 1.7-2.5 0.3-0.8 0.6-1.5 0.8-2.3l0.7-1c0.4-0.5 0.6-1.1 0.7-1.6 0.1-0.4 0.2-0.8 0.2-1.2 0.1-1.5-0.7-3.2-1.9-4.2 -0.1-0.1-0.2-0.3-0.3-0.4 -0.8-1-1.5-2.1-2.4-3.1 -1.1-1.2-2.5-1.9-4-2.6 -1.4-1.1-2.8-2.1-4.5-2.9 -1.5-0.7-3.2-0.9-4.9-0.8 -2.1-0.4-4-0.8-5.6 0.8 -0.6 0.6-1.1 1.3-1.6 2.1 -0.2 0.2-0.3 0.3-0.5 0.5 0.1 0.1 0.1 0.2 0 0.4 -0.8 1.2-1.7 2.3-2.5 3.5 0.1 0.3-0.2 0.7-0.6 0.5 -0.1-0.1-0.2-0.2-0.2-0.3 -0.8-0.7-1.6-2.2-3-1.4 -0.6 0.4-1.1 0.8-1.5 1.4 0 0.1 0 0.1-0.1 0.2 -0.1 0.1-0.1 0.2-0.2 0.3 0 0.1 0 0.1-0.1 0.2 -0.1 0.1-0.2 0.3-0.3 0.4 -0.8 1.2-1.6 2.5-2.3 3.7 -0.6 0.9-1.3 1.8-1.8 2.8 0 0.1 0 0.3 0 0.4 0.5 0.9 1 1.7 2 2 0.1 0 0.2 0.1 0.2 0.2 0.3-0.1 0.7 0.2 0.4 0.6 -0.9 1.3-1.8 2.6-2.6 3.9 -0.3 0.6 0.1 0.1-0.2 0.6 0.1 0.1 0.1 0.3 0 0.4 -0.3 0.7-0.3 1.2-0.2 1.7 0.1 0 0.2 0.1 0.3 0.2 1.2 1.9 3.5 2.4 5.2 3.7 0.8 0.7 0.8 1.3 0.3 1.9 0 0.1 0 0.2-0.1 0.3 0 0.1 0.1 0.1 0.1 0.2 0.1 0.2 0 0.4-0.1 0.5 0.1 0.3 0.2 0.7 0.4 1 1.7 1.1 3.4 2.3 5.1 3.4 0.1 0 0.1 0.1 0.1 0.2 0.3 0 0.5 0 0.8-0.1 0.3-0.4 0.6-0.8 0.9-1.1 0 0 0-0.1 0.1-0.1 0.1-0.4 0.6-0.3 0.7 0 0 0 0 0 0 0 0 0 0.1 0 0.1 0 1 0.6 2 1.1 3 1.4 0.1 0.1 0.3 0.2 0.4 0.3 0.1 0 0.2 0 0.3 0 1 0.4 1.9 0.9 2.8 1.3 0.8 0.3 2.3 1.1 3.1 0.6 1-0.6 0.7-0.9 1.6-1.7 0.5-1 1.1-2 1.8-2.7 -0.2-0.4 0.2-1 0.7-0.6 0.7 0.5 1.4 1.2 2.3 1.5 0.5 0.1 0.9 0.2 1.3 0.3 0 0 0 0 0 0 0-0.1 0-0.2 0-0.3C97.3 85.1 97.9 84.3 98.6 83.6z"/><path fill="#FFECE3" d="M79.9 77.6c2.2-3.4-4.7-6.3-6.9-7.9 -0.4-0.3-0.7-0.9-0.4-1.4 0.2-0.4 0.5-0.7 0.7-1.1 0.1-0.2 0.2-0.3 0.4-0.4 0-1.2 1.4-2.2 2.3-1.1 0.4 0.5 0.8 1 1.3 1.4 0.3 0 0.6 0.1 0.8 0.4 3.3 3.8 7.3 6.1 11.5 8.7 0.1 0.1 0.2 0.1 0.2 0.2 0.1 0 0.1-0.1 0.2-0.1 0-0.1 0-0.1 0-0.1 -0.1-0.3-0.3-0.7-0.5-1 -0.3-0.5-0.9-1.2-1.1-1.4 -0.1-0.1-0.2-0.2-0.3-0.3 -0.6-0.4-1.2-0.7-1.7-1.2 -1.3-1.2 0.7-3.2 1.9-1.9 1.3 1.3 3.4 1.7 4.6 3 -0.7-2.2-2.4-3.8-3.5-5.9 -0.5-0.9-0.2-2 0.7-2.6 0.2-0.1 0.3-0.2 0.5-0.3 0-0.4 0.1-0.9 0.5-1.4 1.4-1.8 3.2-3.5 4.5-5.5 0.5-0.9 1.1-1.7 1.7-2.4 -0.5-0.2-0.9-0.5-1.4-0.7 -1.4-1.1-2.8-2.1-4.5-2.9 -1.5-0.7-3.2-0.9-4.9-0.8 -2.1-0.4-4-0.8-5.6 0.8 -0.6 0.6-1.1 1.3-1.6 2.1 -0.2 0.2-0.3 0.3-0.5 0.5 0.1 0.1 0.1 0.2 0 0.4 -0.8 1.2-1.7 2.3-2.5 3.5 0.1 0.3-0.2 0.7-0.6 0.5 -0.1-0.1-0.2-0.2-0.2-0.3 -0.8-0.7-1.6-2.2-3-1.4 -0.6 0.4-1.1 0.8-1.5 1.4 0 0.1 0 0.1-0.1 0.2 -0.1 0.1-0.1 0.2-0.2 0.3 0 0.1 0 0.1-0.1 0.2 -0.1 0.1-0.2 0.3-0.3 0.4 -0.8 1.2-1.6 2.5-2.3 3.7 -0.6 0.9-1.3 1.8-1.8 2.8 0 0.1 0 0.3 0 0.4 0.5 0.9 1 1.7 2 2 0.1 0 0.2 0.1 0.2 0.2 0.3-0.1 0.7 0.2 0.4 0.6 -0.9 1.3-1.8 2.6-2.6 3.9 -0.3 0.6 0.1 0.1-0.2 0.6 0.1 0.1 0.1 0.3 0 0.4 -0.3 0.7-0.3 1.2-0.2 1.7 0.1 0 0.2 0.1 0.3 0.2 1.2 1.9 3.5 2.4 5.2 3.7 0.8 0.7 0.8 1.3 0.3 1.9 0 0.1 0 0.2-0.1 0.3 0 0.1 0.1 0.1 0.1 0.2 0.1 0.2 0 0.4-0.1 0.5 0.1 0.3 0.2 0.7 0.4 1 0.7 0.5 1.4 1 2.1 1.4C75.8 82.6 78.1 80.3 79.9 77.6z"/><path fill="none" stroke="#735F6D" stroke-width="0.7" stroke-miterlimit="10" d="M107.6 62.1"/><path fill="none" stroke="#735F6D" stroke-width="0.7" stroke-miterlimit="10" d="M103 69L89.1 89.9c0 0 0.4 0.9-3.7-1.3l-6.6-3.2 -1.4 2.1 -3-2"/><path fill="none" stroke="#735F6D" stroke-width="0.7" stroke-miterlimit="10" d="M74.4 85.4l-3.8-2.6 1.5-2.2 -6-4.4c0 0-1.6-1.1 0.2-3l13.1-19.8"/><path fill="none" stroke="#735F6D" stroke-width="0.7" stroke-miterlimit="10" d="M95.2 63.8c0 0 3.7 1.7 2.9 5.9"/><path fill="none" stroke="#735F6D" stroke-width="0.7" stroke-miterlimit="10" d="M75.5 59.3c0 0-2.1-4.5-4.7-0.6 -2.6 3.8-4.2 6.4-4.2 6.4s-2.7 1.6 2.5 3.9"/><path fill="none" stroke="#735F6D" stroke-width="0.7" stroke-miterlimit="10" d="M99.4 74.5c0 0 4.9 0.2 2.4 4.1 -2.6 3.8-4.2 6.4-4.2 6.4s-0.4 3.1-4.6-0.8"/><path fill="none" stroke="#735F6D" stroke-width="0.7" stroke-miterlimit="10" d="M97.1 77.9c0 0 2.1-0.9 3 0.2"/><path fill="none" stroke="#735F6D" stroke-width="0.7" stroke-miterlimit="10" d="M97.1 77.9c0 0 1.4 2 1 3.1"/><path fill="none" stroke="#735F6D" stroke-width="0.7" stroke-miterlimit="10" d="M73.6 62.1c0 0-0.3-2.4-2.1-2.1"/><path fill="none" stroke="#735F6D" stroke-width="0.7" stroke-miterlimit="10" d="M73.6 62.3c0 0-2.3-0.9-3.9 0.5"/><polyline fill="none" stroke="#735F6D" stroke-width="0.7" stroke-miterlimit="10" points="73.7 86.5 70 90.3 78.6 93.8 82.9 87.3 "/><polyline fill="none" stroke="#735F6D" stroke-width="0.7" stroke-miterlimit="10" points="69.6 90.3 63.9 84.5 68.9 78.6 "/><polyline fill="#FFFFFF" stroke="#735F6D" stroke-width="0.7" stroke-miterlimit="10" points="84.3 73.1 83.6 74.2 82 73.1 82.9 71.9 "/><polyline fill="#FFFFFF" stroke="#735F6D" stroke-width="0.7" stroke-miterlimit="10" points="81.8 71.3 81 72.4 79.4 71.3 80.3 70.1 "/><line fill="none" stroke="#735F6D" stroke-width="0.7" stroke-miterlimit="10" x1="102.5" y1="65.8" x2="105.1" y2="71.4"/><line fill="none" stroke="#735F6D" stroke-width="0.7" stroke-miterlimit="10" x1="101.8" y1="67.3" x2="104.2" y2="72.7"/><line fill="none" stroke="#735F6D" stroke-width="0.7" stroke-miterlimit="10" x1="100.9" y1="68.6" x2="102.9" y2="73.3"/><line fill="none" stroke="#735F6D" stroke-width="0.7" stroke-miterlimit="10" x1="100.3" y1="70.8" x2="102.1" y2="74.4"/><path fill="none" stroke="#735F6D" stroke-width="0.7" stroke-miterlimit="10" d="M82.5 51c0 0 11.2-1.4 20.3 10.1 9 11.5 12 7 12 7"/><path fill="none" stroke="#735F6D" stroke-width="0.7" stroke-miterlimit="10" d="M114.6 65c0 0-0.8 6-9.8-5.5 -9-11.5-20.3-10.1-20.3-10.1"/><path fill="none" stroke="#735F6D" stroke-width="0.7" stroke-miterlimit="10" d="M86.9 48.1c-1 0.1 10.3-2.2 18.8 8.7 9 11.5 7.9 6.6 7.9 6.6"/><path fill="none" stroke="#735F6D" stroke-width="0.7" stroke-miterlimit="10" d="M88.9 45.8c-1 0.1 10.3-2.2 18.8 8.7 9 11.5 4.2 5.7 4.2 5.7"/><path fill="none" stroke="#735F6D" stroke-width="0.7" stroke-miterlimit="10" d="M96.7 55.2l-8.2 12c0 0 11.4 11.3-1.9 2.7l-1.2 2.1c0 0 10.6 8.8-2.7 0.2 0 0-4-4-7.7-7.2l-2.5 4.4 8.4 6 -7.2 11.2"/><path fill="none" stroke="#735F6D" stroke-width="0.7" stroke-miterlimit="10" d="M84.2 75.8c0 0 5.5 4.6 9.4 3.6l1-1.5 -2.2 3.4"/><path d="M86 62.4l-0.7-0.5c-0.6-0.2-1.3 0-1.6 0.5 -0.4 0.6-0.2 1.5 0.5 2 0.7 0.5 1.6 0.3 2-0.3C86.6 63.6 86.5 62.9 86 62.4z"/><ellipse transform="matrix(-0.8329 -0.5534 0.5534 -0.8329 133.8017 178.2115)" cx="93.8" cy="68.9" rx="1.5" ry="1.4"/><ellipse transform="matrix(-0.8329 -0.5534 0.5534 -0.8329 133.5862 176.7377)" opacity="0.8" fill="#FFFFFF" cx="93.5" cy="68.2" rx="0.8" ry="0.7"/><ellipse transform="matrix(-0.8331 -0.5531 0.5531 -0.8331 120.8031 161.2235)" opacity="0.8" fill="#FFFFFF" cx="84.7" cy="62.4" rx="0.8" ry="0.7"/><path opacity="0.9" fill="#FFFFFF" d="M84.9 64.7v-0.8l0.8 0.5C85.7 64.4 85.4 64.9 84.9 64.7z"/><path opacity="0.9" fill="#FFFFFF" d="M93.7 70.3v-0.8l0.8 0.5C94.5 69.9 94.1 70.4 93.7 70.3z"/><path fill="none" stroke="#735F6D" stroke-width="0.7" stroke-miterlimit="10" d="M81.6 63.2c0 0 2.9 0.2 4.2 3"/><path fill="none" stroke="#735F6D" stroke-width="0.7" stroke-miterlimit="10" d="M90.6 69.1c0 0 2.9 0.2 4.2 3"/><polygon fill="#0A5D66" stroke="#735F6D" stroke-width="0.5" stroke-miterlimit="10" points="62.8 80.3 87.5 98.1 51 114 34 100.2 "/><path fill="#0A5D66" stroke="#735F6D" stroke-width="0.5" stroke-miterlimit="10" d="M83.7 97.5l20.6-2 3.3 1 -3.3 3.5c0 0-21.4 4.4-27.9 3.2C70 102 83.7 97.5 83.7 97.5z"/><path fill="none" stroke="#735F6D" stroke-width="0.7" stroke-miterlimit="10" d="M70.7 63.1"/><path fill="none" stroke="#735F6D" stroke-width="0.7" stroke-miterlimit="10" d="M135.4 90.3v1l-3.3 0.6c0 0 1.2-4-1.5-4.9h-1.9"/><path fill="none" stroke="#735F6D" stroke-width="0.7" stroke-miterlimit="10" d="M132.1 92.2l-2.9 0.4c0.7-1.4-0.8-3.5-0.8-3.5l-2-0.3"/><path fill="#00C7C4" stroke="#735F6D" stroke-width="0.5" stroke-miterlimit="10" d="M131.5 86.1h2.4c1.5 0.3 1.6 4.5 1.6 4.5l2.5-0.9c-0.3-4.4-1.6-5.4-1.6-5.4 1.1 0.6 1.4 4.3 1.4 4.3l2.7-0.8 -3.2-4.7 -0.9 0.4c-4.4-0.8-7.3 2-7.3 2 4.3-3.1 2.8-5.9 2.8-5.9l-3.7 0c0.9 2.6-1.8 5-1.8 5 -6.9 2.7-6.5 5.7-6.8 5.9 -0.3 0.2-15.2 5.2-15.2 5.2v4.5c0 0 13.4-6 16-7.8 0 0 5.3 1.3 8.4-1.8 0 0 0.7 1.3 0.6 1.8l-0.1 0.4 2.5-0.4 1.2-0.3 2.5-0.6 0.2-0.1 -0.3-2.9c0 0-0.6-1.5-1-1.9"/><path fill="#00C7C4" stroke="#735F6D" stroke-width="0.5" stroke-miterlimit="10" d="M49.4 115l-5.4 5.4 -23.9 7.3 -4.6-1.3 1.6-4.2 18.5-8.2c0 0-3.6-1.9-4.8-4.8l-18.9 6.9 -4.6-1.8 3.4-4.5c0 0 16.7-7.2 14.1-6.9l7.6-1.8"/><polyline fill="#F27751" stroke="#735F6D" stroke-width="0.5" stroke-miterlimit="10" points="34.8 99.5 34.1 97.2 31.6 96.3 30.8 101.5 "/><polygon fill="#F27751" stroke="#735F6D" stroke-width="0.5" stroke-miterlimit="10" points="7.9 113.6 9.9 106.9 21.7 97 20.8 85.4 24.7 86.5 24.7 90.7 27.1 95 24.3 98.9 18.7 106.3 10.7 109.9 "/><polygon fill="#0A5D66" stroke="#735F6D" stroke-width="0.5" stroke-miterlimit="10" points="60.7 81.6 37.5 78.6 32.8 79.5 34.8 82.4 54.2 86.1 "/><polygon fill="#00C7C4" stroke="#735F6D" stroke-width="0.5" stroke-miterlimit="10" points="37.5 78.6 17.7 72.4 18.9 68.2 16.5 66.2 15.6 70.6 14.7 71 11 65.8 8.7 67.5 11.7 71 6.7 69.7 5.4 72.2 10.9 72.9 6.9 75 7.9 77.4 11.9 74.8 10.4 77.5 12.4 77.9 14.1 75 17.5 75.2 34.8 82.4 32.8 79.5 "/><path fill="#00C7C4" stroke="#735F6D" stroke-width="0.5" stroke-miterlimit="10" d="M15.8 71.5c0 0-3.2 0.4-2.5 2.6"/><polygon fill="#F27751" stroke="#735F6D" stroke-width="0.5" stroke-miterlimit="10" points="73.3 90 72.4 94.1 74.7 96.3 73.6 101.5 76.9 92.6 "/><polygon fill="#F27751" stroke="#735F6D" stroke-width="0.5" stroke-miterlimit="10" points="69.6 88.8 65.6 89.8 63.3 87.5 58.1 88.7 66.9 85.2 "/><polygon fill="#E9D234" stroke="#735F6D" stroke-width="0.5" stroke-miterlimit="10" points="73.3 90 68.8 92.6 65.9 92.6 65.6 89.8 70.7 87.5 "/><polygon fill="#E9D234" stroke="#735F6D" stroke-width="0.5" stroke-miterlimit="10" points="67.6 92.7 56.1 102.5 45.3 105.4 51 98.1 65.9 90.7 65.9 92.6 "/><polygon fill="none" stroke="#735F6D" stroke-width="0.7" stroke-miterlimit="10" points="140.4 86.5 142.2 93.8 128.7 99.5 126.4 92 "/><polygon fill="#F27751" stroke="#735F6D" stroke-width="0.5" stroke-miterlimit="10" points="155.7 107 160.1 95.2 149.8 90.5 "/><path fill="#F27751" stroke="#735F6D" stroke-width="0.5" stroke-miterlimit="10" d="M123.9 101.1l26-10.7 6.9 16.5h-1.1c0 0 12.3 0.4 11.6 8.1l-2.9 1.1c0 0-0.4-5.4-5.4-3.4 -4.9 2-9.4-2.5-9.4-2.5l-20.4 6.9L123.9 101.1z"/><path fill="#812018" stroke="#735F6D" stroke-width="0.7" stroke-miterlimit="10" d="M126.3 108.6l15.9-7.1 4.9 3.9v-3.9l6.5-2c0-0.6-3.8-9-3.8-9l-26 10.7L126.3 108.6z"/><path fill="none" stroke="#735F6D" stroke-width="0.7" stroke-miterlimit="10" d="M153.6 98.9"/><path fill="#5FC6CE" stroke="#735F6D" stroke-width="0.7" d="M173.4 121c0 0-4.7 6.2 0 6.2C178.5 127.2 173.4 121 173.4 121z"/><path fill="#5FC6CE" stroke="#735F6D" stroke-width="0.7" d="M174.3 126.1c0 0-4.7 6.2 0 6.2C179.5 132.2 174.3 126.1 174.3 126.1z"/><path fill="#5FC6CE" stroke="#735F6D" stroke-width="0.7" d="M169 129.6c0 0-4.7 6.2 0 6.2C174.2 135.8 169 129.6 169 129.6z"/><path fill="#5FC6CE" stroke="#735F6D" stroke-width="0.7" d="M171.2 132.7c0 0-4.7 6.2 0 6.2C176.3 138.9 171.2 132.7 171.2 132.7z"/><path fill="#5FC6CE" stroke="#735F6D" stroke-width="0.7" d="M169 124c0 0-4.7 6.2 0 6.2C174.2 130.1 169 124 169 124z"/><path fill="#5FC6CE" stroke="#735F6D" stroke-width="0.7" d="M169 116.5c0 0-4.7 6.2 0 6.2C174.2 122.7 169 116.5 169 116.5z"/><path fill="#5FC6CE" stroke="#735F6D" stroke-width="0.7" d="M176.5 132.7c0 0-4.7 6.2 0 6.2C181.7 138.9 176.5 132.7 176.5 132.7z"/><path fill="#5FC6CE" stroke="#735F6D" stroke-width="0.7" d="M178.7 126.1c0 0-4.7 6.2 0 6.2C183.8 132.2 178.7 126.1 178.7 126.1z"/><path fill="#5FC6CE" stroke="#735F6D" stroke-width="0.7" d="M164.7 127.1c0 0-4.7 6.2 0 6.2C169.8 133.2 164.7 127.1 164.7 127.1z"/><path fill="#5FC6CE" stroke="#735F6D" stroke-width="0.7" d="M164.7 113.6c0 0-4.7 6.2 0 6.2C169.8 119.7 164.7 113.6 164.7 113.6z"/></svg>