<?xml version="1.0" encoding="utf-8"?>
<!-- Generator: Adobe Illustrator 17.0.0, SVG Export Plug-In . SVG Version: 6.00 Build 0)  -->
<!DOCTYPE svg PUBLIC "-//W3C//DTD SVG 1.1//EN" "http://www.w3.org/Graphics/SVG/1.1/DTD/svg11.dtd">
<svg version="1.1" id="Layer_1" xmlns="http://www.w3.org/2000/svg" xmlns:xlink="http://www.w3.org/1999/xlink" x="0px" y="0px"
	 width="188.733px" height="179.274px" viewBox="0 0 188.733 179.274" enable-background="new 0 0 188.733 179.274"
	 xml:space="preserve">
<g>
	<circle fill="#FFFFFF" cx="89.637" cy="89.638" r="89.637"/>
	<g>
		<path fill="#0A5D66" stroke="#735F6D" stroke-width="0.8222" stroke-miterlimit="10" d="M82.655,129.199
			c-1.321-2.152-3.011-33.383-3.011-33.383L62.009,83.896c0,0-50.232,20.709-56.167,23c15.399,12.958,21.722,16.106,40.561,20.532
			C65.241,131.854,82.655,129.199,82.655,129.199z"/>
		<path fill="#0A5D66" stroke="#735F6D" stroke-width="0.8222" stroke-miterlimit="10" d="M21.894,97.731l-10.029,6.108
			c0,0,8.279,22.075,45.531,21.247l4.613,5.795l-7.76,4.967c0,0-37.329-0.799-50.618-25.51c0,0-0.405-7.051,6.26-7.051
			L21.894,97.731z"/>
		<g>
			<path fill="#3994CB" stroke="#2F6A86" stroke-width="0.9184" d="M127.896,71.349c-28.09-5.935-58.504,9.667-58.504,36.844
				c0,27.175,30.414,42.777,58.504,36.842c21.246-4.488,35.012-20.579,35.012-36.843C162.907,91.929,149.142,75.838,127.896,71.349z
				"/>
			<path fill="#2E88B1" d="M128.909,77.526c-22.813-4.036-46.238,9.332-46.238,30.937c0,21.601,23.425,34.912,46.238,30.82
				c18.06-3.239,30.153-16.828,30.153-30.916C159.063,94.28,146.969,80.721,128.909,77.526z"/>
			<g>
				<path fill="#9BC74C" stroke="#788034" stroke-width="0.9184" d="M97.425,102.781c3.133-6.31-7.42-6.362-7.42-6.362v-3.925
					c4.188-5.735-6.15-6.223-6.15-6.223c-4.618-1.052-9.434,6.274-9.434,6.274c-16.914,19.525,4.815,40.386,4.815,40.386
					c-0.948-3.443,7.298-12.774,7.298-12.774c6.834,0.173,8.476-1.018,7.658-3.722c3.232-1.752,5.592-0.757,5.592-0.757l8.203-5.435
					c2.123-1.545-0.719-4.113-0.719-4.113C101.327,106.068,97.425,102.781,97.425,102.781z"/>
				<path fill="#9BC74C" stroke="#788034" stroke-width="0.9184" d="M89.149,128.455c-2.615,4.238,5.043,4.466,9.067,2.911
					C97.425,124.423,89.149,128.455,89.149,128.455z"/>
				<path fill="#D1B644" stroke="#788034" stroke-width="0.9184" d="M127.896,123.39c-5.962,3.854-3.529,8.295-3.529,8.295
					c2.95,1.458,6.92-3.172,6.92-3.172c3.794-1.333,2.189-3.826,2.189-3.826S131.286,121.739,127.896,123.39z"/>
				<path fill="#9BC74C" stroke="#788034" stroke-width="1.8367" d="M148.259,126.089c1.779,0.195,4.369-2.088,3.086-4.742
					C148.259,120.801,148.259,126.089,148.259,126.089z"/>
				<path fill="#9BC74C" stroke="#788034" stroke-width="0.9184" d="M142.667,130.532c-3.958-0.741-2.451,4.195-5.494,5.566
					c-3.158,1.423,0,5.232,0,5.232c11.535-4.344,19.984-14.742,19.984-14.742l-7.119,3.717
					C147.355,132.741,142.667,130.532,142.667,130.532z"/>
				<path fill="#9BC74C" stroke="#788034" stroke-width="0.9184" d="M161.794,100.029c0,0-5.846-1.112-5.846-4.977
					c0,0,1.209-2.957,2.396-2.446c0,0-3.624-10.524-7-10.723c0,0-4.905,4.906-6.768,0.069l-3.865-5.763l-4.578-1.785
					c0,0-6.525,1.864-3.201,5.163c0,0,3.723,2.816,0,3.578l-6.197,0.011c0,0-7.936,3.229-5.42,5.918l3.649,2.258l6.321,0.149
					l1.646,3.739l7.283,0.13c0,0,4.359,4.928,4.83,8.272c0,0,7.156,8.135-3.84,5.418l-3.006,4.35c0,0,0,9.1,5.427,5.693l1.419-3.003
					c3.213-0.161,4.107-3.037,4.107-3.037l5.153-2.118l2.449-3.504c-0.401-3.086,1.589-4.173,2.757,1.899
					c0,0,3.025-1.868,3.395-3.339C162.907,107.088,163.274,100.85,161.794,100.029z"/>
				<path fill="#D0DD45" d="M154.307,90.998c0.825-1.07-2.532-5.064-2.532-5.064l-4.42,1.392l-6.148-5.933
					c0,0-6.126-4.111-4.033,2.817c0,0-8.703,2.407-2.625,5.377l7.148,1.217c0,0,1.453,6.882,4.281,5.83l4.061,0.3
					c0,0-3.139,4.282,1.736,5.296v3.577c0,0,3.768-3.04,4.174-4.57l-2.898-5.261C153.051,95.976,153.473,92.079,154.307,90.998z"/>
				<path fill="#D0DD45" d="M90.856,102.608l-6.102-1.886l-1.809-8.751c0,0-18.813,9.302-6.575,29.346l3.806-7.26
					c0,0,9.828,3.664,8.973-3.052l6.672-1.724L90.856,102.608z"/>
			</g>
			<path fill="#5AB4D4" d="M90.005,81.843c-7.059,4.917,12.084,0.972,12.084,0.972l-3.872,4.899
				c-6.516,6.02,11.894,2.715,11.894,2.715c6.1-4.841-2.842-4.384-2.842-4.384l13.424-5.188c6.624-0.852,7.777-7.091,7.777-7.091
				C102.089,71.184,90.005,81.843,90.005,81.843z"/>
			<path fill="#5AB4D4" d="M111.155,93.05c-2.912-0.231-5.339,0.854-5.339,2.43c0,1.576,2.427,2.976,5.339,3.122
				c2.824,0.142,5.055-0.956,5.055-2.449C116.21,94.66,113.979,93.273,111.155,93.05z"/>
		</g>
		<path fill="#FFECE3" d="M69.817,68.072c-1.541-2.469-3.742-3.646-6.366-4.644c-0.729-0.279-1.468-0.535-2.206-0.786
			c0.441-4.529,2.652-9.512,5.055-12.923c1.33-1.89,1.531-3.752,1.012-5.359c0.229-2.965-1.242-5.947-5.01-6.84
			C50.179,34.65,41.381,41.901,31.63,47.749c-3.039,1.823-3.804,4.793-3.145,7.455c-0.742,2.636-2.009,5.137-2.284,7.907
			c-0.227,2.295-0.138,4.618-0.181,6.928c-0.289-0.036-0.586-0.063-0.898-0.065c-0.258-0.152-0.543-0.26-0.857-0.302
			c-0.33-0.045-0.658-0.07-0.98-0.078c-1.461-1.074-4.039-0.609-5.035,0.979c-1.498,2.392-1.767,4.903-1.854,7.451
			c-0.042,0.194-0.085,0.389-0.135,0.583c-0.03,0.118-0.05,0.232-0.067,0.347c-0.16,0.457-0.285,0.897-0.347,1.309
			c-0.453,3.055-0.194,5.931-1.241,8.9c-0.775,2.196,1.205,4,3.192,4.19c0.72,0.069,1.438-0.044,2.154-0.233
			c0.093-0.034,0.188-0.063,0.285-0.079c0.567-0.165,1.132-0.368,1.691-0.559c-0.074,0.395-0.131,0.791-0.192,1.187
			c0.111,0.197,0.182,0.434,0.175,0.72c-0.085,3.513-1.279,7.109-1.109,10.596c0.069,1.432,0.679,2.364,1.544,3.116
			c0.412,0.051,0.835,0.037,1.242-0.053c0.371,0.16,0.783,0.246,1.246,0.207c1.355-0.115,2.549-0.492,3.71-0.952
			c0.262,0.069,0.539,0.118,0.844,0.124c1.778,0.039,3.499-0.213,5.202-0.567c-0.007,0.054-0.024,0.1-0.028,0.154
			c-0.005,0.057-0.007,0.11-0.009,0.166c0.178-0.088,0.387-0.14,0.629-0.14c1.535,0,1.781,1.984,0.748,2.635
			c0.068,0.433-0.023,0.864-0.32,1.19c0.219,0.186,0.47,0.333,0.732,0.46c0.099-0.041,0.206-0.074,0.327-0.095
			c1.708-0.302,3.423-0.522,5.15-0.619c1.738-1.492,2.6-4.146,2.584-6.623c2.31,0.765,5.016,0.316,7.371-0.833
			c3.91-1.912,4.168-6.403,2.279-9.642c0.271-0.22,0.531-0.459,0.773-0.721c1.67,0.705,3.525,0.935,5.442,0.547
			c4.399-0.888,6.571-5.127,7.569-9.084c0.51-2.021,0.115-3.964-0.855-5.518C70.275,76.175,72.371,72.162,69.817,68.072z"/>
		<path fill="#FCDCCA" d="M83.116,65.636c-0.531-0.72-1.509-1.103-2.621-0.56c-0.461,0.227-0.871,0.466-1.252,0.714
			c-0.555,0.258-1.127,0.481-1.689,0.731C78.626,62,80.042,57.643,81.2,53.143c2.371-9.214-8.229-13.878-15.834-14.907
			c-1.802-1.015-4.9,0.548-4.419,3.322c0.169,0.97,0.265,1.938,0.305,2.905c-0.231,0.303-0.411,0.68-0.511,1.142
			c-1.457,6.675-2.868,13.36-4.141,20.075c-0.017,0.094-0.02,0.182-0.027,0.273c-0.309,0.414-0.443,0.946-0.408,1.471
			c0.004,0.059,0.008,0.116,0.015,0.175c0.005,0.036,0.013,0.07,0.02,0.106c0.019,0.104,0.044,0.205,0.075,0.305
			c0.002,0.004,0.004,0.01,0.005,0.013c0.202,0.608,0.667,1.112,1.393,1.269c0.009,0.003,0.017,0.004,0.025,0.006
			c0.144,0.03,0.293,0.05,0.457,0.05c0.058,0.001,0.116,0.003,0.175,0.005c0.333,0.373,0.824,0.621,1.48,0.616
			c0.967-0.008,1.982,0.211,2.979,0.568c0.401,0.279,0.864,0.479,1.343,0.579c1.111,0.544,2.151,1.219,2.997,1.911
			c2.703,2.21-0.785,2.479-2.751,2.512c-4.038,0.064-11.101,0.231-10.464,5.406c-0.62,1.225-0.038,3.097,1.758,3.097
			c0.243,0,0.457-0.045,0.656-0.107c0.517-0.003,1.023-0.179,1.411-0.481c0.284,0.198,0.624,0.342,1.036,0.382
			c2.014,0.195,3.994,0.814,5.957,1.114c-0.057,0.401-0.125,0.811-0.201,1.221c-0.093,0.089-0.164,0.206-0.236,0.323
			c-0.246,0.193-0.449,0.459-0.604,0.783c-2.482,0.737-4.996,1.348-7.521,1.916c-2.158-0.023-4.172-0.18-5.08-0.192
			c-3.996-0.055-12.516-1.019-12.389-6.406c0.063-2.671-4.076-2.665-4.14,0c-0.013,0.58,0.03,1.124,0.114,1.644
			c-0.012,0.029-0.027,0.052-0.041,0.082c-0.047,0.125-0.09,0.253-0.136,0.38c-0.18,0.149-0.345,0.334-0.483,0.574
			c-0.944,1.657-1.097,3.467-1.113,5.304c-0.121,0.927-0.171,1.865-0.114,2.821c0.128,2.173,1.313,3.853,2.731,5.417
			c0.292,0.323,0.616,0.617,0.958,0.886c0.334,0.429,0.724,0.788,1.178,1.028c3.335,1.767,9.461-1.327,10.578-4.961
			c0.856-0.098,1.675-0.295,2.528-0.583c0.187-0.064,0.355-0.101,0.522-0.136c0.128,0.109,0.271,0.213,0.444,0.299
			c2.28,1.146,2.423,3.111,2.286,5.456c-0.002,0.05,0.006,0.093,0.006,0.141c-0.396,0.023-0.799,0.021-1.191,0.025
			c-2.684,0.029-5.372,0.531-7.221,1.985c-0.108,0.012-0.216,0.016-0.328,0.039c-0.373,0.075-0.75,0.354-1.03,0.597
			c-0.912,0.553-1.241,1.745-0.77,2.689c-0.013,0.054-0.028,0.107-0.041,0.161c-0.46,0.67-0.506,1.541-0.101,2.237
			c0.085,0.957,0.742,1.851,1.984,1.851c0.68,0,1.186-0.271,1.519-0.67c0.554,0.05,1.106,0.104,1.655,0.183
			c1.656,0.241,2.799-0.883,2.547-2.545c-0.117-0.77-0.186-1.547-0.27-2.319c1.443-0.148,3.021-0.04,4.025-0.163
			c1.237-0.153,2.161-0.713,2.784-1.547c0.888-0.039,1.755-0.31,2.532-0.809c3.416-0.12,7.385-1.098,9.139-4.217
			c2.092-3.721,2.521-7.998,3.174-12.148c2.052,1.818,3.967,1.076,5.496-0.438c1.038-0.548,1.889-1.58,2.487-3.104
			c0.134-0.342,0.239-0.698,0.327-1.062c0.59-1.165,1.105-2.378,1.516-3.592c0.59-1.743,0.414-3.639,0.232-5.528
			c0.5-1.591,1.047-3.171,1.462-4.744C84.212,66.835,83.782,66.065,83.116,65.636z M58.382,95.451
			c-0.033-0.123-0.057-0.247-0.095-0.371c-0.062-0.199-0.146-0.367-0.241-0.523c0.356-0.041,0.713-0.082,1.066-0.135
			C58.849,94.758,58.608,95.102,58.382,95.451z"/>
		<path fill="#FFECE3" d="M41.804,110.876c-2.076,0.192-4.117,0.612-6.168,0.973c0.103-0.714,0.22-1.424,0.247-2.142
			c0.368-0.254,0.53-0.714,0.489-1.155c0.892-1.002-0.753-2.513-1.93-1.589c-0.163,0.128-0.298,0.271-0.438,0.411
			c-1.174-0.086-2.34-0.255-3.514-0.36c-1.197-0.107-1.488,1.261-0.893,2.013c-0.011,0.016-0.025,0.026-0.036,0.042
			c-1.201,1.616-1.206,3.835-1.284,5.896c-1.608,1.631-0.218,3.988,1.8,4.19c1.766,0.178,3.533,0.22,5.301,0.216
			c1.613,0.982,3.378,1.612,5.461,1.578c1.678-0.028,2.468-1.406,2.387-2.705c0.383-0.592,0.508-1.348,0.357-2.044
			c0.277-0.755,0.477-1.515,0.615-2.18C44.503,112.571,43.509,110.719,41.804,110.876z"/>
		<path fill="#FCDCCA" d="M56.498,104.115c-0.628,0.078-1.259,0.17-1.865,0.322c-0.183-0.07-0.385-0.114-0.618-0.114
			c-0.493,0-0.869,0.18-1.133,0.452c-0.458,0.033-0.914,0.093-1.363,0.197c-0.145,0.033-0.256,0.098-0.345,0.176
			c-0.522,0.282-0.894,0.827-0.884,1.45c0.01,0.647,0.129,1.271,0.344,1.864c-0.25,0.457-0.547,0.864-0.977,1.129
			c-0.098,0.062-0.205,0.104-0.307,0.158c-0.213-0.014-0.428-0.01-0.646,0.027c-1.076,0.182-2.25,0.441-3.231,0.979
			c-0.053-0.004-0.096-0.019-0.15-0.019c-0.121,0-0.227,0.024-0.337,0.04c-0.237-0.02-0.479,0.041-0.655,0.198
			c-0.849,0.461-1.158,1.512-0.93,2.408c-0.42,1.372-0.467,2.892-0.902,4.254c-0.006,0.019-0.007,0.037-0.012,0.056
			c-0.387,0.192-0.596,0.581-0.632,0.988c-0.304,0.146-0.438,0.471-0.427,0.788c-0.639,0.57,0.125,1.75,1.001,1.296
			c0.271-0.142,0.523-0.309,0.778-0.471c0.145-0.07,0.283-0.152,0.425-0.23c0.591,0.325,1.299,0.375,1.907-0.089
			c2.048-1.568,4.568-2.39,6.401-4.227c1.193-0.167,2.401-0.341,3.325-0.948c2.293-1.507,2.574-5.655,3.227-8.066
			C58.812,105.562,57.866,103.944,56.498,104.115z"/>
		<g>
			<g>
				<g>
					<path fill="none" stroke="#735F6D" stroke-width="0.9184" stroke-miterlimit="10" d="M84.362,37.129"/>
					<path fill="none" stroke="#735F6D" stroke-width="0.9184" stroke-miterlimit="10" d="M80.427,53.632L69.803,98.193
						c0,0,0.608,2.789-6.978,4.418l-12.316,2.978l-0.808,4.006l-6.109,0.744"/>
					<path fill="none" stroke="#735F6D" stroke-width="0.9184" stroke-miterlimit="10" d="M43.592,110.339l-7.948,0.969l0.751-4.354
						l-13.228,0.975c0,0-3.629,0.227-1.776-6.53l6.242-45.588"/>
					<path fill="none" stroke="#735F6D" stroke-width="0.9184" stroke-miterlimit="10" d="M25.679,70.085
						c0,0-7.889-4.657-9.033,4.657c-1.104,8.986-1.812,14.75-1.812,14.75s-3.263,5.425,7.808,2.771"/>
					<path fill="none" stroke="#735F6D" stroke-width="0.9184" stroke-miterlimit="10" d="M77.528,66.079c0,0,8.24-5.06,6.105,3.405
						c-2.064,8.195-3.394,13.468-3.394,13.468s0.932,4.555-7.697,3.835"/>
					<path fill="none" stroke="#735F6D" stroke-width="0.9184" stroke-miterlimit="10" d="M75.752,73.63
						c0,0,2.954-3.695,4.917-2.936"/>
					<path fill="none" stroke="#735F6D" stroke-width="0.9184" stroke-miterlimit="10" d="M75.752,73.63c0,0,3.34,1.304,3.385,3.271
						"/>
					<path fill="none" stroke="#735F6D" stroke-width="0.9184" stroke-miterlimit="10" d="M24.669,76.8c0,0-2.609-3.378-5.549-0.852
						"/>
					<path fill="none" stroke="#735F6D" stroke-width="0.9184" stroke-miterlimit="10" d="M24.761,77.075
						c0,0-4.979,1.308-6.469,5.351"/>
					<path fill="none" stroke="#735F6D" stroke-width="0.9184" stroke-miterlimit="10" d="M62.009,37.859l-6.406,31.062
						c0,0,27.316,6.497,0,6.984l-2.07,7.653c0,0,23.098,1.388,4.581,4.698c-18.517,3.313-21.175-8.506-21.175-8.506
						s-9.492,10.162-1.623,19.544c7.869,9.383,14.612-11.167,18.217-1.103c0.689,2.207-0.125,3.854-6.209,3.627
						c-6.083-0.229-3.731,8.52-3.731,8.52l-2.62,11.024l14.861-7.095l2.28-10.518"/>
					<path fill="none" stroke="#735F6D" stroke-width="0.9184" stroke-miterlimit="10" d="M40.972,121.363l-12.947-3.333
						c0,0,0.044-0.272,0.117-0.73c0.37-2.333,1.519-9.571,1.519-9.571"/>
					
						<line fill="none" stroke="#735F6D" stroke-width="0.9184" stroke-miterlimit="10" x1="33.081" y1="50.271" x2="21.472" y2="57.589"/>
					
						<line fill="none" stroke="#735F6D" stroke-width="0.9184" stroke-miterlimit="10" x1="32.198" y1="53.765" x2="21.074" y2="60.699"/>
					
						<line fill="none" stroke="#735F6D" stroke-width="0.9184" stroke-miterlimit="10" x1="31.692" y1="57.203" x2="22.246" y2="63.362"/>
					
						<line fill="none" stroke="#735F6D" stroke-width="0.9184" stroke-miterlimit="10" x1="29.577" y1="61.517" x2="21.894" y2="66.061"/>
					
						<line fill="none" stroke="#735F6D" stroke-width="0.9184" stroke-miterlimit="10" x1="77.813" y1="49.064" x2="85.224" y2="55.189"/>
					
						<line fill="none" stroke="#735F6D" stroke-width="0.9184" stroke-miterlimit="10" x1="77.379" y1="52.305" x2="84.522" y2="58.014"/>
					
						<line fill="none" stroke="#735F6D" stroke-width="0.9184" stroke-miterlimit="10" x1="76.634" y1="55.514" x2="82.655" y2="60.556"/>
					
						<line fill="none" stroke="#735F6D" stroke-width="0.9184" stroke-miterlimit="10" x1="76.997" y1="59.424" x2="82.05" y2="63.021"/>
					<path fill="none" stroke="#735F6D" stroke-width="0.9184" stroke-miterlimit="10" d="M31.42,47.654
						c0,0,19.861-16.465,44.096-6.7c21.539,8.678,24.404-2.021,24.404-2.021"/>
					<path fill="none" stroke="#735F6D" stroke-width="0.9184" stroke-miterlimit="10" d="M97.92,33.991
						c0,0,1.491,10.862-20.069,1.837c-24.277-10.164-44.302,6.446-44.302,6.446"/>
					<path fill="none" stroke="#735F6D" stroke-width="0.9184" stroke-miterlimit="10" d="M37.045,36.941
						c-1.72,1.427,17.692-16.969,40.911-6.897c21.811,9.461,17.559,2.416,17.559,2.416"/>
					<path fill="none" stroke="#735F6D" stroke-width="0.9184" stroke-miterlimit="10" d="M38.912,30.291
						c-1.738,1.444,17.899-17.205,41.238-6.633c21.896,9.919,10.659,5.389,10.659,5.389"/>
					<path fill="none" stroke="#735F6D" stroke-width="0.9184" stroke-miterlimit="10" d="M32.198,42.268
						c0,0-4.667,2.636-4.615,8.152"/>
					<path fill="none" stroke="#735F6D" stroke-width="0.9184" stroke-miterlimit="10" d="M34.665,37.036
						c0,0-8.155,0.137-8.502,8.042"/>
					<path fill="none" stroke="#735F6D" stroke-width="0.9184" stroke-miterlimit="10" d="M35.315,32.619
						c0,0-7.918,0.896-10.158,8.511"/>
				</g>
				<path fill="none" stroke="#735F6D" stroke-width="1.8367" stroke-miterlimit="10" d="M49.968,64.579c0,0-3.615-4.915-7.131,0"/>
				<path fill="none" stroke="#735F6D" stroke-width="1.8367" stroke-miterlimit="10" d="M62.009,64.579
					c0,0,4.906-4.986,7.941,1.481"/>
				<path fill="none" stroke="#735F6D" stroke-width="1.8367" stroke-miterlimit="10" d="M49.021,54.208
					c0,0-8.135-2.608-9.746,5.212"/>
				<path fill="none" stroke="#735F6D" stroke-width="1.8367" stroke-miterlimit="10" d="M66.01,54.069c0,0,5.452-2.059,6.511,4.68"
					/>
			</g>
			<path fill="#00C7C4" stroke="#735F6D" stroke-width="0.8222" stroke-miterlimit="10" d="M54.249,135.849
				c0,0,33.224,2.208,53.367-2.482c0,0,5.243,6.069,19.316,5.242l5.242,5.243l1.933-5.243l-6.624-2.76l9.936,2.76l1.379-5.242
				l-10.762-1.656l12.97-1.655l-2.76-5.795l-11.037,3.863l13.797-6.76l-6.071-6.816c0,0-10.21,9.988-18.764,10.265l8.002-8.021
				l-8.002-2.244l-5.52,9.16l-3.035,5.492l-50.221-4.112l4.613,5.795L54.249,135.849z"/>
			<path fill="none" stroke="#735F6D" stroke-width="0.9184" stroke-miterlimit="10" d="M123.345,125.639c0,0,3.036,3.588,0,10.21"
				/>
		</g>
		<path fill="#00C7C4" stroke="#735F6D" stroke-width="0.8222" stroke-miterlimit="10" d="M171.153,97.731
			c0,0-9.658-4.376-11.59-14.173l-5.795,7.774c0,0,1.932,4.262,12.418,7.28l-15.178-1.486c0,0-4.967,7.908,1.104,9.519l10.763,1.083
			h-12.417c0,0-3.588,5.936,1.104,6.818c4.691,0.883,9.934,0,9.934,0l-10.21,2.244c0,0-3.587,6.104,1.38,6.097
			c4.967-0.008,12.969,0,12.969,0s3.588-2.325,1.38-8.341c0,0,5.243-0.072,2.208-6.355
			C169.222,108.191,175.017,105.973,171.153,97.731z"/>
		<path fill="#9BC74C" stroke="#788034" stroke-width="0.9184" d="M157.175,71.587c0,0-2.316-23.664,30.982-12.751
			c1.967-3.238-21.583,36.101-27.055,12.679"/>
		<path fill="#9BC74C" stroke="#788034" stroke-width="0.9184" d="M141.819,70.329c0,0,20.375-2.44,0.891-27.242
			c0,0-23.981,22.124-2.967,24.129"/>
		<path fill="#D0DD45" d="M133.819,85.766c0,0,9.189-14.871,4.871-30.985c0,0,5.741,8.281,0.206,27.954l5.443,1.035
			c0,0,9.326-15.61,32.843-20.717c0,0-32.486,15.193-26.477,22.207l0.65,4.899"/>
		<path fill="#D0DD45" d="M140.317,58.812c0,0-1.4-4.087,3.854-4.572c0,0-3.633,0.946-4.023,6.52"/>
		<path fill="#D0DD45" d="M140.148,62.207c0,0-2.832-3.622-5.316-2.483c0,0,4.45,0.207,5.795,4.863"/>
		<path fill="#D0DD45" d="M140.626,65.207c0,0,1.242-3.932,4.449-2.379c0,0-3.912,0.184-3.945,4.346"/>
		<path fill="#D0DD45" d="M173.118,64.587c0,0,1.967-2.616,0.725-5.085c0,0,0,4.774-3.52,6.223"/>
		<path fill="#D0DD45" d="M170.851,66.246c0,0,4.832-1.961,6.924,0.928c0,0-2.059-1.99-9.52,0"/>
		<path fill="#D0DD45" d="M168.255,66.76c0,0,2.276-2.188,1.139-4.715c0,0-0.959,6.217-3.416,5.956"/>
		<path fill="#D0DD45" d="M165.978,68.803c0,0,5.174-1.063,5.588,1.52c0,0-0.689-2.493-7.553-0.868"/>
	</g>
</g>
</svg>
