<svg xmlns="http://www.w3.org/2000/svg" version="1" x="0" y="0" width="189" height="179" viewBox="0 0 189 179" enable-background="new 0 0 188.733 179.274" xml:space="preserve"><circle fill="#FFFFFF" cx="90" cy="90" r="90"/><path fill="#0A5D66" stroke="#735F6D" stroke-width="1" stroke-miterlimit="10" d="M83 129c-1-2-3-33-3-33L62 84c0 0-50 21-56 23 15 13 22 16 41 21C65 132 83 129 83 129z"/><path fill="#0A5D66" stroke="#735F6D" stroke-width="1" stroke-miterlimit="10" d="M22 98l-10 6c0 0 8 22 46 21l5 6 -8 5c0 0-37-1-51-26 0 0 0-7 6-7L22 98z"/><path fill="#3994CB" stroke="#2F6A86" stroke-width="1" d="M128 71c-28-6-59 10-59 37 0 27 30 43 59 37 21-4 35-21 35-37C163 92 149 76 128 71z"/><path fill="#2E88B1" d="M129 78c-23-4-46 9-46 31 0 22 23 35 46 31 18-3 30-17 30-31C159 94 147 81 129 78z"/><path fill="#9BC74C" stroke="#788034" stroke-width="1" d="M97 103c3-6-7-6-7-6v-4c4-6-6-6-6-6 -5-1-9 6-9 6 -17 20 5 40 5 40 -1-3 7-13 7-13 7 0 8-1 8-4 3-2 6-1 6-1l8-5c2-2-1-4-1-4C101 106 97 103 97 103z"/><path fill="#9BC74C" stroke="#788034" stroke-width="1" d="M89 128c-3 4 5 4 9 3C97 124 89 128 89 128z"/><path fill="#D1B644" stroke="#788034" stroke-width="1" d="M128 123c-6 4-4 8-4 8 3 1 7-3 7-3 4-1 2-4 2-4S131 122 128 123z"/><path fill="#9BC74C" stroke="#788034" stroke-width="2" d="M148 126c2 0 4-2 3-5C148 121 148 126 148 126z"/><path fill="#9BC74C" stroke="#788034" stroke-width="1" d="M143 131c-4-1-2 4-5 6 -3 1 0 5 0 5 12-4 20-15 20-15l-7 4C147 133 143 131 143 131z"/><path fill="#9BC74C" stroke="#788034" stroke-width="1" d="M162 100c0 0-6-1-6-5 0 0 1-3 2-2 0 0-4-11-7-11 0 0-5 5-7 0l-4-6 -5-2c0 0-7 2-3 5 0 0 4 3 0 4l-6 0c0 0-8 3-5 6l4 2 6 0 2 4 7 0c0 0 4 5 5 8 0 0 7 8-4 5l-3 4c0 0 0 9 5 6l1-3c3 0 4-3 4-3l5-2 2-4c0-3 2-4 3 2 0 0 3-2 3-3C163 107 163 101 162 100z"/><path fill="#D0DD45" d="M154 91c1-1-3-5-3-5l-4 1 -6-6c0 0-6-4-4 3 0 0-9 2-3 5l7 1c0 0 1 7 4 6l4 0c0 0-3 4 2 5v4c0 0 4-3 4-5l-3-5C153 96 153 92 154 91z"/><path fill="#D0DD45" d="M91 103l-6-2 -2-9c0 0-19 9-7 29l4-7c0 0 10 4 9-3l7-2L91 103z"/><path fill="#5AB4D4" d="M90 82c-7 5 12 1 12 1l-4 5c-7 6 12 3 12 3 6-5-3-4-3-4l13-5c7-1 8-7 8-7C102 71 90 82 90 82z"/><path fill="#5AB4D4" d="M111 93c-3 0-5 1-5 2 0 2 2 3 5 3 3 0 5-1 5-2C116 95 114 93 111 93z"/><path fill="#FFECE3" d="M70 68c-2-2-4-4-6-5 -1 0-1-1-2-1 0-5 3-10 5-13 1-2 2-4 1-5 0-3-1-6-5-7C50 35 41 42 32 48c-3 2-4 5-3 7 -1 3-2 5-2 8 0 2 0 5 0 7 0 0-1 0-1 0 0 0-1 0-1 0 0 0-1 0-1 0 -1-1-4-1-5 1 -1 2-2 5-2 7 0 0 0 0 0 1 0 0 0 0 0 0 0 0 0 1 0 1 0 3 0 6-1 9 -1 2 1 4 3 4 1 0 1 0 2 0 0 0 0 0 0 0 1 0 1 0 2-1 0 0 0 1 0 1 0 0 0 0 0 1 0 4-1 7-1 11 0 1 1 2 2 3 0 0 1 0 1 0 0 0 1 0 1 0 1 0 3 0 4-1 0 0 1 0 1 0 2 0 3 0 5-1 0 0 0 0 0 0 0 0 0 0 0 0 0 0 0 0 1 0 2 0 2 2 1 3 0 0 0 1 0 1 0 0 0 0 1 0 0 0 0 0 0 0 2 0 3-1 5-1 2-1 3-4 3-7 2 1 5 0 7-1 4-2 4-6 2-10 0 0 1 0 1-1 2 1 4 1 5 1 4-1 7-5 8-9 1-2 0-4-1-6C70 76 72 72 70 68z"/><path fill="#FCDCCA" d="M83 66c-1-1-2-1-3-1 0 0-1 0-1 1 -1 0-1 0-2 1C79 62 80 58 81 53c2-9-8-14-16-15 -2-1-5 1-4 3 0 1 0 2 0 3 0 0 0 1-1 1 -1 7-3 13-4 20 0 0 0 0 0 0 0 0 0 1 0 1 0 0 0 0 0 0 0 0 0 0 0 0 0 0 0 0 0 0 0 0 0 0 0 0 0 1 1 1 1 1 0 0 0 0 0 0 0 0 0 0 0 0 0 0 0 0 0 0 0 0 1 1 1 1 1 0 2 0 3 1 0 0 1 0 1 1 1 1 2 1 3 2 3 2-1 2-3 3 -4 0-11 0-10 5 -1 1 0 3 2 3 0 0 0 0 1 0 1 0 1 0 1 0 0 0 1 0 1 0 2 0 4 1 6 1 0 0 0 1 0 1 0 0 0 0 0 0 0 0 0 0-1 1 -2 1-5 1-8 2 -2 0-4 0-5 0 -4 0-13-1-12-6 0-3-4-3-4 0 0 1 0 1 0 2 0 0 0 0 0 0 0 0 0 0 0 0 0 0 0 0 0 1 -1 2-1 3-1 5 0 1 0 2 0 3 0 2 1 4 3 5 0 0 1 1 1 1 0 0 1 1 1 1 3 2 9-1 11-5 1 0 2 0 3-1 0 0 0 0 1 0 0 0 0 0 0 0 2 1 2 3 2 5 0 0 0 0 0 0 0 0-1 0-1 0 -3 0-5 1-7 2 0 0 0 0 0 0 0 0-1 0-1 1 -1 1-1 2-1 3 0 0 0 0 0 0 0 1-1 2 0 2 0 1 1 2 2 2 1 0 1 0 2-1 1 0 1 0 2 0 2 0 3-1 3-3 0-1 0-2 0-2 1 0 3 0 4 0 1 0 2-1 3-2 1 0 2 0 3-1 3 0 7-1 9-4 2-4 3-8 3-12 2 2 4 1 5 0 1-1 2-2 2-3 0 0 0-1 0-1 1-1 1-2 2-4 1-2 0-4 0-6 1-2 1-3 1-5C84 67 84 66 83 66zM58 95c0 0 0 0 0 0 0 0 0 0 0-1 0 0 1 0 1 0C59 95 59 95 58 95z"/><path fill="#FFECE3" d="M42 111c-2 0-4 1-6 1 0-1 0-1 0-2 0 0 1-1 0-1 1-1-1-3-2-2 0 0 0 0 0 0 -1 0-2 0-4 0 -1 0-1 1-1 2 0 0 0 0 0 0 -1 2-1 4-1 6 -2 2 0 4 2 4 2 0 4 0 5 0 2 1 3 2 5 2 2 0 2-1 2-3 0-1 1-1 0-2 0-1 0-2 1-2C45 113 44 111 42 111z"/><path fill="#FCDCCA" d="M56 104c-1 0-1 0-2 0 0 0 0 0-1 0 0 0-1 0-1 0 0 0-1 0-1 0 0 0 0 0 0 0 -1 0-1 1-1 1 0 1 0 1 0 2 0 0-1 1-1 1 0 0 0 0 0 0 0 0 0 0-1 0 -1 0-2 0-3 1 0 0 0 0 0 0 0 0 0 0 0 0 0 0 0 0-1 0 -1 0-1 2-1 2 0 1 0 3-1 4 0 0 0 0 0 0 0 0-1 1-1 1 0 0 0 0 0 1 -1 1 0 2 1 1 0 0 1 0 1 0 0 0 0 0 0 0 1 0 1 0 2 0 2-2 5-2 6-4 1 0 2 0 3-1 2-2 3-6 3-8C59 106 58 104 56 104z"/><path fill="none" stroke="#735F6D" stroke-width="1" stroke-miterlimit="10" d="M84 37"/><path fill="none" stroke="#735F6D" stroke-width="1" stroke-miterlimit="10" d="M80 54L70 98c0 0 1 3-7 4l-12 3 -1 4 -6 1"/><path fill="none" stroke="#735F6D" stroke-width="1" stroke-miterlimit="10" d="M44 110l-8 1 1-4 -13 1c0 0-4 0-2-7l6-46"/><path fill="none" stroke="#735F6D" stroke-width="1" stroke-miterlimit="10" d="M26 70c0 0-8-5-9 5 -1 9-2 15-2 15s-3 5 8 3"/><path fill="none" stroke="#735F6D" stroke-width="1" stroke-miterlimit="10" d="M78 66c0 0 8-5 6 3 -2 8-3 13-3 13s1 5-8 4"/><path fill="none" stroke="#735F6D" stroke-width="1" stroke-miterlimit="10" d="M76 74c0 0 3-4 5-3"/><path fill="none" stroke="#735F6D" stroke-width="1" stroke-miterlimit="10" d="M76 74c0 0 3 1 3 3"/><path fill="none" stroke="#735F6D" stroke-width="1" stroke-miterlimit="10" d="M25 77c0 0-3-3-6-1"/><path fill="none" stroke="#735F6D" stroke-width="1" stroke-miterlimit="10" d="M25 77c0 0-5 1-6 5"/><path fill="none" stroke="#735F6D" stroke-width="1" stroke-miterlimit="10" d="M62 38l-6 31c0 0 27 6 0 7l-2 8c0 0 23 1 5 5 -19 3-21-9-21-9s-9 10-2 20c8 9 15-11 18-1 1 2 0 4-6 4 -6 0-4 9-4 9l-3 11 15-7 2-11"/><path fill="none" stroke="#735F6D" stroke-width="1" stroke-miterlimit="10" d="M41 121l-13-3c0 0 0 0 0-1 0-2 2-10 2-10"/><line fill="none" stroke="#735F6D" stroke-width="1" stroke-miterlimit="10" x1="33" y1="50" x2="21" y2="58"/><line fill="none" stroke="#735F6D" stroke-width="1" stroke-miterlimit="10" x1="32" y1="54" x2="21" y2="61"/><line fill="none" stroke="#735F6D" stroke-width="1" stroke-miterlimit="10" x1="32" y1="57" x2="22" y2="63"/><line fill="none" stroke="#735F6D" stroke-width="1" stroke-miterlimit="10" x1="30" y1="62" x2="22" y2="66"/><line fill="none" stroke="#735F6D" stroke-width="1" stroke-miterlimit="10" x1="78" y1="49" x2="85" y2="55"/><line fill="none" stroke="#735F6D" stroke-width="1" stroke-miterlimit="10" x1="77" y1="52" x2="85" y2="58"/><line fill="none" stroke="#735F6D" stroke-width="1" stroke-miterlimit="10" x1="77" y1="56" x2="83" y2="61"/><line fill="none" stroke="#735F6D" stroke-width="1" stroke-miterlimit="10" x1="77" y1="59" x2="82" y2="63"/><path fill="none" stroke="#735F6D" stroke-width="1" stroke-miterlimit="10" d="M31 48c0 0 20-16 44-7 22 9 24-2 24-2"/><path fill="none" stroke="#735F6D" stroke-width="1" stroke-miterlimit="10" d="M98 34c0 0 1 11-20 2 -24-10-44 6-44 6"/><path fill="none" stroke="#735F6D" stroke-width="1" stroke-miterlimit="10" d="M37 37c-2 1 18-17 41-7 22 9 18 2 18 2"/><path fill="none" stroke="#735F6D" stroke-width="1" stroke-miterlimit="10" d="M39 30c-2 1 18-17 41-7 22 10 11 5 11 5"/><path fill="none" stroke="#735F6D" stroke-width="1" stroke-miterlimit="10" d="M32 42c0 0-5 3-5 8"/><path fill="none" stroke="#735F6D" stroke-width="1" stroke-miterlimit="10" d="M35 37c0 0-8 0-9 8"/><path fill="none" stroke="#735F6D" stroke-width="1" stroke-miterlimit="10" d="M35 33c0 0-8 1-10 9"/><path fill="none" stroke="#735F6D" stroke-width="2" stroke-miterlimit="10" d="M50 65c0 0-4-5-7 0"/><path fill="none" stroke="#735F6D" stroke-width="2" stroke-miterlimit="10" d="M62 65c0 0 5-5 8 1"/><path fill="none" stroke="#735F6D" stroke-width="2" stroke-miterlimit="10" d="M49 54c0 0-8-3-10 5"/><path fill="none" stroke="#735F6D" stroke-width="2" stroke-miterlimit="10" d="M66 54c0 0 5-2 7 5"/><path fill="#00C7C4" stroke="#735F6D" stroke-width="1" stroke-miterlimit="10" d="M54 136c0 0 33 2 53-2 0 0 5 6 19 5l5 5 2-5 -7-3 10 3 1-5 -11-2 13-2 -3-6 -11 4 14-7 -6-7c0 0-10 10-19 10l8-8 -8-2 -6 9 -3 5 -50-4 5 6L54 136z"/><path fill="none" stroke="#735F6D" stroke-width="1" stroke-miterlimit="10" d="M123 126c0 0 3 4 0 10"/><path fill="#00C7C4" stroke="#735F6D" stroke-width="1" stroke-miterlimit="10" d="M171 98c0 0-10-4-12-14l-6 8c0 0 2 4 12 7l-15-1c0 0-5 8 1 10l11 1h-12c0 0-4 6 1 7 5 1 10 0 10 0l-10 2c0 0-4 6 1 6 5 0 13 0 13 0s4-2 1-8c0 0 5 0 2-6C169 108 175 106 171 98z"/><path fill="#9BC74C" stroke="#788034" stroke-width="1" d="M157 72c0 0-2-24 31-13 2-3-22 36-27 13"/><path fill="#9BC74C" stroke="#788034" stroke-width="1" d="M142 70c0 0 20-2 1-27 0 0-24 22-3 24"/><path fill="#D0DD45" d="M134 86c0 0 9-15 5-31 0 0 6 8 0 28l5 1c0 0 9-16 33-21 0 0-32 15-26 22l1 5"/><path fill="#D0DD45" d="M140 59c0 0-1-4 4-5 0 0-4 1-4 7"/><path fill="#D0DD45" d="M140 62c0 0-3-4-5-2 0 0 4 0 6 5"/><path fill="#D0DD45" d="M141 65c0 0 1-4 4-2 0 0-4 0-4 4"/><path fill="#D0DD45" d="M173 65c0 0 2-3 1-5 0 0 0 5-4 6"/><path fill="#D0DD45" d="M171 66c0 0 5-2 7 1 0 0-2-2-10 0"/><path fill="#D0DD45" d="M168 67c0 0 2-2 1-5 0 0-1 6-3 6"/><path fill="#D0DD45" d="M166 69c0 0 5-1 6 2 0 0-1-2-8-1"/></svg>