<?xml version="1.0" encoding="utf-8"?>
<!-- Generator: Adobe Illustrator 17.0.0, SVG Export Plug-In . SVG Version: 6.00 Build 0)  -->
<!DOCTYPE svg PUBLIC "-//W3C//DTD SVG 1.1//EN" "http://www.w3.org/Graphics/SVG/1.1/DTD/svg11.dtd">
<svg version="1.1" id="Layer_1" xmlns="http://www.w3.org/2000/svg" xmlns:xlink="http://www.w3.org/1999/xlink" x="0px" y="0px"
	 width="179.274px" height="179.274px" viewBox="0 0 179.274 179.274" enable-background="new 0 0 179.274 179.274"
	 xml:space="preserve">
<g>
	<circle fill="#FFFFFF" cx="89.637" cy="89.638" r="89.637"/>
	<g>
		<path fill="#FCDCCA" d="M146.695,105.284c-0.046-0.585-0.079-1.174-0.086-1.765c-0.011-1.041,0.015-2.074,0.051-3.108
			c-0.09-1.451-0.191-2.899-0.316-4.349c-0.313-3.623,0.232-10.289-2.938-11.949c-0.277-0.075-0.558-0.138-0.84-0.195
			c-1.009,0.09-2.003,0.295-3.007,0.439c-0.202,0.128-0.438,0.21-0.702,0.21c-0.116,0-0.227-0.022-0.337-0.054
			c-0.064,0.155-0.155,0.292-0.265,0.406c-0.105,0.333-0.384,0.604-0.839,0.604c-0.061,0-0.114-0.009-0.169-0.018
			c-0.033,0.002-0.058,0.018-0.092,0.018c-0.938,0-1.123-1.135-0.58-1.619c0.076-0.201,0.156-0.4,0.234-0.6
			c-0.512-2.237-0.559-4.831,0.09-7.108c-0.401-1.899-0.873-3.779-1.445-5.632v-2.838c0-1.517-0.236-2.882-0.66-4.095
			c-0.264-0.879-0.631-1.759-1.145-2.634c-1.836-3.136-5.574-5.454-9.382-5.876c-0.406-0.124-0.81-0.244-1.197-0.356
			c-2.986-0.877-5.817-2.146-8.847-2.897c-3.615-0.899-7.443-0.521-11.217,0.135c-4.207-0.444-8.279-0.563-12.813,0.156
			c-3.854,0.613-7.56,2.405-10.676,4.904c-4.582,1.966-8.951,3.683-10.092,9.098c-0.42,1.991-0.523,4.125-0.488,6.298
			c-0.118,0.515-0.218,1.032-0.311,1.552c0.275,0.132,0.492,0.383,0.497,0.781c0.044,3.428-0.298,6.836-0.38,10.261
			c0.588,0.463,0.418,1.65-0.54,1.65c-0.374,0-0.614-0.189-0.753-0.438c-2.633-0.368-6.11-2.202-7.861,1.2
			c-0.787,1.532-1.107,3.129-1.238,4.769c0.094,0.132,0.165,0.284,0.176,0.483c0.014,0.296,0.021,0.597,0.035,0.894
			c0.061,0.113,0.098,0.251,0.095,0.414c-0.006,0.374-0.02,0.749-0.033,1.122c0.124,3.483,0.178,6.985,0.246,10.457
			c0.054,2.627-0.11,5.248,0.13,7.839c0.166,0.289,0.341,0.562,0.535,0.807c2.121,1.201,4.141,2.09,6.592,1.261
			c0.283-0.097,0.525-0.056,0.711,0.064c0.473-0.567,1.633-0.387,1.633,0.562c0,3.7-0.119,7.423,0,11.121
			c0.104,3.243,0.707,6.436,0.787,9.672c0.293,0.734,0.715,1.423,1.348,2.032c0.344,0.395,0.732,0.736,1.166,1.018
			c0.133-0.092,0.287-0.162,0.488-0.166c3.896-0.099,7.788,0.235,11.684,0.054c1.936-0.089,3.752-0.115,5.443,0.527
			c0.14-0.108,0.31-0.189,0.535-0.189c0.601,0,0.896,0.47,0.889,0.936c0.121,0.08,0.242,0.148,0.361,0.236
			c0.375,0.284,0.449,0.709,0.346,1.072c0.686,0.496,1.365,1.001,2.113,1.424c4.826,0.018,9.651,0.102,14.478-0.004
			c0.214-0.005,0.377,0.064,0.514,0.161c0.528-0.312,1.015-0.683,1.432-1.115c0.071-1.145,0.17-2.286,0.401-3.409
			c-0.03-0.119-0.055-0.238-0.095-0.359c-0.304-0.908,0.784-1.388,1.419-0.96c0.018,0.006,0.035,0.013,0.053,0.019
			c0.035-0.053,0.069-0.111,0.105-0.16c2.646-0.118,5.321-0.416,7.871-1.133c0.414,0.048,0.83,0.103,1.244,0.158
			c0.104-0.175,0.28-0.311,0.549-0.365c2.438-0.484,4.917-0.669,7.356-1.131c2.082-0.394,5.865-0.878,6.976-2.988
			c1.311-2.486,0.119-5.805,0.846-8.537c-0.292-2.531-0.484-5.264-0.094-7.794c-0.974-0.447-0.821-2.199,0.469-2.171
			c2.053,0.045,4.49,0.578,6.479-0.102c1.061-0.364,2.021-0.825,3.045-1.14v-0.001c-0.141-0.135-0.246-0.328-0.283-0.59
			C146.054,109.896,146.44,107.604,146.695,105.284z"/>
		<path opacity="0.8" fill="#FFF3F0" d="M120.22,90.129c-4.938-2.419-10.352-2.988-15.564-4.504
			c-0.043-4.334,0.365-8.672,0.824-13.01c-0.188-7.032,0.137-14.078,0.169-21.117c-3.756-0.049-7.464-0.245-11.195,0.307
			c-2.944,0.438-5.683,1.852-8.335,3.214c-4.392,1.104-8.64,2.578-12.018,5.48c-0.437,0.376-0.831,0.78-1.189,1.206
			c-0.858,0.718-1.652,1.553-2.367,2.546c-0.01,0.009-0.021,0.017-0.029,0.025c-2.279,2.067-1.965,6.205-2.178,8.943
			c-0.039,0.504,0.197,0.835,0.533,1.003c-0.473,3.339-0.287,6.771,0.586,9.899c-0.004,0.374,0.008,0.752,0.059,1.136
			c0.014,0.1,0.039,0.193,0.07,0.28c-0.565,0.547-1.109,1.116-1.607,1.732c-0.508-0.28-1.09-0.444-1.692-0.505
			c-1.565-1.379-4.326-0.975-5.711,0.41c-0.807,0.807-1.265,1.913-1.265,3.053c0,0.438,0.067,0.821,0.18,1.182
			c-0.609,2.225-0.34,4.312-0.278,6.823c0.042,1.717-0.292,3.438-0.302,5.158c-0.011,2.295,0.503,4.59,0.162,6.885
			c-0.072,0.483-0.066,0.941-0.006,1.374c-0.074,2.213,1.313,4.484,4.17,4.484c1.062,0,1.922-0.316,2.579-0.826
			c0.938,0.146,1.948,0.054,2.997-0.369c0.229-0.093,0.433-0.196,0.635-0.303c-0.536,2.785-0.963,5.283-0.543,8.352
			c0.207,1.53,0.352,3.118,0.504,4.715c-0.209,0.188-0.332,0.472-0.285,0.859c0.199,1.635-0.061,3.817,0.037,5.816
			c0.634,0.7,1.174,1.437,1.714,2.147c4.84,1.301,9.717,0.148,14.62,0.391c2.389,0.118,4.605,0.893,4.684,3.161
			c0.142,0.004,0.286,0.013,0.429,0.013c0.418,1.115,0.949,2.14,1.848,2.81c-0.024,0.607,0.352,1.233,1.134,1.233
			c0.427,0,0.728-0.189,0.916-0.455c1.608,0.156,3.194-0.007,4.806-0.143c0.19,0.2,0.461,0.334,0.821,0.334
			c1.032,0,1.359-1.084,0.989-1.782c-0.008-0.093-0.031-0.181-0.06-0.269c0.247-3.493,0.442-6.966-0.009-10.452
			c0.004-0.057,0.008-0.114,0.012-0.171c0.057-1.403-0.257-2.896-1.522-3.462c-0.252-0.568,0.03-1.1,0.624-1.584
			c0.026-0.596,0.428-1.054,0.965-1.22c0.257-0.477,0.809-0.702,1.326-0.642c0.949-0.46,2.006-0.533,3.135-0.362
			c0.206,0.03,0.381,0.13,0.528,0.264c1.263-0.204,2.519-0.435,3.763-0.746c1.192-0.299,3.323-0.825,3.842-2.173
			c0.618-0.55,0.219-1.549-0.521-1.858c-0.128-0.205-0.321-0.381-0.593-0.49c-0.523-0.212-1.049-0.358-1.573-0.456
			c-0.102-0.036-0.208-0.054-0.321-0.047c-1.836-0.265-3.651,0.11-5.347,0.865c-0.063,0.009-0.126,0.018-0.188,0.031
			c-1.676,0.347-3.403,0.72-4.937,1.513c-0.568,0.293-1.121,0.61-1.673,0.926c-0.23-0.032-0.481,0.011-0.737,0.166
			c-0.873,0.527-1.811,1.021-2.788,1.471c-0.094,0.031-0.183,0.069-0.259,0.122c-1.125,0.506-2.303,0.949-3.514,1.31
			c-0.098-0.031-0.197-0.053-0.303-0.055c-1.58-0.021-3.079,0.242-4.576,0.576c-3.77-0.658-7.229-2.333-9.475-5.683
			c-1.425-2.124-2.486-4.638-3.213-7.068c-0.497-1.66,0.463-3.097,0.975-4.439c1.352-2.711,3.754-4.226,6.527-4.886
			c0.027-0.006,0.046-0.021,0.071-0.027c0.12,0.041,0.251,0.069,0.401,0.069c0.349,0,0.612-0.127,0.801-0.317
			c2.342,0.182,4.738-0.052,7.061-0.211c4.799-0.328,9.459,0.657,14.24,0.79c3.397,1.606,8.486,1.885,10.785-0.606
			c0.543-0.589,0.379-1.397-0.22-1.8c-0.046-0.093-0.102-0.179-0.171-0.256c-0.113-0.466-0.476-0.864-1.096-0.87
			c-3.179-0.037-6.341-0.396-9.518-0.49c0.188-0.689,0.355-1.385,0.521-2.079c-0.563-0.162-0.985-0.683-0.986-1.291
			c0-0.141-0.003-0.281-0.015-0.421c-0.016,0.002-0.066-0.226-0.002-0.085c0-0.001,0-0.003,0-0.003
			c-0.294-0.67-0.192-1.434,0.488-1.834c0.423-0.247,1.046-0.229,1.471,0.055c0.016-0.054,0.03-0.107,0.048-0.159
			c2.344,0.145,4.562-0.319,6.946-0.628c2.646-0.341,5.291-0.193,7.902-0.827C120.889,92.05,121.142,90.58,120.22,90.129z"/>
		<path fill="#FCDCCA" d="M119.886,136.676c-0.231,0-0.402,0.089-0.529,0.216c-0.254-0.133-0.554-0.216-0.91-0.216
			c-0.59,0-1.035,0.218-1.35,0.546c-1.375,0.244-2.745,0.524-4.1,0.856c-0.087,0.021-0.174,0.046-0.26,0.07
			c-0.305-0.259-0.711-0.426-1.225-0.426c-1.734,0-2.279,1.844-1.637,3.003c-0.037,0.298-0.031,0.621,0.033,0.982
			c0.066,0.377,0.213,0.671,0.403,0.913c0.019,0.271,0.046,0.544,0.074,0.816c-0.819,0.417-1.724,0.813-2.612,0.846
			c-0.898,0.033-1.808-0.145-2.711-0.144c-0.174,0-0.345,0.014-0.514,0.034c-0.164-0.033-0.324-0.065-0.496-0.101
			c-0.496-0.098-0.927-0.012-1.291,0.173c-0.348-0.562-1.43-0.429-1.455,0.413c-0.148,5.04-1.922,9.959-0.758,14.991
			c0.09,0.385,0.58,0.702,0.967,0.549c2.898-1.154,5.611-2.679,8.548-3.752c1.906-0.695,3.737-1.474,5.466-2.477
			c0.913-0.145,1.801-0.31,2.625-0.543c1.543-0.435,1.916-2.144,1.992-3.535c0.195-3.532-0.171-7.064,0.132-10.599
			c0.001-0.013-0.003-0.026-0.001-0.039c0.039-0.177,0.064-0.357,0.061-0.536c0.008-0.195-0.019-0.392-0.063-0.582
			C120.866,137.787,120.742,136.676,119.886,136.676z"/>
		<path fill="#FFECE3" d="M100.182,158.531c2.358-2.442,0.999-7.42,0.669-10.85c0.125-0.278,0.195-0.59,0.195-0.932
			c0-0.23-0.051-0.46-0.123-0.683c0.094-0.206,0.174-0.427,0.278-0.621c0.155-0.294,0.104-0.569-0.038-0.784
			c0.01-0.558-0.58-0.861-1.039-0.725c-0.298-0.085-0.639-0.003-0.845,0.234c-2.196-0.241-4.392-0.3-6.606-0.301
			c-0.088,0-0.156,0.026-0.229,0.048c-0.273-0.16-0.48-0.401-0.646-0.677c-0.097-0.574-0.341-1.107-0.734-1.546
			c-0.29-0.602-0.617-1.178-1.108-1.65c-0.107-0.104-0.225-0.166-0.343-0.197c-0.163-0.239-0.448-0.383-0.813-0.267
			c-2.044,0.653-4.549-0.662-6.354,0.545c-0.074-0.023-0.148-0.049-0.24-0.049c-0.645,0-0.875,0.634-0.699,1.096
			c-0.916,1.665-0.473,4.436-0.545,6.184c-0.054,1.334-0.471,4.229,0.848,5.173c0.84,0.602,1.916,0.903,3.022,1.115
			c1.713,0.857,3.647,1.277,5.39,2.189c2.516,1.316,5.174,3.293,8.14,3.216c0.177,0.195,0.36,0.385,0.56,0.554
			c0.609,0.515,1.469,0.027,1.313-0.764C100.212,158.738,100.2,158.635,100.182,158.531z"/>
		<g>
			<path fill="none" stroke="#735F6D" stroke-width="1.1309" stroke-miterlimit="10" d="M136.241,50.849"/>
			<path fill="none" stroke="#735F6D" stroke-width="1.1309" stroke-miterlimit="10" d="M105.339,52.03l-0.129,34.143
				c19.721,5.096,19.761,6.359,15.331,6.673L103.64,93.63l-0.369,5.89l10.598,0.392c10.793,3.604-8.176,4.711-8.176,4.711
				s-32.693-10.433-30.682,10.205c1.662,17.073,20.449,4.644,30.615,3.925c13.217-0.936,13.217,6.205,1.57,5.103
				c-11.359-1.076-5.889,5.103-5.889,5.103v14.914"/>
			<path fill="none" stroke="#735F6D" stroke-width="1.1309" stroke-miterlimit="10" d="M136.241,70.473v59.662
				c0,0,1.962,4.316-9.028,5.495l-17.271,2.354v5.887h-8.635"/>
			<path fill="none" stroke="#735F6D" stroke-width="1.1309" stroke-miterlimit="10" d="M101.308,143.871h-10.99v-6.279
				l-17.663-0.784c0,0-4.722-0.269-3.532-9.421l-0.141-56.522"/>
			<polyline fill="none" stroke="#735F6D" stroke-width="1.1309" stroke-miterlimit="10" points="88.485,76.229 96.074,83.557 
				86.916,88.527 			"/>
			
				<line fill="none" stroke="#735F6D" stroke-width="2.2619" stroke-miterlimit="10" x1="96.074" y1="83.557" x2="86.916" y2="83.557"/>
			<polyline fill="none" stroke="#735F6D" stroke-width="1.1309" stroke-miterlimit="10" points="122.308,76.164 114.85,82.444 
				123.093,87.481 			"/>
			
				<line fill="none" stroke="#735F6D" stroke-width="2.2619" stroke-miterlimit="10" x1="114.85" y1="82.444" x2="125.839" y2="81.823"/>
			<path fill="none" stroke="#735F6D" stroke-width="1.1309" stroke-miterlimit="10" d="M92.935,72.633
				c0,0-6.934-0.197-11.645,4.905"/>
			<path fill="none" stroke="#735F6D" stroke-width="1.1309" stroke-miterlimit="10" d="M113.476,67.726
				c0,0,9.224-3.14,14.719,5.299"/>
			<path fill="none" stroke="#735F6D" stroke-width="1.1309" stroke-miterlimit="10" d="M69.024,87.481
				c0,0-10.107-6.018-10.107,4.972c0,10.991,0,18.252,0,18.252s-3.2,6.673,10.176,4.514"/>
			<path fill="none" stroke="#735F6D" stroke-width="1.1309" stroke-miterlimit="10" d="M136.34,86.107
				c0,0,10.106-6.018,10.106,4.972c0,10.991,0,18.252,0,18.252s3.2,6.673-10.175,4.515"/>
			<path fill="none" stroke="#735F6D" stroke-width="1.1309" stroke-miterlimit="10" d="M136.376,95.965
				c0,0,3.006-4.689,6.144-3.512"/>
			<path fill="none" stroke="#735F6D" stroke-width="1.1309" stroke-miterlimit="10" d="M136.376,95.965c0,0,5.36,2.077,6.144,4.778
				"/>
			<path fill="none" stroke="#735F6D" stroke-width="1.1309" stroke-miterlimit="10" d="M68.934,95.616c0,0-3.736-4.357-6.876-1.502
				"/>
			<path fill="none" stroke="#735F6D" stroke-width="1.1309" stroke-miterlimit="10" d="M69.093,95.965c0,0-5.857,1.199-7.035,6.105
				"/>
			<polyline fill="none" stroke="#735F6D" stroke-width="1.1309" stroke-miterlimit="10" points="101.308,143.871 100.522,160.357 
				120.541,152.311 120.541,136.539 			"/>
			<polyline fill="none" stroke="#735F6D" stroke-width="1.1309" stroke-miterlimit="10" points="100.522,160.357 81.29,152.507 
				81.29,137.592 			"/>
			<polyline fill="#FFFFFF" stroke="#735F6D" stroke-width="1.1309" stroke-miterlimit="10" points="104.645,104.006 
				104.645,107.173 100.131,107.173 100.131,103.515 			"/>
			<polyline fill="#FFFFFF" stroke="#735F6D" stroke-width="1.1309" stroke-miterlimit="10" points="95.617,103.023 95.617,106.191 
				91.103,106.191 91.103,102.534 			"/>
			<path fill="none" stroke="#735F6D" stroke-width="1.1309" stroke-miterlimit="10" d="M76.048,108.151
				c0,0,18.391-7.311,22.854,12.448"/>
			
				<line fill="none" stroke="#735F6D" stroke-width="1.1309" stroke-miterlimit="10" x1="74.478" y1="64.799" x2="62.058" y2="72.63"/>
			
				<line fill="none" stroke="#735F6D" stroke-width="1.1309" stroke-miterlimit="10" x1="74.043" y1="68.715" x2="62.058" y2="76.164"/>
			
				<line fill="none" stroke="#735F6D" stroke-width="1.1309" stroke-miterlimit="10" x1="74.043" y1="72.63" x2="63.837" y2="79.305"/>
			
				<line fill="none" stroke="#735F6D" stroke-width="1.1309" stroke-miterlimit="10" x1="72.263" y1="77.538" x2="63.837" y2="82.444"/>
			
				<line fill="none" stroke="#735F6D" stroke-width="1.1309" stroke-miterlimit="10" x1="131.138" y1="64.799" x2="143.56" y2="72.63"/>
			
				<line fill="none" stroke="#735F6D" stroke-width="1.1309" stroke-miterlimit="10" x1="131.573" y1="68.715" x2="143.56" y2="76.164"/>
			
				<line fill="none" stroke="#735F6D" stroke-width="1.1309" stroke-miterlimit="10" x1="131.573" y1="72.63" x2="141.779" y2="79.305"/>
			
				<line fill="none" stroke="#735F6D" stroke-width="1.1309" stroke-miterlimit="10" x1="133.355" y1="77.538" x2="141.779" y2="82.444"/>
			<path fill="none" stroke="#735F6D" stroke-width="1.1309" stroke-miterlimit="10" d="M72.073,61.838
				c0,0,20.402-17.662,53.473-6.674c33.068,10.992,33.068-2.031,33.068-2.031"/>
			<path fill="none" stroke="#735F6D" stroke-width="1.1309" stroke-miterlimit="10" d="M153.904,47.28
				c0,0,6.28,13.022-26.788,2.033c-33.07-10.991-53.473,6.672-53.473,6.672"/>
			<path fill="none" stroke="#735F6D" stroke-width="1.1309" stroke-miterlimit="10" d="M76.782,50.283
				c-1.746,1.513,17.441-17.868,48.764-7.457c33.068,10.988,24.434,2.677,24.434,2.677"/>
			<path fill="none" stroke="#735F6D" stroke-width="1.1309" stroke-miterlimit="10" d="M77.771,43.27
				c-1.748,1.514,17.439-17.866,48.761-7.457c33.069,10.99,15.8,5.818,15.8,5.818"/>
			<path fill="none" stroke="#735F6D" stroke-width="1.1309" stroke-miterlimit="10" d="M72.073,55.955c0,0-4.957,2.777-4.024,8.844
				"/>
			<path fill="none" stroke="#735F6D" stroke-width="1.1309" stroke-miterlimit="10" d="M74.043,50.367c0,0-9.269,0.088-8.468,8.527
				"/>
			<path fill="none" stroke="#735F6D" stroke-width="1.1309" stroke-miterlimit="10" d="M74.043,45.711c0,0-8.818,0.928-10.206,8.92
				"/>
		</g>
		<path fill="#FDE3D7" d="M58.617,98.806c-0.015-3.871-0.217-7.727-0.589-11.579c-0.164-1.712-1.771-2.446-3.064-2.203
			c-0.186-0.107-0.387-0.202-0.627-0.264c-1.612-0.416-3.216-0.63-4.832-0.636c0.435-2.02,0.867-4.04,1.178-6.084
			c0.286-1.878,0.055-3.713,0.01-5.538c0.668-0.756,0.914-1.778,0.342-2.753c-0.038-0.065-0.09-0.123-0.137-0.185
			c0.089-0.445,0.208-0.891,0.374-1.337c0.243-0.654,0.183-1.217-0.054-1.671c0.225-1.98,0.232-3.964-0.338-5.861
			c-0.346-1.144-1.674-2.104-2.898-1.646c-1.348,0.505-2.435,1.222-3.331,2.081c-0.357,0.194-0.713,0.39-1.072,0.583
			c-0.302,0.129-0.609,0.249-0.916,0.369c-1.023,0.261-2.025,0.535-2.893,0.97c-0.107,0.053-0.193,0.117-0.271,0.187
			c-0.346,0.125-0.69,0.248-1.031,0.379c-0.471,0.062-0.95,0.084-1.439,0.058c-0.076-0.004-0.146,0.003-0.214,0.011
			c-0.053,0.493-0.447,0.751-0.868,0.747c-0.046,0.161-0.059,0.333-0.041,0.504c0.114-0.055,0.247-0.089,0.403-0.089
			c0.709,0,0.984,0.654,0.848,1.184c0.04,0,0.081,0,0.121,0.001c0.117,0.113,0.26,0.19,0.424,0.225
			c1.342,3.626,2.838,7.181,3.458,10.999c0.081,1.687,0.13,3.375,0.155,5.065c-0.541-0.314-1.119-0.586-1.726-0.822
			c-2.155-0.842-5.175-1.089-6.979-2.613c-0.576-0.485-1.216-0.636-1.816-0.567c-0.172-0.031-0.348-0.042-0.521-0.04
			c-0.087-0.108-0.165-0.224-0.262-0.325c-0.546-0.574-1.255-0.395-1.662,0.063c0.068,0.124,0.117,0.266,0.114,0.443
			c-0.01,1.048-0.121,2.092-0.13,3.14c-0.003,0.273-0.109,0.478-0.262,0.624c0.011,0.2,0.023,0.4,0.026,0.602
			c-0.025,0.104-0.045,0.21-0.057,0.32c-0.17,0.029-0.322,0.076-0.471,0.131c-0.114-0.135-0.227-0.27-0.337-0.4
			c-0.036-0.042-0.073-0.081-0.108-0.122c-0.127-0.179-0.261-0.355-0.403-0.529c-0.226-0.278-0.474-0.471-0.728-0.599
			c-0.344-0.28-0.711-0.532-1.128-0.716c-0.36-0.159-0.708-0.135-1.001-0.005c-0.238-0.207-0.48-0.407-0.723-0.596
			c-0.168-0.13-0.346-0.204-0.524-0.24c-0.083-0.171-0.174-0.337-0.274-0.503c-0.467-0.765-1.364-0.662-1.862-0.185
			c0.008,0.506,0.104,0.942,0.398,1.36c0.229,0.324,0.14,0.771-0.105,1.063c0.04,0.12,0.088,0.236,0.118,0.359
			c-0.002,0.134,0.022,0.269,0.082,0.399c0.076,0.399,0.128,0.802,0.149,1.212c-0.386,0.175-0.74,0.429-1.007,0.769
			c-0.103-0.128-0.187-0.277-0.249-0.496c-0.396-1.395-1.677-1.894-2.824-1.59c-0.19-0.201-0.461-0.335-0.82-0.335
			c-1.074,0-1.385,1.178-0.937,1.866c-0.842,1.727-0.393,4.091,0.018,5.825c0.004,0.02,0.01,0.042,0.015,0.062
			c-0.212,2.156-0.187,4.4,0.74,6.372c0.447,0.951,1.105,1.485,1.86,1.726c0.994,0.978,2.193,1.452,3.419,0.867
			c-0.003,0.055-0.016,0.101-0.011,0.16c0.117,1.549-0.673,2.816-1.174,4.229c-0.399,1.128-0.277,2.456-0.123,3.609
			c0.031,0.236,0.08,0.469,0.133,0.701c-0.081,0.528-0.143,1.056-0.152,1.576c-0.054,2.859,1.283,4.067,3.141,4.555
			c0.283,0.23,0.635,0.275,0.961,0.189c1.342,0.184,2.853,0.111,4.279,0.056c0.084-0.003,0.157-0.022,0.236-0.032
			c0.005,0.128,0.016,0.26,0.045,0.396c0.193,0.943,0.323,1.893,0.427,2.843c-0.302,7.423-1.3,14.837-0.254,22.226
			c-0.079,0.304-0.03,0.622,0.134,0.893c0.017,0.095,0.026,0.19,0.043,0.285c0.111,0.642,0.594,0.889,1.087,0.846
			c1.172,1.685,2.994,2.894,5.441,3.598c0.043,0.013,0.083,0.016,0.125,0.024c0.183,0.3,0.499,0.518,0.958,0.518h0.645
			c0.159,0.7,0.908,1.29,1.717,0.82c2.826-1.639,5.893-2.674,8.943-3.806c0.815-0.303,0.951-1.191,0.65-1.785
			c-0.003-0.26-0.097-0.529-0.327-0.772c-0.098-0.102-0.17-0.217-0.255-0.326c-0.084-3.434-0.539-6.866-0.815-10.29
			c0.083-0.112,0.152-0.244,0.195-0.405c0.569-2.102,0.449-4.243,0.436-6.397c-0.004-0.545-0.311-0.892-0.7-1.045
			c0.01-0.112,0.017-0.224,0.028-0.335c0.043-0.142,0.055-0.278,0.045-0.411c0.082-0.672,0.196-1.344,0.328-2.015
			c-0.063-1.217-0.094-2.436-0.099-3.653c-0.005-0.963,1.194-1.131,1.653-0.53c0.389-0.124,0.764-0.3,1.115-0.523
			c0.893-0.38,1.662-1.021,2.193-2.048c0.986-1.906,0.803-4.213,0.645-6.396c0-0.068,0.002-0.138,0.003-0.205
			c0.002-0.739-0.008-1.478-0.007-2.217c0-0.031,0.002-0.079,0.004-0.137c-0.426-0.51-0.199-1.526,0.679-1.556
			c1.381-0.045,2.749,0.056,4.115,0.201c0.696-0.497,0.887-1.362,0.689-2.183C58.575,99.288,58.618,99.062,58.617,98.806z"/>
		<path fill="#EECBB4" d="M35.667,143.58c-0.021-0.007-0.039-0.016-0.061-0.022c0.02-0.066,0.046-0.126,0.049-0.203
			c0.081-2.178,0.032-4.354-0.037-6.531c0.398-8.91,0.447-17.828,0.44-26.749c0.067-2.387,0.374-4.752,0.186-7.147
			c-0.026-0.335-0.097-0.642-0.194-0.925c-0.001-0.412-0.002-0.823-0.002-1.234c0-0.813-1.001-0.962-1.4-0.47
			c-0.621-0.36-1.349-0.499-2.049-0.403c-0.287-0.244-0.583-0.479-0.87-0.726c0.029-0.055,0.065-0.107,0.09-0.164
			c0.297-0.64-0.277-1.21-0.796-1.186c-0.341-0.207-0.844-0.212-1.148,0.196c-1.08,1.449-2.681,2.011-4.393,2.133
			c-0.82-1.277-2.086-2.281-3.551-2.689c-0.659-0.183-1.049,0.441-0.944,0.953c-0.056,0.179-0.054,0.382,0.058,0.593
			c0.023,0.045,0.042,0.094,0.064,0.14c-0.252,3.362-2.314,10.565,0.04,13.305c0.601,0.79,1.622,1.369,2.536,1.27
			c0.047-0.004,0.095-0.003,0.143-0.008c0.332,0.227,0.672,0.438,1.053,0.569c0.562,0.192,1.057,0.16,1.498-0.019
			c0.901,0.149,1.738,0.186,2.613,0.094c0.061,1.372,0.134,2.741,0.175,4.095c0.203,6.864-0.712,13.718-0.575,20.588
			c0.03,1.578,1.01,2.534,2.184,2.881c1.192,1.442,2.653,2.657,4.476,3.174C36.227,145.371,36.64,143.855,35.667,143.58z"/>
		<g>
			<path fill="none" stroke="#735F6D" stroke-width="1.1309" stroke-miterlimit="10" d="M37.909,146.593l10.402-4.906l-1.178-27.496
				c0,0,5.494,0.807,5.889-2.727c0.392-3.533,0-9.813,0-9.813h5.102V85.419l-8.83-1.374c0,0,4.316-20.663,0-25.569L35.947,64.38
				c0,0,7.458,9.273,5.299,22.684"/>
			<path fill="none" stroke="#735F6D" stroke-width="1.1309" stroke-miterlimit="10" d="M41.626,82.822l-12.939-5.703
				c0,0-0.982,18.542,3.336,21.831c4.318,3.29,6.084-2.445,6.084-3.405c0-0.958-2.998-5.276-2.998-5.276s1.232-7.981,3.391-4.383"/>
			<path fill="none" stroke="#735F6D" stroke-width="1.1309" stroke-miterlimit="10" d="M28.604,83.209l-7.769-4.323
				c0,0-0.392,16.775,2.748,20.064c3.14,3.29,7.116-1.643,6.839-2.389"/>
			<path fill="none" stroke="#735F6D" stroke-width="1.1309" stroke-miterlimit="10" d="M20.821,84.045l-5.088-2.329
				c0,0-2.944,13.288,1.374,16.22c4.317,2.931,5.255-1.379,5.255-1.379"/>
			<path fill="none" stroke="#735F6D" stroke-width="1.1309" stroke-miterlimit="10" d="M20.821,98.95
				c0,0-2.623,14.354,1.541,14.907c4.165,0.55,8.074,0,8.074,0"/>
			<path fill="none" stroke="#735F6D" stroke-width="1.1309" stroke-miterlimit="10" d="M51.647,90.336c0,0,0.574,5.813-7.653,3.359
				c-8.229-2.454,0,9.402,0,9.402l7.663-0.563"/>
			<polyline fill="none" stroke="#735F6D" stroke-width="1.1309" stroke-miterlimit="10" points="28.591,114.028 28.591,140.902 
				37.909,146.593 			"/>
		</g>
		
			<line fill="none" stroke="#735F6D" stroke-width="1.1309" stroke-miterlimit="10" x1="35.947" y1="99.959" x2="35.947" y2="145.395"/>
	</g>
</g>
</svg>
