<?xml version="1.0" encoding="utf-8"?>
<!-- Generator: Adobe Illustrator 17.0.0, SVG Export Plug-In . SVG Version: 6.00 Build 0)  -->
<!DOCTYPE svg PUBLIC "-//W3C//DTD SVG 1.1//EN" "http://www.w3.org/Graphics/SVG/1.1/DTD/svg11.dtd">
<svg version="1.1" id="Layer_1" xmlns="http://www.w3.org/2000/svg" xmlns:xlink="http://www.w3.org/1999/xlink" x="0px" y="0px"
	 width="194.324px" height="191.079px" viewBox="0 0 194.324 191.079" enable-background="new 0 0 194.324 191.079"
	 xml:space="preserve">
<g>
	<circle fill="#FFFFFF" cx="103.913" cy="93.377" r="89.637"/>
	<g>
		<path fill="#F27751" stroke="#735F6D" stroke-width="0.8222" stroke-miterlimit="10" d="M103.799,83.985
			c0,0-47.84-25.725-30.331-70.816l-18.5-0.506l2.133,11.381L51.773,0.742c0,0-22.458,11.317-27.025,6.644l2.664,7.258L23.226,0.583
			c0,0-16.367,8.035-21.697,3.942C-3.8,0.431,11.045,39.255,22.464,54.862l-3.807,4.474c0,0,15.682,40.434,59.615,41.77
			l-1.989-17.663l30.005,0.542"/>
		<g>
			<g>
				<polyline fill="#FFECE3" stroke="#735F6D" stroke-width="0.8222" stroke-miterlimit="10" points="94.566,74.444 94.602,83.823 
					108.034,89.158 108.034,71.477 94.933,74.195 				"/>
				<path fill="#FCDCCA" d="M137.653,55.054c-0.029-0.388-0.055-0.775-0.06-1.165c-0.01-0.686,0.006-1.368,0.027-2.051
					c-0.063-0.956-0.133-1.913-0.219-2.868c-0.213-2.39,0.131-6.789-1.963-7.877c-0.185-0.05-0.37-0.091-0.556-0.128
					c-0.665,0.063-1.321,0.199-1.982,0.297c-0.133,0.085-0.288,0.14-0.464,0.141c-0.076,0.001-0.149-0.015-0.222-0.034
					c-0.042,0.102-0.101,0.192-0.173,0.267c-0.069,0.22-0.252,0.4-0.553,0.401c-0.041,0-0.076-0.006-0.113-0.013
					c-0.02,0.003-0.036,0.013-0.059,0.013c-0.619,0.002-0.744-0.746-0.387-1.067c0.049-0.133,0.103-0.265,0.152-0.396
					c-0.342-1.476-0.379-3.187,0.045-4.691c-0.27-1.251-0.584-2.491-0.967-3.712l-0.006-1.873c-0.004-1-0.162-1.899-0.445-2.699
					c-0.176-0.579-0.421-1.159-0.76-1.735c-1.22-2.064-3.691-3.586-6.205-3.856c-0.267-0.08-0.533-0.158-0.789-0.233
					c-1.973-0.57-3.844-1.402-5.844-1.892c-2.389-0.585-4.912-0.327-7.4,0.114c-2.777-0.283-5.464-0.354-8.453,0.132
					c-2.541,0.412-4.984,1.604-7.033,3.26c-3.019,1.307-5.898,2.45-6.639,6.024c-0.271,1.315-0.336,2.724-0.308,4.157
					c-0.076,0.339-0.142,0.682-0.201,1.023c0.183,0.087,0.325,0.252,0.33,0.515c0.036,2.262-0.181,4.512-0.228,6.771
					c0.389,0.303,0.279,1.087-0.354,1.09c-0.246,0-0.406-0.124-0.498-0.287c-1.738-0.238-4.035-1.44-5.184,0.809
					c-0.517,1.012-0.724,2.067-0.806,3.149c0.062,0.087,0.109,0.188,0.116,0.319c0.01,0.195,0.016,0.394,0.025,0.589
					c0.04,0.075,0.064,0.166,0.064,0.273c-0.004,0.247-0.013,0.494-0.021,0.741c0.091,2.297,0.132,4.607,0.186,6.897
					c0.041,1.734-0.062,3.464,0.104,5.172c0.109,0.189,0.226,0.37,0.354,0.532c1.402,0.787,2.736,1.368,4.352,0.815
					c0.188-0.063,0.347-0.037,0.471,0.042c0.31-0.376,1.076-0.259,1.077,0.366c0.008,2.442-0.062,4.898,0.024,7.338
					c0.037,1.039,0.146-0.001,0.26,1.029c0.18,0.098,0.322,0.273,0.379,0.545c0.222,1.09,0.664,1.877,1.262,2.445
					c0.154-0.053,0.336-0.051,0.541,0.034c3.252,1.352,6.682,0.008,10.024,0.291c1.67,0.143,2.271,1.026,2.125,2.248
					c0.114,0.118,0.176,0.28,0.174,0.445c0.079,0.052,0.16,0.097,0.239,0.155c0.247,0.186,0.297,0.467,0.23,0.706
					c0.453,0.326,0.902,0.658,1.396,0.935c3.185,0.002,6.369,0.046,9.553-0.035c0.141-0.003,0.248,0.043,0.34,0.105
					c0.347-0.207,0.668-0.452,0.941-0.739c0.045-0.755,0.108-1.509,0.257-2.249c-0.021-0.079-0.036-0.157-0.063-0.237
					c-0.202-0.599,0.516-0.918,0.934-0.637c0.012,0.004,0.023,0.009,0.035,0.013c0.023-0.036,0.047-0.074,0.07-0.107
					c1.744-0.084,3.51-0.286,5.189-0.765c0.275,0.03,0.549,0.065,0.821,0.102c0.069-0.116,0.185-0.206,0.361-0.242
					c1.608-0.325,3.243-0.453,4.851-0.764c1.373-0.264,3.869-0.592,4.598-1.986c0.857-1.644,0.072-1.758,0.545-3.563
					c-0.199-1.668-0.331-3.472-0.078-5.142c-0.645-0.293-0.547-1.448,0.304-1.434c1.355,0.025,2.964,0.371,4.274-0.081
					c0.699-0.242,1.332-0.549,2.007-0.759l0,0c-0.095-0.089-0.164-0.216-0.189-0.389C137.241,58.098,137.491,56.585,137.653,55.054z
					"/>
				<path fill="#FFECE3" d="M109.16,19.921c-0.149,0.025-0.299,0.049-0.448,0.075c-2.777-0.283-5.464-0.354-8.453,0.132
					c-2.541,0.412-4.984,1.604-7.033,3.26c-3.019,1.307-5.898,2.45-6.639,6.024c-0.271,1.315-0.336,2.724-0.308,4.157
					c-0.076,0.339-0.142,0.682-0.201,1.023c0.183,0.087,0.325,0.252,0.33,0.515c0.036,2.262-0.181,4.512-0.228,6.771
					c0.389,0.303,0.279,1.087-0.354,1.09c-0.246,0-0.406-0.124-0.498-0.287c-1.738-0.238-4.035-1.44-5.184,0.809
					c-0.517,1.012-0.724,2.067-0.806,3.149c0.062,0.087,0.109,0.188,0.116,0.319c0.01,0.195,0.016,0.394,0.025,0.589
					c0.04,0.075,0.064,0.166,0.064,0.273c-0.004,0.247-0.013,0.494-0.021,0.741c0.091,2.297,0.132,4.607,0.186,6.897
					c0.041,1.734-0.062,3.464,0.104,5.172c0.109,0.189,0.226,0.37,0.354,0.532c1.402,0.787,2.736,1.368,4.352,0.815
					c0.188-0.063,0.347-0.037,0.471,0.042c0.31-0.376,1.076-0.259,1.077,0.366c0.008,2.442-0.062,4.898,0.024,7.338
					c0.037,1.039,0.146-0.001,0.26,1.029c0.18,0.098,0.322,0.273,0.379,0.545c0.222,1.09,0.664,1.877,1.262,2.445
					c0.154-0.053,0.336-0.051,0.541,0.034c3.252,1.352,6.682,0.008,10.024,0.291c1.67,0.143,2.271,1.026,2.125,2.248
					c0.114,0.118,0.176,0.28,0.174,0.445c0.079,0.052,0.16,0.097,0.239,0.155c0.247,0.186,0.297,0.467,0.23,0.706
					c0.453,0.326,0.902,0.658,1.396,0.935c2.146,0.001,3.469,0.02,5.614,0.008L109.16,19.921z"/>
				<path fill="#FFECE3" d="M107.691,42.452c0,0,4.898,1.852,6.255,1.915c1.356,0.063,6.468,1.227,5.999,2.107
					c-0.469,0.88-9.307,2.705-12.58,2.373c-3.273-0.332-0.688-2.373-0.688-2.373L107.691,42.452z"/>
				<path fill="none" stroke="#735F6D" stroke-width="0.8222" stroke-miterlimit="10" d="M130.635,19.16"/>
				<path fill="none" stroke="#735F6D" stroke-width="0.8222" stroke-miterlimit="10" d="M130.679,32.109l0.134,39.364
					c0,0,1.296,0.771-5.952,1.573l-11.389,1.593l0.013,3.885l-5.697,0.02"/>
				<path fill="none" stroke="#735F6D" stroke-width="0.8222" stroke-miterlimit="10" d="M107.787,78.543l-7.251,0.023l-0.014-4.143
					l-11.655-0.478c0,0-3.116-0.075-2.345-4.136l-0.219-37.292"/>
				<path fill="none" stroke="#735F6D" stroke-width="0.8222" stroke-miterlimit="10" d="M106.676,37.597
					c0,0-6.474-2.679-12.755,0.444"/>
				<path fill="none" stroke="#735F6D" stroke-width="0.8222" stroke-miterlimit="10" d="M113.945,33.036
					c0,0,5.627-3.108,10.175,1.735"/>
				<path fill="none" stroke="#735F6D" stroke-width="0.8222" stroke-miterlimit="10" d="M86.368,43.482
					c0,0-6.682-3.949-6.657,3.303c0.024,7.25,0.04,12.042,0.04,12.042s-2.096,4.41,6.724,2.955"/>
				<path fill="none" stroke="#735F6D" stroke-width="0.8222" stroke-miterlimit="10" d="M130.779,42.425
					c0,0,6.655-3.994,6.679,3.257c0.023,7.251,0.041,12.042,0.041,12.042s2.126,4.396-6.703,3.001"/>
				<path fill="none" stroke="#735F6D" stroke-width="0.8222" stroke-miterlimit="10" d="M130.825,48.927c0,0,1.972-3.1,4.046-2.329
					"/>
				<path fill="none" stroke="#735F6D" stroke-width="0.8222" stroke-miterlimit="10" d="M130.825,48.927
					c0,0,3.541,1.359,4.064,3.14"/>
				<path fill="none" stroke="#735F6D" stroke-width="0.8222" stroke-miterlimit="10" d="M86.327,48.848
					c0,0-2.476-2.865-4.541-0.976"/>
				<path fill="none" stroke="#735F6D" stroke-width="0.8222" stroke-miterlimit="10" d="M86.433,49.077
					c0,0-3.863,0.805-4.629,4.044"/>
				<polygon fill="#FCDCCA" stroke="#735F6D" stroke-width="0.8222" stroke-miterlimit="10" points="107.691,79.06 107.752,88.735 
					120.394,83.573 120.357,73.629 109.137,73.629 				"/>
				
					<line fill="none" stroke="#735F6D" stroke-width="0.8222" stroke-miterlimit="10" x1="89.916" y1="28.504" x2="81.738" y2="33.698"/>
				
					<line fill="none" stroke="#735F6D" stroke-width="0.8222" stroke-miterlimit="10" x1="89.638" y1="31.087" x2="81.746" y2="36.031"/>
				
					<line fill="none" stroke="#735F6D" stroke-width="0.8222" stroke-miterlimit="10" x1="89.646" y1="33.671" x2="82.927" y2="38.098"/>
				
					<line fill="none" stroke="#735F6D" stroke-width="0.8222" stroke-miterlimit="10" x1="88.482" y1="36.913" x2="82.935" y2="40.169"/>
				
					<line fill="none" stroke="#735F6D" stroke-width="0.8222" stroke-miterlimit="10" x1="127.3" y1="28.377" x2="135.512" y2="33.516"/>
				
					<line fill="none" stroke="#735F6D" stroke-width="0.8222" stroke-miterlimit="10" x1="127.595" y1="30.959" x2="135.52" y2="35.847"/>
				
					<line fill="none" stroke="#735F6D" stroke-width="0.8222" stroke-miterlimit="10" x1="127.605" y1="33.543" x2="134.353" y2="37.923"/>
				
					<line fill="none" stroke="#735F6D" stroke-width="0.8222" stroke-miterlimit="10" x1="128.79" y1="36.777" x2="134.36" y2="39.995"/>
				<path fill="none" stroke="#735F6D" stroke-width="0.8222" stroke-miterlimit="10" d="M88.323,26.555
					c0,0,13.422-11.699,35.265-4.521c21.843,7.177,21.813-1.415,21.813-1.415"/>
				<path fill="none" stroke="#735F6D" stroke-width="0.8222" stroke-miterlimit="10" d="M142.28,16.767
					c0,0,4.174,8.578-17.67,1.401c-21.844-7.178-35.265,4.521-35.265,4.521"/>
				<path fill="none" stroke="#735F6D" stroke-width="0.8222" stroke-miterlimit="10" d="M91.404,18.92
					c-1.149,1.002,11.468-11.827,32.155-5.029c21.844,7.178,16.127,1.713,16.127,1.713"/>
				<path fill="none" stroke="#735F6D" stroke-width="0.8222" stroke-miterlimit="10" d="M92.04,14.292
					c-1.15,1.002,11.467-11.828,32.155-5.029c21.843,7.176,10.437,3.803,10.437,3.803"/>
				<path fill="none" stroke="#735F6D" stroke-width="0.8222" stroke-miterlimit="10" d="M88.31,22.675c0,0-3.264,1.842-2.635,5.843
					"/>
				<path fill="none" stroke="#735F6D" stroke-width="0.8222" stroke-miterlimit="10" d="M89.597,18.983
					c0,0-6.115,0.079-5.568,5.645"/>
				<path fill="none" stroke="#735F6D" stroke-width="0.8222" stroke-miterlimit="10" d="M89.587,15.909
					c0,0-5.816,0.633-6.715,5.909"/>
				<g>
					<path fill="none" stroke="#735F6D" stroke-width="0.8222" stroke-miterlimit="10" d="M108.338,78.008l0.19-15.797
						c0,0,5.464,0.28,6.015-1.521c0.224-0.732-0.713-1.214-0.713-1.214h-7.496l11.433-3.354c-3.244,0.929-9.629-0.571-9.629-0.571
						v-3.425"/>
					<path fill="none" stroke="#735F6D" stroke-width="0.8222" stroke-miterlimit="10" d="M109.378,20.078l-0.211,22.878
						c0,0,24.81,4.819-0.855,5.856l-0.174,4.309"/>
					<path d="M101.405,37.973L99.53,37.98c-1.373,0.364-2.379,1.479-2.373,2.811c0.005,1.621,1.496,2.931,3.33,2.925
						c1.834-0.007,3.317-1.326,3.311-2.947C103.794,39.436,102.782,38.328,101.405,37.973z"/>
					<path d="M118.505,37.544l-1.876,0.007c-1.373,0.363-2.378,1.479-2.374,2.811c0.006,1.621,1.497,2.931,3.331,2.924
						c1.834-0.007,3.317-1.325,3.312-2.946C120.892,39.007,119.88,37.9,118.505,37.544z"/>
					
						<ellipse transform="matrix(-1 0.0034 -0.0034 -1 199.8243 77.8346)" opacity="0.8" fill="#FFFFFF" cx="99.847" cy="39.085" rx="1.895" ry="1.693"/>
					
						<ellipse transform="matrix(-1 0.0034 -0.0034 -1 234.9183 76.2525)" opacity="0.8" fill="#FFFFFF" cx="117.395" cy="38.323" rx="1.895" ry="1.694"/>
					<path opacity="0.9" fill="#FFFFFF" d="M102.446,42.452l-1.217-1.818l2.393-0.008C103.622,40.626,103.656,42.155,102.446,42.452
						z"/>
					<path opacity="0.9" fill="#FFFFFF" d="M119.311,42.66l-1.218-1.818l2.393-0.008C120.485,40.834,120.522,42.363,119.311,42.66z"
						/>
					<path fill="none" stroke="#735F6D" stroke-width="0.8222" stroke-miterlimit="10" d="M95.189,44.472
						c0,0,4.809-2.25,9.904,0.263"/>
					<path fill="none" stroke="#735F6D" stroke-width="0.8222" stroke-miterlimit="10" d="M114.304,44.311
						c0,0,3.863-2.35,8.092,0.057"/>
				</g>
			</g>
			<path fill="none" stroke="#735F6D" stroke-width="0.8222" stroke-miterlimit="10" d="M161.933,64.816"/>
			<polygon fill="#0A5D66" stroke="#735F6D" stroke-width="0.8222" stroke-miterlimit="10" points="76.671,82.896 135.512,85.479 
				122.396,143.035 83.993,141.512 			"/>
			<path fill="#00C7C4" stroke="#735F6D" stroke-width="0.8222" stroke-miterlimit="10" d="M122.742,141.512l31.959,35.399
				l-1.903,7.232h-7.396l-31.098-32.734l-16.352,0.762l-8.036,31.973l-5.798,1.523l-1.246-5.71l-3.532-30.831
				c0,0,0.649-7.646,4.319-10.294l0.334,2.681l38.354,1.523"/>
			<polygon fill="#0A5D66" stroke="#735F6D" stroke-width="0.8222" stroke-miterlimit="10" points="76.671,83.841 55.357,68.996 
				49.267,68.996 49.267,75.665 78.661,99.77 			"/>
			<path fill="#00C7C4" stroke="#735F6D" stroke-width="0.8222" stroke-miterlimit="10" d="M55.357,68.05L43.546,52.242l0.17-12.045
				l3.538-9.685l-4.77-0.901l-2.527,8.37L35.782,26.33l-3.822,1.369l3.687,13.299l-6.43-14.935l-3.822,1.37l4.862,13.569
				l-4.901-9.917l-2.629,0.941l3.494,9.751l-3.871-3.281l-1.543,3.969l4.842,2.977c0,0,6.795,8.829,10.952,10.653l12.665,18.624"/>
			<polyline fill="#0A5D66" stroke="#735F6D" stroke-width="0.8222" stroke-miterlimit="10" points="135.512,85.479 135.52,122.101 
				137.724,125.906 130.635,128.19 127.3,121.515 			"/>
			<polyline fill="#00C7C4" stroke="#735F6D" stroke-width="0.8222" stroke-miterlimit="10" points="136.087,120.379 
				169.165,117.913 176.017,112.965 178.3,104.591 181.726,106.834 180.204,112.965 193.146,112.965 193.146,115.781 
				183.248,117.532 193.146,118.674 193.146,122.862 182.487,121.72 193.146,127.048 188.577,128.19 180.204,125.526 
				183.248,130.474 181.345,133.139 177.538,125.146 167.263,123.623 130.635,128.19 			"/>
			<polyline fill="#F27751" stroke="#735F6D" stroke-width="0.8222" stroke-miterlimit="10" points="109.78,90.889 130.849,82.756 
				143.918,71.477 117.044,81.995 104.187,90.889 			"/>
			<polygon fill="#F27751" stroke="#735F6D" stroke-width="0.8222" stroke-miterlimit="10" points="110.541,84.382 112.051,88.605 
				115.972,88.605 124.12,90.889 119.29,85.479 			"/>
			<polygon fill="#F27751" stroke="#735F6D" stroke-width="0.8222" stroke-miterlimit="10" points="104.187,83.438 102.524,88.321 
				99.037,88.098 91.618,90.32 96.322,84.229 			"/>
			<polygon fill="#F27751" stroke="#735F6D" stroke-width="0.8222" stroke-miterlimit="10" points="84.118,185.666 66.395,159.782 
				63.964,181.098 59.163,176.531 59.163,163.97 59.163,154.454 63.964,152.931 81.804,167.396 			"/>
			<polygon fill="#F27751" stroke="#735F6D" stroke-width="0.8222" stroke-miterlimit="10" points="145.732,185.037 
				144.653,190.644 136.713,190.666 137.792,185.061 129.478,175.321 134.555,172.602 			"/>
			<polygon fill="#F27751" stroke="#735F6D" stroke-width="0.8222" stroke-miterlimit="10" points="110.541,84.382 110.541,90.889 
				104.187,90.889 104.187,83.438 			"/>
			<polygon fill="#E9D234" stroke="#735F6D" stroke-width="0.8222" stroke-miterlimit="10" points="120.375,110.255 
				108.125,122.447 100.902,122.447 89.155,109.117 90.876,98.823 119.794,99.585 			"/>
		</g>
	</g>
</g>
</svg>
