<?xml version="1.0" encoding="utf-8"?>
<!-- Generator: Adobe Illustrator 17.0.0, SVG Export Plug-In . SVG Version: 6.00 Build 0)  -->
<!DOCTYPE svg PUBLIC "-//W3C//DTD SVG 1.1//EN" "http://www.w3.org/Graphics/SVG/1.1/DTD/svg11.dtd">
<svg version="1.1" id="Layer_1" xmlns="http://www.w3.org/2000/svg" xmlns:xlink="http://www.w3.org/1999/xlink" x="0px" y="0px"
	 width="216.46px" height="199.958px" viewBox="0 0 216.46 199.958" enable-background="new 0 0 216.46 199.958"
	 xml:space="preserve">
<g>
	<circle fill="#FFFFFF" cx="126.823" cy="97.391" r="89.637"/>
	<g>
		<polygon fill="#FCDCCA" points="120.161,170.759 121.571,179.955 134.628,171.596 132.681,160.727 119.756,163.434 		"/>
		<polygon fill="none" stroke="#735F6D" stroke-width="0.8552" stroke-miterlimit="10" points="120.161,170.759 121.571,179.955 
			134.628,171.596 132.681,160.727 119.756,163.434 		"/>
		<polyline fill="#FFECE3" points="120.089,171.162 121.652,180.334 106.625,176.522 105.043,165.594 115.873,163.601 
			120.161,170.759 		"/>
		<polyline fill="none" stroke="#735F6D" stroke-width="0.8552" stroke-miterlimit="10" points="120.089,171.162 121.652,180.334 
			106.625,176.522 105.043,165.594 115.873,163.601 120.161,170.759 		"/>
		<path fill="#FCDCCA" d="M147.918,137.08c-0.107-0.418-0.209-0.837-0.289-1.263c-0.142-0.749-0.257-1.498-0.363-2.247
			c-0.252-1.034-0.512-2.067-0.789-3.095c-0.691-2.573-1.158-7.451-3.658-8.239c-0.21-0.019-0.42-0.028-0.631-0.033
			c-0.715,0.195-1.406,0.472-2.111,0.705c-0.129,0.118-0.287,0.207-0.48,0.242c-0.084,0.015-0.167,0.013-0.25,0.004
			c-0.026,0.12-0.074,0.23-0.138,0.327c-0.034,0.254-0.199,0.486-0.527,0.544c-0.044,0.008-0.084,0.009-0.125,0.009
			c-0.023,0.007-0.039,0.02-0.063,0.025c-0.676,0.12-0.956-0.675-0.628-1.093c0.029-0.155,0.061-0.31,0.093-0.465
			c-0.658-1.548-1.026-3.411-0.852-5.138c-0.533-1.318-1.115-2.613-1.768-3.875l-0.365-2.047c-0.196-1.094-0.543-2.047-1.004-2.868
			c-0.304-0.6-0.684-1.187-1.165-1.751c-1.729-2.024-4.724-3.215-7.524-3.027c-0.309-0.038-0.615-0.072-0.908-0.104
			c-2.268-0.248-4.473-0.798-6.754-0.95c-2.724-0.181-5.436,0.584-8.071,1.544c-3.092,0.222-6.044,0.661-9.22,1.766
			c-2.7,0.938-5.143,2.708-7.066,4.911c-3.053,2.008-5.98,3.811-6.105,7.863c-0.046,1.489,0.153,3.041,0.459,4.604
			c-0.018,0.387-0.023,0.772-0.023,1.158c0.216,0.06,0.404,0.214,0.459,0.499c0.473,2.468,0.667,4.969,1.049,7.449
			c0.484,0.259,0.514,1.136-0.178,1.26c-0.268,0.048-0.467-0.058-0.6-0.218c-1.946,0.073-4.689-0.802-5.513,1.878
			c-0.37,1.205-0.396,2.399-0.278,3.598c0.084,0.083,0.154,0.185,0.188,0.326c0.048,0.212,0.093,0.427,0.14,0.64
			c0.059,0.074,0.104,0.168,0.123,0.287c0.043,0.271,0.081,0.543,0.119,0.814c0.54,2.495,1.029,5.015,1.526,7.509
			c0.376,1.889,0.597,3.8,1.104,5.637c0.156,0.188,0.318,0.361,0.489,0.513c1.685,0.593,3.255,0.973,4.917,0.059
			c0.191-0.105,0.371-0.106,0.521-0.044c0.267-0.471,1.127-0.488,1.249,0.194c0.477,2.669,0.871,5.369,1.433,8.02
			c0.24,1.13,0.159-0.028,0.481,1.077c0.216,0.072,0.405,0.236,0.519,0.522c0.451,1.151,1.087,1.927,1.849,2.433
			c0.159-0.087,0.357-0.12,0.6-0.066c3.814,0.854,7.306-1.272,11.019-1.602c1.854-0.166,2.68,0.685,2.756,2.051
			c0.146,0.107,0.244,0.271,0.273,0.453c0.098,0.042,0.193,0.074,0.291,0.125c0.307,0.155,0.416,0.452,0.389,0.729
			c0.559,0.269,1.113,0.545,1.707,0.753c3.483-0.609,6.973-1.171,10.44-1.869c0.153-0.031,0.278-0.002,0.391,0.05
			c0.341-0.292,0.644-0.623,0.889-0.988c-0.096-0.836-0.172-1.671-0.149-2.51c-0.037-0.083-0.07-0.165-0.115-0.247
			c-0.336-0.616,0.387-1.103,0.899-0.876c0.014,0.003,0.026,0.004,0.04,0.008c0.019-0.043,0.036-0.09,0.057-0.131
			c1.891-0.426,3.783-0.985,5.529-1.83c0.306-0.021,0.611-0.033,0.917-0.047c0.054-0.139,0.163-0.261,0.349-0.334
			c1.696-0.664,3.46-1.116,5.16-1.764c1.45-0.554,4.116-1.39,4.646-3.055c0.623-1.962-0.258-1.937-0.088-4.002
			c-0.535-1.787-1.026-3.732-1.07-5.608c-0.761-0.196-0.876-1.479,0.057-1.626c1.488-0.232,3.314-0.162,4.66-0.908
			c0.719-0.398,1.352-0.855,2.049-1.213c0-0.001,0-0.002,0-0.003c-0.119-0.077-0.219-0.202-0.281-0.388
			C148.05,140.49,148.033,138.785,147.918,137.08z"/>
		<path fill="#FFECE3" d="M117.428,158.169c-0.515-3.375-0.468-6.869-1.218-10.194c-2.359,0.414-4.717,0.841-7.086,1.199
			c-3.313,0.501-6.67,0.406-9.975,0.94c-0.356,0.058-0.646-0.061-0.865-0.256c-0.594-0.436-0.683-1.315-0.916-1.965
			c-0.23-0.646-0.423-1.316-0.559-1.996c-0.568-0.674-0.789-1.652-0.81-2.505c-0.004-0.139,0.026-0.256,0.064-0.365
			c-0.393-0.934,0.881-1.832,1.643-1.07c0.02,0.02,0.032,0.042,0.05,0.062c0.14-0.08,0.299-0.137,0.501-0.134
			c3.693,0.061,7.354,0.081,11.043,0.053c3.355-0.026,6.766,0.269,10.027-0.447c0.299-0.448,0.772-0.792,1.43-0.869
			c1.871-0.219,4.688-0.791,5.861-2.436c0.067-0.094,0.143-0.172,0.217-0.248c-0.568-0.034-1.137-0.049-1.706-0.025
			c-1.333,0.054-2.663,0.229-3.997,0.252c-0.462,0.008-0.836-0.121-1.123-0.336c-0.208,0.048-0.418,0.097-0.623,0.144
			c-2.381,0.546-3.393-3.111-1.008-3.658c3.033-0.696,6.402-1.376,8.922-3.309c0.256-0.196,0.509-0.305,0.754-0.351
			c-1.37-0.697-3.111-1.493-4.891-1.961c-0.328,0.156-0.67,0.299-1.049,0.403c-1.254,0.345-2.721,0.209-4.021-0.317
			c-0.002,0-0.003,0-0.004,0.001c-1.697,0.812-3.224-0.956-2.814-2.289c-0.295-0.485-0.506-1.025-0.597-1.616
			c-0.974-6.319-1.019-12.82-2.75-19c-0.231-0.826-0.288-1.597-0.218-2.311c-0.727,0.217-1.449,0.461-2.165,0.722
			c-3.092,0.222-6.044,0.661-9.22,1.766c-2.7,0.938-5.143,2.708-7.066,4.911c-3.053,2.008-5.98,3.811-6.105,7.863
			c-0.046,1.489,0.153,3.041,0.459,4.604c-0.018,0.387-0.023,0.772-0.023,1.158c0.216,0.06,0.404,0.214,0.459,0.499
			c0.473,2.468,0.667,4.969,1.049,7.449c0.484,0.259,0.514,1.136-0.178,1.26c-0.268,0.048-0.467-0.058-0.6-0.218
			c-1.946,0.073-4.689-0.802-5.513,1.878c-0.37,1.205-0.396,2.399-0.278,3.598c0.084,0.083,0.154,0.185,0.188,0.326
			c0.048,0.212,0.093,0.427,0.14,0.64c0.059,0.074,0.104,0.168,0.123,0.287c0.043,0.271,0.081,0.543,0.119,0.814
			c0.54,2.495,1.029,5.015,1.526,7.509c0.376,1.889,0.597,3.8,1.104,5.637c0.156,0.188,0.318,0.361,0.489,0.513
			c1.685,0.593,3.255,0.973,4.917,0.059c0.191-0.105,0.371-0.106,0.521-0.044c0.267-0.471,1.127-0.488,1.249,0.194
			c0.477,2.669,0.871,5.369,1.433,8.02c0.24,1.13,0.159-0.028,0.481,1.077c0.216,0.072,0.405,0.236,0.519,0.522
			c0.451,1.151,1.087,1.927,1.849,2.433c0.159-0.087,0.357-0.12,0.6-0.066c3.814,0.854,7.306-1.272,11.019-1.602
			c1.854-0.166,2.68,0.685,2.756,2.051c0.146,0.107,0.244,0.271,0.273,0.453c0.098,0.042,0.193,0.074,0.291,0.125
			c0.307,0.155,0.416,0.452,0.389,0.729c0.559,0.269,1.113,0.545,1.707,0.753c1.785-0.313,3.572-0.613,5.358-0.926
			C118.727,165.123,117.96,161.663,117.428,158.169z"/>
		<path fill="none" stroke="#735F6D" stroke-width="0.8552" stroke-miterlimit="10" d="M133.362,99.17"/>
		<path fill="none" stroke="#735F6D" stroke-width="0.8552" stroke-miterlimit="10" d="M135.892,113.323l7.69,43.025
			c0,0,1.567,0.597-6.206,2.862l-12.152,3.925l0.76,4.246l-6.228,1.112"/>
		<path fill="none" stroke="#735F6D" stroke-width="0.8552" stroke-miterlimit="10" d="M119.756,168.493l-7.926,1.418l-0.809-4.529
			l-12.84,1.71c0,0-3.422,0.515-3.355-4.073l-7.389-40.742"/>
		<path fill="none" stroke="#735F6D" stroke-width="0.8552" stroke-miterlimit="10" d="M104.939,120.463
			c0,0-5.025,0.752-7.765,5.039"/>
		<path fill="none" stroke="#735F6D" stroke-width="0.8552" stroke-miterlimit="10" d="M119.853,116.112
			c0,0,6.766-2.275,10.769,3.921"/>
		<path fill="none" stroke="#735F6D" stroke-width="0.8552" stroke-miterlimit="10" d="M89.61,134.254c0,0-8.064-3.037-6.647,4.888
			c1.416,7.926,2.352,13.162,2.352,13.162s-1.447,5.226,7.921,1.944"/>
		<path fill="none" stroke="#735F6D" stroke-width="0.8552" stroke-miterlimit="10" d="M137.978,124.585c0,0,6.514-5.643,7.93,2.283
			c1.417,7.925,2.352,13.162,2.352,13.162s3.168,4.399-6.756,4.567"/>
		<path fill="none" stroke="#735F6D" stroke-width="0.8552" stroke-miterlimit="10" d="M139.275,131.689c0,0,1.563-3.769,3.98-3.324
			"/>
		<path fill="none" stroke="#735F6D" stroke-width="0.8552" stroke-miterlimit="10" d="M139.275,131.689
			c0,0,4.134,0.808,5.049,2.654"/>
		<path fill="none" stroke="#735F6D" stroke-width="0.8552" stroke-miterlimit="10" d="M90.593,140.131c0,0-3.256-2.658-5.152-0.196
			"/>
		<path fill="none" stroke="#735F6D" stroke-width="0.8552" stroke-miterlimit="10" d="M90.752,140.363c0,0-4.069,1.62-4.286,5.311"
			/>
		<polyline fill="#FFFFFF" stroke="#735F6D" stroke-width="0.8552" stroke-miterlimit="10" points="117.328,141.012 
			117.736,143.296 114.48,143.879 114.009,141.241 		"/>
		<polyline fill="#FFFFFF" stroke="#735F6D" stroke-width="0.8552" stroke-miterlimit="10" points="111.923,141.831 
			112.332,144.116 109.076,144.699 108.605,142.062 		"/>
		
			<line fill="none" stroke="#735F6D" stroke-width="0.8552" stroke-miterlimit="10" x1="90.62" y1="117.193" x2="82.671" y2="124.442"/>
		
			<line fill="none" stroke="#735F6D" stroke-width="0.8552" stroke-miterlimit="10" x1="90.81" y1="120.074" x2="83.126" y2="126.991"/>
		
			<line fill="none" stroke="#735F6D" stroke-width="0.8552" stroke-miterlimit="10" x1="91.316" y1="122.897" x2="84.815" y2="129.026"/>
		
			<line fill="none" stroke="#735F6D" stroke-width="0.8552" stroke-miterlimit="10" x1="90.664" y1="126.665" x2="85.22" y2="131.29"/>
		
			<line fill="none" stroke="#735F6D" stroke-width="0.8552" stroke-miterlimit="10" x1="131.48" y1="109.89" x2="141.448" y2="113.936"/>
		
			<line fill="none" stroke="#735F6D" stroke-width="0.8552" stroke-miterlimit="10" x1="132.298" y1="112.657" x2="141.903" y2="116.484"/>
		
			<line fill="none" stroke="#735F6D" stroke-width="0.8552" stroke-miterlimit="10" x1="132.804" y1="115.481" x2="141.024" y2="118.978"/>
		
			<line fill="none" stroke="#735F6D" stroke-width="0.8552" stroke-miterlimit="10" x1="134.72" y1="118.791" x2="141.429" y2="121.243"/>
		<path fill="none" stroke="#735F6D" stroke-width="0.8552" stroke-miterlimit="10" d="M88.503,115.367
			c0,0,12.438-15.368,37.701-11.705c25.265,3.663,23.586-5.728,23.586-5.728"/>
		<path fill="none" stroke="#735F6D" stroke-width="0.8552" stroke-miterlimit="10" d="M145.64,94.321c0,0,6.207,8.581-19.058,4.918
			c-25.264-3.662-37.702,11.706-37.702,11.706"/>
		<path fill="none" stroke="#735F6D" stroke-width="0.8552" stroke-miterlimit="10" d="M90.412,106.427
			c-1.066,1.316,10.273-15.133,34.203-11.663c25.264,3.662,17.965-1.22,17.965-1.22"/>
		<path fill="none" stroke="#735F6D" stroke-width="0.8552" stroke-miterlimit="10" d="M90.218,101.243
			c-1.064,1.316,10.273-15.134,34.203-11.664c25.266,3.663,12.144,2.158,12.144,2.158"/>
		<path fill="none" stroke="#735F6D" stroke-width="0.8552" stroke-miterlimit="10" d="M87.746,111.125c0,0-3.217,2.642-1.763,6.896
			"/>
		<path fill="none" stroke="#735F6D" stroke-width="0.8552" stroke-miterlimit="10" d="M88.445,106.842c0,0-6.672,1.258-5.008,7.24"
			/>
		<path fill="none" stroke="#735F6D" stroke-width="0.8552" stroke-miterlimit="10" d="M87.845,103.484c0,0-6.24,1.806-6.211,7.749"
			/>
		<g>
			<path fill="none" stroke="#735F6D" stroke-width="0.8552" stroke-miterlimit="10" d="M120.161,170.759l-4.479-22.763
				l-17.889,2.613l-2.117-8.575c8.585-0.36,18.434-0.227,18.434-0.227c27.187-5.099,3.223-3.47,3.223-3.47l-0.92-4.102
				c27.184-5.076-0.875-5.589-0.875-5.589l-0.411-2.479l-2.794-16.858l-0.949-5.727"/>
			<path fill="none" stroke="#735F6D" stroke-width="0.8552" stroke-miterlimit="10" d="M120.398,144.621
				c0,0,12.465-0.885,16.074-6.811l-0.535-2.989l1.244,6.953"/>
			<path d="M106.65,125.492l-1.491,0.268c-1.042,0.481-1.687,1.508-1.497,2.567c0.231,1.289,1.602,2.125,3.059,1.863
				c1.461-0.261,2.456-1.518,2.226-2.807C108.756,126.324,107.796,125.583,106.65,125.492z"/>
			
				<ellipse transform="matrix(-0.9844 0.1759 -0.1759 -0.9844 268.4255 224.8303)" cx="124.246" cy="124.314" rx="2.684" ry="2.373"/>
			
				<ellipse transform="matrix(-0.9844 0.1758 -0.1758 -0.9844 265.8042 224.1297)" opacity="0.8" fill="#FFFFFF" cx="122.977" cy="123.835" rx="1.322" ry="1.182"/>
			
				<ellipse transform="matrix(-0.9844 0.1758 -0.1758 -0.9844 230.6 233.6885)" opacity="0.8" fill="#FFFFFF" cx="104.95" cy="127.058" rx="1.322" ry="1.181"/>
			<path opacity="0.9" fill="#FFFFFF" d="M108.022,129.787l-1.009-1.054l1.572-0.281
				C108.585,128.452,108.784,129.453,108.022,129.787z"/>
			<path opacity="0.9" fill="#FFFFFF" d="M125.755,126.164l-1.01-1.054l1.57-0.281C126.316,124.829,126.515,125.83,125.755,126.164z
				"/>
			<path fill="none" stroke="#735F6D" stroke-width="0.8552" stroke-miterlimit="10" d="M102.058,131.859
				c0,0,3.861-3.211,8.897-1.256"/>
			<path fill="none" stroke="#735F6D" stroke-width="0.8552" stroke-miterlimit="10" d="M120.405,128.341
				c0,0,3.86-3.209,8.896-1.256"/>
		</g>
	</g>
	<g>
		<circle fill="#CDB54A" cx="167.432" cy="82.824" r="10.417"/>
		<circle fill="#DFC34E" cx="167.432" cy="82.824" r="8.76"/>
		<path fill="#FFFFFF" d="M170.77,80.735c-0.436-0.341-1.044-0.772-1.874-1.109c-0.564-0.229-1.59-0.234-1.783,0.242
			c-0.623,1.536,4.225,2.763,2.863,6.117c-0.495,1.218-1.551,2.248-3.381,1.896l-0.573,1.412l-1.729-0.702l0.537-1.323
			c-0.706-0.287-1.229-0.725-1.565-1.109c-0.197-0.223-0.37-0.457-0.499-0.694l0.603-1.482c0.242,0.263,0.493,0.508,0.76,0.761
			c0.468,0.416,1.096,0.897,1.784,1.176c1.289,0.523,2.01,0.014,2.281-0.656c0.803-1.978-4.181-2.87-2.869-6.1
			c0.508-1.254,1.875-1.685,3.377-1.384l0.553-1.358l1.73,0.702l-0.544,1.341c0.553,0.308,0.948,0.652,1.226,0.929
			c0.159,0.168,0.281,0.321,0.388,0.466l-0.603,1.483C171.263,81.141,171.035,80.945,170.77,80.735z"/>
	</g>
	<g>
		<circle fill="#CDB54A" cx="186.082" cy="27.081" r="10.417"/>
		<circle fill="#DFC34E" cx="186.081" cy="27.081" r="8.76"/>
		<path fill="#FFFFFF" d="M189.419,24.991c-0.438-0.342-1.043-0.772-1.873-1.109c-0.565-0.229-1.591-0.234-1.785,0.242
			c-0.621,1.535,4.225,2.763,2.863,6.116c-0.493,1.219-1.55,2.249-3.381,1.896l-0.572,1.411l-1.73-0.701l0.538-1.323
			c-0.706-0.287-1.228-0.725-1.565-1.108c-0.197-0.225-0.369-0.458-0.499-0.695l0.603-1.483c0.242,0.264,0.492,0.508,0.76,0.761
			c0.469,0.417,1.096,0.896,1.783,1.177c1.289,0.523,2.01,0.014,2.282-0.657c0.803-1.976-4.181-2.869-2.87-6.1
			c0.51-1.252,1.875-1.685,3.379-1.383l0.551-1.358l1.73,0.701l-0.544,1.342c0.553,0.308,0.947,0.651,1.225,0.929
			c0.158,0.168,0.281,0.321,0.387,0.467l-0.602,1.482C189.913,25.397,189.683,25.201,189.419,24.991z"/>
	</g>
	<path fill-rule="evenodd" clip-rule="evenodd" fill="#E4F3F7" stroke="#735F6D" stroke-width="0.8552" stroke-miterlimit="10" d="
		M192.48,62.044c-2.43,2.307-4.633,4.392-8.849,2.636c-0.323,2.528,0.177,6.498-1.53,8.629c-2.727,2.458-7.221,2.991-10.031,0.098
		c-1.971,5.208-5.541,10.062-10.832,11.786c-7.174,2.349-15.293-0.451-20.059-4.91c-1.364-1.292-4.331-6.801-4.7-9.297
		c-2.528,2.443-6.097,7.966-11.435,4.438c-0.984-0.654-1.42-1.278-2.012-2.688c-1.487,1.557-2.503,3.668-4.446,4.858
		c-2.276,1.382-5.973,2.562-8.987,2.436c-7.998-0.327-11.894-6.659-13.336-13.229c-1.67,1.373-3.201,2.279-5.286,3.04
		c-10.198,3.714-20.386-5.995-20.743-14.398c-0.471-11.315,6.369-18.077,15.846-17.357c6.594,0.492,9.006,4.413,12.747,8.656
		c0.454-2.024,0.489-3.932,0.655-5.182c0.541-4.251,2.602-6.736,5.773-7.766c3.559-1.14,6.715,0.889,9.826,2.15
		c-3.997-19.901,10.287-38.693,30.722-35.064c6.86,1.226,14.3,4.61,17.917,9.646c3.339,4.644,4.966,10.666,4.912,17.728
		c1.84-0.826,3.285-2.03,5.398-1.517c2.749,0.656,3.327,3.851,2.445,6.223c2.206-0.51,3.263-1.345,4.9-1.552
		c6.886-0.891,11.93,1.851,14.072,6.104C198.846,44.259,198.107,56.717,192.48,62.044z"/>
	<g>
		<circle fill="#CDB54A" cx="162.765" cy="114.499" r="10.417"/>
		<circle fill="#DFC34E" cx="162.765" cy="114.498" r="8.76"/>
		<path fill="#FFFFFF" d="M166.103,112.408c-0.438-0.343-1.043-0.772-1.873-1.109c-0.564-0.229-1.591-0.233-1.785,0.242
			c-0.621,1.535,4.225,2.763,2.864,6.116c-0.494,1.218-1.55,2.249-3.381,1.896l-0.573,1.412l-1.729-0.702l0.536-1.323
			c-0.706-0.287-1.228-0.725-1.566-1.108c-0.197-0.224-0.369-0.458-0.498-0.696l0.602-1.482c0.242,0.263,0.492,0.508,0.76,0.761
			c0.469,0.416,1.096,0.896,1.784,1.178c1.29,0.522,2.009,0.013,2.282-0.658c0.802-1.977-4.182-2.868-2.871-6.099
			c0.51-1.253,1.877-1.686,3.379-1.384l0.553-1.359l1.729,0.702l-0.544,1.343c0.554,0.306,0.948,0.651,1.226,0.929
			c0.158,0.167,0.282,0.319,0.387,0.466l-0.601,1.481C166.596,112.815,166.368,112.618,166.103,112.408z"/>
	</g>
	<g>
		<circle fill="#CDB54A" cx="98.537" cy="63.035" r="7.043"/>
		<circle fill="#DFC34E" cx="98.537" cy="63.035" r="5.923"/>
		<path fill="#FFFFFF" d="M100.794,61.622c-0.296-0.231-0.706-0.522-1.268-0.75c-0.381-0.154-1.074-0.158-1.207,0.163
			c-0.42,1.039,2.857,1.869,1.937,4.136c-0.334,0.823-1.048,1.521-2.285,1.283l-0.388,0.954l-1.17-0.476l0.363-0.895
			c-0.478-0.193-0.83-0.49-1.059-0.749c-0.133-0.151-0.25-0.31-0.336-0.471l0.406-1.002c0.164,0.178,0.334,0.344,0.514,0.515
			c0.316,0.281,0.741,0.605,1.206,0.795c0.872,0.354,1.358,0.01,1.543-0.444c0.542-1.337-2.827-1.939-1.94-4.124
			c0.344-0.848,1.268-1.139,2.284-0.936l0.372-0.918l1.171,0.475l-0.368,0.907c0.374,0.207,0.641,0.44,0.829,0.628
			c0.106,0.113,0.19,0.216,0.261,0.314l-0.406,1.003C101.127,61.897,100.972,61.764,100.794,61.622z"/>
	</g>
	<g>
		<circle fill="#CDB54A" cx="160.586" cy="148.28" r="8.135"/>
		<circle fill="#DFC34E" cx="160.586" cy="148.28" r="6.841"/>
		<path fill="#FFFFFF" d="M163.194,146.649c-0.342-0.268-0.815-0.605-1.464-0.867c-0.441-0.179-1.242-0.183-1.393,0.188
			c-0.486,1.199,3.299,2.158,2.236,4.777c-0.387,0.95-1.211,1.756-2.641,1.48l-0.447,1.104l-1.352-0.549l0.419-1.033
			c-0.552-0.225-0.958-0.565-1.222-0.866c-0.154-0.174-0.288-0.357-0.389-0.543l0.47-1.158c0.188,0.206,0.384,0.397,0.593,0.595
			c0.365,0.324,0.855,0.7,1.393,0.919c1.008,0.407,1.57,0.01,1.783-0.514c0.626-1.544-3.266-2.241-2.242-4.763
			c0.398-0.979,1.465-1.316,2.64-1.081l0.431-1.061l1.35,0.548l-0.424,1.047c0.432,0.241,0.74,0.51,0.957,0.727
			c0.123,0.131,0.221,0.249,0.303,0.363l-0.471,1.158C163.579,146.965,163.4,146.812,163.194,146.649z"/>
	</g>
	<g>
		<circle fill="#CDB54A" cx="197.672" cy="74.062" r="8.135"/>
		<circle fill="#DFC34E" cx="197.672" cy="74.062" r="6.841"/>
		<path fill="#FFFFFF" d="M200.279,72.431c-0.342-0.268-0.814-0.604-1.463-0.867c-0.441-0.179-1.242-0.183-1.395,0.188
			c-0.485,1.199,3.3,2.158,2.237,4.777c-0.386,0.951-1.211,1.757-2.642,1.481l-0.446,1.103l-1.351-0.549l0.42-1.032
			c-0.552-0.225-0.959-0.566-1.223-0.866c-0.154-0.175-0.289-0.357-0.39-0.543l0.47-1.159c0.189,0.206,0.385,0.398,0.594,0.595
			c0.365,0.325,0.855,0.7,1.393,0.919c1.006,0.408,1.568,0.01,1.782-0.513c0.627-1.545-3.266-2.241-2.242-4.764
			c0.397-0.979,1.466-1.315,2.639-1.081l0.431-1.061l1.351,0.548l-0.424,1.048c0.432,0.24,0.739,0.509,0.957,0.727
			c0.124,0.13,0.219,0.249,0.302,0.363l-0.47,1.158C200.664,72.748,200.486,72.594,200.279,72.431z"/>
	</g>
	<g>
		<path fill="#735F6D" d="M50.269,79.743c0.797-0.399,1.595-0.786,2.395-1.167l-0.848-1.692c-0.658-1.315-2.258-1.85-3.572-1.19
			c-1.316,0.657-1.849,2.258-1.191,3.573l0.847,1.692C48.683,80.549,49.472,80.142,50.269,79.743z"/>
		<g id="XMLID_2_">
			<g>
				<path fill="#735F6D" d="M139.1,83.572c-2.77-0.24-6.88,0.74-11.05,2.83c-6.58,3.29-10.85,8.09-9.53,10.72
					c-1.32-2.63-7.24-1.15-13.81,2.14c-6.58,3.29-10.37,9.05-9.05,11.68c-1.32-2.63-7.72-2.1-14.3,1.19
					c-6.57,3.29-10.36,9.05-9.04,11.68c-1.32-2.63-8.2-3.05-14.77,0.24c-6.58,3.29-11.32,7.14-10,9.77
					c-1.32-2.63-7.72-2.1-14.3,1.19c-6.57,3.29-11.31,7.14-10,9.77c-1.31-2.63-7.71-2.1-14.29,1.19c-4.18,2.09-7.42,4.79-8.89,7.16
					c-1.36-21.37,17.03-55.3,50.8-72.19C84.63,64.042,122.82,69.682,139.1,83.572z M127.45,85.212c2.74-1.38,5.55-2.33,8.03-2.75
					c-17.51-12.24-53.07-15.81-84.02-0.33c-30.94,15.48-49.4,46.08-50.11,67.43c1.83-1.73,4.27-3.4,7.02-4.78
					c4.78-2.39,10.38-3.71,13.68-2.57c1.44-3.33,6.89-6.53,10.61-8.39c4.78-2.39,10.38-3.72,13.68-2.57
					c1.44-3.34,6.89-6.53,10.61-8.39c5.06-2.53,10.67-3.1,14-1.78c0.94-3.46,4.76-7.61,9.82-10.14c4.69-2.35,10.17-3.66,13.5-2.63
					c0.88-3.48,4.74-7.68,9.84-10.24c3.72-1.86,9.54-4.3,13.08-3.45C118.25,91.292,122.67,87.602,127.45,85.212z"/>
				<path fill="#00C7C4" d="M135.48,82.462c-2.48,0.42-5.29,1.37-8.03,2.75c-4.78,2.39-9.2,6.08-10.26,9.41
					c-3.54-0.85-9.36,1.59-13.08,3.45c-5.1,2.56-8.96,6.76-9.84,10.24c-3.33-1.03-8.81,0.28-13.5,2.63
					c-5.06,2.53-8.88,6.68-9.82,10.14c-3.33-1.32-8.94-0.75-14,1.78c-3.72,1.86-9.17,5.05-10.61,8.39c-3.3-1.15-8.9,0.18-13.68,2.57
					c-3.72,1.86-9.17,5.06-10.61,8.39c-3.3-1.14-8.9,0.18-13.68,2.57c-2.75,1.38-5.19,3.05-7.02,4.78
					c0.71-21.35,19.17-51.95,50.11-67.43C82.41,66.652,117.97,70.222,135.48,82.462z"/>
			</g>
		</g>
		<path fill="#735F6D" d="M73.266,125.71c-0.536-1.073-2.474-2.729-4.461-2.966l32.107,64.176l0,0
			c1.314,2.628,0.247,5.833-2.38,7.148c-2.627,1.313-5.834,0.246-7.146-2.381c-0.173-0.344-0.953-1.905-1.192-2.381
			c-0.658-1.316-2.259-1.849-3.573-1.191c-1.315,0.658-1.848,2.258-1.191,3.574c0.18,0.356,0.918,1.831,1.193,2.381
			c2.633,5.262,9.031,7.393,14.293,4.761c5.262-2.632,7.393-9.031,4.76-14.293l-32.107-64.176
			C72.565,122.093,72.73,124.637,73.266,125.71z"/>
		<path fill="#735F6D" d="M137.39,82.199"/>
	</g>
	<path fill="#FCDCCA" stroke="#735F6D" stroke-width="0.8552" stroke-miterlimit="10" d="M70.185,147.572
		c0,0,8.777-5.681,9.229-15.515l6.786,6.733c0,0-1.259,4.438-11.043,8.914l14.581-3.67c0,0,6,6.985,0.316,9.442l-10.334,2.631
		l12.107-1.815c0,0,4.365,5.262-0.08,6.809c-4.444,1.547-9.685,1.453-9.685,1.453l10.283,0.694c0,0,4.391,5.428-0.453,6.146
		c-4.845,0.72-12.647,1.897-12.647,1.897s-3.838-1.742-2.565-7.932c0,0-5.122,0.698-3.082-5.873
		C73.598,157.488,67.625,156.171,70.185,147.572z"/>
</g>
</svg>
