<?xml version="1.0" encoding="utf-8"?>
<!-- Generator: Adobe Illustrator 17.0.0, SVG Export Plug-In . SVG Version: 6.00 Build 0)  -->
<!DOCTYPE svg PUBLIC "-//W3C//DTD SVG 1.1//EN" "http://www.w3.org/Graphics/SVG/1.1/DTD/svg11.dtd">
<svg version="1.1" id="Layer_1" xmlns="http://www.w3.org/2000/svg" xmlns:xlink="http://www.w3.org/1999/xlink" x="0px" y="0px"
	 width="174.242px" height="125.682px" viewBox="0 0 174.242 125.682" enable-background="new 0 0 174.242 125.682"
	 xml:space="preserve">
<g>
	<g>
		<path opacity="0.2" fill="#2EAEB7" d="M87.29,0C52.586,0,24.452,28.139,24.452,62.834c0,34.714,28.134,62.848,62.838,62.848
			c34.705,0,62.84-28.134,62.84-62.848C150.13,28.139,121.995,0,87.29,0z"/>
		<path fill="#FFFFFF" d="M87.29,110.282c-26.156,0-47.439-21.282-47.439-47.448c0-26.15,21.283-47.435,47.439-47.435
			c26.157,0,47.44,21.284,47.44,47.435C134.73,89,113.447,110.282,87.29,110.282z"/>
		<path opacity="0.38" fill="#2EAEB7" d="M87.29,20.459c-23.369,0-42.379,19.01-42.379,42.375c0,23.374,19.01,42.388,42.379,42.388
			c23.371,0,42.381-19.014,42.381-42.388C129.671,39.469,110.661,20.459,87.29,20.459z"/>
	</g>
	<g>
		<path fill="#FFF3F0" d="M77.931,111.478v-73.26H45.722v67.787h23.44v5.473H77.931z"/>
		<path fill="#FCDCCA" d="M86.375,111.478v-5.473h23.157V38.218H77.714v73.26H86.375z M96.907,73.997
			C96.904,73.998,96.901,74,96.9,74.003v-0.014C96.896,73.994,96.907,74.011,96.907,73.997z"/>
		<path fill="#FFF3F0" d="M78.562,108.109c0,0,5.542-3.472,5.475-4.211c-0.067-0.739,0.001-9.426,0.001-9.426
			s7.069-1.072,8.582-4.776c-0.632-1.99-1.94-1.755-3.532-0.867c-1.592,0.888-8.454,6.663-15.788,5.663"/>
		<path fill="#FCDCCA" d="M80.661,83.618c0,0-16.727-2.114-20.991-9.12c-0.933,2.106-0.938,2.92-0.938,2.92l0.006,15.991
			c0,0,14.104,4.099,23.672-1.146"/>
		<path fill="none" stroke="#735F6D" stroke-width="1.1309" stroke-miterlimit="10" d="M58.352,73.989
			c0,6.449,0.002,12.927,0,19.383c2.538,0.301,5.113,0.809,7.579,1.265c3.034,0.107,6.65,0.537,9.549-0.066
			c3.978-0.83,8.441-2.973,12.016-4.854c1.25-0.657,6.688-4.177,5.124-0.021c-1.168,3.101-6.782,4.315-9.427,4.988l0.844,9.214
			l-5.475,4.211l-0.422,3.368h8.422v-5.473h23.578V38.218H45.722v67.787h23.156v5.473h9.262"/>
		<path opacity="0.8" fill="#FFF3F0" d="M77.298,45.104c0,0,0,19.332,0,19.397c0,1.982,3.064,1.879,4.442,2
			c3.878,0.341,8.787,0.678,11.55,3.88c-5.369,1.276-10.688,2.793-16.025,4.193c-0.621,0.164,1.5,2.665,1.606,2.751
			c3.483,2.759,10.097,1.172,14.038,0.767c-7.219,4.231-16.809,5.529-24.657,2.202c-3.775-1.603-6.887-4.28-9.906-6.99"/>
		<path fill="none" stroke="#735F6D" stroke-width="1.1309" stroke-miterlimit="10" d="M76.88,45.664c0,0,0,19.332,0,19.397
			c0,1.982,3.064,1.879,4.442,2c3.878,0.341,8.787,0.678,11.55,3.88c-5.369,1.276-10.688,2.793-16.025,4.193
			c-0.621,0.164,1.5,2.665,1.606,2.751c3.483,2.759,10.097,1.172,14.038,0.767c-7.219,4.23-16.809,5.529-24.657,2.202
			c-3.775-1.603-6.887-4.28-9.906-6.99"/>
		<polygon fill="#FCDCCA" points="110.14,67.269 122.35,65.194 122.35,85.795 110.14,82.425 		"/>
		<polygon fill="none" stroke="#735F6D" stroke-width="1.1309" stroke-miterlimit="10" points="110.14,67.269 122.35,65.194 
			122.35,85.795 110.14,82.425 		"/>
		<polygon opacity="0.8" fill="#FFF3F0" points="45.3,67.269 33.091,65.194 33.091,85.795 45.3,82.425 		"/>
		<polygon fill="none" stroke="#735F6D" stroke-width="1.1309" stroke-miterlimit="10" points="45.3,67.269 33.091,65.194 
			33.091,85.795 45.3,82.425 		"/>
		<polyline fill="none" stroke="#735F6D" stroke-width="1.1309" stroke-miterlimit="10" points="116.243,72.32 112.665,75.495 
			116.243,79.9 		"/>
		<polyline fill="none" stroke="#735F6D" stroke-width="1.1309" stroke-miterlimit="10" points="45.722,72.32 39.194,72.32 
			39.194,75.495 37.72,79.9 		"/>
		<path fill="none" stroke="#735F6D" stroke-width="1.1309" stroke-miterlimit="10" d="M112.876,55.901
			c0,0,8.842-2.106,12.631,1.685C125.507,57.586,124.798,67.822,112.876,55.901z"/>
		<path fill="none" stroke="#735F6D" stroke-width="1.1309" stroke-miterlimit="10" d="M40.458,54.242c0,0-4.211-4.235-9.685,3.764
			C30.773,58.006,30.478,59.51,40.458,54.242z"/>
		<path fill="none" stroke="#735F6D" stroke-width="2" stroke-miterlimit="10" d="M93.72,60.533c0,0,2.947-6.737,9.684,0"/>
		<path fill="none" stroke="#735F6D" stroke-width="2" stroke-miterlimit="10" d="M65.757,60.533c0,0-2.947-6.737-9.684,0"/>
		<path fill="none" stroke="#372932" stroke-width="8" stroke-miterlimit="10" d="M89.087,51.9c4.633,0,9.686,0,14.316,0"/>
		<path fill="none" stroke="#231822" stroke-width="8" stroke-miterlimit="10" d="M53.757,51.9c4.632,0,9.684,0,14.314,0"/>
		<g>
			<g>
				<path fill="none" stroke="#372932" stroke-width="3" stroke-miterlimit="10" d="M130.35,44.248
					c-45.052,3.749-84.628-6.03-84.628-6.03s80.417,5.296,84.628,0"/>
				<path fill="none" stroke="#372932" stroke-width="3" stroke-miterlimit="10" d="M45.722,38.218c0,0,79.154-3.04,84.628-6.273"/>
			</g>
			<g>
				<path fill="none" stroke="#372932" stroke-width="3" stroke-miterlimit="10" d="M129.977,34.421
					c-44.469,8.129-84.812,2.258-84.812,2.258s80.551-2.576,84.225-8.258"/>
				<path fill="none" stroke="#372932" stroke-width="3" stroke-miterlimit="10" d="M45.165,36.679c0,0,78.48-10.751,83.612-14.503"
					/>
			</g>
			<g>
				<path fill="none" stroke="#372932" stroke-width="3" stroke-miterlimit="10" d="M129.86,41.596
					c-44.928,5.008-84.764-3.662-84.764-3.662s80.535,3.05,84.596-2.364"/>
				<path fill="none" stroke="#372932" stroke-width="3" stroke-miterlimit="10" d="M45.097,37.934c0,0,79.039-5.252,84.42-8.637"/>
			</g>
			<g>
				<path fill="none" stroke="#372932" stroke-width="3" stroke-miterlimit="10" d="M130.012,37.672
					c-44.685,6.848-84.843-0.179-84.843-0.179s80.592-0.261,84.428-5.836"/>
				<path fill="none" stroke="#372932" stroke-width="3" stroke-miterlimit="10" d="M45.169,37.493c0,0,78.756-8.491,83.993-12.097"
					/>
			</g>
		</g>
	</g>
	<g>
		<g>
			<rect x="7.21" y="41.905" fill="#2EAEB7" width="7.023" height="27.171"/>
			<path fill="#2EAEB7" d="M19.276,97.147c0,12.399-3.83,20.854-8.555,20.854l0,0c-4.725,0-8.555-8.041-8.555-20.854
				c0-10.339,2.629-30.844,4.277-41.046c0.686-4.252,0.643-7.417,4.277-7.417l0,0c3.85,0,3.635,3.262,4.277,7.417
				C16.575,66.314,19.276,86.809,19.276,97.147z"/>
			<path fill="#2EAEB7" d="M19.674,2.883c-0.979,0-1.771,0.794-1.771,1.77v20.499h-2.427V4.652c0-0.976-0.793-1.77-1.77-1.77
				c-0.979,0-1.771,0.794-1.771,1.77v20.499H9.507V4.652c0-0.976-0.791-1.77-1.768-1.77c-0.98,0-1.772,0.794-1.772,1.77v20.499H3.54
				V4.652c0-0.976-0.791-1.77-1.768-1.77C0.794,2.883,0,3.677,0,4.652v20.499v9.021v4.871c0,1.397,0,6.877,4.706,6.877h12.033
				c4.703,0,4.703-5.479,4.703-6.877v-4.871v-9.021V4.652C21.442,3.677,20.651,2.883,19.674,2.883z"/>
		</g>
		<g>
			<rect x="159.195" y="40.02" fill="#2EAEB7" width="7.024" height="27.17"/>
			<path fill="#2EAEB7" d="M171.263,99.025c0,10.162-3.83,17.092-8.556,17.092l0,0c-4.724,0-8.554-6.589-8.554-17.092
				c0-8.471,2.628-25.273,4.277-33.635c0.687-3.483,0.641-6.078,4.276-6.078l0,0c3.851,0,3.636,2.673,4.278,6.078
				C168.561,73.76,171.263,90.555,171.263,99.025z"/>
			<path fill="#2EAEB7" d="M162.708,55.889c-2.488,0.007-4.586-1.591-4.675-3.569c0-15.917,0-31.834,0-47.753
				c0.089-1.976,2.186-3.574,4.675-3.567l0,0c2.486,0.007,5.4,1.543,6.344,3.464c6.92,15.547,6.92,32.412,0,47.964
				C168.108,54.346,165.195,55.882,162.708,55.889L162.708,55.889z"/>
		</g>
	</g>
</g>
</svg>
