<?xml version="1.0" encoding="utf-8"?>
<!-- Generator: Adobe Illustrator 17.0.0, SVG Export Plug-In . SVG Version: 6.00 Build 0)  -->
<!DOCTYPE svg PUBLIC "-//W3C//DTD SVG 1.1//EN" "http://www.w3.org/Graphics/SVG/1.1/DTD/svg11.dtd">
<svg version="1.1" id="Layer_1" xmlns="http://www.w3.org/2000/svg" xmlns:xlink="http://www.w3.org/1999/xlink" x="0px" y="0px"
	 width="174.242px" height="137.419px" viewBox="0 0 174.242 137.419" enable-background="new 0 0 174.242 137.419"
	 xml:space="preserve">
<g>
	<g>
		<path opacity="0.2" fill="#2EAEB7" d="M87.273,13.881c-34.114,0-61.77,27.658-61.77,61.768c0,34.116,27.655,61.77,61.77,61.77
			c34.113,0,61.768-27.654,61.768-61.77C149.041,41.539,121.387,13.881,87.273,13.881z"/>
		<path fill="#FFFFFF" d="M87.273,122.283c-25.714,0-46.631-20.921-46.631-46.635c0-25.712,20.917-46.63,46.631-46.63
			c25.71,0,46.63,20.918,46.63,46.63C133.903,101.362,112.983,122.283,87.273,122.283z"/>
		<path opacity="0.38" fill="#2EAEB7" d="M87.273,33.992c-22.973,0-41.656,18.689-41.656,41.656
			c0,22.97,18.684,41.659,41.656,41.659c22.971,0,41.657-18.69,41.657-41.659C128.931,52.682,110.244,33.992,87.273,33.992z"/>
	</g>
	<g>
		<path fill="#61274B" d="M66.522,71.67c2.655-3.124,5.549-6.37,8.225-8.971c7.048-6.842,14.168-5.577,21.2,1.667
			c7.033,7.243,9.085,11.906,4.808,20.624c-1.816,3.702-6.11,7.748-10.449,11.182l12.132,12.496c3.921-2.704,7.539-5.68,9.858-7.677
			l0.082,0.082c0.004,0.005,0.267-0.246,0.447-0.419c0.289-0.28,0.522-0.521,0.798-0.808c0.566-0.501,0.856-0.771,0.856-0.771
			l-0.04-0.11c12.439-13.83,12.274-35.204-0.874-48.751c-11.938-12.295-30.51-14.213-44.456-5.469l0,0
			c-0.002-0.002-0.099,0.089-0.107,0.093c-1.642,1.032-3.257,2.251-4.752,3.577c-2.192,1.907-4.177,4.021-5.932,6.163
			c-0.196,0.241-0.393,0.483-0.583,0.723c-1.081,1.4-2.106,2.758-3.093,4.13L66.522,71.67z"/>
		<path fill="#2EAEB7" d="M89.003,97.182c-2.559,1.956-5.05,3.66-6.965,4.914c-0.238,0.155-0.469,0.305-0.687,0.446
			c-1.806,0.754-2.747,2.428-0.666,3.98c0.197,0.205,0.46,0.378,0.687,0.611l4.983,5.134c1.721,1.381,3.475,3.482,5.863,2.018
			c0.287-0.1,0.602-0.234,0.894-0.352c2.532-1.005,5.28-2.576,7.946-4.334L89.003,97.182z"/>
		<path fill="#2EAEB7" d="M60.904,78.437c0.188-0.228,0.382-0.465,0.581-0.706c1.178-1.442,2.53-3.088,3.975-4.807L53.684,60.796
			c-0.686,0.995-1.357,2.008-2.016,3.066c-0.135,0.221-0.269,0.442-0.398,0.665c-0.131,0.224-0.262,0.449-0.39,0.676
			c-0.169,0.225-0.336,0.454-0.497,0.684c-1.131,1.605-2.03,3.298-2.103,5.347c0.003,0.299,0.023,0.601,0.07,0.906
			c0.046,0.302,0.112,0.606,0.205,0.909c0.134,0.241,0.276,0.469,0.427,0.691c1.364,1.995,3.516,3.315,4.893,5.26
			c0.145,0.15,0.29,0.302,0.433,0.448C57.079,82.893,58.641,81.758,60.904,78.437z"/>
	</g>
	<g>
		<g>
			<rect x="7.21" y="40.905" fill="#2EAEB7" width="7.023" height="27.172"/>
			<path fill="#2EAEB7" d="M19.276,96.148c0,12.399-3.83,20.855-8.555,20.855l0,0c-4.725,0-8.556-8.041-8.556-20.855
				c0-10.338,2.63-30.842,4.279-41.045c0.686-4.251,0.641-7.418,4.276-7.418l0,0c3.849,0,3.636,3.262,4.277,7.418
				C16.575,65.316,19.276,85.81,19.276,96.148z"/>
			<path fill="#2EAEB7" d="M19.674,1.884c-0.979,0-1.771,0.794-1.771,1.77v20.497h-2.428V3.654c0-0.977-0.791-1.77-1.77-1.77
				c-0.977,0-1.769,0.794-1.769,1.77v20.497H9.508V3.654c0-0.977-0.791-1.77-1.77-1.77c-0.977,0-1.771,0.794-1.771,1.77v20.497
				H3.541V3.654c0-0.977-0.793-1.77-1.771-1.77C0.793,1.884,0,2.678,0,3.654v20.497v9.022v4.87c0,1.396,0,6.876,4.705,6.876h12.034
				c4.704,0,4.704-5.479,4.704-6.876v-4.87v-9.022V3.654C21.443,2.678,20.651,1.884,19.674,1.884z"/>
		</g>
		<g>
			<rect x="159.195" y="39.021" fill="#2EAEB7" width="7.023" height="27.172"/>
			<path fill="#2EAEB7" d="M171.263,98.028c0,10.16-3.83,17.09-8.557,17.09l0,0c-4.723,0-8.551-6.589-8.551-17.09
				c0-8.473,2.627-25.273,4.273-33.636c0.689-3.485,0.643-6.08,4.277-6.08l0,0c3.852,0,3.638,2.674,4.278,6.08
				C168.562,72.761,171.263,89.556,171.263,98.028z"/>
			<path fill="#2EAEB7" d="M162.708,54.89c-2.488,0.008-4.587-1.591-4.675-3.569c0-15.917,0-31.834,0-47.752
				c0.088-1.977,2.187-3.576,4.675-3.568l0,0c2.487,0.005,5.4,1.542,6.344,3.464c6.921,15.548,6.921,32.411,0,47.963
				C168.108,53.346,165.195,54.884,162.708,54.89L162.708,54.89z"/>
		</g>
	</g>
</g>
</svg>
