<?xml version="1.0" encoding="utf-8"?>
<!-- Generator: Adobe Illustrator 17.0.0, SVG Export Plug-In . SVG Version: 6.00 Build 0)  -->
<!DOCTYPE svg PUBLIC "-//W3C//DTD SVG 1.1//EN" "http://www.w3.org/Graphics/SVG/1.1/DTD/svg11.dtd">
<svg version="1.1" id="Layer_1" xmlns="http://www.w3.org/2000/svg" xmlns:xlink="http://www.w3.org/1999/xlink" x="0px" y="0px"
	 width="174.243px" height="125.682px" viewBox="0 0 174.243 125.682" enable-background="new 0 0 174.243 125.682"
	 xml:space="preserve">
<g>
	<g>
		<path opacity="0.2" fill="#2EAEB7" d="M87.115,0C52.408,0,24.274,28.139,24.274,62.834c0,34.714,28.134,62.848,62.841,62.848
			c34.702,0,62.838-28.134,62.838-62.848C149.953,28.139,121.817,0,87.115,0z"/>
		<path fill="#FFFFFF" d="M87.115,110.282c-26.16,0-47.441-21.282-47.441-47.448c0-26.15,21.281-47.435,47.441-47.435
			c26.156,0,47.438,21.284,47.438,47.435C134.554,89,113.271,110.282,87.115,110.282z"/>
		<path opacity="0.38" fill="#2EAEB7" d="M87.115,20.459c-23.371,0-42.381,19.01-42.381,42.375c0,23.374,19.01,42.388,42.381,42.388
			c23.368,0,42.379-19.014,42.379-42.388C129.494,39.469,110.483,20.459,87.115,20.459z"/>
	</g>
	<g>
		<g>
			<path fill="#2EAEB7" d="M67.693,81.456c5.938,9.248,11.947,17.057,12.613,17.918c0.668-0.861,6.679-8.67,12.614-17.92
				c3.68-5.73,6.61-10.886,8.713-15.321c2.624-5.537,3.954-9.958,3.954-13.141c0-13.941-11.342-25.281-25.281-25.281
				c-13.939,0-25.278,11.34-25.278,25.281c0,3.183,1.329,7.604,3.954,13.141C61.084,70.568,64.016,75.724,67.693,81.456z
				 M80.324,40.023c7.054,0,12.79,5.737,12.79,12.788c0,7.054-5.736,12.792-12.79,12.792c-7.053,0-12.79-5.738-12.79-12.792
				C67.534,45.761,73.271,40.023,80.324,40.023z"/>
		</g>
		<g>
			<path fill="#61274B" d="M80.217,81.108c5.938,9.249,11.945,17.057,12.613,17.917c0.667-0.86,6.679-8.668,12.614-17.917
				c3.68-5.733,6.609-10.887,8.712-15.322c2.624-5.539,3.955-9.959,3.955-13.142c0-13.94-11.341-25.281-25.281-25.281
				S67.552,38.704,67.552,52.645c0,3.183,1.329,7.603,3.954,13.142C73.605,70.222,76.537,75.377,80.217,81.108z M92.847,39.676
				c7.054,0,12.79,5.738,12.79,12.791c0,7.053-5.736,12.791-12.79,12.791c-7.053,0-12.789-5.738-12.789-12.791
				C80.058,45.414,85.794,39.676,92.847,39.676z"/>
		</g>
	</g>
	<g>
		<g>
			<rect x="7.21" y="41.905" fill="#2EAEB7" width="7.024" height="27.171"/>
			<path fill="#2EAEB7" d="M19.275,97.147c0,12.399-3.828,20.854-8.552,20.854l0,0c-4.727,0-8.556-8.041-8.556-20.854
				c0-10.339,2.63-30.844,4.277-41.046c0.688-4.252,0.642-7.417,4.278-7.417l0,0c3.848,0,3.634,3.262,4.276,7.417
				C16.575,66.314,19.275,86.809,19.275,97.147z"/>
			<path fill="#2EAEB7" d="M19.674,2.883c-0.979,0-1.771,0.794-1.771,1.77v20.499h-2.427V4.652c0-0.976-0.792-1.77-1.772-1.77
				c-0.976,0-1.768,0.794-1.768,1.77v20.499H9.51V4.652c0-0.976-0.793-1.77-1.769-1.77c-0.979,0-1.771,0.794-1.771,1.77v20.499
				H3.542V4.652c0-0.976-0.792-1.77-1.769-1.77C0.794,2.883,0,3.677,0,4.652v20.499v9.021v4.871c0,1.397,0,6.877,4.704,6.877h12.035
				c4.705,0,4.705-5.48,4.705-6.877v-4.871v-9.021V4.652C21.444,3.677,20.651,2.883,19.674,2.883z"/>
		</g>
		<g>
			<rect x="159.197" y="40.021" fill="#2EAEB7" width="7.022" height="27.17"/>
			<path fill="#2EAEB7" d="M171.263,99.025c0,10.162-3.83,17.092-8.556,17.092l0,0c-4.724,0-8.552-6.589-8.552-17.092
				c0-8.471,2.628-25.273,4.276-33.635c0.686-3.483,0.643-6.078,4.275-6.078l0,0c3.85,0,3.637,2.673,4.277,6.078
				C168.56,73.76,171.263,90.555,171.263,99.025z"/>
			<path fill="#2EAEB7" d="M162.708,55.889c-2.487,0.007-4.587-1.591-4.674-3.569c0-15.917,0-31.834,0-47.753
				c0.087-1.976,2.186-3.574,4.674-3.567l0,0c2.488,0.007,5.4,1.543,6.345,3.464c6.92,15.547,6.92,32.412,0,47.964
				C168.107,54.346,165.196,55.882,162.708,55.889L162.708,55.889z"/>
		</g>
	</g>
</g>
</svg>
