<?xml version="1.0" encoding="utf-8"?>
<!-- Generator: Adobe Illustrator 17.0.0, SVG Export Plug-In . SVG Version: 6.00 Build 0)  -->
<!DOCTYPE svg PUBLIC "-//W3C//DTD SVG 1.1//EN" "http://www.w3.org/Graphics/SVG/1.1/DTD/svg11.dtd">
<svg version="1.1" id="Layer_1" xmlns="http://www.w3.org/2000/svg" xmlns:xlink="http://www.w3.org/1999/xlink" x="0px" y="0px"
	 width="166.632px" height="118.786px" viewBox="0 0 166.632 118.786" enable-background="new 0 0 166.632 118.786"
	 xml:space="preserve">
<g>
	<g>
		<path opacity="0.2" fill="#2EAEB7" d="M83.608,0C51.74,0,25.905,25.838,25.905,57.702c0,31.872,25.835,57.707,57.703,57.707
			c31.869,0,57.703-25.835,57.703-57.707C141.312,25.838,115.478,0,83.608,0z"/>
		<path fill="#FFFFFF" d="M83.608,101.27c-24.02,0-43.563-19.545-43.563-43.567c0-24.019,19.544-43.561,43.563-43.561
			c24.021,0,43.563,19.542,43.563,43.561C127.171,81.725,107.629,101.27,83.608,101.27z"/>
		<path opacity="0.38" fill="#2EAEB7" d="M83.608,18.789c-21.46,0-38.916,17.456-38.916,38.913
			c0,21.461,17.456,38.919,38.916,38.919c21.459,0,38.918-17.458,38.918-38.919C122.526,36.245,105.067,18.789,83.608,18.789z"/>
	</g>
	<g>
		<path fill="#61274B" d="M73.506,61.855c0,9.816-7.96,17.774-17.778,17.774c-9.816,0-17.776-7.958-17.776-17.774
			c0-9.819,7.96-17.778,17.776-17.778C65.546,44.077,73.506,52.036,73.506,61.855z"/>
	</g>
	<path fill="none" stroke="#2EAEB7" stroke-width="5" stroke-miterlimit="10" d="M98.765,29.298"/>
	<path fill="none" stroke="#2EAEB7" stroke-width="5" stroke-miterlimit="10" d="M101.986,29.298"/>
	<g>
		<path fill="none" stroke="#2EAEB7" stroke-width="5" stroke-miterlimit="10" d="M119.722,38.098
			C77.739-0.111,47.48,39.332,47.48,39.332"/>
		<line fill="none" stroke="#2EAEB7" stroke-width="5" stroke-miterlimit="10" x1="116.312" y1="23.072" x2="118.772" y2="37.063"/>
		<line fill="none" stroke="#2EAEB7" stroke-width="5" stroke-miterlimit="10" x1="104.336" y1="36.295" x2="118.509" y2="37.248"/>
	</g>
	<g>
		<polygon fill="#61274B" points="109.556,40.295 114.405,55.22 130.101,55.22 117.404,64.446 122.253,79.372 109.556,70.147 
			96.858,79.372 101.71,64.446 89.012,55.22 104.707,55.22 		"/>
		<polygon fill="#61274B" points="96.085,44.609 108.386,54.356 121.456,45.67 115.987,60.38 128.287,70.128 112.607,69.472 
			107.137,84.185 102.915,69.067 87.234,68.409 100.307,59.726 		"/>
	</g>
	<g>
		<g>
			<rect x="7.21" y="42.689" fill="#2EAEB7" width="7.023" height="27.171"/>
			<path fill="#2EAEB7" d="M19.275,97.93c0,12.399-3.828,20.856-8.554,20.856l0,0c-4.725,0-8.555-8.041-8.555-20.856
				c0-10.336,2.629-30.842,4.277-41.046c0.688-4.249,0.643-7.416,4.277-7.416l0,0c3.85,0,3.635,3.263,4.277,7.416
				C16.575,67.098,19.275,87.594,19.275,97.93z"/>
			<path fill="#2EAEB7" d="M19.673,3.668c-0.979,0-1.77,0.794-1.77,1.77v20.498h-2.428V5.437c0-0.976-0.793-1.77-1.769-1.77
				c-0.978,0-1.771,0.794-1.771,1.77v20.498H9.508V5.437c0-0.976-0.792-1.77-1.77-1.77c-0.977,0-1.771,0.794-1.771,1.77v20.498H3.54
				V5.437c0-0.976-0.792-1.77-1.77-1.77C0.794,3.668,0,4.462,0,5.437v20.498v9.021v4.87c0,1.399,0,6.877,4.704,6.877h12.035
				c4.704,0,4.704-5.478,4.704-6.877v-4.87v-9.021V5.437C21.443,4.462,20.65,3.668,19.673,3.668z"/>
		</g>
		<g>
			<rect x="151.586" y="40.803" fill="#2EAEB7" width="7.023" height="27.173"/>
			<path fill="#2EAEB7" d="M163.652,99.811c0,10.16-3.83,17.09-8.555,17.09l0,0c-4.724,0-8.554-6.59-8.554-17.09
				c0-8.472,2.628-25.275,4.277-33.636c0.687-3.484,0.643-6.079,4.276-6.079l0,0c3.849,0,3.636,2.674,4.276,6.079
				C160.951,74.544,163.652,91.34,163.652,99.811z"/>
			<path fill="#2EAEB7" d="M155.099,56.673c-2.489,0.006-4.586-1.592-4.674-3.569c0-15.917,0-31.834,0-47.752
				c0.088-1.978,2.185-3.575,4.674-3.57l0,0c2.487,0.008,5.4,1.544,6.344,3.465c6.92,15.549,6.92,32.414,0,47.963
				C160.499,55.13,157.586,56.666,155.099,56.673L155.099,56.673z"/>
		</g>
	</g>
</g>
</svg>
