<?xml version="1.0" encoding="utf-8"?>
<!-- Generator: Adobe Illustrator 17.0.0, SVG Export Plug-In . SVG Version: 6.00 Build 0)  -->
<!DOCTYPE svg PUBLIC "-//W3C//DTD SVG 1.1//EN" "http://www.w3.org/Graphics/SVG/1.1/DTD/svg11.dtd">
<svg version="1.1" id="Layer_1" xmlns="http://www.w3.org/2000/svg" xmlns:xlink="http://www.w3.org/1999/xlink" x="0px" y="0px"
	 width="241.435px" height="245.306px" viewBox="0 0 241.435 245.306" enable-background="new 0 0 241.435 245.306"
	 xml:space="preserve">
<g>
	<path fill="#61274B" d="M198.682,218.786c-0.367-0.221-0.727-0.343-1.078-0.408c-0.158-0.784-0.371-1.589-0.647-2.419
		c-0.929-2.776-3.798-3.908-6.396-2.602c-7.356,3.698-8.206,13.566-15.253,17.719c-1.395,0.821-2.859,1.482-4.371,2.017
		c-0.041-1.621-0.988-3.079-3.146-3.38c-10.127-1.417-20.16-2.495-30.305-0.622c-1.185,0.219-2.036,0.92-2.55,1.831
		c-1.34-0.576-2.655-1.182-3.958-1.799c0.121-0.542,0.227-1.083,0.322-1.623c1.913-0.973,3.639-2.308,5.188-3.829
		c2.864-2.814-1.536-7.209-4.397-4.398c-0.264,0.258-0.537,0.483-0.809,0.72c-0.107-0.467-0.236-0.935-0.396-1.402
		c0.431-0.234,0.849-0.453,1.241-0.655c3.571-1.828,0.423-7.196-3.14-5.37c-4.492,2.301-9.415,6.033-10.896,10.851
		c-1.861,0.346-3.298,2.012-3.622,3.82c-0.338,0.794-0.38,1.753,0.071,2.856c5.15,12.568,22.41,14.91,36.613,14.569
		c7.26,1.108,14.569,0.881,21.639-1.407c0.482,0.39,1.119,0.631,1.928,0.608c1.256-0.035,2.922-0.311,4.817-0.782
		c10.751,0.101,22.595-1.451,24.306-12.076c0.139-0.851-0.049-1.587-0.413-2.193C204.998,225.504,204.049,222.023,198.682,218.786z"
		/>
	<path fill="#FDCA89" d="M240.393,107.98c1.975-2.188,1.152-6.521-2.539-6.246c-0.248,0.018-0.5,0.041-0.748,0.062
		c-0.442-0.04-0.899-0.001-1.347,0.112c-2.111,0.185-4.257,0.377-6.38,0.356c-0.713-0.831-1.512-1.582-2.369-2.256
		c-0.098-0.969-0.215-1.937-0.34-2.903c0.002-6.766-0.109-13.506-0.945-20.25c-0.371-2.993-1.264-5.863-2.214-8.719
		c-0.88-5.112-2.087-10.182-3.78-15.199c-0.941-3.43-2.152-6.756-3.881-9.915c-1.422-2.594-3.839-4.289-5.841-6.206
		c-0.681-1.175-1.563-2.209-2.583-3.101c-8.113-10.856-24.58-4.014-25.332,6.727c-0.597,2.208-0.591,4.543,0.268,6.771
		c0.027,0.072,0.058,0.143,0.086,0.215c-0.221,0.935-0.422,1.874-0.626,2.814c-2.128,1.079-4.046,2.499-5.759,4.172
		c-3.829-0.529-7.867,0.634-11.331,3.744c-7.329,6.584-7.956,17.526-7.682,26.697c0.315,10.529,0.875,20.936,0.875,31.496
		c0,11.572-0.14,23.131-0.286,34.695c-0.261,0.039-0.518,0.099-0.766,0.186c-6.289,0.68-12.514,1.695-18.853,1.817
		c-6.779,0.131-13.222,0.218-19.651,2.622c-3.098,1.157-3.995,6.497,0,7.197c6.968,1.221,13.818,2.777,20.933,2.452
		c5.098-0.233,10.025-1.886,14.982-3.35c-0.433,9.673-1.243,19.331-0.121,28.994c1.506,12.983,5.698,25.409,5.627,38.593
		c-0.016,2.946,2.769,4.078,4.941,3.42c0.229,0.147,0.465,0.284,0.705,0.414c3.55-0.131,7.085-0.383,10.64-0.592
		c3.6-0.212,7.926-0.056,11.067-2.052c0.623-0.396,1.223-0.163,1.564,0.289c1.104-1.109,1.867-2.759,2.183-5.212
		c0.302-2.351,0.411-4.632,0.548-6.898c-0.16-0.248-0.258-0.548-0.211-0.901c0.869-6.426-0.848-17.184,4.311-22.351v-2.505
		c0-1.477,2.061-1.599,2.443-0.393c0.779-0.14,1.57-0.198,2.354-0.114c4.893-1.875,10.72-1.443,15.771-0.71
		c0.258,0.037,0.438,0.145,0.583,0.274c0.321-0.2,0.623-0.419,0.894-0.669c2.824-0.384,3.682-3.552,2.559-5.624
		c0.443-2.606,0.389-5.396,0.455-7.416c0.152-4.766,1.012-9.449,1.768-14.148c0.295-1.446,0.531-2.908,0.705-4.371
		c0.041-0.335,0.125-1.243,0.197-2.306c0.029-0.277,0.066-0.553,0.092-0.83c0.527-0.143,1.043-0.326,1.561-0.499
		c-0.289-0.734,0.066-1.741,1.078-1.769c3.189-3.646,7.641-4.072,12.242-4.241c0.012-0.016,0.026-0.03,0.039-0.046
		c1.902-0.918,2.174-2.696,1.506-4.204c0.178-1.266,0.199-2.548,0.168-3.668c-0.016-0.543-0.029-1.064-0.045-1.599
		c0.858-1.341,0.676-3.012-0.096-4.247c-0.061-3.449-0.032-6.846,0.317-10.47C240.719,120.034,241.061,114.015,240.393,107.98z"/>
	<path fill="#FFE3C6" d="M188.423,122.925c-9.505-2.083-18.917-4.853-28.632-5.501V80.896c0-9.253-10.342-11.833-16.114-7.748
		c-0.849-0.501-1.698-0.992-2.552-1.486c-0.131-1.706-1.601-2.517-3.1-2.443c0.119-3.337,0.037-6.699-0.316-10.094
		c-0.309-2.972-4.227-4.181-5.699-1.784c-1.221-2.161-4.809-2.191-5.695,0.645c-0.186,0.589-0.354,1.181-0.523,1.772
		c-0.026-0.385-0.051-0.771-0.082-1.156c0.826-1.67,1.184-3.521,1.032-5.342c3.597-10.477-11.546-18.991-17.47-9.13
		c-8.705,6.004-12.785,19.109-14.369,28.784c-1.221,7.452-2.887,15.917-2.91,24.114c-3.146,0.403-6.644,0.096-9.541,0.844
		c-0.783-0.155-1.574-0.366-2.385-0.695c-3.238-1.316-4.867,3.08-2.812,5.22c-0.115,0.292-0.231,0.581-0.328,0.908
		c-0.752,2.578-0.546,5.73,0.136,8.889c-1.598,7.024-2.648,14.395,0.736,20.031c1.473,2.454,4.629,1.551,5.563-0.418
		c0.041-0.01,0.084-0.008,0.126-0.02c1.321-0.322,2.942-0.865,4.596-1.265c0.633,0.567,1.306,1.096,2.028,1.573
		c1.146,0.761,2.848,0.445,3.828-0.52c0.09,1.612,0.183,3.223,0.276,4.829c0.108,1.846,0.494,3.417,1.103,4.766
		c-0.254,2.242-0.459,4.486-0.602,6.738c-0.043,0.09-0.09,0.172-0.125,0.27c-1.665,4.435-0.951,8.354,0.174,12.849
		c0.109,0.437,0.183,0.879,0.27,1.319c-0.07,1.704-0.115,3.408-0.128,5.109c-0.467,0.496-0.766,1.179-0.739,2.075
		c0.08,2.626,0.605,5.224,1.047,7.808c0.411,2.41,1.192,5.74,0,8.039c-1.436,2.765,1.49,5.268,3.732,4.573
		c0.031-0.002,0.059,0,0.09-0.005c1.693-0.242,3.383-0.262,5.071-0.182c0.601,0.361,1.319,0.594,2.189,0.605
		c1.096,0.014,2.177-0.035,3.255-0.108c1.46,0.167,2.919,0.334,4.379,0.431c3.32,0.22,6.836-0.302,10.29-0.894
		c0.202,3.501,1.497,6.778,2.642,10.259c1.705,5.188,1.174,10.883,2.512,16.22c-0.268,2.746-0.345,5.487,0.031,8.179
		c-1.715,1.679-1.027,5.411,2.083,5.411c0.046,0,0.085-0.011,0.129-0.012c0.41,0.394,0.88,0.71,1.375,0.991
		c4.928,0.259,9.788,1.233,14.733,1.443c2.738,0.117,7.207,0.822,10.069-0.491c0.853-0.819,1.38-1.984,1.373-3.176
		c-0.003-0.504-0.014-1.008-0.02-1.511c0.328-0.434,0.566-0.96,0.642-1.599c0.588-4.96,0.33-9.948,0.311-14.929
		c-0.005-1.407-0.779-2.309-1.775-2.729c-0.508-0.896-1.332-1.502-2.268-1.815v-29.2c0.281-2.838,0.545-5.679,0.622-8.553
		c0.003-0.096-0.029-0.166-0.044-0.25c0.42-0.464,0.953-0.91,1.628-1.344c1.995-1.282,3.417-2.364,4.777-4.309
		c0.508-0.728,0.106-1.374-0.512-1.645c-0.202-0.238-0.476-0.421-0.815-0.473c-0.229-0.082-0.488-0.067-0.758,0.024
		c-0.75,0.104-1.502,0.184-2.252,0.27c-0.447-0.366-1.109-0.487-1.66,0.005c-0.047,0.042-0.095,0.077-0.141,0.119
		c-0.1,0.03-0.191,0.064-0.287,0.096c-1.139,0.108-2.281,0.181-3.422,0.256c-0.561-0.562-1.303-0.921-2.113-0.836
		c-1.665,0.174-3.332,0.245-5.001,0.279c-1.72-1.091-4.063-1.339-6.108-1.057c-2.986,0.41-5.49,1.555-8.58,1.506
		c-3.526-0.056-7.081-1.008-10.564-1.506c-0.516-0.074-0.994-0.044-1.453,0.03c0.022-2.15,0.104-4.303,0.18-6.452
		c3.231,1.657,8.154,1.493,11.375,1.312c8.953-0.505,19.613,0.167,28.11-2.821h0.177c0.665,0,1.283-0.224,1.793-0.591
		c1.711-0.008,3.42-0.024,5.13-0.026c0.722,0.098,1.507,0.095,2.379-0.05c1.581-0.26,0.909-2.658-0.661-2.399
		c-0.09,0.016-0.174,0.016-0.262,0.025c-0.109-0.03-0.211-0.069-0.341-0.069c-0.323,0-0.644,0.004-0.967,0.005
		c-1.862-0.421-3.089-2.257-3.951-4.663c0.263-4.939-1.768-10.208-1.917-15.13c2.928-0.238,5.861-0.386,8.785-0.797
		c4.799-0.675,9.529-1.786,14.329-2.43h2.382c0.331,0,0.578-0.123,0.771-0.292c0.357,0.082,0.715,0.169,1.074,0.247
		C189.327,125.668,189.991,123.269,188.423,122.925z M113.854,142.87c-0.684-0.48-1.523-0.726-2.308-0.66
		c0.292-1.1-0.134-2.104-0.894-2.788v-0.097c2.121-0.158,4.307-1.106,6.032-2.56c0.049,0.373,0.074,0.759,0.134,1.124
		c0.323,1.648,0.479,3.318,0.516,4.999C116.172,142.887,115.011,142.883,113.854,142.87z M139.872,143.833
		c-5.148,2.281-10.925,0.11-16.184-0.614c0.033-1.013-0.076-2.044-0.23-3c-0.579-3.6-0.894-7.119-0.878-10.582
		c1.417,0.215,2.882-0.421,3.2-2.198c0.548-3.057,1.21-6.099,1.936-9.133c0.555-0.229,1.072-0.65,1.482-1.319
		c3.246-5.281,4.436-11.209,5.551-17.192c0.777-0.795,1.563-1.569,2.344-2.302c1.019-0.958,1.959-1.856,2.795-2.79v45.283
		c0,1.359,0.235,2.563,0.637,3.63C140.309,143.665,140.092,143.735,139.872,143.833z"/>
	<path opacity="0.9" fill="#683F21" d="M227.937,21.044c-2.579-1.442-4.753-3.184-6.132-5.894c-1.623-0.336-3.24-0.582-4.848-0.72
		c-1.491-1.401-3.588-2.195-6.113-1.71c-2.445,0.469-4.892,0.826-7.279,1.235c-10.377-0.26-21.324,0.445-27.856,8.113
		c-0.267-0.861-0.601-1.697-0.958-2.515c-0.598,0.505-1.783,0.454-2.182-0.522c-1.684-4.14-5.066-6.554-8.219-9.339
		c-0.868-0.532-1.771-1.004-2.707-1.414c-0.482-0.211-0.651-0.583-0.639-0.964c-1.369-0.467-2.765-0.871-4.209-1.146
		c-1.125-2.264-3.465-3.853-6.128-3.853h-2.423c-0.646-0.478-1.379-0.86-2.186-1.103c-2.549-0.767-5.117-0.578-7.727-0.555
		c-1.938,0.017-3.705,0.854-4.96,2.177c-0.208,0.067-0.415,0.121-0.623,0.193c-1.294,0.45-2.554,1.013-3.779,1.651
		c0.044,0.533-0.202,1.072-0.878,1.239c-3.173,0.781-4.799,4.951-6.907,7.139c-0.054,0.056-0.114,0.075-0.17,0.118
		c-1.569,3.111-2.816,6.459-4.921,9.268c-0.326,0.438-0.797,0.576-1.234,0.524c-0.205,1.21-0.334,2.426-0.418,3.646
		c-0.617,0.997-0.971,2.156-1.055,3.342c-2.176,2.733-2.73,6.656-1.658,10c-1.567,2.422-1.838,5.716,0.617,8.46
		c3.8,4.253,5.045,9.403,10.795,11.75c0.498,0.203,1.014,0.374,1.535,0.534c2.5,3.616,5.994,6.602,9.885,8.856
		c3.578,2.071,7.632,3.595,11.845,4.479c1.98,1.86,4.687,3.127,8.284,3.494c10.152,1.038,20.176-4.149,27.045-11.281
		c12.441-12.92,15.473-43.897,39.27-37.22c0.314,0.089,0.621,0.149,0.922,0.196c1.176-0.166,2.348-0.318,3.521-0.426
		c1.832-0.818,3.123-2.514,3.688-4.439C228.745,23.245,228.375,22.128,227.937,21.044z"/>
	<path opacity="0.9" fill="#683F21" d="M188.723,88.407c-0.158-0.1-0.329-0.166-0.493-0.25c-0.341-0.905-0.767-1.606-1.27-2.168
		c0.032-0.455,0.151-0.874-0.03-1.318c-0.105-0.261-0.299-0.458-0.599-0.457c-0.612,0.001-1.251-0.009-1.825,0.229
		c-0.007,0.002-0.01,0.007-0.017,0.011c-1.011-0.307-2.196-0.434-3.584-0.469c-1.091-0.027-2.413-0.023-3.661,0.174
		c-0.292-0.452-0.784-0.775-1.488-0.775c-1.35,0-1.941,1.174-1.777,2.205c-0.635,0.651-1.009,1.553-0.928,2.817
		c0.381,5.937,11.146,3.544,14.73,3.478C189.655,91.85,190.305,89.387,188.723,88.407z"/>
	<path opacity="0.9" fill="#683F21" d="M214.635,89.067c-1.151-0.889-2.155-1.831-3.392-2.459c0.052-0.119,0.108-0.232,0.153-0.363
		c0.123-0.375-0.208-0.806-0.601-0.788c-0.251,0.011-0.466,0.046-0.671,0.093c0.198-1.734-1.778-2.68-3.225-2.939
		c-1.899-0.34-3.736,0.016-5.531,0.64c-0.425,0.147-0.893,0.327-1.356,0.533c-1.372-0.632-3.063-1.221-4.169-0.219
		c-0.598,0.54,0.285,1.417,0.879,0.88c0.117-0.106,0.272-0.163,0.445-0.198c-0.512,0.696-0.566,1.77,0.037,2.459
		c-0.184,1.367,0.705,2.709,2.164,2.977c1.613,0.296,3.336,0.034,4.945-0.157c1.297-0.153,2.691-0.281,3.983-0.619
		c0.29-0.012,0.579-0.007,0.862,0.018c0.372,0.361,0.865,0.497,1.378,0.232c1.213,0.293,2.398,0.757,3.616,1.046
		C214.887,90.376,215.172,89.481,214.635,89.067z"/>
	<path opacity="0.9" fill="#683F21" d="M146.249,86.826c-0.184-0.984-0.223-2.071-0.416-3.11c-0.184-1.001-1.378-1.555-2.295-1.302
		c-0.248,0.068-0.455,0.182-0.635,0.322c-0.646-0.15-1.361-0.107-2.098,0.243c-0.145,0.069-0.307,0.112-0.459,0.169
		c-3.091-0.041-6.178-0.171-9.265-0.332c-0.255-0.157-0.566-0.256-0.94-0.262c-4.432-0.073-12.482-1.777-17.698,0.203
		c-0.29-0.249-0.675-0.409-1.169-0.409c-1.373,0-1.958,1.212-1.766,2.255c-0.631,0.66-1.138,1.459-1.484,2.432
		c-0.569,1.598,1.041,2.545,2.327,2.19c0.581,0.434,1.36,0.428,2.072,0.124c0.769-0.327,1.568-0.524,2.379-0.671
		c0.26,0.371,0.668,0.637,1.221,0.696c0.492,0.585,1.253,0.947,2.3,0.852c4.971-0.457,10.059-0.771,15.05-0.594
		c3.366,0.119,6.646,0.271,9.778-0.957c0.477,0.426,1.191,0.613,1.793,0.448C145.987,88.836,146.432,87.826,146.249,86.826z"/>
	<polygon fill="none" stroke="#231F20" stroke-width="1.244" stroke-miterlimit="10" points="146.342,82.617 146.342,89.333 
		107.165,89.333 110.196,82.617 	"/>
	<g>
		<g>
			<g>
				<path fill="#969595" d="M44.729,178.1c2.211-1.74,52.52-37.183,54.09-38.304c0.914-0.653,2.666,0.577,4.227,2.013
					c1.861,1.21,3.449,2.562,2.574,3.245c-1.504,1.172-49.02,38.776-51.348,40.425c-2.25,1.594-6.315,0.275-8.102-1.095
					l-0.002,0.002c-0.024-0.017-0.045-0.037-0.067-0.053c-0.024-0.02-0.051-0.038-0.075-0.056l0.002-0.002
					C44.257,182.894,42.592,179.781,44.729,178.1z"/>
				<path fill="#B1B1B1" d="M47.094,177.605c1.479-1.163,28.182-20.007,41.326-29.282c0.903,1.681,2.523,3.093,4.468,3.89
					c-12.466,9.852-37.429,29.571-38.973,30.666c-1.05,0.742-3.903,0.012-5.35-1.096c-0.011-0.006-0.072-0.054-0.072-0.054
					l-0.049-0.038c-1.182-0.923-2.008-2.564-1.707-3.553C46.801,177.926,46.917,177.744,47.094,177.605z"/>
				<path fill="#3B3C3B" d="M99.454,139.299c-0.334,0.007-0.643,0.106-0.895,0.285l-6.856,4.841
					c-14.771,10.421-45.508,32.105-47.251,33.478l0,0c-2.313,1.821-0.727,5.065,1.246,6.607l0.107,0.081
					c0.001,0.003,0.043,0.032,0.045,0.034c2,1.531,6.24,2.792,8.678,1.066c1.832-1.297,30.83-24.213,44.766-35.226l6.602-5.213
					c0.238-0.187,0.374-0.419,0.389-0.673c0.041-0.724-0.918-1.714-2.898-2.996C101.694,140.027,100.406,139.28,99.454,139.299z
					 M46.483,184.14c0,0-0.023-0.019-0.057-0.045c0,0-0.045-0.035-0.074-0.061c-1.395-1.087-2.562-3.131-2.1-4.652
					c0.123-0.408,0.365-0.78,0.753-1.083c1.723-1.356,33.597-23.844,47.208-33.445l6.862-4.845c0.05-0.036,0.12-0.073,0.258-0.075
					c0.397-0.008,1.364,0.253,3.409,2.13c2.395,1.556,2.723,2.296,2.705,2.597c-0.005,0.104-0.057,0.157-0.104,0.194l-6.605,5.217
					c-12.841,10.148-42.914,33.913-44.723,35.193C52.096,186.627,48.276,185.511,46.483,184.14z"/>
			</g>
			<g>
				<path fill="#7E7E7E" d="M94.981,144.414c3.258-2.925,5.529-4.961,5.782-5.192c0.578-0.526,1.845,0.692,2.998,2.083
					c1.341,1.208,2.507,2.524,1.958,3.08c-0.244,0.247-2.43,2.492-5.554,5.7C97.84,148.889,96.051,146.841,94.981,144.414z"/>
				<path fill="#969595" d="M99.325,141.656c0.691,1.516,1.931,2.656,3.225,3.574c-1.234,1.266-2.582,2.634-2.727,2.782
					c-1.399-0.878-2.572-2.17-3.398-3.753C96.723,143.992,98.145,142.714,99.325,141.656z"/>
				<path fill="#3B3C3B" d="M101.944,138.982c-0.221-0.046-0.432-0.007-0.607,0.113l-4.439,2.992l-2.003,1.351
					c-0.101,0.067-0.146,0.192-0.112,0.309c0.768,2.7,2.352,5.001,4.461,6.484c0.1,0.072,0.235,0.068,0.332-0.007l6.286-4.877
					c0.17-0.13,0.272-0.317,0.296-0.542c0.07-0.643-0.508-1.684-1.742-3.148C103.385,139.991,102.576,139.116,101.944,138.982z
					 M99.411,149.641c-1.873-1.375-3.291-3.439-4.022-5.862c0.302-0.202,1.822-1.227,1.822-1.227l4.441-2.995
					c0.036-0.025,0.084-0.047,0.174-0.028c0.266,0.056,0.891,0.445,2.134,2.454c1.495,1.776,1.669,2.491,1.64,2.759
					c-0.002,0.022-0.007,0.042-0.012,0.059c-0.016,0.052-0.043,0.079-0.068,0.1l-5.053,3.92
					C100.467,148.822,99.672,149.439,99.411,149.641z"/>
			</g>
			<g>
				<path fill="#575757" d="M110.749,142.091c-1.738-0.033-3.84,1.463-4.602,3.234c-0.863,2.002-8.229-5.704-6.523-6.225
					c1.254-0.384,3.319-2.34,3.649-4.423C103.604,132.595,112.591,142.125,110.749,142.091z"/>
				<path fill="#717171" d="M101.823,138.766c0.872,1.186,2.133,2.061,3.595,2.294c-1.16-0.975-2.347-1.767-2.931-2.95
					c0.391-0.43,0.748-0.914,1.037-1.44c0.82,2.013,2.606,3.477,4.558,4.595c-1.21,0.581-2.312,1.582-2.944,2.769
					c-1.131-0.468-3.837-3.134-4.516-4.423C101.01,139.404,101.421,139.116,101.823,138.766z"/>
				<path fill="#3B3C3B" d="M103.706,134.105c-0.379-0.041-0.651,0.16-0.709,0.528c-0.316,1.985-2.288,3.841-3.455,4.198
					c-0.309,0.095-0.473,0.352-0.451,0.703c0.104,1.649,4.453,6.061,6.289,6.38c0.662,0.115,0.926-0.25,1.024-0.479
					c0.729-1.691,2.716-3.095,4.339-3.065l0,0c0.306,0.006,0.515-0.174,0.534-0.458C111.37,140.491,105.354,134.289,103.706,134.105
					z M110.707,141.815c-1.818-0.008-4.016,1.536-4.817,3.398c-0.032,0.072-0.091,0.206-0.413,0.149
					c-1.68-0.292-5.749-4.61-5.826-5.863c-0.003-0.032-0.003-0.055,0-0.073c0.007-0.045,0.029-0.051,0.055-0.06
					c1.331-0.407,3.49-2.42,3.845-4.646c0,0,0.012-0.041,0.015-0.053c0-0.002,0-0.004,0-0.004c0.002-0.001,0.279-0.097,1.338,0.687
					C107.403,137.203,110.627,141.053,110.707,141.815z"/>
			</g>
			<g>
				<circle fill="#969595" cx="128.497" cy="116.816" r="30.642"/>
				<circle fill="#B1B1B1" cx="128.507" cy="116.757" r="29.016"/>
				<path fill="#3B3C3B" d="M133.358,86.279c-16.838-2.681-32.719,8.838-35.398,25.676c-2.68,16.839,8.838,32.72,25.678,35.4
					c16.838,2.68,32.719-8.838,35.398-25.678C161.717,104.84,150.198,88.959,133.358,86.279z M123.724,146.801
					c-16.533-2.631-27.844-18.224-25.211-34.757c2.632-16.533,18.224-27.844,34.757-25.212
					c16.535,2.633,27.844,18.225,25.211,34.759C155.85,138.123,140.258,149.434,123.724,146.801z"/>
			</g>
			<circle fill="#E0E0E0" cx="128.498" cy="116.817" r="25.943"/>
			<circle opacity="0.6" fill="#F4F5F5" cx="128.497" cy="116.816" r="24.617"/>
			<path opacity="0.7" fill="#FFFFFF" d="M123.338,120.48c-1.093-8.34-3.369-17.114-7.479-24.783
				c4.786-2.867,10.567-4.136,16.508-3.19c2.019,0.322,3.935,0.883,5.735,1.644c-4.422,14.352-1.25,29.146,5.563,42.049
				c-5.197,4.066-12.005,6.047-19.037,4.927c-1.027-0.163-2.025-0.395-3-0.676C123.496,134.052,124.309,127.408,123.338,120.48z"/>
			<path fill="#3B3C3B" d="M132.62,90.921c-14.279-2.273-27.745,7.495-30.019,21.774c-2.272,14.279,7.495,27.746,21.774,30.019
				c14.279,2.273,27.745-7.495,30.019-21.774C156.666,106.659,146.899,93.194,132.62,90.921z M124.463,142.159
				c-13.975-2.224-23.533-15.402-21.31-29.376c2.226-13.974,15.403-23.533,29.378-21.309c13.974,2.225,23.532,15.403,21.309,29.377
				C151.616,134.825,138.438,144.384,124.463,142.159z"/>
			<g>
				<path fill="#FFFFFF" d="M142.487,99.852c-0.109,0.132,3.156,2.302,5.385,6.493c2.262,4.144,2.623,8.025,2.805,7.992
					c0.12,0.029-0.006-3.993-2.329-8.253C146.053,101.773,142.51,99.71,142.487,99.852z"/>
				<path fill="#FFFFFF" d="M117.74,138.018c-0.083,0.1,0.983,1.034,2.569,1.731c1.602,0.662,3.027,0.751,3.036,0.624
					c0.022-0.173-1.288-0.49-2.823-1.125C119,138.58,117.842,137.882,117.74,138.018z"/>
				<path fill="#FFFFFF" d="M109.296,105.187c0.1-0.118-3.917,6.663-2.796,15.843c1.253,9.297,7.881,14.175,7.828,13.881
					c0.21,0.035-6.084-4.906-7.292-13.956C105.93,112.014,109.656,105.203,109.296,105.187z"/>
			</g>
			<g>
				<path fill="#D7D7D7" d="M132.598,89.175c0.066,0.011,6.604,1.18,12.699,5.721c5.638,4.199,12.045,12.213,10.572,26.553
					c-0.015,0.141-0.14,0.243-0.281,0.229c-0.139-0.015-0.242-0.14-0.227-0.281c1.446-14.092-4.831-21.96-10.353-26.078
					c-5.998-4.476-12.433-5.628-12.496-5.64c-0.139-0.024-0.232-0.157-0.209-0.295C132.329,89.244,132.46,89.151,132.598,89.175z"/>
			</g>
			<g>
				<path fill="#D7D7D7" d="M110.441,95.891c0.097,0.103,0.093,0.265-0.01,0.362c-6.794,6.447-10.057,15.209-8.955,24.039
					c1.042,8.351,5.938,15.733,13.095,19.744c14.749,8.266,26.988,0.643,27.111,0.565c0.119-0.075,0.277-0.04,0.353,0.078
					c0.077,0.119,0.042,0.278-0.077,0.354c-0.125,0.081-12.611,7.871-27.637-0.549c-7.299-4.092-12.289-11.615-13.353-20.128
					c-1.124-8.993,2.198-17.912,9.11-24.473C110.18,95.784,110.344,95.789,110.441,95.891z"/>
			</g>
			<g>
				<path fill="#D7D7D7" d="M99.344,142.878c0.131,0.051,0.195,0.199,0.145,0.331c-0.027,0.072-0.705,1.765-2.273,1.724
					c-0.141-0.004-0.252-0.122-0.248-0.263c0.003-0.141,0.122-0.253,0.264-0.249c1.205,0.032,1.775-1.385,1.78-1.398
					C99.065,142.892,99.213,142.826,99.344,142.878z"/>
			</g>
			<g>
				<path fill="#D7D7D7" d="M87.108,150.474c0.133,0.105,0.372,0.093,0.537-0.027l-25.809,18.872
					c-1.852,1.352-3.54,2.516-5.029,3.542c-5.703,3.929-8.307,5.722-6.148,8.428c0.101,0.125,0.031,0.307-0.154,0.406
					c-0.186,0.099-0.417,0.077-0.517-0.049c-2.47-3.097,0.479-5.13,6.36-9.182c1.485-1.023,3.168-2.182,5.011-3.528l25.808-18.87
					C87,150.186,86.975,150.369,87.108,150.474z"/>
			</g>
			<g>
				<path fill="#FFFFFF" d="M126.375,136.317c0.021-0.138,0.92-0.159,1.187-0.354c0.267-0.193,0.585-0.842,0.682-0.826
					c0.097,0.016,0.021,0.496,0.408,1.035c0.384,0.541,0.913,0.571,0.901,0.65c-0.012,0.081-0.615,0.117-1.005,0.439
					c-0.39,0.32-0.728,0.961-0.794,0.95c-0.067-0.011-0.125-0.735-0.428-1.154C127.022,136.638,126.36,136.404,126.375,136.317z"/>
				<path fill="#C9C9CA" d="M128.249,135.106c-0.064-0.01-0.134,0.09-0.288,0.317c-0.125,0.186-0.28,0.417-0.417,0.515
					c-0.131,0.094-0.428,0.147-0.689,0.194c-0.326,0.06-0.496,0.094-0.511,0.18l0,0c-0.009,0.055,0.071,0.101,0.243,0.202
					c0.211,0.124,0.531,0.31,0.715,0.562c0.189,0.264,0.281,0.647,0.342,0.902c0.047,0.2,0.063,0.258,0.105,0.265
					c0.045,0.007,0.088-0.051,0.23-0.253c0.143-0.205,0.36-0.515,0.59-0.705c0.238-0.197,0.562-0.286,0.773-0.344
					c0.162-0.044,0.235-0.063,0.242-0.114c0.009-0.05-0.049-0.073-0.15-0.113c-0.175-0.07-0.5-0.199-0.758-0.56
					c-0.24-0.338-0.299-0.651-0.333-0.839C128.319,135.186,128.307,135.116,128.249,135.106z M129.522,136.812
					c-0.016,0.017-0.109,0.044-0.195,0.067c-0.219,0.061-0.549,0.151-0.799,0.356c-0.236,0.194-0.457,0.509-0.603,0.718
					c-0.074,0.105-0.151,0.215-0.157,0.23c-0.016-0.017-0.039-0.121-0.064-0.222c-0.061-0.259-0.152-0.65-0.352-0.924
					c-0.191-0.263-0.518-0.452-0.734-0.58c-0.092-0.054-0.193-0.113-0.207-0.139c0.016-0.043,0.277-0.092,0.455-0.124
					c0.269-0.048,0.574-0.103,0.715-0.205c0.146-0.107,0.306-0.343,0.434-0.532c0.085-0.125,0.19-0.282,0.223-0.289
					c0.017,0.008,0.031,0.087,0.043,0.158c0.037,0.192,0.095,0.517,0.346,0.865c0.267,0.375,0.605,0.509,0.784,0.581
					C129.41,136.772,129.516,136.822,129.522,136.812z"/>
			</g>
			<g>
				<path fill="#FFFFFF" d="M112.301,119.482c0.022-0.138,0.92-0.16,1.187-0.354c0.267-0.193,0.585-0.842,0.683-0.826
					c0.098,0.016,0.021,0.495,0.407,1.035c0.385,0.54,0.915,0.57,0.902,0.65c-0.013,0.079-0.614,0.117-1.005,0.438
					c-0.39,0.321-0.728,0.962-0.795,0.951c-0.066-0.011-0.125-0.735-0.428-1.154C112.948,119.803,112.288,119.57,112.301,119.482z"
					/>
				<path fill="#C9C9CA" d="M114.175,118.271c-0.063-0.011-0.134,0.09-0.288,0.317c-0.125,0.185-0.28,0.416-0.418,0.515
					c-0.13,0.094-0.426,0.147-0.688,0.194c-0.325,0.058-0.497,0.094-0.511,0.179l0,0c-0.01,0.056,0.07,0.102,0.243,0.203
					c0.212,0.124,0.53,0.31,0.714,0.562c0.19,0.264,0.281,0.647,0.342,0.901c0.048,0.2,0.063,0.259,0.105,0.266
					c0.047,0.007,0.088-0.051,0.231-0.254c0.144-0.204,0.359-0.515,0.591-0.704c0.238-0.198,0.56-0.285,0.771-0.344
					c0.162-0.044,0.236-0.064,0.244-0.114c0.007-0.051-0.049-0.073-0.151-0.114c-0.175-0.069-0.501-0.199-0.758-0.559
					c-0.241-0.338-0.299-0.652-0.333-0.839C114.246,118.351,114.233,118.28,114.175,118.271z M115.449,119.978
					c-0.015,0.017-0.11,0.044-0.197,0.067c-0.218,0.06-0.546,0.151-0.797,0.356c-0.235,0.194-0.456,0.509-0.603,0.717
					c-0.074,0.107-0.15,0.216-0.158,0.231c-0.014-0.016-0.039-0.12-0.063-0.221c-0.061-0.259-0.154-0.65-0.353-0.924
					c-0.19-0.263-0.518-0.453-0.733-0.58c-0.093-0.054-0.195-0.113-0.209-0.139c0.017-0.045,0.279-0.092,0.457-0.124
					c0.267-0.048,0.572-0.103,0.714-0.206c0.146-0.106,0.306-0.342,0.433-0.531c0.086-0.125,0.191-0.283,0.223-0.29
					c0.018,0.01,0.032,0.088,0.045,0.158c0.035,0.193,0.094,0.516,0.344,0.865c0.268,0.375,0.605,0.511,0.785,0.582
					C115.336,119.938,115.442,119.988,115.449,119.978z"/>
			</g>
			<g>
				<path fill="#FFFFFF" d="M141.877,110.545c0.021-0.137,0.92-0.159,1.186-0.353c0.268-0.193,0.585-0.842,0.682-0.826
					c0.098,0.016,0.022,0.495,0.408,1.035c0.386,0.541,0.914,0.57,0.902,0.65c-0.012,0.079-0.615,0.117-1.005,0.438
					c-0.39,0.321-0.727,0.962-0.794,0.951c-0.067-0.011-0.125-0.735-0.428-1.154C142.523,110.866,141.862,110.633,141.877,110.545z"
					/>
				<path fill="#C9C9CA" d="M143.75,109.335c-0.063-0.011-0.134,0.09-0.287,0.317c-0.127,0.185-0.281,0.416-0.418,0.515
					c-0.131,0.093-0.428,0.147-0.689,0.194c-0.326,0.058-0.496,0.093-0.511,0.179l0,0c-0.009,0.056,0.07,0.102,0.243,0.203
					c0.211,0.123,0.531,0.31,0.715,0.562c0.189,0.264,0.281,0.647,0.342,0.901c0.047,0.2,0.064,0.259,0.105,0.266
					c0.045,0.007,0.088-0.051,0.23-0.254c0.143-0.204,0.36-0.515,0.59-0.704c0.238-0.198,0.561-0.285,0.773-0.344
					c0.162-0.044,0.234-0.064,0.242-0.114c0.009-0.051-0.049-0.073-0.15-0.114c-0.176-0.069-0.501-0.199-0.757-0.559
					c-0.242-0.338-0.3-0.652-0.335-0.84C143.821,109.415,143.809,109.343,143.75,109.335z M145.024,111.041
					c-0.016,0.017-0.109,0.044-0.196,0.067c-0.218,0.059-0.548,0.151-0.798,0.356c-0.236,0.194-0.457,0.509-0.604,0.717
					c-0.072,0.107-0.15,0.216-0.156,0.231c-0.016-0.017-0.04-0.121-0.064-0.221c-0.061-0.259-0.152-0.651-0.352-0.924
					c-0.189-0.263-0.518-0.454-0.734-0.58c-0.092-0.054-0.194-0.113-0.207-0.139c0.016-0.045,0.277-0.092,0.455-0.124
					c0.269-0.048,0.573-0.103,0.715-0.207c0.145-0.105,0.306-0.341,0.434-0.531c0.084-0.127,0.19-0.283,0.223-0.29
					c0.016,0.009,0.031,0.088,0.043,0.158c0.037,0.193,0.095,0.516,0.346,0.865c0.267,0.376,0.605,0.51,0.784,0.582
					C144.912,111.001,145.018,111.051,145.024,111.041z"/>
			</g>
		</g>
	</g>
	<path fill="#FFE3C6" d="M102.838,135.295c-1.684-2.874-4.853-3.208-7.658-2.008c-0.717,0.306-1.4,0.662-2.066,1.046
		c-0.559-1.342-1.617-2.43-2.988-2.997c-1.773-0.928-3.992-1.039-5.955,0.366c-1.663,0.497-3.295,1.093-4.922,1.697
		c-0.494-0.898-1.191-1.679-2.055-2.186c-1.793-1.05-3.744-0.941-5.369-0.063c-1.161,0.418-2.292,0.907-3.434,1.377
		c-0.588,0.243-1.186,0.46-1.793,0.658c-0.238,0.075-0.481,0.137-0.727,0.194c-0.07,0.006-0.136,0.023-0.205,0.03
		c-1.262-0.695-2.819-0.902-4.397-0.688c-5.116,0.7-10.354,3.176-13.917,6.947c-1.989,2.105-3.114,5-3.502,7.821
		c-0.021,0.154-0.027,0.314-0.043,0.469c-0.82,0.865-1.355,1.991-1.508,3.224c-0.992,1.776-2.093,3.672-3.104,5.617
		c0.051,0.135,0.095,0.278,0.098,0.448c0.049,2.894-0.671,5.588-1.133,8.421c-0.369,2.261-0.512,4.539-1.013,6.768
		c0.619,1.051,1.476,2.052,2.632,2.987c-0.514,0.722-0.598,1.511-0.408,2.235c-0.271,0.167-0.523,0.383-0.74,0.673
		c-1.898,2.518-3.984,4.852-6.18,7.078c-1.014,0.343-1.922,1.035-2.482,1.932c-0.243,0.391-0.479,0.789-0.722,1.181
		c-7.635,7.095-16.223,13.252-23.403,20.821c-0.144,0.153-0.263,0.312-0.359,0.474c-1.312,1.437-0.756,4.327,1.706,4.189
		c4.06-0.229,8.096-0.06,12.109,0.349c0.824,0.857,1.994,1.42,3.231,1.517c2.962,0.232,5.854,0.453,8.632,0.258
		c3.27,0.61,6.529,1.28,9.783,1.934c1.361,0.274,2.638-0.374,3.06-1.737c0.068-0.227,0.156-0.447,0.229-0.673
		c6.528-7.29,11.358-15.738,14.627-24.921c0.337-0.416,0.493-0.927,0.502-1.451c0.13-0.386,0.275-0.765,0.399-1.154
		c0.134-0.422,0.15-0.806,0.092-1.153c0.443-0.384,0.894-0.75,1.359-1.072c2.893-2.004,5.773-3.311,8.059-6.026
		c5.795,0.239,11.277-2.413,16.785-3.881c1.106-0.295,1.455-1.266,1.271-2.136c0.199-0.207,0.358-0.476,0.446-0.826
		c0.822-3.293,1.62-6.585,2.072-9.952c0.063-0.469-0.001-0.866-0.144-1.195c0.414-0.388,0.865-0.728,1.361-1.007
		c0.795-0.449,1.016-1.194,0.869-1.879c0.299-0.024,0.604-0.065,0.92-0.138c3.65-0.84,6.893-3.807,6.8-7.808
		c-0.052-2.318-0.892-4.448-1.771-6.454c0.927-0.638,1.901-1.199,2.944-1.645C103.639,141.756,104.234,137.678,102.838,135.295z
		 M84.897,162.07c-2.318,1.976-4.771,3.764-7.275,5.485c-1.041,0.802-2.099,1.578-3.16,2.348c0.05,0.333-0.051,0.688-0.395,0.988
		c-1.477,1.297-2.729,3.03-4.537,3.904c-1.226,0.594-2.482,1.044-3.685,1.592c-0.021,0.158-0.065,0.316-0.134,0.469
		c-0.633,1.451-1.932,2.289-3.389,2.626c0.06,0.398,0.216,0.776,0.457,1.072c-1.551,1.033-3.193,1.952-4.764,3.04
		c-0.639,0.441-1.221,0.977-1.777,1.548c-0.738-0.196-1.565-0.076-2.291,0.566c-2.574,2.28-6.406,0.122-9.655-1.496
		c-0.456-0.735-0.794-1.608-0.97-2.661c-0.399-0.257-0.643-0.717-0.443-1.313c0.211-0.627,0.529-1.157,0.926-1.618
		c0.605-1.836,2.782-2.829,4.441-3.562c0.168-0.158,0.365-0.246,0.574-0.266c0.697-0.808,1.4-1.625,2.119-2.437
		c3.942-1.548,7.671-2.83,10.355-6.539c0.048-0.066,0.074-0.131,0.115-0.197c1.195-0.548,2.021-1.513,2.508-2.639
		c1.615,0.738,3.58,0.621,5.187-0.199c0.758-0.019,1.488-0.201,2.156-0.506c1.395,0.932,3.162,1.336,4.595,0.734
		c3.65-1.537,7.642-2.784,10.875-5.125c0.275-0.199,0.511-0.428,0.761-0.646c0.294,0.327,0.627,0.619,0.991,0.869
		C87.007,159.109,85.829,160.492,84.897,162.07z"/>
	<path fill="none" stroke="#231F20" stroke-width="1.244" stroke-miterlimit="10" d="M77.209,142.939"/>
	<polyline fill="none" stroke="#231F20" stroke-width="1.244" stroke-miterlimit="10" points="93.489,96.969 77.209,96.969 
		77.209,131.213 	"/>
	<g>
		<polyline fill="none" stroke="#231F20" stroke-width="1.244" stroke-miterlimit="10" points="91.574,135.886 96.18,131.019 
			106.658,136.548 96.676,148.276 		"/>
		
			<line fill="none" stroke="#231F20" stroke-width="1.244" stroke-miterlimit="10" x1="58.967" y1="150.097" x2="55.03" y2="151.482"/>
		<polyline fill="none" stroke="#231F20" stroke-width="1.244" stroke-miterlimit="10" points="78.012,132.381 77.022,129.565 
			62.909,132.562 63.11,137.624 61.127,131.991 49.037,136.244 41.079,153.144 47.448,166.755 58.659,166.287 57.779,153.009 
			61.189,165.397 75.081,161.774 72.743,145.25 76.118,144.064 77.446,145.143 		"/>
		<polyline fill="none" stroke="#231F20" stroke-width="1.244" stroke-miterlimit="10" points="88.891,141.748 85.997,143.398 
			90.383,160.359 100.233,154.225 91.596,129.675 78.012,132.381 		"/>
		<polyline fill="none" stroke="#231F20" stroke-width="1.244" stroke-miterlimit="10" points="85.997,143.398 87.297,158.776 
			76.613,162.535 72.743,145.25 		"/>
		<polyline fill="none" stroke="#231F20" stroke-width="1.244" stroke-miterlimit="10" points="40.091,177.631 1.418,213.763 
			43.774,218.289 65.406,180.977 87.505,175.534 90.383,160.359 		"/>
		<path fill="none" stroke="#231F20" stroke-width="1.244" stroke-miterlimit="10" d="M41.079,153.144
			c-1.324,4.982-7.451,24.363-0.007,26.345"/>
	</g>
	<path fill="none" stroke="#231F20" stroke-width="1.244" stroke-miterlimit="10" d="M94.038,134.7"/>
	<path fill="none" stroke="#231F20" stroke-width="1.244" stroke-miterlimit="10" d="M94.038,134.7v-27.049
		c0,0-11.211-64.313,42.35-79.836c0.924-0.268,1.869-0.522,2.832-0.76c56.785-14.043,61.668,3.053,61.668,3.053
		s31.752,6.716,25.646,87.313c-6.105,80.597-7.327,74.491-7.327,74.491l-34.804,0.105v15.158h-48.845v-15.875l-41.52-1.221v-31.995"
		/>
	<path fill="none" stroke="#231F20" stroke-width="1.244" stroke-miterlimit="10" d="M196.004,191.981
		c0,0-8.549,24.963-3.664,37.175c0,0-19.125,7.327-32.152,2.442v-24.424"/>
	<path fill="none" stroke="#231F20" stroke-width="1.244" stroke-miterlimit="10" d="M123.345,191.675
		c0,0,8.793,25.078,3.769,36.747c0,0,19.671,7.003,33.074,2.335v-23.34"/>
	<path fill="none" stroke="#231F20" stroke-width="1.244" stroke-miterlimit="10" d="M191.354,212.018
		c0,0,44.141,31.181-31.166,32.402c-75.309,1.222-32.016-32.402-32.016-32.402"/>
	<path fill="none" stroke="#231F20" stroke-width="1.244" stroke-miterlimit="10" d="M159.998,74.679v42.131l32.954,7.937
		l-32.764,4.274l3.455,17.097l7.328,4.884c0,0-39.078,4.885-50.68,3.054v6.105h45.184l-8.854,8.549v38.465"/>
	<path fill="none" stroke="#231F20" stroke-width="1.244" stroke-miterlimit="10" d="M110.268,43.269c0,0,36.4,56.022,67.828,24.083
		c31.427-31.94,3.863-38.466,52.1-39.687c0,0-4.885-28.171-55.563-6.148c0,0-27.476-34.761-47.014-14.611
		C108.081,27.054,110.268,43.269,110.268,43.269z"/>
	<path fill="none" stroke="#231F20" stroke-width="1.244" stroke-miterlimit="10" d="M192.952,21.516c0,0,0.229-0.369,0.627-1.009
		c-0.191,0.056-0.396,0.096-0.627,0.096h-0.913c-0.518,0.791-1.05,1.606-1.601,2.452c-33.654,51.564-80.17,20.214-80.17,20.214
		s34.648,54.46,89.195-15.375l30.732-0.229C210.658,18.506,192.952,21.516,192.952,21.516z"/>
	<path fill="none" stroke="#231F20" stroke-width="1.244" stroke-miterlimit="10" d="M174.633,21.516
		c24.596,17.175-64.365,21.752-64.365,21.752S128.372-10.787,174.633,21.516z"/>
	<polyline fill="none" stroke="#231F20" stroke-width="1.244" stroke-miterlimit="10" points="227.268,102.157 239.965,102.157 
		239.965,150.391 223.604,154.065 	"/>
	<g>
		<g>
			<path fill="#231F20" d="M194.172,47.215c0.802,0,0.802-1.244,0-1.244S193.37,47.215,194.172,47.215L194.172,47.215z"/>
		</g>
	</g>
	<g>
		<g>
			<path fill="#231F20" d="M199.055,49.047c0.802,0,0.802-1.244,0-1.244C198.253,47.803,198.253,49.047,199.055,49.047
				L199.055,49.047z"/>
		</g>
	</g>
	<g>
		<g>
			<path fill="#231F20" d="M203.331,51.489c0.802,0,0.802-1.244,0-1.244S202.528,51.489,203.331,51.489L203.331,51.489z"/>
		</g>
	</g>
	<g>
		<g>
			<path fill="#231F20" d="M207.605,54.541c0.802,0,0.802-1.244,0-1.244S206.803,54.541,207.605,54.541L207.605,54.541z"/>
		</g>
	</g>
	<g>
		<g>
			<path fill="#231F20" d="M211.268,57.594c0.802,0,0.802-1.244,0-1.244S210.466,57.594,211.268,57.594L211.268,57.594z"/>
		</g>
	</g>
	<g>
		<g>
			<path fill="#231F20" d="M211.879,61.257c0.802,0,0.802-1.244,0-1.244S211.077,61.257,211.879,61.257L211.879,61.257z"/>
		</g>
	</g>
	<g>
		<g>
			<path fill="#231F20" d="M211.879,63.066c-0.326,0.001-0.707-0.007-0.956,0.242c-0.271,0.271-0.277,0.63-0.278,0.991
				c-0.002,0.802,1.242,0.802,1.244,0c0,0.014-0.003-0.254-0.004-0.243c-0.043,0.312-0.479,0.255-0.006,0.254
				C212.681,64.309,212.682,63.064,211.879,63.066L211.879,63.066z"/>
		</g>
	</g>
	<g>
		<g>
			<path fill="#231F20" d="M211.342,63.374c-0.611,1.221-1.222,2.443-1.832,3.664c-0.357,0.715,0.715,1.346,1.074,0.628
				c0.61-1.221,1.221-2.443,1.832-3.664C212.774,63.287,211.701,62.657,211.342,63.374L211.342,63.374z"/>
		</g>
	</g>
	<g>
		<g>
			<path fill="#231F20" d="M208.215,70.416c0.802,0,0.802-1.244,0-1.244S207.413,70.416,208.215,70.416L208.215,70.416z"/>
		</g>
	</g>
	<g>
		<g>
			<path fill="#231F20" d="M213.1,71.638c0.204,0,0.408,0,0.611,0c0.802,0,0.802-1.244,0-1.244c-0.204,0-0.408,0-0.611,0
				C212.298,70.394,212.298,71.638,213.1,71.638L213.1,71.638z"/>
		</g>
	</g>
	<g>
		<g>
			<path fill="#231F20" d="M217.374,72.859c0.802,0,0.802-1.244,0-1.244S216.571,72.859,217.374,72.859L217.374,72.859z"/>
		</g>
	</g>
	<g>
		<g>
			<path fill="#231F20" d="M216.934,72.677c0.706,0.737,1.125,1.701,1.832,2.442c0.555,0.581,1.433-0.299,0.88-0.88
				c-0.705-0.739-1.124-1.702-1.832-2.442C217.257,71.217,216.379,72.098,216.934,72.677L216.934,72.677z"/>
		</g>
	</g>
	<g>
		<g>
			<path fill="#231F20" d="M220.428,80.186c0.802,0,0.802-1.244,0-1.244S219.626,80.186,220.428,80.186L220.428,80.186z"/>
		</g>
	</g>
	<g>
		<g>
			<path fill="#231F20" d="M219.815,83.239c0.802,0,0.802-1.244,0-1.244C219.013,81.995,219.013,83.239,219.815,83.239
				L219.815,83.239z"/>
		</g>
	</g>
	<g>
		<g>
			<path fill="#231F20" d="M221.038,87.513c0.802,0,0.802-1.244,0-1.244C220.235,86.269,220.235,87.513,221.038,87.513
				L221.038,87.513z"/>
		</g>
	</g>
	<g>
		<g>
			<path fill="#231F20" d="M222.258,91.787c0.802,0,0.802-1.244,0-1.244C221.456,90.543,221.456,91.787,222.258,91.787
				L222.258,91.787z"/>
		</g>
	</g>
	<g>
		<g>
			<path fill="#231F20" d="M221.636,96.05c0,0.203,0,0.407,0,0.61c0,0.802,1.244,0.802,1.244,0c0-0.203,0-0.407,0-0.61
				C222.88,95.248,221.636,95.248,221.636,96.05L221.636,96.05z"/>
		</g>
	</g>
	<g>
		<g>
			<path fill="#231F20" d="M222.857,101.545c0,0.204,0,0.408,0,0.611c0,0.802,1.244,0.802,1.244,0c0-0.204,0-0.408,0-0.611
				C224.101,100.742,222.857,100.742,222.857,101.545L222.857,101.545z"/>
		</g>
	</g>
	<g>
		<g>
			<path fill="#231F20" d="M224.08,107.651c0,0.203,0,0.407,0,0.61c0,0.802,1.244,0.802,1.244,0c0-0.203,0-0.407,0-0.61
				C225.324,106.848,224.08,106.848,224.08,107.651L224.08,107.651z"/>
		</g>
	</g>
	<g>
		<g>
			<path fill="#231F20" d="M224.689,111.314c0,0.204,0,0.407,0,0.611c0,0.802,1.244,0.802,1.244,0c0-0.204,0-0.407,0-0.611
				C225.933,110.511,224.689,110.511,224.689,111.314L224.689,111.314z"/>
		</g>
	</g>
	<g>
		<g>
			<path fill="#231F20" d="M225.311,111.936c0.802,0,0.802-1.244,0-1.244S224.509,111.936,225.311,111.936L225.311,111.936z"/>
		</g>
	</g>
	<g>
		<g>
			<path fill="#231F20" d="M199.668,44.161c0.802,0,0.802-1.244,0-1.244C198.866,42.917,198.866,44.161,199.668,44.161
				L199.668,44.161z"/>
		</g>
	</g>
	<g>
		<g>
			<path fill="#231F20" d="M205.773,49.656c0.802,0,0.802-1.244,0-1.244S204.971,49.656,205.773,49.656L205.773,49.656z"/>
		</g>
	</g>
	<g>
		<g>
			<path fill="#231F20" d="M208.215,45.383c0.802,0,0.802-1.244,0-1.244S207.413,45.383,208.215,45.383L208.215,45.383z"/>
		</g>
	</g>
	<g>
		<g>
			<path fill="#231F20" d="M204.551,41.109c0.802,0,0.802-1.244,0-1.244C203.749,39.865,203.749,41.109,204.551,41.109
				L204.551,41.109z"/>
		</g>
	</g>
	<g>
		<g>
			<path fill="#231F20" d="M204.551,44.773c0.802,0,0.802-1.244,0-1.244C203.749,43.529,203.749,44.773,204.551,44.773
				L204.551,44.773z"/>
		</g>
	</g>
	<g>
		<g>
			<path fill="#231F20" d="M199.668,41.109c0.802,0,0.802-1.244,0-1.244C198.866,39.865,198.866,41.109,199.668,41.109
				L199.668,41.109z"/>
		</g>
	</g>
	<g>
		<g>
			<path fill="#231F20" d="M201.499,35.614c0.802,0,0.802-1.244,0-1.244S200.696,35.614,201.499,35.614L201.499,35.614z"/>
		</g>
	</g>
	<g>
		<g>
			<path fill="#231F20" d="M205.784,34.381c0-0.057,0-0.113,0-0.17c0-0.802-1.244-0.802-1.244,0c0,0.26,0,0.521,0,0.781
				c0,0.802,1.244,0.802,1.244,0c0-0.26,0-0.521,0-0.781c0-0.802-1.244-0.802-1.244,0c0,0.057,0,0.113,0,0.17
				C204.54,35.183,205.784,35.183,205.784,34.381L205.784,34.381z"/>
		</g>
	</g>
	<g>
		<g>
			<path fill="#231F20" d="M208.826,39.888c0.802,0,0.802-1.244,0-1.244C208.023,38.644,208.023,39.888,208.826,39.888
				L208.826,39.888z"/>
		</g>
	</g>
	<g>
		<g>
			<path fill="#231F20" d="M212.49,53.93c0.802,0,0.802-1.244,0-1.244S211.688,53.93,212.49,53.93L212.49,53.93z"/>
		</g>
	</g>
	<g>
		<g>
			<path fill="#231F20" d="M215.713,61.686c0.204,0.204,0.408,0.407,0.611,0.611c0.568,0.568,1.448-0.312,0.88-0.88
				c-0.204-0.204-0.408-0.407-0.611-0.611C216.025,60.239,215.145,61.119,215.713,61.686L215.713,61.686z"/>
		</g>
	</g>
	<g>
		<g>
			<path fill="#231F20" d="M214.322,69.195c0.802,0,0.802-1.244,0-1.244S213.52,69.195,214.322,69.195L214.322,69.195z"/>
		</g>
	</g>
	<g>
		<g>
			<path fill="#231F20" d="M224.09,92.397c0.802,0,0.802-1.244,0-1.244S223.288,92.397,224.09,92.397L224.09,92.397z"/>
		</g>
	</g>
	<g>
		<g>
			<path fill="#231F20" d="M225.311,98.503c0.802,0,0.802-1.244,0-1.244S224.509,98.503,225.311,98.503L225.311,98.503z"/>
		</g>
	</g>
	<g>
		<g>
			<path fill="#231F20" d="M222.258,84.46c0.204,0,0.408,0,0.611,0c0.802,0,0.802-1.244,0-1.244c-0.204,0-0.408,0-0.611,0
				C221.456,83.216,221.456,84.46,222.258,84.46L222.258,84.46z"/>
		</g>
	</g>
	<g>
		<g>
			<path fill="#231F20" d="M221.647,74.08c0.802,0,0.802-1.244,0-1.244C220.845,72.836,220.845,74.08,221.647,74.08L221.647,74.08z"
				/>
		</g>
	</g>
	<g>
		<g>
			<path fill="#231F20" d="M223.479,77.133c0.802,0,0.802-1.244,0-1.244C222.677,75.889,222.677,77.133,223.479,77.133
				L223.479,77.133z"/>
		</g>
	</g>
	<g>
		<g>
			<path fill="#231F20" d="M220.428,68.585c0.802,0,0.802-1.244,0-1.244S219.626,68.585,220.428,68.585L220.428,68.585z"/>
		</g>
	</g>
	<g>
		<g>
			<path fill="#231F20" d="M216.764,67.363c0.802,0,0.802-1.244,0-1.244C215.962,66.119,215.962,67.363,216.764,67.363
				L216.764,67.363z"/>
		</g>
	</g>
	<g>
		<g>
			<path fill="#231F20" d="M217.985,71.027c0.802,0,0.802-1.244,0-1.244S217.183,71.027,217.985,71.027L217.985,71.027z"/>
		</g>
	</g>
	<g>
		<g>
			<path fill="#231F20" d="M214.932,64.31c0.802,0,0.802-1.244,0-1.244C214.13,63.066,214.13,64.31,214.932,64.31L214.932,64.31z"/>
		</g>
	</g>
	<g>
		<g>
			<path fill="#231F20" d="M218.596,58.816c0.802,0,0.802-1.244,0-1.244S217.794,58.816,218.596,58.816L218.596,58.816z"/>
		</g>
	</g>
	<g>
		<g>
			<path fill="#231F20" d="M216.764,54.541c0.802,0,0.802-1.244,0-1.244C215.962,53.297,215.962,54.541,216.764,54.541
				L216.764,54.541z"/>
		</g>
	</g>
	<g>
		<g>
			<path fill="#231F20" d="M214.944,47.202c0-0.203,0-0.407,0-0.61c0-0.802-1.244-0.802-1.244,0c0,0.203,0,0.407,0,0.61
				C213.7,48.005,214.944,48.005,214.944,47.202L214.944,47.202z"/>
		</g>
	</g>
	<g>
		<g>
			<path fill="#231F20" d="M211.268,42.941c0.802,0,0.802-1.244,0-1.244S210.466,42.941,211.268,42.941L211.268,42.941z"/>
		</g>
	</g>
	<g>
		<g>
			<path fill="#231F20" d="M208.215,38.056c0.802,0,0.802-1.244,0-1.244S207.413,38.056,208.215,38.056L208.215,38.056z"/>
		</g>
	</g>
	<g>
		<g>
			<path fill="#231F20" d="M207.605,50.879c0.802,0,0.802-1.244,0-1.244S206.803,50.879,207.605,50.879L207.605,50.879z"/>
		</g>
	</g>
	<g>
		<g>
			<path fill="#231F20" d="M212.49,61.257c0.802,0,0.802-1.244,0-1.244S211.688,61.257,212.49,61.257L212.49,61.257z"/>
		</g>
	</g>
	<g>
		<g>
			<path fill="#231F20" d="M217.374,61.868c0.802,0,0.802-1.244,0-1.244S216.571,61.868,217.374,61.868L217.374,61.868z"/>
		</g>
	</g>
	<g>
		<g>
			<path fill="#231F20" d="M221.647,66.753c0.802,0,0.802-1.244,0-1.244C220.845,65.509,220.845,66.753,221.647,66.753
				L221.647,66.753z"/>
		</g>
	</g>
	<g>
		<g>
			<path fill="#231F20" d="M219.206,56.984c0.802,0,0.802-1.244,0-1.244S218.403,56.984,219.206,56.984L219.206,56.984z"/>
		</g>
	</g>
	<g>
		<g>
			<path fill="#231F20" d="M215.541,48.436c0.802,0,0.802-1.244,0-1.244C214.739,47.192,214.739,48.436,215.541,48.436
				L215.541,48.436z"/>
		</g>
	</g>
	<g>
		<g>
			<path fill="#231F20" d="M211.268,52.1c0.802,0,0.802-1.244,0-1.244S210.466,52.1,211.268,52.1L211.268,52.1z"/>
		</g>
	</g>
	<g>
		<g>
			<path fill="#231F20" d="M206.383,45.383c0.802,0,0.802-1.244,0-1.244C205.581,44.139,205.581,45.383,206.383,45.383
				L206.383,45.383z"/>
		</g>
	</g>
	<g>
		<g>
			<path fill="#231F20" d="M199.055,38.644c-0.203,0-0.406,0-0.609,0c-0.802,0-0.802,1.244,0,1.244c0.203,0,0.406,0,0.609,0
				C199.857,39.888,199.857,38.644,199.055,38.644L199.055,38.644z"/>
		</g>
	</g>
	<g>
		<g>
			<path fill="#231F20" d="M195.393,45.993c0.802,0,0.802-1.244,0-1.244S194.591,45.993,195.393,45.993L195.393,45.993z"/>
		</g>
	</g>
	<g>
		<g>
			<path fill="#231F20" d="M114.797,52.1c0.802,0,0.802-1.244,0-1.244S113.995,52.1,114.797,52.1L114.797,52.1z"/>
		</g>
	</g>
	<g>
		<g>
			<path fill="#231F20" d="M109.913,55.153c0.802,0,0.802-1.244,0-1.244C109.11,53.909,109.11,55.153,109.913,55.153L109.913,55.153
				z"/>
		</g>
	</g>
	<g>
		<g>
			<path fill="#231F20" d="M108.081,58.204c0.802,0,0.802-1.244,0-1.244C107.278,56.96,107.278,58.204,108.081,58.204
				L108.081,58.204z"/>
		</g>
	</g>
	<g>
		<g>
			<path fill="#231F20" d="M106.249,61.868c0.802,0,0.802-1.244,0-1.244C105.447,60.624,105.447,61.868,106.249,61.868
				L106.249,61.868z"/>
		</g>
	</g>
	<g>
		<g>
			<path fill="#231F20" d="M105.017,64.91c0,0.203,0,0.407,0,0.61c0,0.802,1.244,0.802,1.244,0c0-0.203,0-0.407,0-0.61
				C106.261,64.108,105.017,64.108,105.017,64.91L105.017,64.91z"/>
		</g>
	</g>
	<g>
		<g>
			<path fill="#231F20" d="M105.017,64.91c0.031,1.063,0.58,2.001,0.61,3.053c0.023,0.8,1.267,0.803,1.244,0
				c-0.031-1.063-0.58-2.001-0.61-3.053C106.238,64.11,104.994,64.108,105.017,64.91L105.017,64.91z"/>
		</g>
	</g>
	<g>
		<g>
			<path fill="#231F20" d="M109.301,71.638c0.802,0,0.802-1.244,0-1.244C108.499,70.394,108.499,71.638,109.301,71.638
				L109.301,71.638z"/>
		</g>
	</g>
	<g>
		<g>
			<path fill="#231F20" d="M108.861,71.456c0.815,0.813,1.628,1.627,2.441,2.442c0.567,0.568,1.447-0.311,0.88-0.88
				c-0.813-0.815-1.627-1.629-2.441-2.442C109.173,70.01,108.293,70.889,108.861,71.456L108.861,71.456z"/>
		</g>
	</g>
	<g>
		<g>
			<path fill="#231F20" d="M107.469,74.057c-0.203,0-0.406,0-0.609,0c-0.802,0-0.802,1.244,0,1.244c0.203,0,0.406,0,0.609,0
				C108.271,75.301,108.271,74.057,107.469,74.057L107.469,74.057z"/>
		</g>
	</g>
	<g>
		<g>
			<path fill="#231F20" d="M107.029,74.239c-0.813,0.815-1.627,1.629-2.441,2.442c-0.568,0.567,0.311,1.447,0.88,0.88
				c0.815-0.813,1.629-1.627,2.441-2.442C108.476,74.55,107.596,73.671,107.029,74.239L107.029,74.239z"/>
		</g>
	</g>
	<g>
		<g>
			<path fill="#231F20" d="M103.196,80.186c0.802,0,0.802-1.244,0-1.244C102.394,78.942,102.394,80.186,103.196,80.186
				L103.196,80.186z"/>
		</g>
	</g>
	<g>
		<g>
			<path fill="#231F20" d="M101.353,82.617c0,0.203,0,0.407,0,0.61c0,0.802,1.244,0.802,1.244,0c0-0.203,0-0.407,0-0.61
				C102.597,81.815,101.353,81.815,101.353,82.617L101.353,82.617z"/>
		</g>
	</g>
	<g>
		<g>
			<path fill="#231F20" d="M100.742,86.891c0,0.203,0,0.407,0,0.61c0,0.802,1.244,0.802,1.244,0c0-0.203,0-0.407,0-0.61
				C101.986,86.089,100.742,86.089,100.742,86.891L100.742,86.891z"/>
		</g>
	</g>
	<g>
		<g>
			<path fill="#231F20" d="M100.131,91.165c0,0.203,0,0.407,0,0.61c0,0.802,1.244,0.802,1.244,0c0-0.203,0-0.407,0-0.61
				C101.375,90.363,100.131,90.363,100.131,91.165L100.131,91.165z"/>
		</g>
	</g>
	<g>
		<g>
			<path fill="#231F20" d="M100.131,91.165c-0.023,1.132-0.255,2.95-1.039,3.834c-0.53,0.598,0.347,1.481,0.88,0.88
				c1.03-1.162,1.372-3.212,1.403-4.714C101.392,90.362,100.148,90.364,100.131,91.165L100.131,91.165z"/>
		</g>
	</g>
	<g>
		<g>
			<path fill="#231F20" d="M97.689,97.271c0,0.203,0,0.407,0,0.61c0,0.802,1.244,0.802,1.244,0c0-0.203,0-0.407,0-0.61
				C98.933,96.469,97.689,96.469,97.689,97.271L97.689,97.271z"/>
		</g>
	</g>
	<g>
		<g>
			<path fill="#231F20" d="M97.689,97.271c-0.037,0.837-0.573,1.591-0.61,2.442c-0.035,0.802,1.209,0.799,1.244,0
				c0.037-0.837,0.573-1.591,0.61-2.442C98.968,96.468,97.724,96.472,97.689,97.271L97.689,97.271z"/>
		</g>
	</g>
	<g>
		<g>
			<path fill="#231F20" d="M96.479,104.609c0.802,0,0.802-1.244,0-1.244C95.677,103.365,95.677,104.609,96.479,104.609
				L96.479,104.609z"/>
		</g>
	</g>
	<g>
		<g>
			<path fill="#231F20" d="M95.857,103.987c-0.022,0.295-0.226,0.574-0.427,0.781c-0.559,0.575,0.32,1.456,0.88,0.88
				c0.444-0.456,0.745-1.023,0.791-1.661C97.159,103.186,95.915,103.191,95.857,103.987L95.857,103.987z"/>
		</g>
	</g>
	<g>
		<g>
			<path fill="#231F20" d="M95.258,95.45c0.802,0,0.802-1.244,0-1.244C94.456,94.206,94.456,95.45,95.258,95.45L95.258,95.45z"/>
		</g>
	</g>
	<g>
		<g>
			<path fill="#231F20" d="M96.479,89.955c0.802,0,0.802-1.244,0-1.244C95.677,88.711,95.677,89.955,96.479,89.955L96.479,89.955z"
				/>
		</g>
	</g>
	<g>
		<g>
			<path fill="#231F20" d="M98.323,83.838c0-0.204,0-0.408,0-0.611c0-0.802-1.244-0.802-1.244,0c0,0.204,0,0.408,0,0.611
				C97.079,84.64,98.323,84.64,98.323,83.838L98.323,83.838z"/>
		</g>
	</g>
	<g>
		<g>
			<path fill="#231F20" d="M98.311,78.354c0.802,0,0.802-1.244,0-1.244C97.509,77.11,97.509,78.354,98.311,78.354L98.311,78.354z"/>
		</g>
	</g>
	<g>
		<g>
			<path fill="#231F20" d="M100.155,71.626c0-0.203,0-0.407,0-0.61c0-0.802-1.244-0.802-1.244,0c0,0.203,0,0.407,0,0.61
				C98.911,72.428,100.155,72.428,100.155,71.626L100.155,71.626z"/>
		</g>
	</g>
	<g>
		<g>
			<path fill="#231F20" d="M101.375,64.91c0-0.204,0-0.408,0-0.611c0-0.802-1.244-0.802-1.244,0c0,0.204,0,0.408,0,0.611
				C100.131,65.713,101.375,65.713,101.375,64.91L101.375,64.91z"/>
		</g>
	</g>
	<g>
		<g>
			<path fill="#231F20" d="M101.986,58.804c0-0.204,0-0.407,0-0.611c0-0.802-1.244-0.802-1.244,0c0,0.204,0,0.407,0,0.611
				C100.742,59.607,101.986,59.607,101.986,58.804L101.986,58.804z"/>
		</g>
	</g>
	<g>
		<g>
			<path fill="#231F20" d="M105.028,52.1c0.204,0,0.408,0,0.611,0c0.802,0,0.802-1.244,0-1.244c-0.204,0-0.408,0-0.611,0
				C104.226,50.856,104.226,52.1,105.028,52.1L105.028,52.1z"/>
		</g>
	</g>
	<g>
		<g>
			<path fill="#231F20" d="M110.524,48.436c0.802,0,0.802-1.244,0-1.244C109.722,47.192,109.722,48.436,110.524,48.436
				L110.524,48.436z"/>
		</g>
	</g>
	<g>
		<g>
			<path fill="#231F20" d="M112.965,49.024c-0.203,0-0.406,0-0.609,0c-0.802,0-0.802,1.244,0,1.244c0.203,0,0.406,0,0.609,0
				C113.768,50.268,113.768,49.024,112.965,49.024L112.965,49.024z"/>
		</g>
	</g>
	<g>
		<g>
			<path fill="#231F20" d="M107.469,52.1c0.802,0,0.802-1.244,0-1.244C106.667,50.856,106.667,52.1,107.469,52.1L107.469,52.1z"/>
		</g>
	</g>
	<g>
		<g>
			<path fill="#231F20" d="M105.028,58.816c0.802,0,0.802-1.244,0-1.244C104.226,57.572,104.226,58.816,105.028,58.816
				L105.028,58.816z"/>
		</g>
	</g>
	<g>
		<g>
			<path fill="#231F20" d="M103.807,62.456c-0.204,0-0.408,0-0.611,0c-0.802,0-0.802,1.244,0,1.244c0.204,0,0.408,0,0.611,0
				C104.609,63.7,104.609,62.456,103.807,62.456L103.807,62.456z"/>
		</g>
	</g>
	<g>
		<g>
			<path fill="#231F20" d="M101.364,70.416c0.802,0,0.802-1.244,0-1.244C100.562,69.172,100.562,70.416,101.364,70.416
				L101.364,70.416z"/>
		</g>
	</g>
	<g>
		<g>
			<path fill="#231F20" d="M100.924,70.234c0.815,0.814,1.629,1.629,2.443,2.443c0.568,0.568,1.448-0.312,0.88-0.88
				c-0.815-0.814-1.629-1.629-2.443-2.443C101.236,68.787,100.356,69.667,100.924,70.234L100.924,70.234z"/>
		</g>
	</g>
	<g>
		<g>
			<path fill="#231F20" d="M102.585,74.057c-0.203,0-0.407,0-0.61,0c-0.802,0-0.802,1.244,0,1.244c0.203,0,0.407,0,0.61,0
				C103.388,75.301,103.388,74.057,102.585,74.057L102.585,74.057z"/>
		</g>
	</g>
	<g>
		<g>
			<path fill="#231F20" d="M99.533,80.796c0.802,0,0.802-1.244,0-1.244C98.73,79.552,98.73,80.796,99.533,80.796L99.533,80.796z"/>
		</g>
	</g>
	<g>
		<g>
			<path fill="#231F20" d="M94.038,80.796c0.802,0,0.802-1.244,0-1.244C93.235,79.552,93.235,80.796,94.038,80.796L94.038,80.796z"
				/>
		</g>
	</g>
	<g>
		<g>
			<path fill="#231F20" d="M96.479,74.69c0.802,0,0.802-1.244,0-1.244C95.677,73.446,95.677,74.69,96.479,74.69L96.479,74.69z"/>
		</g>
	</g>
	<g>
		<g>
			<path fill="#231F20" d="M98.311,69.195c0.802,0,0.802-1.244,0-1.244C97.509,67.951,97.509,69.195,98.311,69.195L98.311,69.195z"
				/>
		</g>
	</g>
	<g>
		<g>
			<path fill="#231F20" d="M99.533,63.7c0.203,0,0.407,0,0.61,0c0.802,0,0.802-1.244,0-1.244c-0.203,0-0.407,0-0.61,0
				C98.73,62.456,98.73,63.7,99.533,63.7L99.533,63.7z"/>
		</g>
	</g>
	<g>
		<g>
			<path fill="#231F20" d="M104.417,55.762c0.802,0,0.802-1.244,0-1.244C103.615,54.518,103.615,55.762,104.417,55.762
				L104.417,55.762z"/>
		</g>
	</g>
	<g>
		<g>
			<path fill="#231F20" d="M108.081,50.879c0.204,0,0.408,0,0.611,0c0.802,0,0.802-1.244,0-1.244c-0.204,0-0.408,0-0.611,0
				C107.278,49.635,107.278,50.879,108.081,50.879L108.081,50.879z"/>
		</g>
	</g>
	<g>
		<g>
			<path fill="#231F20" d="M108.52,50.696c0.644-0.645,1.331-1.315,1.403-2.272c0.06-0.801-1.185-0.795-1.244,0
				c-0.041,0.543-0.684,1.038-1.039,1.392C107.073,50.385,107.953,51.265,108.52,50.696L108.52,50.696z"/>
		</g>
	</g>
	<g>
		<g>
			<path fill="#231F20" d="M99.533,83.849c0.802,0,0.802-1.244,0-1.244C98.73,82.605,98.73,83.849,99.533,83.849L99.533,83.849z"/>
		</g>
	</g>
	<g>
		<g>
			<path fill="#231F20" d="M96.479,93.008c0.802,0,0.802-1.244,0-1.244C95.677,91.764,95.677,93.008,96.479,93.008L96.479,93.008z"
				/>
		</g>
	</g>
	<g>
		<g>
			<path fill="#231F20" d="M95.258,85.07c0.802,0,0.802-1.244,0-1.244C94.456,83.826,94.456,85.07,95.258,85.07L95.258,85.07z"/>
		</g>
	</g>
	<g>
		<g>
			<path fill="#231F20" d="M105.028,69.172c-0.057,0-0.114,0-0.17,0c-0.802,0-0.802,1.244,0,1.244c0.261,0,0.521,0,0.782,0
				c0.802,0,0.802-1.244,0-1.244c-0.261,0-0.521,0-0.782,0c-0.802,0-0.802,1.244,0,1.244c0.057,0,0.114,0,0.17,0
				C105.83,70.416,105.83,69.172,105.028,69.172L105.028,69.172z"/>
		</g>
	</g>
	<g>
		<g>
			<path fill="#231F20" d="M97.089,80.186c0.802,0,0.802-1.244,0-1.244C96.287,78.942,96.287,80.186,97.089,80.186L97.089,80.186z"
				/>
		</g>
	</g>
	<g>
		<g>
			<path fill="#231F20" d="M212.49,50.879c0.802,0,0.802-1.244,0-1.244S211.688,50.879,212.49,50.879L212.49,50.879z"/>
		</g>
	</g>
	<g>
		<g>
			<path fill="#231F20" d="M214.932,56.984c0.802,0,0.802-1.244,0-1.244C214.13,55.74,214.13,56.984,214.932,56.984L214.932,56.984z
				"/>
		</g>
	</g>
	<g>
		<g>
			<path fill="#231F20" d="M211.879,64.31c0.802,0,0.802-1.244,0-1.244S211.077,64.31,211.879,64.31L211.879,64.31z"/>
		</g>
	</g>
	<g>
		<g>
			<path fill="#231F20" d="M221.647,68.562c-0.203,0-0.406,0-0.609,0c-0.802,0-0.802,1.244,0,1.244c0.203,0,0.406,0,0.609,0
				C222.449,69.806,222.449,68.562,221.647,68.562L221.647,68.562z"/>
		</g>
	</g>
	<g>
		<g>
			<path fill="#231F20" d="M223.479,83.239c0.802,0,0.802-1.244,0-1.244C222.677,81.995,222.677,83.239,223.479,83.239
				L223.479,83.239z"/>
		</g>
	</g>
	<g>
		<g>
			<path fill="#231F20" d="M222.87,91.787c0.802,0,0.802-1.244,0-1.244C222.067,90.543,222.067,91.787,222.87,91.787L222.87,91.787z
				"/>
		</g>
	</g>
	<g>
		<g>
			<path fill="#231F20" d="M218.607,75.9c0-0.203,0-0.407,0-0.61c0-0.802-1.244-0.802-1.244,0c0,0.203,0,0.407,0,0.61
				C217.363,76.702,218.607,76.702,218.607,75.9L218.607,75.9z"/>
		</g>
	</g>
	<g>
		<g>
			<path fill="#231F20" d="M211.268,49.024c-0.042,0-0.084,0-0.126,0c-0.802,0-0.802,1.244,0,1.244c0.288,0,0.576,0,0.864,0
				c0.802,0,0.802-1.244,0-1.244c-0.042,0-0.084,0-0.126,0c-0.802,0-0.802,1.244,0,1.244c0.042,0,0.084,0,0.126,0
				c0.802,0,0.802-1.244,0-1.244c-0.288,0-0.576,0-0.864,0c-0.802,0-0.802,1.244,0,1.244c0.042,0,0.084,0,0.126,0
				C212.07,50.268,212.07,49.024,211.268,49.024L211.268,49.024z"/>
		</g>
	</g>
	<g>
		<g>
			<path fill="#231F20" d="M211.879,45.993c0.802,0,0.802-1.244,0-1.244S211.077,45.993,211.879,45.993L211.879,45.993z"/>
		</g>
	</g>
	<g>
		<g>
			<path fill="#231F20" d="M99.533,63.7c0.802,0,0.802-1.244,0-1.244C98.73,62.456,98.73,63.7,99.533,63.7L99.533,63.7z"/>
		</g>
	</g>
	<g>
		<g>
			<path fill="#231F20" d="M173.422,193.577c-1.25,3.52-4.044,6.079-7.947,5.649c-0.797-0.088-0.788,1.157,0,1.244
				c4.464,0.491,7.724-2.557,9.147-6.563C174.891,193.15,173.689,192.827,173.422,193.577L173.422,193.577z"/>
		</g>
	</g>
	<path fill="none" stroke="#231F20" stroke-width="1.244" stroke-miterlimit="10" d="M234.268,121.704
		c-5.701-2.432-6.955,3.653-6.955,3.653s5.732-1.221,6.955,7.733"/>
	<path fill="none" stroke="#231F20" stroke-width="1.244" stroke-miterlimit="10" d="M83.249,111.925
		c3.664-5.292,10.788,2.421,10.788,2.421s-10.38-0.386-10.788,11.012"/>
	<polygon fill="none" stroke="#231F20" stroke-width="1.244" stroke-miterlimit="10" points="174.022,83.532 174.022,92.386 
		189.898,91.165 187.047,84.448 	"/>
	<polygon fill="none" stroke="#231F20" stroke-width="1.244" stroke-miterlimit="10" points="195.393,83.532 198.446,89.333 
		212.49,89.333 217.374,91.165 208.215,82.922 	"/>
	<g>
		<path fill="#231F20" d="M178.932,101.85c0,0,0.395-0.518,1.205-1.321c0.819-0.787,2.047-1.889,3.752-2.91
			c1.686-1.035,3.871-2.029,6.439-2.396c1.275-0.194,2.65-0.199,4.015,0.03c1.374,0.203,2.71,0.714,3.962,1.34
			c0.609,0.349,1.213,0.702,1.752,1.135c0.573,0.394,1.07,0.86,1.566,1.319c0.992,0.918,1.789,1.971,2.512,2.995
			c0.705,1.035,1.324,2.078,1.797,3.107c0.528,1.005,0.908,2.003,1.248,2.923c0.38,0.902,0.58,1.783,0.816,2.538
			c0.242,0.752,0.369,1.434,0.489,1.988c0.231,1.111,0.34,1.748,0.34,1.748s-0.309-0.576-0.807-1.584
			c-0.247-0.504-0.538-1.119-0.909-1.804c-0.38-0.679-0.738-1.476-1.228-2.289c-0.47-0.824-0.977-1.71-1.565-2.604
			c-0.28-0.457-0.582-0.916-0.926-1.355c-0.35-0.435-0.627-0.939-1.016-1.36c-0.71-0.9-1.526-1.747-2.387-2.541
			c-0.863-0.794-1.827-1.482-2.853-2.02c-1.022-0.535-2.099-0.986-3.222-1.172c-1.115-0.194-2.248-0.33-3.357-0.219
			c-1.102,0.101-2.189,0.246-3.198,0.536c-1.006,0.284-1.966,0.593-2.825,0.955c-1.732,0.705-3.125,1.477-4.098,2.032
			C179.469,101.484,178.932,101.85,178.932,101.85z"/>
	</g>
	
		<ellipse fill="#231F20" stroke="#231F20" stroke-width="1.244" stroke-miterlimit="10" cx="192.951" cy="105.208" rx="8.447" ry="7.779"/>
	
		<ellipse fill="#FFFFFF" stroke="#231F20" stroke-width="1.244" stroke-miterlimit="10" cx="189.898" cy="101.545" rx="3.053" ry="2.938"/>
	<polygon opacity="0.2" fill="#FFFFFF" stroke="#231F20" stroke-width="1.244" stroke-miterlimit="10" points="193.154,104.513 
		193.154,112.01 198.854,108.261 	"/>
	<path fill="#F6C434" d="M129.457,97.168c-0.074,0-0.143,0.007-0.218,0.008c-0.369-0.139-0.772-0.237-1.234-0.25
		c-10.292-0.298-12.576,10.805-8.939,18.522c0.505,1.072,1.285,1.633,2.134,1.808c0.753,0.856,1.662,1.589,2.749,2.122
		c0.042,0.143,0.096,0.282,0.137,0.424c-0.773,1.278-0.729,3.052,0.129,4.274c0.424,1.305,1.523,2.361,3.307,2.361
		c0.908,0,1.635-0.278,2.19-0.719c0.552,0.437,1.263,0.719,2.163,0.719c3.646,0,4.438-4.393,2.403-6.339
		c0.154-0.593,0.304-1.187,0.435-1.786c1.841-1.496,2.979-3.65,3.404-5.966C141.138,106.326,138.256,97.168,129.457,97.168z"/>
	<g>
		<g>
			<path d="M133.666,129.653l-8.621,1.088c-0.451,0.058-0.871-0.253-0.93-0.688l0,0c-0.061-0.435,0.262-0.838,0.714-0.895
				l8.621-1.089c0.453-0.057,0.872,0.253,0.931,0.688l0,0C134.442,129.193,134.119,129.596,133.666,129.653z"/>
			<path d="M133.686,132.537l-8.621,1.088c-0.451,0.057-0.871-0.252-0.93-0.688l0,0c-0.059-0.435,0.262-0.838,0.714-0.896
				l8.62-1.088c0.453-0.057,0.873,0.253,0.933,0.688l0,0C134.461,132.077,134.139,132.48,133.686,132.537z"/>
			<path d="M133.686,135.222l-8.621,1.089c-0.451,0.057-0.871-0.253-0.93-0.688l0,0c-0.059-0.435,0.262-0.838,0.714-0.895
				l8.62-1.089c0.453-0.057,0.873,0.253,0.933,0.688l0,0C134.461,134.762,134.139,135.165,133.686,135.222z"/>
			<path d="M130.819,138.269l-2.885,0.365c-0.453,0.057-0.871-0.253-0.932-0.688l0,0c-0.059-0.435,0.262-0.838,0.715-0.896
				l2.886-0.364c0.452-0.057,0.872,0.252,0.931,0.688l0,0C131.594,137.809,131.271,138.212,130.819,138.269z"/>
			<g>
				<g>
					<path d="M129.269,95.992c-6.718,0-12.163,5.236-12.163,11.697c0,2.411,0.758,4.652,2.058,6.514h0.001l0,0
						c0.002,0.001,0.002,0.004,0.004,0.005c0.002,0.005,0.008,0.01,0.01,0.015c0.291,0.428,5,7.455,4.932,12.712h10.316
						c-0.069-5.34,4.726-12.413,4.875-12.631c0-0.002,0.001-0.003,0.002-0.004c0,0,0,0,0-0.001c1.344-1.881,2.129-4.157,2.129-6.61
						C141.432,101.228,135.986,95.992,129.269,95.992z M129.889,116.634h-1.271c-0.332,0-0.642,0.092-0.901,0.25
						c-0.644-2.969-1.717-6.488-3.504-9.92c0.083-0.118,0.103-0.273,0.039-0.413l-0.083-0.184c0.359-0.305,0.71-0.733,1.096-0.782
						c0.67-0.084,1.443,0.657,2.131,0.639c0.686-0.061,1.34-0.883,2.015-0.877c0.548,0.005,1.12,0.767,1.662,0.88
						c0.005,0.001,0.013,0.002,0.017,0.003c0.043,0.011,0.096,0.017,0.156,0.02c0.002,0.001,0.002,0.001,0.004,0.001h0.002
						c0.076,0.004,0.145,0,0.19-0.009c0,0,0.003,0,0.003-0.002c0.22-0.03,0.441-0.124,0.663-0.227
						c0.413-0.193,0.826-0.423,1.218-0.366c0.383,0.056,0.721,0.486,1.068,0.799l-0.109,0.242c-0.063,0.139-0.041,0.294,0.04,0.412
						c-1.767,3.394-2.834,6.87-3.48,9.819C130.571,116.738,130.243,116.634,129.889,116.634z M138.438,113.61l-0.053,0.051
						l-0.049,0.091l-0.15,0.214v0.018c-0.857,1.313-4.398,6.983-4.836,11.876h-1.756v-7.584c0-0.371-0.129-0.713-0.346-0.988
						c0.63-2.965,1.691-6.505,3.484-9.956c0.199,0.036,0.408-0.064,0.492-0.251l0.104-0.227l0.127-0.283l0.01-0.017l0.129-0.288
						l0.131-0.287c0.1-0.217-0.006-0.472-0.231-0.566l-0.12-0.051c-0.227-0.095-0.49,0.006-0.59,0.222l-0.215,0.475l-0.047,0.103
						c-0.367-0.324-0.715-0.772-1.13-0.833c-0.671-0.099-1.476,0.641-2.17,0.607l0,0c-0.594-0.076-1.186-0.909-1.793-0.914
						c-0.681-0.006-1.372,0.836-2.064,0.897c-0.694,0.018-1.488-0.738-2.16-0.655c-0.421,0.052-0.785,0.505-1.164,0.821
						l-0.061-0.134l-0.23-0.504c-0.097-0.216-0.361-0.317-0.588-0.221l-0.119,0.05c-0.226,0.095-0.33,0.35-0.231,0.566l0.135,0.298
						l0.129,0.285l0.019,0.039l0.129,0.284l0.088,0.195c0.085,0.188,0.293,0.288,0.493,0.252c1.808,3.48,2.874,7.052,3.501,10.033
						c-0.246,0.285-0.393,0.649-0.393,1.045v7.584h-1.727c-0.437-4.908-3.984-10.576-4.902-11.973l-0.323-0.47l-0.183-0.29
						c-1.018-1.64-1.555-3.509-1.555-5.438c0-5.857,4.955-10.621,11.046-10.621c6.089,0,11.044,4.765,11.044,10.621
						C140.313,109.811,139.665,111.855,138.438,113.61z"/>
				</g>
			</g>
		</g>
	</g>
</g>
</svg>
