<?xml version="1.0" encoding="utf-8"?>
<!-- Generator: Adobe Illustrator 17.0.0, SVG Export Plug-In . SVG Version: 6.00 Build 0)  -->
<!DOCTYPE svg PUBLIC "-//W3C//DTD SVG 1.1//EN" "http://www.w3.org/Graphics/SVG/1.1/DTD/svg11.dtd">
<svg version="1.1" id="Layer_1" xmlns="http://www.w3.org/2000/svg" xmlns:xlink="http://www.w3.org/1999/xlink" x="0px" y="0px"
	 width="279.001px" height="219.952px" viewBox="0 0 279.001 219.952" enable-background="new 0 0 279.001 219.952"
	 xml:space="preserve">
<g>
	<path fill="#FDC571" d="M247.147,105.991c-0.972,0-1.691,0.389-2.166,0.964c-0.631-0.238-1.343-0.377-2.148-0.376
		c-3.506,0.001-7.013,0.086-10.477,0.554c0.361-2.033,0.709-4.069,1.105-6.096c0.277-0.898,0.559-1.797,0.835-2.696
		c0.058-0.185,0.086-0.362,0.108-0.537c6.033-2.206,6.621-11.082,1.715-14.542c-0.358-1.038-0.899-1.995-1.583-2.83
		c1.958-5.51,2.293-11.815,0.147-17.144c-3.693-9.166-14.332-13.406-23.586-10.71c-1.818,0.53-3.506,1.332-5.123,2.281
		c-1.938-0.685-4.195-0.604-6.516,0.686c-6.859,3.814-13.686,7.684-20.393,11.765c-4.311,2.622-4.686,7.217-2.924,10.723
		c0.019,0.74,0.029,1.478,0.029,2.217c-0.107,0.357-0.209,0.718-0.301,1.092c-0.678,2.812-0.67,5.569,0.056,8.071
		c-1.136,9.545-2.946,18.963-3.99,28.61c-1.258,11.608,1.796,22.186,6.886,32.268c-0.074,0.086-0.133,0.185-0.197,0.279
		c-0.193-0.127-0.415-0.2-0.645-0.247c-0.277-0.247-0.65-0.41-1.13-0.41c-1.855,0-2.196,2.342-1.029,3.21v2.055
		c-7.19,0.549-14.69,0.093-21.851,0.193c-1.098,0.016-2.597,0.153-4.154,0.196c-0.572-1.331-1.012-2.716-1.59-4.045
		c-0.053-0.123-0.125-0.229-0.209-0.324c-0.176-1.715-2.305-2.099-3.166-1.131c-0.369-0.972-1.126-1.646-2.663-1.345
		c-1.306-0.414-2.677-0.642-3.86-1.363c-1.057-0.644-2.187,0.026-2.592,1.055c-0.566,1.433-0.33,3.215,0.228,4.865
		c-0.002,2.142,0.162,4.23,2.18,5.513c1.672,1.063,3.779,0.557,5.545-0.376c3.26,1.017,7.574,0.557,10.281,0.485
		c7.574-0.2,15.449,0.385,23.008-0.306c0.789,0.683,1.875,0.857,2.889,0.539c0.374,0.38,0.859,0.616,1.375,0.747
		c0.282,0.284,0.678,0.474,1.197,0.474c0.009,0,0.017-0.003,0.025-0.003c-0.549,0.379-1.127,0.707-1.764,0.927
		c-0.904,0.313-1.78,0.509-2.633,0.675c-0.099-0.004-0.191-0.01-0.293-0.015c-2.959-0.161-5.779,0.533-8.426,1.742
		c-0.265-0.478-0.754-0.827-1.47-0.827c-1.55,0-2.043,1.636-1.481,2.68c-1.619,1.623-2.287,3.994-2.133,6.291
		c0.348,5.157,0.647,10.377,1.113,15.54c0.081,0.893,0.399,1.623,0.849,2.214c-0.45,5.197-1.124,10.247-2.114,15.561
		c-0.944,5.066-0.961,12.37,5.15,14.253c5.605,1.728,14.152-0.681,17.898-5.369c2.824,1.435,7.191-2.072,5.499-5.991
		c-4.646-10.759,0.831-23.172,2.964-34.591c7.502-0.138,14.933,2.129,22.111-0.941c0.101-0.042,0.189-0.099,0.286-0.146
		c0.187,0.035,0.383,0.059,0.594,0.059c1.951,0,2.892-1.556,2.836-3.066c2.608-3.681,3.438-9.202,4.608-12.966
		c0.385-1.236-0.029-2.222-0.773-2.852c0.473-3.348,0.68-6.723,0.729-9.888c0.227-0.87,0.422-1.749,0.567-2.644
		c1.406-0.496,2.73-1.345,3.744-2.461c0.639,0.361,1.396,0.592,2.309,0.592c1.502,0,2.629-0.578,3.387-1.445
		c0.563-0.1,1.116-0.279,1.666-0.5c1.797,1.387,4.564,1.495,5.954-1.074c2.495-4.619,2.645-9.459,2.904-14.32
		c0.235-0.77,0.489-1.531,0.78-2.273c0.434-1.101,0.373-2.266-0.015-3.338c0.958-1.287,1.323-2.977,1.121-4.583
		C250.871,110.434,250.446,105.991,247.147,105.991z"/>
	<path fill="#FFE3C6" d="M153.861,166.84c-0.24,0.215-0.455,0.454-0.599,0.743c-0.252-0.27-0.529-0.524-0.818-0.768
		C152.915,166.825,153.389,166.834,153.861,166.84z"/>
	<path opacity="0.9" fill="#332B29" d="M219.338,86.964c-1.1-1.483-2.125-3.443-3.854-4.286c-1.316-0.642-2.723-0.297-4.008,0.299
		c-0.146-0.075-0.309-0.129-0.508-0.125c-1.67,0.031-3.328,0.268-5,0.294c-0.566,0.009-0.92,0.343-1.063,0.757
		c-0.048-0.008-0.095-0.017-0.14-0.024c-0.436-0.918-1.387-1.576-2.657-1.237c-1.941,0.518-3.92,1.063-5.912,1.387h-1.404
		c-0.298,0-0.521,0.108-0.703,0.255c-1.615,0.104-3.235-0.004-4.849-0.465c-0.509-0.146-0.963-0.121-1.356,0.012
		c-0.156-0.383-0.494-0.684-1.033-0.684c-1.362,0-1.491,1.882-0.407,2.27c-0.297,1.014-0.008,2.204,1.086,2.756
		c0.117,0.463,0.469,0.856,1.086,0.856c0.362,0,0.633-0.14,0.822-0.344c4.191,0.794,8.396-0.072,12.51-1.138
		c-0.117,0.447,0.01,0.942,0.359,1.229c2.109-0.662,4.354-0.884,6.566-0.734c1.939-0.464,3.873-0.937,5.873-1.045
		c0.643,0.269,1.258,0.595,1.806,0.989c0.227,0.163,0.489,0.195,0.743,0.15c0.004,0.004,0.008,0.01,0.012,0.016
		C218.2,89.356,220.244,88.186,219.338,86.964z"/>
	<path opacity="0.9" fill="#332B29" d="M269.164,34.009c-0.14-0.401-0.422-0.626-0.742-0.73c-0.049-0.059-0.105-0.11-0.167-0.155
		c-0.807-4.535-4.022-9.212-5.267-13.232c-0.295-0.947-1.358-0.999-1.939-0.521c-0.842-1.646-1.769-3.24-2.806-4.758
		c-0.091-0.135-0.212-0.202-0.338-0.237c-0.308-0.99-0.583-1.992-0.8-3.015c-0.314-1.484-2.582-0.855-2.269,0.625
		c1.498,7.08,5.246,13.315,7.996,19.936c0.888,2.136,1.59,4.37,1.898,6.65c-0.27,0.715-0.572,1.429-0.862,2.134
		c-0.028,0.05-0.056,0.102-0.085,0.153c-1.113-0.397-2.41-0.296-3.543,0.673c-0.813,0.695-1.691,1.146-2.611,1.432
		c-0.117-0.78-0.881-1.433-1.664-0.834c-0.168,0.129-0.346,0.234-0.529,0.33c-0.172-0.117-0.375-0.202-0.642-0.197
		c-0.056,0.001-0.106-0.007-0.162-0.007c-0.159-0.358-0.488-0.623-1.015-0.582c-4.986,0.395-9.664-2.583-13.523-5.427
		c-0.295-0.217-0.584-0.26-0.84-0.194c-0.973-0.624-1.895-1.203-2.706-1.652c-4.599-2.545-9.241-4.887-13.811-7.355
		c-0.163-0.832-0.611-1.632-1.457-2.243c-6.693-4.838-13.575-9.207-21.316-12.139c-4.026-2.517-8.14-4.895-12.347-7.104
		c-2.216-1.163-4.249-1.737-6.2-1.921c-5.84-4.127-12.896-4.342-19.475-2.633c-0.246-0.192-0.556-0.341-0.938-0.425
		c-4.951-1.083-9.54,0.618-13.684,3.282c-10.28,2.646-17.633,12.964-22.117,24.09c-1.373,2.866-2.412,5.907-3.03,9.144
		c-1.097,4.151-1.794,8.151-2.089,11.637c-0.121,1.441,1.612,2.792,2.979,2.269c0.743-0.285,1.465-0.597,2.188-0.907
		c0.063-0.009,0.121-0.006,0.185-0.019c3.469-0.668,8.313-0.092,12.556-0.69c0.195,0.308,0.482,0.584,0.906,0.79
		c11.371,5.525,23.863,8.815,33.35,17.574c0.449,0.416,1.105,0.626,1.753,0.627c1.034,0.959,2.712,1.116,3.412-0.515
		c0.084-0.194,0.185-0.375,0.282-0.561c0.212-0.012,0.43-0.043,0.664-0.123c5.379-1.838,10.14-4.797,15.191-7.345
		c6.163-3.109,13.161-4.875,19.896-6.196c5.925-1.162,12.338-0.596,17.125,3.344c3.855,3.173,5.476,8.903,6.348,14.048
		c0.012,1.142,0.041,2.238,0.137,3.232c0.464,4.812,1.912,9.478,5.832,12.557c3.016,2.37,7.102-0.887,6.023-3.641
		c0.098-7.915-2.872-14.807-5.605-21.917c6.27,1.244,15.544-2.458,19.748-6.688c0.355,0.13,0.763,0.078,1.102-0.301
		c0.21-0.233,0.405-0.468,0.598-0.703c0.097-0.051,0.194-0.093,0.284-0.179C270.333,48.338,271.516,40.79,269.164,34.009z"/>
	<path opacity="0.9" fill="#332B29" d="M121.41,48.882c-1.063,1.324-2.216,2.959-3.323,4.789c-0.178-0.736-0.98-1.381-1.733-0.855
		c-2.216,1.547-3.865,2.908-4.819,5.012c-0.451,0.198-0.862,0.532-1.217,0.99c-0.948,0.1-1.863,0.597-2.496,1.664
		c-2.988,5.041-8.38,12.466-6.066,18.506c-0.301,0.333-0.424,0.815-0.138,1.321c1.165,2.057,0.503,4.606,0.624,6.858
		c0.04,0.742,0.631,1.117,1.211,1.129c0.086,0.361,0.182,0.724,0.297,1.089c0.949,5.157,2.857,10.108,6.681,13.123
		c0.561,0.442,1.465,0.497,1.847-0.238c1.158-2.224,2.684-5.232,1.884-7.77c-0.223-0.708-1.163-1.134-1.784-0.677
		c-1.119-2.12-2.531-4.059-3.324-6.344c-1.649-4.752,2.736-9.636,7.033-10.355c0.726-0.122,1.103-1.14,0.703-1.728
		c-4.824-7.091,1.871-19.362,6.285-24.85C124.015,49.376,122.361,47.7,121.41,48.882z"/>
	<path opacity="0.9" fill="#332B29" d="M247.908,88.515c-0.261,0.229-0.488,0.469-0.689,0.717c0.304-0.628,0.634-1.233,1.024-1.77
		c0.449-0.615-0.574-1.201-1.016-0.594c-0.195,0.269-0.38,0.553-0.556,0.845c-0.229-0.189-0.517-0.306-0.8-0.322
		c-0.285-0.757-1.332-1.032-1.891-0.482c-0.025-0.271-0.207-0.526-0.56-0.527c-0.422-0.002-0.82-0.01-1.216-0.175
		c-0.055-0.023-0.1-0.022-0.148-0.029c-0.979-2.24-2.365-4.336-3.773-6.406c0.471-1.021,0.346-2.115-0.511-2.327
		c0.788-2.987-0.287-7.84-0.647-9.652c-0.113-0.572-0.754-0.506-1.029-0.138c-0.449-3.337-1.766-6.517-2.893-9.666
		c-0.252-0.709-1.391-0.403-1.134,0.313c1.284,3.592,2.623,7.086,3.034,10.905c0.361,3.35-0.794,6.76-0.898,10.116
		c-0.007,0.209,0.109,0.372,0.27,0.475c-0.003,0.141-0.017,0.28-0.006,0.423c0.037,0.447,0.321,0.779,0.693,0.99
		c0.303,1.368,1.285,2.692,2.072,3.804c1.053,1.489,2.204,2.887,3.125,4.467c0.768,1.317,0.551,2.886-0.131,4.388
		c-0.475-0.011-0.935,0.228-1.08,0.828c-0.152,0.633-0.299,1.192-0.518,1.693c-0.613,0.752-1.279,1.416-1.912,1.937
		c-1.15,0.618-2.047,1.217-2.275,2.644c-0.081,0.502,0.137,0.895,0.453,1.154c-0.367,1.113-0.556,2.335-0.846,3.552
		c-0.061,0.263-0.021,0.486,0.057,0.687c-0.973,0.525-0.336,2.327,0.998,2.134c1.645-0.239,3.004-0.932,4.145-1.92
		c1.9,0.125,3.408-0.386,4.416-2.878c1.024-2.528,1.695-5.115,2.225-7.738c0.281,0.075,0.59-0.032,0.646-0.403
		c0.354-2.292,0.33-4.561,2.202-6.211C249.309,88.844,248.474,88.016,247.908,88.515z"/>
	<g>
		<g>
			<path fill="none" stroke="#231F20" stroke-width="1.1765" stroke-miterlimit="10" d="M175.104,69.842
				c0,0,67.631-44.354,59.229,11.691c0,0,13.223,8.829,0.553,17.547l-13.717,73.162l-30.171,0.952l-4.806,13.711l-16.625,0.524
				l0.068-1.469"/>
			<path fill="#FFE3C6" d="M199.542,130.152c-0.067-0.119-0.142-0.236-0.229-0.347c-0.372-1.009-1.248-1.821-2.634-1.854
				c-1.072-0.025-2.135-0.097-3.191-0.189c-2.314-0.468-4.65-0.795-6.997-1.061c-4.612-0.987-9.107-2.475-13.54-4.172
				c0.768-5.416,1.154-10.852,1.179-16.343c0.003-0.627-0.101-1.181-0.266-1.687c0.36-3.609,0.612-7.227,0.657-10.862
				c0.008-0.572-0.132-1.048-0.354-1.446c0.235-2.957,0.504-5.91,0.838-8.862c0.385-3.388,0.419-7.208-0.594-10.617
				c0.198-0.768,0.412-1.533,0.656-2.292c0.42-1.3-1.36-1.915-2.064-0.989c-0.545-0.914-1.205-1.767-2.004-2.53
				c-4.418-4.221-10.3-5.717-15.178-9.209c-1.127-0.806-2.238-1.065-3.254-0.946c-9.844-6.482-22.482-9.947-32.359-1.616
				c-5.901,4.976-6.237,13.453-4.393,21.15c-1.451,0.721-2.608,1.776-3.48,3.023c-0.571,0.069-1.146,0.336-1.66,0.882
				c-1.807,1.914-2.518,4.102-2.156,6.695c0.254,1.823,1.532,3.209,3.062,4.168c1.322,2.622,3.726,4.667,7.212,5.193
				c0.324,5.139,1.162,10.95,2.598,16.7c-0.02,2.592-0.013,5.181-0.007,7.756c0.011,5.154,3.041,8.341,6.8,9.602
				c2.818,4.759,6.332,8.655,10.623,10.967c-1.675-0.181-3.342-0.414-5.01-0.739c-0.803-0.657-1.913-0.926-2.865-0.66
				c-1.471-0.396-2.949-0.903-4.434-1.519c1.162-3.07,0.92-6.557-2.188-8.437c-4.106-2.483-8.699-1.412-12.328,1.132
				c0.762-3.497-0.842-6.877-3.607-8.865c1.48,0.007,2.978-0.084,4.381-0.109c2.285-0.04,3.591-2.452,2.539-4.426
				c-1.699-3.19-2.529-6.556-3.195-10.083c1.409-1.829,0.732-5.06-2.09-4.707c-2.129,0.266-4.527,0.565-6.155-1.1
				c-0.927-0.947-2.19-1.046-3.218-0.587c-0.223,1.026-0.406,2.05-0.555,3.074c-0.123,3.912,0,7.828,0.018,11.751
				c0.004,0.672-0.453,1.032-0.965,1.117c0.084,0.22,0.154,0.442,0.256,0.656c0.193,0.405,0.414,0.763,0.645,1.1
				c-4.502-1.596-8.936-3.053-13.947-3.069c-0.998-0.003-1.951,0.108-2.88,0.288c-1.958-2.092-4.95-3.194-8.485-2.326
				c-0.912,0.224-1.771,0.508-2.595,0.826c-0.315-0.205-0.72-0.263-1.144,0c-2.629,1.633-4.9,3.517-7.002,5.583
				c-0.203,0.11-0.368,0.273-0.485,0.492c-1.292,1.305-2.527,2.678-3.741,4.104c-1.049,0.726-1.846,1.63-2.434,2.631
				c-0.334,0.019-0.66,0.172-0.879,0.554c-2.932,5.137-8.642,9.897-9.529,15.968c-0.025,0.168-0.009,0.321,0.022,0.464
				c0.003,0.582,0.365,1.116,1.11,1.026c0.053-0.007,0.104-0.018,0.156-0.025c0.125,0.003,0.24-0.018,0.354-0.056
				c3.906-0.572,7.497-2.212,11.011-3.968c2.067,3.044,5.834,4.074,9.649,3.539c-1.679,0.235,2.608,0.121,3.27,0.146
				c1.968,0.077,3.935,0.261,5.896,0.418c0.111,0.009,0.224,0.016,0.335,0.025c-0.187,0.268-0.365,0.543-0.547,0.813
				c-1.484-0.049-2.986,0.588-3.99,2.223c-0.131,0.214-0.297,0.404-0.457,0.599c-0.07,0.026-0.138,0.036-0.207,0.066
				c-0.025,0.011-0.053,0.02-0.076,0.03c-0.879-0.289-1.83-0.357-2.723-0.113c-1.245,0.342-2.17,1.135-2.74,2.141
				c-6.544,2.174-13.512,3.968-19.142,7.768c-0.505,0.086-0.999,0.152-1.487,0.208c-1.638-1.299-3.567-2.029-5.656-2.399
				c-0.607-0.108-1.059,0.215-1.295,0.645c-0.053-0.031-0.098-0.077-0.15-0.105c-0.422-0.733-0.594-1.692-0.436-2.936
				c0.131-1.034-0.934-1.33-1.68-0.941c-0.597-0.364-1.543-0.168-1.777,0.608c-0.176,0.047-0.35,0.128-0.512,0.286
				c-1.263,1.225-2.709,2.222-4.103,3.282c-0.254,0.139-0.503,0.302-0.746,0.497c-7.888,6.281-17.623,9.666-25.49,16.079
				c-1.262,1.028-1.695,2.254-1.576,3.427c-0.326-0.039-0.647-0.091-0.979-0.1c-1.519-0.043-1.516,2.31,0,2.353
				c0.092,0.003,0.18,0.022,0.27,0.028c0.14,0.153,0.319,0.278,0.593,0.323c0.615,0.1,1.213,0.243,1.799,0.413
				c0.553,0.48,1.203,0.867,1.916,1.098c0.564,0.735,1.365,1.292,2.406,1.501c3.557,0.711,7.053,1.457,10.486,2.644
				c0.061,0.019,0.117,0.047,0.178,0.067c0.996,0.689,2.132,1.191,3.34,1.548c1.864,1.009,3.684,2.126,5.678,2.848
				c4.785,1.735,8.299-0.369,11.559-3.838c2.15-2.291,4.343-4.529,6.616-6.671c4.181-3.426,8.687-6.496,13.29-9.157
				c4.759-2.752,10.174-4.33,14.617-7.483c0.203,0.085,0.414,0.173,0.586,0.236c1.398,0.516,2.765,1.021,4.227,1.291
				c1.323,0.879,2.824,1.535,4.371,1.936c5.326,1.382,10.311-1.876,12.087-6.814c0.871-2.42,1.306-5.043,2.438-7.358
				c0.801-1.636,3.895-1.88,6.661-1.923c1.035,0.741,2.298,1.074,3.626,0.515c0.922-0.389,1.838-0.733,2.691-1.258
				c1.156-0.711,1.83-1.921,2.061-3.22c0.67-0.1,1.341-0.191,2.006-0.292c1.105-0.17,2.088-0.495,3.012-0.927
				c-0.445,6.382-1.48,13.22,0.76,19.2c1.523,4.073,5.48,4.397,9.259,4.349c3.835-0.048,7.903,0.12,11.868,0.545
				c0.242,1.939,0.225,3.905,0.01,5.856c-1.71,6.05-1.643,12.861-0.508,19.478c-1.325,3.774-1.979,7.749-3.576,11.426
				c-0.662,1.528-0.41,3.072,1.055,4.025c3.172,2.06,9.338,6.617,14.635,7.276c2.4,2.323,5.814,2.145,8.137,0.083
				c1.401-0.014,2.749-0.978,2.832-2.839c0.042-0.949,0.064-1.898,0.098-2.846c0.639-0.47,1.083-1.214,1.078-2.253
				c-0.016-3.931-0.109-7.857-0.232-11.786c0.916-10.008,0.27-20.148,0.232-30.176c-0.004-1.15-0.559-1.93-1.315-2.381
				c0.243-0.423,0.37-0.907,0.405-1.393c4.469-0.803,8.67-2.753,13.264-2.893c0.353-0.01,0.615-0.152,0.803-0.353
				c0.125-0.015,0.25-0.023,0.374-0.039c1.481-0.199,1.501-2.555,0-2.353c-0.357,0.047-0.716,0.077-1.073,0.114
				c-0.142-0.069-0.301-0.115-0.495-0.114c-12.812,0.022-25.62,0.37-38.433,0.392c-0.775,0.001-1.149,0.616-1.132,1.217
				c-0.208-0.024-0.419-0.039-0.628-0.064c-2.629-2.784-2.365-6.775-2.358-10.956c0.001-0.438-0.084-0.818-0.221-1.155
				c0.063-0.414,0.124-0.827,0.175-1.241c1.293,0.229,2.592,0.411,3.893,0.579c0.528,1.216,1.754,2.186,3.406,1.907
				c2.028-0.344,4.037-0.601,6.039-0.8c0.651,0.021,1.303,0.048,1.955,0.062c2.537,0.252,5.088,0.534,7.667,0.958
				c2.584,0.424,5.181,0.64,7.649,0.23c2.949,0.211,5.932,0.094,8.854,0.726c3.697,0.8,5.27-4.872,1.563-5.672
				c-0.354-0.077-0.709-0.131-1.065-0.185c0.072-0.417,0.074-0.854-0.018-1.29c-0.257-1.226-0.593-2.431-0.918-3.64
				c0.042-0.358,0.081-0.717,0.134-1.072c0.074-0.508,0.023-0.972-0.108-1.393c5.033-0.935,10.074-1.508,15.174-1.769
				c0.049,0.006,0.086,0.027,0.137,0.027c1.311-0.001,2.628-0.032,3.922-0.154c0.523-0.009,1.043-0.039,1.569-0.042
				c0.714-0.005,1.292-0.217,1.738-0.559c0.075,0.022,0.15,0.039,0.226,0.062c1.826,0.549,3.117-0.605,3.5-2.03
				c0.154-0.126,0.316-0.229,0.465-0.367C201.075,131.363,200.399,130.282,199.542,130.152z"/>
			<path fill="none" stroke="#231F20" stroke-width="1.1765" stroke-miterlimit="10" d="M171.555,187.434l-16.527-1.872
				l-3.678-14.056l-29.994-3.397l-7.735-74.034c-11.919-9.719,1.977-17.445,1.977-17.445c-3.826-56.541,59.983-6.845,59.983-6.845"
				/>
			<path fill="none" stroke="#231F20" stroke-width="1.1765" stroke-miterlimit="10" d="M175.58,69.784l-0.295,53.389
				c0,0,59.942,10.802-0.072,13.553c0,0-0.919,10.468,5.541,12.043c6.46,1.575-36.678,4.111-44.648-2.709
				c0,0-3.756,13.224,5.634,12.968c9.39-0.257,67.61-1.169,24.147,4.753l0.84,23.106"/>
			<polygon fill="none" stroke="#231F20" stroke-width="1.1765" stroke-miterlimit="10" points="161.554,84.902 159.207,90.126 
				132.732,87.363 127.174,89.95 130.601,82.884 			"/>
			<polygon fill="none" stroke="#231F20" stroke-width="1.1765" stroke-miterlimit="10" points="185.422,84.109 187.711,89.358 
				214.215,86.886 219.745,89.534 216.396,82.432 			"/>
			<path fill="none" stroke="#231F20" stroke-width="1.1765" stroke-miterlimit="10" d="M175.439,95.451l53.351,0.293l1.539,0.008
				l1.51,5.553l-4.311-0.023c0,0-0.413,27.464-24.042,25.126c-23.629-2.338-16.299-26.889-16.299-26.889l-11.771,0.244
				L175.439,95.451z"/>
			<path fill="none" stroke="#231F20" stroke-width="1.1765" stroke-miterlimit="10" d="M224.457,99.417l-34.498-0.189
				c0,0-5.711,24.918,15.094,25.032C225.86,124.375,224.457,99.417,224.457,99.417z"/>
			
				<ellipse transform="matrix(-1 -0.0055 0.0055 -1 410.3012 221.6159)" fill="none" stroke="#231F20" stroke-width="1.1765" stroke-miterlimit="10" cx="205.453" cy="110.247" rx="7.547" ry="5.699"/>
			<g>
				<g>
					<path fill="#231F20" d="M197.952,102.044c0,0,1.539,0.014,3.762,0.394c1.113,0.179,2.396,0.447,3.756,0.801
						c1.361,0.349,2.797,0.779,4.208,1.29c1.412,0.51,2.8,1.098,4.07,1.733c1.273,0.626,2.428,1.306,3.36,1.992
						c0.939,0.672,1.652,1.367,2.054,1.936c0.202,0.281,0.329,0.526,0.382,0.705c0.054,0.171,0.084,0.263,0.084,0.263
						s-0.067-0.068-0.192-0.194c-0.111-0.129-0.339-0.265-0.597-0.436c-0.537-0.333-1.369-0.693-2.383-1.091
						c-1.02-0.387-2.222-0.812-3.514-1.268c-1.297-0.449-2.682-0.928-4.064-1.429c-1.383-0.498-2.76-1.023-4.048-1.537
						c-1.29-0.508-2.488-1.011-3.507-1.478C199.28,102.816,197.952,102.044,197.952,102.044z"/>
				</g>
			</g>
			<path fill="none" stroke="#231F20" stroke-width="1.1765" stroke-miterlimit="10" d="M119.678,52.644
				c0,0,6.043-90.839,93.816-32.448c87.773,58.39,36.132-17.051,36.132-17.051s51.446,55.111-7.399,57.405
				c0,0,15.516,10.919,0.055,46.235l-9.16,1.713"/>
			<path fill="none" stroke="#231F20" stroke-width="1.1765" stroke-miterlimit="10" d="M119.678,52.644
				c0,0-31.938,10.6-10.973,48.91l5.957,2.497l-13.209-4.076l-1.654,38.8"/>
			<polygon fill="none" stroke="#231F20" stroke-width="1.1765" stroke-miterlimit="10" points="233.121,108.498 249.366,106.824 
				244.891,136.492 227.312,139.475 			"/>
			<path fill="none" stroke="#231F20" stroke-width="1.1765" stroke-miterlimit="10" d="M240.237,116.137
				c-7.207-3.402-9.076,2.813-9.076,2.813s11.67-0.082,10.703,7.795"/>
			<path fill="none" stroke="#231F20" stroke-width="1.1765" stroke-miterlimit="10" d="M115.75,114.457
				c0,0-2.996-6.721-7.098-3.201"/>
			<path fill="none" stroke="#231F20" stroke-width="1.1765" stroke-miterlimit="10" d="M115.854,115.454
				c0,0-8.199-4.824-8.562,4.955"/>
			<polyline fill="none" stroke="#231F20" stroke-width="1.1765" stroke-miterlimit="10" points="175.138,150.191 175.113,154.898 
				149.918,154.759 147.086,149.543 			"/>
			<g>
				<g>
					<g>
						<path fill="#969595" d="M60.217,142.425c-0.244-0.224-0.459-0.468-0.66-0.72c-9.724,3.424-17.355,6.127-18.277,6.505
							c-2.619,1.075-1.838,4.667-0.46,6.554l-0.002,0.002c0.019,0.026,0.041,0.053,0.059,0.078c0.019,0.023,0.034,0.05,0.053,0.072
							h0.003c1.398,1.881,5.095,4.362,7.802,3.409c1.259-0.443,13.71-5.548,27.216-11.105
							C70.123,147.209,64.895,146.709,60.217,142.425z"/>
						<path fill="#B1B1B1" d="M60.315,142.509c-8.796,3.098-15.711,5.547-16.525,5.88c-0.215,0.088-0.385,0.238-0.508,0.432
							c-0.584,0.906-0.225,2.785,0.695,4.047l0.037,0.051c0,0,0.049,0.066,0.057,0.075c1.135,1.523,3.785,3.068,5.047,2.624
							c1.006-0.354,10.441-4.217,21.309-8.686C66.803,146.478,63.436,145.328,60.315,142.509z"/>
						<path fill="#3B3C3B" d="M75.071,147.213c-13.193,5.429-25.313,10.396-26.532,10.825c-2.313,0.815-5.82-1.394-7.225-3.278
							c0,0-0.018-0.025-0.044-0.06c0,0-0.035-0.048-0.059-0.083c-1.086-1.486-1.67-3.867-0.774-5.259
							c0.24-0.374,0.588-0.676,1.063-0.871c0.91-0.374,8.564-3.086,18.285-6.507c-0.16-0.178-0.309-0.364-0.443-0.556
							c-9.74,3.429-17.348,6.125-18.283,6.508c-2.837,1.164-2.174,4.866-0.638,6.976l0.084,0.112
							c0.001,0.001,0.034,0.044,0.036,0.046c1.566,2.105,5.455,4.579,8.388,3.544c1.295-0.456,14.102-5.706,27.917-11.392
							C76.246,147.222,75.657,147.22,75.071,147.213z"/>
					</g>
					<g>
						<path fill="#575757" d="M112.315,121.42c-0.188,0.403-0.457,0.772-0.76,1.118c0.889,0.797,1.502,1.829,1.887,2.948
							c1.828,1.197,2.853,3.219,3.066,5.344c0.414-0.008,0.814,0.038,1.179,0.149C119.522,131.539,113.241,119.428,112.315,121.42z"
							/>
						<path fill="#3B3C3B" d="M112.91,120.97c-0.366-0.149-0.696-0.025-0.859,0.328c-0.177,0.38-0.433,0.728-0.716,1.055
							c0.152,0.124,0.297,0.252,0.436,0.387c0.32-0.369,0.607-0.762,0.809-1.196c0,0,0.024-0.037,0.029-0.049
							c0.002-0.001,0.002-0.002,0.002-0.003c0.004,0,0.307-0.019,1.145,1.07c1.975,2.569,4.108,7.345,3.971,8.131
							c-0.388-0.111-0.812-0.152-1.252-0.14c0.027,0.193,0.047,0.385,0.061,0.579c0.375-0.003,0.74,0.028,1.066,0.128
							c0.305,0.093,0.566-0.027,0.666-0.307C118.764,129.555,114.508,121.625,112.91,120.97z"/>
					</g>
					<g>
						<circle fill="#969595" cx="142.677" cy="110.728" r="31.916"/>
						<circle fill="#B1B1B1" cx="142.704" cy="110.671" r="30.22"/>
						<path fill="#3B3C3B" d="M156.261,81.526c-16.103-7.491-35.296-0.484-42.786,15.617c-4.525,9.73-3.752,20.586,1.117,29.31
							c0.639,0.681,1.124,1.486,1.449,2.361c3.16,4.67,7.578,8.571,13.052,11.117c16.103,7.49,35.296,0.482,42.786-15.62
							C179.37,108.21,172.364,89.016,156.261,81.526z M171.35,124.065c-7.355,15.81-26.2,22.69-42.01,15.336
							c-15.811-7.354-22.689-26.2-15.336-42.011c7.354-15.81,26.2-22.69,42.011-15.336
							C171.826,89.409,178.704,108.255,171.35,124.065z"/>
					</g>
					<circle fill="#E0E0E0" cx="142.677" cy="110.728" r="27.02"/>
					<circle opacity="0.6" fill="#F4F5F5" cx="142.678" cy="110.728" r="25.638"/>
					<path opacity="0.7" fill="#FFFFFF" d="M136.463,112.925c1.286-8.665,1.509-18.104-0.42-26.959
						c5.612-1.506,11.766-1.127,17.447,1.516c1.93,0.897,3.689,2.007,5.276,3.284c-8.525,13.112-9.571,28.837-6.427,43.706
						c-6.368,2.59-13.752,2.631-20.477-0.496c-0.982-0.458-1.916-0.975-2.813-1.535
						C132.749,126.565,135.459,120.142,136.463,112.925z"/>
					<path fill="#3B3C3B" d="M154.196,85.965c-13.654-6.352-29.93-0.41-36.283,13.245c-6.351,13.654-0.408,29.931,13.246,36.282
						c13.654,6.351,29.932,0.41,36.283-13.245C173.792,108.593,167.852,92.316,154.196,85.965z M131.405,134.962
						c-13.363-6.216-19.178-22.143-12.961-35.506c6.216-13.362,22.144-19.177,35.507-12.961
						c13.362,6.216,19.177,22.144,12.961,35.507C160.696,135.364,144.767,141.178,131.405,134.962z"/>
					<g>
						<path fill="#FFFFFF" d="M161.53,97.729c-0.145,0.1,2.506,3.206,3.541,8.039c1.085,4.797,0.34,8.787,0.529,8.805
							c0.111,0.064,1.133-4,0.022-8.93C164.555,100.67,161.596,97.592,161.53,97.729z"/>
						<path fill="#FFFFFF" d="M125.851,128.895c-0.111,0.076,0.692,1.316,2.081,2.467c1.414,1.121,2.816,1.616,2.861,1.494
							c0.07-0.168-1.15-0.858-2.506-1.933C126.954,129.817,125.994,128.788,125.851,128.895z"/>
						<path fill="#FFFFFF" d="M126.764,93.601c0.131-0.091-5.826,5.555-7.324,15.07c-1.396,9.672,3.852,16.448,3.881,16.139
							c0.2,0.095-4.693-6.65-3.322-16.06C121.443,99.477,127.118,93.718,126.764,93.601z"/>
					</g>
					<g>
						<path fill="#D7D7D7" d="M154.673,84.21c0.064,0.03,6.278,3.065,11.089,9.354c4.447,5.814,8.58,15.67,3.012,29.615
							c-0.055,0.137-0.21,0.203-0.347,0.148c-0.137-0.054-0.204-0.209-0.148-0.346c5.472-13.703,1.429-23.375-2.927-29.077
							c-4.732-6.195-10.848-9.185-10.91-9.214c-0.132-0.065-0.188-0.223-0.123-0.356C154.382,84.202,154.541,84.146,154.673,84.21z"
							/>
					</g>
					<g>
						<path fill="#D7D7D7" d="M130.561,84.615c0.068,0.131,0.018,0.292-0.113,0.359c-8.645,4.52-14.413,12.365-15.828,21.524
							c-1.339,8.663,1.459,17.453,7.482,23.514c12.414,12.489,26.851,8.345,26.994,8.302c0.142-0.043,0.289,0.038,0.332,0.178
							c0.043,0.141-0.037,0.29-0.178,0.332c-0.147,0.045-14.88,4.285-27.526-8.437c-6.144-6.18-8.996-15.142-7.632-23.972
							c1.441-9.328,7.313-17.315,16.109-21.915C130.332,84.434,130.493,84.484,130.561,84.615z"/>
					</g>
					<g>
						<path fill="#D7D7D7" d="M61.447,143.447l-0.894,0.33c-2.23,0.823-4.246,1.504-6.025,2.105
							c-7.047,2.379-10.582,3.574-8.991,7.381c0.063,0.155,0.29,0.242,0.503,0.196c0.214-0.046,0.336-0.208,0.27-0.362
							c-1.389-3.326,1.73-4.38,8.563-6.688c1.786-0.603,3.809-1.287,6.05-2.113l1.119-0.413
							C61.84,143.744,61.643,143.597,61.447,143.447z"/>
					</g>
					<g>
						<path fill="#FFFFFF" d="M134.987,129.655c0.061-0.131,0.967,0.104,1.289-0.015c0.324-0.117,0.826-0.677,0.918-0.633
							c0.095,0.044-0.119,0.502,0.113,1.154c0.232,0.65,0.755,0.832,0.719,0.908c-0.035,0.076-0.65-0.059-1.131,0.153
							c-0.482,0.21-1.004,0.755-1.068,0.725c-0.064-0.03,0.086-0.771-0.098-1.278C135.543,130.161,134.948,129.739,134.987,129.655z
							"/>
						<path fill="#C9C9CA" d="M137.208,128.977c-0.06-0.029-0.159,0.052-0.378,0.235c-0.178,0.149-0.4,0.336-0.565,0.396
							c-0.157,0.058-0.47,0.025-0.745-0.001c-0.344-0.035-0.524-0.049-0.563,0.033l0,0c-0.024,0.053,0.042,0.122,0.185,0.271
							c0.178,0.184,0.445,0.461,0.557,0.766c0.115,0.318,0.098,0.729,0.085,1.001c-0.009,0.215-0.011,0.278,0.03,0.297
							c0.043,0.02,0.104-0.025,0.303-0.188c0.202-0.165,0.509-0.413,0.793-0.538c0.295-0.129,0.643-0.125,0.873-0.123
							c0.174,0.002,0.253,0.002,0.274-0.045c0.023-0.048-0.027-0.087-0.118-0.157c-0.155-0.12-0.445-0.342-0.599-0.777
							c-0.146-0.407-0.114-0.737-0.095-0.936C137.256,129.077,137.264,129.002,137.208,128.977z M137.997,131.05
							c-0.02,0.014-0.123,0.013-0.216,0.011c-0.235-0.002-0.592-0.005-0.9,0.129c-0.293,0.127-0.602,0.38-0.809,0.547
							c-0.104,0.085-0.213,0.172-0.223,0.186c-0.01-0.021-0.006-0.132-0.001-0.24c0.013-0.277,0.031-0.696-0.089-1.027
							c-0.117-0.317-0.391-0.601-0.57-0.79c-0.077-0.08-0.162-0.169-0.169-0.199c0.03-0.039,0.306-0.013,0.491,0.006
							c0.284,0.029,0.605,0.061,0.775-0.002c0.176-0.064,0.404-0.255,0.586-0.408c0.121-0.102,0.271-0.229,0.307-0.227
							c0.012,0.014,0.006,0.097-0.002,0.17c-0.02,0.203-0.053,0.544,0.098,0.964c0.161,0.454,0.461,0.684,0.622,0.808
							C137.898,130.979,137.989,131.058,137.997,131.05z"/>
					</g>
					<g>
						<path fill="#FFFFFF" d="M125.694,108.775c0.063-0.131,0.967,0.103,1.289-0.015c0.322-0.117,0.824-0.676,0.919-0.633
							c0.093,0.044-0.12,0.502,0.112,1.153c0.232,0.652,0.754,0.832,0.719,0.909c-0.035,0.076-0.649-0.059-1.131,0.151
							c-0.482,0.21-1.004,0.755-1.067,0.725c-0.063-0.03,0.085-0.771-0.1-1.277C126.25,109.282,125.655,108.86,125.694,108.775z"/>
						<path fill="#C9C9CA" d="M127.916,108.098c-0.062-0.029-0.16,0.052-0.38,0.235c-0.177,0.149-0.399,0.337-0.565,0.396
							c-0.156,0.058-0.469,0.026-0.744-0.001c-0.344-0.035-0.525-0.048-0.563,0.033l0,0c-0.025,0.054,0.039,0.122,0.185,0.272
							c0.177,0.184,0.443,0.462,0.555,0.766c0.116,0.318,0.098,0.729,0.087,1.001c-0.012,0.213-0.012,0.277,0.03,0.296
							c0.042,0.02,0.103-0.027,0.302-0.188c0.203-0.164,0.508-0.413,0.792-0.537c0.296-0.13,0.644-0.126,0.873-0.124
							c0.174,0.002,0.253,0.003,0.276-0.045c0.021-0.048-0.027-0.087-0.12-0.157c-0.153-0.12-0.443-0.343-0.599-0.777
							c-0.145-0.406-0.113-0.738-0.094-0.935C127.963,108.198,127.971,108.124,127.916,108.098z M128.705,110.171
							c-0.021,0.013-0.125,0.012-0.217,0.01c-0.235-0.002-0.592-0.005-0.9,0.129c-0.292,0.128-0.604,0.38-0.808,0.547
							c-0.106,0.085-0.214,0.173-0.224,0.186c-0.011-0.021-0.006-0.132-0.002-0.24c0.014-0.277,0.031-0.695-0.09-1.026
							c-0.114-0.317-0.388-0.602-0.568-0.791c-0.078-0.08-0.162-0.169-0.169-0.199c0.028-0.039,0.306-0.011,0.492,0.007
							c0.282,0.028,0.603,0.06,0.774-0.002c0.177-0.064,0.402-0.255,0.586-0.409c0.121-0.101,0.272-0.229,0.307-0.227
							c0.013,0.014,0.004,0.097-0.002,0.17c-0.02,0.203-0.053,0.544,0.098,0.965c0.162,0.453,0.461,0.683,0.621,0.807
							C128.604,110.099,128.696,110.178,128.705,110.171z"/>
					</g>
					<g>
						<path fill="#FFFFFF" d="M157.869,108.264c0.062-0.132,0.968,0.103,1.29-0.015c0.322-0.119,0.824-0.677,0.918-0.633
							c0.094,0.043-0.119,0.502,0.113,1.152c0.231,0.651,0.754,0.833,0.719,0.909c-0.035,0.076-0.65-0.059-1.132,0.152
							c-0.481,0.211-1.003,0.756-1.067,0.726c-0.064-0.03,0.085-0.772-0.099-1.279C158.424,108.77,157.829,108.348,157.869,108.264z
							"/>
						<path fill="#C9C9CA" d="M160.09,107.585c-0.06-0.028-0.16,0.053-0.378,0.235c-0.179,0.15-0.399,0.336-0.565,0.397
							c-0.157,0.058-0.47,0.025-0.746-0.002c-0.343-0.034-0.523-0.048-0.563,0.035l0,0c-0.023,0.053,0.041,0.121,0.186,0.271
							c0.177,0.184,0.444,0.462,0.555,0.767c0.115,0.318,0.098,0.729,0.086,1c-0.01,0.215-0.01,0.277,0.031,0.296
							c0.043,0.02,0.101-0.026,0.303-0.188c0.201-0.164,0.508-0.412,0.791-0.537c0.297-0.129,0.643-0.125,0.874-0.122
							c0.174,0.001,0.253,0.002,0.274-0.046c0.023-0.048-0.027-0.087-0.118-0.158c-0.155-0.119-0.444-0.341-0.599-0.775
							c-0.146-0.407-0.113-0.739-0.096-0.937C160.139,107.687,160.147,107.612,160.09,107.585z M160.879,109.659
							c-0.02,0.013-0.123,0.013-0.216,0.011c-0.235-0.002-0.591-0.007-0.9,0.129c-0.292,0.127-0.602,0.379-0.808,0.547
							c-0.105,0.084-0.214,0.172-0.223,0.186c-0.012-0.022-0.006-0.133-0.002-0.24c0.014-0.277,0.031-0.696-0.09-1.027
							c-0.115-0.317-0.389-0.601-0.569-0.79c-0.077-0.081-0.162-0.17-0.169-0.199c0.029-0.04,0.306-0.013,0.492,0.006
							c0.282,0.029,0.604,0.061,0.775-0.002c0.176-0.064,0.402-0.255,0.584-0.408c0.123-0.103,0.273-0.23,0.307-0.228
							c0.014,0.014,0.006,0.098,0,0.171c-0.021,0.204-0.053,0.544,0.098,0.964c0.162,0.453,0.461,0.684,0.62,0.806
							C160.779,109.586,160.871,109.667,160.879,109.659z"/>
					</g>
				</g>
			</g>
			<polyline fill="none" stroke="#231F20" stroke-width="1.1765" stroke-miterlimit="10" points="99.917,117.285 85.143,115.285 
				83.575,120.28 83.61,114.11 70.365,114.037 56.737,127.707 58.192,143.167 69.262,146.617 73.032,133.393 72.034,146.631 
				86.811,147.945 90.293,131.054 93.989,131.075 94.905,132.588 			"/>
			
				<line fill="none" stroke="#231F20" stroke-width="1.1765" stroke-miterlimit="10" x1="75.201" y1="130.972" x2="70.887" y2="130.949"/>
			<polyline fill="none" stroke="#231F20" stroke-width="1.1765" stroke-miterlimit="10" points="99.901,120.369 114.057,122.467 
				113.911,149.36 102.192,151.897 103.83,133.869 107.223,133.272 			"/>
			<polyline fill="none" stroke="#231F20" stroke-width="1.1765" stroke-miterlimit="10" points="103.83,133.869 99.742,149.282 
				88.037,149.219 90.293,131.054 			"/>
			<polyline fill="none" stroke="#231F20" stroke-width="1.1765" stroke-miterlimit="10" points="114.01,131.186 120.188,128.056 
				128.454,137.084 114.659,145.017 			"/>
			<polyline fill="none" stroke="#231F20" stroke-width="1.1765" stroke-miterlimit="10" points="45.538,147.718 9.802,171.633 
				1.136,179.272 36.67,192.025 70.71,163.258 94.108,165.658 102.192,151.897 			"/>
			<path fill="none" stroke="#231F20" stroke-width="1.1765" stroke-miterlimit="10" d="M56.737,127.707
				c-1.855,1.273-11.198,20.012-11.198,20.012l5.483,11.118"/>
			<path fill="none" stroke="#231F20" stroke-width="1.1765" stroke-miterlimit="10" d="M141.678,170.41
				c0,0,5.045,26.839-6.617,36.325c0,0,14.491,14.864,29.91,11.561l1.756-31.408"/>
			<path fill="none" stroke="#231F20" stroke-width="1.1765" stroke-miterlimit="10" d="M195.709,173.045
				c0,0-8.788,28.737-0.211,38.333c0,0-17.303,10.685-30.527,6.916"/>
			<path fill="none" stroke="#231F20" stroke-width="1.1765" stroke-miterlimit="10" d="M224.142,161.328
				c-0.95,0.125,51.548,31.701,51.548,31.701s-54.148-11.511-63.154,1.901c-9.006,13.412-0.074,13.461-0.074,13.461l-16.971,4.219"
				/>
			<path fill="none" stroke="#231F20" stroke-width="1.1765" stroke-miterlimit="10" d="M119.565,152.353
				c0.948,0.136-63.928,34.765-63.928,34.765s54.272-10.916,63.131,2.594c8.858,13.509-0.074,13.461-0.074,13.461l16.924,4.405"/>
			<path fill="none" stroke="#231F20" stroke-width="1.1765" stroke-miterlimit="10" d="M275.69,193.029
				c0,0-67.732-5.774-61.995,14.977"/>
			<path fill="none" stroke="#231F20" stroke-width="1.1765" stroke-miterlimit="10" d="M60.107,186.301
				c0,0,62.262-6.743,56.586,17.253"/>
			<path fill="none" stroke="#231F20" stroke-width="1.1765" stroke-miterlimit="10" d="M127.395,49.569
				c0,0-2.996-71.446,122.307-3.764c0,0,15.247,16.511,19.285-12.01"/>
			<path fill="none" stroke="#231F20" stroke-width="1.1765" stroke-miterlimit="10" d="M135.406,47.026
				c0,0,9.311-47.834,109.932,3.458c0,0,10.192,12.631,20.509,0.113"/>
		</g>
		<g opacity="0.7">
			<circle fill="#CDB54A" cx="142.677" cy="112.584" r="19.599"/>
			<circle fill="#DFC34E" cx="142.677" cy="112.583" r="16.483"/>
			<path fill="#FFFFFF" d="M146.673,106.343c-1.019-0.23-2.398-0.475-4.079-0.379c-1.145,0.064-2.895,0.88-2.84,1.847
				c0.176,3.113,9.407,1.3,9.791,8.1c0.139,2.469-0.827,5.073-4.225,5.946l0.162,2.863l-3.508,0.198l-0.15-2.684
				c-1.432,0.081-2.672-0.245-3.555-0.626c-0.515-0.221-0.996-0.481-1.408-0.781l-0.168-3.007c0.623,0.253,1.246,0.469,1.904,0.683
				c1.133,0.332,2.586,0.645,3.981,0.566c2.612-0.147,3.429-1.595,3.352-2.954c-0.226-4.009-9.419-1.516-9.789-8.064
				c-0.143-2.54,1.836-4.375,4.634-5.071l-0.155-2.755l3.507-0.198l0.154,2.719c1.188,0.077,2.137,0.346,2.832,0.594
				c0.404,0.157,0.736,0.318,1.032,0.48l0.171,3.007C147.839,106.636,147.291,106.488,146.673,106.343z"/>
		</g>
	</g>
	<g>
		<g>
			<path fill="#231F20" d="M191.972,106.337c0,0,0.374-0.488,1.14-1.249c0.775-0.744,1.934-1.786,3.548-2.751
				c1.594-0.979,3.661-1.918,6.089-2.266c1.207-0.184,2.508-0.188,3.798,0.029c1.3,0.192,2.564,0.675,3.747,1.267
				c0.576,0.329,1.147,0.664,1.657,1.073c0.542,0.372,1.011,0.813,1.482,1.248c0.938,0.868,1.691,1.864,2.375,2.832
				c0.668,0.979,1.252,1.965,1.699,2.938c0.5,0.95,0.859,1.895,1.181,2.764c0.359,0.854,0.548,1.687,0.77,2.4
				c0.23,0.711,0.35,1.355,0.463,1.879c0.221,1.051,0.322,1.653,0.322,1.653s-0.292-0.544-0.763-1.498
				c-0.233-0.477-0.509-1.058-0.859-1.706c-0.36-0.643-0.698-1.396-1.161-2.164c-0.444-0.779-0.924-1.617-1.481-2.463
				c-0.265-0.432-0.548-0.866-0.874-1.281c-0.332-0.411-0.594-0.888-0.961-1.287c-0.672-0.852-1.444-1.652-2.258-2.402
				c-0.816-0.752-1.729-1.402-2.697-1.911c-0.967-0.506-1.984-0.933-3.047-1.109c-1.055-0.184-2.126-0.312-3.175-0.207
				c-1.042,0.096-2.07,0.232-3.025,0.507c-0.951,0.269-1.858,0.561-2.673,0.903c-1.639,0.666-2.955,1.398-3.873,1.922
				C192.481,105.992,191.972,106.337,191.972,106.337z"/>
		</g>
		
			<ellipse fill="#231F20" stroke="#231F20" stroke-width="1.1765" stroke-miterlimit="10" cx="205.23" cy="109.513" rx="7.987" ry="7.356"/>
		
			<ellipse fill="#FFFFFF" stroke="#231F20" stroke-width="1.1765" stroke-miterlimit="10" cx="202.342" cy="106.049" rx="2.887" ry="2.778"/>
		<polygon opacity="0.2" fill="#FFFFFF" stroke="#231F20" stroke-width="1.1765" stroke-miterlimit="10" points="205.422,108.856 
			205.422,115.946 210.811,112.4 		"/>
	</g>
	<path fill="#332B29" d="M247.911,68.774c-0.102-0.628-0.906-0.5-1.096-0.007c-0.523-1.983-1.129-3.944-1.846-5.875
		c-0.262-0.706-1.398-0.401-1.135,0.313c1.58,4.256,2.684,8.645,3.334,13.137c0.067,0.468,0.535,0.519,0.85,0.31
		c0.061,0.494,0.102,0.993,0.109,1.495c0.01,0.692,0.982,0.746,1.145,0.174c0.299,0.008,0.611-0.179,0.62-0.565
		C249.971,74.596,248.405,71.833,247.911,68.774z"/>
</g>
</svg>
