<?xml version="1.0" encoding="utf-8"?>
<!-- Generator: Adobe Illustrator 17.0.0, SVG Export Plug-In . SVG Version: 6.00 Build 0)  -->
<!DOCTYPE svg PUBLIC "-//W3C//DTD SVG 1.1//EN" "http://www.w3.org/Graphics/SVG/1.1/DTD/svg11.dtd">
<svg version="1.1" id="Layer_1" xmlns="http://www.w3.org/2000/svg" xmlns:xlink="http://www.w3.org/1999/xlink" x="0px" y="0px"
	 width="287.975px" height="240.018px" viewBox="0 0 287.975 240.018" enable-background="new 0 0 287.975 240.018"
	 xml:space="preserve">
<g>
	<path fill="#00C7C4" d="M227.027,198.122c-1.666-0.009-3.25,0.258-4.758,0.727c0.307-0.426,0.302-1.095-0.074-1.523
		c-1.392-1.592-3.355-3.46-5.29-3.62c-0.864-0.653-1.81-1.164-2.874-1.479c-0.195-0.285-0.494-0.485-0.887-0.485
		c-0.09,0-0.177,0.033-0.266,0.056c-0.152-0.227-0.316-0.451-0.448-0.688c-0.026-0.14-0.046-0.278-0.076-0.418
		c-0.171-0.768-1.029-0.956-1.654-0.673c-0.445,0.203-0.829,0.456-1.185,0.729c-0.119,0.304-0.305,0.577-0.568,0.781
		c0.389,2.936,0.239,5.88,0.221,8.844c-0.002,0.489-0.158,0.879-0.398,1.176c0.054,0.079,0.1,0.164,0.158,0.24
		c-0.545,0.145-1.08,0.471-1.548,1.074c-0.102,0.133-0.212,0.254-0.321,0.376c-2.523,0.822-5.119,1.412-7.722,2.052
		c-0.662,0.163-0.869,0.729-0.769,1.248c-0.324,0.046-0.649,0.093-0.975,0.144c-3.077,0.477-5.869,1.357-8.331,3.062
		c-1.896,0.513-3.792,1.025-5.685,1.55c-0.461,0.128-0.688,0.455-0.76,0.815c-0.207-0.106-0.418-0.222-0.625-0.326
		c-0.837-0.422-1.598,0.242-1.688,0.94c-0.472,0.477-0.579,1.331,0.176,1.754c1.758,0.986,2.986,2.844,3.936,4.886
		c0.108,1.28,0.387,2.578,0.771,3.855c0,0.11-0.007,0.218,0.03,0.342c0.601,2.013,1.604,3.966,2.474,5.936
		c0.107,1.545,0.111,3.1,0.113,4.646c0,0.873,0.815,1.211,1.463,1.033c0.011,0.406,0.032,0.813,0.038,1.218
		c0,0.024,0.011,0.046,0.012,0.069c-0.047,0.618-0.156,1.245-0.348,1.884c-0.315,1.053,1.125,1.946,1.883,1.095
		c5.426-6.102,9.25-13.588,13.686-20.401c2.191-3.366,4.828-7.444,7.979-10.932c0.656,0.255,1.55-0.06,1.553-0.982
		c0-0.215,0.005-0.43,0.007-0.646c3.601-3.539,7.817-6.134,12.75-6.108C228.48,200.381,228.48,198.13,227.027,198.122z"/>
	<path fill="#00C7C4" d="M174.844,214.324c0.146-0.319,0.361-0.554,0.621-0.708c-0.414-1.155-1.688-2.043-3.064-1.376
		c-0.217-0.572-0.672-1.06-1.434-1.28c-1.436-0.413-3.258-0.924-5.227-1.555c-2.393-1.345-5.222-2.33-8.057-3.215
		c-2.412-1.236-4.564-2.721-6.047-4.49c-0.584-0.207-1.17-0.408-1.764-0.587c-1.068-0.323-1.449-1.252-1.33-2.116
		c-0.117-0.827,0.233-1.734,1.058-2.089c-0.035-0.653,0.007-1.332,0.152-2.042c-0.219-0.662-0.105-1.447,0.337-1.983
		c-0.256-1.423-2.029-2.468-3.372-1.583c-1.192,0.787-2.386,1.56-3.599,2.294c-3.537,0-7.598,0.393-8.561,3.752
		c-0.217,0.45-0.301,0.948-0.194,1.414c-0.005,0.164-0.024,0.315-0.019,0.488c0.049,1.378,1.416,2.672,2.851,2.171
		c0.024-0.009,0.048-0.019,0.073-0.028c1.633,1.653,2.449,4.005,3.496,6.128c0.887,1.799,2.126,3.452,3.441,5.023
		c0.002,1.025,0.455,2.05,1.568,2.754c0.568,0.36,1.145,0.704,1.721,1.052c5.521,6.456,10.542,13.958,14.924,21.184
		c0.955,1.572,3.711,1.445,4.115-0.539c0.512-2.51,0.697-5.014,0.957-7.443c0.329,0.088,0.678,0.091,1.016,0.033
		C168.976,224.095,170.262,217.767,174.844,214.324z"/>
	<path opacity="0.9" fill="#542C1C" d="M287.444,81.766c-0.732-2.567-1.898-4.938-3.81-7.042c-0.173-0.189-0.287-0.39-0.374-0.593
		c-0.482-0.014-0.963-0.18-1.315-0.532c-0.759-0.759-0.725-1.97,0-2.734c0.044-0.046,0.074-0.075,0.096-0.094
		c0.009-0.015,0.011-0.021,0.021-0.04c0.007-0.014,0.011-0.019,0.018-0.032c0.021-0.105,0.042-0.249,0.045-0.208
		c0.002-0.045,0.006-0.09,0.006-0.135c0.01-0.464,0.185-0.888,0.462-1.224c0.018-0.225,0.071-0.454,0.178-0.689
		c0.92-2.038-0.537-4.086-1.133-6.014c-0.169-0.545-0.098-1.013,0.11-1.391c-1.002-1.591-2.159-3.097-3.505-4.491
		c-5.223-3.163-11.588-6.944-17.491-4.776c-1.925,0.707-2.941-1.678-1.968-3.028c-0.289-0.306-0.48-0.728-0.48-1.274
		c-0.005-4.741,0.466-13.431-2.912-18.027c-2.181-1.614-4.891-2.694-8.229-3.01c-1.599-0.152-3.178-0.01-4.734,0.322
		c-0.341-0.196-0.704-0.364-1.08-0.519c-0.654,0.042-1.303,0.078-1.936,0.089c-0.303,0.006-0.566-0.048-0.796-0.144
		c-0.439,0.213-0.85,0.498-1.215,0.891c-0.919,0.988-3.002,0.594-3.231-0.853c-0.281-1.784-0.308-3.552,0.027-5.286
		c-0.554-0.498-1.157-0.971-1.862-1.383c-0.648-0.38-1.359-0.682-2.105-0.914c-0.227-0.464-0.454-0.937-0.686-1.414
		c-0.639,0.324-1.271,0.403-1.865,0.29c-0.037,0.099-0.084,0.192-0.145,0.276c0.111,0.635-0.234,1.365-1.068,1.365
		c-1.057,0-1.342-1.171-0.879-1.834c-0.061-0.329,0.001-0.684,0.196-0.953c-0.591-0.664-1.065-1.568-1.357-2.632
		c-0.489-1.787-0.736-3.596-1.637-5.239c-0.903-1.649-1.862-3.231-2.663-4.904c-2.436-1.787-5.352-2.767-8.963-2.369
		c-1.318,0.145-2.563,0.423-3.748,0.798c-1.225,0.863-2.555,1.584-3.925,2.213c-1.216,0.917-2.509,1.7-3.876,2.328
		c-0.16,0.14-0.324,0.273-0.482,0.417c-0.028-0.054-0.061-0.106-0.09-0.16c-0.803,0.336-1.619,0.636-2.479,0.851
		c-0.35,0.087-0.65,0.018-0.883-0.137c-0.303,0.251-0.604,0.519-0.938,0.794c-0.085,0.069-0.165,0.104-0.249,0.161
		c0.262,1.042-1.046,2.126-1.854,1.14c-1.548-1.89-3.387-3.519-4.827-5.495c-2.913-0.561-5.925,0.638-6.96,4.24
		c-0.323,1.119-1.757,0.963-2.141,0.148c-2.104-0.888-3.766-2.687-5.772-3.772c-1.873-1.012-3.782-1.957-5.685-2.908
		c-1.521-0.243-3.025-0.326-4.51-0.266C161.158,0.591,159.2,0,156.859,0c-2.412,0-4.412,0.632-6.02,1.671
		c-0.112,0.025-0.222,0.043-0.334,0.071c-3.563,0.89-6.539,3.791-9.063,6.853c0.023,0.373-0.121,0.759-0.518,1.02
		c-1.339,0.887-1.52,2.538-2.091,3.915c-0.212,0.51-0.466,0.968-0.749,1.398c-0.031,0.064-0.053,0.132-0.088,0.195
		c-0.108,0.204-0.23,0.384-0.359,0.552c0.466,0.996-0.898,2.177-1.838,1.274c-0.359,0.108-0.734,0.174-1.122,0.196
		c-0.69,0.711-1.433,1.355-2.328,1.928c-0.883-0.011-1.768,0.02-2.653,0.087c-0.091,0.15-0.213,0.291-0.403,0.4
		c-2.114,1.206-1.195,4.969-1.54,7.009c-0.079,0.477-0.635,0.863-1.1,0.839c-1.104-0.057-2.21-0.257-3.314-0.458
		c-0.168,0.136-0.365,0.245-0.626,0.27c-2.472,0.24-5.607,0.472-8.448,1.254c0.018,0.449-0.221,0.868-0.816,0.956
		c-1.235,0.185-2.359,0.466-3.373,0.89c-0.555,0.38-1.063,0.808-1.504,1.302c-0.468,0.523-0.893,1.071-1.297,1.632
		c-0.703,3.206-1.615,6.355-2.49,9.515c0.244,1.202,0.57,2.44,0.862,3.814c0.741,0.175,0.866,0.89,0.599,1.455
		c0.316,0.633,0.617,1.274,0.871,1.941c0.527,1.377-1.682,1.968-2.201,0.606c-0.092-0.24-0.207-0.468-0.309-0.702
		c-0.008-0.001-0.014,0-0.021-0.001c-0.525-0.112-1.063-0.237-1.604-0.359c-0.5,0.673-1.657,0.389-1.951-0.403
		c-1.154-0.201-2.316-0.316-3.457-0.207c-4.435,0.432-5.552,3.604-6.447,7.399c-0.474,2.01-1.492,3.525-2.701,4.9
		c-1.503,2.227-4.334,4.471-5.409,6.521c-1.956,3.724-2.714,8.659-1.866,13.104c0.055,0.046,0.106,0.096,0.158,0.156
		c2.441,2.966,4.455,6.078,7.836,8.076c1.036,0.613,0.451,2.02-0.489,2.111c-1.063,1.281-1.832,2.838-2.305,4.359
		c-1.169,3.761,1.398,6.753,4.551,7.52c-0.663,1.825-1.155,3.665-1.396,5.759c-0.339,2.981,1.407,4.864,3.69,5.595
		c0.056,0.936,0.136,1.872,0.283,2.805c0.469,2.927,3.247,4.48,5.986,4.467c3.139,10.295,7.893,20.012,12.778,29.774
		c1.544,3.083,3.819,4.771,6.301,5.409c0.788,1.596,2.252,2.833,4.396,3.106c3.338,1.584,8.057,0.526,8.747-3.733
		c0.954-5.905,1.364-11.859,3.001-17.635c0.732-2.581-0.129-4.66-1.672-5.999c0.5-2.41,0.983-4.798,1.297-7.134
		c0.064-0.473,0.077-0.928,0.052-1.367c3.548-6.96,3.769-17.518,1.238-25.779c0.017-0.649,0.032-1.299,0.053-1.95
		c0.265-8.216,0.38-17.53,6.075-24.001c4.29-4.875,8.435-8.479,11.326-14.059c2.099-0.548,4.291-0.909,6.523-1.103
		c3.467,0.999,6.557,3.384,10.268,3.918c1.553,0.223,2.924-0.029,4.066-0.584c3.361,1.618,7.413,2.513,10.984,3.049
		c1.951,1.251,4.027,1.794,6.482,1.883c2.4,0.085,4.859-1.284,6.975-2.214c2.429-1.067,4.387-1.356,7.033-1.469
		c5.744-0.246,11.544,0.235,17.025,1.987c0.674,0.69,1.293,1.478,1.851,2.353c0.334,0.807,0.741,1.533,1.22,2.177
		c1.912,3.874,3.084,8.541,4.042,11.908c1.508,5.306,2.126,10.825,2.708,16.36c-0.48,13.225-2.881,26.72,0.025,39.728
		c-0.544,1.684-0.422,3.608,0.359,5.186c-0.082,0.343-0.16,0.689-0.265,1.026c-0.532,1.719-0.294,3.504,0.462,5.046
		c-0.139,0.691-0.175,1.407-0.105,2.111c-0.509,1.449-0.515,3.084-0.025,4.535c0.152,2.969,2.14,5.825,5.975,5.825
		c2.181,0,3.762-0.926,4.751-2.27c1.259-0.644,2.19-1.637,3.068-2.855c0.891-1.237,1.546-2.705,1.895-4.187
		c0.426-1.817,0.396-3.401,0.156-5.131c0.342,0.029,0.714,0.094,1.191,0.183c0.494,0.091,0.994,0.184,1.495,0.276
		c2.151-2.232,5.76-2.316,8.665-2.892c4.685-0.928,8.492-4.236,12.892-6.036c0.007-0.01,0.015-0.018,0.022-0.027
		c3.453-4.73,5.005-9.315,5.279-14.48c-0.211-2.153-0.633-4.329-1.318-6.532c-0.108-0.35-0.111-0.666-0.051-0.951
		c-1.255-1.128-0.209-3.775,1.866-3.304c0.591,0.134,1.183,0.114,1.776,0.004c0.209-0.195,0.465-0.333,0.762-0.379
		c0.285-0.045,0.57-0.104,0.85-0.175c-0.109-0.606-0.248-1.204-0.459-1.78c1.168-2.682,2.213-5.397,3.102-8.163
		c-0.177-1.313-0.449-2.598-1.084-3.741c-0.426-0.769-0.316-1.712,0.303-2.343c0.41-0.419,0.843-0.711,1.305-0.914
		c0.747-1.702,1.536-3.333,2.094-5.066C287.472,86.837,287.558,84.34,287.444,81.766z"/>
	<path fill="#FDC880" d="M245.318,130.497c-0.238-5.338-0.82-10.664-1.768-15.913c-0.137-0.75,0.125-1.367,0.563-1.793
		c0.741-2.905-1.07-5.981-3.955-6.775c-1.838-0.506-3.719-0.009-5.09,1.133c-1.525-0.004-3.026,0.512-4.061,1.576
		c0.198-3.854,0.631-7.704,0.894-11.202c0.742-9.831-0.586-18.549-5.409-27.229c-3.773-6.792-10.277-10.716-17.768-9.38
		c-5.723-0.656-11.924,0.79-16.267,4.128c-2.985,0.466-5.948,3.129-5.378,6.998c0.711,4.834-0.616,9.766-0.201,14.639
		c0.089,1.038,0.25,2.061,0.439,3.079c-0.069,0.41-0.134,0.818-0.184,1.218c-6.123,16.034-1.992,32.31,0.643,48.74
		c-0.385-0.049-0.809-0.011-1.273,0.159c-1.063,0.39-2.136,0.687-3.212,0.917c-0.025-0.624-0.395-1.191-1.219-1.332
		c-0.605-0.104-1.214-0.126-1.824-0.106c-0.033-1.542,0.049-3.091,0.063-4.645c0.011-1.478-1.539-1.95-2.542-1.421
		c-1.058-0.484-2.505-0.021-2.337,1.421c0.141,1.194,0.217,2.389,0.27,3.585c-0.071,0.518-0.109,1.042-0.148,1.564
		c-1.096,0.066-2.18,0.003-3.236-0.399c-0.342-0.13-0.648-0.139-0.916-0.073c-1.017-0.205-2.043-0.351-3.098-0.367v-4.687
		c0-1.061-0.803-1.601-1.625-1.628c-0.442-0.165-0.941-0.136-1.389,0.212c-0.246-0.166-0.551-0.272-0.926-0.272
		c-1.923,0.001-3.809,0.078-5.702,0.436c-0.136,0.025-0.261,0.063-0.374,0.11c-0.125-0.017-0.253-0.027-0.378-0.046
		c-0.907-0.229-1.816-0.444-2.729-0.648c-0.167-0.058-0.335-0.101-0.5-0.166c-0.292-0.117-0.556-0.141-0.796-0.108
		c-4.223-0.89-8.498-1.526-12.786-1.829c-2.347-0.166-3.154,2.133-2.461,3.846c-0.083,3.694-0.395,7.322-1.003,10.977
		c-0.313,1.863,1.252,4.334,3.462,3.462c1.131-0.445,2.277-0.787,3.431-1.085c0.217,0.044,0.447,0.068,0.699,0.06
		c8.311-0.271,16.625,0.172,24.93-0.259c3.927,0.273,7.835,0.393,11.67-0.046c-0.004,0.04-0.014,0.076-0.016,0.117
		c-0.432,10.446-1.881,20.81-2.164,31.25c-1.332,5.504-1.541,11.268-1.577,16.944c-0.372,1.515-0.847,2.997-1.503,4.419
		c-0.749,1.621,0.066,3.139,1.262,3.859c-0.08,0.809-0.013,1.628,0.201,2.402c-0.234,0.397-0.506,0.737-0.829,0.984
		c-2.832,2.18-0.034,7.074,2.841,4.86c0.742-0.571,1.373-1.242,1.926-1.979c0.797,0.127,1.682,0.067,2.654-0.277
		c7.209-2.555,14.662-4.011,21.606-7.321c0.118-0.056,0.222-0.119,0.331-0.179c2.455-0.911,4.316-3.294,3.381-6.554
		c-0.701-2.445-1.226-4.892-1.627-7.349c0.564-2.733,1.178-5.45,1.665-8.184c1.972-0.194,3.8-0.626,5.493-1.258
		c0.327,0.052,0.672,0.061,1.047-0.012c4.132-0.795,8.688-2.25,12.042-5.012c0.994,0.296,2.044,0.037,2.837-0.692
		c0.533-0.492,0.791-1.206,0.971-1.89c0.188-0.713,0.109-1.574-0.191-2.332c0.477-1.031,0.631-2.264,0.278-3.665
		c-0.913-3.61-1.322-7.277-1.482-10.969c0.397-5.364,0.345-10.769,1.395-16.054c0.054-0.268,0.061-0.52,0.049-0.763
		c1.885,0.234,3.6,0.132,5.127-0.27c0.558,0.183,1.178,0.284,1.866,0.284c3.858,0,5.666-3.182,5.423-6.163
		C245.017,131.212,245.162,130.85,245.318,130.497z"/>
	<path fill="#FFE3C6" d="M208.492,113.002c-0.209-0.554-0.684-0.991-1.504-1.103c-6.633-0.905-13.072-2.667-19.541-4.325
		c0.05-7.675-0.612-15.34-0.887-23c0.445-3.173,0.811-6.348,0.881-9.527c0.021-0.947-0.236-1.717-0.669-2.311
		c-0.025-0.28-0.061-0.562-0.105-0.842c0.097-1.45,0.222-2.901,0.399-4.352c0.372-3.042-2.354-4.214-4.707-3.577
		c-0.433-0.757-1.174-1.356-2.234-1.488c-0.791-0.098-1.588-0.23-2.391-0.383c-0.986-0.541-2.064-0.952-3.191-1.25
		c-4.027-2.37-9.541-3.876-14.014-2.507c-3.611-0.312-7.188,0.042-10.648,1.779c-7.433,3.724-13.004,11.098-11.137,19.463
		c-1.138,5.264-1.296,10.91-1.123,16.495c-1.026,2.547-1.289,5.702-1.592,7.931c-0.311,2.277-0.617,4.683-0.76,7.1
		c-0.041-0.114-0.096-0.221-0.145-0.331c-0.457-2.03-1.92-3.79-4.381-4.137c-0.902-0.948-2.201-1.571-3.903-1.571
		c-4.577,0-6.266,4.478-5.068,7.786c-0.323,0.675-0.534,1.448-0.56,2.346c-0.18,6.241-4.059,17.823,3.223,21.589
		c2.304,1.193,4.533,1.058,6.445,0.142c0.887-0.088,1.646-0.36,2.287-0.758c-0.017,3.786,0.256,7.544,0.426,11.327
		c-0.333,0.266-0.583,0.67-0.668,1.248c-0.977,6.642-0.581,13.297-0.791,19.975c-0.069,0.374-0.087,0.788-0.04,1.262
		c0.108,1.097,0.783,1.782,1.576,2.045c0.372,1.017,0.872,1.921,1.568,2.634c1.396,1.426,3.263,1.628,5.157,1.955
		c3.236,0.558,6.462,1.159,9.719,1.189c-1.024,4.247,0.05,8.177,1.037,12.26c-0.119,1.783-0.23,3.54-0.197,5.193
		c-1.727,1.965-1.322,5.685,1.204,7.145c0.233,0.881,0.919,1.652,2.075,1.726c1.758,0.113,3.468,0.198,5.145,0.372
		c0.035,0.023,0.061,0.05,0.098,0.07c4.549,2.654,9.111,5.268,13.883,7.505c2.389,1.121,4.492-2.021,2.832-3.511
		c0.027-10.263,1.92-20.408,1.86-30.66c-0.009-1.422-0.04-2.865-0.073-4.319c0.307-1.339,0.537-2.684,0.727-4.03
		c1.244-6.395,1.074-12.942,2.174-19.361c0.111-0.248,0.207-0.502,0.328-0.748c0.729-1.474-0.768-2.811-1.955-2.523
		c-0.235,0.013-0.48,0.078-0.73,0.213c-0.626,0.338-1.264,0.662-1.895,0.994c-0.161-0.04-0.325-0.073-0.497-0.093
		c-0.389-0.109-0.799-0.188-1.258-0.193c-11.721-0.146-24.797-3.455-36.094,0.911c-0.605,0.234-1.086,0.567-1.498,0.945
		c0.021-0.428-0.053-0.818-0.217-1.154c-0.006-0.581-0.021-1.161-0.055-1.733c-0.371-6.274-0.567-11.986,0.145-18.063
		c0.009,0.002,0.02,0.002,0.03,0.004c0.382,0.828,1.18,1.406,2.417,1.266c0.482-0.054,0.964-0.09,1.443-0.13
		c0.431,0.731,1.199,1.259,2.309,1.256c4.475-0.009,8.926-0.034,13.361,0.113c0.175,0.051,0.348,0.093,0.522,0.151
		c2.886,0.936,5.767,1.516,8.427,0.455c1.133,0.124,2.264,0.266,3.395,0.435c1.251,0.356,2.502,0.713,3.774,0.958
		c1.845,0.354,3.372,0.093,4.606-0.63c4.916,0.722,9.818,1.26,14.916,0.501c0.061-0.009,0.107-0.028,0.162-0.039
		c0.014,0,0.023,0,0.035,0c2.641,0.33,5.272,0.473,7.896,0.101c0.48,0.003,0.961,0.018,1.44,0.019
		c0.403,0.001,0.698-0.212,0.884-0.503c0.287-0.077,0.572-0.157,0.859-0.249c0.17,0.001,0.338,0.008,0.509,0.002
		c0.46-0.015,0.759-0.262,0.926-0.579c0.968-0.699,0.396-2.504-0.85-2.007c-0.328,0.131-0.659,0.236-0.989,0.345
		c-3.604,0.024-7.161-0.497-10.69-1.225c-0.288-0.138-0.622-0.198-0.98-0.202c-0.659-0.143-1.317-0.292-1.977-0.444
		c-1.758-0.474-3.874-1.185-4.268-2.7c-0.643-2.469,0.086-5.713,0.064-8.304c0.467,0.067,0.938,0.139,1.404,0.201
		c0.568,0.205,1.139,0.414,1.717,0.606c3.123,1.041,6.402,1.268,9.53,0.223c3.701,0.015,7.423-0.271,11.212-1.004
		C211.931,116.846,210.992,112.971,208.492,113.002z"/>
	<path fill="none" stroke="#231F20" stroke-width="1.1257" stroke-miterlimit="10" d="M233.647,27.966c0,0,2.232-15.428-8.128-8.411
		c0,0-0.319-32.387-32.602-9.176c0,0-6.494-12.955-12.641-0.54c0,0-30.361-25.37-42.813,8.096c0,0-11.434-2.609-8.975,10.03
		c0,0-30.467-5.712-21.291,23.976c0,0-16.193-9.262-15.653,8.324c0,0-24.317,17.583-0.013,29.459c0,0-10.782,5.325-1.607,12.649
		c0,0-23.957,25.847,11.875,33.044c0,0-5.82,13.654,7.559,7.318c0,0,6.67,26.338,24.387,13.383"/>
	<g>
		<g>
			<g>
				<g>
					<path fill="#969595" d="M61.121,140.435c2.371-0.987,55.285-19.807,56.941-20.408c0.964-0.351,2.201,1.161,3.223,2.805
						c1.338,1.521,2.401,3.098,1.465,3.485c-1.607,0.662-52.598,22.066-55.049,22.944c-2.367,0.849-5.616-1.307-6.851-2.949
						l-0.004,0.001c-0.016-0.02-0.029-0.043-0.045-0.063c-0.016-0.022-0.036-0.045-0.053-0.067l0.002-0.002
						C59.532,144.532,58.832,141.389,61.121,140.435z"/>
					<path fill="#B1B1B1" d="M63.322,140.58c1.586-0.661,29.678-10.678,43.508-15.607c0.382,1.699,1.461,3.338,2.974,4.515
						c-13.373,5.603-40.151,16.817-41.778,17.401c-1.104,0.395-3.434-0.947-4.436-2.277c-0.006-0.006-0.049-0.065-0.049-0.065
						l-0.035-0.044c-0.811-1.101-1.135-2.747-0.629-3.543C62.986,140.79,63.133,140.657,63.322,140.58z"/>
					<path fill="#3B3C3B" d="M118.742,119.746c-0.297-0.075-0.591-0.064-0.855,0.031l-7.215,2.575
						c-15.539,5.538-47.875,17.063-49.744,17.841l0,0c-2.48,1.034-1.882,4.274-0.525,6.115l0.073,0.098
						c0.002,0.003,0.031,0.039,0.032,0.041c1.383,1.837,4.802,3.984,7.366,3.066c1.929-0.691,33.039-13.725,47.989-19.989
						l7.08-2.963c0.256-0.106,0.432-0.277,0.506-0.496c0.217-0.627-0.385-1.733-1.811-3.345
						C120.533,120.935,119.585,119.962,118.742,119.746z M61.182,146.172c0,0-0.016-0.021-0.038-0.051c0,0-0.033-0.042-0.052-0.073
						c-0.959-1.297-1.481-3.38-0.704-4.604c0.209-0.329,0.513-0.596,0.928-0.769c1.848-0.769,35.381-12.721,49.699-17.824
						l7.221-2.576c0.053-0.019,0.123-0.035,0.244-0.003c0.352,0.09,1.137,0.558,2.475,2.709c1.724,1.956,1.832,2.686,1.742,2.948
						c-0.031,0.09-0.088,0.123-0.139,0.145l-7.085,2.966c-13.776,5.771-46.04,19.287-47.944,19.97
						C65.506,149.736,62.424,147.818,61.182,146.172z"/>
				</g>
				<g>
					<path fill="#7E7E7E" d="M113.555,123.145c3.582-1.772,6.079-3.005,6.357-3.146c0.636-0.32,1.45,1.062,2.124,2.566
						c0.883,1.391,1.584,2.834,0.967,3.187c-0.275,0.157-2.747,1.595-6.279,3.649C114.971,127.781,113.903,125.541,113.555,123.145z
						"/>
					<path fill="#969595" d="M118.051,121.786c0.236,1.503,1.046,2.808,1.958,3.934c-1.394,0.81-2.915,1.682-3.079,1.776
						c-1.015-1.115-1.729-2.538-2.067-4.132C115.189,123.202,116.754,122.428,118.051,121.786z"/>
					<path fill="#3B3C3B" d="M121.01,120.077c-0.185-0.094-0.379-0.112-0.562-0.049l-4.636,1.542l-2.094,0.696
						c-0.104,0.034-0.174,0.133-0.174,0.244c0.012,2.561,0.84,4.973,2.33,6.792c0.072,0.088,0.192,0.118,0.297,0.076l6.721-2.747
						c0.18-0.072,0.316-0.211,0.393-0.403c0.219-0.547-0.032-1.604-0.761-3.194C122.027,121.317,121.533,120.35,121.01,120.077z
						 M116.169,128.827c-1.31-1.667-2.05-3.831-2.099-6.14c0.314-0.104,1.903-0.631,1.903-0.631l4.64-1.544
						c0.035-0.012,0.084-0.02,0.158,0.02c0.219,0.113,0.672,0.607,1.275,2.679c0.877,1.928,0.855,2.6,0.765,2.828
						c-0.007,0.02-0.017,0.035-0.026,0.049c-0.025,0.041-0.057,0.059-0.084,0.069l-5.404,2.208
						C117.297,128.365,116.448,128.712,116.169,128.827z"/>
				</g>
				<g>
					<path fill="#575757" d="M127.986,124.97c-1.52-0.456-3.734,0.345-4.838,1.713c-1.251,1.549-5.835-7.031-4.207-7.071
						c1.195-0.031,3.489-1.243,4.292-2.993C124.036,114.87,129.597,125.451,127.986,124.97z"/>
					<path fill="#717171" d="M120.954,119.857c0.478,1.257,1.372,2.336,2.599,2.898c-0.78-1.141-1.63-2.128-1.854-3.311
						c0.449-0.282,0.883-0.62,1.265-1.012c0.228,1.972,1.44,3.696,2.88,5.157c-1.205,0.214-2.419,0.823-3.268,1.711
						c-0.879-0.689-2.603-3.697-2.882-4.995C120.085,120.219,120.517,120.068,120.954,119.857z"/>
					<path fill="#3B3C3B" d="M123.753,116.222c-0.321-0.129-0.61-0.019-0.752,0.29c-0.765,1.668-2.954,2.816-4.066,2.844
						c-0.295,0.008-0.502,0.192-0.569,0.507c-0.314,1.474,2.428,6.42,3.965,7.151c0.553,0.264,0.875,0.006,1.017-0.17
						c1.056-1.307,3.147-2.053,4.566-1.629l0,0c0.267,0.079,0.496-0.028,0.582-0.273
						C128.924,123.715,125.157,116.788,123.753,116.222z M128.018,124.717c-1.597-0.454-3.907,0.365-5.069,1.806
						c-0.044,0.055-0.129,0.158-0.398,0.03c-1.406-0.669-3.924-5.462-3.686-6.583c0.007-0.028,0.012-0.048,0.02-0.063
						c0.017-0.039,0.037-0.039,0.063-0.04c1.27-0.032,3.662-1.272,4.519-3.142c0,0,0.021-0.032,0.026-0.043c0-0.002,0-0.004,0-0.004
						c0.004,0,0.27-0.018,1.008,0.933C126.243,119.854,128.135,124.026,128.018,124.717z"/>
				</g>
				<g>
					<circle fill="#969595" cx="149.785" cy="107.105" r="27.964"/>
					<circle fill="#B1B1B1" cx="149.809" cy="107.054" r="26.479"/>
					<path fill="#3B3C3B" d="M161.548,81.452c-14.145-6.486-30.93-0.254-37.414,13.891c-6.486,14.145-0.254,30.929,13.891,37.414
						c14.145,6.486,30.93,0.254,37.414-13.891C181.924,104.721,175.692,87.937,161.548,81.452z M138.238,132.292
						c-13.89-6.368-20.008-22.847-13.64-36.735c6.366-13.889,22.847-20.007,36.735-13.639c13.89,6.367,20.006,22.847,13.64,36.735
						C168.605,132.542,152.127,138.66,138.238,132.292z"/>
				</g>
				<circle fill="#E0E0E0" cx="149.786" cy="107.105" r="23.675"/>
				<circle opacity="0.6" fill="#F4F5F5" cx="149.786" cy="107.105" r="22.465"/>
				<path opacity="0.7" fill="#FFFFFF" d="M144.351,109.06c1.086-7.6,1.235-15.871-0.497-23.621
					c4.911-1.347,10.304-1.045,15.294,1.245c1.693,0.776,3.242,1.74,4.639,2.851c-7.406,11.531-8.246,25.313-5.42,38.326
					c-5.566,2.3-12.037,2.372-17.943-0.336c-0.863-0.396-1.685-0.845-2.472-1.331C141.163,121.029,143.507,115.388,144.351,109.06z"
					/>
				<path fill="#3B3C3B" d="M159.76,85.352c-11.994-5.5-26.229-0.216-31.728,11.779c-5.499,11.995-0.215,26.228,11.78,31.727
					c11.994,5.5,26.227,0.215,31.727-11.78C177.039,105.085,171.756,90.851,159.76,85.352z M140.025,128.393
					c-11.738-5.382-16.91-19.31-11.527-31.049c5.383-11.738,19.311-16.91,31.049-11.527c11.738,5.382,16.91,19.311,11.527,31.049
					C165.691,128.604,151.763,133.775,140.025,128.393z"/>
				<g>
					<path fill="#FFFFFF" d="M166.242,95.624c-0.127,0.089,2.212,2.796,3.141,7.027c0.974,4.197,0.34,7.697,0.508,7.712
						c0.098,0.056,0.973-3.511-0.024-7.825C168.907,98.186,166.301,95.503,166.242,95.624z"/>
					<path fill="#FFFFFF" d="M135.13,123.103c-0.097,0.066,0.612,1.151,1.835,2.151c1.246,0.976,2.477,1.403,2.516,1.295
						c0.061-0.147-1.014-0.746-2.207-1.682C136.099,123.906,135.254,123.008,135.13,123.103z"/>
					<path fill="#FFFFFF" d="M135.76,92.174c0.116-0.081-5.076,4.895-6.345,13.24c-1.177,8.481,3.454,14.393,3.48,14.122
						c0.175,0.082-4.146-5.805-2.99-14.057C131.125,97.349,136.07,92.275,135.76,92.174z"/>
				</g>
				<g>
					<path fill="#D7D7D7" d="M160.17,83.811c0.055,0.026,5.515,2.657,9.76,8.144c3.925,5.072,7.593,13.688,2.781,25.934
						c-0.047,0.12-0.183,0.179-0.303,0.132c-0.119-0.047-0.179-0.183-0.131-0.303c4.729-12.033,1.139-20.489-2.706-25.463
						c-4.175-5.406-9.548-7.996-9.602-8.022c-0.115-0.055-0.164-0.194-0.11-0.311C159.914,83.806,160.053,83.756,160.17,83.811z"/>
				</g>
				<g>
					<path fill="#D7D7D7" d="M139.043,84.282c0.061,0.114,0.018,0.256-0.096,0.316c-7.553,4.002-12.57,10.903-13.766,18.936
						c-1.131,7.597,1.361,15.286,6.67,20.566c10.938,10.883,23.565,7.183,23.691,7.145c0.123-0.038,0.254,0.032,0.291,0.155
						c0.039,0.124-0.031,0.254-0.154,0.292c-0.129,0.039-13.016,3.825-24.156-7.261c-5.414-5.385-7.957-13.223-6.805-20.966
						c1.218-8.18,6.324-15.208,14.01-19.28C138.842,84.125,138.984,84.169,139.043,84.282z"/>
				</g>
				<g>
					<path fill="#D7D7D7" d="M117.767,122.864c0.103,0.078,0.125,0.223,0.047,0.327c-0.042,0.057-1.052,1.379-2.42,0.958
						c-0.123-0.038-0.193-0.169-0.155-0.292c0.038-0.123,0.169-0.192,0.292-0.154c1.053,0.323,1.9-0.782,1.91-0.793
						C117.518,122.808,117.666,122.787,117.767,122.864z"/>
				</g>
				<g>
					<path fill="#D7D7D7" d="M105.149,126.542c0.09,0.125,0.306,0.174,0.478,0.107L78.314,136.91
						c-1.961,0.735-3.729,1.344-5.291,1.88c-5.977,2.055-8.704,2.994-7.471,5.901c0.058,0.136-0.047,0.278-0.234,0.319
						c-0.186,0.042-0.386-0.034-0.443-0.169c-1.412-3.328,1.681-4.392,7.844-6.512c1.555-0.535,3.318-1.141,5.27-1.872l27.313-10.26
						C105.127,126.262,105.058,126.416,105.149,126.542z"/>
				</g>
				<g>
					<path fill="#FFFFFF" d="M143.138,123.725c0.054-0.115,0.85,0.086,1.131-0.019c0.281-0.104,0.719-0.597,0.801-0.56
						c0.082,0.038-0.103,0.441,0.104,1.011c0.208,0.569,0.666,0.726,0.635,0.792c-0.031,0.066-0.569-0.048-0.99,0.139
						c-0.42,0.187-0.877,0.666-0.932,0.641c-0.057-0.026,0.07-0.677-0.094-1.12C143.629,124.166,143.105,123.8,143.138,123.725z"/>
					<path fill="#C9C9CA" d="M145.082,123.121c-0.053-0.024-0.14,0.046-0.331,0.208c-0.155,0.133-0.348,0.297-0.493,0.351
						c-0.136,0.05-0.412,0.026-0.652,0.002c-0.301-0.029-0.46-0.04-0.493,0.032l0,0c-0.023,0.047,0.036,0.107,0.163,0.237
						c0.155,0.161,0.391,0.402,0.49,0.668c0.103,0.278,0.09,0.639,0.08,0.877c-0.008,0.188-0.008,0.243,0.027,0.259
						c0.038,0.017,0.09-0.024,0.266-0.166c0.176-0.146,0.443-0.365,0.691-0.475c0.258-0.114,0.563-0.113,0.766-0.112
						c0.15,0.001,0.221,0.001,0.239-0.041c0.02-0.043-0.024-0.077-0.105-0.138c-0.135-0.104-0.391-0.298-0.529-0.678
						c-0.129-0.355-0.102-0.645-0.087-0.819C145.125,123.209,145.131,123.143,145.082,123.121z M145.783,124.933
						c-0.018,0.011-0.107,0.011-0.188,0.011c-0.209-0.002-0.52-0.003-0.789,0.116c-0.256,0.113-0.526,0.336-0.707,0.484
						c-0.09,0.075-0.186,0.151-0.193,0.163c-0.011-0.018-0.006-0.116-0.003-0.209c0.011-0.243,0.024-0.61-0.083-0.9
						c-0.104-0.278-0.343-0.525-0.502-0.689c-0.068-0.07-0.143-0.147-0.148-0.174c0.023-0.034,0.266-0.012,0.43,0.003
						c0.248,0.023,0.529,0.05,0.679-0.005c0.154-0.057,0.352-0.227,0.511-0.36c0.105-0.09,0.238-0.203,0.268-0.2
						c0.012,0.011,0.005,0.084,0,0.148c-0.016,0.179-0.043,0.477,0.09,0.846c0.145,0.396,0.407,0.596,0.548,0.703
						C145.694,124.87,145.775,124.94,145.783,124.933z"/>
				</g>
				<g>
					<path fill="#FFFFFF" d="M134.895,105.476c0.054-0.116,0.848,0.086,1.131-0.019c0.282-0.104,0.72-0.597,0.802-0.56
						c0.081,0.037-0.104,0.441,0.104,1.01c0.205,0.57,0.664,0.726,0.633,0.792c-0.029,0.066-0.568-0.048-0.99,0.139
						c-0.421,0.187-0.875,0.666-0.93,0.641c-0.058-0.027,0.069-0.677-0.094-1.121C135.385,105.917,134.862,105.549,134.895,105.476z
						"/>
					<path fill="#C9C9CA" d="M136.84,104.871c-0.054-0.024-0.141,0.046-0.332,0.208c-0.154,0.133-0.348,0.297-0.492,0.351
						c-0.139,0.05-0.412,0.025-0.652,0.002c-0.303-0.028-0.461-0.04-0.494,0.032l0,0c-0.021,0.047,0.037,0.107,0.162,0.238
						c0.156,0.161,0.393,0.402,0.491,0.669c0.102,0.278,0.089,0.639,0.08,0.877c-0.007,0.188-0.007,0.243,0.028,0.259
						c0.038,0.017,0.09-0.023,0.264-0.166c0.176-0.146,0.443-0.365,0.691-0.475c0.259-0.114,0.564-0.113,0.765-0.112
						c0.153,0.001,0.223,0.001,0.241-0.04c0.02-0.043-0.023-0.076-0.105-0.138c-0.136-0.104-0.39-0.298-0.528-0.677
						c-0.128-0.357-0.103-0.647-0.087-0.82C136.882,104.959,136.887,104.893,136.84,104.871z M137.541,106.683
						c-0.018,0.013-0.109,0.011-0.189,0.011c-0.207-0.001-0.519-0.002-0.789,0.117c-0.254,0.113-0.525,0.336-0.705,0.484
						c-0.092,0.074-0.186,0.151-0.195,0.164c-0.009-0.019-0.006-0.115-0.002-0.21c0.01-0.243,0.024-0.61-0.082-0.899
						c-0.104-0.277-0.344-0.526-0.502-0.69c-0.07-0.07-0.145-0.147-0.151-0.173c0.026-0.034,0.268-0.012,0.433,0.003
						c0.246,0.023,0.527,0.051,0.678-0.005c0.155-0.057,0.352-0.226,0.512-0.361c0.105-0.09,0.237-0.202,0.267-0.2
						c0.011,0.012,0.006,0.084,0,0.148c-0.017,0.179-0.043,0.477,0.091,0.846c0.143,0.395,0.406,0.596,0.547,0.703
						C137.451,106.621,137.533,106.69,137.541,106.683z"/>
				</g>
				<g>
					<path fill="#FFFFFF" d="M163.084,104.872c0.055-0.115,0.85,0.086,1.131-0.019c0.281-0.104,0.719-0.597,0.801-0.56
						c0.082,0.038-0.102,0.441,0.105,1.011c0.206,0.569,0.665,0.725,0.634,0.793c-0.029,0.066-0.568-0.049-0.99,0.138
						c-0.421,0.187-0.874,0.667-0.932,0.641c-0.057-0.026,0.071-0.677-0.092-1.121C163.575,105.313,163.051,104.947,163.084,104.872
						z"/>
					<path fill="#C9C9CA" d="M165.029,104.267c-0.055-0.024-0.141,0.046-0.33,0.208c-0.156,0.133-0.351,0.296-0.495,0.351
						c-0.138,0.051-0.41,0.025-0.653,0.002c-0.301-0.028-0.459-0.04-0.492,0.032l0,0c-0.021,0.047,0.037,0.106,0.164,0.237
						c0.156,0.16,0.391,0.403,0.489,0.669c0.104,0.278,0.089,0.639,0.08,0.877c-0.007,0.188-0.009,0.243,0.03,0.259
						c0.036,0.018,0.088-0.023,0.262-0.165c0.178-0.145,0.443-0.365,0.691-0.475c0.259-0.114,0.563-0.113,0.765-0.112
						c0.153,0.001,0.222,0.001,0.241-0.041c0.02-0.042-0.025-0.076-0.104-0.137c-0.138-0.104-0.393-0.298-0.53-0.677
						c-0.129-0.356-0.103-0.646-0.087-0.82C165.07,104.355,165.078,104.29,165.029,104.267z M165.729,106.08
						c-0.018,0.012-0.107,0.011-0.189,0.011c-0.206-0.001-0.519-0.002-0.788,0.118c-0.256,0.112-0.525,0.335-0.704,0.482
						c-0.093,0.075-0.188,0.153-0.196,0.164c-0.009-0.018-0.006-0.116-0.002-0.21c0.01-0.243,0.023-0.61-0.082-0.899
						c-0.104-0.277-0.346-0.525-0.504-0.689c-0.068-0.07-0.143-0.147-0.148-0.174c0.025-0.034,0.267-0.012,0.431,0.003
						c0.248,0.023,0.529,0.05,0.679-0.006c0.154-0.057,0.354-0.225,0.511-0.36c0.106-0.09,0.237-0.202,0.269-0.2
						c0.012,0.012,0.004,0.085-0.002,0.148c-0.016,0.179-0.042,0.479,0.09,0.845c0.145,0.396,0.408,0.596,0.549,0.704
						C165.64,106.018,165.72,106.087,165.729,106.08z"/>
				</g>
			</g>
		</g>
		<path fill="#FFE3C6" d="M120.27,116.37c-0.114-1.159-0.403-2.158-0.812-3.038c-0.357-2.475-2.146-4.703-5.375-4.703
			c-0.258,0-0.504,0.018-0.744,0.045c-3.247-0.813-7.074-0.496-10.26,0.422c-0.454-2.353-2.219-4.407-5.318-4.407
			c-0.111,0-0.219,0.011-0.328,0.016c-0.08-0.003-0.153-0.016-0.235-0.016c-1.025,0-1.901,0.23-2.638,0.616
			c-0.239-0.027-0.48-0.054-0.74-0.054c-0.779,0-1.47,0.137-2.082,0.368c-0.322-0.051-0.656-0.086-1.012-0.086
			c-0.9,0-1.681,0.18-2.356,0.482c-1.991-2.793-6.636-3.28-9.028-0.38c-0.123,0.02-0.238,0.062-0.361,0.085
			c-0.782-0.47-1.746-0.75-2.889-0.75c-1.562,0-2.779,0.525-3.67,1.343c-1.406,0.229-2.753,1.023-3.723,2.57
			c-1.225,1.948-2.457,3.875-3.676,5.8c-1.107,0.379-2.108,1.22-2.797,2.643c-0.543,1.117-1.111,2.213-1.691,3.3
			c-0.879,1.203-1.623,2.486-2.256,3.836c-0.645,0.642-1.145,1.515-1.404,2.65c-0.021,0.088-0.046,0.175-0.066,0.263
			c-2.521,4.63-4.744,9.333-5.651,14.646c-1.245,1.769-1.381,4.288-0.42,6.228c-0.147,0.461-0.298,0.922-0.444,1.383
			c-0.435,0.625-0.723,1.345-0.879,2.098c-2.971,1.458-5.725,3.261-8.418,5.165c-2.025,0.648-3.994,1.252-5.455,2.031
			c-2.038,1.087-3.904,2.571-5.569,4.301c-2.908,1.885-5.8,3.8-8.911,5.371c-5.661,2.855-11.485,4.862-15.41,10.056
			c-0.523-0.102-1.053-0.19-1.603-0.234c-2.172-0.176-2.154,3.202,0,3.377c4.352,0.352,8.053,2.789,12.216,3.879
			c2.985,0.783,6.067,1.314,9.157,1.784c4.948,2.693,10.569,5.217,15.52,4.341c5.896,5.58,8.387,0.036,13.041-4.318
			c2.992-2.801,4.76-5.441,6.481-8.926c0.053-0.03,0.107-0.05,0.16-0.087c3.053-2.066,5.613-4.557,6.968-8.044
			c0.046-0.119,0.075-0.232,0.096-0.342c1.524-1.151,3.091-2.296,4.535-3.697c0.353-0.343,0.497-0.729,0.502-1.105
			c2.011-1.89,3.884-3.914,5.501-6.125c5.32,0.068,10.641,0.051,15.957-0.234c1.841-0.099,3.489-0.488,4.987-1.074
			c0.185,0.015,0.37,0.027,0.564,0.027c3.059,0,4.823-2.001,5.304-4.314c2.412-2.968,3.792-6.916,4.154-11.218
			c0.081-0.038,0.163-0.077,0.243-0.119c1.454-0.74,2.798-1.631,3.983-2.729c2.539,1.521,6.059,0.32,7.498-2.138
			C125.009,130.365,120.976,123.565,120.27,116.37z M90.678,143.139c-4.484,0.964-8.463,3.296-13.07,3.665
			c-0.186,0.284-0.368,0.584-0.555,0.913c-1.064,1.867-2.201,3.484-3.924,4.796c-1.001,0.76-1.984,0.285-2.465-0.564
			c-0.781-0.044-1.586-0.189-2.378-0.429c-0.079,0.046-0.146,0.104-0.225,0.149c-1.247,0.691-2.411-0.105-2.776-1.138
			c-0.529,0.41-1.249,0.521-1.989,0.012c-2.204-1.521-4.915-2.463-6.756-4.484c-0.86-0.943-1.793-2.437-1.238-3.778
			c0.649-1.573,1.853-2.273,3.39-2.87c0.734-0.285,1.336-0.108,1.743,0.295c1.405-0.662,3.459,0.14,5.238,1.127
			c0.019-0.004,0.034-0.012,0.056-0.016c1.612-0.271,3.057-0.014,4.479,0.399c0.704-0.414,1.468-0.743,2.272-0.961
			c0.225-0.061,0.436-0.079,0.635-0.07c0.298-0.489,0.818-0.843,1.568-0.843c1.361,0,1.974,1.15,1.851,2.195
			c0.024,0.022,0.058,0.036,0.081,0.059c0.111,0.112,0.2,0.232,0.276,0.355c1.314-0.856,2.862-1.233,4.548-1.202
			c0.747,0.014,1.265,0.374,1.564,0.867c2.195-0.791,4.361-1.715,6.645-2.205C92.08,138.886,93.115,142.615,90.678,143.139z"/>
		<path fill="#FDC880" d="M74.271,139.605c0.521-0.259,1.021-0.27,1.462-0.129c0.3-0.252,0.698-0.416,1.202-0.416l0.003,0.001
			c0.133-0.088,0.263-0.179,0.396-0.268c-0.026-0.11-0.066-0.212-0.081-0.331c-0.246-2.249-0.279-4.494-0.281-6.754
			c0-0.232,0.035-0.442,0.096-0.631l-0.96-0.224c-0.318,1.727-0.971,3.485-1.932,4.958c0.574,0.753,0.52,1.928-0.134,2.618
			c0.071,0.543-0.071,1.088-0.472,1.463C73.804,139.799,74.044,139.719,74.271,139.605z"/>
		<path opacity="0.8" fill="#FDC880" d="M108.939,138.488l-2.583-0.601c-0.221,0.332-0.56,0.604-1.046,0.749
			c-1.867,0.552-3.66,1.29-5.447,2.057c-0.902,0.386-1.905,0.302-2.51-0.507c-0.308,0.293-0.73,0.489-1.281,0.489
			c-1.875,0-2.339-2.186-1.394-3.271c-0.024-0.753-0.049-1.497-0.033-2.241l-1.497-0.349c-0.104,0.519-0.306,0.983-0.561,1.416
			c0.678,1.126,0.152,3.005-1.58,3.037c-0.096,0.002-0.188,0.014-0.281,0.019c-0.258,0.358-0.639,0.632-1.129,0.761
			c-0.065,0.487-0.363,0.937-0.991,1.208c-2.509,1.083-5.099,1.722-7.743,2.226c-0.24,0.071-0.476,0.157-0.719,0.214
			c-3.062,1.708-6.103,3.482-9.615,4.089c-1.298,0.489-2.626,0.839-4.006,0.986c-0.289,0.215-0.664,0.348-1.127,0.348
			c-0.43,0-0.781-0.121-1.063-0.312c-1-0.07-2.03-0.25-3.109-0.602c-0.27-0.087-0.486-0.219-0.668-0.371
			c-0.719-0.213-1.311-0.802-1.314-1.774c0-0.149,0-0.3-0.002-0.451c-0.357-0.527-0.449-1.216-0.014-1.933
			c0.012-0.021,0.026-0.042,0.039-0.063c0.052-0.879,0.186-1.749,0.521-2.561c0.589-1.419,1.616-2.361,2.934-2.949
			c-1.169-1.415-1.685-3.179-2.01-5.046c-0.422-0.243-0.753-0.626-0.836-1.118c-0.274-1.624-0.615-3.218-1.126-4.784
			c-0.04-0.124-0.062-0.242-0.079-0.358l-3.321-0.772c-0.132,0.282-0.337,0.526-0.587,0.718l3.471,6.184
			c-15.768,43.558,27.333,13.192,27.333,13.192l23.417-4.949l1.08-0.229L108.939,138.488z"/>
		<path fill="#FFE3C6" d="M130.687,116.509c-0.196,0-0.377,0.023-0.551,0.055c-2.733-2.622-5.955-6.038-9.875-4.173
			c-3.878,1.844-3.51,6.547-1.537,9.813c-1.197,1.106-2.272,2.365-3.131,3.861c-1.813,3.151,3.053,5.985,4.859,2.841
			c2.072-3.603,5.757-5.354,9.576-6.586c0.152-0.049,0.287-0.131,0.427-0.204c0.079,0.005,0.149,0.023,0.231,0.023
			C134.318,122.138,134.318,116.509,130.687,116.509z"/>
		<g>
			<polyline fill="none" stroke="#231F20" stroke-width="1.1257" stroke-miterlimit="10" points="116.693,115.129 122.78,110.821 
				133.011,119.138 119.562,129.764 			"/>
			
				<line fill="none" stroke="#231F20" stroke-width="1.1257" stroke-miterlimit="10" x1="78.011" y1="123.54" x2="73.413" y2="124.194"/>
			<polyline fill="none" stroke="#231F20" stroke-width="1.1257" stroke-miterlimit="10" points="112.486,120.944 108.969,122.115 
				110.062,141.58 122.148,137.031 118.068,108.356 102.654,108.352 102.186,105.063 86.132,105.261 85.249,110.829 84.312,104.25 
				70.19,106.259 57.826,122.97 61.812,139.212 74.148,141.143 76.08,126.46 77.105,140.721 93.055,139.793 94.102,121.251 
				98.043,120.69 99.259,122.156 			"/>
			<polyline fill="none" stroke="#231F20" stroke-width="1.1257" stroke-miterlimit="10" points="108.969,122.115 107.041,139.18 
				94.562,140.957 94.102,121.251 			"/>
			<polyline fill="none" stroke="#231F20" stroke-width="1.1257" stroke-miterlimit="10" points="51.416,149.478 1.343,180.492 
				46.582,194.655 78.314,158.644 103.618,157.514 110.062,141.58 			"/>
			<path fill="none" stroke="#231F20" stroke-width="1.1257" stroke-miterlimit="10" d="M57.826,122.97
				c-1.775,1.649-8.778,23.084-8.778,23.084l7.594,10.982"/>
		</g>
		<path opacity="0.7" fill="#F5EA14" d="M221.289,197.087c-0.764,1.215-1.635,2.345-2.545,3.441
			c-0.008-0.028-0.002-0.051-0.012-0.079c-0.382-1.105-0.854-2.135-1.412-3.095c0.584-0.64,1.195-1.255,1.85-1.836
			c0.544-0.482-0.255-1.275-0.796-0.796c-0.596,0.529-1.155,1.084-1.692,1.657c-0.446-0.648-0.921-1.272-1.466-1.841
			c0.081-0.786,0.092-1.591-0.01-2.419c-0.084-0.711-1.211-0.72-1.125,0c0.059,0.479,0.082,0.949,0.074,1.412
			c-0.703-0.601-1.474-1.146-2.319-1.634c-1.26-0.727-2.393,1.219-1.137,1.945c1.181,0.679,2.185,1.489,3.044,2.416
			c-0.308,1.07-0.785,2.083-1.373,3.052c-0.307-0.572-0.609-1.152-0.881-1.755c-0.596-1.323-2.535-0.176-1.945,1.136
			c0.408,0.902,0.918,1.762,1.395,2.63c-0.686,0.832-1.449,1.622-2.262,2.368c-0.346-0.503-0.714-1.001-1.117-1.484
			c-0.928-1.117-2.512,0.485-1.59,1.592c0.365,0.441,0.698,0.893,1.008,1.352c-0.836,0.668-1.692,1.294-2.547,1.882
			c-0.514-0.771-1.09-1.509-1.748-2.2c-1.002-1.053-2.592,0.541-1.592,1.593c0.553,0.581,1.039,1.201,1.471,1.847
			c-0.348,0.222-0.692,0.438-1.027,0.647c-0.549,0.339-1.109,0.662-1.668,0.987c-0.874-1.238-1.818-2.431-2.811-3.572
			c-0.956-1.097-2.542,0.502-1.592,1.592c0.86,0.988,1.677,2.016,2.439,3.081c-0.916,0.496-1.843,0.975-2.782,1.433
			c-0.989-1.53-2.108-2.957-3.317-4.231c-1.002-1.053-2.592,0.541-1.593,1.593c1.034,1.088,1.999,2.301,2.86,3.6
			c-1.371,0.619-2.758,1.202-4.16,1.739c-1.34-1.717-2.787-3.298-4.238-4.681c-1.049-1.001-2.645,0.589-1.592,1.593
			c1.221,1.163,2.449,2.479,3.605,3.906c-1.602,0.557-3.216,1.065-4.834,1.509c-0.699,0.192-0.402,1.277,0.298,1.086
			c1.767-0.484,3.523-1.045,5.263-1.664c0.952,1.248,1.834,2.572,2.604,3.947c-1.585,0.987-3.216,1.902-4.923,2.691
			c-0.658,0.305-0.086,1.274,0.568,0.972c1.691-0.783,3.311-1.69,4.889-2.667c0.991,1.945,1.737,3.979,2.104,6.042
			c-1.426,1.468-2.858,2.926-4.299,4.372c-0.511,0.514,0.285,1.31,0.797,0.796c1.243-1.25,2.467-2.52,3.684-3.792
			c0.07,0.754,0.092,1.511,0.046,2.268c-0.087,1.45,2.165,1.442,2.252,0c0.087-1.455-0.032-2.913-0.311-4.355
			c0.722-0.765,1.441-1.532,2.158-2.301c0.012,0.343,0.039,0.685,0.029,1.028c-0.041,1.453,2.211,1.448,2.252,0
			c0.031-1.089-0.041-2.182-0.197-3.267c0.938-1.012,1.874-2.026,2.811-3.04c0.014,0.076,0.038,0.151,0.053,0.227
			c0.279,1.425,2.449,0.82,2.17-0.598c-0.106-0.545-0.238-1.081-0.391-1.609c0.428-0.463,0.857-0.924,1.287-1.386
			c0.441,0.969,2.177,0.82,2.147-0.457c-0.015-0.575-0.067-1.139-0.14-1.698c0.467-0.493,0.943-0.981,1.428-1.465
			c0.465,0.68,1.746,0.748,2.048-0.29c0.204-0.702,0.312-1.385,0.345-2.051c4.121-3.94,8.43-7.813,11.439-12.598
			C222.648,197.039,221.674,196.475,221.289,197.087z M214.594,197.284c0.201,0.271,0.359,0.575,0.541,0.861
			c-0.695,0.844-1.359,1.709-2.013,2.583c-0.05-0.097-0.101-0.197-0.152-0.296C213.635,199.435,214.197,198.387,214.594,197.284z
			 M212.394,205.627c0.016,0.452,0.255,0.746,0.564,0.917c-0.738,0.696-1.471,1.394-2.205,2.092c-0.1-0.718-0.287-1.416-0.545-2.094
			c0.672-0.798,1.31-1.624,1.932-2.463C212.279,204.575,212.375,205.087,212.394,205.627z M211.485,202.379
			c0.056,0.114,0.103,0.232,0.155,0.348c-0.648,0.869-1.307,1.729-1.992,2.568c-0.116-0.221-0.232-0.443-0.359-0.661
			C210.066,203.924,210.804,203.17,211.485,202.379z M207.56,206.107c0.184,0.335,0.341,0.677,0.48,1.024
			c-0.734,0.781-1.51,1.53-2.357,2.223c-0.206-0.459-0.414-0.92-0.665-1.36C205.865,207.412,206.72,206.78,207.56,206.107z
			 M203.141,209.222c0.273,0.487,0.511,0.99,0.72,1.504c-0.787,0.574-1.57,1.155-2.35,1.746c-0.318-0.559-0.652-1.109-1.008-1.649
			C201.397,210.305,202.275,209.773,203.141,209.222z M198.547,211.932c0.413,0.624,0.799,1.264,1.158,1.918
			c-0.891,0.687-1.784,1.372-2.68,2.055c-0.399-0.858-0.832-1.701-1.314-2.513C196.666,212.923,197.613,212.438,198.547,211.932z
			 M189.615,216.063c1.367-0.533,2.723-1.097,4.059-1.707c0.568,0.941,1.074,1.923,1.518,2.932
			c-1.076,0.796-2.171,1.564-3.277,2.309C191.22,218.373,190.445,217.191,189.615,216.063z M194.541,225.909
			c-0.471-1.815-1.191-3.597-2.082-5.311c1.074-0.718,2.136-1.458,3.181-2.226c0.63,1.652,1.051,3.364,1.245,5.088
			C196.107,224.281,195.324,225.094,194.541,225.909z M198.847,221.359c-0.307-1.486-0.766-2.952-1.352-4.373
			c0.914-0.692,1.824-1.388,2.73-2.088c0.551,1.126,1.016,2.291,1.36,3.507C200.681,219.396,199.763,220.377,198.847,221.359z
			 M202.064,213.492c0.723-0.553,1.449-1.1,2.178-1.639c0.291,0.943,0.493,1.921,0.589,2.93c-0.495,0.558-0.993,1.113-1.493,1.668
			C202.982,215.434,202.554,214.448,202.064,213.492z M206.758,212.66c-0.165-0.749-0.369-1.486-0.629-2.201
			c0.832-0.612,1.598-1.283,2.313-1.992c0.154,0.758,0.186,1.544,0.059,2.366C207.904,211.43,207.326,212.042,206.758,212.66z
			 M214.584,204.978c-0.127-1.093-0.449-2.091-0.877-3.047c0.672-0.925,1.348-1.845,2.057-2.738c0.3,0.588,0.571,1.2,0.799,1.855
			c0.188,0.538,0.641,0.764,1.091,0.764C216.672,202.903,215.639,203.95,214.584,204.978z"/>
		<path opacity="0.7" fill="#F5EA14" d="M172.198,211.584c-2.17,1.703-4.081,3.554-5.696,5.567
			c-0.604-0.604-1.242-1.177-1.896-1.735c1.396-1.637,2.928-3.019,4.455-3.939c1.242-0.748,0.111-2.695-1.137-1.944
			c-1.785,1.075-3.516,2.631-5.072,4.46c-1.337-1.035-2.712-2.021-4.07-3.002c1.443-1.268,3.178-2.156,5.207-2.362
			c1.432-0.145,1.445-2.397,0-2.251c-2.764,0.281-5.119,1.503-7.02,3.271c-0.535-0.414-1.051-0.838-1.552-1.27
			c0.882-0.885,1.763-1.775,2.613-2.706c0.979-1.068-0.608-2.665-1.591-1.591c-0.869,0.949-1.766,1.862-2.66,2.765
			c-0.928-0.943-1.777-1.964-2.544-3.09c0.681-0.783,0.101-2.298-1.054-1.841c-0.023,0.009-0.041,0.022-0.063,0.031
			c-1.057-1.929-1.878-3.966-2.756-5.979c0.995-0.617,1.999-1.19,2.936-1.75c1.246-0.744,0.114-2.69-1.137-1.945
			c-0.884,0.529-1.811,1.072-2.736,1.647c-0.339-0.705-0.693-1.403-1.088-2.085c-0.363-0.628-1.336-0.062-0.971,0.568
			c0.402,0.699,0.777,1.402,1.136,2.11c-0.585,0.381-1.166,0.774-1.726,1.192c-0.221-0.621-0.434-1.242-0.634-1.859
			c-0.223-0.687-1.31-0.392-1.085,0.3c0.244,0.756,0.508,1.524,0.785,2.298c-0.815,0.678-1.576,1.405-2.223,2.21
			c-0.713-1.47-1.672-2.756-3.364-3.644c-0.642-0.336-1.211,0.635-0.568,0.973c1.616,0.847,2.536,2.172,3.218,3.668
			c-0.656,1.022-1.148,2.151-1.393,3.425c-0.271,1.42,1.898,2.024,2.171,0.599c0.075-0.395,0.189-0.768,0.315-1.131
			c0.334,0.956,0.682,1.908,1.138,2.791c0.491,0.947,1.068,1.85,1.699,2.722c-0.156,0.333-0.308,0.672-0.444,1.023
			c-0.479,1.228,1.254,1.804,1.973,0.908c0.892,1.039,1.846,2.027,2.819,2.974c-0.452,0.597-0.893,1.208-1.302,1.852
			c-0.779,1.231,1.169,2.36,1.943,1.136c0.314-0.497,0.646-0.977,0.989-1.443c0.88,0.81,1.772,1.589,2.665,2.352
			c-0.173,0.528-0.332,1.062-0.458,1.6c-0.331,1.413,1.839,2.012,2.171,0.599c0.047-0.203,0.105-0.408,0.161-0.611
			c1.274,1.074,2.53,2.14,3.737,3.241c-0.82,1.934-1.391,3.882-1.605,5.701c-0.172,1.44,2.081,1.423,2.25,0
			c0.152-1.28,0.533-2.659,1.074-4.056c0.746,0.748,1.461,1.521,2.137,2.332c-0.572,1.946-0.904,4.015-0.959,6.227
			c-0.037,1.453,2.215,1.448,2.252,0c0.033-1.367,0.191-2.667,0.449-3.913c1.11,1.658,2.056,3.479,2.758,5.563
			c0.232,0.684,1.32,0.39,1.088-0.3c-0.865-2.558-2.068-4.744-3.496-6.712c0.379-1.34,0.881-2.612,1.496-3.825
			c1.244,1.172,2.287,2.504,2.79,4.083c0.22,0.689,1.306,0.394,1.085-0.3c-0.596-1.867-1.787-3.453-3.264-4.862
			c0.369-0.635,0.776-1.251,1.206-1.855c0.825,1.034,1.56,2.153,2.153,3.398c0.314,0.655,1.285,0.083,0.973-0.567
			c-0.658-1.38-1.487-2.621-2.432-3.764c1.604-2.058,3.541-3.934,5.744-5.662C174.933,212.281,173.328,210.699,172.198,211.584z
			 M152.982,207.662c-0.632,0.637-1.266,1.271-1.881,1.92c-1.004-1.26-1.924-2.6-2.765-3.996c0.606-0.531,1.306-0.964,2.073-1.314
			C151.156,205.459,151.991,206.598,152.982,207.662z M146.486,196.533c0.93,1.971,1.799,3.936,2.807,5.814
			c-0.744,0.372-1.445,0.787-2.061,1.283c-1-1.867-1.875-3.801-2.642-5.747C145.193,197.4,145.835,196.959,146.486,196.533z
			 M144.43,206.92c-0.831-1.219-1.56-2.499-2.102-3.868c-0.251-0.635-0.475-1.268-0.697-1.892c0.535-0.929,1.249-1.743,2.052-2.489
			c0.77,1.943,1.645,3.89,2.644,5.768C145.597,205.173,144.966,206,144.43,206.92z M148.874,212.081
			c-1.043-1.01-2.042-2.078-2.964-3.198c0.417-0.889,0.939-1.703,1.56-2.421c0.851,1.418,1.777,2.777,2.79,4.038
			C149.79,211.018,149.318,211.537,148.874,212.081z M152.899,215.709c-0.423-0.361-0.847-0.728-1.27-1.099
			c-0.37-0.326-0.741-0.659-1.112-0.994c0.393-0.488,0.813-0.949,1.227-1.414c0.506,0.535,1.023,1.052,1.565,1.535
			c0.115,0.103,0.243,0.193,0.36,0.294C153.387,214.577,153.127,215.137,152.899,215.709z M154.263,212.981
			c-0.59-0.538-1.148-1.111-1.693-1.7c0.663-0.704,1.344-1.392,2.028-2.079c0.07,0.059,0.133,0.122,0.204,0.181
			c0.442,0.365,0.898,0.721,1.355,1.073C155.45,211.228,154.816,212.074,154.263,212.981z M158.576,220.607
			c-1.242-1.13-2.538-2.233-3.857-3.349c0.212-0.607,0.464-1.206,0.746-1.792c1.39,1.031,2.842,1.987,4.281,2.947
			C159.327,219.134,158.928,219.864,158.576,220.607z M156.729,214.966c-0.245-0.172-0.48-0.359-0.718-0.541
			c0.546-0.956,1.201-1.84,1.939-2.631c1.398,1.018,2.819,2.02,4.188,3.071c-0.621,0.792-1.212,1.623-1.758,2.484
			C159.09,216.525,157.832,215.744,156.729,214.966z M162.348,224.417c-0.66-0.757-1.352-1.488-2.071-2.198
			c0.385-0.857,0.839-1.71,1.326-2.549c0.712,0.488,1.447,1.007,2.174,1.561C163.231,222.255,162.742,223.312,162.348,224.417z
			 M164.406,220.131c-0.691-0.54-1.41-1.057-2.143-1.55c0.511-0.796,1.062-1.565,1.637-2.298c0.664,0.563,1.305,1.146,1.911,1.761
			C165.31,218.722,164.838,219.416,164.406,220.131z"/>
		<g>
			<g>
				<path fill="none" stroke="#231F20" stroke-width="1.1257" stroke-miterlimit="10" d="M236.625,54.638"/>
				<path fill="none" stroke="#231F20" stroke-width="1.1257" stroke-miterlimit="10" d="M188.845,67.056
					c0,0,35.846-23.665,42.545,17.366l1.079,88.279c0,0-1.079,1.08-12.485,5.529l-26.496,2.979l-3.391,6.066l-10.02,2.572"/>
				<path fill="none" stroke="#231F20" stroke-width="1.1257" stroke-miterlimit="10" d="M180.078,189.847l-13.154-2.572
					l-3.439-7.337l-25.746-3.999c0,0-6.653-2.159-6.426-7.453l6.152-85.785"/>
				<path fill="none" stroke="#231F20" stroke-width="1.1257" stroke-miterlimit="10" d="M201.96,83.497
					c0,0,14.79-1.842,20.419,12.388"/>
				<path fill="none" stroke="#231F20" stroke-width="1.1257" stroke-miterlimit="10" d="M232.308,107.404
					c0,0,12.635-6.113,12.367,5.563c-0.268,11.675-0.445,19.388-0.445,19.388s3.793,7.177-12.68,4.512"/>
				<path fill="none" stroke="#231F20" stroke-width="1.1257" stroke-miterlimit="10" d="M233.647,123.113
					c0,0,4.759-7.011,9.519-5.116"/>
				<path fill="none" stroke="#231F20" stroke-width="1.1257" stroke-miterlimit="10" d="M233.647,123.113
					c0,0,8.126,3.338,9.231,7.464"/>
				<polyline fill="none" stroke="#231F20" stroke-width="1.1257" stroke-miterlimit="10" points="177.539,193.802 176.09,213.277 
					209.233,202.256 209.748,179.381 				"/>
				<polyline fill="none" stroke="#231F20" stroke-width="1.1257" stroke-miterlimit="10" points="176.332,213.331 149.193,201.203 
					149.679,178.818 				"/>
				<polyline fill="#FFFFFF" stroke="#231F20" stroke-width="1.1257" stroke-miterlimit="10" points="187.292,133.842 
					187.182,140.269 180.277,140.114 180.404,132.944 				"/>
				<polyline fill="#FFFFFF" stroke="#231F20" stroke-width="1.1257" stroke-miterlimit="10" points="175.892,133.287 
					175.783,139.714 169.194,139.714 169.006,132.39 				"/>
				<g>
					<path fill="none" stroke="#231F20" stroke-width="1.1257" stroke-miterlimit="10" d="M177.539,194.613l3.817-47.552
						l-43.892,1.071l0.541-17.511c21.773,1.992,39.942,2.704,39.942,2.704c57.759,0.814,8.03-5.721,8.03-5.721l-0.184-8.712
						c57.74,0.857,0.524-11.711,0.524-11.711l1.872-41.275c0,0-47.552-27.481-50.727,16.795"/>
					<path fill="none" stroke="#231F20" stroke-width="1.1257" stroke-miterlimit="10" d="M189.656,141.625
						c0,0,25.877,3.324,35.719-7.232l0.145-6.293l-0.336,14.636"/>
					<g>
						<g>
							<path fill="#231F20" d="M198.943,99.64c0,0,0.265-0.215,0.779-0.477c0.514-0.266,1.278-0.587,2.234-0.82
								c0.955-0.249,2.102-0.371,3.341-0.354c0.615,0.039,1.263,0.052,1.901,0.189c0.32,0.06,0.648,0.11,0.971,0.184l0.957,0.278
								c0.639,0.186,1.252,0.456,1.844,0.738c0.608,0.246,1.137,0.639,1.664,0.962c0.535,0.315,0.967,0.756,1.4,1.117
								c0.436,0.362,0.781,0.782,1.094,1.164c0.309,0.389,0.596,0.728,0.793,1.085c0.211,0.34,0.365,0.66,0.496,0.914
								c0.258,0.515,0.367,0.826,0.367,0.826s-0.328-0.114-0.84-0.347c-0.254-0.119-0.563-0.253-0.888-0.432
								c-0.325-0.18-0.741-0.31-1.14-0.508c-0.404-0.189-0.822-0.412-1.296-0.585c-0.468-0.179-0.912-0.438-1.422-0.603
								c-0.505-0.174-0.987-0.422-1.517-0.581c-0.526-0.169-1.035-0.395-1.579-0.531c-0.524-0.19-1.063-0.336-1.599-0.483
								c-0.527-0.17-1.066-0.268-1.582-0.423c-1.041-0.241-2.037-0.487-2.916-0.662C200.168,99.899,198.943,99.64,198.943,99.64z"/>
						</g>
					</g>
				</g>
			</g>
			<path fill="none" stroke="#231F20" stroke-width="1.1257" stroke-miterlimit="10" d="M229.189,29.811
				c0,0,35.085-17.813,28.607,22.131c0,0,31.309-1.619,23.211,20.512c0,0,13.471,12.854,1.339,23.43c0,0,6.218,15.974-7.274,16.513
				c0,0,14.572,28.608-26.451,32.927c0,0-0.676,22.131-17.07,10.796"/>
			<path fill="#00C7C4" d="M262.956,52.064c-0.325,0-0.598,0.082-0.825,0.212c-0.483-0.19-1.047-0.188-1.563,0.137
				c-0.196-0.254-0.449-0.468-0.821-0.57c-0.323-0.089-0.698-0.057-1.04,0.064c-0.268-0.245-0.629-0.406-1.098-0.406
				c-0.99,0-1.525,0.699-1.614,1.461c-0.286,0.115-0.566,0.31-0.821,0.605c-0.214,0.246-0.435,0.479-0.658,0.707
				c-1.792,0.509-3.649,0.77-5.516,1.227c-3.369,0.824-6.503,2.683-9.85,3.658c-5.869,1.709-11.482,3.119-16.957,5.786
				c-0.172,0.023-0.338,0.064-0.509,0.09c-7.382,0.117-15.226,0.714-21.774,4.145c-0.014,0.006-0.021,0.015-0.035,0.021
				c-1.016,0.028-2.032,0.044-3.053,0.029c-0.521-0.008-0.915,0.185-1.188,0.475c-0.119-0.004-0.237-0.002-0.355-0.007
				c-5.254-0.199-10.392-0.874-15.275,1.067c-2.613-0.161-5.229-0.245-7.848-0.115c-4.746-0.415-9.486-0.923-14.197-1.382
				c-10.496-1.021-21.242-1.276-31.314-4.685c-5.1-1.726-10.113-3.008-15.35-4.241c-5.581-1.315-9.887-5.446-15.619-6.53
				c-0.188-0.036-0.363-0.034-0.533-0.017c-0.041-0.039-0.088-0.071-0.127-0.112c-1.37-1.381-3.41,0.372-2.745,1.865
				c-0.085,0.231-0.138,0.478-0.138,0.736v2.517c-0.201,0.385-0.26,0.845-0.17,1.273c-0.266,0.381-0.371,0.868-0.313,1.322
				c-0.137,0.932,0.396,1.96,1.607,1.923c0.876-0.026,1.687-0.055,2.467-0.064c0.231,0.525,0.719,0.924,1.474,0.908
				c2.228-0.048,4.359,0.382,6.46,0.989c1.775,0.915,3.412,1.532,5.307,1.741c0.412,0.138,0.827,0.261,1.24,0.389
				c-0.021,0.861,0.519,1.713,1.627,1.665c2.061-0.091,4.101,0.019,6.135,0.225c4.907,1.449,9.907,2.554,14.908,3.705
				c3.854,0.889,7.727,1.544,11.617,2.043c0.257,0.447,0.721,0.774,1.393,0.78c1.555,0.014,3.109,0.066,4.662,0.128
				c0.363,0.3,0.842,0.47,1.415,0.374c0.399-0.066,0.798-0.115,1.196-0.157c0.229,0.503,0.703,0.862,1.449,0.781
				c0.633-0.069,1.262-0.118,1.893-0.157c11.795,2.472,23.908,1.472,35.909,1.305c1.821,0.13,3.642,0.263,5.464,0.359
				c3.354,0.177,6.709-0.423,10.002-1.295c9.533-1.206,18.729-3.987,27.574-7.837c4.549-1.395,8.988-3.124,13.273-5.756
				c4.774-2.116,9.328-4.677,13.566-8.137c0.194,0.08,0.415,0.129,0.667,0.129C265.135,55.44,265.135,52.064,262.956,52.064z"/>
			<path opacity="0.7" fill="#F5EA14" d="M258.9,52.884c-0.377,0.324-0.766,0.633-1.15,0.945c-0.514-0.593-1.16-1.08-1.92-1.408
				c-0.658-0.286-1.232,0.684-0.568,0.972c0.635,0.275,1.174,0.667,1.604,1.147c-0.926,0.717-1.881,1.399-2.854,2.056
				c-0.409-0.723-0.861-1.426-1.355-2.098c-0.428-0.577-1.406-0.017-0.974,0.568c0.511,0.693,0.982,1.412,1.397,2.16
				c-1.209,0.784-2.45,1.524-3.715,2.229c-0.424-1.299-1.035-2.566-1.588-3.831c-0.29-0.664-1.26-0.09-0.974,0.568
				c0.541,1.236,1.177,2.496,1.576,3.797c-0.837,0.448-1.684,0.88-2.54,1.299c-0.26-1.508-0.85-2.951-1.902-4.277
				c-0.453-0.568-1.244,0.234-0.797,0.796c0.973,1.226,1.482,2.575,1.668,3.986c-1.303,0.613-2.623,1.189-3.954,1.741
				c-0.14-1.22-0.325-2.437-0.526-3.648c-0.117-0.715-1.201-0.41-1.084,0.299c0.207,1.26,0.391,2.523,0.525,3.791
				c-1.184,0.474-2.375,0.929-3.573,1.363c-0.212-1.378-0.335-2.768-0.349-4.178c-0.008-0.725-1.135-0.725-1.126,0
				c0.015,1.539,0.159,3.055,0.399,4.558c-0.723,0.254-1.445,0.502-2.17,0.743c-0.184-1.334-0.465-2.652-0.878-3.948
				c-0.219-0.69-1.306-0.395-1.085,0.299c0.42,1.318,0.693,2.656,0.869,4.01c-0.995,0.322-1.989,0.636-2.982,0.938
				c-0.25-1.384-0.549-2.758-0.928-4.121c-0.195-0.699-1.283-0.402-1.086,0.299c0.383,1.371,0.683,2.754,0.933,4.146
				c-1.091,0.325-2.177,0.643-3.258,0.947c-0.094,0.027-0.189,0.05-0.282,0.076c-0.156-1.533-0.557-3.028-1.243-4.478
				c-0.31-0.656-1.279-0.083-0.972,0.568c0.641,1.355,0.994,2.764,1.115,4.205c-1.287,0.345-2.576,0.676-3.875,0.981
				c0.011-1.465-0.338-2.989-0.714-4.493c-0.175-0.705-1.261-0.405-1.085,0.299c0.362,1.458,0.758,2.99,0.692,4.444
				c-1.686,0.379-3.384,0.729-5.087,1.043c0.396-1.409,0.629-2.891,0.977-4.361c0.167-0.705-0.918-1.006-1.084-0.299
				c-0.387,1.624-0.605,3.31-1.112,4.875c-1.451,0.254-2.903,0.489-4.364,0.699c-0.104-1.406-0.365-2.834-0.548-4.299
				c-0.089-0.711-1.216-0.72-1.126,0c0.186,1.493,0.497,2.98,0.596,4.446c-1.205,0.164-2.413,0.317-3.622,0.453
				c0.123-1.603,0.241-3.207,0.755-4.75c0.23-0.692-0.857-0.985-1.086-0.299c-0.559,1.681-0.652,3.43-0.791,5.172
				c-1.616,0.17-3.236,0.318-4.857,0.442v-3.964c0-0.726-1.126-0.726-1.126,0v4.043c-1.336,0.093-2.673,0.171-4.009,0.235
				c0.126-1.237,0.381-2.451,0.93-3.619c0.307-0.653-0.662-1.225-0.971-0.569c-0.648,1.38-0.943,2.793-1.082,4.241
				c-1.755,0.074-3.51,0.124-5.262,0.149c0.125-1.521,0.591-2.88,1.859-3.621c0.627-0.365,0.061-1.338-0.568-0.971
				c-1.697,0.993-2.254,2.719-2.375,4.604c-1.439,0.014-2.873,0.016-4.305,0.001c0.271-1.09,0.722-2.122,1.446-3.085
				c0.438-0.58-0.54-1.14-0.972-0.567c-0.839,1.113-1.339,2.337-1.626,3.628c-1.967-0.034-3.931-0.109-5.892-0.221
				c0.111-0.89,0.353-1.731,0.898-2.35c0.477-0.542-0.316-1.341-0.797-0.796c-0.743,0.842-1.064,1.93-1.201,3.068
				c-2.158-0.139-4.316-0.319-6.469-0.537v-3.26c0-0.726-1.127-0.726-1.127,0v3.144c-1.336-0.143-2.674-0.295-4.01-0.463
				c0.193-0.824,0.496-1.626,0.932-2.396c0.359-0.634-0.613-1.201-0.972-0.569c-0.516,0.911-0.86,1.854-1.071,2.821
				c-1.781-0.232-3.564-0.479-5.344-0.747c0.141-0.773,0.457-1.536,1.01-2.257c0.439-0.577-0.539-1.136-0.973-0.568
				c-0.645,0.844-1.001,1.743-1.156,2.657c-1.869-0.287-3.738-0.586-5.604-0.899c0.212-0.381,0.505-0.743,0.89-1.075
				c0.552-0.475-0.249-1.268-0.795-0.796c-0.58,0.499-0.978,1.072-1.246,1.68c-1.492-0.254-2.982-0.513-4.473-0.777
				c0.182-0.454,0.381-0.903,0.598-1.347c0.319-0.648-0.652-1.219-0.971-0.568c-0.277,0.563-0.521,1.139-0.744,1.718
				c-1.818-0.323-3.635-0.648-5.451-0.975c0.057-0.652,0.105-1.305,0.114-1.96c0.011-0.726-1.115-0.725-1.126,0
				c-0.008,0.588-0.048,1.175-0.096,1.76c-0.137-0.024-0.272-0.048-0.408-0.074c-1.464-0.264-2.899-0.553-4.32-0.86
				c0.068-0.736,0.186-1.47,0.302-2.178c0.116-0.71-0.968-1.015-1.086-0.299c-0.12,0.739-0.235,1.491-0.308,2.243
				c-1.835-0.415-3.64-0.876-5.426-1.396c0.324-0.514,0.748-0.975,1.308-1.336c0.605-0.394,0.042-1.369-0.567-0.972
				c-0.817,0.529-1.424,1.204-1.846,1.968c-1.614-0.493-3.216-1.037-4.813-1.643v-2.842c0-0.725-1.126-0.725-1.126,0v2.4
				c-0.905-0.361-1.813-0.743-2.72-1.148c0.045-0.54,0.082-1.082,0.092-1.627c0.016-0.726-1.111-0.724-1.125,0
				c-0.008,0.384-0.027,0.766-0.051,1.146c-1.387-0.641-2.768-1.295-4.154-1.937c0.275-0.214,0.58-0.416,0.924-0.6
				c0.642-0.342,0.073-1.314-0.567-0.972c-0.579,0.309-1.052,0.675-1.472,1.065c-0.954-0.433-1.91-0.854-2.872-1.259
				c0.181-0.312,0.382-0.617,0.611-0.912c0.442-0.575-0.535-1.134-0.974-0.569c-0.258,0.336-0.486,0.684-0.688,1.042
				c-1.418-0.574-2.854-1.096-4.313-1.549c0.201-0.232,0.412-0.46,0.633-0.687c0.507-0.519-0.289-1.316-0.797-0.796
				c-0.363,0.372-0.697,0.755-1.014,1.146c-1.333-0.373-2.684-0.696-4.067-0.916c-0.711-0.113-1.015,0.972-0.299,1.085
				c1.237,0.197,2.446,0.482,3.646,0.803c-0.896,1.341-1.519,2.817-1.788,4.508c-0.027,0.174,0.018,0.322,0.102,0.438
				c-0.082-0.059-0.182-0.102-0.309-0.102c-0.727,0-0.727,1.125,0,1.125c0.52,0,0.659-0.572,0.435-0.9
				c0.3,0.231,0.784,0.204,0.858-0.262c0.273-1.712,0.91-3.165,1.855-4.489c1.545,0.461,3.064,1.007,4.563,1.607
				c-0.896,2.188-0.909,4.653-0.376,7.008c0.16,0.708,1.246,0.408,1.086-0.299c-0.484-2.138-0.463-4.328,0.344-6.291
				c0.871,0.363,1.736,0.742,2.597,1.13c-1.177,1.658-1.255,3.764-0.218,5.971c0.31,0.656,1.279,0.085,0.974-0.568
				c-0.885-1.88-0.773-3.588,0.286-4.922c1.639,0.754,3.271,1.524,4.903,2.285c-0.144,1.777-0.285,3.534,0.16,5.323
				c0.175,0.704,1.26,0.406,1.085-0.299c-0.377-1.516-0.299-3.017-0.173-4.527c0.134,0.061,0.269,0.125,0.403,0.187
				c0.803,0.366,1.608,0.707,2.417,1.031v4.584c0,0.726,1.126,0.726,1.126,0v-4.156c1.445,0.547,2.898,1.047,4.362,1.489
				c-0.304,0.996-0.372,2.086-0.215,3.191c0.101,0.717,1.185,0.41,1.085-0.299c-0.127-0.89-0.064-1.778,0.193-2.589
				c1.929,0.552,3.878,1.035,5.851,1.466c-0.022,1.312,0.159,2.604,0.806,3.808c0.346,0.639,1.317,0.071,0.974-0.567
				c-0.505-0.939-0.673-1.96-0.675-3c1.547,0.324,3.107,0.622,4.686,0.909c-0.084,0.914-0.168,1.83-0.182,2.749
				c-0.011,0.727,1.115,0.726,1.126,0c0.012-0.852,0.085-1.701,0.165-2.548c1.725,0.31,3.449,0.62,5.175,0.924
				c-0.265,0.887-0.437,1.8-0.462,2.749c-0.018,0.727,1.107,0.724,1.125,0c0.023-0.884,0.188-1.734,0.441-2.559
				c1.512,0.264,3.025,0.527,4.539,0.781c-0.188,1.164,0.072,2.405,0.725,3.564c0.357,0.632,1.33,0.065,0.973-0.568
				c-0.532-0.943-0.742-1.908-0.589-2.814c1.96,0.324,3.921,0.635,5.886,0.93c0.033,1.549,0.645,3.095,1.699,4.442
				c0.447,0.572,1.238-0.231,0.797-0.796c-0.847-1.081-1.33-2.28-1.382-3.486c1.751,0.258,3.503,0.502,5.257,0.727
				c-0.104,0.956-0.084,1.934,0.062,2.932c0.102,0.717,1.186,0.411,1.085-0.299c-0.122-0.848-0.135-1.682-0.045-2.499
				c1.396,0.173,2.793,0.344,4.191,0.493v3.28c0,0.726,1.127,0.726,1.127,0v-3.174c2.126,0.214,4.257,0.391,6.392,0.535
				c-0.029,0.779-0.013,1.555-0.013,2.265c0,0.726,1.125,0.726,1.127,0c0-0.654-0.038-1.42-0.018-2.195
				c1.922,0.118,3.849,0.2,5.777,0.25c-0.082,0.637-0.125,1.286-0.132,1.946c-0.008,0.726,1.118,0.726,1.126,0
				c0.007-0.655,0.053-1.293,0.141-1.916c0.6,0.011,1.195,0.042,1.795,0.047c0.896,0.005,1.797-0.016,2.695-0.023
				c0.016,1.583,0.227,3.196,0.246,4.519c0.01,0.725,1.136,0.727,1.126,0c-0.018-1.238-0.278-2.911-0.296-4.527
				c1.736-0.023,3.475-0.074,5.215-0.147c-0.031,0.674-0.04,1.356-0.041,2.047c0,0.726,1.125,0.726,1.125,0
				c0.002-0.702,0.008-1.399,0.039-2.091c1.363-0.065,2.726-0.156,4.089-0.254v2.345c0,0.726,1.126,0.726,1.126,0v-2.424
				c1.586-0.123,3.17-0.274,4.754-0.444c-0.109,1.044-0.27,2.082-0.606,3.093c-0.229,0.69,0.856,0.985,1.085,0.299
				c0.382-1.145,0.545-2.323,0.654-3.51c1.25-0.142,2.492-0.309,3.736-0.48c-0.028,1.206-0.262,2.395-0.916,3.557
				c-0.357,0.632,0.615,1.199,0.973,0.567c0.797-1.413,1.037-2.834,1.039-4.276c1.293-0.188,2.584-0.395,3.871-0.616
				c-0.326,0.697-0.734,1.359-1.291,1.959c-0.494,0.531,0.299,1.329,0.796,0.796c0.843-0.908,1.394-1.917,1.794-2.984
				c1.775-0.321,3.541-0.675,5.299-1.062c-0.184,0.749-0.535,1.464-1.135,2.124c-0.488,0.536,0.306,1.334,0.795,0.796
				c0.896-0.982,1.346-2.055,1.521-3.174c1.346-0.309,2.681-0.647,4.014-0.998c0.002,0.628-0.038,1.261-0.117,1.897
				c-0.088,0.72,1.038,0.711,1.125,0c0.092-0.736,0.127-1.465,0.111-2.187c0.422-0.114,0.852-0.211,1.27-0.329
				c0.795-0.223,1.592-0.454,2.391-0.69c0.131,0.816,0.253,1.634,0.357,2.457c0.09,0.709,1.217,0.718,1.125,0
				c-0.118-0.932-0.255-1.857-0.404-2.781c0.973-0.293,1.945-0.596,2.921-0.911c0.061,0.726,0.103,1.456,0.11,2.19
				c0.008,0.726,1.133,0.727,1.125,0c-0.009-0.854-0.064-1.704-0.143-2.549c0.749-0.248,1.497-0.503,2.246-0.766
				c0.155,0.783,0.33,1.563,0.544,2.339c0.192,0.699,1.279,0.402,1.085-0.299c-0.221-0.804-0.398-1.612-0.555-2.422
				c1.166-0.421,2.326-0.863,3.482-1.324c0.05,0.672,0.089,1.343,0.096,2.02c0.009,0.726,1.135,0.726,1.126,0
				c-0.01-0.822-0.064-1.64-0.136-2.457c1.323-0.545,2.633-1.122,3.927-1.726c0.012,1.08-0.137,2.183-0.393,3.282
				c-0.166,0.706,0.92,1.006,1.085,0.299c0.323-1.389,0.469-2.76,0.392-4.092c0.9-0.437,1.792-0.894,2.674-1.363
				c0.146,0.825,0.175,1.665-0.023,2.53c-0.164,0.706,0.923,1.006,1.084,0.299c0.27-1.17,0.205-2.289-0.038-3.378
				c1.331-0.736,2.632-1.513,3.9-2.332c0.283,0.628,0.528,1.273,0.682,1.957c0.16,0.709,1.245,0.408,1.087-0.299
				c-0.181-0.799-0.473-1.555-0.815-2.287c1.016-0.683,2.008-1.394,2.973-2.137c0.298,0.583,0.471,1.241,0.489,1.947
				c0.019,0.725,1.144,0.727,1.126,0c-0.024-0.951-0.285-1.854-0.727-2.65c0.441-0.355,0.883-0.709,1.311-1.08
				C260.247,53.206,259.447,52.413,258.9,52.884z"/>
			<path fill="none" stroke="#231F20" stroke-width="1.1257" stroke-miterlimit="10" d="M93.276,52.167
				c0,0,71.679,41.087,164.52-0.224l8.111,0.442c0,0-49.134,52.934-175.441,9.243L93.276,52.167z"/>
			<path fill="none" stroke="#231F20" stroke-width="1.1257" stroke-miterlimit="10" d="M209.748,189.847l19.441,11.075
				c0,0-7.536-5.939-12.404,2.159l-27.129,35.626c0,0-5.428-25.008-11.471-26.128"/>
			<path fill="none" stroke="#231F20" stroke-width="1.1257" stroke-miterlimit="10" d="M130.871,198.942
				c1.969-0.18,3.587-0.18,4.396,0.63c11.336,12.145,20.242,25.91,30.634,39.135c0.935-4.218-1.746-2.294,0,0
				c3.372-9.177,2.564-20.512,11.47-26.128"/>
			<path fill="none" stroke="#231F20" stroke-width="1.1257" stroke-miterlimit="10" d="M149.049,189.847
				c-6.082,2.97-12.162,5.939-18.243,8.908"/>
		</g>
		<g opacity="0.8">
			<g>
				<g>
					<path fill="#272626" stroke="#981C1F" stroke-width="1.1257" stroke-miterlimit="10" d="M150.869,123.334
						c-0.158,0-0.309-0.075-0.404-0.204c-2.52-3.357-5.801-5.303-8.973-7.184c-4.701-2.787-9.139-5.418-8.97-12.18
						c0-5.836,4.229-10.595,9.428-10.595c4.128,0,7.645,3.001,8.919,7.167c1.273-4.165,4.791-7.167,8.918-7.167
						c5.199,0,9.43,4.759,9.43,10.608c0.168,6.749-4.271,9.38-8.971,12.168c-3.172,1.881-6.451,3.827-8.973,7.184
						C151.178,123.259,151.028,123.334,150.869,123.334z M141.95,94.203c-4.636,0-8.41,4.296-8.41,9.576
						c-0.152,6.165,3.842,8.533,8.466,11.276c2.95,1.749,6.273,3.72,8.863,6.929c2.59-3.208,5.912-5.18,8.862-6.929
						c4.626-2.742,8.62-5.111,8.466-11.263c0-5.292-3.772-9.588-8.41-9.588c-4.637,0-8.408,4.296-8.408,9.576
						c0,0.285-0.229,0.517-0.51,0.517c-0.281,0-0.51-0.232-0.51-0.517C150.359,98.499,146.587,94.203,141.95,94.203z"/>
				</g>
			</g>
			<path fill="#981C1F" d="M167.453,99.37c-2.128-3.522-5.217-5.957-9.445-5.357c-3.015,0.428-4.889,4.355-6.332,7.027
				c-0.159-0.444-0.344-0.882-0.541-1.306c-2.071-4.42-8.277-6.044-12.592-5.077c-4.285,0.96-5.96,4.887-5.505,8.695
				c-0.046,1.661,0.562,3.483,1.075,4.893c1.582,4.338,6.133,6.115,9.219,9.128c0.93,0.909,2.035,0.973,2.955,0.576
				c0.524,0.438,1.084,0.825,1.664,1.15c0.024,1.388,0.928,2.757,2.718,2.757c1.352,0,2.198-0.781,2.544-1.762
				c0.059-0.012,0.116-0.013,0.174-0.026C160.402,118.453,172.308,107.407,167.453,99.37z"/>
		</g>
	</g>
</g>
</svg>
