<?xml version="1.0" encoding="utf-8"?>
<!-- Generator: Adobe Illustrator 17.0.0, SVG Export Plug-In . SVG Version: 6.00 Build 0)  -->
<!DOCTYPE svg PUBLIC "-//W3C//DTD SVG 1.1//EN" "http://www.w3.org/Graphics/SVG/1.1/DTD/svg11.dtd">
<svg version="1.1" id="Layer_1" xmlns="http://www.w3.org/2000/svg" xmlns:xlink="http://www.w3.org/1999/xlink" x="0px" y="0px"
	 width="150.767px" height="178.761px" viewBox="0 0 150.767 178.761" enable-background="new 0 0 150.767 178.761"
	 xml:space="preserve">
<g>
	<g>
		<g>
			<path fill="#00C7C4" d="M140.708,129.726c-3.384,18.974-21.51,31.612-40.483,28.229l-68.273-12.177
				c-18.975-3.383-31.613-21.508-28.23-40.482L8.41,78.999c3.384-18.974,21.51-31.611,40.484-28.227l68.273,12.175
				c18.975,3.385,31.614,21.509,28.23,40.483L140.708,129.726z"/>
			<path fill="#FFFFFF" d="M124.31,132.193c-1.781,9.987-11.32,16.639-21.307,14.857l-52.215-9.312
				c-9.986-1.782-16.638-11.32-14.857-21.307l5.241-29.383c1.78-9.986,11.32-16.638,21.306-14.856l52.215,9.312
				c9.987,1.781,16.639,11.32,14.857,21.307L124.31,132.193z"/>
			<circle fill="#E9D234" cx="21.885" cy="113.37" r="8.113"/>
			<circle fill="#0A7A74" cx="25.271" cy="94.384" r="6.276"/>
			<path fill="#E9D234" d="M90.252,162.114c-0.032,0.143-0.072,0.281-0.098,0.426l-0.967,5.425
				c-0.891,4.994,2.435,9.762,7.428,10.652c4.994,0.892,9.763-2.435,10.653-7.428l0.968-5.424c0.025-0.145,0.035-0.29,0.055-0.433
				L90.252,162.114z"/>
			<path fill="#E9D234" d="M26.062,150.665c-0.034,0.143-0.073,0.281-0.099,0.426l-0.969,5.424c-0.89,4.994,2.437,9.763,7.43,10.654
				c4.993,0.89,9.763-2.435,10.653-7.429l0.967-5.425c0.026-0.145,0.036-0.288,0.056-0.433L26.062,150.665z"/>
			<path fill="#0A7A74" d="M108.392,55.832c-1.177-9.263-8.232-17.094-17.911-18.82c-9.679-1.726-19.005,3.183-23.313,11.467
				L108.392,55.832z"/>
		</g>
		<g>
			<path fill="#B3F2EF" d="M125.621,88.18L69.11,142.082l12.005,2.141l49.512-47.262C129.822,93.589,128.066,90.586,125.621,88.18z"
				/>
			<path fill="#B3F2EF" d="M119.133,84.062L60.01,140.459l6.002,1.069l57.681-55.066C122.323,85.445,120.785,84.672,119.133,84.062z
				"/>
			<path fill="#B3F2EF" d="M115.91,83.556l-0.633-0.113l-59.324,56.292l2.28,0.406l59.3-56.465
				C117.016,83.536,116.448,83.651,115.91,83.556z"/>
		</g>
		<g>
			<circle fill="#E9D234" cx="54.813" cy="7.93" r="6.323"/>
			<path fill="#E9D234" d="M26.062,150.665c-0.034,0.143-0.073,0.281-0.099,0.426l-0.969,5.424c-0.89,4.994,2.437,9.763,7.43,10.654
				c4.993,0.89,9.763-2.435,10.653-7.429l0.967-5.425c0.026-0.145,0.036-0.288,0.056-0.433L26.062,150.665z"/>
			<g>
				<path fill="#FFFFFF" d="M71.908,36.546c-0.494-0.088-0.955-0.365-1.265-0.809l-11.498-16.49
					c-0.622-0.89-0.403-2.112,0.487-2.731c0.889-0.622,2.112-0.403,2.731,0.487l11.5,16.489c0.619,0.889,0.401,2.111-0.487,2.732
					C72.932,36.533,72.404,36.635,71.908,36.546z"/>
			</g>
			<g>
				<circle fill="#E9D234" cx="144.442" cy="23.915" r="6.323"/>
				<g>
					<path fill="#FFFFFF" d="M118.509,44.857c-0.494-0.089-0.956-0.366-1.267-0.81c-0.617-0.888-0.399-2.112,0.488-2.733
						l16.491-11.497c0.888-0.621,2.112-0.402,2.731,0.487c0.621,0.889,0.403,2.111-0.487,2.731l-16.488,11.499
						C119.531,44.845,119.003,44.945,118.509,44.857z"/>
				</g>
			</g>
		</g>
		<circle fill="#E9D234" cx="21.885" cy="113.37" r="8.113"/>
		<circle fill="#E9D234" cx="25.271" cy="94.384" r="6.276"/>
	</g>
	<g>
		<g>
			
				<path fill="none" stroke="#474949" stroke-width="1.4962" stroke-linecap="round" stroke-linejoin="round" stroke-miterlimit="10" d="
				M138.283,129.253c-3.385,18.974-21.51,31.612-40.484,28.229l-68.273-12.178C10.55,141.92-2.088,123.796,1.296,104.822
				l4.69-26.297c3.384-18.974,21.509-31.612,40.483-28.227l68.274,12.175c18.975,3.384,31.612,21.509,28.229,40.483L138.283,129.253
				z"/>
			
				<path fill="none" stroke="#474949" stroke-width="1.4962" stroke-linecap="round" stroke-linejoin="round" stroke-miterlimit="10" d="
				M122.016,130.983c-1.78,9.987-11.319,16.638-21.309,14.857l-52.212-9.313c-9.987-1.78-16.64-11.32-14.857-21.307l5.239-29.383
				c1.781-9.987,11.32-16.638,21.309-14.857l52.213,9.312c9.987,1.782,16.639,11.32,14.857,21.307L122.016,130.983z"/>
			
				<circle fill="none" stroke="#474949" stroke-width="1.2836" stroke-linecap="round" stroke-linejoin="round" stroke-miterlimit="10" cx="19.765" cy="112.407" r="8.113"/>
			
				<circle fill="none" stroke="#474949" stroke-width="1.2836" stroke-linecap="round" stroke-linejoin="round" stroke-miterlimit="10" cx="23.151" cy="93.42" r="6.276"/>
			
				<path fill="none" stroke="#474949" stroke-width="1.2836" stroke-linecap="round" stroke-linejoin="round" stroke-miterlimit="10" d="
				M88.133,161.151c-0.031,0.143-0.072,0.282-0.098,0.425l-0.967,5.425c-0.891,4.993,2.435,9.762,7.428,10.654
				c4.994,0.891,9.763-2.436,10.653-7.429l0.968-5.426c0.025-0.145,0.035-0.287,0.055-0.433L88.133,161.151z"/>
			
				<path fill="none" stroke="#474949" stroke-width="1.2836" stroke-linecap="round" stroke-linejoin="round" stroke-miterlimit="10" d="
				M23.942,149.703c-0.033,0.142-0.072,0.281-0.098,0.425l-0.969,5.425c-0.89,4.993,2.436,9.763,7.428,10.654
				c4.994,0.89,9.764-2.436,10.655-7.429l0.967-5.424c0.026-0.144,0.036-0.288,0.056-0.434L23.942,149.703z"/>
			
				<path fill="none" stroke="#474949" stroke-width="1.2836" stroke-linecap="round" stroke-linejoin="round" stroke-miterlimit="10" d="
				M106.274,54.868c-1.178-9.262-8.234-17.093-17.912-18.819c-9.68-1.726-19.006,3.183-23.314,11.467L106.274,54.868z"/>
		</g>
		<g>
			
				<circle fill="none" stroke="#474949" stroke-width="1.2836" stroke-linecap="round" stroke-linejoin="round" stroke-miterlimit="10" cx="52.694" cy="6.967" r="6.323"/>
			
				<path fill="none" stroke="#474949" stroke-width="1.2836" stroke-linecap="round" stroke-linejoin="round" stroke-miterlimit="10" d="
				M23.942,149.703c-0.033,0.142-0.072,0.281-0.098,0.425l-0.969,5.425c-0.89,4.993,2.436,9.763,7.428,10.654
				c4.994,0.89,9.764-2.436,10.655-7.429l0.967-5.424c0.026-0.144,0.036-0.288,0.056-0.434L23.942,149.703z"/>
			<g>
				
					<path fill="none" stroke="#474949" stroke-width="1.2836" stroke-linecap="round" stroke-linejoin="round" stroke-miterlimit="10" d="
					M69.788,35.583c-0.493-0.088-0.954-0.365-1.264-0.809L57.026,18.282c-0.621-0.888-0.402-2.111,0.488-2.731
					c0.889-0.62,2.112-0.401,2.73,0.488l11.499,16.489c0.619,0.889,0.401,2.112-0.487,2.733
					C70.812,35.57,70.283,35.671,69.788,35.583z"/>
			</g>
			<g>
				
					<circle fill="none" stroke="#474949" stroke-width="1.2836" stroke-linecap="round" stroke-linejoin="round" stroke-miterlimit="10" cx="142.322" cy="22.952" r="6.323"/>
				<g>
					
						<path fill="none" stroke="#474949" stroke-width="1.2836" stroke-linecap="round" stroke-linejoin="round" stroke-miterlimit="10" d="
						M116.39,43.894c-0.495-0.088-0.956-0.366-1.267-0.809c-0.617-0.89-0.399-2.112,0.488-2.734l16.49-11.497
						c0.889-0.621,2.112-0.402,2.731,0.487c0.62,0.888,0.402,2.112-0.487,2.731l-16.489,11.5
						C117.411,43.881,116.883,43.981,116.39,43.894z"/>
				</g>
			</g>
		</g>
		
			<circle fill="none" stroke="#474949" stroke-width="1.2836" stroke-linecap="round" stroke-linejoin="round" stroke-miterlimit="10" cx="19.765" cy="112.407" r="8.113"/>
		
			<circle fill="none" stroke="#474949" stroke-width="1.2836" stroke-linecap="round" stroke-linejoin="round" stroke-miterlimit="10" cx="23.151" cy="93.42" r="6.276"/>
	</g>
</g>
</svg>
