<?xml version="1.0" encoding="utf-8"?>
<!-- Generator: Adobe Illustrator 17.0.0, SVG Export Plug-In . SVG Version: 6.00 Build 0)  -->
<!DOCTYPE svg PUBLIC "-//W3C//DTD SVG 1.1//EN" "http://www.w3.org/Graphics/SVG/1.1/DTD/svg11.dtd">
<svg version="1.1" id="Layer_1" xmlns="http://www.w3.org/2000/svg" xmlns:xlink="http://www.w3.org/1999/xlink" x="0px" y="0px"
	 width="167.414px" height="142.293px" viewBox="0 0 167.414 142.293" enable-background="new 0 0 167.414 142.293"
	 xml:space="preserve">
<g>
	<g>
		<path fill="#FFFFFF" d="M150.027,20.238L32.57,2.254c-9.513-1.456-18.409,5.101-19.871,14.643L0.204,98.505
			c-1.314,8.573,3.829,16.62,11.781,19.23l2.079,6.963l113.631,17.398l6.166-5.525c8.882,0.525,16.871-5.812,18.248-14.81
			l12.496-81.606C166.067,30.613,159.541,21.695,150.027,20.238z"/>
	</g>
	<g>
		
			<path fill="none" stroke="#474949" stroke-width="1.0074" stroke-linecap="round" stroke-linejoin="round" stroke-miterlimit="10" d="
			M152.127,18.69L34.67,0.706C25.157-0.751,16.26,5.807,14.8,15.349L2.305,96.956c-1.313,8.573,3.829,16.622,11.782,19.23
			l2.079,6.964l113.631,17.399l6.166-5.526c8.881,0.526,16.87-5.811,18.248-14.809l12.494-81.606
			C168.168,29.066,161.64,20.146,152.127,18.69z"/>
	</g>
	<g>
		<polygon fill="#0A7A74" points="14.065,124.699 127.696,142.097 137.061,133.704 10.991,114.402 		"/>
		<path fill="#0A7A74" d="M127.665,142.291l-113.63-17.398c-0.074-0.011-0.137-0.064-0.158-0.137l-3.074-10.298
			c-0.019-0.065-0.003-0.135,0.041-0.186c0.043-0.049,0.111-0.075,0.178-0.065l126.069,19.304c0.074,0.012,0.136,0.064,0.156,0.138
			c0.022,0.073-0.001,0.152-0.057,0.203l-9.365,8.392C127.784,142.282,127.723,142.301,127.665,142.291z M14.217,124.523
			l113.419,17.364l8.985-8.053L11.268,114.643L14.217,124.523z"/>
	</g>
	<g>
		
			<polygon fill="none" stroke="#474949" stroke-width="0.817" stroke-linecap="round" stroke-linejoin="round" stroke-miterlimit="10" points="
			15.641,123.538 129.271,140.936 138.637,132.543 12.566,113.24 		"/>
		
			<path fill="none" stroke="#474949" stroke-width="0.817" stroke-linecap="round" stroke-linejoin="round" stroke-miterlimit="10" d="
			M129.242,141.13l-113.63-17.397c-0.075-0.012-0.137-0.066-0.158-0.139l-3.074-10.296c-0.018-0.065-0.004-0.135,0.039-0.185
			c0.045-0.051,0.111-0.076,0.178-0.066l126.069,19.303c0.075,0.011,0.137,0.065,0.158,0.139c0.022,0.073,0,0.151-0.057,0.2
			l-9.365,8.394C129.359,141.121,129.299,141.138,129.242,141.13z M15.794,123.361l113.416,17.365l8.985-8.052L12.844,113.481
			L15.794,123.361z"/>
	</g>
	<g>
		<path fill="#00C7C4" d="M143.695,29.217C133.012,27.029,33.173,12.296,33.173,12.296s-11.028-1.137-12.958,9.069
			c-1.93,10.206-7.883,51.484-7.883,51.484l132.949,20.356l7.992-52.203C153.274,41.002,154.377,31.405,143.695,29.217z"/>
		<path fill="#00C7C4" d="M145.251,93.398L12.303,73.042c-0.105-0.016-0.18-0.113-0.164-0.222c0.06-0.413,5.975-41.398,7.885-51.491
			c1.941-10.265,13.057-9.24,13.169-9.229c0.451,0.067,44.756,6.606,77.13,11.562c19.016,2.912,30.256,4.716,33.411,5.364
			c10.733,2.197,9.747,11.899,9.736,11.997l-7.995,52.211C145.459,93.341,145.36,93.414,145.251,93.398z M12.554,72.684
			l132.565,20.298l7.964-52.011c0.041-0.378,0.95-9.437-9.427-11.563c-3.148-0.645-14.382-2.446-33.393-5.357
			C77.89,19.095,33.588,12.555,33.145,12.49c-0.101-0.01-10.863-0.995-12.736,8.912C18.569,31.131,13,69.605,12.554,72.684z"/>
	</g>
	<g>
		<path fill="#00C7C4" d="M29.091,88.126l-18.819-2.881l-1.848,12.06c-0.93,12.201,9.438,13.788,9.438,13.788l15.432,2.363
			c0,0,2.494-10.303,2.59-16.92C35.978,89.918,29.091,88.126,29.091,88.126z"/>
		<path fill="#00C7C4" d="M33.262,113.652l-15.431-2.364c-0.105-0.016-10.536-1.756-9.603-13.998l1.848-12.075
			c0.017-0.106,0.117-0.18,0.225-0.165l18.819,2.881c0.091,0.024,7.054,1.912,6.958,8.606c-0.095,6.564-2.57,16.86-2.597,16.965
			C33.458,113.603,33.363,113.666,33.262,113.652z M10.435,85.468L8.618,97.336c-0.904,11.868,9.172,13.548,9.273,13.563
			l15.252,2.334c0.328-1.384,2.457-10.65,2.544-16.701c0.092-6.389-6.578-8.198-6.646-8.215L10.435,85.468z"/>
	</g>
	<g>
		<path fill="#00C7C4" d="M115.784,108.769c-1.891,6.343-2.591,16.921-2.591,16.921l15.43,2.362c0,0,10.368,1.588,13.13-10.333
			l1.846-12.061l-18.819-2.882C124.779,102.777,117.672,102.426,115.784,108.769z"/>
		<path fill="#00C7C4" d="M128.592,128.248l-15.43-2.363c-0.102-0.016-0.172-0.105-0.166-0.208
			c0.008-0.106,0.725-10.673,2.598-16.963c1.912-6.417,9.122-6.135,9.193-6.132l18.84,2.882c0.106,0.017,0.182,0.118,0.166,0.225
			l-1.847,12.062C139.171,129.723,128.699,128.263,128.592,128.248z M113.399,125.522l15.252,2.336
			c0.417,0.064,10.221,1.418,12.91-10.183l1.814-11.852l-18.626-2.851c-0.05-0.001-6.957-0.265-8.779,5.854
			C114.244,114.624,113.502,124.103,113.399,125.522z"/>
	</g>
	<g>
		<path fill="#00C7C4" d="M108.32,99.275l-63.874-9.781c0,0-3.033-0.157-3.572,2.953c-0.537,3.112-2.324,15.12-2.738,17.881
			c-0.412,2.764,2.499,3.269,2.499,3.269l63.753,9.761c0,0,2.888-0.478,3.182-2.399c0.294-1.918,2.408-15.72,2.775-18.121
			C110.711,100.438,108.32,99.275,108.32,99.275z"/>
		<path fill="#00C7C4" d="M104.357,123.553l-63.751-9.762c-0.037-0.006-3.1-0.572-2.664-3.491l0.196-1.313
			c0.619-4.137,2.066-13.823,2.542-16.573c0.561-3.246,3.744-3.116,3.776-3.116l63.893,9.782c0.02,0.003,0.038,0.01,0.055,0.018
			c0.025,0.013,2.519,1.257,2.134,3.77l-2.774,18.122c-0.312,2.039-3.222,2.543-3.345,2.563
			C104.4,123.555,104.377,123.556,104.357,123.553z M44.416,89.689c-0.098-0.004-2.85-0.106-3.352,2.793
			c-0.473,2.746-1.921,12.428-2.541,16.562l-0.195,1.313c-0.379,2.538,2.228,3.027,2.338,3.047l63.717,9.756
			c0.298-0.058,2.738-0.573,2.992-2.231l2.773-18.121c0.326-2.123-1.629-3.211-1.888-3.344L44.416,89.689z"/>
	</g>
	<g>
		<path fill="#0A7A74" d="M104.901,111.094l-50.957-7.803c-0.526-0.08-1.02,0.283-1.102,0.814c-0.082,0.529,0.281,1.027,0.808,1.107
			l50.956,7.802c0.528,0.081,1.023-0.284,1.104-0.813C105.791,111.671,105.428,111.175,104.901,111.094z"/>
		<path fill="#0A7A74" d="M104.577,113.21l-50.956-7.802c-0.634-0.098-1.068-0.694-0.972-1.33c0.097-0.638,0.692-1.078,1.324-0.98
			l50.957,7.801c0.635,0.098,1.07,0.694,0.972,1.331C105.805,112.867,105.211,113.306,104.577,113.21z M53.915,103.486
			c-0.421-0.064-0.816,0.227-0.88,0.65c-0.064,0.422,0.225,0.82,0.645,0.884l50.955,7.802c0.421,0.064,0.816-0.227,0.882-0.649
			c0.065-0.423-0.226-0.821-0.646-0.885L53.915,103.486z"/>
	</g>
	<g>
		
			<ellipse transform="matrix(0.1512 -0.9885 0.9885 0.1512 -61.5585 134.239)" fill="#0A7A74" cx="47.385" cy="102.963" rx="4.674" ry="2.904"/>
		<path fill="#0A7A74" d="M46.647,107.779c-1.689-0.259-2.733-2.63-2.326-5.286c0.406-2.653,2.112-4.603,3.801-4.344
			c1.69,0.259,2.734,2.628,2.327,5.282C50.042,106.088,48.336,108.037,46.647,107.779z M48.063,98.537
			c-1.477-0.225-2.98,1.576-3.354,4.017c-0.375,2.44,0.521,4.61,1.998,4.836c1.477,0.226,2.98-1.576,3.355-4.016
			C50.436,100.933,49.538,98.763,48.063,98.537z"/>
	</g>
	<g>
		<g>
			<path fill="#FFFFFF" d="M61.433,97.561c-0.396-0.061-0.767,0.212-0.829,0.61l-0.312,2.041c-0.061,0.397,0.212,0.769,0.607,0.829
				c0.396,0.061,0.767-0.212,0.827-0.61l0.313-2.04C62.101,97.993,61.829,97.622,61.433,97.561z"/>
		</g>
		<g>
			<path fill="#FFFFFF" d="M68.61,98.661c-0.397-0.062-0.768,0.21-0.83,0.61l-0.312,2.039c-0.06,0.399,0.212,0.77,0.608,0.83
				c0.397,0.061,0.768-0.211,0.828-0.61l0.313-2.04C69.279,99.091,69.007,98.721,68.61,98.661z"/>
		</g>
		<g>
			<path fill="#FFFFFF" d="M75.786,99.758c-0.397-0.061-0.769,0.213-0.829,0.61l-0.313,2.039c-0.062,0.399,0.212,0.771,0.608,0.831
				c0.398,0.062,0.768-0.212,0.828-0.61l0.312-2.04C76.454,100.191,76.183,99.82,75.786,99.758z"/>
		</g>
		<g>
			<path fill="#FFFFFF" d="M82.962,100.858c-0.396-0.061-0.766,0.211-0.826,0.611l-0.313,2.04c-0.061,0.397,0.211,0.769,0.607,0.83
				c0.396,0.061,0.767-0.213,0.827-0.61l0.313-2.039C83.631,101.29,83.36,100.919,82.962,100.858z"/>
		</g>
		<g>
			<path fill="#FFFFFF" d="M90.14,101.957c-0.397-0.061-0.767,0.211-0.828,0.61L89,104.606c-0.062,0.398,0.21,0.769,0.607,0.83
				c0.397,0.061,0.767-0.212,0.829-0.611l0.312-2.039C90.809,102.388,90.536,102.018,90.14,101.957z"/>
		</g>
		<g>
			<path fill="#FFFFFF" d="M97.317,103.055c-0.396-0.06-0.768,0.213-0.828,0.61l-0.313,2.039c-0.062,0.398,0.211,0.771,0.608,0.831
				c0.396,0.06,0.766-0.212,0.827-0.61l0.313-2.04C97.984,103.488,97.713,103.116,97.317,103.055z"/>
		</g>
		<g>
			<path fill="#FFFFFF" d="M59.668,109.082c-0.395-0.062-0.767,0.212-0.827,0.61l-0.313,2.04c-0.061,0.398,0.213,0.769,0.609,0.831
				c0.395,0.06,0.766-0.213,0.827-0.611l0.313-2.039C60.336,109.515,60.067,109.142,59.668,109.082z"/>
		</g>
		<g>
			<path fill="#FFFFFF" d="M66.846,110.18c-0.396-0.06-0.768,0.213-0.83,0.61l-0.312,2.04c-0.06,0.399,0.212,0.77,0.608,0.83
				c0.396,0.062,0.768-0.211,0.828-0.61l0.313-2.039C67.514,110.613,67.243,110.241,66.846,110.18z"/>
		</g>
		<g>
			<path fill="#FFFFFF" d="M74.023,111.279c-0.397-0.06-0.769,0.214-0.829,0.61l-0.313,2.04c-0.063,0.398,0.212,0.77,0.608,0.83
				c0.397,0.061,0.767-0.211,0.828-0.61l0.312-2.04C74.691,111.712,74.419,111.34,74.023,111.279z"/>
		</g>
		<g>
			<path fill="#FFFFFF" d="M81.199,112.379c-0.396-0.062-0.766,0.211-0.827,0.61l-0.313,2.039c-0.061,0.399,0.211,0.769,0.607,0.831
				c0.396,0.06,0.768-0.212,0.827-0.611l0.312-2.039C81.868,112.81,81.596,112.439,81.199,112.379z"/>
		</g>
		<g>
			<path fill="#FFFFFF" d="M88.376,113.477c-0.397-0.061-0.769,0.213-0.828,0.61l-0.313,2.04c-0.062,0.398,0.211,0.77,0.607,0.83
				c0.397,0.06,0.767-0.212,0.828-0.61l0.312-2.039C89.044,113.91,88.773,113.538,88.376,113.477z"/>
		</g>
		<g>
			<path fill="#FFFFFF" d="M95.553,114.576c-0.396-0.06-0.769,0.213-0.828,0.61l-0.313,2.041c-0.062,0.397,0.211,0.769,0.608,0.829
				c0.396,0.062,0.766-0.211,0.826-0.61l0.313-2.04C96.22,115.008,95.95,114.637,95.553,114.576z"/>
		</g>
	</g>
	<g>
		<g>
			<path fill="#0A7A74" d="M143.002,109.558l-25.924-3.97c-0.396-0.06-0.768,0.213-0.827,0.611
				c-0.061,0.398,0.212,0.769,0.606,0.829l25.924,3.97c0.396,0.06,0.768-0.212,0.828-0.611
				C143.671,109.991,143.398,109.618,143.002,109.558z"/>
		</g>
		<g>
			<path fill="#0A7A74" d="M142.321,113.999l-26.916-4.121c-0.396-0.061-0.765,0.212-0.826,0.611
				c-0.061,0.397,0.21,0.769,0.605,0.83l26.917,4.121c0.396,0.06,0.769-0.212,0.829-0.61
				C142.992,114.431,142.717,114.059,142.321,113.999z"/>
		</g>
		<g>
			<path fill="#0A7A74" d="M141.017,119.743l-26.405-4.583c-0.4-0.036-0.771,0.199-0.84,0.594c-0.069,0.397,0.196,0.773,0.592,0.842
				l26.405,4.584c0.005,0.001,0.01,0.001,0.015,0.002c0.39,0.059,0.759-0.204,0.824-0.594
				C141.678,120.19,141.414,119.814,141.017,119.743z"/>
		</g>
		<g>
			<path fill="#0A7A74" d="M137.119,125.06l-23.683-3.626c-0.398-0.062-0.767,0.212-0.828,0.61c-0.061,0.397,0.209,0.769,0.606,0.83
				l23.685,3.626c0.396,0.061,0.765-0.213,0.827-0.61C137.787,125.492,137.518,125.121,137.119,125.06z"/>
		</g>
	</g>
	<g>
		
			<ellipse transform="matrix(0.1513 -0.9885 0.9885 0.1513 -5.6705 225.0606)" fill="#E9D234" cx="128.228" cy="115.833" rx="7.223" ry="7.198"/>
		<path fill="#E9D234" d="M127.106,123.167c-4.029-0.617-6.807-4.409-6.188-8.453c0.62-4.044,4.404-6.831,8.433-6.215
			c4.031,0.617,6.807,4.409,6.189,8.453C134.919,120.996,131.136,123.783,127.106,123.167z M129.291,108.888
			c-3.816-0.585-7.398,2.055-7.985,5.884c-0.586,3.829,2.042,7.423,5.859,8.007c3.816,0.583,7.399-2.058,7.987-5.887
			C135.739,113.064,133.109,109.472,129.291,108.888z"/>
	</g>
	<g>
		
			<ellipse transform="matrix(0.1512 -0.9885 0.9885 0.1512 -5.6663 225.0683)" fill="#FFFFFF" cx="128.229" cy="115.834" rx="3.99" ry="3.978"/>
		<path fill="#FFFFFF" d="M127.594,119.972c-2.273-0.348-3.84-2.489-3.491-4.77c0.351-2.284,2.485-3.856,4.76-3.509
			c2.274,0.349,3.841,2.488,3.491,4.771C132.005,118.746,129.87,120.32,127.594,119.972z M128.803,112.082
			c-2.061-0.315-3.996,1.11-4.313,3.179c-0.316,2.069,1.104,4.008,3.163,4.323c2.062,0.316,3.997-1.11,4.313-3.179
			C132.284,114.337,130.865,112.397,128.803,112.082z"/>
	</g>
	
		<ellipse transform="matrix(0.1513 -0.9885 0.9885 0.1513 20.4273 128.0587)" fill="#FFFFFF" cx="84.793" cy="52.133" rx="27.316" ry="27.226"/>
	<g>
		<g>
			<g>
				<path fill="#0A7A74" d="M35.598,93.113L9.674,89.144c-0.396-0.061-0.767,0.212-0.828,0.61c-0.061,0.397,0.211,0.769,0.607,0.829
					l25.924,3.97c0.395,0.06,0.766-0.212,0.828-0.61C36.265,93.545,35.994,93.173,35.598,93.113z"/>
			</g>
			<g>
				<path fill="#0A7A74" d="M35.91,97.707L8.995,93.586c-0.398-0.061-0.768,0.212-0.829,0.61c-0.06,0.398,0.212,0.77,0.609,0.83
					l26.915,4.121c0.397,0.061,0.766-0.211,0.828-0.61C36.578,98.138,36.307,97.767,35.91,97.707z"/>
			</g>
			<g>
				<path fill="#0A7A74" d="M35.086,102.984L8.519,99.456c-0.399-0.05-0.763,0.229-0.816,0.628c-0.053,0.394,0.22,0.755,0.61,0.814
					c0.003,0.002,0.008,0.002,0.013,0.003l26.569,3.527c0.396,0.052,0.763-0.226,0.815-0.626
					C35.763,103.404,35.553,103.043,35.086,102.984z"/>
			</g>
			<g>
				<path fill="#0A7A74" d="M34.332,109.323l-23.684-3.627c-0.397-0.06-0.767,0.212-0.828,0.611c-0.062,0.397,0.209,0.77,0.607,0.83
					l23.683,3.626c0.398,0.062,0.769-0.212,0.828-0.61C35,109.754,34.729,109.383,34.332,109.323z"/>
			</g>
		</g>
		<g>
			
				<ellipse transform="matrix(0.1513 -0.9885 0.9885 0.1513 -79.742 106.2603)" fill="#E9D234" cx="22.013" cy="99.57" rx="7.224" ry="7.2"/>
			<path fill="#E9D234" d="M20.889,106.904c-4.028-0.618-6.805-4.408-6.186-8.453c0.62-4.044,4.402-6.832,8.432-6.216
				c4.031,0.618,6.807,4.411,6.188,8.453C28.703,104.733,24.92,107.521,20.889,106.904z M23.077,92.624
				c-3.817-0.584-7.399,2.056-7.986,5.886c-0.586,3.83,2.042,7.421,5.859,8.006c3.817,0.584,7.4-2.057,7.987-5.886
				C29.524,96.8,26.894,93.21,23.077,92.624z"/>
		</g>
		<g>
			
				<ellipse transform="matrix(0.1514 -0.9885 0.9885 0.1514 -79.743 106.257)" fill="#FFFFFF" cx="22.012" cy="99.571" rx="3.99" ry="3.976"/>
			<path fill="#FFFFFF" d="M21.379,103.709c-2.275-0.347-3.84-2.488-3.49-4.771c0.349-2.282,2.482-3.855,4.758-3.507
				c2.275,0.349,3.84,2.487,3.491,4.771C25.788,102.484,23.655,104.057,21.379,103.709z M22.587,95.819
				c-2.062-0.316-3.995,1.11-4.313,3.179c-0.315,2.069,1.104,4.008,3.164,4.324c2.063,0.316,3.996-1.109,4.314-3.179
				C26.068,98.075,24.651,96.134,22.587,95.819z"/>
		</g>
		<g>
			<path fill="#FFFFFF" d="M18.088,56.421c-0.215-0.342-0.663-0.443-1-0.231c-0.342,0.214-0.446,0.664-0.231,1.005l11.586,18.601
				c0.116,0.188,0.304,0.301,0.506,0.332c0.166,0.026,0.343-0.006,0.495-0.102c0.34-0.213,0.442-0.663,0.23-1.004L18.088,56.421z"/>
		</g>
		<g>
			<path fill="#FFFFFF" d="M20.445,40.693c-0.214-0.341-0.664-0.443-1-0.23c-0.341,0.216-0.444,0.665-0.231,1.006l22.748,36.398
				c0.115,0.186,0.303,0.3,0.504,0.332c0.167,0.024,0.342-0.007,0.496-0.103c0.34-0.214,0.442-0.665,0.229-1.005L20.445,40.693z"/>
		</g>
		<g>
			<path fill="#FFFFFF" d="M22.87,24.855c-0.212-0.339-0.659-0.446-0.999-0.234c-0.342,0.213-0.446,0.662-0.233,1.003l33.598,54.273
				c0.117,0.187,0.304,0.304,0.507,0.335c0.165,0.025,0.34-0.005,0.492-0.102c0.34-0.212,0.446-0.661,0.233-1.003L22.87,24.855z"/>
		</g>
		<g>
			<path fill="#FFFFFF" d="M30.388,13.207c-0.2-0.351-0.643-0.473-0.992-0.27c-0.349,0.199-0.47,0.645-0.269,0.993l38.655,67.867
				c0.115,0.201,0.31,0.324,0.521,0.358c0.156,0.025,0.32-0.003,0.469-0.086c0.349-0.202,0.469-0.646,0.271-0.994L30.388,13.207z"/>
		</g>
		<g>
			<path fill="#FFFFFF" d="M47.612,13.999c-0.195-0.352-0.637-0.478-0.99-0.282c-0.348,0.196-0.475,0.64-0.278,0.991L85.12,84.446
				c0.114,0.205,0.312,0.332,0.524,0.364c0.154,0.024,0.317-0.001,0.463-0.083c0.352-0.196,0.477-0.641,0.281-0.991L47.612,13.999z"
				/>
		</g>
		<g>
			<path fill="#FFFFFF" d="M61.63,15.949c-0.197-0.344-0.64-0.469-0.988-0.273c-0.35,0.2-0.473,0.644-0.274,0.996l39.709,70.068
				c0.112,0.201,0.309,0.327,0.521,0.359c0.155,0.023,0.321-0.002,0.468-0.086c0.35-0.201,0.472-0.645,0.271-0.993L61.63,15.949z"/>
		</g>
		<g>
			<path fill="#FFFFFF" d="M79.668,18.904c-0.197-0.35-0.641-0.477-0.99-0.278c-0.35,0.198-0.474,0.643-0.279,0.992l38.899,69.757
				c0.113,0.203,0.311,0.33,0.525,0.362c0.153,0.024,0.315-0.001,0.463-0.084c0.349-0.197,0.475-0.64,0.279-0.993L79.668,18.904z"/>
		</g>
		<g>
			<path fill="#FFFFFF" d="M98.456,21.798c-0.188-0.355-0.625-0.495-0.979-0.308c-0.356,0.186-0.495,0.627-0.309,0.983
				l36.026,69.317c0.11,0.215,0.314,0.349,0.534,0.382c0.148,0.022,0.303,0.002,0.445-0.074c0.357-0.186,0.493-0.627,0.309-0.984
				L98.456,21.798z"/>
		</g>
		<g>
			<path fill="#FFFFFF" d="M114.715,24.276c-0.193-0.353-0.631-0.482-0.984-0.286c-0.352,0.192-0.482,0.635-0.288,0.987
				l34.761,63.595c0.112,0.208,0.311,0.337,0.527,0.371c0.151,0.022,0.312-0.002,0.459-0.083c0.352-0.194,0.48-0.636,0.285-0.988
				L114.715,24.276z"/>
		</g>
		<g>
			<path fill="#FFFFFF" d="M131.532,26.672c-0.185-0.356-0.625-0.494-0.979-0.307c-0.356,0.188-0.493,0.628-0.307,0.986
				l21.13,40.449c0.11,0.213,0.313,0.347,0.532,0.381c0.148,0.023,0.304,0,0.447-0.076c0.356-0.186,0.493-0.627,0.305-0.984
				L131.532,26.672z"/>
		</g>
		<g>
			<path fill="#FFFFFF" d="M44.584,13.405L21.855,25.443c-0.356,0.187-0.49,0.628-0.306,0.984c0.114,0.211,0.316,0.346,0.533,0.379
				c0.149,0.023,0.306,0,0.449-0.078L45.26,14.692c0.354-0.188,0.49-0.628,0.304-0.985C45.377,13.354,44.94,13.217,44.584,13.405z"
				/>
		</g>
		<g>
			<path fill="#FFFFFF" d="M59.32,15.658L20.223,36.125c-0.358,0.185-0.495,0.625-0.311,0.982c0.111,0.216,0.314,0.351,0.535,0.384
				c0.148,0.023,0.304,0,0.444-0.075L59.99,16.95c0.356-0.187,0.495-0.628,0.309-0.983C60.113,15.608,59.674,15.471,59.32,15.658z"
				/>
		</g>
		<g>
			<path fill="#FFFFFF" d="M73.805,17.868L18.823,45.236c-0.36,0.179-0.508,0.615-0.33,0.975c0.109,0.221,0.316,0.363,0.542,0.397
				c0.142,0.022,0.291,0.001,0.432-0.069l54.981-27.367c0.359-0.18,0.509-0.616,0.33-0.976
				C74.602,17.836,74.162,17.687,73.805,17.868z"/>
		</g>
		<g>
			<path fill="#FFFFFF" d="M93.729,20.694l-76.17,32.677c-0.368,0.159-0.541,0.587-0.383,0.957c0.102,0.241,0.318,0.397,0.557,0.434
				c0.131,0.02,0.267,0.005,0.396-0.051l76.169-32.677c0.369-0.157,0.541-0.584,0.383-0.956
				C94.522,20.709,94.098,20.537,93.729,20.694z"/>
		</g>
		<g>
			<path fill="#FFFFFF" d="M113.805,23.954L15.887,64.346c-0.371,0.154-0.549,0.58-0.394,0.952c0.1,0.245,0.317,0.406,0.56,0.444
				c0.125,0.019,0.26,0.005,0.387-0.047l97.916-40.393c0.371-0.153,0.548-0.581,0.396-0.952
				C114.6,23.976,114.171,23.804,113.805,23.954z"/>
		</g>
		<g>
			<path fill="#FFFFFF" d="M132.955,26.704L24.299,74.058c-0.367,0.16-0.536,0.588-0.375,0.959c0.102,0.236,0.317,0.392,0.556,0.428
				c0.129,0.02,0.267,0.006,0.397-0.051l108.657-47.354c0.368-0.159,0.536-0.588,0.377-0.958
				C133.752,26.714,133.327,26.54,132.955,26.704z"/>
		</g>
		<g>
			<path fill="#FFFFFF" d="M149.708,30.16L46.94,77.531c-0.367,0.169-0.527,0.6-0.359,0.968c0.106,0.23,0.316,0.378,0.552,0.413
				c0.134,0.021,0.277,0.006,0.409-0.056l102.77-47.371c0.367-0.169,0.524-0.601,0.357-0.967
				C150.502,30.155,150.072,29.995,149.708,30.16z"/>
		</g>
		<g>
			<path fill="#FFFFFF" d="M156.074,39.829L66.438,80.514c-0.365,0.166-0.529,0.598-0.361,0.964c0.104,0.233,0.316,0.383,0.55,0.419
				c0.135,0.021,0.275,0.004,0.409-0.056l89.636-40.687c0.364-0.165,0.528-0.596,0.362-0.963
				C156.87,39.826,156.439,39.664,156.074,39.829z"/>
		</g>
		<g>
			<path fill="#FFFFFF" d="M153.971,53.625L85.467,83.422c-0.369,0.162-0.537,0.588-0.38,0.958c0.105,0.239,0.319,0.394,0.558,0.431
				c0.132,0.02,0.27,0.006,0.398-0.052l68.503-29.795c0.37-0.159,0.539-0.59,0.378-0.958
				C154.766,53.635,154.339,53.465,153.971,53.625z"/>
		</g>
		<g>
			<path fill="#FFFFFF" d="M151.914,65.592l-47.668,20.704c-0.368,0.161-0.537,0.589-0.378,0.958
				c0.103,0.238,0.317,0.394,0.557,0.43c0.131,0.02,0.267,0.007,0.396-0.051l47.668-20.704c0.369-0.161,0.539-0.589,0.379-0.958
				C152.708,65.602,152.281,65.43,151.914,65.592z"/>
		</g>
		<g>
			<path fill="#FFFFFF" d="M150.05,77.943l-28.369,11.009c-0.375,0.144-0.56,0.566-0.417,0.942c0.098,0.253,0.32,0.418,0.568,0.455
				c0.122,0.02,0.247,0.008,0.37-0.039l28.368-11.01c0.375-0.146,0.561-0.565,0.416-0.942
				C150.844,77.983,150.421,77.797,150.05,77.943z"/>
		</g>
		<g>
			<path fill="#FFFFFF" d="M148.537,87.561l-9.02,4.145c-0.364,0.169-0.525,0.601-0.357,0.965c0.105,0.233,0.316,0.382,0.55,0.417
				c0.136,0.021,0.278,0.005,0.41-0.057l9.02-4.146c0.367-0.167,0.526-0.601,0.359-0.964
				C149.332,87.552,148.904,87.392,148.537,87.561z"/>
		</g>
		<g>
			<path fill="#474949" d="M15.357,56.003c-0.215-0.342-0.664-0.443-1.001-0.231c-0.34,0.214-0.443,0.664-0.232,1.005l11.587,18.601
				c0.116,0.188,0.304,0.301,0.506,0.332c0.166,0.024,0.343-0.006,0.495-0.103c0.339-0.213,0.441-0.663,0.232-1.004L15.357,56.003z"
				/>
		</g>
		<g>
			<path fill="#474949" d="M17.713,40.275c-0.215-0.342-0.664-0.443-1-0.23c-0.341,0.216-0.444,0.665-0.231,1.004l22.748,36.4
				c0.114,0.186,0.304,0.3,0.504,0.332c0.167,0.025,0.343-0.006,0.497-0.102c0.34-0.215,0.441-0.666,0.227-1.006L17.713,40.275z"/>
		</g>
		<g>
			<path fill="#474949" d="M20.139,24.437c-0.212-0.34-0.658-0.447-0.999-0.234c-0.341,0.212-0.444,0.662-0.234,1.003l33.599,54.273
				c0.116,0.187,0.305,0.303,0.507,0.335c0.165,0.025,0.341-0.005,0.493-0.102c0.34-0.212,0.444-0.661,0.233-1.004L20.139,24.437z"
				/>
		</g>
		<g>
			<path fill="#474949" d="M27.655,12.788c-0.197-0.35-0.643-0.473-0.987-0.27c-0.351,0.2-0.473,0.644-0.273,0.994l38.654,67.867
				c0.114,0.2,0.309,0.324,0.523,0.358c0.154,0.024,0.32-0.003,0.469-0.087c0.349-0.202,0.469-0.646,0.27-0.994L27.655,12.788z"/>
		</g>
		<g>
			<path fill="#474949" d="M44.879,13.58c-0.193-0.351-0.637-0.477-0.988-0.281c-0.35,0.195-0.475,0.638-0.279,0.991L82.39,84.028
				c0.114,0.205,0.311,0.331,0.523,0.364c0.155,0.023,0.316-0.002,0.464-0.084c0.351-0.195,0.476-0.64,0.28-0.991L44.879,13.58z"/>
		</g>
		<g>
			<path fill="#474949" d="M58.899,15.53c-0.198-0.344-0.64-0.469-0.989-0.272c-0.349,0.2-0.471,0.644-0.272,0.996l39.707,70.068
				c0.113,0.201,0.31,0.327,0.521,0.359c0.154,0.023,0.32-0.003,0.469-0.086c0.348-0.2,0.469-0.646,0.273-0.994L58.899,15.53z"/>
		</g>
		<g>
			<path fill="#474949" d="M76.936,18.485c-0.195-0.349-0.641-0.476-0.989-0.277c-0.351,0.197-0.474,0.641-0.279,0.991
				l38.898,69.757c0.114,0.204,0.31,0.332,0.526,0.363c0.153,0.025,0.316-0.001,0.463-0.084c0.351-0.197,0.474-0.64,0.279-0.993
				L76.936,18.485z"/>
		</g>
		<g>
			<path fill="#474949" d="M95.723,21.38c-0.187-0.355-0.623-0.495-0.979-0.308c-0.356,0.186-0.493,0.626-0.309,0.983l36.026,69.316
				c0.112,0.215,0.316,0.349,0.534,0.383c0.148,0.022,0.305,0.002,0.447-0.074c0.354-0.186,0.492-0.628,0.308-0.984L95.723,21.38z"
				/>
		</g>
		<g>
			<path fill="#474949" d="M111.984,23.858c-0.192-0.354-0.631-0.482-0.985-0.287c-0.35,0.193-0.479,0.636-0.287,0.988
				l34.761,63.595c0.112,0.208,0.31,0.337,0.525,0.37c0.155,0.025,0.314-0.002,0.462-0.083c0.35-0.193,0.479-0.636,0.286-0.987
				L111.984,23.858z"/>
		</g>
		<g>
			<path fill="#474949" d="M128.801,26.253c-0.186-0.355-0.627-0.493-0.98-0.306c-0.355,0.188-0.492,0.628-0.306,0.985
				l21.129,40.449c0.11,0.213,0.313,0.348,0.532,0.382c0.15,0.023,0.305,0,0.448-0.076c0.356-0.186,0.492-0.627,0.307-0.984
				L128.801,26.253z"/>
		</g>
		<g>
			<path fill="#474949" d="M41.852,12.987L19.123,25.025c-0.354,0.187-0.491,0.627-0.305,0.984c0.112,0.21,0.314,0.346,0.533,0.379
				c0.148,0.024,0.305,0,0.448-0.077l22.728-12.038c0.354-0.189,0.489-0.628,0.304-0.985C42.646,12.936,42.208,12.798,41.852,12.987
				z"/>
		</g>
		<g>
			<path fill="#474949" d="M56.587,15.24L17.491,35.707c-0.356,0.185-0.494,0.625-0.309,0.982c0.113,0.216,0.315,0.35,0.534,0.383
				c0.149,0.024,0.305,0,0.445-0.075l39.097-20.466c0.358-0.187,0.495-0.628,0.31-0.983C57.381,15.19,56.943,15.052,56.587,15.24z"
				/>
		</g>
		<g>
			<path fill="#474949" d="M71.075,17.45L16.09,44.818c-0.361,0.179-0.507,0.615-0.328,0.976c0.108,0.22,0.314,0.361,0.541,0.396
				c0.143,0.021,0.293,0.001,0.431-0.069l54.984-27.368c0.359-0.18,0.507-0.616,0.327-0.976C71.87,17.418,71.43,17.269,71.075,17.45
				z"/>
		</g>
		<g>
			<path fill="#474949" d="M90.996,20.276L14.828,52.953c-0.369,0.157-0.54,0.586-0.383,0.956c0.102,0.24,0.319,0.397,0.558,0.433
				c0.129,0.02,0.266,0.006,0.396-0.05l76.168-32.676c0.368-0.158,0.54-0.585,0.382-0.957
				C91.792,20.291,91.366,20.119,90.996,20.276z"/>
		</g>
		<g>
			<path fill="#474949" d="M111.073,23.535L13.157,63.929c-0.371,0.153-0.547,0.58-0.395,0.952c0.099,0.245,0.317,0.406,0.56,0.443
				c0.126,0.019,0.26,0.005,0.385-0.047l97.917-40.393c0.37-0.154,0.548-0.58,0.396-0.953
				C111.867,23.556,111.44,23.386,111.073,23.535z"/>
		</g>
		<g>
			<path fill="#474949" d="M130.225,26.286L21.568,73.639c-0.366,0.16-0.536,0.588-0.376,0.96c0.103,0.235,0.317,0.391,0.557,0.427
				c0.129,0.02,0.267,0.006,0.4-0.051L130.804,27.62c0.366-0.16,0.535-0.588,0.374-0.958
				C131.022,26.296,130.594,26.122,130.225,26.286z"/>
		</g>
		<g>
			<path fill="#474949" d="M146.976,29.742l-102.77,47.37c-0.365,0.169-0.524,0.6-0.357,0.967c0.104,0.231,0.316,0.379,0.55,0.414
				c0.135,0.021,0.276,0.005,0.411-0.056l102.768-47.37c0.366-0.168,0.525-0.601,0.357-0.968
				C147.773,29.737,147.34,29.577,146.976,29.742z"/>
		</g>
		<g>
			<path fill="#474949" d="M153.341,39.411L63.706,80.096c-0.366,0.167-0.528,0.597-0.363,0.964
				c0.106,0.232,0.317,0.382,0.552,0.419c0.135,0.021,0.275,0.004,0.408-0.057l89.636-40.687c0.365-0.165,0.529-0.596,0.363-0.963
				C154.139,39.407,153.707,39.245,153.341,39.411z"/>
		</g>
		<g>
			<path fill="#474949" d="M151.24,53.207L82.736,83.004c-0.368,0.16-0.537,0.588-0.38,0.957c0.104,0.239,0.319,0.395,0.558,0.431
				c0.131,0.02,0.27,0.006,0.398-0.051l68.503-29.795c0.37-0.161,0.537-0.591,0.379-0.958
				C152.034,53.217,151.61,53.047,151.24,53.207z"/>
		</g>
		<g>
			<path fill="#474949" d="M149.182,65.174l-47.665,20.705c-0.371,0.161-0.54,0.588-0.382,0.957c0.104,0.239,0.32,0.395,0.558,0.431
				c0.131,0.02,0.268,0.006,0.398-0.051l47.668-20.704c0.368-0.161,0.537-0.59,0.378-0.958
				C149.978,65.184,149.549,65.012,149.182,65.174z"/>
		</g>
		<g>
			<path fill="#474949" d="M147.318,77.525L118.95,88.533c-0.377,0.146-0.561,0.567-0.417,0.943c0.098,0.252,0.32,0.418,0.567,0.455
				c0.125,0.02,0.25,0.007,0.371-0.039l28.368-11.01c0.374-0.147,0.562-0.566,0.416-0.942
				C148.112,77.565,147.69,77.379,147.318,77.525z"/>
		</g>
		<g>
			<path fill="#474949" d="M145.807,87.142l-9.02,4.146c-0.364,0.167-0.526,0.6-0.359,0.964c0.108,0.233,0.318,0.381,0.552,0.417
				c0.134,0.021,0.276,0.004,0.411-0.057l9.02-4.146c0.365-0.167,0.525-0.601,0.358-0.964
				C146.601,87.134,146.172,86.974,145.807,87.142z"/>
		</g>
	</g>
</g>
</svg>
