<?xml version="1.0" encoding="utf-8"?>
<!-- Generator: Adobe Illustrator 17.0.0, SVG Export Plug-In . SVG Version: 6.00 Build 0)  -->
<!DOCTYPE svg PUBLIC "-//W3C//DTD SVG 1.1//EN" "http://www.w3.org/Graphics/SVG/1.1/DTD/svg11.dtd">
<svg version="1.1" id="Layer_1" xmlns="http://www.w3.org/2000/svg" xmlns:xlink="http://www.w3.org/1999/xlink" x="0px" y="0px"
	 width="1201.284px" height="75.493px" viewBox="0 0 1201.284 75.493" enable-background="new 0 0 1201.284 75.493"
	 xml:space="preserve">
<g>
	<g>
		<path fill="#61274B" d="M377.886,10.384c-2.288-2.042-4.411-1.197-8.018-0.991c-2.165,0.124-5.05,0.29-7.936,0.454
			c-3.605,0.205-5.646,2.493-8.49,3.379c-4.288,0.97-8.657,0.496-12.263,0.701c-3.608,0.206-7.297-1.029-10.903-0.825
			c-2.163,0.124-5.814-0.392-7.937,0.454c-3.522,1.648-4.76,5.337-8.284,6.986l69.702,3.979
			C383.429,18.752,382.419,13.743,377.886,10.384z"/>
	</g>
	<g>
		<path fill="#61274B" d="M391.797,13.208c-3.009-1.999-5.854-1.113-9.459-0.907l16.991,6.487
			C397.474,16.435,394.344,14.304,391.797,13.208z"/>
	</g>
	<g>
		<path fill="#61274B" d="M984.805,10.384c-2.288-2.042-4.411-1.197-8.018-0.991c-2.164,0.124-5.049,0.29-7.935,0.454
			c-3.606,0.205-5.647,2.493-8.493,3.379c-4.286,0.97-8.655,0.496-12.262,0.701c-3.607,0.206-7.296-1.029-10.902-0.825
			c-2.164,0.124-5.813-0.392-7.935,0.454c-3.523,1.648-4.76,5.337-8.285,6.986l69.702,3.979
			C990.348,18.752,989.339,13.743,984.805,10.384z"/>
	</g>
	<g>
		<path fill="#61274B" d="M998.717,13.208c-3.01-1.999-5.854-1.113-9.461-0.907l16.992,6.487
			C1004.393,16.435,1001.263,14.304,998.717,13.208z"/>
	</g>
	<g>
		<path fill="#61274B" d="M1192.555,23.847c-2.887,0.165-5.772,0.33-8.574,1.937c-1.402,0.804-2.04,2.286-4.164,3.133
			c-2.843,0.884-5.049,0.288-7.936,0.454c-5.048,0.287-9.418-0.187-14.549-1.34c-4.369-0.476-8.698-0.229-13.15-2.146
			c-2.967-1.278-6.779-4.677-11.148-5.152c-2.698-0.514-9.021-0.193-9.208,3.778c-2.067-1.612-4.136-3.104-6.704-3.594
			c-3.646-0.515-7.934,0.455-11.541,0.659c-7.054,0.402-13.654,2.542-20.436,3.995l-9.799-0.007
			c-0.707-0.287-1.419-0.528-2.144-0.69c-3.69-1.238-6.573-1.072-10.183-0.866c-2.938,0.167-5.854,0.733-8.718,1.543l-3.345-0.002
			c-1.742,2.113-4.358,3.559-7.84,3.701c-1.705,1.26-3.9,2.042-6.604,2.042c-0.699,0-1.354-0.067-1.984-0.164
			c-0.648,0.103-1.327,0.164-2.045,0.164c-0.96,0-1.854-0.101-2.687-0.283c-0.833,0.181-1.728,0.283-2.687,0.283
			c-0.376,0-0.735-0.025-1.091-0.053c-1.545,0.876-3.416,1.397-5.626,1.397c-5.838,0-9.349-3.598-10.551-7.932
			c-1.23-1.559-2.012-3.45-2.326-5.433l-1.27-0.485c0.306,0.389,0.586,0.782,0.815,1.18c1.102,1.92,1.867,3.854,2.742,5.557
			l-79.28-0.051c-0.405-0.574-0.859-1.165-1.407-1.777c-2.288-2.041-5.855-1.113-8.739-0.948c-2.392,0.378-4.339,1.458-6.144,2.714
			l-2.395-0.001c-1.803,2.642-4.792,4.491-8.977,4.491c-0.823,0-1.586-0.09-2.316-0.225c-0.748,0.142-1.54,0.225-2.385,0.225
			c-2.811,0-5.071-0.848-6.807-2.197c-1.304-0.216-2.449-0.647-3.468-1.217c-0.371,0.032-0.75,0.056-1.143,0.056
			c-1.992,0-3.703-0.429-5.155-1.152h-0.437c-0.626,0.312-1.31,0.557-2.037,0.749c-1.827,1.867-4.426,3.09-7.819,3.09
			c-0.951,0-1.83-0.109-2.655-0.291c-0.332,0.073-0.677,0.126-1.028,0.171c-1.56,0.915-3.46,1.463-5.719,1.463
			c-4.549,0-7.688-2.185-9.421-5.2l-2.383-0.002c-3.146-2.615-6.384-5.285-10.957-5.995c-3.691-1.236-9.461-0.908-13.706,0.783
			c-4.287,0.969-8.533,2.658-12.861,2.906l0.686,2.282c-2.076-5.851-9.025-6.172-13.959-6.591c-3.68-0.197-9.039-1.676-13.856-1.72
			l0.706-0.424c-2.327-2.763-4.573-4.082-7.584-6.081c-2.287-2.04-4.656-5.523-6.944-7.563c-3.813-3.401-8.141-3.155-13.19-2.865
			c-4.329,0.246-8.698-0.227-12.944,1.463c-6.409,1.813-9.727,7.069-12.323,12.284c-1.959,3.73-3.194,7.419-6.679,9.788
			c-0.575,0.646-1.281,1.177-2.048,1.652l-17.163-0.012l9.875-0.383c-2.969-1.277-5.256-3.318-8.141-3.153
			c-3.607,0.205-6.492,0.37-9.336,1.256c-1.583,0.493-2.695,1.406-3.859,2.273h-0.471c-1.498,0.793-3.283,1.267-5.377,1.267
			c-2.101,0-3.891-0.477-5.39-1.274l-1.068-0.001c-1.813,1.225-3.986,1.947-6.302,1.947h-0.672c-2.322,0-4.499-0.724-6.316-1.955
			c0,0-33.693,23.321-73.796-2.799c-3.65-0.516-7.936,0.453-10.78,1.34c-2.323,0.132-4.647,0.276-6.927,1.161
			c-1.681,3.224-4.888,5.61-9.64,5.61c-2.166,0-4.006-0.504-5.533-1.35c-0.659-0.008-1.29-0.06-1.889-0.156
			c-0.631,0.097-1.283,0.163-1.98,0.163c-2.692,0-4.886-0.77-6.593-2.019c-0.042,0-0.082,0.004-0.123,0.004
			c-1.637,0-3.082-0.295-4.354-0.799c-1.275,0.509-2.732,0.799-4.376,0.799c-2.709,0-4.915-0.778-6.625-2.041l-1.654-0.001
			c-2.747-1.527-6.081-4.08-9.826-4.487c-2.698-0.514-9.02-0.193-9.207,3.777c-2.067-1.611-4.136-3.104-6.704-3.593
			c-3.648-0.515-7.935,0.455-11.542,0.659c-6.447,0.368-12.516,2.187-18.689,3.607l-2.641-0.003
			c-1.549,0.882-3.428,1.408-5.646,1.408c-2.76,0-5.002-0.804-6.725-2.108c-3.085-0.802-5.694-0.653-8.859-0.472
			c-2.443,0.14-4.869,0.554-7.265,1.155l-3.919-0.002c-1.615,1.817-3.909,3.097-6.889,3.38c-1.713,1.277-3.915,2.077-6.641,2.077
			c-0.982,0-1.893-0.108-2.742-0.298c-0.58,0.124-1.181,0.221-1.82,0.259c-1.226,0.455-2.615,0.711-4.168,0.711
			c-0.926,0-1.793-0.092-2.602-0.261c-1.4,0.545-2.992,0.855-4.786,0.855c-2.585,0-4.759-0.638-6.525-1.705
			c-3.204-0.752-5.563-2.63-7.071-5.047l-78.351-0.05c-0.334-0.452-0.7-0.913-1.126-1.387c-2.287-2.041-5.854-1.113-8.739-0.948
			c-2.141,0.338-3.923,1.24-5.568,2.326l-0.934-0.001c-1.77,2.844-4.834,4.876-9.217,4.876c-0.445,0-0.867-0.034-1.285-0.076
			c-0.451,0.048-0.918,0.076-1.402,0.076c-0.316,0-0.611-0.032-0.915-0.054c-0.359,0.029-0.722,0.054-1.099,0.054
			c-1.537,0-2.902-0.263-4.115-0.709c-2.864-0.161-5.121-1.219-6.788-2.795c-0.594,0.085-1.206,0.146-1.857,0.146
			c-1.348,0-2.556-0.211-3.655-0.559c-1.116,0.36-2.36,0.559-3.732,0.559c-0.936,0-1.795-0.115-2.611-0.289
			c-1.367,0.611-2.959,0.961-4.776,0.961c-0.653,0-1.274-0.05-1.868-0.137c-1.838,2.099-4.571,3.494-8.206,3.494
			c-3.025,0-5.418-0.973-7.194-2.507c-1.492-0.748-2.7-1.81-3.619-3.08l-1.913-0.001c-3.002-2.484-6.14-4.93-10.486-5.604
			c-3.691-1.236-9.46-0.908-13.706,0.783c-4.287,0.969-8.534,2.658-12.861,2.906l12.235,1.899l-11.686-0.007
			c-2.239-5.483-8.997-5.792-13.821-6.201c-3.68-0.197-9.039-1.676-13.855-1.72l0.706-0.424c-2.328-2.763-4.574-4.082-7.585-6.081
			c-2.286-2.04-4.657-5.523-6.944-7.563c-3.813-3.401-8.142-3.155-13.19-2.865c-4.328,0.246-8.697-0.227-12.942,1.463
			c-6.411,1.813-9.728,7.069-12.325,12.284c-1.959,3.73-3.195,7.419-6.678,9.788c-0.426,0.477-0.93,0.886-1.467,1.262l-7.87-0.005
			c-2.968-1.277-5.255-3.318-8.14-3.153c-3.607,0.205-6.493,0.37-9.338,1.256c-2.844,0.887-4.162,3.134-7.008,4.019
			c-2.081,1.567-4.327,0.247-7.212,0.412c-9.419-0.186-19.559-0.332-29.493,3.131c-7.09,2.577-16.467,3.112-24.485,2.123
			c-5.09-0.433-10.222-1.587-15.311-2.021c-2.928-0.557-5.855-1.113-8.738-0.947C0.349,29.776,0.167,29.796,0,29.811v45.682
			h1201.284V22.378C1198.166,22.356,1194.88,23.122,1192.555,23.847z M167.463,24.983l-2.087-0.001l2.711-1.628
			C167.863,23.881,167.654,24.425,167.463,24.983z"/>
	</g>
</g>
<path fill="#61274B" d="M1002.191,16.39c-1.068-1.389-2.519-2.5-4.352-3.134c-1.679-1.584-4.011-2.598-6.997-2.598
	c-6.021,0-9.376,4.12-10.082,8.723c-17.469-0.076-34.909-1.29-52.379-1.336c-13.644-0.037-13.64,21.12,0,21.156
	c17.696,0.047,35.361,1.297,53.057,1.343c5.328,0.014,8.564-3.206,9.731-7.134c0.151,0.041,0.292,0.097,0.448,0.133
	c1.633,2.166,4.166,3.644,7.619,3.644C1012.271,37.186,1013.248,19.131,1002.191,16.39z"/>
<path fill="#61274B" d="M398.611,17.23c-1.693-2.655-4.643-4.557-8.863-4.557c0,0-0.892,0.027-1.318,0.073
	c-1.183-0.469-2.527-0.745-4.053-0.745c-0.698,0-1.352,0.069-1.979,0.174c-0.646-0.112-1.327-0.174-2.049-0.174
	c-3.846,0-6.606,1.681-8.283,4.095c-0.745,0.569-1.379,1.239-1.914,1.974c-1.15-0.435-2.444-0.693-3.907-0.696
	c-14.787-0.029-29.557-0.672-44.326-1.343c-13.645-0.62-13.584,20.538,0,21.156c14.77,0.671,29.539,1.314,44.326,1.343
	c3.845,0.008,6.605-1.667,8.283-4.078c1.211,0.456,2.587,0.72,4.14,0.72c2.499,0,4.506-0.783,6.048-2.032
	c0.325-0.009,0.634-0.039,0.943-0.071c0.336,0.135,0.648,0.251,0.968,0.354c1.651,2.592,4.477,4.436,8.498,4.436
	C407.482,37.858,408.646,20.497,398.611,17.23z"/>
<path fill="#61274B" d="M219.967,33.912c0.264-5.478-3.134-11.166-10.207-11.166c-7.372,0-10.752,6.174-10.159,11.852
	c-0.027,5.312,3.243,10.647,9.82,10.647C216.81,45.244,220.319,39.44,219.967,33.912z"/>
<path fill="#61274B" d="M168.879,16.701c-4,0-6.749,1.69-8.426,4.114c-0.465-0.051-0.574-0.084-1.574-0.084
	c-13,0-13,21.155,0,21.155c4,0,6.954-1.677,8.688-4.087c0.383,0.037,0.312,0.058,1.312,0.058
	C181.879,37.857,181.879,16.701,168.879,16.701z"/>
<g>
	<g>
		<path fill="#E6E6E6" d="M137.334,44.858c-2.198,0.019-3.388,0.821-4.796,2.5c-4.364,5.202-11.532,4.45-17.905,4.56
			c-7.793,0.134-14.957-11.245-7.541-16.845c3.831-2.893,8.781-3.841,12.309-7.154c3.81-3.58,5.598-7.77,8.068-12.343
			c4.494-8.318,11.677-10.537,20.775-10.694c2.532-0.044,5.045-0.269,7.583-0.166c4.367,0.177,7.199,2.851,9.865,5.945
			c3.504,4.064,8.001,6.518,11.556,10.453c0.52,0.575,2.52-0.199,1.941-0.84c-1.935-2.141-4.092-3.777-6.482-5.365
			c-3.215-2.136-5.305-5.62-8.049-8.279c-4.594-4.452-11.769-3.07-17.478-2.97c-6.095,0.105-11.853,1.247-16.632,5.21
			c-5.621,4.663-6.656,12.598-11.637,17.703c-4.607,4.724-12.399,5.289-16.223,10.932c-3.023,4.462,1.32,11.531,4.858,14.097
			c4.099,2.974,11.485,1.377,16.036,1.199c2.678-0.104,5.119-0.333,7.572-1.426c2.14-0.954,2.798-5.239,5.383-5.261
			C137.363,46.106,138.75,44.846,137.334,44.858L137.334,44.858z"/>
	</g>
	<g>
		<path fill="#E6E6E6" d="M202.865,40.935c2.067-5.161,5.953-9.191,1.951-14.53c-2.585-3.447-8.128-3.772-12.006-4.108
			c-8.044-0.698-19.398-5.042-25.465,2.536c-3.268,4.084-4.219,11.688-2.046,16.357c1.71,3.674,6.943,4.289,10.426,4.149
			c3.227-0.13,6.863-0.954,9.935,0.283c2.607,1.051,3.695,4.352,5.464,6.268c2.714,2.937,7.478,2.109,10.526,0.413
			c1.236-0.689-0.6-1.085-1.316-0.687c-6.686,3.722-8.265-3.456-12.155-6.517c-1.702-1.338-4.077-1.344-6.123-1.33
			c-4.185,0.03-8.259,1.015-12.226-0.874c-5.262-2.506-3.607-10.069-2.216-14.332c3.509-10.754,16.126-5.7,24.399-5.015
			c4.63,0.384,9.61,1.008,12.033,5.517c2.198,4.091-1.817,8.459-3.279,12.111C200.475,41.906,202.577,41.656,202.865,40.935
			L202.865,40.935z"/>
	</g>
	<g>
		<path fill="#E6E6E6" d="M204.523,27.831c5.553-0.564,10.801-2.461,16.164-3.881c5.877-1.557,12.374,0.025,17.285,3.397
			c5.89,4.042,9.921,9.027,17.664,8.42c1.115-0.087,1.668-1.483,0.229-1.371c-8.988,0.705-13.868-8.084-21.616-10.998
			c-10.19-3.834-19.453,2.04-29.496,3.062C203.646,26.573,203.085,27.977,204.523,27.831L204.523,27.831z"/>
	</g>
	<g>
		<path fill="#E6E6E6" d="M251.091,38.203c8.387-6.211,22.024-9.232,32.039-5.786c3.803,1.309,7.106,2.44,11.152,2.867
			c3.358,0.353,8.277,0.486,11.266,2.311c0.499,0.305,2.209-0.556,1.976-0.699c-4.051-2.474-10.201-2.109-14.758-2.823
			c-6.376-1-11.244-3.952-17.866-3.783c-8.832,0.225-18.538,2.798-25.695,8.098C248.787,38.697,250.702,38.491,251.091,38.203
			L251.091,38.203z"/>
	</g>
	<g>
		<path fill="#E6E6E6" d="M294.744,35.818c6.014-0.134,9.553-4.453,14.512-7.185c4.551-2.509,10.499-1.57,13.361,2.804
			c1.573,2.404,3.107,3.961,5.682,5.261c0.897,0.453,2.397-0.849,1.196-1.456c-3.86-1.95-4.265-5.973-7.502-8.136
			c-2.595-1.734-5.158-1.541-8.185-1.232c-7.333,0.748-11.66,8.189-18.895,8.35C293.699,34.251,293.322,35.849,294.744,35.818
			L294.744,35.818z"/>
	</g>
	<g>
		<path fill="#E6E6E6" d="M313.689,24.852c1.762-1.017,3.109-2.268,4.472-3.769c3.608-3.974,9.14-3.686,14.088-3.239
			c6.681,0.603,13.362,1.167,20.033-0.042c1.482-0.269,2.905-1.184,4.194-1.904c3.638-2.028,8.229-1.607,12.231-1.929
			c9.839-0.791,12.415,6.553,12.996,14.862c0.044,0.632,2.147,0.203,2.094-0.561c-0.35-4.991-1.845-14.358-8.231-15.526
			c-3.007-0.549-6.169,0.108-9.188,0.281c-3.45,0.198-6.631,0.174-9.818,1.592c-4.905,2.181-9.041,2.704-14.383,2.723
			c-4.603,0.018-9.089-0.823-13.685-0.753c-2.495,0.038-5.177-0.378-7.564,0.602c-3.507,1.439-5.295,5.24-8.523,7.102
			C311.183,24.998,313.047,25.223,313.689,24.852L313.689,24.852z"/>
	</g>
	<g>
		<path fill="#E6E6E6" d="M380.865,16.711c7.031-0.56,13.104,1.537,17.225,7.566c2.838,4.156,3.334,9.434,8.496,11.39
			c3.868,1.465,8.175,0.819,12.171,0.591c2.855-0.164,5.71-0.326,8.565-0.489c4.28-0.246,7.083,1.246,10.725,2.938
			c0.541,0.251,2.131-0.618,1.98-0.688c-5.492-2.552-8.587-3.194-14.634-2.85c-6.182,0.353-15.884,2.657-20.528-2.656
			c-2.111-2.414-3.199-5.991-4.683-8.796c-1.229-2.323-3.618-4-5.731-5.415c-4.349-2.91-7.699-2.746-12.656-2.352
			C381.296,15.989,379.494,16.82,380.865,16.711L380.865,16.711z"/>
	</g>
	<g>
		<path fill="#E6E6E6" d="M432.792,35.697c8.679-4.025,17.275-7.247,26.989-7.048c7.622,0.156,12.806,6.034,19.762,8.037
			c0.84,0.242,2.477-0.984,1.227-1.344c-7.96-2.292-13.295-8.425-22.147-8.166c-9.628,0.281-18.072,3.364-26.732,7.38
			C430.584,35.161,431.756,36.178,432.792,35.697L432.792,35.697z"/>
	</g>
	<g>
		<path fill="#E6E6E6" d="M468.15,31.518c10.499-0.815,20.439-4.577,30.952-5.426c2.722-0.22,5.35-0.648,8.095-0.657
			c3.407-0.013,6.1,2.247,8.6,4.204c2.613,2.046,5.18,3.679,8.447,4.415c0.707,0.16,2.477-0.915,1.269-1.187
			c-4.798-1.081-7.989-4.605-12.026-7.114c-3.272-2.034-7.137-1.641-10.791-1.268c-5.264,0.536-10.446,1.052-15.619,2.191
			c-6.219,1.371-12.277,3.119-18.658,3.614C467.359,30.373,466.703,31.631,468.15,31.518L468.15,31.518z"/>
	</g>
	<g>
		<path fill="#E6E6E6" d="M517.023,29.346c-0.527-5.57,7.451-4.124,10.293-3.236c3.036,0.95,5.37,3.353,8.321,4.459
			c3.336,1.249,6.584,1.671,10.118,1.922c4.753,0.338,9.355,1.499,14.139,1.68c3.387,0.129,6.867,0.11,10.245-0.158
			c3.752-0.298,5.98-3.805,9.485-4.885c1.784-0.549,3.473-0.109,5.176-0.607c2.391-0.7,4.773-1.182,7.26-1.404
			c5.214-0.464,7.511,3.53,11.714,5.35c0.789,0.342,2.434-0.79,1.236-1.308c-3.18-1.376-5.605-5.015-9.224-5.32
			c-5-0.422-9.577,1.12-14.505,1.632c-4.864,0.506-8.935,5.308-13.725,5.254c-2.898-0.032-5.796,0.093-8.691-0.018
			c-3.102-0.117-6.018-1.064-9.081-1.346c-5.722-0.525-10.893-0.76-15.95-3.814c-3.143-1.897-6.128-3.348-9.829-3.654
			c-4.06-0.336-9.544,1.067-9.076,6.011C515.011,30.768,517.111,30.277,517.023,29.346L517.023,29.346z"/>
	</g>
	<g>
		<path fill="#E6E6E6" d="M588.402,48.105c-5.023,0.05-8.435-2.257-12.998-3.565c-3.801-1.09-7.989-1.671-11.95-1.57
			c-2.206,0.057-4.975-0.256-7.016,0.839c-4.755,2.549-7.083,6.8-12.979,7.59c-0.985,0.132-1.758,1.293-0.304,1.098
			c2.375-0.317,4.688-0.918,6.8-2.109c0.865-0.489,2.161-1.013,2.814-1.815c2.803-3.433,5.391-4.464,9.856-4.47
			c5.607-0.008,10.438,1.169,15.582,3.319c3.037,1.269,6.083,1.848,9.367,1.815C588.318,49.231,589.815,48.091,588.402,48.105
			L588.402,48.105z"/>
	</g>
	<g>
		<path fill="#E6E6E6" d="M536.244,46.839c-8.406,0.48-16.813,0.958-25.22,1.44c-4.259,0.244-8.062,0.275-12.261-0.744
			c-2.48-0.604-4.848-1.038-7.408-1.028c-0.621,0.003-2.277,0.949-0.879,0.944c3.383-0.014,6.43,1.085,9.708,1.668
			c3.384,0.601,6.538,0.3,9.96,0.104c8.406-0.482,16.814-0.961,25.221-1.44C535.976,47.748,537.639,46.76,536.244,46.839
			L536.244,46.839z"/>
	</g>
	<g>
		<path fill="#E6E6E6" d="M414.314,51.138c2.877,1.617,5.949,1.393,9.125,0.923c4.688-0.695,9.108-1.868,13.87-2.254
			c5.382-0.436,10.029,0.277,14.621,2.999c1.646,0.975,4.229,2.863,3.354,5.146c-1.502,3.907-9.25,3.631-12.548,3.636
			c-6.353,0.01-11.946-0.495-17.953-2.729c-4.827-1.794-9.705-3.042-14.847-3.389c-5.52-0.372-10.954,1.142-16.491,0.768
			c-2.569-0.174-4.814-1.572-7.337-1.751c-2.189-0.155-4.567,0.251-6.759,0.376c-1.109,0.063-1.676,1.423-0.237,1.34
			c3.789-0.215,6.99-0.217,10.65,0.942c2.036,0.646,4.442,0.655,6.544,0.551c7.812-0.388,14.677-1.34,22.399,0.818
			c10.941,3.058,23.294,7.661,34.564,2.706c8.223-3.614,2.147-9.286-3.497-11.429c-4.488-1.704-9.212-1.568-13.929-1.185
			c-5.88,0.476-14.568,4.416-19.889,1.425C415.263,49.641,413.367,50.606,414.314,51.138L414.314,51.138z"/>
	</g>
	<g>
		<path fill="#E6E6E6" d="M374.57,31.45c-7.904,3.812-18.712,0.256-26.959-0.508c-7.538-0.7-8.97,4.027-14.294,8.167
			c-0.948,0.738,1.148,0.771,1.683,0.356c3.354-2.609,5.179-7.307,10.096-7.399c4.239-0.079,8.394,1.188,12.596,1.554
			c5.759,0.499,12.318,1.309,17.71-1.292C376.711,31.695,375.507,30.999,374.57,31.45L374.57,31.45z"/>
	</g>
	<g>
		<path fill="#E6E6E6" d="M322.421,52.142c5.314-0.291,9.409,0.356,14.363,2.217c2.747,1.033,5.448,1.722,8.371,1.544
			c2.286-0.139,4.857-0.514,6.802-1.831c1.326-0.897,2.46-1.824,3.572-2.992c2.328-2.447,5.527-2.584,8.647-2.771
			c1.063-0.063,1.715-1.31,0.27-1.224c-2.584,0.153-5.016,0.34-7.42,1.322c-3.947,1.61-5.513,5.476-10.235,6.154
			c-4.937,0.708-9.482-1.766-13.989-3.371c-2.959-1.055-7.004-0.444-10.112-0.273C321.625,50.976,320.975,52.221,322.421,52.142
			L322.421,52.142z"/>
	</g>
	<g>
		<path fill="#E6E6E6" d="M305.65,53.722c-3.061-14.197-28.121-12.413-37.073-5.6c-0.452,0.345,1.497,0.15,1.897-0.153
			c8.261-6.286,30.36-6.308,33.084,6.315C303.656,54.74,305.759,54.227,305.65,53.722L305.65,53.722z"/>
	</g>
	<g>
		<path fill="#E6E6E6" d="M246.771,56.612c-3.598-1.277-6.154-5.057-10.002-5.696c-5.102-0.848-9.579-1.235-14.768-0.947
			c-3.484,0.193-6.043,1.199-8.753,3.378c-5.22,4.194-10.099,5.591-16.763,6.039c-1.203,0.082-1.596,1.688-0.171,1.592
			c3.66-0.247,7.521-0.556,10.973-1.914c3.998-1.575,6.495-4.642,10.183-6.649c4.392-2.393,12.574-1.251,17.156-0.163
			c4.295,1.02,6.88,4.37,10.949,5.814C246.506,58.397,248.033,57.06,246.771,56.612L246.771,56.612z"/>
	</g>
	<g>
		<path fill="#E6E6E6" d="M153.763,31.149c-2.872-4.596-9.313-4.438-14.05-3.656c-7.281,1.203-10.939,8.802-18.266,9.642
			c-1.002,0.115-1.752,1.288-0.297,1.122c4.572-0.524,7.766-2.718,11.18-5.664c4.754-4.102,15.25-7.411,19.487-0.634
			C152.171,32.526,154.21,31.862,153.763,31.149L153.763,31.149z"/>
	</g>
	<g>
		<path fill="#E6E6E6" d="M59.141,49.535c5.336-4.805,12.664-4.464,18.518-0.849c0.739,0.458,2.604-0.563,1.625-1.167
			c-7.003-4.324-15.666-4.138-21.879,1.457C56.448,49.837,58.497,50.115,59.141,49.535L59.141,49.535z"/>
	</g>
	<g>
		<path fill="#E6E6E6" d="M596.856,33.991c2.959,1.195,6.019,0.535,9.106,0.253c5.529-0.504,12.618,1.461,18.085,2.254
			c9.432,1.369,18.73,1.717,28.043-0.58c6.491-1.6,12.455-3.448,19.202-3.883c5.679-0.365,11.421-0.223,17.078,0.286
			c1.813,0.163,3.962-0.84,5.396-1.715c7.516-4.583,13.372-5.115,21.385-1.266c0.567,0.273,2.258-0.59,1.968-0.73
			c-2.736-1.314-5.482-3.423-8.678-3.235c-3.918,0.231-7.803,0.46-11.462,1.98c-1.351,0.562-2.518,1.597-3.688,2.451
			c-2.509,1.832-5.301,1.33-8.181,1.254c-5.555-0.148-11.104-0.122-16.642,0.361c-4.749,0.413-9.372,1.478-13.896,2.951
			c-7.092,2.312-14.424,2.727-21.82,2.119c-6.742-0.555-13.588-1.675-20.26-2.792c-4.416-0.738-9.859,1.089-13.927-0.553
			C598.085,32.954,596.185,33.72,596.856,33.991L596.856,33.991z"/>
	</g>
	<g>
		<path fill="#E6E6E6" d="M744.254,44.858c-2.199,0.019-3.389,0.821-4.797,2.5c-4.364,5.203-11.531,4.45-17.905,4.56
			c-7.792,0.134-14.957-11.245-7.542-16.845c3.832-2.893,8.781-3.841,12.309-7.154c3.81-3.58,5.599-7.769,8.069-12.343
			c4.494-8.319,11.678-10.537,20.774-10.694c2.534-0.044,5.045-0.269,7.584-0.166c4.367,0.177,7.2,2.851,9.865,5.945
			c3.504,4.064,8.002,6.518,11.556,10.453c0.518,0.575,2.518-0.199,1.939-0.84c-1.934-2.142-4.09-3.777-6.48-5.365
			c-3.216-2.136-5.305-5.62-8.05-8.279c-4.594-4.451-11.766-3.07-17.477-2.97c-6.096,0.105-11.854,1.247-16.631,5.21
			c-5.621,4.663-6.657,12.598-11.637,17.703c-4.609,4.723-12.4,5.289-16.224,10.932c-3.023,4.462,1.321,11.531,4.859,14.097
			c4.099,2.974,11.484,1.377,16.036,1.199c2.678-0.104,5.118-0.333,7.572-1.426c2.139-0.954,2.798-5.239,5.381-5.261
			C744.281,46.106,745.67,44.846,744.254,44.858L744.254,44.858z"/>
	</g>
	<g>
		<path fill="#E6E6E6" d="M809.785,40.935c2.066-5.162,5.951-9.191,1.948-14.53c-2.585-3.447-8.127-3.772-12.005-4.108
			c-8.043-0.698-19.399-5.042-25.463,2.536c-3.269,4.085-4.221,11.687-2.047,16.357c1.71,3.674,6.943,4.289,10.427,4.149
			c3.226-0.13,6.862-0.954,9.934,0.283c2.605,1.051,3.694,4.353,5.465,6.268c2.712,2.937,7.476,2.109,10.525,0.413
			c1.237-0.689-0.599-1.085-1.316-0.687c-6.686,3.721-8.265-3.455-12.155-6.517c-1.701-1.338-4.077-1.344-6.123-1.33
			c-4.185,0.03-8.259,1.015-12.227-0.874c-5.262-2.506-3.606-10.068-2.215-14.332c3.51-10.754,16.125-5.7,24.398-5.015
			c4.631,0.384,9.61,1.008,12.033,5.517c2.198,4.092-1.816,8.458-3.279,12.111C807.394,41.906,809.496,41.656,809.785,40.935
			L809.785,40.935z"/>
	</g>
	<g>
		<path fill="#E6E6E6" d="M811.443,27.831c5.553-0.564,10.799-2.461,16.162-3.881c5.878-1.557,12.376,0.025,17.287,3.397
			c5.889,4.043,9.92,9.027,17.663,8.42c1.116-0.087,1.669-1.483,0.23-1.371c-8.988,0.705-13.868-8.084-21.616-10.998
			c-10.191-3.834-19.454,2.04-29.496,3.062C810.565,26.573,810.006,27.977,811.443,27.831L811.443,27.831z"/>
	</g>
	<g>
		<path fill="#E6E6E6" d="M858.011,38.203c8.386-6.211,22.023-9.232,32.038-5.786c3.803,1.309,7.106,2.44,11.152,2.867
			c3.358,0.353,8.277,0.486,11.266,2.311c0.499,0.305,2.209-0.556,1.977-0.699c-4.051-2.474-10.201-2.109-14.758-2.823
			c-6.377-1-11.244-3.952-17.867-3.783c-8.831,0.225-18.538,2.797-25.696,8.098C855.705,38.697,857.621,38.491,858.011,38.203
			L858.011,38.203z"/>
	</g>
	<g>
		<path fill="#E6E6E6" d="M901.662,35.818c6.014-0.134,9.555-4.452,14.512-7.185c4.552-2.509,10.5-1.57,13.361,2.804
			c1.574,2.405,3.109,3.961,5.683,5.261c0.898,0.453,2.398-0.849,1.196-1.456c-3.861-1.95-4.266-5.973-7.503-8.136
			c-2.594-1.733-5.158-1.541-8.185-1.232c-7.333,0.748-11.661,8.189-18.896,8.35C900.617,34.251,900.24,35.849,901.662,35.818
			L901.662,35.818z"/>
	</g>
	<g>
		<path fill="#E6E6E6" d="M920.608,24.852c1.763-1.017,3.108-2.268,4.472-3.769c3.608-3.974,9.139-3.686,14.088-3.239
			c6.681,0.603,13.361,1.167,20.032-0.042c1.482-0.269,2.906-1.184,4.194-1.904c3.64-2.028,8.231-1.607,12.232-1.929
			c9.839-0.791,12.413,6.554,12.996,14.862c0.044,0.632,2.146,0.203,2.094-0.561c-0.35-4.992-1.844-14.358-8.23-15.526
			c-3.008-0.549-6.169,0.108-9.189,0.281c-3.45,0.198-6.631,0.174-9.818,1.592c-4.906,2.181-9.041,2.704-14.384,2.723
			c-4.602,0.018-9.088-0.823-13.684-0.753c-2.494,0.038-5.178-0.378-7.564,0.602c-3.506,1.439-5.293,5.24-8.523,7.102
			C918.102,24.998,919.965,25.223,920.608,24.852L920.608,24.852z"/>
	</g>
	<g>
		<path fill="#E6E6E6" d="M987.784,16.711c7.032-0.56,13.104,1.536,17.224,7.566c2.839,4.156,3.335,9.434,8.497,11.39
			c3.866,1.465,8.176,0.819,12.17,0.591c2.856-0.164,5.711-0.326,8.567-0.489c4.279-0.246,7.081,1.246,10.725,2.938
			c0.541,0.251,2.129-0.618,1.979-0.688c-5.491-2.552-8.586-3.194-14.632-2.85c-6.183,0.353-15.886,2.657-20.53-2.656
			c-2.111-2.414-3.197-5.991-4.682-8.796c-1.23-2.323-3.618-4-5.732-5.415c-4.349-2.91-7.699-2.746-12.657-2.352
			C988.215,15.989,986.413,16.82,987.784,16.711L987.784,16.711z"/>
	</g>
	<g>
		<path fill="#E6E6E6" d="M1039.713,35.697c8.678-4.025,17.274-7.247,26.986-7.048c7.623,0.156,12.808,6.033,19.761,8.037
			c0.842,0.242,2.479-0.984,1.228-1.344c-7.959-2.293-13.295-8.424-22.146-8.166c-9.626,0.281-18.072,3.364-26.731,7.38
			C1037.504,35.161,1038.676,36.178,1039.713,35.697L1039.713,35.697z"/>
	</g>
	<g>
		<path fill="#E6E6E6" d="M1075.07,31.518c10.498-0.815,20.438-4.577,30.952-5.426c2.721-0.22,5.349-0.648,8.095-0.657
			c3.406-0.013,6.099,2.247,8.599,4.204c2.614,2.046,5.18,3.679,8.446,4.415c0.708,0.16,2.478-0.915,1.27-1.187
			c-4.798-1.081-7.989-4.605-12.026-7.114c-3.272-2.034-7.138-1.641-10.79-1.268c-5.264,0.536-10.446,1.052-15.621,2.191
			c-6.219,1.371-12.277,3.119-18.656,3.614C1074.279,30.373,1073.623,31.631,1075.07,31.518L1075.07,31.518z"/>
	</g>
	<g>
		<path fill="#E6E6E6" d="M1123.941,29.346c-0.689-10.676,18.558,1.692,22.977,2.319c9.18,1.304,18.035,1.943,27.267,2.227
			c6.515,0.2,10.41-5.153,16.916-5.567c3.786-0.241,6.98-1.362,10.184-0.857V26.05c-3.761,0.094-7.167,1.247-10.966,1.489
			c-2.562,0.163-5.989,0.617-8.124,2.222c-5.303,3.987-12.505,3.565-18.892,2.952c-6.94-0.665-15.912-1.157-21.88-4.661
			c-3.472-2.038-6.589-3.689-10.668-3.924c-3.872-0.224-9.209,1.075-8.905,5.779C1121.877,30.335,1123.98,29.958,1123.941,29.346z"
			/>
		<path fill="#E6E6E6" d="M0,34.223c5.268-0.084,11.31,1.406,16.304,2.15c9.476,1.413,18.7,1.828,28.097-0.256
			c6.836-1.517,13.143-3.649,20.238-4.095c5.594-0.353,11.238-0.201,16.812,0.3c1.994,0.179,3.706-0.979,5.439-1.732
			c4.351-1.891,2.391-3.187,9.714-4.043c4.308-0.503,7.921,0.986,11.629,2.795c0.566,0.276,2.261-0.586,1.969-0.73
			c-6.301-3.073-11.854-4.383-18.832-1.799c-4.182,1.548-6.579,4.91-11.52,4.294c-5.277-0.659-11.151-0.179-16.438,0.154
			c-4.533,0.284-8.979,1.141-13.35,2.339c-8.102,2.22-15.375,3.542-23.818,2.932c-6.398-0.462-13.043-1.446-19.354-2.614
			C4.747,33.52,2.371,33.664,0,33.792V34.223z"/>
	</g>
	<g>
		<path fill="#E6E6E6" d="M1195.321,48.105c-5.023,0.05-8.435-2.257-12.997-3.565c-3.801-1.09-7.99-1.671-11.951-1.57
			c-2.205,0.057-4.975-0.256-7.015,0.839c-4.755,2.549-7.085,6.801-12.981,7.59c-0.984,0.132-1.757,1.293-0.303,1.098
			c2.376-0.317,4.688-0.918,6.799-2.109c0.866-0.489,2.16-1.013,2.814-1.815c2.803-3.433,5.393-4.464,9.857-4.47
			c5.607-0.008,10.438,1.169,15.581,3.319c3.037,1.269,6.083,1.848,9.367,1.815C1195.236,49.231,1196.734,48.091,1195.321,48.105
			L1195.321,48.105z"/>
	</g>
	<g>
		<path fill="#E6E6E6" d="M1143.164,46.839c-8.406,0.48-16.813,0.958-25.22,1.44c-4.259,0.244-8.062,0.275-12.261-0.744
			c-2.482-0.604-4.848-1.038-7.408-1.028c-0.622,0.003-2.278,0.949-0.879,0.944c3.381-0.014,6.43,1.085,9.707,1.668
			c3.383,0.601,6.538,0.3,9.96,0.104c8.407-0.482,16.814-0.961,25.221-1.44C1142.895,47.748,1144.558,46.76,1143.164,46.839
			L1143.164,46.839z"/>
	</g>
	<g>
		<path fill="#E6E6E6" d="M1021.232,51.138c2.878,1.617,5.951,1.393,9.127,0.923c4.687-0.695,9.107-1.868,13.87-2.254
			c5.38-0.436,10.028,0.277,14.62,2.999c1.646,0.975,4.229,2.864,3.352,5.146c-1.501,3.907-9.248,3.631-12.546,3.636
			c-6.353,0.01-11.945-0.496-17.952-2.729c-4.828-1.794-9.706-3.042-14.848-3.389c-5.52-0.372-10.955,1.142-16.491,0.768
			c-2.569-0.174-4.815-1.572-7.338-1.751c-2.187-0.155-4.567,0.251-6.757,0.376c-1.111,0.063-1.677,1.423-0.238,1.34
			c3.789-0.215,6.99-0.217,10.65,0.942c2.036,0.646,4.443,0.655,6.544,0.551c7.812-0.388,14.677-1.34,22.4,0.818
			c10.94,3.058,23.292,7.661,34.562,2.706c8.221-3.614,2.148-9.286-3.495-11.429c-4.488-1.704-9.214-1.568-13.931-1.185
			c-5.879,0.476-14.567,4.416-19.888,1.425C1022.182,49.641,1020.287,50.606,1021.232,51.138L1021.232,51.138z"/>
	</g>
	<g>
		<path fill="#E6E6E6" d="M981.489,31.45c-7.904,3.812-18.711,0.256-26.959-0.508c-7.539-0.7-8.969,4.028-14.295,8.167
			c-0.948,0.738,1.15,0.771,1.683,0.356c3.355-2.608,5.18-7.307,10.097-7.399c4.239-0.079,8.394,1.188,12.596,1.554
			c5.76,0.499,12.319,1.309,17.711-1.292C983.631,31.696,982.427,30.999,981.489,31.45L981.489,31.45z"/>
	</g>
	<g>
		<path fill="#E6E6E6" d="M929.34,52.142c5.315-0.291,9.409,0.356,14.363,2.217c2.747,1.033,5.448,1.722,8.371,1.544
			c2.285-0.139,4.857-0.514,6.803-1.831c1.324-0.897,2.459-1.824,3.57-2.992c2.33-2.447,5.528-2.584,8.648-2.771
			c1.063-0.063,1.713-1.31,0.268-1.224c-2.583,0.153-5.014,0.339-7.42,1.322c-3.945,1.61-5.512,5.476-10.234,6.154
			c-4.936,0.708-9.482-1.766-13.988-3.371c-2.959-1.055-7.005-0.444-10.113-0.273C928.544,50.976,927.893,52.221,929.34,52.142
			L929.34,52.142z"/>
	</g>
	<g>
		<path fill="#E6E6E6" d="M912.569,53.722c-3.063-14.197-28.122-12.413-37.073-5.6c-0.453,0.345,1.497,0.15,1.896-0.153
			c8.26-6.286,30.361-6.308,33.084,6.315C910.574,54.74,912.679,54.227,912.569,53.722L912.569,53.722z"/>
	</g>
	<g>
		<path fill="#E6E6E6" d="M853.691,56.612c-3.598-1.277-6.155-5.057-10.003-5.696c-5.103-0.848-9.578-1.235-14.768-0.947
			c-3.485,0.193-6.044,1.2-8.754,3.378c-5.22,4.193-10.097,5.591-16.762,6.039c-1.202,0.082-1.596,1.688-0.171,1.592
			c3.66-0.247,7.522-0.556,10.973-1.914c3.997-1.575,6.495-4.642,10.182-6.649c4.393-2.393,12.575-1.251,17.158-0.163
			c4.295,1.02,6.88,4.37,10.948,5.814C853.426,58.397,854.953,57.06,853.691,56.612L853.691,56.612z"/>
	</g>
	<g>
		<path fill="#E6E6E6" d="M760.683,31.149c-2.874-4.596-9.314-4.438-14.051-3.656c-7.281,1.203-10.939,8.802-18.267,9.642
			c-1.001,0.115-1.751,1.288-0.297,1.122c4.573-0.524,7.766-2.718,11.18-5.664c4.754-4.102,15.252-7.411,19.486-0.634
			C759.09,32.526,761.129,31.862,760.683,31.149L760.683,31.149z"/>
	</g>
	<g>
		<path fill="#E6E6E6" d="M666.06,49.535c5.336-4.805,12.662-4.464,18.516-0.849c0.74,0.458,2.605-0.563,1.625-1.167
			c-7.002-4.324-15.666-4.139-21.878,1.457C663.367,49.837,665.416,50.115,666.06,49.535L666.06,49.535z"/>
	</g>
</g>
<g>
	<g>
		<path fill="#1E0617" stroke="#E9D234" stroke-width="1.0074" stroke-miterlimit="10" stroke-dasharray="0,20.1483" d="
			M138.342,40.828c-2.199,0.019-3.389,0.821-4.796,2.5c-4.364,5.202-11.532,4.45-17.905,4.56
			c-7.794,0.134-14.957-11.245-7.542-16.845c3.832-2.894,8.781-3.841,12.31-7.154c3.809-3.58,5.598-7.77,8.068-12.343
			c4.494-8.318,11.677-10.537,20.774-10.694c2.532-0.044,5.045-0.27,7.583-0.166c4.367,0.177,7.2,2.851,9.866,5.945
			c3.503,4.064,8.001,6.518,11.556,10.453c0.52,0.575,2.518-0.198,1.94-0.84c-1.936-2.141-4.092-3.778-6.482-5.366
			c-3.215-2.136-5.305-5.62-8.05-8.279c-4.593-4.452-11.768-3.069-17.477-2.97c-6.095,0.106-11.852,1.247-16.631,5.21
			c-5.621,4.662-6.656,12.598-11.637,17.703c-4.607,4.724-12.399,5.289-16.223,10.932c-3.025,4.461,1.32,11.531,4.857,14.097
			c4.1,2.974,11.485,1.377,16.037,1.199c2.678-0.104,5.119-0.333,7.572-1.426c2.139-0.954,2.797-5.239,5.382-5.26
			C138.37,42.076,139.758,40.816,138.342,40.828L138.342,40.828z"/>
	</g>
	<g>
		<path fill="#1E0617" stroke="#E9D234" stroke-width="1.0074" stroke-miterlimit="10" stroke-dasharray="0,20.1483" d="
			M203.873,36.906c2.067-5.161,5.953-9.192,1.951-14.53c-2.586-3.447-8.129-3.771-12.007-4.108
			c-8.043-0.697-19.398-5.042-25.465,2.536c-3.267,4.084-4.218,11.688-2.045,16.357c1.71,3.674,6.942,4.29,10.425,4.15
			c3.228-0.13,6.863-0.954,9.936,0.282c2.606,1.051,3.694,4.353,5.463,6.268c2.714,2.937,7.477,2.109,10.526,0.413
			c1.236-0.689-0.599-1.085-1.316-0.687c-6.685,3.722-8.264-3.456-12.155-6.517c-1.701-1.338-4.076-1.344-6.123-1.33
			c-4.184,0.03-8.259,1.016-12.226-0.873c-5.261-2.506-3.606-10.069-2.216-14.332c3.51-10.754,16.127-5.7,24.399-5.015
			c4.63,0.384,9.611,1.008,12.034,5.517c2.197,4.091-1.818,8.459-3.28,12.111C201.482,37.877,203.585,37.627,203.873,36.906
			L203.873,36.906z"/>
	</g>
	<g>
		<path fill="#1E0617" stroke="#E9D234" stroke-width="1.0074" stroke-miterlimit="10" stroke-dasharray="0,20.1483" d="
			M205.531,23.801c5.553-0.565,10.8-2.461,16.164-3.881c5.877-1.556,12.374,0.026,17.285,3.397c5.889,4.043,9.92,9.027,17.664,8.421
			c1.115-0.088,1.668-1.484,0.229-1.372c-8.988,0.706-13.869-8.084-21.616-10.998c-10.19-3.834-19.454,2.041-29.497,3.062
			C204.653,22.543,204.093,23.947,205.531,23.801L205.531,23.801z"/>
	</g>
	<g>
		<path fill="#1E0617" stroke="#E9D234" stroke-width="1.0074" stroke-miterlimit="10" stroke-dasharray="0,20.1483" d="
			M252.099,34.173c8.387-6.211,22.024-9.232,32.038-5.786c3.804,1.309,7.107,2.441,11.152,2.867
			c3.359,0.353,8.278,0.486,11.266,2.311c0.499,0.305,2.21-0.556,1.977-0.699c-4.051-2.474-10.202-2.109-14.758-2.823
			c-6.376-1-11.245-3.952-17.867-3.783c-8.831,0.225-18.537,2.798-25.695,8.098C249.794,34.668,251.71,34.462,252.099,34.173
			L252.099,34.173z"/>
	</g>
	<g>
		<path fill="#1E0617" stroke="#E9D234" stroke-width="1.0074" stroke-miterlimit="10" stroke-dasharray="0,20.1483" d="
			M295.752,31.788c6.013-0.134,9.553-4.453,14.511-7.185c4.552-2.509,10.499-1.57,13.361,2.804c1.574,2.404,3.108,3.961,5.683,5.262
			c0.896,0.452,2.397-0.849,1.196-1.456c-3.86-1.95-4.265-5.973-7.503-8.136c-2.594-1.734-5.158-1.541-8.184-1.232
			c-7.334,0.748-11.66,8.189-18.896,8.35C294.707,30.221,294.329,31.819,295.752,31.788L295.752,31.788z"/>
	</g>
	<g>
		<path fill="#1E0617" stroke="#E9D234" stroke-width="1.0074" stroke-miterlimit="10" stroke-dasharray="0,20.1483" d="
			M314.697,20.822c1.762-1.017,3.108-2.268,4.471-3.769c3.609-3.974,9.14-3.686,14.088-3.239c6.682,0.603,13.362,1.167,20.034-0.042
			c1.482-0.269,2.905-1.184,4.193-1.903c3.639-2.029,8.229-1.607,12.231-1.929c9.84-0.791,12.415,6.553,12.996,14.862
			c0.045,0.632,2.148,0.203,2.094-0.561c-0.349-4.991-1.845-14.358-8.23-15.526c-3.008-0.549-6.169,0.108-9.188,0.281
			c-3.45,0.198-6.631,0.174-9.818,1.592c-4.905,2.182-9.041,2.704-14.383,2.724c-4.602,0.018-9.089-0.824-13.685-0.754
			c-2.494,0.038-5.177-0.378-7.564,0.602c-3.506,1.439-5.295,5.24-8.522,7.102C312.19,20.968,314.055,21.193,314.697,20.822
			L314.697,20.822z"/>
	</g>
	<g>
		<path fill="#1E0617" stroke="#E9D234" stroke-width="1.0074" stroke-miterlimit="10" stroke-dasharray="0,20.1483" d="
			M381.873,12.681c7.031-0.56,13.105,1.537,17.224,7.566c2.839,4.156,3.335,9.434,8.497,11.39c3.867,1.465,8.175,0.819,12.171,0.591
			c2.855-0.164,5.71-0.326,8.566-0.489c4.28-0.246,7.083,1.245,10.725,2.938c0.541,0.251,2.131-0.618,1.98-0.688
			c-5.491-2.552-8.587-3.195-14.633-2.851c-6.183,0.354-15.885,2.657-20.529-2.656c-2.11-2.414-3.198-5.991-4.682-8.796
			c-1.229-2.324-3.618-4-5.731-5.415c-4.349-2.91-7.699-2.746-12.657-2.352C382.303,11.959,380.502,12.791,381.873,12.681
			L381.873,12.681z"/>
	</g>
	<g>
		<path fill="#1E0617" stroke="#E9D234" stroke-width="1.0074" stroke-miterlimit="10" stroke-dasharray="0,20.1483" d="
			M433.8,31.668c8.679-4.024,17.275-7.248,26.988-7.048c7.622,0.156,12.807,6.034,19.762,8.037c0.841,0.242,2.478-0.984,1.227-1.344
			c-7.96-2.292-13.295-8.425-22.146-8.167c-9.628,0.281-18.073,3.363-26.732,7.38C431.592,31.131,432.764,32.149,433.8,31.668
			L433.8,31.668z"/>
	</g>
	<g>
		<path fill="#1E0617" stroke="#E9D234" stroke-width="1.0074" stroke-miterlimit="10" stroke-dasharray="0,20.1483" d="
			M469.157,27.489c10.499-0.816,20.439-4.577,30.952-5.426c2.722-0.221,5.351-0.648,8.096-0.657c3.406-0.013,6.1,2.247,8.6,4.204
			c2.613,2.046,5.18,3.679,8.446,4.416c0.708,0.159,2.478-0.915,1.27-1.187c-4.798-1.081-7.989-4.606-12.026-7.114
			c-3.272-2.033-7.138-1.641-10.791-1.268c-5.264,0.537-10.446,1.052-15.619,2.191c-6.22,1.371-12.278,3.119-18.659,3.614
			C468.366,26.343,467.71,27.601,469.157,27.489L469.157,27.489z"/>
	</g>
	<g>
		<path fill="#1E0617" stroke="#E9D234" stroke-width="1.0074" stroke-miterlimit="10" stroke-dasharray="0,20.1483" d="
			M518.03,25.317c-0.527-5.57,7.451-4.124,10.292-3.236c3.037,0.949,5.371,3.353,8.322,4.458c3.336,1.249,6.584,1.671,10.117,1.922
			c4.754,0.338,9.357,1.5,14.14,1.681c3.386,0.128,6.867,0.11,10.244-0.159c3.753-0.298,5.979-3.804,9.486-4.885
			c1.784-0.549,3.473-0.109,5.176-0.607c2.391-0.699,4.773-1.182,7.259-1.404c5.215-0.464,7.511,3.53,11.715,5.35
			c0.789,0.341,2.434-0.79,1.236-1.309c-3.181-1.377-5.604-5.015-9.225-5.319c-4.999-0.422-9.577,1.12-14.504,1.632
			c-4.865,0.506-8.936,5.308-13.726,5.255c-2.897-0.033-5.797,0.092-8.691-0.018c-3.102-0.117-6.018-1.064-9.08-1.346
			c-5.722-0.525-10.894-0.759-15.95-3.813c-3.143-1.898-6.129-3.348-9.83-3.654c-4.059-0.335-9.543,1.067-9.075,6.011
			C516.018,26.738,518.118,26.247,518.03,25.317L518.03,25.317z"/>
	</g>
	<g>
		<path fill="#1E0617" stroke="#E9D234" stroke-width="1.0074" stroke-miterlimit="10" stroke-dasharray="0,20.1483" d="
			M589.41,44.076c-5.023,0.05-8.436-2.257-12.998-3.565c-3.801-1.09-7.989-1.672-11.95-1.57c-2.206,0.057-4.976-0.256-7.016,0.839
			c-4.756,2.549-7.083,6.8-12.98,7.59c-0.985,0.132-1.757,1.293-0.303,1.098c2.375-0.318,4.689-0.919,6.799-2.109
			c0.866-0.489,2.161-1.013,2.815-1.814c2.803-3.433,5.392-4.464,9.856-4.47c5.607-0.008,10.438,1.169,15.581,3.319
			c3.038,1.269,6.084,1.848,9.368,1.815C589.325,45.201,590.822,44.062,589.41,44.076L589.41,44.076z"/>
	</g>
	<g>
		<path fill="#1E0617" stroke="#E9D234" stroke-width="1.0074" stroke-miterlimit="10" stroke-dasharray="0,20.1483" d="
			M537.252,42.809c-8.407,0.48-16.813,0.958-25.221,1.44c-4.259,0.244-8.06,0.275-12.26-0.744c-2.482-0.603-4.848-1.038-7.408-1.028
			c-0.621,0.003-2.278,0.949-0.879,0.944c3.382-0.014,6.43,1.085,9.708,1.667c3.383,0.601,6.537,0.3,9.96,0.104
			c8.405-0.482,16.812-0.961,25.22-1.44C536.982,43.718,538.646,42.731,537.252,42.809L537.252,42.809z"/>
	</g>
	<g>
		<path fill="#1E0617" stroke="#E9D234" stroke-width="1.0074" stroke-miterlimit="10" stroke-dasharray="0,20.1483" d="
			M415.321,47.109c2.878,1.618,5.95,1.393,9.126,0.923c4.688-0.695,9.108-1.868,13.87-2.254c5.381-0.436,10.028,0.277,14.621,2.999
			c1.645,0.975,4.229,2.863,3.352,5.146c-1.501,3.907-9.25,3.631-12.547,3.636c-6.353,0.01-11.947-0.495-17.954-2.729
			c-4.826-1.795-9.705-3.042-14.847-3.39c-5.519-0.371-10.953,1.143-16.49,0.768c-2.569-0.174-4.814-1.572-7.337-1.751
			c-2.189-0.156-4.568,0.251-6.759,0.375c-1.11,0.063-1.677,1.423-0.237,1.34c3.788-0.216,6.99-0.218,10.649,0.942
			c2.037,0.646,4.443,0.655,6.545,0.551c7.811-0.388,14.676-1.34,22.398,0.818c10.942,3.058,23.294,7.661,34.564,2.706
			c8.223-3.614,2.147-9.286-3.496-11.429c-4.488-1.704-9.213-1.568-13.929-1.185c-5.881,0.476-14.568,4.417-19.889,1.425
			C416.27,45.611,414.375,46.576,415.321,47.109L415.321,47.109z"/>
	</g>
	<g>
		<path fill="#1E0617" stroke="#E9D234" stroke-width="1.0074" stroke-miterlimit="10" stroke-dasharray="0,20.1483" d="
			M375.578,27.421c-7.904,3.813-18.713,0.256-26.959-0.508c-7.539-0.7-8.97,4.028-14.294,8.167
			c-0.948,0.738,1.147,0.771,1.682,0.356c3.355-2.609,5.179-7.307,10.097-7.399c4.238-0.079,8.394,1.188,12.596,1.553
			c5.759,0.499,12.317,1.309,17.71-1.292C377.719,27.666,376.515,26.969,375.578,27.421L375.578,27.421z"/>
	</g>
	<g>
		<path fill="#1E0617" stroke="#E9D234" stroke-width="1.0074" stroke-miterlimit="10" stroke-dasharray="0,20.1483" d="
			M323.428,48.112c5.314-0.291,9.41,0.356,14.364,2.218c2.747,1.033,5.448,1.722,8.371,1.543c2.285-0.139,4.856-0.514,6.802-1.83
			c1.325-0.898,2.46-1.824,3.571-2.992c2.329-2.446,5.528-2.584,8.646-2.771c1.063-0.063,1.715-1.31,0.27-1.224
			c-2.583,0.153-5.015,0.34-7.419,1.322c-3.947,1.61-5.513,5.476-10.236,6.154c-4.936,0.708-9.482-1.766-13.988-3.371
			c-2.959-1.055-7.004-0.444-10.113-0.272C322.633,46.946,321.982,48.192,323.428,48.112L323.428,48.112z"/>
	</g>
	<g>
		<path fill="#1E0617" stroke="#E9D234" stroke-width="1.0074" stroke-miterlimit="10" stroke-dasharray="0,20.1483" d="
			M306.658,49.692c-3.061-14.197-28.122-12.413-37.074-5.6c-0.452,0.344,1.498,0.149,1.897-0.153
			c8.26-6.287,30.36-6.308,33.083,6.314C304.663,50.711,306.767,50.198,306.658,49.692L306.658,49.692z"/>
	</g>
	<g>
		<path fill="#1E0617" stroke="#E9D234" stroke-width="1.0074" stroke-miterlimit="10" stroke-dasharray="0,20.1483" d="
			M247.779,52.583c-3.598-1.277-6.154-5.057-10.002-5.696c-5.104-0.848-9.58-1.235-14.768-0.946
			c-3.485,0.192-6.043,1.199-8.754,3.377c-5.219,4.194-10.099,5.591-16.763,6.04c-1.202,0.082-1.596,1.687-0.17,1.592
			c3.659-0.247,7.521-0.556,10.972-1.914c3.999-1.575,6.496-4.642,10.183-6.649c4.392-2.392,12.575-1.251,17.157-0.163
			c4.295,1.021,6.879,4.37,10.948,5.814C247.514,54.367,249.041,53.03,247.779,52.583L247.779,52.583z"/>
	</g>
	<g>
		<path fill="#1E0617" stroke="#E9D234" stroke-width="1.0074" stroke-miterlimit="10" stroke-dasharray="0,20.1483" d="
			M154.77,27.12c-2.873-4.597-9.313-4.439-14.05-3.657c-7.281,1.203-10.939,8.802-18.267,9.642
			c-1.001,0.115-1.751,1.288-0.297,1.121c4.573-0.524,7.767-2.718,11.18-5.663c4.754-4.102,15.25-7.411,19.487-0.635
			C153.179,28.497,155.217,27.833,154.77,27.12L154.77,27.12z"/>
	</g>
	<g>
		<path fill="#1E0617" stroke="#E9D234" stroke-width="1.0074" stroke-miterlimit="10" stroke-dasharray="0,20.1483" d="
			M60.148,45.505c5.336-4.805,12.663-4.463,18.517-0.849c0.74,0.458,2.604-0.563,1.626-1.167
			c-7.004-4.324-15.667-4.138-21.879,1.457C57.455,45.807,59.505,46.086,60.148,45.505L60.148,45.505z"/>
	</g>
	<g>
		<path fill="#1E0617" stroke="#E9D234" stroke-width="1.0074" stroke-miterlimit="10" stroke-dasharray="0,20.1483" d="
			M597.863,29.961c2.959,1.195,6.018,0.535,9.105,0.253c5.53-0.504,12.619,1.461,18.086,2.254
			c9.432,1.369,18.731,1.717,28.043-0.579c6.491-1.6,12.455-3.448,19.202-3.883c5.679-0.365,11.421-0.222,17.077,0.287
			c1.813,0.162,3.963-0.84,5.396-1.715c7.517-4.584,13.373-5.115,21.385-1.267c0.568,0.273,2.258-0.59,1.968-0.729
			c-2.735-1.314-5.482-3.424-8.677-3.236c-3.919,0.231-7.803,0.46-11.463,1.98c-1.351,0.562-2.518,1.597-3.687,2.452
			c-2.509,1.832-5.301,1.33-8.182,1.254c-5.554-0.148-11.104-0.122-16.642,0.361c-4.748,0.413-9.371,1.478-13.895,2.951
			c-7.093,2.312-14.424,2.728-21.821,2.119c-6.741-0.555-13.587-1.675-20.259-2.792c-4.416-0.738-9.859,1.089-13.928-0.553
			C599.093,28.924,597.193,29.69,597.863,29.961L597.863,29.961z"/>
	</g>
	<g>
		<path fill="#1E0617" stroke="#E9D234" stroke-width="1.0074" stroke-miterlimit="10" stroke-dasharray="0,20.1483" d="
			M745.262,40.828c-2.2,0.019-3.39,0.821-4.797,2.5c-4.364,5.203-11.531,4.45-17.905,4.56c-7.793,0.134-14.957-11.245-7.542-16.845
			c3.832-2.894,8.781-3.841,12.309-7.154c3.811-3.58,5.599-7.769,8.068-12.343c4.494-8.319,11.678-10.537,20.775-10.694
			c2.533-0.044,5.045-0.27,7.583-0.166c4.367,0.177,7.2,2.851,9.866,5.945c3.503,4.064,8.001,6.518,11.556,10.453
			c0.519,0.575,2.518-0.198,1.938-0.84c-1.934-2.142-4.09-3.778-6.48-5.366c-3.216-2.136-5.305-5.62-8.049-8.279
			c-4.595-4.451-11.767-3.069-17.478-2.97c-6.096,0.106-11.852,1.247-16.63,5.21c-5.622,4.662-6.658,12.598-11.638,17.703
			c-4.609,4.723-12.4,5.289-16.223,10.932c-3.023,4.461,1.321,11.531,4.858,14.097c4.099,2.974,11.485,1.377,16.036,1.199
			c2.679-0.104,5.119-0.333,7.572-1.426c2.14-0.954,2.798-5.239,5.382-5.26C745.289,42.076,746.678,40.816,745.262,40.828
			L745.262,40.828z"/>
	</g>
	<g>
		<path fill="#1E0617" stroke="#E9D234" stroke-width="1.0074" stroke-miterlimit="10" stroke-dasharray="0,20.1483" d="
			M810.793,36.906c2.066-5.162,5.951-9.192,1.948-14.53c-2.585-3.447-8.128-3.771-12.005-4.108
			c-8.043-0.697-19.399-5.042-25.464,2.536c-3.269,4.085-4.221,11.687-2.046,16.357c1.709,3.674,6.943,4.29,10.426,4.15
			c3.227-0.13,6.862-0.954,9.934,0.282c2.607,1.051,3.695,4.354,5.465,6.268c2.713,2.937,7.477,2.109,10.526,0.413
			c1.236-0.689-0.6-1.085-1.316-0.687c-6.686,3.721-8.265-3.455-12.156-6.517c-1.7-1.338-4.077-1.344-6.123-1.33
			c-4.185,0.03-8.258,1.016-12.225-0.873c-5.262-2.506-3.607-10.068-2.216-14.332c3.511-10.754,16.126-5.7,24.399-5.015
			c4.63,0.384,9.609,1.008,12.033,5.517c2.197,4.092-1.817,8.458-3.279,12.111C808.402,37.877,810.504,37.627,810.793,36.906
			L810.793,36.906z"/>
	</g>
	<g>
		<path fill="#1E0617" stroke="#E9D234" stroke-width="1.0074" stroke-miterlimit="10" stroke-dasharray="0,20.1483" d="
			M812.451,23.801c5.552-0.565,10.799-2.461,16.161-3.881c5.879-1.556,12.376,0.026,17.288,3.397
			c5.889,4.044,9.92,9.027,17.663,8.421c1.115-0.088,1.669-1.484,0.23-1.372c-8.987,0.706-13.868-8.084-21.615-10.998
			c-10.191-3.834-19.454,2.041-29.497,3.062C811.573,22.543,811.014,23.947,812.451,23.801L812.451,23.801z"/>
	</g>
	<g>
		<path fill="#1E0617" stroke="#E9D234" stroke-width="1.0074" stroke-miterlimit="10" stroke-dasharray="0,20.1483" d="
			M859.018,34.173c8.387-6.211,22.023-9.232,32.039-5.786c3.803,1.309,7.107,2.441,11.151,2.867
			c3.358,0.353,8.278,0.486,11.266,2.311c0.5,0.305,2.21-0.556,1.978-0.699c-4.051-2.474-10.202-2.109-14.758-2.823
			c-6.377-1-11.245-3.952-17.868-3.783c-8.831,0.225-18.538,2.797-25.696,8.098C856.712,34.668,858.629,34.462,859.018,34.173
			L859.018,34.173z"/>
	</g>
	<g>
		<path fill="#1E0617" stroke="#E9D234" stroke-width="1.0074" stroke-miterlimit="10" stroke-dasharray="0,20.1483" d="
			M902.67,31.788c6.013-0.134,9.555-4.452,14.512-7.185c4.551-2.509,10.499-1.57,13.361,2.804c1.574,2.405,3.108,3.961,5.684,5.262
			c0.896,0.452,2.397-0.849,1.196-1.456c-3.862-1.95-4.267-5.973-7.503-8.136c-2.594-1.733-5.159-1.541-8.186-1.232
			c-7.333,0.748-11.66,8.189-18.895,8.35C901.625,30.221,901.248,31.819,902.67,31.788L902.67,31.788z"/>
	</g>
	<g>
		<path fill="#1E0617" stroke="#E9D234" stroke-width="1.0074" stroke-miterlimit="10" stroke-dasharray="0,20.1483" d="
			M921.615,20.822c1.764-1.017,3.109-2.268,4.473-3.769c3.607-3.974,9.139-3.686,14.088-3.239
			c6.681,0.603,13.361,1.167,20.031-0.042c1.483-0.269,2.906-1.184,4.195-1.903c3.639-2.029,8.229-1.607,12.232-1.929
			c9.839-0.791,12.414,6.554,12.996,14.862c0.044,0.632,2.147,0.203,2.094-0.561c-0.349-4.992-1.844-14.358-8.23-15.526
			c-3.008-0.549-6.169,0.108-9.188,0.281c-3.45,0.198-6.631,0.174-9.818,1.592c-4.906,2.182-9.042,2.704-14.385,2.724
			c-4.601,0.018-9.087-0.824-13.684-0.754c-2.494,0.038-5.177-0.378-7.563,0.602c-3.506,1.439-5.294,5.24-8.523,7.102
			C919.109,20.968,920.973,21.193,921.615,20.822L921.615,20.822z"/>
	</g>
	<g>
		<path fill="#1E0617" stroke="#E9D234" stroke-width="1.0074" stroke-miterlimit="10" stroke-dasharray="0,20.1483" d="
			M988.792,12.681c7.032-0.56,13.104,1.536,17.224,7.566c2.838,4.156,3.335,9.434,8.497,11.39c3.866,1.465,8.175,0.819,12.17,0.591
			c2.855-0.164,5.711-0.326,8.566-0.489c4.28-0.246,7.081,1.245,10.725,2.938c0.541,0.251,2.13-0.618,1.979-0.688
			c-5.492-2.552-8.587-3.195-14.632-2.851c-6.184,0.354-15.886,2.657-20.53-2.656c-2.111-2.414-3.197-5.991-4.682-8.796
			c-1.23-2.324-3.619-4-5.732-5.415c-4.348-2.91-7.699-2.746-12.656-2.352C989.222,11.959,987.421,12.791,988.792,12.681
			L988.792,12.681z"/>
	</g>
	<g>
		<path fill="#1E0617" stroke="#E9D234" stroke-width="1.0074" stroke-miterlimit="10" stroke-dasharray="0,20.1483" d="
			M1040.721,31.668c8.678-4.024,17.274-7.248,26.986-7.048c7.623,0.156,12.807,6.033,19.761,8.037
			c0.841,0.242,2.478-0.984,1.228-1.344c-7.96-2.294-13.295-8.424-22.146-8.167c-9.626,0.281-18.072,3.363-26.731,7.38
			C1038.512,31.131,1039.684,32.149,1040.721,31.668L1040.721,31.668z"/>
	</g>
	<g>
		<path fill="#1E0617" stroke="#E9D234" stroke-width="1.0074" stroke-miterlimit="10" stroke-dasharray="0,20.1483" d="
			M1076.077,27.489c10.499-0.816,20.438-4.577,30.952-5.426c2.722-0.221,5.35-0.648,8.096-0.657
			c3.405-0.013,6.098,2.247,8.598,4.204c2.614,2.046,5.18,3.679,8.447,4.416c0.707,0.159,2.478-0.915,1.27-1.187
			c-4.799-1.081-7.99-4.606-12.026-7.114c-3.272-2.033-7.138-1.641-10.79-1.268c-5.264,0.537-10.446,1.052-15.621,2.191
			c-6.219,1.371-12.277,3.119-18.657,3.614C1075.287,26.343,1074.63,27.601,1076.077,27.489L1076.077,27.489z"/>
	</g>
	<g>
		
			<rect x="0" y="75.466" fill="#1E0617" stroke="#E9D234" stroke-width="1.0074" stroke-miterlimit="10" stroke-dasharray="0,20.1483" width="1201.284" height="1.007"/>
		<path fill="#1E0617" stroke="#E9D234" stroke-width="1.0074" stroke-miterlimit="10" stroke-dasharray="0,20.1483" d="M0,30.227
			c5.476-0.285,11.972,1.33,17.248,2.117c9.477,1.413,18.732,1.828,28.128-0.256c6.837-1.516,13.158-3.648,20.254-4.095
			c5.594-0.352,11.247-0.201,16.82,0.3c1.994,0.179,3.71-0.979,5.443-1.733c4.351-1.891,2.393-3.187,9.716-4.044
			c4.307-0.503,7.922,0.986,11.63,2.795c0.565,0.276,2.262-0.586,1.968-0.729c-6.3-3.074-11.853-4.383-18.83-1.8
			c-4.182,1.549-6.579,4.91-11.52,4.295c-5.277-0.659-11.152-0.179-16.438,0.155c-4.533,0.284-8.979,1.14-13.351,2.338
			c-8.101,2.22-15.374,3.542-23.817,2.932c-6.399-0.462-13.044-1.446-19.355-2.614c-2.408-0.446-5.174-0.21-7.897-0.08V30.227z"/>
		<path fill="#1E0617" stroke="#E9D234" stroke-width="1.0074" stroke-miterlimit="10" stroke-dasharray="0,20.1483" d="
			M1124.949,25.317c-0.69-10.675,18.557,1.692,22.977,2.32c9.18,1.303,18.035,1.943,27.266,2.226
			c6.516,0.2,10.411-5.153,16.917-5.567c3.454-0.219,6.323-1.173,9.176-0.955v-1.27c-3.397,0.231-6.524,1.218-10.021,1.44
			c-2.563,0.163-5.959,0.617-8.094,2.221c-5.303,3.987-12.489,3.565-18.876,2.953c-6.939-0.665-15.904-1.157-21.872-4.662
			c-3.472-2.038-6.584-3.689-10.663-3.924c-3.872-0.224-9.208,1.075-8.903,5.779C1122.883,26.305,1124.988,25.928,1124.949,25.317z"
			/>
	</g>
	<g>
		<path fill="#1E0617" stroke="#E9D234" stroke-width="1.0074" stroke-miterlimit="10" stroke-dasharray="0,20.1483" d="
			M1196.329,44.076c-5.023,0.05-8.435-2.257-12.997-3.565c-3.802-1.09-7.99-1.672-11.951-1.57c-2.205,0.057-4.975-0.256-7.015,0.839
			c-4.755,2.549-7.086,6.801-12.981,7.59c-0.984,0.132-1.758,1.293-0.303,1.098c2.375-0.318,4.688-0.919,6.799-2.109
			c0.865-0.489,2.16-1.013,2.813-1.814c2.804-3.433,5.394-4.464,9.857-4.47c5.608-0.008,10.438,1.169,15.582,3.319
			c3.037,1.269,6.083,1.848,9.366,1.815C1196.244,45.201,1197.741,44.062,1196.329,44.076L1196.329,44.076z"/>
	</g>
	<g>
		<path fill="#1E0617" stroke="#E9D234" stroke-width="1.0074" stroke-miterlimit="10" stroke-dasharray="0,20.1483" d="
			M1144.172,42.809c-8.407,0.48-16.813,0.958-25.221,1.44c-4.259,0.244-8.061,0.275-12.26-0.744
			c-2.482-0.603-4.849-1.038-7.408-1.028c-0.623,0.003-2.278,0.949-0.879,0.944c3.381-0.014,6.43,1.085,9.707,1.667
			c3.383,0.601,6.538,0.3,9.96,0.104c8.406-0.482,16.813-0.961,25.221-1.44C1143.902,43.718,1145.565,42.731,1144.172,42.809
			L1144.172,42.809z"/>
	</g>
	<g>
		<path fill="#1E0617" stroke="#E9D234" stroke-width="1.0074" stroke-miterlimit="10" stroke-dasharray="0,20.1483" d="
			M1022.24,47.109c2.878,1.618,5.951,1.393,9.127,0.923c4.686-0.695,9.107-1.868,13.869-2.254c5.38-0.436,10.028,0.277,14.621,2.999
			c1.646,0.975,4.229,2.864,3.352,5.146c-1.501,3.907-9.249,3.631-12.547,3.636c-6.352,0.01-11.945-0.496-17.952-2.729
			c-4.827-1.795-9.705-3.042-14.847-3.39c-5.52-0.371-10.955,1.143-16.491,0.768c-2.569-0.174-4.815-1.572-7.339-1.751
			c-2.187-0.156-4.566,0.251-6.756,0.375c-1.111,0.063-1.677,1.423-0.238,1.34c3.788-0.216,6.99-0.218,10.649,0.942
			c2.036,0.646,4.444,0.655,6.544,0.551c7.811-0.388,14.677-1.34,22.4,0.818c10.941,3.058,23.293,7.661,34.563,2.706
			c8.221-3.614,2.148-9.286-3.496-11.429c-4.487-1.704-9.213-1.568-13.93-1.185c-5.88,0.476-14.567,4.417-19.889,1.425
			C1023.188,45.611,1021.294,46.576,1022.24,47.109L1022.24,47.109z"/>
	</g>
	<g>
		<path fill="#1E0617" stroke="#E9D234" stroke-width="1.0074" stroke-miterlimit="10" stroke-dasharray="0,20.1483" d="
			M982.496,27.421c-7.903,3.813-18.711,0.256-26.959-0.508c-7.539-0.7-8.968,4.029-14.295,8.167
			c-0.948,0.738,1.149,0.771,1.683,0.356c3.356-2.608,5.181-7.307,10.097-7.399c4.239-0.079,8.395,1.188,12.596,1.553
			c5.761,0.499,12.319,1.309,17.712-1.292C984.639,27.667,983.434,26.969,982.496,27.421L982.496,27.421z"/>
	</g>
	<g>
		<path fill="#1E0617" stroke="#E9D234" stroke-width="1.0074" stroke-miterlimit="10" stroke-dasharray="0,20.1483" d="
			M930.347,48.112c5.315-0.291,9.409,0.356,14.364,2.218c2.746,1.033,5.448,1.722,8.371,1.543c2.285-0.139,4.856-0.514,6.802-1.83
			c1.325-0.898,2.46-1.824,3.571-2.992c2.33-2.446,5.527-2.584,8.647-2.771c1.063-0.063,1.714-1.31,0.268-1.224
			c-2.582,0.153-5.014,0.339-7.42,1.322c-3.944,1.61-5.511,5.476-10.234,6.154c-4.936,0.708-9.481-1.766-13.987-3.371
			c-2.96-1.055-7.005-0.444-10.114-0.272C929.551,46.946,928.9,48.192,930.347,48.112L930.347,48.112z"/>
	</g>
	<g>
		<path fill="#1E0617" stroke="#E9D234" stroke-width="1.0074" stroke-miterlimit="10" stroke-dasharray="0,20.1483" d="
			M913.577,49.692c-3.063-14.197-28.122-12.413-37.073-5.6c-0.453,0.344,1.497,0.149,1.896-0.153
			c8.26-6.287,30.361-6.308,33.083,6.314C911.582,50.711,913.687,50.198,913.577,49.692L913.577,49.692z"/>
	</g>
	<g>
		<path fill="#1E0617" stroke="#E9D234" stroke-width="1.0074" stroke-miterlimit="10" stroke-dasharray="0,20.1483" d="
			M854.699,52.583c-3.598-1.277-6.156-5.057-10.004-5.696c-5.103-0.848-9.578-1.235-14.768-0.946
			c-3.484,0.192-6.043,1.2-8.754,3.377c-5.219,4.193-10.097,5.591-16.761,6.04c-1.202,0.082-1.596,1.687-0.171,1.592
			c3.659-0.247,7.521-0.556,10.972-1.914c3.997-1.575,6.495-4.642,10.183-6.649c4.393-2.392,12.575-1.251,17.158-0.163
			c4.295,1.021,6.879,4.37,10.948,5.814C854.434,54.367,855.961,53.03,854.699,52.583L854.699,52.583z"/>
	</g>
	<g>
		<path fill="#1E0617" stroke="#E9D234" stroke-width="1.0074" stroke-miterlimit="10" stroke-dasharray="0,20.1483" d="
			M761.69,27.12c-2.874-4.597-9.314-4.439-14.051-3.657c-7.281,1.203-10.94,8.802-18.267,9.642
			c-1.002,0.115-1.751,1.288-0.297,1.121c4.572-0.524,7.766-2.718,11.18-5.663c4.753-4.102,15.251-7.411,19.486-0.635
			C760.098,28.497,762.136,27.833,761.69,27.12L761.69,27.12z"/>
	</g>
	<g>
		<path fill="#1E0617" stroke="#E9D234" stroke-width="1.0074" stroke-miterlimit="10" stroke-dasharray="0,20.1483" d="
			M667.067,45.505c5.337-4.805,12.663-4.463,18.517-0.849c0.74,0.458,2.604-0.563,1.625-1.167
			c-7.002-4.324-15.666-4.139-21.879,1.457C664.374,45.807,666.424,46.086,667.067,45.505L667.067,45.505z"/>
	</g>
</g>
</svg>
