<?xml version="1.0" encoding="utf-8"?>
<!-- Generator: Adobe Illustrator 17.0.0, SVG Export Plug-In . SVG Version: 6.00 Build 0)  -->
<!DOCTYPE svg PUBLIC "-//W3C//DTD SVG 1.1//EN" "http://www.w3.org/Graphics/SVG/1.1/DTD/svg11.dtd">
<svg version="1.1" id="Layer_1" xmlns="http://www.w3.org/2000/svg" xmlns:xlink="http://www.w3.org/1999/xlink" x="0px" y="0px"
	 width="1201.284px" height="225.825px" viewBox="0 0 1201.284 225.825" enable-background="new 0 0 1201.284 225.825"
	 xml:space="preserve">
<g>
	<path fill="#61274B" d="M1201.284,0H0v46.613c4.457,3.003,9.201,4.836,10.759,7.017c3.197,4.476,1.279,21.766,0,25.602
		c-1.278,3.836-3.837,12.163-1.278,16.638c2.558,4.476,11.509,12.976,8.951,27.045c-2.558,14.066,4.477,40.287,11.51,28.138
		c7.034-12.149,7.034-30.691,12.148-36.446c5.115-5.755,17.904-16.847,14.707-24.499c-3.197-7.653-2.186-17.884,0.506-26.195
		c2.691-8.313,19.316-51.155,19.316-51.155s31.332-5.042,39.645,4.513c8.312,9.555,5.754,30.656,8.951,39.608
		c0,0,10.871,19.821,19.822,30.052c0.641,12.789-5.754,15.346,0,25.577c5.755,10.231,17.266,9.938,10.871,27.841
		c-6.396,17.904,5.115,20.461,7.673,26.856c2.558,6.395-6.395,35.808,14.706,35.808c7.674-1.917,15.347-7.672,6.395-30.052
		c-3.197-10.231,7.033-17.265,10.871-22.381c3.835-5.114,3.268-12.526,0-22.085c-5.116-20.461,7.033-19.822,8.951-25.577
		c1.918-5.755,0.64-20.462,0-35.168c-0.64-14.707,10.87-41.563,31.332-39.005c20.461,2.558,29.413,23.019,23.02,40.284
		c-6.395,17.264-5.756,26.216-0.64,37.086c5.114,10.87,10.23,19.639,8.312,27.312c-1.918,7.674,13.429,13.428,20.463-3.836
		c7.032-17.265,26.217-17.96,28.774-37.142c2.556-19.182-12.15-12.55,0-27.896c12.148-15.347,38.364-22.047,38.364-47.958
		c0,0,17.903-2.558,29.414,3.197c11.508,5.754,24.938,10.304,46.678-1.882c21.74-12.185,44.759-10.127,47.316,2.911
		c0,0,8.313,28.384-10.231,62.274c-8.312,14.066-0.64,30.692,5.756,46.038c6.395,15.346,9.098,19.711,2.704,29.303
		c-6.393,9.591,3.714,28.135,8.891,38.366c5.177,10.23-0.578,12.149,5.177,10.23c5.755-1.919,12.788-10.87,7.034-26.216
		c-5.755-15.347-4.026-15.986,2.143-30.053c6.169-14.067,18.171-20.351,14.975-42.091c-3.197-21.741,4.476-64.582,24.938-63.943
		c20.461,0.64,22.38,0,22.38-8.313c0-8.312,19.183-33.889,30.054-20.462c10.869,13.428,14.066,37.087,8.951,51.154
		c-5.115,14.067-2.912,27.495,2.381,38.365s12.966,21.776,9.768,33.286c-3.195,11.51,11.51,32.61,23.659,19.183
		c0,0,10.23-24.973,7.033-38.401c-3.196-13.428,0.977-33.889,2.407-43.481c1.43-9.591,5.906-46.038,19.334-39.644
		c22.72,2.578,15.238,29.643,18.436,38.596c0,0,10.871,19.822,19.822,30.052c0.64,12.789-5.754,15.347,0,25.577
		c5.755,10.23,17.266,9.938,10.87,27.841c-6.395,17.904,5.116,20.461,7.674,26.856c2.558,6.395-6.395,35.807,14.706,35.807
		c7.674-1.917,15.347-7.672,6.395-30.052c-3.197-10.232,7.033-17.265,10.87-22.381c3.836-5.115,3.269-12.527,0-22.085
		c-5.115-20.461,7.033-19.822,8.952-25.577c1.918-5.755,0.639-20.46,0-35.167c-0.64-14.707,10.87-41.562,31.332-39.004
		c20.461,2.558,29.413,23.021,23.019,40.285c-6.396,17.264-5.757,26.221-0.641,37.091c5.114,10.87,10.229,19.646,8.311,27.318
		c-1.918,7.673,13.426,13.441,20.461-3.822c7.031-17.265,26.213-17.931,28.771-37.113c2.556-19.182-12.157-12.495-0.008-27.841
		c12.148-15.347,38.35-21.935,38.35-47.846l0.029-0.222c0,0,17.903-2.558,29.414,3.197c11.508,5.754,24.938,10.303,46.678-1.882
		c21.74-12.185,44.759-10.127,47.316,2.911c0,0,8.313,28.384-10.231,62.274c-8.312,14.066-0.64,30.692,5.755,46.038
		c6.396,15.347,9.099,19.712,2.705,29.303c-6.394,9.591,3.714,28.135,8.891,38.366c5.177,10.23-0.578,12.149,5.177,10.23
		c5.755-1.919,12.787-10.87,7.034-26.215c-5.756-15.348-4.027-15.987,2.143-30.053c6.168-14.067,18.171-20.351,14.975-42.091
		c-3.197-21.741,4.476-64.582,24.938-63.942c20.461,0.64,22.38,0.001,22.38-8.313c0-8.313,19.183-41.948,30.053-28.521
		c10.87,13.428,14.067,37.088,8.952,51.155c-5.116,14.067-2.912,27.497,2.381,38.367s12.965,21.78,9.768,33.29
		c-3.196,11.51,11.51,32.618,23.659,19.19c3.318-3.668,5.581-7.193,7.061-10.654v-27.614c-0.01-0.04-0.018-0.078-0.027-0.117
		c-1.921-8.069-1.18-18.664,0.027-27.918V0z"/>
	<path fill="#61274B" d="M350.992,17.847c0.478-0.191,1.039-0.415,1.557-0.622C351.897,17.486,351.388,17.689,350.992,17.847z"/>
	<path fill="#61274B" d="M350.178,18.174c0.073-0.029,0.158-0.063,0.25-0.101C350.33,18.113,350.247,18.146,350.178,18.174z"/>
	<path fill="#61274B" d="M352.917,17.078c0.393-0.158,0.731-0.293,0.951-0.381C353.525,16.835,353.209,16.961,352.917,17.078z"/>
</g>
<g>
	<g>
		<g>
			<g>
				<g>
					<path fill="#1E0617" d="M43.118,23.963c-4.118,3.199-5.388,8.232-6.313,13.14c-1.312,6.96-1.449,13.661-0.511,20.672
						c1.11,8.311,3.793,17.215,1.446,25.511c-1.92,6.794-7.075,14.327-13.106,18.089c-1.412,0.879-0.113,2.337,1.123,1.566
						c9.795-6.107,16.423-18.585,15.246-30.088c-0.909-8.895-3.185-17.675-2.923-26.662c0.191-6.564,1.218-16.742,6.703-21.003
						C46.108,24.16,44.138,23.172,43.118,23.963L43.118,23.963z"/>
				</g>
			</g>
		</g>
		<g>
			<g>
				<g>
					<path fill="#1E0617" d="M30.17,52.5c-5.216,4.606-8.912,9.676-9.577,16.765c-0.69,7.371,3.893,12.47,6.776,18.732
						c0.402,0.872,2.822,0.099,2.471-0.661c-2.411-5.238-6.031-9.579-6.758-15.47c-0.953-7.749,3.586-14.095,9.074-18.942
						C33.235,51.97,30.781,51.96,30.17,52.5L30.17,52.5z"/>
				</g>
			</g>
		</g>
		<g>
			<g>
				<g>
					<path fill="#1E0617" d="M149.566,31.02c-6.706,1.901-9.78,7.332-10.983,13.949c-1.088,5.983-1.38,14.755,4.305,18.479
						c2.892,1.895,6.995,2.065,10.289,2.804c4.337,0.973,8.561,2.34,12.449,4.522c3.942,2.213,6.724,5.689,7.892,10.044
						c1.696,6.315,0.05,14.49-7.968,14.882c-0.646,0.032-2.706,1.065-1.072,0.986c6.401-0.313,10.984-3.448,11.989-10.066
						c1.382-9.11-5.162-15.884-13.071-18.87c-6.913-2.612-19.316-2.066-22.022-10.184c-2.592-7.772-0.774-23.19,8.395-25.79
						C151.198,31.37,151.002,30.612,149.566,31.02L149.566,31.02z"/>
				</g>
			</g>
		</g>
		<g>
			<g>
				<g>
					<path fill="#1E0617" d="M164.63,109.133c-1.515,4.905-1.447,10.051,4.439,11.054c7.078,1.207,8.579,7.956,9.1,14.215
						c0.61,7.333-3.392,12.374-5.251,19.069c-0.892,3.207-4.277,9.328-1.377,12.266c0.621,0.629,2.964-0.294,2.293-0.974
						c-2.822-2.859,1.551-12.048,2.862-15.172c2.28-5.427,4.282-9.827,3.943-15.851c-0.264-4.689-1.396-9.666-4.905-12.994
						c-1.117-1.061-2.616-1.558-4.094-1.794c-5.94-0.955-6.022-5.313-4.539-10.122C167.377,107.939,164.892,108.284,164.63,109.133
						L164.63,109.133z"/>
				</g>
			</g>
		</g>
		<g>
			<g>
				<g>
					<path fill="#1E0617" d="M204.721,22.201c-6.557,0.414-11.304,4.657-15.094,9.738c-5.794,7.765-4.757,17.007-4.549,26.206
						c0.242,10.778,8.115,34.488-6.049,39.278c-1.645,0.556-0.132,1.323,0.959,0.955c11.642-3.937,9.979-18.066,8.759-27.839
						c-0.846-6.776-1.232-13.344-1.381-20.181c-0.128-5.834,0.112-11.155,3.111-16.231c2.762-4.672,7.423-10.209,13.267-10.58
						C204.609,23.492,206.376,22.095,204.721,22.201L204.721,22.201z"/>
				</g>
			</g>
		</g>
		<g>
			<g>
				<g>
					<path fill="#1E0617" d="M249.805,15.956c10.213,0.082,21.972,1.852,26.402,12.43c4.705,11.232,3.136,23.132-0.746,34.271
						c-1.648,4.731-2.467,9.409-3.661,14.224c-1.015,4.094-1.724,8.263-0.981,12.456c0.926,5.234,9.832,7.209,14.061,5.723
						c1.623-0.571,0.151-1.548-1.01-1.14c-2.461,0.865-5.294-0.579-7.362-1.703c-3.129-1.698-3.561-4.182-3.542-7.506
						c0.023-4.17,1.359-8.47,2.068-12.559c0.866-5.001,2.98-9.778,4.529-14.589c1.621-5.031,2.153-10.213,2.065-15.479
						c-0.132-7.888-2.319-17.834-9.332-22.511c-6.393-4.264-14.05-5.067-21.56-5.127C249.737,14.436,248.132,15.943,249.805,15.956
						L249.805,15.956z"/>
				</g>
			</g>
		</g>
		<g>
			<g>
				<g>
					<path fill="#1E0617" d="M294.307,39.9c-3.107,6.019-3.452,12.669-3.494,19.326c-0.043,6.972,0.833,13.082,5.203,18.695
						c5.181,6.654,6.538,15.071,3.785,22.951c-2.73,7.816-8.232,15.981-16.445,18.579c-1.449,0.459-1.143,1.696,0.331,1.23
						c11.959-3.784,20.788-17.821,20.052-30.192c-0.531-8.917-7.88-14.389-9.827-22.673c-1.957-8.323-1.257-20.215,2.694-27.867
						C297.148,38.898,294.675,39.187,294.307,39.9L294.307,39.9z"/>
				</g>
			</g>
		</g>
		<g>
			<g>
				<g>
					<path fill="#1E0617" d="M455.04,0c2.772,0.448,5.669,0.469,8.47,0.381c1.757-0.055,3.514-0.2,5.271-0.381H455.04z"/>
					<path fill="#1E0617" d="M508.457,5.301c-2.447-2.272-5.178-4.005-8.084-5.301h-5.435c8.49,2.722,18.158,9.981,18.491,19.575
						c0.221,6.353-2.999,18.171-10.667,18.672c-1.336,0.087-1.954,1.767-0.259,1.657c6.694-0.438,10.149-6.482,12.073-12.244
						C517.467,19.007,515.092,11.46,508.457,5.301z"/>
				</g>
			</g>
		</g>
		<g>
			<g>
				<g>
					<path fill="#1E0617" d="M489.009,64.128c0,7.563-1.046,15.694,0.204,23.165c0.793,4.757,7.328,14.359,1.689,17.983
						c-1.401,0.9,0.732,1.053,1.445,0.596c5.277-3.39,3.13-9.63,0.861-14.271c-1.843-3.77-1.33-8.654-1.33-12.707
						c0-5.143,0-10.285,0-15.427C491.879,62.817,489.009,63.25,489.009,64.128L489.009,64.128z"/>
				</g>
			</g>
		</g>
		<g>
			<g>
				<g>
					<path fill="#1E0617" d="M622.446,26.383c-2.085,7.327-3.567,14.383-2.003,21.962c0.842,4.079,2.153,7.872,2.142,12.093
						c-0.014,4.985-4.285,9.108-7.107,12.868c-3.373,4.499-8.428,9.853-7.435,16c1.059,6.557,4.945,12.239,8.554,17.664
						c0.614,0.923,2.971-0.019,2.263-1.084c-3.887-5.844-8.833-12.515-8.291-19.872c0.557-7.543,9.248-13.24,12.603-19.521
						c3.053-5.714,1.617-11.315,0.103-17.295c-2.017-7.969-0.523-15.287,1.673-23.007C625.278,25.027,622.749,25.317,622.446,26.383
						L622.446,26.383z"/>
				</g>
			</g>
		</g>
		<g>
			<g>
				<g>
					<path fill="#1E0617" d="M624.268,100.135c3.759,4.099,5.776,10.188,6.013,15.684c0.206,4.788-2.462,7.287-7.36,7.623
						c-4.389,0.299-7.206-1.913-9.173-5.607c-0.482-0.908-2.853-0.04-2.269,1.059c3.627,6.818,14.219,9.163,19.624,2.792
						c4.905-5.782-0.26-17.913-4.566-22.608C625.82,98.296,623.47,99.266,624.268,100.135L624.268,100.135z"/>
				</g>
			</g>
		</g>
	</g>
	<g>
		<g>
			<path fill="#1E0617" d="M913.246,36.741"/>
		</g>
	</g>
	<g>
		<g>
			<g>
				<path fill="#1E0617" d="M707.676,49.153c-6.706,1.902-9.78,7.333-10.983,13.95c-1.089,5.983-1.38,14.755,4.304,18.479
					c2.893,1.895,6.996,2.065,10.29,2.804c4.337,0.973,8.561,2.341,12.448,4.523c3.943,2.213,6.723,5.689,7.892,10.044
					c1.696,6.315,0.05,14.49-7.967,14.882c-0.646,0.032-2.706,1.065-1.072,0.986c6.401-0.313,10.984-3.448,11.988-10.066
					c1.383-9.11-5.161-15.884-13.07-18.871c-6.913-2.612-19.316-2.066-22.023-10.183c-2.592-7.773-0.773-23.19,8.398-25.791
					C709.309,49.503,709.112,48.746,707.676,49.153L707.676,49.153z"/>
			</g>
		</g>
	</g>
	<g>
		<g>
			<g>
				<path fill="#1E0617" d="M722.738,127.266c-1.514,4.905-1.446,10.051,4.441,11.054c7.077,1.206,8.577,7.956,9.099,14.215
					c0.611,7.334-3.393,12.374-5.253,19.069c-0.889,3.207-4.277,9.327-1.375,12.266c0.621,0.63,2.963-0.294,2.293-0.974
					c-2.823-2.859,1.55-12.05,2.862-15.172c2.279-5.427,4.281-9.827,3.943-15.851c-0.264-4.688-1.397-9.666-4.905-12.994
					c-1.117-1.061-2.615-1.557-4.094-1.794c-5.94-0.954-6.023-5.314-4.538-10.122C725.486,126.073,723.001,126.417,722.738,127.266
					L722.738,127.266z"/>
			</g>
		</g>
	</g>
	<g>
		<g>
			<g>
				<path fill="#1E0617" d="M762.829,40.334c-6.557,0.414-11.303,4.657-15.093,9.738c-5.795,7.766-4.757,17.007-4.55,26.206
					c0.244,10.779,8.116,34.488-6.048,39.278c-1.644,0.556-0.131,1.323,0.96,0.955c11.642-3.936,9.978-18.066,8.758-27.839
					c-0.847-6.775-1.23-13.343-1.38-20.181c-0.129-5.834,0.109-11.156,3.11-16.231c2.762-4.672,7.422-10.21,13.267-10.58
					C762.717,41.626,764.484,40.229,762.829,40.334L762.829,40.334z"/>
			</g>
		</g>
	</g>
	<g>
		<g>
			<g>
				<path fill="#1E0617" d="M807.914,34.09c10.211,0.081,21.973,1.853,26.402,12.43c4.705,11.233,3.136,23.132-0.746,34.271
					c-1.649,4.731-2.469,9.408-3.662,14.224c-1.014,4.094-1.722,8.263-0.981,12.456c0.927,5.234,9.831,7.209,14.061,5.723
					c1.623-0.571,0.151-1.547-1.01-1.139c-2.461,0.865-5.294-0.58-7.363-1.703c-3.128-1.698-3.559-4.182-3.541-7.506
					c0.024-4.17,1.358-8.471,2.068-12.559c0.866-5.001,2.98-9.778,4.529-14.589c1.62-5.031,2.153-10.213,2.065-15.479
					c-0.132-7.888-2.319-17.834-9.331-22.512c-6.393-4.264-14.051-5.067-21.561-5.126C807.847,32.57,806.241,34.077,807.914,34.09
					L807.914,34.09z"/>
			</g>
		</g>
	</g>
	<g>
		<g>
			<g>
				<path fill="#1E0617" d="M852.416,58.034c-3.108,6.019-3.452,12.669-3.494,19.326c-0.044,6.974,0.833,13.082,5.203,18.695
					c5.181,6.655,6.537,15.071,3.785,22.951c-2.731,7.815-8.233,15.981-16.445,18.58c-1.449,0.459-1.142,1.696,0.331,1.23
					c11.958-3.783,20.788-17.821,20.052-30.192c-0.531-8.917-7.881-14.389-9.827-22.673c-1.957-8.323-1.256-20.216,2.695-27.867
					C855.258,57.032,852.785,57.32,852.416,58.034L852.416,58.034z"/>
			</g>
		</g>
	</g>
	<g>
		<g>
			<g>
				<path fill="#1E0617" d="M1003.336,13.398c4.776,4.948,11.787,5.321,18.283,5.117c10.275-0.324,20.555-3.58,30.721-0.599
					c8.65,2.536,18.855,9.932,19.198,19.793c0.22,6.352-2.998,18.171-10.667,18.672c-1.336,0.088-1.953,1.767-0.26,1.657
					c6.695-0.438,10.149-6.483,12.074-12.244c2.889-8.652,0.515-16.2-6.119-22.359c-7.266-6.744-16.976-8.833-26.582-8.355
					c-10.337,0.514-26.072,5.872-34.376-2.728C1004.892,11.609,1002.545,12.578,1003.336,13.398L1003.336,13.398z"/>
			</g>
		</g>
	</g>
	<g>
		<g>
			<g>
				<path fill="#1E0617" d="M1047.063,82.263c0,7.562-1.018,15.693,0.23,23.164c0.795,4.757,7.345,14.358,1.704,17.983
					c-1.401,0.9,0.741,1.054,1.454,0.596c5.277-3.39,3.078-9.63,0.811-14.271c-1.844-3.77-1.383-8.655-1.383-12.707
					c0-5.142,0-10.285,0-15.428C1049.879,80.951,1047.063,81.383,1047.063,82.263L1047.063,82.263z"/>
			</g>
		</g>
	</g>
	<g>
		<g>
			<g>
				<path fill="#1E0617" d="M1180.556,36.457c-2.085,7.327-3.567,14.383-2.003,21.961c0.842,4.079,2.153,7.872,2.142,12.093
					c-0.014,4.985-4.286,9.108-7.106,12.868c-3.373,4.499-8.428,9.853-7.436,15.999c1.06,6.558,4.945,12.24,8.554,17.665
					c0.613,0.923,2.971-0.019,2.263-1.085c-3.887-5.844-8.833-12.515-8.291-19.872c0.557-7.543,9.248-13.24,12.603-19.521
					c3.053-5.714,1.618-11.314,0.104-17.295c-2.017-7.969-0.523-15.287,1.673-23.007
					C1183.387,35.101,1180.858,35.392,1180.556,36.457L1180.556,36.457z"/>
			</g>
		</g>
	</g>
	<g>
		<g>
			<g>
				<path fill="#1E0617" d="M1182.375,110.209c3.761,4.099,5.778,10.188,6.015,15.684c0.205,4.788-2.462,7.287-7.36,7.623
					c-4.389,0.299-7.206-1.913-9.173-5.607c-0.483-0.908-2.853-0.039-2.269,1.059c3.629,6.818,14.218,9.163,19.624,2.792
					c4.905-5.782-0.26-17.913-4.565-22.608C1183.93,108.37,1181.578,109.34,1182.375,110.209L1182.375,110.209z"/>
			</g>
		</g>
	</g>
</g>
<g>
	<g>
		<g>
			<g>
				<g>
					<path fill="#1E0617" d="M42.111,21.949c-4.119,3.198-5.389,8.232-6.314,13.14c-1.312,6.96-1.448,13.661-0.511,20.673
						c1.11,8.311,3.794,17.214,1.447,25.511c-1.921,6.794-7.075,14.327-13.107,18.089c-1.411,0.88-0.113,2.338,1.124,1.567
						c9.795-6.108,16.422-18.585,15.246-30.088c-0.909-8.895-3.186-17.675-2.924-26.662c0.192-6.564,1.219-16.742,6.703-21.003
						C45.101,22.146,43.13,21.157,42.111,21.949L42.111,21.949z"/>
				</g>
			</g>
		</g>
		<g>
			<g>
				<g>
					<path fill="#1E0617" d="M29.162,50.485c-5.215,4.606-8.911,9.676-9.576,16.765c-0.689,7.371,3.893,12.47,6.776,18.731
						c0.401,0.872,2.821,0.1,2.47-0.661c-2.411-5.237-6.031-9.578-6.758-15.47c-0.953-7.748,3.586-14.095,9.074-18.942
						C32.228,49.955,29.773,49.945,29.162,50.485L29.162,50.485z"/>
				</g>
			</g>
		</g>
		<g>
			<g>
				<g>
					<path fill="#1E0617" d="M148.559,29.004c-6.705,1.902-9.78,7.332-10.983,13.95c-1.088,5.983-1.379,14.755,4.306,18.478
						c2.891,1.895,6.994,2.066,10.288,2.804c4.337,0.973,8.562,2.341,12.449,4.523c3.943,2.213,6.724,5.689,7.893,10.044
						c1.696,6.315,0.049,14.491-7.968,14.882c-0.646,0.031-2.707,1.065-1.072,0.986c6.401-0.313,10.983-3.448,11.988-10.066
						c1.382-9.11-5.162-15.884-13.071-18.871c-6.913-2.612-19.315-2.066-22.022-10.183c-2.591-7.772-0.773-23.19,8.396-25.791
						C150.191,29.355,149.995,28.597,148.559,29.004L148.559,29.004z"/>
				</g>
			</g>
		</g>
		<g>
			<g>
				<g>
					<path fill="#1E0617" d="M163.623,107.118c-1.516,4.905-1.447,10.052,4.438,11.054c7.079,1.207,8.579,7.956,9.101,14.215
						c0.609,7.333-3.393,12.374-5.252,19.069c-0.891,3.207-4.277,9.327-1.376,12.266c0.62,0.629,2.963-0.294,2.292-0.974
						c-2.822-2.859,1.552-12.049,2.863-15.172c2.279-5.426,4.281-9.827,3.943-15.851c-0.264-4.688-1.396-9.666-4.906-12.994
						c-1.117-1.061-2.615-1.557-4.094-1.794c-5.939-0.954-6.022-5.313-4.539-10.121
						C166.369,105.924,163.885,106.269,163.623,107.118L163.623,107.118z"/>
				</g>
			</g>
		</g>
		<g>
			<g>
				<g>
					<path fill="#1E0617" d="M203.713,20.186c-6.557,0.414-11.303,4.657-15.094,9.738c-5.793,7.765-4.757,17.007-4.549,26.205
						c0.243,10.779,8.115,34.488-6.049,39.279c-1.644,0.556-0.132,1.323,0.959,0.954c11.642-3.936,9.98-18.065,8.76-27.839
						c-0.847-6.776-1.232-13.343-1.382-20.181c-0.128-5.834,0.112-11.155,3.112-16.231c2.761-4.672,7.422-10.21,13.266-10.58
						C203.602,21.478,205.369,20.081,203.713,20.186L203.713,20.186z"/>
				</g>
			</g>
		</g>
		<g>
			<g>
				<g>
					<path fill="#1E0617" d="M248.798,13.941c10.212,0.082,21.972,1.853,26.402,12.43c4.704,11.232,3.136,23.132-0.747,34.271
						c-1.648,4.731-2.466,9.409-3.66,14.224c-1.016,4.094-1.724,8.263-0.983,12.456c0.926,5.234,9.832,7.21,14.061,5.723
						c1.623-0.571,0.152-1.547-1.009-1.139c-2.462,0.865-5.294-0.58-7.363-1.703c-3.128-1.698-3.561-4.182-3.542-7.506
						c0.024-4.169,1.36-8.471,2.068-12.559c0.867-5.001,2.98-9.778,4.529-14.589c1.621-5.031,2.154-10.213,2.066-15.479
						c-0.132-7.888-2.32-17.835-9.332-22.511c-6.394-4.264-14.051-5.068-21.56-5.126C248.73,12.421,247.124,13.929,248.798,13.941
						L248.798,13.941z"/>
				</g>
			</g>
		</g>
		<g>
			<g>
				<g>
					<path fill="#1E0617" d="M293.299,37.885c-3.107,6.019-3.452,12.669-3.493,19.326c-0.043,6.972,0.832,13.082,5.202,18.695
						c5.181,6.655,6.539,15.071,3.786,22.952c-2.73,7.816-8.232,15.981-16.445,18.579c-1.449,0.459-1.143,1.696,0.33,1.229
						c11.96-3.784,20.788-17.82,20.052-30.192c-0.531-8.917-7.88-14.389-9.826-22.673c-1.957-8.323-1.257-20.215,2.694-27.867
						C296.142,36.884,293.667,37.172,293.299,37.885L293.299,37.885z"/>
				</g>
			</g>
		</g>
		<g>
			<g>
				<g>
					<path fill="#1E0617" d="M507.45,3.286c-1.349-1.251-2.781-2.342-4.282-3.286h-4.37c6.941,3.535,13.354,9.778,13.624,17.56
						c0.22,6.352-2.999,18.171-10.667,18.671c-1.336,0.088-1.955,1.767-0.26,1.657c6.694-0.438,10.149-6.482,12.073-12.243
						C516.459,16.992,514.084,9.444,507.45,3.286z"/>
				</g>
			</g>
		</g>
		<g>
			<g>
				<g>
					<path fill="#1E0617" d="M488.005,62.113c0,7.563-1.046,15.694,0.202,23.165c0.793,4.757,7.328,14.358,1.689,17.983
						c-1.4,0.9,0.733,1.054,1.445,0.596c5.277-3.39,3.134-9.63,0.866-14.271c-1.844-3.77-1.328-8.655-1.328-12.707
						c0-5.142,0-10.285,0-15.427C490.879,60.802,488.005,61.235,488.005,62.113L488.005,62.113z"/>
				</g>
			</g>
		</g>
		<g>
			<g>
				<g>
					<path fill="#1E0617" d="M621.438,24.368c-2.085,7.327-3.567,14.383-2.003,21.961c0.842,4.079,2.154,7.872,2.143,12.093
						c-0.015,4.985-4.286,9.108-7.106,12.868c-3.374,4.499-8.429,9.853-7.436,16c1.06,6.557,4.944,12.24,8.553,17.664
						c0.614,0.923,2.972-0.019,2.263-1.084c-3.887-5.844-8.832-12.515-8.29-19.872c0.556-7.543,9.247-13.24,12.603-19.521
						c3.053-5.714,1.617-11.314,0.103-17.295c-2.018-7.969-0.523-15.287,1.672-23.008C624.271,23.012,621.742,23.303,621.438,24.368
						L621.438,24.368z"/>
				</g>
			</g>
		</g>
		<g>
			<g>
				<g>
					<path fill="#1E0617" d="M623.26,98.12c3.76,4.098,5.777,10.188,6.014,15.684c0.205,4.788-2.462,7.287-7.36,7.623
						c-4.389,0.299-7.206-1.913-9.173-5.608c-0.483-0.908-2.853-0.039-2.268,1.059c3.627,6.818,14.218,9.163,19.624,2.792
						c4.904-5.782-0.26-17.913-4.567-22.607C624.813,96.281,622.462,97.251,623.26,98.12L623.26,98.12z"/>
				</g>
			</g>
		</g>
	</g>
	<g>
		<g>
			<path fill="#1E0617" d="M912.238,34.727"/>
		</g>
	</g>
	<g>
		<g>
			<g>
				<path fill="#1E0617" d="M706.669,47.138c-6.707,1.902-9.781,7.332-10.984,13.949c-1.088,5.983-1.379,14.755,4.304,18.479
					c2.893,1.895,6.996,2.065,10.29,2.804c4.338,0.973,8.561,2.34,12.449,4.522c3.943,2.214,6.723,5.689,7.892,10.044
					c1.695,6.315,0.05,14.49-7.967,14.882c-0.646,0.031-2.707,1.065-1.073,0.986c6.401-0.313,10.984-3.448,11.989-10.066
					c1.382-9.11-5.162-15.883-13.071-18.87c-6.913-2.612-19.315-2.066-22.023-10.184c-2.591-7.773-0.773-23.19,8.398-25.79
					C708.301,47.488,708.106,46.731,706.669,47.138L706.669,47.138z"/>
			</g>
		</g>
	</g>
	<g>
		<g>
			<g>
				<path fill="#1E0617" d="M721.731,125.252c-1.514,4.905-1.445,10.051,4.441,11.054c7.077,1.206,8.578,7.956,9.1,14.215
					c0.61,7.334-3.394,12.373-5.253,19.069c-0.89,3.208-4.277,9.328-1.376,12.266c0.621,0.63,2.964-0.294,2.293-0.974
					c-2.822-2.859,1.551-12.05,2.863-15.172c2.279-5.427,4.281-9.828,3.942-15.851c-0.264-4.689-1.396-9.666-4.905-12.994
					c-1.117-1.061-2.615-1.558-4.094-1.795c-5.94-0.954-6.022-5.314-4.538-10.121C724.479,124.058,721.994,124.402,721.731,125.252
					L721.731,125.252z"/>
			</g>
		</g>
	</g>
	<g>
		<g>
			<g>
				<path fill="#1E0617" d="M761.822,38.319c-6.558,0.414-11.303,4.657-15.094,9.738c-5.795,7.766-4.757,17.007-4.549,26.206
					c0.244,10.778,8.115,34.488-6.049,39.278c-1.643,0.556-0.131,1.323,0.96,0.954c11.642-3.936,9.978-18.065,8.758-27.838
					c-0.846-6.776-1.23-13.343-1.38-20.181c-0.129-5.834,0.11-11.155,3.11-16.231c2.762-4.672,7.422-10.21,13.267-10.58
					C761.71,39.611,763.477,38.214,761.822,38.319L761.822,38.319z"/>
			</g>
		</g>
	</g>
	<g>
		<g>
			<g>
				<path fill="#1E0617" d="M806.907,32.075c10.211,0.082,21.972,1.853,26.402,12.429c4.704,11.233,3.135,23.132-0.747,34.271
					c-1.648,4.731-2.469,9.408-3.662,14.224c-1.014,4.095-1.721,8.263-0.98,12.456c0.927,5.234,9.831,7.209,14.061,5.723
					c1.623-0.57,0.151-1.547-1.01-1.139c-2.461,0.865-5.293-0.58-7.362-1.703c-3.128-1.698-3.561-4.183-3.542-7.507
					c0.025-4.169,1.359-8.47,2.068-12.559c0.867-5,2.98-9.778,4.529-14.589c1.62-5.031,2.153-10.213,2.066-15.479
					c-0.133-7.888-2.32-17.835-9.332-22.512c-6.392-4.264-14.051-5.067-21.56-5.126C806.839,30.555,805.233,32.063,806.907,32.075
					L806.907,32.075z"/>
			</g>
		</g>
	</g>
	<g>
		<g>
			<g>
				<path fill="#1E0617" d="M851.408,56.019c-3.107,6.019-3.452,12.669-3.493,19.326c-0.044,6.973,0.832,13.082,5.202,18.695
					c5.181,6.654,6.537,15.071,3.785,22.951c-2.729,7.815-8.232,15.981-16.445,18.579c-1.448,0.458-1.143,1.696,0.331,1.23
					c11.958-3.783,20.788-17.821,20.052-30.192c-0.531-8.917-7.88-14.39-9.827-22.673c-1.956-8.323-1.255-20.216,2.696-27.867
					C854.25,55.018,851.777,55.306,851.408,56.019L851.408,56.019z"/>
			</g>
		</g>
	</g>
	<g>
		<g>
			<g>
				<path fill="#1E0617" d="M1002.328,11.383c4.776,4.947,11.788,5.321,18.283,5.117c10.275-0.324,20.555-3.58,30.721-0.599
					c8.651,2.536,18.856,9.932,19.198,19.793c0.221,6.351-2.997,18.171-10.666,18.672c-1.336,0.087-1.954,1.767-0.26,1.657
					c6.694-0.438,10.148-6.483,12.073-12.244c2.89-8.652,0.516-16.2-6.118-22.359c-7.266-6.744-16.976-8.833-26.583-8.356
					c-10.336,0.515-26.071,5.873-34.376-2.728C1003.885,9.594,1001.537,10.563,1002.328,11.383L1002.328,11.383z"/>
			</g>
		</g>
	</g>
	<g>
		<g>
			<g>
				<path fill="#1E0617" d="M1046.06,80.248c0,7.562-1.021,15.693,0.228,23.163c0.795,4.757,7.344,14.359,1.703,17.983
					c-1.4,0.9,0.741,1.054,1.453,0.597c5.277-3.391,3.082-9.631,0.814-14.271c-1.844-3.77-1.379-8.654-1.379-12.707
					c0-5.143,0-10.285,0-15.428C1048.879,78.936,1046.06,79.369,1046.06,80.248L1046.06,80.248z"/>
			</g>
		</g>
	</g>
	<g>
		<g>
			<g>
				<path fill="#1E0617" d="M1179.548,34.442c-2.085,7.328-3.567,14.383-2.003,21.961c0.842,4.079,2.153,7.872,2.142,12.093
					c-0.014,4.985-4.286,9.108-7.105,12.868c-3.374,4.499-8.429,9.853-7.437,16c1.061,6.557,4.945,12.24,8.554,17.664
					c0.614,0.923,2.972-0.018,2.263-1.084c-3.887-5.844-8.832-12.515-8.291-19.872c0.557-7.543,9.248-13.24,12.604-19.521
					c3.053-5.714,1.617-11.315,0.104-17.295c-2.018-7.969-0.523-15.286,1.672-23.007
					C1182.379,33.086,1179.852,33.376,1179.548,34.442L1179.548,34.442z"/>
			</g>
		</g>
	</g>
	<g>
		<g>
			<g>
				<path fill="#1E0617" d="M1181.368,108.194c3.76,4.098,5.778,10.188,6.014,15.684c0.206,4.788-2.461,7.287-7.359,7.623
					c-4.389,0.299-7.206-1.913-9.173-5.608c-0.483-0.908-2.854-0.039-2.27,1.059c3.629,6.818,14.219,9.163,19.625,2.792
					c4.904-5.782-0.26-17.913-4.566-22.607C1182.922,106.355,1180.571,107.325,1181.368,108.194L1181.368,108.194z"/>
			</g>
		</g>
	</g>
</g>
</svg>
