<?xml version="1.0" encoding="utf-8"?>
<!-- Generator: Adobe Illustrator 17.0.0, SVG Export Plug-In . SVG Version: 6.00 Build 0)  -->
<!DOCTYPE svg PUBLIC "-//W3C//DTD SVG 1.1//EN" "http://www.w3.org/Graphics/SVG/1.1/DTD/svg11.dtd">
<svg version="1.1" id="Layer_1" xmlns="http://www.w3.org/2000/svg" xmlns:xlink="http://www.w3.org/1999/xlink" x="0px" y="0px"
	 width="205.197px" height="182.523px" viewBox="0 0 205.197 182.523" enable-background="new 0 0 205.197 182.523"
	 xml:space="preserve">
<g>
	<polygon fill="#00C7C4" points="129.574,182.523 81.534,158.911 157.157,67.319 205.197,90.93 	"/>
	<polygon fill="#00C7C4" points="48.444,115.54 0,91.592 75.624,0 124.068,23.947 	"/>
	<polygon fill="#0A7A74" points="48.648,115.707 81.331,158.743 156.955,67.152 124.271,24.114 	"/>
	<g>
		<polygon fill="#0A7A74" points="133.174,167.484 97.677,150.038 153.557,82.357 189.055,99.804 		"/>
		<polygon fill="#FFFFFF" points="104.085,59.275 128.074,90.863 142.55,73.609 118.56,42.021 		"/>
		<polygon fill="#0A7A74" points="91.091,53.333 55.593,35.886 75.703,10.816 111.201,28.264 		"/>
		<polygon fill="#0A7A74" points="67.419,84.897 31.922,67.449 52.032,42.377 87.529,59.826 		"/>
		
			<polygon fill="none" stroke="#474949" stroke-width="1.8447" stroke-linecap="round" stroke-linejoin="round" stroke-miterlimit="10" points="
			135.941,166.562 100.444,149.116 156.323,81.435 191.821,98.882 		"/>
		
			<polygon fill="none" stroke="#474949" stroke-width="1.8447" stroke-linecap="round" stroke-linejoin="round" stroke-miterlimit="10" points="
			93.859,52.412 58.36,34.963 78.471,9.894 113.968,27.341 		"/>
		
			<polygon fill="none" stroke="#474949" stroke-width="1.8447" stroke-linecap="round" stroke-linejoin="round" stroke-miterlimit="10" points="
			70.187,83.974 34.689,66.527 54.798,41.456 90.296,58.903 		"/>
		<polygon fill="#FFFFFF" points="71.45,130.023 81.782,146.098 110.563,112.184 99.097,97.254 		"/>
		<polygon fill="#FFFFFF" points="97.982,67.114 122.601,99.53 125.04,96.938 100.421,64.523 		"/>
		<polygon fill="#FFFFFF" points="93.665,71.972 118.281,104.387 120.72,101.796 96.103,69.381 		"/>
		<polygon fill="#FFFFFF" points="88.807,77.37 113.423,109.786 115.861,107.195 91.244,74.779 		"/>
		<g>
			<polygon fill="#FFFFFF" points="84.64,83.46 82.201,86.051 93.31,100.678 95.687,98.005 			"/>
			<polygon fill="#FFFFFF" points="77.884,90.91 88.989,105.536 91.367,102.862 80.322,88.318 			"/>
			<polygon fill="#FFFFFF" points="73.025,96.308 84.159,110.969 86.536,108.296 75.463,93.716 			"/>
			<polygon fill="#FFFFFF" points="69.051,101.307 79.968,115.683 82.345,113.009 71.489,98.714 			"/>
			<polygon fill="#FFFFFF" points="64.731,106.165 75.649,120.54 78.026,117.867 67.171,103.574 			"/>
			<polygon fill="#FFFFFF" points="59.874,111.563 70.817,125.974 73.194,123.301 62.313,108.971 			"/>
		</g>
		
			<polygon fill="none" stroke="#474949" stroke-width="1.8447" stroke-linecap="round" stroke-linejoin="round" stroke-miterlimit="10" points="
			105.93,59.275 129.918,90.863 144.395,73.609 120.404,42.021 		"/>
		
			<polygon fill="none" stroke="#474949" stroke-width="1.8447" stroke-linecap="round" stroke-linejoin="round" stroke-miterlimit="10" points="
			73.295,130.023 83.627,146.098 112.406,112.184 100.94,97.254 		"/>
		
			<polygon fill="none" stroke="#474949" stroke-width="1.8447" stroke-linecap="round" stroke-linejoin="round" stroke-miterlimit="10" points="
			99.827,67.114 124.444,99.53 126.884,96.938 102.266,64.523 		"/>
		
			<polygon fill="none" stroke="#474949" stroke-width="1.8447" stroke-linecap="round" stroke-linejoin="round" stroke-miterlimit="10" points="
			95.508,71.972 120.126,104.387 122.564,101.796 97.948,69.381 		"/>
		
			<polygon fill="none" stroke="#474949" stroke-width="1.8447" stroke-linecap="round" stroke-linejoin="round" stroke-miterlimit="10" points="
			90.65,77.37 115.268,109.786 117.707,107.195 93.09,74.779 		"/>
		<g>
			
				<polygon fill="none" stroke="#474949" stroke-width="1.8447" stroke-linecap="round" stroke-linejoin="round" stroke-miterlimit="10" points="
				86.484,83.46 84.047,86.051 95.154,100.678 97.53,98.005 			"/>
			
				<polygon fill="none" stroke="#474949" stroke-width="1.8447" stroke-linecap="round" stroke-linejoin="round" stroke-miterlimit="10" points="
				79.728,90.91 90.835,105.536 93.212,102.862 82.166,88.318 			"/>
			
				<polygon fill="none" stroke="#474949" stroke-width="1.8447" stroke-linecap="round" stroke-linejoin="round" stroke-miterlimit="10" points="
				74.87,96.308 86.004,110.969 88.381,108.296 77.308,93.716 			"/>
			
				<polygon fill="none" stroke="#474949" stroke-width="1.8447" stroke-linecap="round" stroke-linejoin="round" stroke-miterlimit="10" points="
				70.896,101.307 81.813,115.683 84.189,113.009 73.334,98.714 			"/>
			
				<polygon fill="none" stroke="#474949" stroke-width="1.8447" stroke-linecap="round" stroke-linejoin="round" stroke-miterlimit="10" points="
				66.576,106.165 77.493,120.54 79.87,117.867 69.016,103.574 			"/>
			
				<polygon fill="none" stroke="#474949" stroke-width="1.8447" stroke-linecap="round" stroke-linejoin="round" stroke-miterlimit="10" points="
				61.718,111.563 72.662,125.974 75.039,123.301 64.157,108.971 			"/>
		</g>
	</g>
</g>
</svg>
