<?xml version="1.0" encoding="utf-8"?>
<!-- Generator: Adobe Illustrator 17.0.0, SVG Export Plug-In . SVG Version: 6.00 Build 0)  -->
<!DOCTYPE svg PUBLIC "-//W3C//DTD SVG 1.1//EN" "http://www.w3.org/Graphics/SVG/1.1/DTD/svg11.dtd">
<svg version="1.1" id="Layer_1" xmlns="http://www.w3.org/2000/svg" xmlns:xlink="http://www.w3.org/1999/xlink" x="0px" y="0px"
	 width="153.981px" height="200.141px" viewBox="0 0 153.981 200.141" enable-background="new 0 0 153.981 200.141"
	 xml:space="preserve">
<g>
	<g>
		<path fill="#00C7C4" d="M75.361,76.647c-6.541,2.183-15.438,0.653-24.832-2.76c-0.268,0.31-0.645,0.524-1.083,0.572
			c-0.525,0.058-12.656,1.594-13.125,17.548c-0.006,0.201-0.05,0.392-0.122,0.57c5.77,1.854,9.502,0.568,9.502,0.568
			S58.852,83.66,75.361,76.647z"/>
		<path fill="#474949" d="M45.754,72.015c-3.201-1.346-6.424-2.872-9.597-4.505c-0.299,0.273-0.695,0.442-1.132,0.439
			c-0.483,0.001-11.475,0.17-11.902,14.801c-0.012,0.361-0.136,0.691-0.34,0.96c3.685,3.746,7.155,6.118,10.228,7.592
			C33.617,78.403,41.221,73.686,45.754,72.015z"/>
		<path fill="#474949" d="M13.753,59.057c1.479-1.238,3.079-1.852,4.461-2.151C8.563,50.467,1.393,44.425,0,42.016
			c3.244,9.389,6.597,17.088,9.945,23.401C10.667,62.706,11.939,60.575,13.753,59.057z"/>
		<path fill="#00C7C4" d="M31.709,65.133c-3.178-1.76-6.27-3.598-9.198-5.441c-0.343,0.256-0.781,0.382-1.237,0.317
			c-0.068-0.009-3.043-0.371-5.412,1.636c-1.972,1.67-3.063,4.533-3.254,8.506c2.473,4.146,4.926,7.578,7.313,10.408
			C20.98,69.709,27.582,66.24,31.709,65.133z"/>
	</g>
	<g>
		<path fill="#00C7C4" d="M83.68,73.772c6.493-2.321,12.548-9.018,17.829-17.502c0.401,0.079,0.832,0.015,1.204-0.219
			c0.45-0.278,10.941-6.562,21.159,5.701c0.13,0.155,0.282,0.275,0.449,0.372c-3.395,5.02-7.123,6.313-7.123,6.313
			S100.997,69.096,83.68,73.772z"/>
		<path fill="#6C6D6D" d="M104.109,51.85c1.688-3.036,3.28-6.226,4.768-9.47c0.404,0.031,0.82-0.081,1.163-0.353
			c0.38-0.297,9.131-6.951,18.501,4.294c0.23,0.277,0.533,0.46,0.858,0.546c-0.585,5.221-1.852,9.23-3.356,12.287
			C117.602,49.38,108.708,50.364,104.109,51.85z"/>
		<path fill="#6C6D6D" d="M121.282,21.896c-1.929-0.059-3.566,0.445-4.838,1.062c3.619-11.023,5.527-20.202,5.135-22.958
			c3.245,9.39,5.362,17.517,6.626,24.549C125.963,22.863,123.647,21.971,121.282,21.896z"/>
		<path fill="#00C7C4" d="M110.908,37.763c1.414-3.346,2.711-6.701,3.877-9.96c0.426-0.009,0.851-0.181,1.17-0.514
			c0.047-0.048,2.162-2.171,5.266-2.055c2.583,0.097,5.21,1.675,7.813,4.682c0.615,4.789,0.804,9.003,0.673,12.701
			C122.174,34.739,114.838,36.086,110.908,37.763z"/>
	</g>
	<path fill="#FFFFFF" d="M141.03,28.149c-12.929,28.179-15.513,48.187-15.513,48.187s0.284,1.001,0.785,2.648
		c0.303,0.43,0.565,0.925,0.764,1.501c3.246,9.374,6.622,18.884,11.913,27.306c0.302,0.258,0.601,0.463,0.894,0.605
		c12.509-4.327,9.288-32.496,6.589-39.299C143.763,62.295,140.652,41.181,141.03,28.149z"/>
	<path fill="#474949" d="M132.965,94.401c0,0,0.938-16.829,6.299-24.145c1.338,1.281,2.089,0.673,1.148,3.438
		c-0.938,2.767-7.032,21.91-5.402,26.625C132.965,94.401,132.965,94.401,132.965,94.401z"/>
	<path fill="#474949" d="M135.514,85.849c1.03-1.054,1.534-2.623,2.673-3.365c1.139-0.742,3.427-1.184,3.727-2.334
		c-1.257-0.611-3.868-1.103-5.21,0.058c-1.654,1.268-0.697,3.029-0.781,4.803"/>
	
		<path fill="none" stroke="#474949" stroke-width="2.0148" stroke-linecap="round" stroke-linejoin="round" stroke-miterlimit="10" d="
		M143.045,26.135c-12.928,28.179-15.513,48.186-15.513,48.186s0.284,1.002,0.785,2.648c0.303,0.43,0.564,0.925,0.765,1.501
		c3.245,9.374,6.621,18.884,11.912,27.307c0.303,0.258,0.601,0.463,0.895,0.605c12.51-4.327,9.288-32.496,6.589-39.299
		C145.777,60.281,142.667,39.166,143.045,26.135z"/>
	<path fill="#FFFFFF" d="M149.058,129.639c-3.697-9.184-30.229-68.014-32.581-68.769c-2.153-0.692-33.623,9.187-38.992,10.882
		l-0.008-0.02c0,0-0.135,0.05-0.376,0.141c-0.247,0.079-0.384,0.121-0.384,0.121l0.007,0.021
		c-5.272,1.982-34.392,13.042-35.658,14.916c-1.384,2.047,15.369,64.255,18.132,73.763c2.762,9.506,5.813,12.231,11.219,13.385
		c9.882,2.108,35.417-3.051,40.179-4.049l0.032,0.091c0,0,0.129-0.062,0.363-0.177c0.256-0.055,0.396-0.085,0.396-0.085
		l-0.031-0.091c4.362-2.154,29.152-14.386,35.624-22.146C150.518,143.375,152.754,138.823,149.058,129.639z"/>
	<g>
		<g>
			<polygon fill="#474949" points="116.838,85.915 103.34,98.699 120.047,88.865 			"/>
		</g>
		<g>
			<path fill="#474949" d="M122.718,98.911c-2.448-0.396-5.271-0.103-7.946,0.822c-1.984,0.686-3.771,1.673-5.265,2.879
				c1.281,0.134,2.2,0.782,2.749,1.673c1.043-0.704,2.217-1.312,3.484-1.749c2.222-0.768,4.531-1.012,6.507-0.698
				c0.809,0.134,1.57-0.419,1.7-1.229C124.077,99.801,123.526,99.04,122.718,98.911z"/>
		</g>
		<g>
			<path fill="#474949" d="M113.162,91.03c0.067-0.022,0.209-0.063,0.21-0.06l1.356,3.925l2.757-2.85
				c0.423,0.429,0.76,0.954,0.97,1.563c0.751,2.174-0.404,4.546-2.578,5.296c-2.173,0.751-4.542-0.403-5.292-2.578
				C109.834,94.154,110.988,91.782,113.162,91.03z"/>
		</g>
	</g>
	<path fill="#D0EFEC" d="M112.02,163.995c-3.583-0.11-7.296-0.29-10.733-1.381c-1.269-0.402-1.853-1.501-1.374-2.767
		c0.697-1.851,1.975-3.198,3.096-4.789c0.537-0.763,1.501-1.546,0.673-1.929c-0.675-0.312-1.359-0.603-2.042-0.898
		c-1.015-0.436-1.3-1.663-0.901-2.607c0.872-2.064,2.437-3.711,3.22-5.819c0.228-0.613,0.632-0.946,1.09-1.068L79.982,70.206
		c0,0,0.012,0-0.229,0.091c-0.247,0.079-0.237,0.071-0.237,0.071l0.007,0.021c-5.091,1.918-36.222,13.675-37.487,15.547
		c-1.385,2.047,15.387,64.249,18.15,73.757c2.763,9.506,5.785,12.24,11.19,13.395c9.882,2.108,37.146-3.648,42.019-4.685
		l0.032,0.091c0,0-0.018-0.012,0.217-0.126c0.256-0.054,0.25-0.036,0.25-0.036l-1.512-4.375
		C112.265,163.981,112.145,163.998,112.02,163.995z"/>
	<polygon fill="#D0EFEC" points="90.566,105.392 128.706,103.56 90.571,121.938 87.563,113.23 	"/>
	
		<path fill="none" stroke="#474949" stroke-width="2.0148" stroke-linecap="round" stroke-linejoin="round" stroke-miterlimit="10" d="
		M151.072,127.624c-3.697-9.184-30.229-68.013-32.581-68.769c-2.153-0.692-33.623,9.187-38.992,10.882l-0.008-0.02
		c0,0-0.134,0.05-0.376,0.141c-0.247,0.079-0.384,0.121-0.384,0.121L78.738,70c-5.272,1.982-34.391,13.042-35.658,14.915
		c-1.383,2.047,15.369,64.255,18.132,73.763c2.763,9.507,5.813,12.231,11.22,13.385c9.881,2.108,35.416-3.051,40.178-4.049
		l0.032,0.092c0,0,0.13-0.062,0.364-0.177c0.255-0.055,0.395-0.085,0.395-0.085l-0.031-0.091
		c4.362-2.154,29.152-14.387,35.624-22.146C152.533,141.36,154.768,136.808,151.072,127.624z"/>
	<path fill="#D0EFEC" d="M43.683,102.811c-4.238-3.82-17.967-15.399-40.537-27.012c8.345,10.018,18.933,28.548,21.011,35.566
		c2.051,6.934,16.578,30.58,28.99,26.988C50.693,126.331,47.574,114.45,43.683,102.811z"/>
	
		<path fill="none" stroke="#474949" stroke-width="2.0148" stroke-linecap="round" stroke-linejoin="round" stroke-miterlimit="10" d="
		M45.697,100.796C41.459,96.976,27.73,85.396,5.16,73.783c8.345,10.019,18.933,28.548,21.011,35.567
		c2.051,6.934,16.578,30.58,28.99,26.988C52.708,124.315,49.589,112.435,45.697,100.796z"/>
	<path fill="#474949" d="M50.104,123.036c0,0-10.981-12.71-19.718-15.154c-0.26,1.833-1.299,1.843,1.146,3.439
		c2.447,1.596,18.986,12.917,20.617,17.634C50.104,123.036,50.104,123.036,50.104,123.036z"/>
	<path fill="#474949" d="M43.111,117.78c-1.461-0.191-2.827-1.115-4.181-0.997c-1.354,0.121-3.427,1.185-4.373,0.466
		c0.612-1.257,2.362-3.257,4.135-3.173c2.084-0.022,2.419,1.954,3.58,3.297"/>
	<path fill="#FFFFFF" d="M93.486,171.508c0.485,1.403,1.506,2.619,1.989,4.021c0.216,0.624,0.484,1.402,0.646,1.869
		c0.323,0.935,0.78,1.474,1.206,2.199c0.741,1.139,1.084,2.24,1.515,3.486c0.323,0.935,1.096,1.713,1.731,2.541
		c1.531,1.912,2.019,4.359,4.534,5.582c1.048,0.509,2.349,0.757,3.655,1.002c0.364,0.049,1.093,0.146,1.513,0.351
		c0.574,0.148,0.997,0.875,1.472,1.234c1.838,1.283,3.16,3.093,4.896,4.584c1.737,1.493,4.401,2.14,6.636,1.543
		c1.246-0.431,1.814-0.802,2.427-2.06c0.456-1.203,1.067-2.46,1.523-3.664c0.503-1.569,0.905-2.928,0.522-4.539
		c-0.275-1.301-0.97-2.804,0.272-3.756c0.826-0.634,1.138-0.742,1.491-1.735c0.306-0.628,0.559-1.413,1.02-2.097
		c1.133-1.262,1.852-2.208,1.518-4.185c-0.113-0.833-0.383-1.612-0.495-2.445c-0.114-0.831-0.646-1.868-0.761-2.701
		c0.043-0.887,0.193-1.461,0.026-2.45c-0.216-0.624-0.694-1.503-0.754-2.181c-0.274-1.299-0.028-2.605-0.094-3.802
		c-0.064-1.199-1.371-4.583-1.694-5.518"/>
	<path fill="#D0EFEC" d="M111.374,164.968l-17.956,6.564c0.484,1.402,1.436,2.643,1.92,4.044l0.646,1.869
		c0.322,0.935,0.85,1.45,1.275,2.175c0.741,1.14,1.118,2.229,1.549,3.475c0.323,0.935,1.113,1.708,1.748,2.534
		c1.532,1.913,2.028,4.355,4.543,5.579c1.048,0.509,2.354,0.755,3.66,1.002c0.364,0.048,1.095,0.145,1.515,0.349
		c0.574,0.149,0.999,0.876,1.472,1.234c1.839,1.283,3.162,3.093,4.897,4.584c1.736,1.493,4.401,2.14,6.636,1.543
		c0.055-0.019,0.103-0.037,0.154-0.057L111.374,164.968z"/>
	<g>
		<g>
			<g>
				<path fill="#474949" d="M126.314,151.801c1.317,1.833,2.961,3.436,3.77,5.585c0.224,0.597,1.415-0.092,1.234-0.573
					c-0.841-2.239-2.476-3.882-3.85-5.794C127.137,150.561,125.987,151.348,126.314,151.801L126.314,151.801z"/>
			</g>
			<g>
				<path fill="#474949" d="M126.991,156.814c2.385,1.357,4.912,5.772,4.731,8.504c-0.029,0.45,1.184-0.135,1.216-0.603
					c0.191-2.911-2.429-7.378-4.937-8.803C127.605,155.686,126.547,156.563,126.991,156.814L126.991,156.814z"/>
			</g>
			<g>
				<path fill="#474949" d="M128.145,163.384c2.648,1.438,3.727,4.506,4.657,7.192c0.063,0.178,1.275-0.437,1.155-0.781
					c-0.955-2.754-2.051-5.781-4.758-7.251C128.915,162.39,127.905,163.254,128.145,163.384L128.145,163.384z"/>
			</g>
			<g>
				<path fill="#474949" d="M128.203,168.892c3.789,0.936,4.901,6.601,5.232,9.888c0.026,0.258,1.203-0.347,1.17-0.67
					c-0.342-3.396-1.436-9.091-5.346-10.055C128.901,167.966,128.032,168.85,128.203,168.892L128.203,168.892z"/>
			</g>
			<g>
				<path fill="#474949" d="M127.203,172.511c1.225,1.288,2.033,3.017,2.739,4.624c0.47,1.068,2.314,5.544,0.583,6.296
					c-0.314,0.136-1.201,1.041-0.385,0.687c4.741-2.055,0.601-9.882-1.783-12.388C128.116,171.477,127.036,172.336,127.203,172.511
					L127.203,172.511z"/>
			</g>
			<g>
				<path fill="#474949" d="M124.451,178.017c2.797,0.163,3.799,5.057,4.189,7.182c0.372,2.031,0.563,4.353-0.05,6.335
					c-0.549,1.771-1.733,3.253-2.231,5.054c-0.149,0.547,1.064-0.044,1.169-0.422c0.622-2.254,2.121-4.101,2.574-6.42
					c0.358-1.831-0.03-4.113-0.408-5.924c-0.478-2.295-1.538-6.564-4.417-6.73C124.887,177.067,123.898,177.985,124.451,178.017
					L124.451,178.017z"/>
			</g>
		</g>
		<g>
			<g>
				<path fill="#474949" d="M94.322,162.738c0.099,2.304-0.191,4.592,0.517,6.829c0.19,0.602,1.392-0.078,1.235-0.574
					c-0.708-2.235-0.419-4.523-0.517-6.828C95.535,161.587,94.301,162.203,94.322,162.738L94.322,162.738z"/>
			</g>
			<g>
				<path fill="#474949" d="M96.928,166.917c-1.092,2.67-0.389,7.818,1.559,9.988c0.334,0.371,1.45-0.452,1.154-0.782
					c-1.831-2.04-2.562-7.059-1.523-9.596C98.337,165.993,97.09,166.526,96.928,166.917L96.928,166.917z"/>
			</g>
			<g>
				<path fill="#474949" d="M100.12,172.894c-1.233,2.857-0.228,5.939,0.731,8.723c0.062,0.177,1.273-0.437,1.154-0.781
					c-0.916-2.661-1.962-5.712-0.779-8.453C101.381,172.029,100.242,172.613,100.12,172.894L100.12,172.894z"/>
			</g>
			<g>
				<path fill="#474949" d="M103.543,177.174c-2.537,3.245,0.023,8.371,1.904,11.336c0.144,0.23,1.309-0.534,1.153-0.781
					c-1.718-2.71-4.43-7.886-2.087-10.881C104.914,176.331,103.707,176.964,103.543,177.174L103.543,177.174z"/>
			</g>
			<g>
				<path fill="#474949" d="M106.441,179.623c-0.273,2.871,1.133,11.939,5.448,10.81c0.27-0.071,1.299-0.963,0.653-0.794
					c-3.81,0.998-5.147-8.363-4.927-10.678C107.637,178.744,106.477,179.254,106.441,179.623L106.441,179.623z"/>
			</g>
			<g>
				<path fill="#474949" d="M112.359,181.627c-2.266,2.002-0.73,5.602,0.282,7.901c0.826,1.88,2.065,3.753,3.453,5.257
					c1.591,1.723,4.202,2.144,6.056,3.513c0.321,0.237,1.415-0.597,1.023-0.886c-1.301-0.96-2.818-1.512-4.253-2.238
					c-2.014-1.019-3.092-2.93-4.231-4.774c-1.087-1.757-3.709-6.72-1.696-8.498C113.703,181.275,112.824,181.218,112.359,181.627
					L112.359,181.627z"/>
			</g>
		</g>
		<g>
			<path fill="#474949" d="M109.318,167.458c-3.383,1.565-0.619,8.61,1.301,10.415c0.346,0.324,1.422-0.53,1.155-0.78
				c-0.999-0.939-1.517-2.407-1.969-3.665c-0.247-0.69-1.596-4.757-0.468-5.278C109.904,167.889,110.174,167.062,109.318,167.458
				L109.318,167.458z"/>
		</g>
		<g>
			<path fill="#474949" d="M123.317,163.414c0.927,3.336,3.975,6.831,1.57,10.188c-0.533,0.744,0.634,0.645,0.97,0.177
				c2.728-3.806-0.248-7.122-1.307-10.941C124.385,162.242,123.18,162.919,123.317,163.414L123.317,163.414z"/>
		</g>
		<g>
			<path fill="#474949" d="M120.451,182.53c-2.194,5.058,0.539,9.572,4.671,12.586c0.529,0.386,1.554-0.545,0.961-0.978
				c-3.796-2.768-6.455-6.847-4.41-11.561C122.015,181.789,120.709,181.936,120.451,182.53L120.451,182.53z"/>
		</g>
		<g>
			<path fill="#474949" d="M114.527,171.145c-0.53,0.068-1.034,0.049-1.51-0.029c1.024,2.547,2.888,4.733,5.503,5.982
				c0.51,0.243,1.542-0.679,0.983-0.944C117.27,175.087,115.573,173.28,114.527,171.145z"/>
		</g>
	</g>
	<path fill="#FFFFFF" d="M103.372,130.757c0,0-33.812,4.909-31.472,16.916c0.658,1.729,0.123,7.861,33.803-6.683
		C114.465,135.316,103.372,130.757,103.372,130.757z"/>
	<g>
		
			<polyline fill="none" stroke="#474949" stroke-width="2.0148" stroke-linecap="round" stroke-linejoin="round" stroke-miterlimit="10" points="
			91.549,120.309 131.753,101.004 92.8,103.302 80.91,68.899 		"/>
		
			<path fill="none" stroke="#474949" stroke-width="2.0148" stroke-linecap="round" stroke-linejoin="round" stroke-miterlimit="10" d="
			M97.724,117.55l3.149,9.115l22.712-2.356L92.821,131.8c0,0-3.645,0.942-7.811,2.599c-5.818,2.314-12.588,6.003-11.675,10.412
			c1.568,7.566,11.61,1.741,14.728,0.927c3.118-0.818,21.973-7.593,21.973-7.593s-12.849,11.239-9.238,12.606
			c3.611,1.368,3.613,1.367,3.613,1.367s-4.527,6.533-4.277,8.016c0.252,1.484,13.295,2.86,13.295,2.86l1.634,4.729"/>
	</g>
	<g>
		<g>
			<polygon fill="#474949" points="60.735,105.302 79.247,107.025 60.034,109.604 			"/>
		</g>
		<g>
			<path fill="#474949" d="M63.98,122.076c-0.36,0-0.723-0.131-1.008-0.395c-0.6-0.556-0.637-1.495-0.082-2.096
				c1.686-1.823,4.086-3.336,6.76-4.26c2.552-0.882,5.162-1.186,7.539-0.881c0.813,0.104,1.387,0.847,1.282,1.66
				c-0.104,0.813-0.848,1.394-1.659,1.282c-1.905-0.245-4.104,0.02-6.193,0.744c-2.22,0.767-4.191,1.999-5.55,3.469
				C64.777,121.915,64.38,122.076,63.98,122.076z"/>
		</g>
		<g>
			<path fill="#474949" d="M66.615,107.117c-0.067,0.024,0.385-0.126-0.374,0.141l1.356,3.925l-3.757-0.598
				c-0.068,0.599,0.078,1.189,0.288,1.797c0.75,2.173,3.167,3.312,5.341,2.56c2.175-0.751,3.26-3.098,2.509-5.272
				C71.227,107.496,68.788,106.366,66.615,107.117z"/>
		</g>
	</g>
	<g>
		<path fill="#474949" d="M79.033,90.1l2.099,6.074c0,0-6.676,9.633-24.36,3.973c-1.998,2.26-2.974,6.258-2.974,6.258l-2.581-2.166
			l2.15-8.93C53.367,95.308,72.138,102.159,79.033,90.1z"/>
	</g>
	<g>
		<path fill="#474949" d="M90.436,86.16l2.1,6.073c0,0,11.444,3.372,21.86-12.001c2.968,0.544,6.325,3.045,6.325,3.045l0.755-3.318
			l-7.42-5.624C114.056,74.335,102.545,91.651,90.436,86.16z"/>
	</g>
	<path fill="#00C7C4" d="M86.223,68.71c-2.561-5.916-17.49-12.002-21.109-12.845c19.309,1.174,23.877,12.59,23.877,12.59"/>
	<path fill="#00C7C4" d="M85.758,69.423c0,0-9.271-8.857-19.029-8.885c3.941,1.777,12.796,6.014,14.848,10.156
		c-5.456-3.201-9.075-5.351-15.571-5.982c4.636,2.059,10.557,5.342,11.703,7.642c-6.494-3.166-7.614-3.383-11.673-3.771
		c2.366,0.792,5.71,3.657,7.316,5.276"/>
	<path fill="#FFFFFF" d="M90.4,104.273"/>
</g>
</svg>
