<?xml version="1.0" encoding="utf-8"?>
<!-- Generator: Adobe Illustrator 17.0.0, SVG Export Plug-In . SVG Version: 6.00 Build 0)  -->
<!DOCTYPE svg PUBLIC "-//W3C//DTD SVG 1.1//EN" "http://www.w3.org/Graphics/SVG/1.1/DTD/svg11.dtd">
<svg version="1.1" id="Layer_1" xmlns="http://www.w3.org/2000/svg" xmlns:xlink="http://www.w3.org/1999/xlink" x="0px" y="0px"
	 width="173.312px" height="149.16px" viewBox="0 0 173.312 149.16" enable-background="new 0 0 173.312 149.16"
	 xml:space="preserve">
<g>
	<g>
		<defs>
			<path id="SVGID_9_" d="M172.302,98.085c0,0,2.428-1.609-0.243-8.362c-2.672-6.752-24.803-62.69-24.803-62.69L53.91,63.963
				l27.723,70.071L172.302,98.085z"/>
		</defs>
		<use xlink:href="#SVGID_9_"  overflow="visible" fill="#999999"/>
		<clipPath id="SVGID_1_">
			<use xlink:href="#SVGID_9_"  overflow="visible"/>
		</clipPath>
		
			<rect x="76.756" y="30.356" transform="matrix(0.3679 0.9299 -0.9299 0.3679 147.2254 -55.4997)" clip-path="url(#SVGID_1_)" fill="#999999" width="75.356" height="100.364"/>
		<g clip-path="url(#SVGID_1_)">
			<defs>
				
					<rect id="SVGID_11_" x="76.756" y="30.356" transform="matrix(0.3679 0.9299 -0.9299 0.3679 147.2254 -55.4997)" width="75.356" height="100.364"/>
			</defs>
			<use xlink:href="#SVGID_11_"  overflow="visible" fill="#999999"/>
			<clipPath id="SVGID_2_">
				<use xlink:href="#SVGID_11_"  overflow="visible"/>
			</clipPath>
		</g>
	</g>
	<g>
		<defs>
			<path id="SVGID_13_" d="M43.146,149.149c0,0-4.082,0.691-7.881-8.909C31.466,130.639,0,51.102,0,51.102L129.166,0l36.414,92.039
				c0,0,0.76,2.167,2.771,4.135c1.729,1.691,3.793,2.052,3.793,2.052L43.146,149.149z"/>
		</defs>
		<clipPath id="SVGID_3_">
			<use xlink:href="#SVGID_13_"  overflow="visible"/>
		</clipPath>
		
			<rect x="32.512" y="3.306" transform="matrix(0.3679 0.9299 -0.9299 0.3679 123.8396 -32.8564)" clip-path="url(#SVGID_3_)" fill="#FFFFFF" width="107.148" height="142.706"/>
		<g clip-path="url(#SVGID_3_)">
			<defs>
				
					<rect id="SVGID_15_" x="32.512" y="3.306" transform="matrix(0.3679 0.9299 -0.9299 0.3679 123.8396 -32.8564)" width="107.148" height="142.706"/>
			</defs>
			<clipPath id="SVGID_4_">
				<use xlink:href="#SVGID_15_"  overflow="visible"/>
			</clipPath>
		</g>
	</g>
	
		<rect x="8.911" y="32.494" transform="matrix(0.9299 -0.3679 0.3679 0.9299 -13.2869 30.0667)" fill="none" stroke="#474949" stroke-width="1.7842" stroke-linecap="round" stroke-linejoin="round" stroke-miterlimit="10" width="126.615" height="34.78"/>
	
		<rect x="111.883" y="58.089" transform="matrix(0.9299 -0.3679 0.3679 0.9299 -20.7999 54.455)" fill="#0A7A74" width="41.089" height="47.387"/>
	
		<rect x="110.991" y="59.874" transform="matrix(0.9299 -0.3679 0.3679 0.9299 -21.5188 54.25)" fill="none" stroke="#474949" stroke-width="1.7842" stroke-linecap="round" stroke-linejoin="round" stroke-miterlimit="10" width="41.088" height="47.387"/>
	
		<rect x="10.696" y="30.711" transform="matrix(0.9299 -0.3679 0.3679 0.9299 -12.5055 30.5976)" fill="#00A79D" width="126.615" height="34.779"/>
	<g>
		
			<rect x="110.41" y="70.96" transform="matrix(0.9299 -0.3679 0.3679 0.9299 -17.2136 52.0202)" fill="#FFFFFF" width="34.86" height="0.401"/>
		
			<rect x="111.393" y="73.444" transform="matrix(0.9299 -0.3679 0.3679 0.9299 -18.0587 52.5558)" fill="#FFFFFF" width="34.859" height="0.401"/>
		
			<rect x="112.376" y="75.929" transform="matrix(0.9299 -0.3679 0.3679 0.9299 -18.9032 53.0902)" fill="#FFFFFF" width="34.859" height="0.401"/>
		
			<rect x="113.357" y="78.411" transform="matrix(0.9299 -0.3679 0.3679 0.9299 -19.7494 53.635)" fill="#FFFFFF" width="34.86" height="0.403"/>
		
			<rect x="114.341" y="80.896" transform="matrix(0.9299 -0.3679 0.3679 0.9299 -20.5935 54.1643)" fill="#FFFFFF" width="34.859" height="0.401"/>
		
			<rect x="115.323" y="83.381" transform="matrix(0.9299 -0.3679 0.3679 0.9299 -21.4375 54.6951)" fill="#FFFFFF" width="34.86" height="0.4"/>
		
			<rect x="116.305" y="85.865" transform="matrix(0.9299 -0.3679 0.3679 0.9299 -22.2832 55.2349)" fill="#FFFFFF" width="34.861" height="0.401"/>
		
			<rect x="117.289" y="88.348" transform="matrix(0.9299 -0.3679 0.3679 0.9299 -23.1276 55.7701)" fill="#FFFFFF" width="34.86" height="0.4"/>
		
			<rect x="118.272" y="90.833" transform="matrix(0.9299 -0.3679 0.3679 0.9299 -23.9727 56.3043)" fill="#FFFFFF" width="34.859" height="0.399"/>
		
			<rect x="119.254" y="93.314" transform="matrix(0.9299 -0.3679 0.3679 0.9299 -24.8184 56.8458)" fill="#FFFFFF" width="34.86" height="0.402"/>
		
			<rect x="120.237" y="95.799" transform="matrix(0.9299 -0.3679 0.3679 0.9299 -25.6626 57.3791)" fill="#FFFFFF" width="34.86" height="0.401"/>
		
			<rect x="121.22" y="98.284" transform="matrix(0.9299 -0.3679 0.3679 0.9299 -26.5072 57.9129)" fill="#FFFFFF" width="34.86" height="0.401"/>
		
			<rect x="122.765" y="103.716" transform="matrix(0.9299 -0.3679 0.3679 0.9299 -28.9604 55.918)" fill="#FFFFFF" width="18.832" height="0.401"/>
	</g>
	<g>
		<g>
			
				<rect x="34.255" y="113.729" transform="matrix(0.9299 -0.3679 0.3679 0.9299 -38.286 27.0014)" fill="#6D6E71" width="34.86" height="0.401"/>
			
				<rect x="35.237" y="116.213" transform="matrix(0.9299 -0.3679 0.3679 0.9299 -39.1344 27.5406)" fill="#6D6E71" width="34.861" height="0.4"/>
			
				<rect x="36.22" y="118.698" transform="matrix(0.9299 -0.3679 0.3679 0.9299 -39.9805 28.0774)" fill="#6D6E71" width="34.86" height="0.401"/>
			
				<rect x="37.203" y="121.181" transform="matrix(0.9299 -0.3679 0.3679 0.9299 -40.8237 28.6117)" fill="#6D6E71" width="34.86" height="0.4"/>
			
				<rect x="38.185" y="123.666" transform="matrix(0.9299 -0.3679 0.3679 0.9299 -41.6672 29.1459)" fill="#6D6E71" width="34.862" height="0.4"/>
			
				<rect x="39.168" y="126.148" transform="matrix(0.9299 -0.3679 0.3679 0.9299 -42.5148 29.6845)" fill="#6D6E71" width="34.86" height="0.401"/>
			
				<rect x="40.151" y="128.634" transform="matrix(0.9299 -0.3679 0.3679 0.9299 -43.3577 30.2182)" fill="#6D6E71" width="34.861" height="0.4"/>
			
				<rect x="41.133" y="131.116" transform="matrix(0.9299 -0.3679 0.3679 0.9299 -44.2038 30.755)" fill="#6D6E71" width="34.861" height="0.401"/>
			
				<rect x="42.641" y="136.351" transform="matrix(0.9299 -0.3679 0.3679 0.9299 -46.5532 28.9293)" fill="#6D6E71" width="19.901" height="0.402"/>
		</g>
	</g>
	<g>
		<g>
			
				<rect x="73.377" y="98.252" transform="matrix(0.9299 -0.3679 0.3679 0.9299 -29.8501 40.3087)" fill="#6D6E71" width="34.859" height="0.401"/>
			
				<rect x="72.361" y="95.685" transform="matrix(0.9299 -0.3679 0.3679 0.9299 -28.9768 39.7549)" fill="#6D6E71" width="34.86" height="0.4"/>
			
				<rect x="71.346" y="93.119" transform="matrix(0.9299 -0.3679 0.3679 0.9299 -28.1038 39.201)" fill="#6D6E71" width="34.858" height="0.401"/>
			
				<rect x="70.331" y="90.553" transform="matrix(0.9299 -0.3679 0.3679 0.9299 -27.2311 38.6483)" fill="#6D6E71" width="34.859" height="0.4"/>
			
				<rect x="69.315" y="87.986" transform="matrix(0.9299 -0.3679 0.3679 0.9299 -26.3582 38.0945)" fill="#6D6E71" width="34.859" height="0.399"/>
			
				<rect x="68.299" y="85.419" transform="matrix(0.9299 -0.3679 0.3679 0.9299 -25.4857 37.5422)" fill="#6D6E71" width="34.86" height="0.401"/>
			
				<rect x="67.284" y="82.852" transform="matrix(0.9299 -0.3679 0.3679 0.9299 -24.6133 36.9904)" fill="#6D6E71" width="34.86" height="0.401"/>
			
				<rect x="66.268" y="80.285" transform="matrix(0.9299 -0.3679 0.3679 0.9299 -23.7404 36.4365)" fill="#6D6E71" width="34.86" height="0.402"/>
			
				<rect x="65.252" y="77.719" transform="matrix(0.9299 -0.3679 0.3679 0.9299 -22.8674 35.8833)" fill="#6D6E71" width="34.861" height="0.401"/>
			
				<rect x="74.359" y="100.736" transform="matrix(0.9299 -0.3679 0.3679 0.9299 -30.6957 40.8464)" fill="#6D6E71" width="34.861" height="0.4"/>
			
				<rect x="75.342" y="103.219" transform="matrix(0.9299 -0.3679 0.3679 0.9299 -31.5421 41.385)" fill="#6D6E71" width="34.86" height="0.401"/>
			
				<rect x="76.325" y="105.704" transform="matrix(0.9299 -0.3679 0.3679 0.9299 -32.3854 41.9171)" fill="#6D6E71" width="34.86" height="0.4"/>
			
				<rect x="77.307" y="108.188" transform="matrix(0.9299 -0.3679 0.3679 0.9299 -33.2295 42.4511)" fill="#6D6E71" width="34.86" height="0.401"/>
			
				<rect x="78.29" y="110.672" transform="matrix(0.9299 -0.3679 0.3679 0.9299 -34.0741 42.9869)" fill="#6D6E71" width="34.859" height="0.4"/>
			
				<rect x="79.273" y="113.156" transform="matrix(0.9299 -0.3679 0.3679 0.9299 -34.9195 43.5233)" fill="#6D6E71" width="34.861" height="0.4"/>
			
				<rect x="80.256" y="115.638" transform="matrix(0.9299 -0.3679 0.3679 0.9299 -35.7654 44.062)" fill="#6D6E71" width="34.86" height="0.401"/>
			
				<rect x="81.763" y="120.874" transform="matrix(0.9299 -0.3679 0.3679 0.9299 -38.1123 42.2351)" fill="#6D6E71" width="19.901" height="0.401"/>
		</g>
	</g>
	
		<rect x="51.93" y="90.886" transform="matrix(0.9299 -0.3679 0.3679 0.9299 -31.1405 27.7734)" fill="#0A7A74" width="10.685" height="9.349"/>
	
		<rect x="52.822" y="89.102" transform="matrix(0.9299 -0.3678 0.3678 0.9299 -30.4141 27.9664)" fill="none" stroke="#474949" stroke-width="1.7842" stroke-linecap="round" stroke-linejoin="round" stroke-miterlimit="10" width="10.686" height="9.35"/>
	
		<rect x="17.043" y="49.2" transform="matrix(0.9299 -0.3679 0.3679 0.9299 -17.8702 17.8341)" fill="#FFFFFF" width="41.593" height="13.173"/>
	
		<rect x="60.218" y="26.139" transform="matrix(0.9299 -0.3679 0.3679 0.9299 -7.8867 37.9395)" fill="#FFFFFF" width="70.709" height="27.035"/>
	
		<rect x="17.935" y="50.985" transform="matrix(0.9299 -0.3679 0.3679 0.9299 -18.4635 18.2867)" fill="none" stroke="#474949" stroke-width="1.7842" stroke-linecap="round" stroke-linejoin="round" stroke-miterlimit="10" width="41.595" height="13.172"/>
	
		<rect x="61.11" y="27.923" transform="matrix(0.9299 -0.3679 0.3679 0.9299 -8.4804 38.3928)" fill="none" stroke="#474949" stroke-width="1.7842" stroke-linecap="round" stroke-linejoin="round" stroke-miterlimit="10" width="70.709" height="27.034"/>
</g>
</svg>
