<?xml version="1.0" encoding="utf-8"?>
<!-- Generator: Adobe Illustrator 17.0.0, SVG Export Plug-In . SVG Version: 6.00 Build 0)  -->
<!DOCTYPE svg PUBLIC "-//W3C//DTD SVG 1.1//EN" "http://www.w3.org/Graphics/SVG/1.1/DTD/svg11.dtd">
<svg version="1.1" id="Layer_1" xmlns="http://www.w3.org/2000/svg" xmlns:xlink="http://www.w3.org/1999/xlink" x="0px" y="0px"
	 width="101.545px" height="102.258px" viewBox="0 0 101.545 102.258" enable-background="new 0 0 101.545 102.258"
	 xml:space="preserve">
<g display="none">
	<g display="inline">
		<path fill="#FFFFFF" d="M-60.64,100.09v14.203c0,4.836,3.92,8.757,8.758,8.757h169.112c4.837,0,8.757-3.921,8.757-8.757V100.09
			H-60.64z"/>
		<rect x="99.741" y="-69.417" fill="#FFFFFF" width="14" height="162"/>
	</g>
	<g display="inline">
		<g>
			<path fill="#D0EFEC" d="M8.341,100.09h-68.98v14.203c0,4.836,3.92,8.757,8.758,8.757h66.555
				C11.648,115.775,9.494,108.077,8.341,100.09z"/>
		</g>
		<g>
			<path fill="none" stroke="#00C7C4" stroke-width="3" stroke-linecap="round" stroke-linejoin="round" stroke-miterlimit="10" d="
				M-60.64,100.09v14.203c0,4.836,3.92,8.757,8.758,8.757h169.112c4.837,0,8.757-3.921,8.757-8.757V100.09H-60.64z"/>
			
				<rect x="100.241" y="-69.917" fill="none" stroke="#00C7C4" stroke-width="5" stroke-linecap="round" stroke-linejoin="round" stroke-miterlimit="10" width="14" height="162"/>
		</g>
	</g>
	<g display="inline">
		<path fill="none" stroke="#00C7C4" stroke-width="3" stroke-linecap="round" stroke-linejoin="round" stroke-miterlimit="10" d="
			M-1.805,87.25c6.212-27.333,15.356-56.589,24.627-76.171c18.251-3.832,55.585-3.834,76.918,8.166
			c-12.337,28.701-26.405,80.838-26.405,80.838S49.316,89.917-1.805,87.25z"/>
		<path fill="none" stroke="#00C7C4" stroke-width="3" stroke-linecap="round" stroke-linejoin="round" stroke-miterlimit="10" d="
			M22.822,11.079c0,0,49.919-11.041,69.919-2.269c-1.719,6.469-1.719,6.469-1.719,6.469S59.903,4.075,22.822,11.079z"/>
		<path fill="none" stroke="#00C7C4" stroke-width="3" stroke-linecap="round" stroke-linejoin="round" stroke-miterlimit="10" d="
			M22.822,11.079c0,0,34.423-16.996,61.171-12.496c-1.823,7.54-1.823,7.54-1.823,7.54S61.903,1.575,22.822,11.079z"/>
		<path fill="none" stroke="#00C7C4" stroke-width="3" stroke-linecap="round" stroke-linejoin="round" stroke-miterlimit="10" d="
			M33.241,18.644c0,0,31.158-7.869,54.162,7.368c0,0-17.223,53.768-18.608,61.902c-6.72-0.532-18.789-8.078-54.122-10.667
			C17.34,67.993,33.241,18.644,33.241,18.644z"/>
		<path fill="#00C7C4" d="M26.388,67.59c0,0,24.65,4.312,32.195,7.339c0,0-0.468,2.07-0.908,4.652
			c-2.133-0.169-18.275-4.889-32.182-7.387C26.34,69.257,26.388,67.59,26.388,67.59z"/>
		<g>
			<g>
				<path fill="#00C7C4" d="M23.718,48.373c1.417-1.254,3.743-5.773,5.636-0.525c0.686,1.903,0.86,3.95,1.669,5.825
					c0.717,1.662,3.315,0.955,4.195-0.126c2.459-3.019,3.244-6.669,4.927-10.062c1.454-2.933,4.534-2.405,5.673,0.635
					c0.504,1.345,0.273,3.376,0.285,4.822c0.015,1.79,0.365,3.288,1.42,4.737c0.3,0.412,0.914,0.326,1.316,0.158
					c2.429-1.012,3.373-4.539,4.187-6.743c1.633-4.42,2.88-8.974,4.832-13.274c0.765-1.686,2.416-5.478,4.811-4.157
					c3.99,2.201,2.962,7.523,2.445,11.195c-0.752,5.344-2.062,12.953,0.327,17.982c0.199,0.419,0.707,0.586,1.149,0.424
					c1.717-0.629,2.595-1.511,3.527-3.089c0.234-0.396,3.136-7.428,4.753-3.981c0.415,0.885,0.752,2.968,0.548,3.827
					c-0.677,2.848-1.355,5.696-2.032,8.544c-1.856,7.806-3.713,15.612-5.569,23.418c0.437-0.263,0.873-0.525,1.31-0.788
					c-15.637-3.082-31.275-6.164-46.912-9.246c-2.334-0.46-4.669-0.92-7.003-1.38c0.554,0.109,0.27,1.22,0.781-0.567
					c0.49-1.71,0.979-3.42,1.469-5.13c2.18-7.612,4.359-15.224,6.539-22.836c0.313-1.093-1.609-1.093-1.853-0.242
					c-2.8,9.778-5.6,19.555-8.4,29.333c-0.137,0.478,0.133,0.75,0.597,0.841c18.041,3.556,36.081,7.111,54.122,10.667
					c0.545,0.107,1.181-0.247,1.31-0.788c2.537-10.667,5.074-21.333,7.61-32c0.439-1.845-0.431-6.115-2.802-6.427
					c-3.334-0.438-4.768,3.074-5.855,5.54c-2.344,5.32-2.46-1.008-2.427-3.447c0.032-2.338,0.352-4.663,0.416-7
					c0.131-4.781,2.111-9.738-0.564-14.129c-2.707-4.445-7.005-2.161-9.104,1.195c-3.666,5.861-4.48,13.119-7.555,19.265
					c-1.782,3.561-1.428-1.517-1.443-3.331c-0.012-1.493,0.167-3.836-0.78-5.136c-1.399-1.92-4.072-3.74-6.413-2.089
					c-2.692,1.898-3.113,4.865-4.432,7.653c-1.021,2.158-3.172,6.661-4.388,2.381c-0.457-1.608-0.563-3.941-1.848-5.178
					c-3.492-3.36-5.27,0.105-7.764,2.312C21.446,48.323,22.974,49.031,23.718,48.373z"/>
			</g>
		</g>
	</g>
</g>
<g>
	<path fill="#61274B" d="M24.627,13.254c0,0,34.423-16.996,61.171-12.496c-1.823,7.54-1.823,7.54-1.823,7.54
		S65.796,6.627,24.627,13.254z"/>
	<path fill="#3A122D" d="M24.627,13.254c0,0,48.146-13.174,69.919-2.269c-1.719,6.469-1.719,6.469-1.719,6.469
		S62.046,7.599,24.627,13.254z"/>
	<path fill="#61274B" d="M0,89.425c6.212-27.333,15.356-56.589,24.627-76.171c18.251-3.832,55.585-3.834,76.918,8.166
		C89.208,50.122,75.14,102.258,75.14,102.258S51.121,92.092,0,89.425z"/>
	<path fill="#E1FFFB" d="M35.046,20.819c0,0,31.158-7.869,54.162,7.368c0,0-17.223,53.768-18.608,61.902
		c-6.72-0.532-18.789-8.078-54.122-10.667C19.145,70.169,35.046,20.819,35.046,20.819z"/>
	<g>
		<path fill="#E9D234" d="M24.877,50.089c2-1.334,2-4,4.666-3.334c2.667,0.667,2.667,4,3.334,6c0.666,2,0.666,4.667,3.333,2.667
			c1.333-1.333,2.667-4.667,3.333-6c0.667-2.667,3.334-10,8-5.333c2.667,2.666,0,8.666,2.667,11.333c4.667-1.333,8-31.333,16-23.333
			c4,3.333,1.333,10,1.333,14.666c0,3.334-1.333,10.667,0.667,14c3.333-0.666,3.333-6,6-8c3.333-2,6,3.667,6,6.334l-9.61,31
			L16.478,79.422L24.877,50.089z"/>
	</g>
	<g>
		<path fill="#C9B22B" d="M55.259,45.21c-1.709,5.101-3.283,9.709-5.049,10.213c-2.667-2.667,0-8.667-2.667-11.333
			c-4.666-4.667-7.333,2.666-8,5.333c-0.666,1.333-2,4.667-3.333,6c-2.667,2-2.667-0.667-3.333-2.667c-0.667-2-0.667-5.333-3.334-6
			c-2.666-0.666-2.666,2-4.666,3.334l-8.399,29.333L70.6,90.089l1.653-5.334C63.082,73.686,56.966,60.041,55.259,45.21z"/>
	</g>
	<path fill="#61274B" d="M28.192,69.765c0,0,24.65,4.312,32.195,7.339c0,0-0.468,2.07-0.908,4.652
		c-2.133-0.169-18.275-4.889-32.182-7.387C28.145,71.432,28.192,69.765,28.192,69.765z"/>
</g>
</svg>
