<?xml version="1.0" encoding="utf-8"?>
<!-- Generator: Adobe Illustrator 17.0.0, SVG Export Plug-In . SVG Version: 6.00 Build 0)  -->
<!DOCTYPE svg PUBLIC "-//W3C//DTD SVG 1.1//EN" "http://www.w3.org/Graphics/SVG/1.1/DTD/svg11.dtd">
<svg version="1.1" id="Layer_1" xmlns="http://www.w3.org/2000/svg" xmlns:xlink="http://www.w3.org/1999/xlink" x="0px" y="0px"
	 width="96.196px" height="124.434px" viewBox="0 0 96.196 124.434" enable-background="new 0 0 96.196 124.434"
	 xml:space="preserve">
<g display="none">
	<path display="inline" fill="#D0EFEC" d="M21.986,61.076c0,5.168-4.189,9.358-9.357,9.358h-72.285
		c-5.168,0-9.357-4.189-9.357-9.358V-44.208c0-5.168,4.189-9.358,9.357-9.358h72.285c5.168,0,9.357,4.189,9.357,9.358V61.076z"/>
	
		<path display="inline" fill="none" stroke="#00C7C4" stroke-width="5" stroke-linecap="round" stroke-linejoin="round" stroke-miterlimit="10" d="
		M22.486,60.576c0,5.168-4.189,9.358-9.357,9.358h-72.285c-5.168,0-9.357-4.189-9.357-9.358V-44.708
		c0-5.168,4.189-9.358,9.357-9.358h72.285c5.168,0,9.357,4.189,9.357,9.358V60.576z"/>
	<rect x="-58.014" y="-43.566" display="inline" fill="#FFFFFF" width="71" height="89"/>
	
		<rect x="-57.514" y="-44.066" display="inline" fill="none" stroke="#00C7C4" stroke-width="5" stroke-linecap="round" stroke-linejoin="round" stroke-miterlimit="10" width="71" height="89"/>
	<g display="inline">
		<path fill="#FFFFFF" d="M11.113,37.966h13.514V13.044H11.113c-5.813,0-10.524,4.711-10.524,10.524v3.875
			C0.589,33.254,5.3,37.966,11.113,37.966z"/>
	</g>
	<g display="inline">
		<path fill="#D0EFEC" d="M7.429,13.719c-3.992,1.494-6.84,5.333-6.84,9.848v3.875c0,5.812,4.711,10.524,10.524,10.524h8.807
			C14.455,30.71,10.189,22.523,7.429,13.719z"/>
	</g>
	<g display="inline">
		
			<path fill="none" stroke="#00C7C4" stroke-width="3.3115" stroke-linecap="round" stroke-linejoin="round" stroke-miterlimit="10" d="
			M11.113,37.966h13.514V13.044H11.113c-5.813,0-10.524,4.711-10.524,10.524v3.875C0.589,33.254,5.3,37.966,11.113,37.966z"/>
	</g>
</g>
<g display="none">
	<path display="inline" fill="#FFFFFF" d="M49.683,122.102c0.485-0.129,0.789-0.227-0.024-0.053c-0.007-0.014-0.015-0.03-0.015-0.03
		c-0.185,0.06-0.379,0.117-0.568,0.176c-0.055,0.017-0.116,0.035-0.158,0.048c-14.436,4.445-35.954,5.7-87.164,32.907
		c11.45,7.47,29.172,77.389,29.172,77.389l5.273-5.063c1.226,4.783,1.935,7.725,1.935,7.725l8.214-7.568l-2.258,5.505
		c1.227,4.783,1.935,7.725,1.935,7.725l37.163-34.244c0,0,33.813-4.237,55.188-4.385C77.316,181.274,50.765,124.43,49.683,122.102z"
		/>
	<g display="inline">
		
			<path fill="none" stroke="#00C7C4" stroke-width="2.0201" stroke-linecap="round" stroke-linejoin="round" stroke-miterlimit="10" d="
			M49.644,122.02c0,0,11.646,50.938,33.578,71.897c-21.367,0.581-55.837,3.63-55.837,3.63l-36.46,34.993
			c0,0-17.722-69.919-29.172-77.389C13.824,127.487,35.204,126.656,49.644,122.02z"/>
		
			<path fill="none" stroke="#00C7C4" stroke-width="2.0201" stroke-linecap="round" stroke-linejoin="round" stroke-miterlimit="10" d="
			M4.089,233.138c1.227,4.783,1.935,7.725,1.935,7.725l37.163-34.244c0,0,33.813-4.237,55.188-4.385
			c-21.501-21.399-48.731-80.214-48.731-80.214"/>
		<path fill="#D0EFEC" d="M49.298,122.127C52.142,121.498,46.927,122.835,49.298,122.127c0,0,20.398,54.937,41.898,76.336
			c-21.375,0.147-55.898,2.494-55.898,2.494l-37.165,34.244c0,0-0.709-2.941-1.935-7.725l31.187-29.931l55.837-3.63
			C83.222,193.917,59.718,167.214,49.298,122.127z"/>
		
			<path fill="none" stroke="#00C7C4" stroke-width="2.0201" stroke-linecap="round" stroke-linejoin="round" stroke-miterlimit="10" d="
			M-3.801,227.477c1.226,4.783,1.935,7.725,1.935,7.725l37.165-34.244c0,0,34.523-2.347,55.898-2.494
			c-21.501-21.399-41.898-76.336-41.898-76.336c-2.371,0.708,2.844-0.629,0,0"/>
	</g>
</g>
<g>
	<g>
		<path fill="#D0EFEC" d="M91.986,115.076c0,5.168-4.189,9.358-9.357,9.358H10.343c-5.168,0-9.357-4.19-9.357-9.358V9.792
			c0-5.168,4.189-9.358,9.357-9.358h72.285c5.168,0,9.357,4.19,9.357,9.358V115.076z"/>
		<path fill="#61274B" d="M91.986,115.076c0,5.168-4.189,9.358-9.357,9.358H10.343c-5.168,0-9.357-4.19-9.357-9.358V9.792
			c0-5.168,4.189-9.358,9.357-9.358h72.285c5.168,0,9.357,4.19,9.357,9.358V115.076z"/>
		<path fill="#471A38" d="M25.613,38c0-13.772,3.848-26.773,10.484-38h-25.84C5.089,0,0.9,4.19,0.9,9.358v105.284
			c0,5.168,4.19,9.358,9.357,9.358h72.285c5.168,0,9.357-4.189,9.357-9.358v-1.492C54.937,108.357,25.613,76.099,25.613,38z"/>
		<rect x="11.986" y="10.434" fill="#FFFFFF" width="71" height="89"/>
		<rect x="11.986" y="10.434" fill="none" width="71" height="89"/>
		<g>
			<circle fill="#E9D234" stroke="#FFFFFF" stroke-miterlimit="10" cx="48.047" cy="110.317" r="7.985"/>
		</g>
	</g>
	<g>
		<path fill="#FFFFFF" d="M15.169,65.609H1.656v24.922h13.514c5.813,0,10.524-4.711,10.524-10.524v-3.875
			C25.693,70.321,20.982,65.609,15.169,65.609z"/>
		<path fill="#FFFFFF" d="M81.027,90.532H94.54V65.609H81.027c-5.813,0-10.523,4.711-10.523,10.524v3.875
			C70.503,85.82,75.214,90.532,81.027,90.532z"/>
	</g>
	<g>
		<path fill="#D0EFEC" d="M10.765,65.609H1.656v24.922h13.514c3.132,0,5.936-1.375,7.863-3.546
			C16.064,82.233,11.288,74.418,10.765,65.609z"/>
		<path fill="#D0EFEC" d="M77.343,66.285c-3.992,1.494-6.84,5.334-6.84,9.848v3.875c0,5.813,4.711,10.524,10.523,10.524h8.807
			C84.369,83.276,80.103,75.088,77.343,66.285z"/>
	</g>
	<g>
		
			<path fill="none" stroke="#00C7C4" stroke-width="3.3115" stroke-linecap="round" stroke-linejoin="round" stroke-miterlimit="10" d="
			M15.169,65.609H1.656v24.922h13.514c5.813,0,10.524-4.711,10.524-10.524v-3.875C25.693,70.321,20.982,65.609,15.169,65.609z"/>
		
			<path fill="none" stroke="#00C7C4" stroke-width="3.3115" stroke-linecap="round" stroke-linejoin="round" stroke-miterlimit="10" d="
			M81.027,90.532H94.54V65.609H81.027c-5.813,0-10.523,4.711-10.523,10.524v3.875C70.503,85.82,75.214,90.532,81.027,90.532z"/>
	</g>
</g>
</svg>
