<svg xmlns="http://www.w3.org/2000/svg" version="1.1" x="0" y="0" width="96.2" height="124.4" viewBox="0 0 96.2 124.4" enable-background="new 0 0 96.196 124.434" xml:space="preserve"><path fill="#D0EFEC" d="M92 115.1c0 5.2-4.2 9.4-9.4 9.4H10.3c-5.2 0-9.4-4.2-9.4-9.4V9.8c0-5.2 4.2-9.4 9.4-9.4h72.3c5.2 0 9.4 4.2 9.4 9.4V115.1z"/><path fill="#61274B" d="M92 115.1c0 5.2-4.2 9.4-9.4 9.4H10.3c-5.2 0-9.4-4.2-9.4-9.4V9.8c0-5.2 4.2-9.4 9.4-9.4h72.3c5.2 0 9.4 4.2 9.4 9.4V115.1z"/><path fill="#471A38" d="M25.6 38c0-13.8 3.8-26.8 10.5-38h-25.8C5.1 0 0.9 4.2 0.9 9.4v105.3c0 5.2 4.2 9.4 9.4 9.4h72.3c5.2 0 9.4-4.2 9.4-9.4v-1.5C54.9 108.4 25.6 76.1 25.6 38z"/><rect x="12" y="10.4" fill="#FFFFFF" width="71" height="89"/><rect x="12" y="10.4" fill="none" width="71" height="89"/><circle fill="#E9D234" stroke="#FFFFFF" stroke-miterlimit="10" cx="48" cy="110.3" r="8"/><path fill="#FFFFFF" d="M15.2 65.6H1.7v24.9h13.5c5.8 0 10.5-4.7 10.5-10.5v-3.9C25.7 70.3 21 65.6 15.2 65.6z"/><path fill="#FFFFFF" d="M81 90.5H94.5V65.6H81c-5.8 0-10.5 4.7-10.5 10.5v3.9C70.5 85.8 75.2 90.5 81 90.5z"/><path fill="#D0EFEC" d="M10.8 65.6H1.7v24.9h13.5c3.1 0 5.9-1.4 7.9-3.5C16.1 82.2 11.3 74.4 10.8 65.6z"/><path fill="#D0EFEC" d="M77.3 66.3c-4 1.5-6.8 5.3-6.8 9.8v3.9c0 5.8 4.7 10.5 10.5 10.5h8.8C84.4 83.3 80.1 75.1 77.3 66.3z"/><path fill="none" stroke="#00C7C4" stroke-width="3.3" stroke-linecap="round" stroke-linejoin="round" stroke-miterlimit="10" d="M15.2 65.6H1.7v24.9h13.5c5.8 0 10.5-4.7 10.5-10.5v-3.9C25.7 70.3 21 65.6 15.2 65.6z"/><path fill="none" stroke="#00C7C4" stroke-width="3.3" stroke-linecap="round" stroke-linejoin="round" stroke-miterlimit="10" d="M81 90.5H94.5V65.6H81c-5.8 0-10.5 4.7-10.5 10.5v3.9C70.5 85.8 75.2 90.5 81 90.5z"/></svg>