<?xml version="1.0" encoding="utf-8"?>
<!-- Generator: Adobe Illustrator 17.0.0, SVG Export Plug-In . SVG Version: 6.00 Build 0)  -->
<!DOCTYPE svg PUBLIC "-//W3C//DTD SVG 1.1//EN" "http://www.w3.org/Graphics/SVG/1.1/DTD/svg11.dtd">
<svg version="1.1" id="Layer_1" xmlns="http://www.w3.org/2000/svg" xmlns:xlink="http://www.w3.org/1999/xlink" x="0px" y="0px"
	 width="57.132px" height="75.818px" viewBox="0 0 57.132 75.818" enable-background="new 0 0 57.132 75.818" xml:space="preserve">
<g display="none">
</g>
<g>
	<path fill="#F27751" d="M3.263,0c0.06,0.224,0.574,2.606,1.148,5.292L4.4,5.291l1.693,7.884c0.014,0.071,0.024,0.115,0.024,0.115
		l0,0l5.635,26.228c-1.535-0.611-3.338-0.792-5.173-0.397c-4.363,0.937-7.248,4.727-6.445,8.466c0.805,3.738,4.99,6.009,9.352,5.073
		c4.363-0.938,7.248-4.727,6.443-8.466l-6.406-29.83c5.098,1.97,14.334,7.08,16.385,18.688C32.056,10.058,8.966,6.463,3.263,0z"/>
	<path fill="#E9D234" d="M52.083,56.556c1.637-15.731-8.392-25.733-14.24-30.157l-2.748,40.849
		c-0.344,5.119-5.465,8.943-11.437,8.54c-5.973-0.401-10.535-4.877-10.191-9.996c0.345-5.119,5.466-8.943,11.439-8.542
		c2.515,0.17,4.771,1.067,6.526,2.424l2.416-35.917l-0.002,0c0,0,0.009-0.113,0.021-0.305l0.717-10.646l0.016,0.006
		c0.25-3.678,0.467-6.939,0.472-7.251C40.04,16.004,68.503,29.167,52.083,56.556z"/>
</g>
</svg>
