<?xml version="1.0" encoding="utf-8"?>
<!-- Generator: Adobe Illustrator 17.0.0, SVG Export Plug-In . SVG Version: 6.00 Build 0)  -->
<!DOCTYPE svg PUBLIC "-//W3C//DTD SVG 1.1//EN" "http://www.w3.org/Graphics/SVG/1.1/DTD/svg11.dtd">
<svg version="1.1" id="Layer_1" xmlns="http://www.w3.org/2000/svg" xmlns:xlink="http://www.w3.org/1999/xlink" x="0px" y="0px"
	 width="143.894px" height="125.239px" viewBox="0 0 143.894 125.239" enable-background="new 0 0 143.894 125.239"
	 xml:space="preserve">
<g>
	<path fill="#CCCCCC" d="M92.609,0.157c0.512-0.136,0.832-0.239-0.025-0.056c-0.007-0.015-0.015-0.031-0.015-0.031
		c-0.196,0.063-0.4,0.123-0.6,0.185c-0.058,0.018-0.122,0.037-0.166,0.051C76.6,4.988,53.936,6.31,0,34.964
		c12.06,7.868,30.725,81.508,30.725,81.508l5.555-5.332c1.29,5.038,2.037,8.136,2.037,8.136l8.65-7.971l-3.202,2.95
		c1.29,5.037,2.862,10.983,2.862,10.983l39.142-36.067c0,0,35.612-4.463,58.125-4.617C121.713,62.478,93.75,2.609,92.609,0.157z"/>
	<path fill="#B2B2B2" d="M92.205,0.183l-23.08,79.434l-38.4,36.855L15.059,64.32c0,0-9.291-24.589-15.059-29.356
		C12.42,28.564,62.178,5.503,92.205,0.183z"/>
	<path fill="#333333" d="M92.609,0.157c0.512-0.136,0.832-0.239-0.025-0.056c-0.007-0.015-0.015-0.031-0.015-0.031
		c-0.196,0.063-0.4,0.123-0.6,0.185c-0.058,0.018-0.122,0.037-0.166,0.051c-0.035,0.011-0.072,0.021-0.108,0.032
		c2.224,3.617,3.638,7.762,3.994,12.167c2.008,3.397,3.305,7.239,3.703,11.313c2.182,2.881,3.816,6.187,4.752,9.751
		c2.351,3.105,4.055,6.707,4.938,10.593c2.729,1.593,4.059,4.68,3.996,7.736c0.252,0.496,0.441,1.022,0.6,1.559
		c2.696,1.054,4.193,3.55,4.503,6.21c1.833,1.604,2.679,4.096,2.548,6.524c2.699,0.839,4.059,3.372,4.088,5.925
		c0.057-0.003,0.105-0.017,0.164-0.017c4.316,0,4.316,6.693,0,6.693c-1.256,0-2.136-0.575-2.66-1.379
		c-0.935,0.668-2.129,1.079-3.59,1.079c-1.414,0-2.569-0.393-3.49-1.023c-0.719,0.855-1.803,1.432-3.26,1.432
		c-1.267,0-2.244-0.438-2.947-1.113c-1.154,1.253-2.835,2.082-5.053,2.082c-0.486,0-0.943-0.045-1.378-0.12
		c-0.112,0.03-0.224,0.063-0.34,0.083c-0.755,0.133-1.515,0.28-2.282,0.287c-1.233,0.012-2.393-0.325-3.414-0.896
		c-1.115,0.72-2.432,1.146-3.836,1.146h-0.25c-0.688,0-1.352-0.112-1.985-0.301c-0.642,0.193-1.317,0.301-2.015,0.301h-2
		c-0.514,0-1.017-0.059-1.502-0.166c-0.484,0.107-0.985,0.166-1.498,0.166h-1.25c-0.76,0-1.489-0.135-2.18-0.363
		c-1.125,0.986-2.643,1.613-4.57,1.613c-1.262,0-2.344-0.273-3.262-0.734c-0.801,2.02-2.252,3.752-4.353,4.737
		c-0.481,3.688-2.832,7.081-7.06,7.921c-1.326,2.953-4.102,5.201-8.326,5.201c-0.365,0-0.719-0.018-1.063-0.05
		c-0.365,4.026-2.945,7.803-7.732,8.444c-0.533,2.33-1.856,4.438-3.946,5.742c-0.314,1.546-0.966,3.009-1.957,4.219
		c0.347,1.399,0.534,2.175,0.534,2.175l5.448-5.021c1.29,5.037,2.862,10.983,2.862,10.983l39.142-36.067
		c0,0,35.612-4.463,58.125-4.617C121.713,62.478,93.75,2.609,92.609,0.157z"/>
	<path fill="#666666" d="M92.205,0.183C95.199-0.48,89.707,0.929,92.205,0.183c0,0,21.482,57.861,44.128,80.399
		c-22.513,0.155-58.874,2.627-58.874,2.627l-39.143,36.066c0,0-0.747-3.098-2.037-8.136l32.846-31.523l58.809-3.823
		C127.934,75.793,103.18,47.669,92.205,0.183z"/>
	<g>
		<path fill="#333333" d="M87.032,9.359c0,0,4.958,35.287,13.478,44.914c-10.029,4.174-22.854,5.365-22.854,5.365L61.6,17.041
			L87.032,9.359z"/>
		<path fill="#666666" d="M89.73,38.835c-13.111,0-24.291-9.699-26.666-22.203c-0.484,0.135-0.968,0.268-1.465,0.409l19.686,52.224
			c10.084-0.692,21.088-1.336,29.951-1.578c-9.044-8.642-14.656-19.299-18.15-29.074C91.984,38.754,90.865,38.835,89.73,38.835z"/>
		<g>
			<path fill="#333333" d="M70.977,74.419c-0.404,0-0.785-0.247-0.936-0.648l-19.753-52.4c-0.194-0.517,0.065-1.093,0.583-1.288
				c0.516-0.196,1.094,0.066,1.288,0.583l19.753,52.4c0.194,0.518-0.066,1.094-0.584,1.289
				C71.213,74.398,71.094,74.419,70.977,74.419z"/>
		</g>
		<g>
			<path fill="#333333" d="M60.684,78.299c-0.404,0-0.785-0.247-0.936-0.647L39.995,25.25c-0.194-0.517,0.066-1.093,0.583-1.288
				c0.516-0.195,1.094,0.066,1.288,0.583l19.753,52.401c0.194,0.516-0.066,1.093-0.584,1.287
				C60.92,78.279,60.801,78.299,60.684,78.299z"/>
		</g>
		<g>
			<path fill="#333333" d="M52.262,81.474c-0.404,0-0.785-0.247-0.936-0.648l-19.753-52.4c-0.194-0.517,0.065-1.093,0.583-1.288
				c0.516-0.195,1.094,0.066,1.288,0.583l19.753,52.4c0.194,0.518-0.066,1.094-0.584,1.289
				C52.498,81.453,52.379,81.474,52.262,81.474z"/>
		</g>
		<g>
			<path fill="#333333" d="M38.656,65.228c-0.404,0-0.784-0.246-0.936-0.647L25.024,30.894c-0.195-0.517,0.066-1.093,0.583-1.288
				c0.515-0.196,1.094,0.066,1.288,0.583l12.697,33.687c0.195,0.517-0.065,1.093-0.582,1.288
				C38.893,65.207,38.773,65.228,38.656,65.228z"/>
		</g>
		<g>
			<path fill="#333333" d="M31.171,68.05c-0.404,0-0.784-0.247-0.936-0.648L17.537,33.715c-0.194-0.516,0.066-1.093,0.584-1.288
				c0.516-0.195,1.093,0.066,1.287,0.583l12.698,33.686c0.194,0.518-0.065,1.094-0.583,1.289
				C31.408,68.029,31.288,68.05,31.171,68.05z"/>
		</g>
		<polygon fill="#333333" points="39.931,71.229 45.502,83.48 34.48,95.947 27.443,76.697 		"/>
		<path fill="#666666" d="M31.703,75.399l-4.26,1.605l7.35,19.499L45.502,83.48l-0.275-0.725
			C40.044,81.653,35.369,79.034,31.703,75.399z"/>
	</g>
</g>
</svg>
