<svg xmlns="http://www.w3.org/2000/svg" version="1.1" x="0" y="0" width="113.7" height="170.5" viewBox="0 0 113.7 170.5" enable-background="new 0 0 113.714 170.522" xml:space="preserve"><path fill="#61274B" d="M0 0L0 170.5h113.7V0H0zM16.9 157.4c-2.3 0-4.1-1.8-4.1-4.1 0-2.3 1.8-4.1 4.1-4.1s4.1 1.8 4.1 4.1C21 155.5 19.2 157.4 16.9 157.4zM16.9 21.4c-2.3 0-4.1-1.8-4.1-4.1 0-2.3 1.8-4.1 4.1-4.1 2.3 0 4.1 1.8 4.1 4.1C21 19.5 19.2 21.4 16.9 21.4zM56.9 146.6c-21.6 0-39.2-17.5-39.2-39.2 0-15.8 9.3-29.3 22.7-35.6 -5.3-4.6-8.6-11.3-8.6-18.9 0-13.8 11.2-25 25-25 13.8 0 25.1 11.2 25.1 25 0 7.5-3.3 14.3-8.6 18.9 13.4 6.2 22.7 19.8 22.7 35.6C96 129 78.5 146.6 56.9 146.6zM96.8 157.4c-2.3 0-4.1-1.8-4.1-4.1 0-2.3 1.8-4.1 4.1-4.1 2.3 0 4.1 1.8 4.1 4.1C101 155.5 99.1 157.4 96.8 157.4zM96.8 21.4c-2.3 0-4.1-1.8-4.1-4.1 0-2.3 1.8-4.1 4.1-4.1 2.3 0 4.1 1.8 4.1 4.1C101 19.5 99.1 21.4 96.8 21.4z"/><path fill="#F27751" d="M81.6 123.7l-8.4 8.4C76.5 129.9 79.4 127.1 81.6 123.7zM50.4 78.4l-22.5 22.5c-0.2 1.1-0.4 2.3-0.6 3.4l26.5-26.5C52.7 78 51.6 78.2 50.4 78.4zM44.7 80.3l-14.9 14.9c-0.6 1.4-1.2 2.9-1.6 4.5l21-21C47.6 79.1 46.1 79.7 44.7 80.3zM30.7 93.4l12.2-12.2C37.7 84 33.5 88.2 30.7 93.4zM59.5 102.8l17.4-17.4c-0.5-0.5-1-0.9-1.6-1.3l-18 18C58.1 102.2 58.8 102.5 59.5 102.8zM56.4 102.1l18.4-18.4c-0.5-0.4-1.1-0.8-1.7-1.2L32 123.6c0.4 0.6 0.8 1.1 1.2 1.7l18.4-18.4C51.8 104.4 53.8 102.4 56.4 102.1zM61.4 104.7l17.4-17.4c-0.5-0.5-0.9-1-1.4-1.5l-17.3 17.3C60.6 103.6 61.1 104.2 61.4 104.7zM68.1 79.9l-38.7 38.7c0.3 0.7 0.6 1.3 0.9 2l39.8-39.8C69.4 80.5 68.7 80.2 68.1 79.9zM65.2 78.9l-36.8 36.8c0.2 0.7 0.5 1.5 0.7 2.2l38.3-38.3C66.7 79.4 66 79.1 65.2 78.9zM70.7 81.1l-40.1 40.1c0.3 0.6 0.7 1.2 1.1 1.8l40.8-40.8C71.9 81.8 71.3 81.5 70.7 81.1zM62.1 107.4c0 0.2 0 0.3 0 0.5l18.4-18.4c-0.4-0.5-0.8-1.1-1.3-1.6l-17.5 17.5C62 106 62.1 106.7 62.1 107.4zM58.7 77.8l-31.5 31.5c0.1 0.9 0.1 1.8 0.3 2.6l33.8-33.8C60.5 77.9 59.6 77.8 58.7 77.8zM56.9 77.7c-0.7 0-1.3 0-2 0.1L27.3 105.4c0 0.7-0.1 1.3-0.1 2 0 0.3 0 0.6 0 1l30.6-30.6C57.5 77.7 57.2 77.7 56.9 77.7zM62.1 78.2l-34.5 34.5c0.1 0.8 0.3 1.6 0.5 2.4l36.3-36.3C63.7 78.5 62.9 78.3 62.1 78.2zM85.7 100.5l-35.7 35.7c0.8 0.2 1.6 0.3 2.4 0.5l33.8-33.8C86.1 102.1 85.9 101.3 85.7 100.5zM84.8 97.6L47 135.4c0.7 0.3 1.5 0.5 2.2 0.7l36.3-36.3C85.3 99 85.1 98.3 84.8 97.6zM87.1 107.4c0 0 0 0 0 0l-30.2 29.3c0 0 0 0 0 0 1 0 2 0.1 3 0l26.8-26.4C86.8 109.3 87.1 108.4 87.1 107.4zM83.7 94.8l-39.4 39.4c0.7 0.3 1.3 0.6 2 0.9l38.3-38.3C84.3 96.2 84 95.5 83.7 94.8zM85.1 116.4l-19.3 19.3c1.7-0.6 3.4-1.3 5-2.1l12.1-12.1C83.9 119.8 84.6 118.1 85.1 116.4zM86.2 111.5l-25.3 25.3c1.2-0.2 2.4-0.4 3.6-0.7l21-21C85.8 113.9 86.1 112.7 86.2 111.5zM86.3 103.8l-33.1 33.1c0.9 0.1 1.8 0.2 2.7 0.2l30.6-30.6C86.5 105.5 86.4 104.6 86.3 103.8zM56.9 112.7c-0.7 0-1.4-0.1-2-0.4l-17.5 17.5c0.5 0.5 1 0.9 1.6 1.3l18.4-18.4C57.2 112.7 57 112.7 56.9 112.7zM52.7 110.6l-17.3 17.3c0.5 0.5 1 1 1.5 1.4l17.4-17.4C53.6 111.6 53.1 111.1 52.7 110.6zM51.6 107.8L33.6 125.8c0.4 0.5 0.9 1.1 1.3 1.6l17.4-17.4C51.9 109.4 51.7 108.6 51.6 107.8zM82.4 92.3L41.8 133c0.6 0.4 1.2 0.7 1.9 1l39.8-39.8C83.1 93.6 82.8 92.9 82.4 92.3zM80.9 90l-19.1 19.1c-0.5 1.6-1.8 2.8-3.3 3.3l-19.1 19.1c0.6 0.4 1.1 0.8 1.7 1.2l40.8-40.8C81.7 91.2 81.3 90.6 80.9 90z"/><path fill="#E9D234" d="M53.1 56.6L44.8 64.9c0.5 0.5 1 0.9 1.5 1.4l8.4-8.4C54.2 57.5 53.6 57.1 53.1 56.6zM72 45.4L49.3 68.1c0.7 0.3 1.3 0.6 2 0.9l21.6-21.6C72.6 46.7 72.3 46 72 45.4zM51.6 53c0-2.9 2.4-5.3 5.3-5.3 0.1 0 0.3 0 0.4 0l8.9-8.9c-0.6-0.4-1.2-0.7-1.8-1.1L41.6 60.4c0.3 0.6 0.7 1.2 1.1 1.8l8.9-8.9C51.6 53.2 51.6 53.1 51.6 53zM73.1 48.1L52 69.2c0.8 0.2 1.6 0.4 2.4 0.5l19.2-19.2C73.5 49.7 73.3 48.9 73.1 48.1zM71.9 60.8l-7.2 7.2C67.8 66.4 70.3 63.9 71.9 60.8zM58.4 36.1L40 54.5c0.1 0.8 0.2 1.7 0.4 2.5l20.5-20.5C60 36.3 59.2 36.1 58.4 36.1zM56.9 58.2c-0.5 0-0.9-0.1-1.3-0.2l-8.6 8.6c0.6 0.4 1.1 0.8 1.8 1.1l9.8-9.8C58 58.1 57.4 58.2 56.9 58.2zM51.7 54.2l-8.6 8.6c0.4 0.6 0.8 1.1 1.3 1.6l8.3-8.3C52.2 55.6 51.9 54.9 51.7 54.2zM63 68.8l9.7-9.7c0.5-1.2 0.8-2.5 1-3.9L59.1 69.7C60.5 69.6 61.8 69.2 63 68.8zM56.9 69.9c0.4 0 0.8 0 1.2 0L73.8 54.2c0-0.4 0-0.8 0-1.2 0-0.6 0-1.1-0.1-1.6L55.2 69.8C55.8 69.9 56.3 69.9 56.9 69.9zM44.6 41.3l0.6-0.6C45 40.9 44.8 41.1 44.6 41.3zM62.1 53c0 0.6-0.1 1.1-0.3 1.6l9.8-9.8c-0.3-0.6-0.7-1.2-1.1-1.8l-8.6 8.6C62.1 52 62.1 52.5 62.1 53zM61.7 50.9l8.4-8.4c-0.4-0.5-0.9-1-1.4-1.5l-8.3 8.3C61 49.7 61.4 50.3 61.7 50.9zM60 48.8l8.3-8.3c-0.5-0.5-1-0.9-1.6-1.3l-8.6 8.6C58.8 48 59.5 48.3 60 48.8zM56.9 36c-0.8 0-1.6 0.1-2.4 0.2L40.1 50.5c-0.1 0.8-0.2 1.6-0.2 2.4 0 0.2 0 0.4 0 0.6l17.6-17.6C57.3 36 57.1 36 56.9 36zM48.7 38.1l-6.7 6.7c-0.8 1.4-1.4 3-1.7 4.6l13-13C51.7 36.7 50.1 37.3 48.7 38.1zM61.6 36.7L40.6 57.7c0.2 0.7 0.5 1.4 0.8 2.1l22.4-22.4C63 37.1 62.3 36.9 61.6 36.7z"/></svg>