<?xml version="1.0" encoding="utf-8"?>
<!-- Generator: Adobe Illustrator 17.0.0, SVG Export Plug-In . SVG Version: 6.00 Build 0)  -->
<!DOCTYPE svg PUBLIC "-//W3C//DTD SVG 1.1//EN" "http://www.w3.org/Graphics/SVG/1.1/DTD/svg11.dtd">
<svg version="1.1" id="Layer_1" xmlns="http://www.w3.org/2000/svg" xmlns:xlink="http://www.w3.org/1999/xlink" x="0px" y="0px"
	 width="113.714px" height="170.522px" viewBox="0 0 113.714 170.522" enable-background="new 0 0 113.714 170.522"
	 xml:space="preserve">
<g display="none">
	<g display="inline">
		<path fill="#FFFFFF" d="M-2.804-63.175l-0.001,170.522h113.714V-63.175H-2.804z M14.076,94.213c-2.276,0-4.12-1.845-4.12-4.121
			c0-2.276,1.844-4.121,4.12-4.121s4.122,1.845,4.122,4.121C18.198,92.369,16.353,94.213,14.076,94.213z M14.077-41.8
			c-2.275,0-4.121-1.845-4.121-4.121c0-2.276,1.846-4.121,4.121-4.121c2.275,0,4.121,1.844,4.121,4.121
			C18.198-43.645,16.353-41.8,14.077-41.8z M54.052,83.39c-21.635,0-39.174-17.539-39.174-39.173
			c0-15.759,9.308-29.343,22.723-35.56c-5.266-4.592-8.598-11.345-8.598-18.881c0-13.834,11.215-25.049,25.049-25.048
			c13.835,0,25.05,11.214,25.05,25.048c0,7.536-3.333,14.289-8.599,18.881c13.416,6.217,22.725,19.801,22.725,35.56
			C93.227,65.851,75.688,83.39,54.052,83.39z M94.026,94.213c-2.275,0-4.119-1.845-4.119-4.121c0-2.276,1.844-4.121,4.119-4.121
			c2.277,0,4.123,1.845,4.123,4.121C98.149,92.369,96.304,94.213,94.026,94.213z M94.026-41.8c-2.275,0-4.119-1.845-4.119-4.121
			c0-2.276,1.844-4.121,4.12-4.121c2.276,0,4.122,1.844,4.122,4.121C98.149-43.645,96.304-41.8,94.026-41.8z"/>
	</g>
	<g display="inline">
		<path fill="#D0EFEC" d="M93.177,46.208C92.14,66.917,75.02,83.39,54.052,83.39c-21.635,0-39.174-17.539-39.174-39.173
			c0-15.759,9.308-29.343,22.723-35.56C33.075,4.709,29.984-0.835,29.203-7.1C15.936-23.486,5.169-41.704-2.804-61.079
			l-0.001,168.425h113.714V54.892C104.872,52.268,98.956,49.37,93.177,46.208z M14.076,94.213c-2.276,0-4.12-1.845-4.12-4.121
			c0-2.276,1.844-4.121,4.12-4.121s4.122,1.845,4.122,4.121C18.198,92.369,16.353,94.213,14.076,94.213z M94.026,94.213
			c-2.275,0-4.119-1.845-4.119-4.121c0-2.276,1.844-4.121,4.119-4.121c2.277,0,4.123,1.845,4.123,4.121
			C98.149,92.369,96.304,94.213,94.026,94.213z"/>
	</g>
	<g display="inline">
		
			<path fill="none" stroke="#00C7C4" stroke-width="4.4411" stroke-linecap="round" stroke-linejoin="round" stroke-miterlimit="10" d="
			M-2.804-63.175l-0.001,170.522h113.714V-63.175H-2.804z M14.076,94.213c-2.276,0-4.12-1.845-4.12-4.121
			c0-2.276,1.844-4.121,4.12-4.121s4.122,1.845,4.122,4.121C18.198,92.369,16.353,94.213,14.076,94.213z M14.077-41.8
			c-2.275,0-4.121-1.845-4.121-4.121c0-2.276,1.846-4.121,4.121-4.121c2.275,0,4.121,1.844,4.121,4.121
			C18.198-43.645,16.353-41.8,14.077-41.8z M54.052,83.39c-21.635,0-39.174-17.539-39.174-39.173
			c0-15.759,9.308-29.343,22.723-35.56c-5.266-4.592-8.598-11.345-8.598-18.881c0-13.834,11.215-25.049,25.049-25.048
			c13.835,0,25.05,11.214,25.05,25.048c0,7.536-3.333,14.289-8.599,18.881c13.416,6.217,22.725,19.801,22.725,35.56
			C93.227,65.851,75.688,83.39,54.052,83.39z M94.026,94.213c-2.275,0-4.119-1.845-4.119-4.121c0-2.276,1.844-4.121,4.119-4.121
			c2.277,0,4.123,1.845,4.123,4.121C98.149,92.369,96.304,94.213,94.026,94.213z M94.026-41.8c-2.275,0-4.119-1.845-4.119-4.121
			c0-2.276,1.844-4.121,4.12-4.121c2.276,0,4.122,1.844,4.122,4.121C98.149-43.645,96.304-41.8,94.026-41.8z"/>
	</g>
	<g display="inline">
		<path fill="#00C7C4" d="M78.81,60.555l-8.42,8.419C73.732,66.765,76.601,63.896,78.81,60.555z"/>
		<path fill="#00C7C4" d="M47.622,15.255L25.091,37.787c-0.248,1.123-0.434,2.269-0.551,3.436l26.518-26.519
			C49.892,14.821,48.745,15.007,47.622,15.255z"/>
		<path fill="#00C7C4" d="M41.905,17.149l-14.922,14.92c-0.645,1.435-1.178,2.931-1.59,4.476L46.38,15.558
			C44.835,15.971,43.341,16.503,41.905,17.149z"/>
		<path fill="#00C7C4" d="M27.896,30.218l12.157-12.157C34.901,20.824,30.659,25.065,27.896,30.218z"/>
		<path fill="#00C7C4" d="M56.698,39.659l17.351-17.351c-0.503-0.46-1.023-0.902-1.559-1.327L54.507,38.965
			C55.302,39.033,56.044,39.278,56.698,39.659z"/>
		<path fill="#00C7C4" d="M53.565,38.967l18.396-18.396c-0.55-0.417-1.113-0.814-1.692-1.193L29.216,60.434
			c0.377,0.578,0.775,1.142,1.191,1.691l18.396-18.396C49.034,41.206,51.042,39.198,53.565,38.967z"/>
		<path fill="#00C7C4" d="M58.61,41.572l17.351-17.351c-0.458-0.502-0.935-0.989-1.426-1.459L57.261,40.037
			C57.804,40.455,58.264,40.976,58.61,41.572z"/>
		<path fill="#00C7C4" d="M65.255,16.745L26.581,55.418c0.275,0.675,0.575,1.338,0.898,1.987l39.762-39.763
			C66.593,17.32,65.93,17.021,65.255,16.745z"/>
		<path fill="#00C7C4" d="M62.422,15.753L25.591,52.586c0.214,0.731,0.456,1.452,0.725,2.159l38.266-38.265
			C63.874,16.211,63.153,15.968,62.422,15.753z"/>
		<path fill="#00C7C4" d="M67.862,17.962L27.798,58.027c0.328,0.625,0.68,1.236,1.051,1.833l40.848-40.848
			C69.099,18.641,68.487,18.291,67.862,17.962z"/>
		<path fill="#00C7C4" d="M59.325,44.216c0,0.165-0.01,0.328-0.024,0.489l18.398-18.398c-0.413-0.545-0.845-1.076-1.295-1.591
			l-17.479,17.48C59.182,42.82,59.325,43.501,59.325,44.216z"/>
		<path fill="#00C7C4" d="M55.913,14.614L24.45,46.077c0.055,0.881,0.145,1.752,0.275,2.609l33.797-33.797
			C57.664,14.76,56.794,14.668,55.913,14.614z"/>
		<path fill="#00C7C4" d="M54.052,14.554c-0.662,0-1.319,0.024-1.971,0.067L24.457,42.245c-0.043,0.652-0.067,1.309-0.067,1.972
			c0,0.323,0.008,0.643,0.018,0.963l30.609-30.608C54.696,14.561,54.374,14.554,54.052,14.554z"/>
		<path fill="#00C7C4" d="M59.329,15.023l-34.471,34.47c0.143,0.798,0.32,1.585,0.525,2.359l36.304-36.304
			C60.913,15.343,60.126,15.166,59.329,15.023z"/>
		<path fill="#00C7C4" d="M82.909,37.333l-35.74,35.74c0.794,0.188,1.6,0.346,2.416,0.47L83.38,39.749
			C83.256,38.932,83.099,38.127,82.909,37.333z"/>
		<path fill="#00C7C4" d="M82.041,34.377L44.214,72.205c0.723,0.254,1.458,0.482,2.205,0.68l36.302-36.301
			C82.522,35.836,82.295,35.101,82.041,34.377z"/>
		<path fill="#00C7C4" d="M84.089,44.217c0-0.013,0-0.026,0-0.039l-30.016,29.49c0.014,0-0.004,0,0.01,0
			c1.01,0,1.995,0.054,2.98-0.045l26.695-26.463C83.858,46.175,84.089,45.228,84.089,44.217z"/>
		<path fill="#00C7C4" d="M80.933,31.662L41.499,71.096c0.662,0.31,1.338,0.596,2.027,0.857L81.79,33.689
			C81.528,33.001,81.242,32.325,80.933,31.662z"/>
		<path fill="#00C7C4" d="M82.321,53.219L63.054,72.486c1.743-0.555,3.416-1.266,5.002-2.117L80.205,58.22
			C81.057,56.634,81.767,54.961,82.321,53.219z"/>
		<path fill="#00C7C4" d="M83.437,48.28L58.116,73.6c1.229-0.169,2.436-0.412,3.611-0.726L82.71,51.892
			C83.024,50.715,83.267,49.509,83.437,48.28z"/>
		<path fill="#00C7C4" d="M83.491,40.576l-33.08,33.08c0.883,0.107,1.776,0.177,2.68,0.205l30.606-30.605
			C83.669,42.351,83.6,41.458,83.491,40.576z"/>
		<path fill="#00C7C4" d="M54.052,49.489c-0.715,0-1.396-0.144-2.018-0.402l-17.48,17.48c0.515,0.45,1.045,0.881,1.591,1.295
			l18.397-18.397C54.38,49.48,54.218,49.489,54.052,49.489z"/>
		<path fill="#00C7C4" d="M49.874,47.424L32.599,64.699c0.469,0.492,0.956,0.967,1.458,1.426l17.351-17.351
			C50.812,48.427,50.291,47.968,49.874,47.424z"/>
		<path fill="#00C7C4" d="M48.802,44.671L30.817,62.655c0.426,0.534,0.867,1.055,1.328,1.558l17.35-17.351
			C49.114,46.208,48.87,45.465,48.802,44.671z"/>
		<path fill="#00C7C4" d="M79.611,29.159L38.995,69.775c0.609,0.36,1.232,0.699,1.869,1.016l39.762-39.762
			C80.31,30.392,79.972,29.768,79.611,29.159z"/>
		<path fill="#00C7C4" d="M78.099,26.848L59.046,45.9c-0.524,1.557-1.754,2.786-3.31,3.311L36.685,68.262
			c0.561,0.406,1.137,0.792,1.726,1.159l40.847-40.847C78.89,27.984,78.504,27.409,78.099,26.848z"/>
		<path fill="#00C7C4" d="M50.289-6.533l-8.258,8.258c0.481,0.483,0.992,0.934,1.527,1.357l8.446-8.446
			C51.356-5.637,50.774-6.038,50.289-6.533z"/>
		<path fill="#00C7C4" d="M69.211-17.807L46.47,4.935c0.654,0.328,1.331,0.614,2.029,0.856l21.568-21.567
			C69.825-16.476,69.539-17.153,69.211-17.807z"/>
		<path fill="#00C7C4" d="M70.296-15.067L49.21,6.02c0.766,0.228,1.554,0.405,2.36,0.523l19.249-19.25
			C70.702-13.513,70.524-14.301,70.296-15.067z"/>
		<path fill="#00C7C4" d="M69.071-2.37l-7.166,7.166C64.964,3.194,67.47,0.687,69.071-2.37z"/>
		<path fill="#00C7C4" d="M54.052-4.951c-0.464,0-0.912-0.066-1.342-0.179l-8.617,8.618c0.562,0.409,1.148,0.785,1.76,1.124
			l9.819-9.818C55.161-5.042,54.618-4.951,54.052-4.951z"/>
		<path fill="#00C7C4" d="M48.929-8.997L40.28-0.348c0.399,0.556,0.83,1.089,1.293,1.592l8.283-8.283
			C49.421-7.612,49.101-8.275,48.929-8.997z"/>
		<path fill="#00C7C4" d="M60.186,5.577l9.668-9.668c0.478-1.23,0.815-2.53,0.995-3.88L56.306,6.572
			C57.655,6.393,58.955,6.055,60.186,5.577z"/>
		<path fill="#00C7C4" d="M54.052,6.726c0.406,0,0.809-0.019,1.209-0.048L70.955-9.016c0.028-0.399,0.047-0.802,0.047-1.208
			c0-0.555-0.028-1.103-0.081-1.644L52.408,6.645C52.949,6.697,53.497,6.726,54.052,6.726z"/>
	</g>
</g>
<g>
	<g>
		<path fill="#61274B" d="M0.001,0L0,170.522h113.714V0H0.001z M16.881,157.389c-2.276,0-4.12-1.845-4.12-4.121
			c0-2.276,1.844-4.121,4.12-4.121s4.122,1.845,4.122,4.121C21.003,155.544,19.157,157.389,16.881,157.389z M16.882,21.375
			c-2.275,0-4.121-1.845-4.121-4.121c0-2.276,1.846-4.121,4.121-4.121c2.275,0,4.121,1.844,4.121,4.121
			C21.003,19.53,19.157,21.375,16.882,21.375z M56.856,146.565c-21.635,0-39.174-17.539-39.174-39.173
			c0-15.759,9.308-29.343,22.723-35.56c-5.266-4.592-8.598-11.345-8.598-18.881c0-13.834,11.215-25.049,25.049-25.048
			c13.835,0,25.05,11.214,25.05,25.048c0,7.536-3.333,14.289-8.599,18.881c13.416,6.217,22.725,19.801,22.725,35.56
			C96.031,129.026,78.492,146.565,56.856,146.565z M96.831,157.389c-2.275,0-4.119-1.845-4.119-4.121
			c0-2.276,1.844-4.121,4.119-4.121c2.277,0,4.123,1.845,4.123,4.121C100.954,155.544,99.108,157.389,96.831,157.389z
			 M96.831,21.375c-2.275,0-4.119-1.845-4.119-4.121c0-2.276,1.844-4.121,4.12-4.121c2.276,0,4.122,1.844,4.122,4.121
			C100.954,19.53,99.108,21.375,96.831,21.375z"/>
	</g>
	<g>
		<path fill="#F27751" d="M81.614,123.73l-8.42,8.419C76.537,129.94,79.405,127.072,81.614,123.73z"/>
		<path fill="#F27751" d="M50.427,78.431l-22.531,22.531c-0.248,1.124-0.434,2.27-0.551,3.436l26.518-26.519
			C52.696,77.996,51.55,78.182,50.427,78.431z"/>
		<path fill="#F27751" d="M44.71,80.324l-14.922,14.92c-0.645,1.435-1.178,2.931-1.59,4.476l20.986-20.987
			C47.64,79.146,46.145,79.679,44.71,80.324z"/>
		<path fill="#F27751" d="M30.701,93.393l12.157-12.157C37.706,83.999,33.464,88.24,30.701,93.393z"/>
		<path fill="#F27751" d="M59.503,102.834l17.351-17.351c-0.503-0.46-1.023-0.902-1.559-1.327l-17.983,17.984
			C58.106,102.208,58.849,102.454,59.503,102.834z"/>
		<path fill="#F27751" d="M56.37,102.142l18.396-18.396c-0.55-0.417-1.113-0.814-1.692-1.193L32.02,123.609
			c0.378,0.578,0.776,1.142,1.192,1.691l18.396-18.396C51.839,104.381,53.847,102.373,56.37,102.142z"/>
		<path fill="#F27751" d="M61.415,104.747l17.351-17.351c-0.458-0.502-0.935-0.989-1.426-1.459l-17.274,17.275
			C60.608,103.63,61.068,104.151,61.415,104.747z"/>
		<path fill="#F27751" d="M68.06,79.92l-38.674,38.674c0.275,0.675,0.575,1.338,0.898,1.987l39.762-39.763
			C69.397,80.495,68.734,80.196,68.06,79.92z"/>
		<path fill="#F27751" d="M65.227,78.929l-36.832,36.832c0.215,0.731,0.457,1.452,0.726,2.159l38.266-38.265
			C66.679,79.386,65.958,79.144,65.227,78.929z"/>
		<path fill="#F27751" d="M70.667,81.137l-40.064,40.065c0.328,0.625,0.68,1.236,1.051,1.833l40.848-40.848
			C71.903,81.816,71.292,81.466,70.667,81.137z"/>
		<path fill="#F27751" d="M62.13,107.392c0,0.165-0.01,0.328-0.024,0.489l18.398-18.397c-0.413-0.545-0.845-1.076-1.295-1.591
			l-17.479,17.48C61.986,105.995,62.13,106.676,62.13,107.392z"/>
		<path fill="#F27751" d="M58.718,77.79l-31.463,31.462c0.055,0.881,0.145,1.752,0.275,2.609l33.797-33.797
			C60.469,77.935,59.599,77.844,58.718,77.79z"/>
		<path fill="#F27751" d="M56.856,77.729c-0.662,0-1.319,0.024-1.971,0.067L27.262,105.42c-0.043,0.652-0.067,1.31-0.067,1.972
			c0,0.323,0.008,0.643,0.018,0.963l30.609-30.608C57.501,77.736,57.179,77.729,56.856,77.729z"/>
		<path fill="#F27751" d="M62.134,78.198l-34.471,34.47c0.143,0.798,0.32,1.585,0.525,2.359l36.304-36.304
			C63.718,78.518,62.931,78.341,62.134,78.198z"/>
		<path fill="#F27751" d="M85.714,100.509l-35.74,35.74c0.794,0.188,1.6,0.346,2.416,0.47l33.795-33.794
			C86.061,102.107,85.903,101.302,85.714,100.509z"/>
		<path fill="#F27751" d="M84.846,97.553L47.019,135.38c0.723,0.254,1.458,0.482,2.205,0.68l36.302-36.301
			C85.327,99.011,85.1,98.276,84.846,97.553z"/>
		<path fill="#F27751" d="M87.089,107.392c0-0.013,0-0.026,0-0.038l-30.211,29.315c0.014,0-0.004,0,0.01,0
			c1.01,0,1.995,0.141,2.98,0.043l26.793-26.419C86.761,109.307,87.089,108.403,87.089,107.392z"/>
		<path fill="#F27751" d="M83.737,94.837l-39.434,39.434c0.662,0.31,1.338,0.596,2.027,0.857l38.264-38.264
			C84.333,96.177,84.047,95.5,83.737,94.837z"/>
		<path fill="#F27751" d="M85.126,116.394l-19.268,19.267c1.743-0.555,3.416-1.266,5.002-2.117l12.149-12.149
			C83.861,119.809,84.571,118.137,85.126,116.394z"/>
		<path fill="#F27751" d="M86.241,111.456l-25.32,25.319c1.229-0.169,2.436-0.412,3.611-0.726l20.982-20.982
			C85.829,113.89,86.071,112.685,86.241,111.456z"/>
		<path fill="#F27751" d="M86.296,103.751l-33.08,33.08c0.883,0.107,1.776,0.177,2.68,0.205l30.606-30.605
			C86.474,105.526,86.404,104.633,86.296,103.751z"/>
		<path fill="#F27751" d="M56.856,112.665c-0.715,0-1.396-0.144-2.018-0.402l-17.48,17.48c0.515,0.45,1.045,0.881,1.591,1.294
			l18.397-18.397C57.185,112.655,57.022,112.665,56.856,112.665z"/>
		<path fill="#F27751" d="M52.679,110.599l-17.275,17.275c0.469,0.492,0.956,0.967,1.458,1.426l17.351-17.351
			C53.616,111.603,53.096,111.143,52.679,110.599z"/>
		<path fill="#F27751" d="M51.606,107.846L33.622,125.83c0.426,0.534,0.867,1.055,1.328,1.558l17.35-17.351
			C51.919,109.383,51.675,108.641,51.606,107.846z"/>
		<path fill="#F27751" d="M82.416,92.334L41.8,132.95c0.609,0.36,1.232,0.699,1.869,1.016l39.762-39.762
			C83.114,93.567,82.776,92.943,82.416,92.334z"/>
		<path fill="#F27751" d="M80.903,90.023l-19.053,19.052c-0.524,1.557-1.754,2.786-3.31,3.311l-19.051,19.051
			c0.561,0.406,1.137,0.792,1.726,1.159l40.847-40.847C81.694,91.16,81.309,90.584,80.903,90.023z"/>
		<path fill="#E9D234" d="M53.094,56.642L44.836,64.9c0.481,0.483,0.992,0.935,1.527,1.357l8.446-8.446
			C54.161,57.538,53.579,57.137,53.094,56.642z"/>
		<path fill="#E9D234" d="M72.016,45.368L49.274,68.11c0.654,0.328,1.331,0.614,2.029,0.856l21.568-21.567
			C72.63,46.7,72.344,46.022,72.016,45.368z"/>
		<path fill="#E9D234" d="M51.583,52.951c0-2.913,2.361-5.273,5.273-5.273c0.141,0,0.279,0.01,0.418,0.021l8.902-8.904
			c-0.586-0.387-1.198-0.739-1.833-1.052L41.649,60.438c0.313,0.635,0.664,1.247,1.051,1.833l8.904-8.904
			C51.594,53.229,51.583,53.092,51.583,52.951z"/>
		<path fill="#E9D234" d="M73.101,48.108L52.015,69.195c0.766,0.228,1.554,0.405,2.36,0.523l19.249-19.25
			C73.507,49.662,73.329,48.874,73.101,48.108z"/>
		<path fill="#E9D234" d="M71.876,60.805l-7.166,7.166C67.769,66.369,70.274,63.862,71.876,60.805z"/>
		<path fill="#E9D234" d="M58.368,36.071L39.978,54.462c0.074,0.846,0.211,1.673,0.406,2.479l20.463-20.463
			C60.041,36.282,59.214,36.146,58.368,36.071z"/>
		<path fill="#E9D234" d="M56.856,58.225c-0.464,0-0.912-0.066-1.342-0.179l-8.617,8.618c0.562,0.409,1.148,0.785,1.76,1.124
			l9.819-9.818C57.966,58.133,57.423,58.225,56.856,58.225z"/>
		<path fill="#E9D234" d="M51.733,54.178l-8.648,8.649c0.399,0.556,0.83,1.089,1.293,1.592l8.283-8.283
			C52.226,55.563,51.905,54.9,51.733,54.178z"/>
		<path fill="#E9D234" d="M62.99,68.752l9.668-9.668c0.478-1.23,0.815-2.53,0.995-3.88L59.11,69.748
			C60.46,69.568,61.76,69.23,62.99,68.752z"/>
		<path fill="#E9D234" d="M56.856,69.901c0.406,0,0.809-0.02,1.209-0.048L73.76,54.159c0.028-0.399,0.047-0.802,0.047-1.208
			c0-0.555-0.028-1.103-0.081-1.644L55.213,69.82C55.754,69.873,56.302,69.901,56.856,69.901z"/>
		<path fill="#E9D234" d="M44.577,41.273l0.602-0.602C44.974,40.867,44.772,41.068,44.577,41.273z"/>
		<path fill="#E9D234" d="M62.13,52.951c0,0.566-0.091,1.109-0.255,1.62l9.817-9.818c-0.338-0.611-0.715-1.199-1.123-1.761
			l-8.617,8.617C62.064,52.038,62.13,52.486,62.13,52.951z"/>
		<path fill="#E9D234" d="M61.718,50.903l8.445-8.445c-0.422-0.536-0.873-1.047-1.357-1.527l-8.258,8.258
			C61.043,49.673,61.444,50.254,61.718,50.903z"/>
		<path fill="#E9D234" d="M60.042,48.755l8.283-8.283c-0.504-0.462-1.036-0.892-1.593-1.293l-8.648,8.648
			C58.807,48,59.47,48.319,60.042,48.755z"/>
		<path fill="#E9D234" d="M56.856,36c-0.82,0-1.627,0.062-2.418,0.175L40.081,50.533c-0.113,0.79-0.175,1.597-0.175,2.417
			c0,0.211,0.009,0.419,0.016,0.627l17.562-17.561C57.274,36.009,57.067,36,56.856,36z"/>
		<path fill="#E9D234" d="M48.698,38.092l-6.701,6.701c-0.781,1.421-1.363,2.966-1.713,4.598l13.012-13.013
			C51.665,36.727,50.12,37.31,48.698,38.092z"/>
		<path fill="#E9D234" d="M61.588,36.675L40.581,57.682c0.211,0.726,0.468,1.433,0.769,2.115l22.353-22.353
			C63.021,37.143,62.314,36.886,61.588,36.675z"/>
	</g>
</g>
</svg>
