<?xml version="1.0" encoding="utf-8"?>
<!-- Generator: Adobe Illustrator 17.0.0, SVG Export Plug-In . SVG Version: 6.00 Build 0)  -->
<!DOCTYPE svg PUBLIC "-//W3C//DTD SVG 1.1//EN" "http://www.w3.org/Graphics/SVG/1.1/DTD/svg11.dtd">
<svg version="1.1" id="Layer_1" xmlns="http://www.w3.org/2000/svg" xmlns:xlink="http://www.w3.org/1999/xlink" x="0px" y="0px"
	 width="166.695px" height="199.067px" viewBox="0 0 166.695 199.067" enable-background="new 0 0 166.695 199.067"
	 xml:space="preserve">
<g display="none">
	<g display="inline">
		<g>
			<path fill="#FFFFFF" d="M163.695,122.516c0,22.972-18.623,41.594-41.595,41.594H39.29c-22.972,0-41.595-18.622-41.595-41.594
				V90.704c0-22.972,18.623-41.594,41.595-41.594h82.811c22.972,0,41.595,18.622,41.595,41.594V122.516z"/>
			<path fill="#FFFFFF" d="M144.695,128.218c0,12.09-9.801,21.892-21.892,21.892H59.587c-12.091,0-21.892-9.801-21.892-21.892
				V93.002c0-12.09,9.801-21.892,21.892-21.892h63.217c12.091,0,21.892,9.801,21.892,21.892V128.218z"/>
			<circle fill="#FFFFFF" cx="20.072" cy="127.971" r="9.669"/>
			<circle fill="#FFFFFF" cx="20.072" cy="104.985" r="7.48"/>
			<path fill="#FFFFFF" d="M110.492,170.859c-0.009,0.174-0.026,0.345-0.026,0.52v6.568c0,6.045,4.9,10.945,10.945,10.945
				c6.046,0,10.946-4.9,10.946-10.945v-6.568c0-0.175-0.019-0.346-0.026-0.52H110.492z"/>
			<path fill="#FFFFFF" d="M32.776,170.859c-0.009,0.174-0.026,0.345-0.026,0.52v6.568c0,6.045,4.9,10.945,10.945,10.945
				c6.046,0,10.946-4.9,10.946-10.945v-6.568c0-0.175-0.019-0.346-0.026-0.52H32.776z"/>
			<path fill="#FFFFFF" d="M109.535,42.356c-3.32-10.623-13.237-18.334-24.955-18.334c-11.717,0-21.633,7.711-24.954,18.334H109.535
				z"/>
			<line fill="#FFFFFF" x1="104.469" y1="24.022" x2="121.411" y2="7.08"/>
			<line fill="#FFFFFF" x1="62.691" y1="25.022" x2="45.749" y2="8.08"/>
			<circle fill="#FFFFFF" cx="128.948" cy="0.362" r="7.537"/>
			<circle fill="#FFFFFF" cx="39.645" cy="1.362" r="7.536"/>
		</g>
		<path fill="#FFFFFF" d="M170.695,217.353c0,4.836-3.921,8.757-8.757,8.757H-7.548c-4.836,0-8.757-3.921-8.757-8.757v-14.486
			c0-4.836,3.921-8.757,8.757-8.757h169.486c4.836,0,8.757,3.92,8.757,8.757V217.353z"/>
	</g>
	<g display="inline">
		<g>
			<path fill="#D0EFEC" d="M66.81,162.615C38.045,133.85,20.411,95.473,17.072,55.125C5.497,62.511-2.186,75.456-2.186,90.204
				v31.813c0,22.972,18.623,41.594,41.595,41.594H67.83C67.491,163.277,67.146,162.951,66.81,162.615z"/>
			<path fill="none" stroke="#00C7C4" stroke-width="5" stroke-linecap="round" stroke-linejoin="round" stroke-miterlimit="10" d="
				M164.195,122.016c0,22.972-18.623,41.594-41.595,41.594H39.79c-22.972,0-41.595-18.622-41.595-41.594V90.204
				c0-22.972,18.623-41.594,41.595-41.594h82.811c22.972,0,41.595,18.622,41.595,41.594V122.016z"/>
			<circle fill="#FFFFFF" cx="36.645" cy="-2.638" r="7.536"/>
			<path fill="#D0EFEC" d="M56.568,73.11c0-0.617,0.033-1.228,0.048-1.842c-10.869,1.282-19.302,10.521-19.302,21.734v35.217
				c0,12.09,9.801,21.892,21.892,21.892h56.676C82.047,140.9,56.568,109.538,56.568,73.11z"/>
			<path fill="none" stroke="#00C7C4" stroke-width="5" stroke-linecap="round" stroke-linejoin="round" stroke-miterlimit="10" d="
				M145.195,127.718c0,12.09-9.801,21.892-21.892,21.892H60.087c-12.091,0-21.892-9.801-21.892-21.892V92.502
				c0-12.09,9.801-21.892,21.892-21.892h63.217c12.091,0,21.892,9.801,21.892,21.892V127.718z"/>
			
				<circle fill="none" stroke="#00C7C4" stroke-width="4.6775" stroke-linecap="round" stroke-linejoin="round" stroke-miterlimit="10" cx="20.072" cy="127.971" r="9.669"/>
			
				<circle fill="none" stroke="#00C7C4" stroke-width="4.6775" stroke-linecap="round" stroke-linejoin="round" stroke-miterlimit="10" cx="20.072" cy="104.985" r="7.48"/>
			<path fill="#FFFFFF" d="M110.492,170.859c-0.009,0.174-0.026,0.345-0.026,0.52v6.568c0,6.045,4.9,10.945,10.945,10.945
				c6.046,0,10.946-4.9,10.946-10.945v-6.568c0-0.175-0.019-0.346-0.026-0.52H110.492z"/>
			<path fill="#FFFFFF" d="M32.776,170.859c-0.009,0.174-0.026,0.345-0.026,0.52v6.568c0,6.045,4.9,10.945,10.945,10.945
				c6.046,0,10.946-4.9,10.946-10.945v-6.568c0-0.175-0.019-0.346-0.026-0.52H32.776z"/>
			<path fill="#D0EFEC" d="M120.016,170.859h-9.523c-0.009,0.174-0.026,0.345-0.026,0.52v6.568c0,6.045,4.9,10.945,10.945,10.945
				c1.685,0,3.274-0.392,4.7-1.071C122.357,183.12,120.073,177.218,120.016,170.859z"/>
			<path fill="#D0EFEC" d="M40.072,170.859h-7.296c-0.009,0.174-0.026,0.345-0.026,0.52v6.568c0,6.045,4.9,10.945,10.945,10.945
				c1.41,0,2.754-0.276,3.992-0.762C43.331,183.529,40.499,177.481,40.072,170.859z"/>
			
				<path fill="none" stroke="#00C7C4" stroke-width="4.6775" stroke-linecap="round" stroke-linejoin="round" stroke-miterlimit="10" d="
				M110.492,170.859c-0.009,0.174-0.026,0.345-0.026,0.52v6.568c0,6.045,4.9,10.945,10.945,10.945c6.046,0,10.946-4.9,10.946-10.945
				v-6.568c0-0.175-0.019-0.346-0.026-0.52H110.492z"/>
			
				<path fill="none" stroke="#00C7C4" stroke-width="4.6775" stroke-linecap="round" stroke-linejoin="round" stroke-miterlimit="10" d="
				M32.776,170.859c-0.009,0.174-0.026,0.345-0.026,0.52v6.568c0,6.045,4.9,10.945,10.945,10.945c6.046,0,10.946-4.9,10.946-10.945
				v-6.568c0-0.175-0.019-0.346-0.026-0.52H32.776z"/>
			<path fill="#D0EFEC" d="M76.859,25.2c-8.195,2.533-14.676,8.972-17.233,17.156h35.771C88.365,37.636,82.109,31.829,76.859,25.2z"
				/>
			
				<path fill="none" stroke="#00C7C4" stroke-width="4.6775" stroke-linecap="round" stroke-linejoin="round" stroke-miterlimit="10" d="
				M109.535,42.356c-3.32-10.623-13.237-18.334-24.955-18.334c-11.717,0-21.633,7.711-24.954,18.334H109.535z"/>
			
				<line fill="none" stroke="#00C7C4" stroke-width="4.6775" stroke-linecap="round" stroke-linejoin="round" stroke-miterlimit="10" x1="62.691" y1="25.022" x2="45.749" y2="8.08"/>
			<path fill="#D0EFEC" d="M33.587-9.523c-2.637,1.173-4.478,3.812-4.478,6.885c0,4.162,3.374,7.536,7.536,7.536
				c1.935,0,3.693-0.735,5.028-1.934C38.609-0.933,35.898-5.111,33.587-9.523z"/>
			
				<circle fill="none" stroke="#00C7C4" stroke-width="2" stroke-linecap="round" stroke-linejoin="round" stroke-miterlimit="10" cx="36.645" cy="-2.638" r="7.536"/>
			<g>
				<circle fill="#FFFFFF" cx="145.156" cy="-2.638" r="7.536"/>
				
					<line fill="none" stroke="#00C7C4" stroke-width="4.6775" stroke-linecap="round" stroke-linejoin="round" stroke-miterlimit="10" x1="119.109" y1="25.022" x2="136.052" y2="8.08"/>
				<path fill="#D0EFEC" d="M148.214-9.523c2.637,1.173,4.479,3.812,4.479,6.885c0,4.162-3.374,7.536-7.536,7.536
					c-1.935,0-3.693-0.735-5.028-1.934C143.191-0.933,145.902-5.111,148.214-9.523z"/>
				
					<circle fill="none" stroke="#00C7C4" stroke-width="2" stroke-linecap="round" stroke-linejoin="round" stroke-miterlimit="10" cx="145.156" cy="-2.638" r="7.536"/>
			</g>
		</g>
		<g>
			<path fill="#D0EFEC" d="M71.172,193.61h-78.6c-4.837,0-8.758,3.92-8.758,8.757v14.486c0,4.836,3.921,8.757,8.758,8.757h124.855
				C98.957,220.007,82.809,208.612,71.172,193.61z"/>
		</g>
		<g>
			<path fill="none" stroke="#00C7C4" stroke-width="5" stroke-linecap="round" stroke-linejoin="round" stroke-miterlimit="10" d="
				M171.195,216.853c0,4.836-3.921,8.757-8.757,8.757H-7.048c-4.836,0-8.757-3.921-8.757-8.757v-14.486
				c0-4.836,3.921-8.757,8.757-8.757h169.486c4.836,0,8.757,3.92,8.757,8.757V216.853z"/>
		</g>
	</g>
</g>
<g>
	<g>
		<path fill="#61274B" d="M166.695,132.516c0,22.972-18.623,41.594-41.595,41.594H42.29c-22.972,0-41.595-18.622-41.595-41.594
			v-31.812c0-22.972,18.623-41.594,41.595-41.594h82.811c22.972,0,41.595,18.622,41.595,41.594V132.516z"/>
		<path fill="#FFFFFF" d="M147.695,138.218c0,12.09-9.801,21.892-21.892,21.892H62.587c-12.09,0-21.892-9.801-21.892-21.892v-35.217
			c0-12.09,9.801-21.892,21.892-21.892h63.217c12.09,0,21.892,9.801,21.892,21.892V138.218z"/>
		<circle fill="#FFFFFF" cx="23.257" cy="138.147" r="9.669"/>
		<circle fill="#FFFFFF" cx="23.257" cy="115.16" r="7.48"/>
		<path fill="#61274B" d="M113.678,181.034c-0.009,0.174-0.026,0.345-0.026,0.52v6.568c0,6.045,4.9,10.945,10.945,10.945
			c6.046,0,10.946-4.9,10.946-10.945v-6.568c0-0.175-0.019-0.346-0.026-0.52H113.678z"/>
		<path fill="#FFFFFF" d="M35.962,181.034c-0.009,0.174-0.026,0.345-0.026,0.52v6.568c0,6.045,4.9,10.945,10.945,10.945
			c6.046,0,10.946-4.9,10.946-10.945v-6.568c0-0.175-0.019-0.346-0.026-0.52H35.962z"/>
		<path fill="#61274B" d="M112.721,52.531c-3.32-10.623-13.237-18.334-24.955-18.334c-11.718,0-21.634,7.711-24.954,18.334H112.721z
			"/>
	</g>
	<g>
		<path fill="#3A122D" d="M35.144,174.285h34.358c-0.17-0.164-0.341-0.328-0.508-0.495C40.23,145.025,22.597,106.648,19.257,66.3
			C7.683,73.686,0,86.631,0,101.379v31.813C0,153.969,15.236,171.185,35.144,174.285z"/>
		<circle fill="#61274B" cx="39.83" cy="7.537" r="7.536"/>
		<path fill="#D0EFEC" d="M59.754,83.285c0-0.617,0.033-1.228,0.048-1.842C48.933,82.725,40.5,91.963,40.5,103.177v35.217
			c0,12.09,9.801,21.892,21.892,21.892h56.676C85.232,151.075,59.754,119.713,59.754,83.285z"/>
		<path fill="#61274B" d="M35.962,181.034c-0.009,0.174-0.026,0.345-0.026,0.52v6.568c0,6.045,4.9,10.945,10.945,10.945
			c6.046,0,10.946-4.9,10.946-10.945v-6.568c0-0.175-0.019-0.346-0.026-0.52H35.962z"/>
		<path fill="#3A122D" d="M123.201,181.034h-9.523c-0.009,0.174-0.026,0.345-0.026,0.52v6.568c0,6.045,4.9,10.945,10.945,10.945
			c1.685,0,3.274-0.392,4.7-1.071C125.543,193.296,123.259,187.394,123.201,181.034z"/>
		<path fill="#3A122D" d="M43.257,181.034h-7.295c-0.009,0.174-0.026,0.345-0.026,0.52v6.568c0,6.045,4.9,10.945,10.945,10.945
			c1.41,0,2.754-0.276,3.992-0.762C46.517,193.705,43.685,187.656,43.257,181.034z"/>
		<path fill="#3A122D" d="M97.517,51.785c-6.595-4.583-12.491-10.12-17.472-16.41c-7.943,2.455-14.264,8.584-16.975,16.41H97.517z"
			/>
		<g>
			<path fill="#61274B" d="M65.877,37.536c-0.599,0-1.197-0.229-1.654-0.685L47.281,19.909c-0.914-0.914-0.914-2.394,0-3.308
				c0.912-0.913,2.395-0.913,3.307,0l16.943,16.942c0.912,0.914,0.912,2.394,0,3.308C67.074,37.308,66.476,37.536,65.877,37.536z"/>
		</g>
		<path fill="#3A122D" d="M36.772,0.652c-2.637,1.173-4.479,3.812-4.479,6.885c0,4.162,3.374,7.536,7.536,7.536
			c1.935,0,3.693-0.735,5.028-1.934C41.795,9.242,39.084,5.064,36.772,0.652z"/>
		<g>
			<circle fill="#61274B" cx="148.342" cy="7.537" r="7.536"/>
			<g>
				<path fill="#61274B" d="M122.295,37.536c-0.599,0-1.197-0.229-1.654-0.685c-0.912-0.914-0.912-2.394,0-3.308l16.943-16.942
					c0.912-0.913,2.395-0.913,3.307,0c0.914,0.914,0.914,2.394,0,3.308l-16.941,16.942
					C123.492,37.308,122.894,37.536,122.295,37.536z"/>
			</g>
			<path fill="#3A122D" d="M151.465,14.481c-2.546,1.359-5.76,1.19-8.184-0.698c-3.283-2.558-3.871-7.293-1.314-10.577
				c1.189-1.526,2.85-2.461,4.616-2.778C147.775,5.24,149.404,9.946,151.465,14.481z"/>
		</g>
	</g>
	<circle fill="#E9D234" cx="23.257" cy="138.147" r="9.669"/>
	<circle fill="#E9D234" cx="23.257" cy="115.16" r="7.48"/>
</g>
</svg>
