<?xml version="1.0" encoding="utf-8"?>
<!-- Generator: Adobe Illustrator 17.0.0, SVG Export Plug-In . SVG Version: 6.00 Build 0)  -->
<!DOCTYPE svg PUBLIC "-//W3C//DTD SVG 1.1//EN" "http://www.w3.org/Graphics/SVG/1.1/DTD/svg11.dtd">
<svg version="1.1" id="Layer_1" xmlns="http://www.w3.org/2000/svg" xmlns:xlink="http://www.w3.org/1999/xlink" x="0px" y="0px"
	 width="1187.5px" height="607.931px" viewBox="0 0 1187.5 607.931" enable-background="new 0 0 1187.5 607.931"
	 xml:space="preserve">
<g>
	<path fill="#D0EFEC" d="M316.5,212.142c0,5.168-4.19,9.358-9.357,9.358h-72.285c-5.168,0-9.357-4.189-9.357-9.358V106.858
		c0-5.168,4.189-9.358,9.357-9.358h72.285c5.168,0,9.357,4.189,9.357,9.358V212.142z"/>
	<path fill="none" stroke="#00C7C4" stroke-width="5" stroke-linecap="round" stroke-linejoin="round" stroke-miterlimit="10" d="
		M317,211.642c0,5.168-4.19,9.358-9.357,9.358h-72.285c-5.168,0-9.357-4.189-9.357-9.358V106.358c0-5.168,4.189-9.358,9.357-9.358
		h72.285c5.168,0,9.357,4.189,9.357,9.358V211.642z"/>
	<rect x="236.5" y="107.5" fill="#FFFFFF" width="71" height="89"/>
	
		<rect x="237" y="107" fill="none" stroke="#00C7C4" stroke-width="5" stroke-linecap="round" stroke-linejoin="round" stroke-miterlimit="10" width="71" height="89"/>
	<g>
		<g>
			<path fill="#FFFFFF" d="M626.61,290.5c7.992,0,15.666,0.862,22.833,3.351c-1.47-11.933-11.637-21.427-23.967-21.427
				c-12.494,0-22.772,9.866-24.027,22.028c7.592-2.796,15.786-3.952,24.344-3.952H626.61z"/>
		</g>
		<path fill="#FFFFFF" d="M607.817,359.713c-0.37,1.447-0.589,2.958-0.589,4.522c0,10.061,8.155,18.216,18.215,18.216
			c10.06,0,18.215-8.154,18.215-18.216c0-1.492-0.199-2.936-0.538-4.324c-5.795-0.66-12.056-1.02-18.588-1.02
			C618.697,358.891,613.082,359.182,607.817,359.713z"/>
		<g>
			<path fill="#FFFFFF" d="M688.158,359.839c-1.257-33.38-28.698-60.059-62.387-60.059c-32.967,0-59.947,25.55-62.266,57.926
				C618.899,342.258,667.279,353.289,688.158,359.839z"/>
		</g>
		<g>
			<g>
				<path fill="#D0EFEC" d="M626.61,290.5c1.349,0,2.685,0.038,4.014,0.092c0.046-0.085,0.093-0.169,0.139-0.254
					c-4.867-4.516-8.115-10.756-8.685-17.667c-10.916,1.595-19.489,10.742-20.629,21.78c7.592-2.796,15.786-3.952,24.344-3.952
					H626.61z"/>
			</g>
			<path fill="#D0EFEC" d="M625.312,358.9c-0.262,0-0.517-0.01-0.779-0.01c-5.835,0-11.45,0.291-16.715,0.822
				c-0.37,1.447-0.589,2.958-0.589,4.522c0,10.061,8.155,18.216,18.215,18.216c4.397,0,8.431-1.559,11.578-4.152
				C626.938,377.065,623.037,366.992,625.312,358.9z"/>
			<g>
				<path fill="#D0EFEC" d="M636.31,348.81c-7.516-9.145-12.076-20.772-12.076-33.31c0-5.446,0.861-10.722,2.448-15.697
					c-0.304-0.004-0.604-0.022-0.91-0.022c-32.967,0-59.947,25.55-62.266,57.926c24.971-6.964,48.497-8.533,68.739-7.571
					C633.455,349.518,634.81,349.065,636.31,348.81z"/>
			</g>
		</g>
		<g>
			<path fill="none" stroke="#00C7C4" stroke-width="5" stroke-linecap="round" stroke-linejoin="round" stroke-miterlimit="10" d="
				M626.61,290c7.992,0,15.666,1.112,22.833,3.601c-1.47-11.933-11.637-21.302-23.967-21.302c-12.494,0-22.772,9.679-24.027,21.84
				c7.592-2.796,15.786-4.139,24.344-4.139H626.61z"/>
		</g>
		
			<path fill="none" stroke="#00C7C4" stroke-width="4.9733" stroke-linecap="round" stroke-linejoin="round" stroke-miterlimit="10" d="
			M607.817,359.713c-0.37,1.447-0.589,2.958-0.589,4.522c0,10.061,8.155,18.216,18.215,18.216c10.06,0,18.215-8.154,18.215-18.216
			c0-1.492-0.199-2.936-0.538-4.324c-5.795-0.66-12.056-1.02-18.588-1.02C618.697,358.891,613.082,359.182,607.817,359.713z"/>
		<circle fill="#00C7C4" cx="625.046" cy="259.42" r="7.825"/>
		<circle fill="#00C7C4" cx="625.046" cy="89.304" r="7.825"/>
		<circle fill="#00C7C4" cx="625.046" cy="65.681" r="7.825"/>
		<g>
			<path fill="none" stroke="#00C7C4" stroke-width="6" stroke-linecap="round" stroke-linejoin="round" stroke-miterlimit="10" d="
				M688.158,359.839c-1.257-33.38-28.698-60.059-62.387-60.059c-32.967,0-59.947,25.55-62.266,57.926
				C618.899,342.258,667.279,353.289,688.158,359.839z"/>
		</g>
	</g>
	<g>
		<path fill="#FFFFFF" d="M239.77,164.109h-13.514v24.922h13.514c5.813,0,10.523-4.711,10.523-10.524v-3.874
			C250.293,168.821,245.582,164.109,239.77,164.109z"/>
		<path fill="#FFFFFF" d="M305.627,189.032h13.514v-24.922h-13.514c-5.813,0-10.524,4.711-10.524,10.524v3.874
			C295.103,184.32,299.815,189.032,305.627,189.032z"/>
	</g>
	<g>
		<path fill="#D0EFEC" d="M235.365,164.109h-9.109v24.922h13.514c3.132,0,5.936-1.375,7.863-3.546
			C240.664,180.733,235.889,172.918,235.365,164.109z"/>
		<path fill="#D0EFEC" d="M301.943,164.785c-3.992,1.494-6.84,5.333-6.84,9.848v3.874c0,5.813,4.711,10.524,10.524,10.524h8.807
			C308.969,181.776,304.703,173.588,301.943,164.785z"/>
	</g>
	<g>
		
			<path fill="none" stroke="#00C7C4" stroke-width="3.3115" stroke-linecap="round" stroke-linejoin="round" stroke-miterlimit="10" d="
			M239.77,164.109h-13.514v24.922h13.514c5.813,0,10.523-4.711,10.523-10.524v-3.874
			C250.293,168.821,245.582,164.109,239.77,164.109z"/>
		
			<path fill="none" stroke="#00C7C4" stroke-width="3.3115" stroke-linecap="round" stroke-linejoin="round" stroke-miterlimit="10" d="
			M305.627,189.032h13.514v-24.922h-13.514c-5.813,0-10.524,4.711-10.524,10.524v3.874
			C295.103,184.32,299.815,189.032,305.627,189.032z"/>
	</g>
	<g>
		<circle fill="#FFFFFF" cx="272.267" cy="207.817" r="7.985"/>
	</g>
	<g>
		
			<circle fill="none" stroke="#00C7C4" stroke-width="3" stroke-linecap="round" stroke-linejoin="round" stroke-miterlimit="10" cx="272.267" cy="208.817" r="7.985"/>
	</g>
	
		<line fill="none" stroke="#00C7C4" stroke-width="3" stroke-linecap="round" stroke-linejoin="round" stroke-miterlimit="10" x1="1.5" y1="479" x2="156.5" y2="479"/>
	
		<line fill="none" stroke="#00C7C4" stroke-width="3" stroke-linecap="round" stroke-linejoin="round" stroke-miterlimit="10" x1="622.5" y1="479" x2="667.5" y2="479"/>
	
		<line fill="none" stroke="#00C7C4" stroke-width="3" stroke-linecap="round" stroke-linejoin="round" stroke-miterlimit="10" x1="962.5" y1="479" x2="1132.5" y2="479"/>
	<g>
		<g>
			
				<ellipse fill="none" stroke="#00C7C4" stroke-width="4.123" stroke-linecap="round" stroke-linejoin="round" stroke-miterlimit="10" cx="377.244" cy="585.382" rx="207.798" ry="20.487"/>
			<ellipse fill="#D0EFEC" cx="377.243" cy="584.212" rx="174.198" ry="13.263"/>
			
				<ellipse fill="none" stroke="#00C7C4" stroke-width="4.123" stroke-linecap="round" stroke-linejoin="round" stroke-miterlimit="10" cx="377.243" cy="584.212" rx="174.198" ry="13.263"/>
			<ellipse fill="#00C7C4" cx="377.244" cy="584.212" rx="77.401" ry="6.894"/>
		</g>
		<g>
			<g>
				<path fill="#FFFFFF" d="M524.955,524.773h-12.27l13.721,33.295c0.719,1.903,2.508,3.075,4.408,3.075
					c0.56,0,1.13-0.103,1.683-0.317c2.434-0.942,3.652-3.706,2.721-6.173L524.955,524.773z"/>
			</g>
			<g>
				<path fill="#FFFFFF" d="M217.047,524.773l-10.263,29.88c-0.931,2.467,0.288,5.23,2.722,6.173
					c0.553,0.215,1.123,0.317,1.683,0.317c1.899,0,3.688-1.172,4.406-3.075l13.721-33.295H217.047z"/>
			</g>
			<g>
				<path fill="#FFFFFF" d="M223.564,399.329c1.154-7.948,3.635-18.046,8.809-29.091c8.372-17.862,21.195-32.708,38.117-44.124
					c25.413-17.147,59.228-25.841,100.511-25.841c26.52,0,50.428,4.127,71.058,12.263c17.871,7.047,33.278,17.074,45.797,29.798
					c18.492,18.796,27.494,40.426,30.41,57.003c0.764-0.038,1.529-0.063,2.301-0.063c4.622,0,9.107,0.696,13.236,2.009
					c-3.152-39.284-42.228-114.898-162.803-114.898c-50.727,0-86.334,11.705-111.025,28.307
					c-37.974,25.532-50.13,62.638-51.784,86.594c4.129-1.313,8.619-2.012,13.244-2.012
					C222.15,399.274,222.858,399.297,223.564,399.329z"/>
			</g>
			<g>
				<path fill="#FFFFFF" d="M263.16,429.106c0,5.719-6.234,18.394-10.682,25.394h237.047c-4.447-7-10.683-19.675-10.683-25.394
					c0-6.45,3.417-12.812,9.621-17.194c4.248-3.001,9.491-5.204,15.165-6.052c-5.945-33.446-39.854-88.35-132.627-88.35
					c-41.58,0-70.764,9.578-91.006,23.235c-27.979,18.878-38.857,45.427-41.756,64.92c5.725,0.838,11.018,3.235,15.299,6.259
					C259.744,416.305,263.16,422.656,263.16,429.106z"/>
			</g>
			<g>
				<g>
					<path fill="#FFFFFF" d="M520.159,513.696l0.041-3.766l-17.652-0.156l-0.025-0.275H239.48h-2.232h-2.229h-13.219H217.5v4.291
						c0,0,1.051,0.072,1.145,0.108l0.515,0.019c1.158,0.037,5.986,0.237,12.897,0.443l0.156-0.058
						c0.7,0.021,1.494,0.102,2.242,0.123l0.057-0.059c0.707,0.023,1.449,0.102,2.196,0.123l0.033-0.058
						c33.332,0.986,105.541,2.959,134.255,2.959c28.722,0,100.44-1.945,133.763-2.93l0,0
						C511.711,514.261,520.159,513.696,520.159,513.696z"/>
				</g>
			</g>
			<path fill="#FFFFFF" d="M514.449,413.617c-0.672,0.064-1.174,0.142-1.821,0.239c-0.003-0.022-0.005-0.044-0.008-0.066
				c-12.151,1.825-21.408,10.251-21.408,19.377c0,5.216,7.361,19.333,11.399,25.333h10.539h1.65h2.473h12.656
				c0.14,0,0.307,0,0.419,0h0.118h2.475h0.828c0.397,0,0.821-1.918,0.821-2.544c4.122-6.923,10.276-18.371,10.276-23.133
				c0-6.058-3.681-11.618-10.276-15.096c-0.825-0.369-0.825-0.825-1.649-1.149c-0.824-0.305-1.564-0.645-2.273-0.907
				c0.002,0.1-0.201,0.175-0.201,0.273c0-0.099,0.059-0.216,0.059-0.314c-3.732-1.385-7.877-2.179-12.385-2.179
				c-0.514,0-0.922,0.009-1.429,0.029c-0.693,0.027-1.515,0.075-2.194,0.14"/>
			<path fill="#FFFFFF" d="M219.242,412.793c-0.672,0.063-1.174,0.142-1.822,0.239c-0.002-0.023-0.004-0.045-0.008-0.066
				c-12.15,1.824-21.408,10.663-21.408,19.789c0,5.215,7.362,18.745,11.399,25.745h10.54h1.649h2.474h12.656
				c0.139,0,0.307,0,0.418,0h0.12h2.474h0.827c0.398,0,0.821-2.329,0.821-2.956c4.123-6.924,10.277-18.578,10.277-23.339
				c0-6.06-3.682-11.723-10.277-15.2c-0.825-0.367-0.825-0.876-1.648-1.2c-0.825-0.305-1.564-0.669-2.273-0.933
				c0.001,0.101-0.201,0.162-0.201,0.262c0-0.1,0.058-0.223,0.057-0.322c-3.731-1.384-7.877-2.181-12.384-2.181
				c-0.514,0-0.923,0.006-1.43,0.026c-0.693,0.028-1.515,0.073-2.192,0.138"/>
			<g>
				<path fill="#FFFFFF" d="M530.5,482.712c0,8.167-6.621,14.788-14.788,14.788H216.288c-8.167,0-14.788-6.621-14.788-14.788v-0.424
					c0-8.167,6.621-14.788,14.788-14.788h299.424c8.167,0,14.788,6.621,14.788,14.788V482.712z"/>
			</g>
		</g>
		<g>
			<g>
				<path fill="#D0EFEC" d="M528.76,535.847c-4.025-0.296-8.033-0.718-12.023-1.244l9.669,23.466
					c0.719,1.903,2.508,3.075,4.408,3.075c0.56,0,1.13-0.103,1.683-0.317c2.434-0.942,3.652-3.706,2.721-6.173L528.76,535.847z"/>
			</g>
			<g>
				<path fill="#D0EFEC" d="M215.663,528.8l-8.879,25.854c-0.931,2.467,0.288,5.23,2.722,6.173c0.553,0.215,1.123,0.317,1.683,0.317
					c1.899,0,3.688-1.172,4.406-3.075l8.962-21.747C221.529,533.898,218.561,531.394,215.663,528.8z"/>
			</g>
			<g>
				<path fill="#D0EFEC" d="M343.262,287.652c-36.335,3.445-63.365,13.647-83.284,27.04c-37.974,25.532-50.13,62.638-51.784,86.594
					c4.129-1.313,8.619-2.012,13.244-2.012c0.713,0,1.421,0.022,2.127,0.055c1.154-7.948,3.635-18.046,8.809-29.091
					c8.372-17.862,21.195-32.708,38.117-44.124c20.727-13.986,47.048-22.343,78.447-24.951
					C346.893,296.725,344.997,292.22,343.262,287.652z"/>
			</g>
			<g>
				<path fill="#D0EFEC" d="M473.914,438.624c-55.987,0-110.299-22.509-149.865-62.076c-12.764-12.763-23.74-27.067-32.771-42.46
					c-4.035,2.083-7.796,4.311-11.282,6.663c-27.979,18.878-38.857,45.424-41.756,64.917c5.725,0.838,11.018,3.279,15.299,6.304
					c6.205,4.381,9.621,10.775,9.621,17.226c0,5.719-6.234,18.063-10.682,25.485h237.047c-2.674-4.461-5.983-10.695-8.207-16.206
					C478.853,438.565,476.386,438.624,473.914,438.624z"/>
			</g>
			<g>
				<g>
					<path fill="#D0EFEC" d="M353.219,509.931H217.53v3.86c0,0,1.036,0.072,1.13,0.108l0.508,0.019
						c1.158,0.037,5.982,0.237,12.893,0.443l0.154-0.058c0.7,0.021,1.493,0.102,2.241,0.123l0.057-0.059
						c0.707,0.023,1.449,0.102,2.195,0.123l0.033-0.058c30.65,0.906,94.17,2.648,126.519,2.922
						C359.846,514.982,356.496,512.507,353.219,509.931z"/>
				</g>
			</g>
			<path fill="#D0EFEC" d="M529.932,445.94c-12.902,0-23.668-10.766-23.668-23.669c0-2.524,0.417-4.963,1.176-7.258
				c-9.506,3.093-16.228,10.303-16.228,18.079c0,5.216,7.361,19.561,11.399,25.259h31.158c0.397,0,0.821-1.844,0.821-2.47
				c2.183-3.666,4.928-8.585,7.036-13.114C538.159,444.778,534.162,445.94,529.932,445.94z"/>
			<path fill="#D0EFEC" d="M233.699,452.587c-12.903,0-23.67-10.766-23.67-23.669c0-5.994,2.326-11.525,6.108-15.73
				c-11.517,2.225-20.134,10.69-20.134,19.493c0,5.215,7.362,19.024,11.399,25.671h31.158c0.398,0,0.821-2.255,0.821-2.882
				c0.787-1.319,1.646-2.811,2.523-4.393C239.34,452.05,236.572,452.587,233.699,452.587z"/>
			<g>
				<path fill="#D0EFEC" d="M342.197,467.052H215.828c-8.169,0-14.789,6.621-14.789,14.788v0.109c0,8.167,6.62,14.788,14.789,14.788
					h183.697C379.074,489.823,359.708,479.82,342.197,467.052z"/>
			</g>
		</g>
		<g>
			<g>
				<path fill="#00C7C4" d="M524.955,524.773l10.264,29.88c0.932,2.467-0.287,5.23-2.721,6.173
					c-0.554,0.215-1.124,0.317-1.683,0.317c-1.9,0-3.69-1.172-4.408-3.075l-13.721-33.295H524.955 M524.955,520.65h-12.27
					c-1.376,0-2.66,0.686-3.426,1.829c-0.766,1.143-0.91,2.593-0.387,3.865l13.701,33.248c1.314,3.398,4.617,5.675,8.24,5.675
					c1.086,0,2.154-0.201,3.175-0.597c4.509-1.746,6.791-6.851,5.112-11.406l-10.247-29.83
					C528.282,521.769,526.716,520.65,524.955,520.65L524.955,520.65z"/>
			</g>
			<g>
				<path fill="#00C7C4" d="M229.315,524.773h0.005 M229.315,524.773l-13.721,33.295c-0.718,1.903-2.507,3.075-4.406,3.075
					c-0.56,0-1.13-0.103-1.683-0.317c-2.434-0.942-3.652-3.706-2.722-6.173l10.263-29.88H229.315 M229.32,520.65h-0.005h-12.268
					c-1.761,0-3.327,1.118-3.899,2.784l-10.245,29.83c-1.679,4.555,0.605,9.661,5.115,11.407c1.015,0.395,2.083,0.596,3.171,0.596
					c3.624,0,6.925-2.278,8.238-5.676l13.642-33.104c0.239-0.522,0.373-1.102,0.373-1.713
					C233.441,522.496,231.598,520.65,229.32,520.65L229.32,520.65z"/>
			</g>
			<g>
				<path fill="#00C7C4" d="M371.002,286.385c120.575,0,159.65,75.614,162.803,114.898c-4.129-1.313-8.614-2.009-13.236-2.009
					c-0.771,0-1.537,0.024-2.301,0.063c-2.916-16.577-11.918-38.207-30.41-57.003c-12.519-12.724-27.926-22.75-45.797-29.798
					c-20.631-8.137-44.539-12.263-71.059-12.263c-41.283,0-75.098,8.694-100.511,25.841c-16.922,11.416-29.745,26.262-38.117,44.124
					c-5.175,11.045-7.655,21.143-8.81,29.091c-0.706-0.032-1.414-0.055-2.127-0.055c-4.625,0-9.115,0.698-13.244,2.012
					c1.654-23.956,13.811-61.062,51.784-86.594C284.668,298.09,320.275,286.385,371.002,286.385 M371.002,281.944
					c-46.635,0-84.823,9.778-113.502,29.063c-17.739,11.927-31.526,27.247-40.979,45.534c-7.211,13.951-11.742,29.734-12.758,44.439
					c-0.101,1.467,0.53,2.89,1.687,3.798c0.793,0.623,1.761,0.949,2.744,0.949c0.451,0,0.905-0.069,1.346-0.209
					c3.76-1.196,7.763-1.803,11.898-1.803c0.564,0,1.175,0.016,1.925,0.05c0.069,0.003,0.137,0.005,0.205,0.005
					c2.194,0,4.074-1.611,4.392-3.803c1.374-9.462,4.212-18.83,8.436-27.845c8.027-17.126,20.334-31.367,36.579-42.327
					c24.666-16.643,57.647-25.082,98.027-25.082c25.959,0,49.318,4.022,69.429,11.954c17.286,6.817,32.177,16.5,44.26,28.781
					c21.528,21.881,27.594,45.513,29.202,54.658c0.375,2.132,2.228,3.672,4.371,3.672c0.074,0,0.149-0.002,0.224-0.006
					c0.77-0.038,1.45-0.057,2.08-0.057c4.133,0,8.133,0.606,11.891,1.8c0.441,0.14,0.895,0.209,1.345,0.209
					c0.991,0,1.968-0.332,2.764-0.964c1.158-0.921,1.782-2.357,1.664-3.832c-0.784-9.769-5.895-44.053-38.747-75.056
					c-14.163-13.366-31.345-23.87-51.07-31.221C425.788,286.219,399.743,281.944,371.002,281.944L371.002,281.944z"/>
			</g>
			<g>
				<path fill="#00C7C4" d="M371.002,317.521c92.773,0,126.682,54.915,132.627,88.361c-5.674,0.849-10.917,3.074-15.165,6.075
					c-6.204,4.382-9.621,10.698-9.621,17.148c0,5.719,6.235,18.394,10.683,25.394H252.479c4.447-7,10.682-19.675,10.682-25.394
					c0-6.45-3.416-12.799-9.621-17.18c-4.281-3.024-9.574-5.443-15.299-6.281c2.898-19.493,13.777-46.028,41.756-64.906
					C300.238,327.082,329.422,317.521,371.002,317.521 M371.002,313.399c-38.378,0-69.772,8.053-93.312,23.935
					c-13.257,8.944-23.872,20.246-31.551,33.589c-7.691,13.365-10.759,25.942-11.978,34.139c-0.161,1.083,0.115,2.186,0.769,3.065
					c0.653,0.879,1.629,1.462,2.712,1.621c5.84,0.855,10.574,3.513,13.517,5.592c5.006,3.534,7.877,8.585,7.877,13.858
					c0,3.716-4.34,13.761-10.095,23.366c-0.763,1.274-0.783,2.707-0.051,3.999c0.732,1.292,2.102,1.938,3.587,1.938h237.047
					c1.485,0,2.855-0.646,3.587-1.938c0.732-1.292,0.713-2.802-0.051-4.075c-5.756-9.606-10.096-19.613-10.096-23.328
					c0-5.28,2.871-10.317,7.877-13.852c3.949-2.79,8.582-4.635,13.396-5.356c1.101-0.165,2.088-0.763,2.738-1.666
					s0.906-2.03,0.711-3.126c-1.824-10.261-8.898-36.563-35.123-59.126c-11.635-10.01-25.491-17.85-41.184-23.304
					C413.564,316.537,393.249,313.399,371.002,313.399L371.002,313.399z"/>
			</g>
			<g>
				<g>
					<path fill="#00C7C4" d="M520.5,509.5L520.5,509.5 M520.2,509.931l-0.041,3.766c0,0-8.448,0.564-15.399,0.767
						c-33.322,0.984-105.041,2.93-133.763,2.93c-28.714,0-100.923-1.973-134.255-2.959l-0.033,0.058
						c-0.746-0.021-1.488-0.1-2.195-0.123l-0.057,0.059c-0.748-0.021-1.541-0.102-2.241-0.123l-0.154,0.058
						c-6.911-0.206-11.735-0.406-12.894-0.443l-0.523-0.019c-0.094-0.036-1.145-0.108-1.145-0.108V509.5h4.301h13.219h2.229h2.231
						h263.044l0.024,0.275L520.2,509.931 M520.2,505.5c-0.005,0-0.009,0-0.014,0l-16.977,0.057
						c-0.224-0.038-0.453-0.057-0.686-0.057H239.479h-2.231h-2.229h-13.219h-4.271c-2.277,0-4.03,2.154-4.03,4.431v3.86
						c0,2.166,1.629,3.962,3.79,4.113c0.011,0.001,0.422,0.03,0.682,0.057c0.185,0.032,0.361,0.052,0.549,0.059l0.502,0.019
						c0.312,0.01,0.842,0.03,1.587,0.058c2.16,0.081,6.18,0.233,11.329,0.386c0.041,0.001,0.081,0.002,0.122,0.002
						c0.179,0,0.357-0.012,0.534-0.035c0.136,0.008,0.274,0.018,0.414,0.027c0.442,0.03,0.892,0.059,1.329,0.071
						c0.04,0.001,0.079,0.002,0.119,0.002c0.168,0,0.334-0.01,0.499-0.03c0.103,0.007,0.207,0.014,0.311,0.021
						c0.436,0.03,0.879,0.059,1.322,0.072c0.04,0.001,0.08,0.002,0.119,0.002c0.193,0,0.384-0.014,0.573-0.04
						c12.972,0.382,100.984,2.941,133.715,2.941c33.68,0,123.728-2.631,133.885-2.932c6.946-0.202,15.467-0.768,15.552-0.774
						c2.148-0.144,3.824-1.916,3.848-4.069l0.039-3.62c0.003-0.063,0.004-0.28,0.004-0.344c0-2.273-1.837-4.277-4.108-4.277
						C520.212,505.5,520.206,505.5,520.2,505.5L520.2,505.5z"/>
				</g>
			</g>
			<path fill="none" stroke="#00C7C4" stroke-width="4" stroke-linecap="round" stroke-linejoin="round" stroke-miterlimit="10" d="
				M514.449,413.617c-0.672,0.064-1.174,0.142-1.821,0.239c-0.003-0.022-0.005-0.044-0.008-0.066
				c-12.151,1.825-21.408,10.251-21.408,19.377c0,5.216,7.361,19.333,11.399,25.333h10.539h1.65h2.473h12.656
				c0.14,0,0.307,0,0.419,0h0.118h2.475h0.828c0.397,0,0.821-1.918,0.821-2.544c4.122-6.923,10.276-18.371,10.276-23.133
				c0-6.058-3.681-11.618-10.276-15.096c-0.825-0.369-0.825-0.825-1.649-1.149c-0.824-0.305-1.564-0.645-2.273-0.907
				c0.002,0.1-0.201,0.175-0.201,0.273c0-0.099,0.059-0.216,0.059-0.314c-3.732-1.385-7.877-2.179-12.385-2.179
				c-0.514,0-0.922,0.009-1.429,0.029c-0.693,0.027-1.515,0.075-2.194,0.14"/>
			<path fill="none" stroke="#00C7C4" stroke-width="4" stroke-linecap="round" stroke-linejoin="round" stroke-miterlimit="10" d="
				M219.242,412.793c-0.672,0.063-1.174,0.142-1.822,0.239c-0.002-0.023-0.004-0.045-0.008-0.066
				c-12.15,1.824-21.408,10.663-21.408,19.789c0,5.215,7.362,18.745,11.399,25.745h10.54h1.649h2.474h12.656
				c0.139,0,0.307,0,0.418,0h0.12h2.474h0.827c0.398,0,0.821-2.329,0.821-2.956c4.123-6.924,10.277-18.578,10.277-23.339
				c0-6.06-3.682-11.723-10.277-15.2c-0.825-0.367-0.825-0.876-1.648-1.2c-0.825-0.305-1.564-0.669-2.273-0.933
				c0.001,0.101-0.201,0.162-0.201,0.262c0-0.1,0.058-0.223,0.057-0.322c-3.731-1.384-7.877-2.181-12.384-2.181
				c-0.514,0-0.923,0.006-1.43,0.026c-0.693,0.028-1.515,0.073-2.192,0.138"/>
			<g>
				<path fill="#00C7C4" d="M515.267,467.5c8.168,0,15.233,6.173,15.233,14.34v0.109c0,8.167-7.065,14.551-15.233,14.551H215.828
					c-8.169,0-14.328-6.384-14.328-14.551v-0.109c0-8.167,6.159-14.34,14.328-14.34H515.5 M515.267,462.5H215.828
					c-10.428,0-19.328,8.912-19.328,19.34v0.109c0,10.428,8.9,18.551,19.328,18.551h299.438c10.428,0,19.233-8.123,19.233-18.551
					v-0.109C534.5,471.412,525.694,462.5,515.267,462.5L515.267,462.5z"/>
			</g>
		</g>
		<path fill="#FFFFFF" d="M344.197,273.168c0.485-0.129,0.789-0.227-0.024-0.053c-0.007-0.014-0.015-0.03-0.015-0.03
			c-0.186,0.06-0.379,0.117-0.568,0.176c-0.055,0.017-0.116,0.035-0.158,0.048c-14.436,4.445-35.954,5.7-87.164,32.907
			c11.45,7.47,29.172,77.389,29.172,77.389l5.273-5.063c1.226,4.783,1.935,7.725,1.935,7.725l8.214-7.568l-2.258,5.505
			c1.227,4.783,1.935,7.725,1.935,7.725l37.163-34.244c0,0,33.813-4.237,55.188-4.385
			C371.83,332.34,345.279,275.496,344.197,273.168z"/>
		<g>
			
				<path fill="none" stroke="#00C7C4" stroke-width="2.0201" stroke-linecap="round" stroke-linejoin="round" stroke-miterlimit="10" d="
				M344.158,273.085c0,0,11.646,50.938,33.578,71.897c-21.367,0.581-55.837,3.63-55.837,3.63l-36.46,34.993
				c0,0-17.722-69.919-29.172-77.389C308.338,278.553,329.718,277.722,344.158,273.085z"/>
			
				<path fill="none" stroke="#00C7C4" stroke-width="2.0201" stroke-linecap="round" stroke-linejoin="round" stroke-miterlimit="10" d="
				M298.603,384.204c1.227,4.783,1.935,7.725,1.935,7.725l37.163-34.244c0,0,33.813-4.237,55.188-4.385
				c-21.501-21.399-48.731-80.214-48.731-80.214"/>
			<path fill="#D0EFEC" d="M343.813,273.193C346.656,272.564,341.441,273.901,343.813,273.193c0,0,20.397,54.937,41.898,76.336
				c-21.375,0.147-55.898,2.494-55.898,2.494l-37.165,34.244c0,0-0.709-2.941-1.935-7.725l31.187-29.931l55.837-3.63
				C377.736,344.982,354.232,318.28,343.813,273.193z"/>
			
				<path fill="none" stroke="#00C7C4" stroke-width="2.0201" stroke-linecap="round" stroke-linejoin="round" stroke-miterlimit="10" d="
				M290.713,378.543c1.226,4.783,1.935,7.725,1.935,7.725l37.165-34.244c0,0,34.523-2.347,55.898-2.494
				c-21.501-21.399-41.898-76.336-41.898-76.336c-2.371,0.708,2.844-0.629,0,0"/>
			<path fill="#D0EFEC" d="M341.463,309.892c-12.448,0-23.063-9.208-25.318-21.081c-0.459,0.128-0.918,0.254-1.391,0.388
				l18.691,49.585c9.574-0.658,20.021-1.269,28.438-1.498c-8.588-8.206-13.916-18.325-17.233-27.605
				C343.603,309.815,342.541,309.892,341.463,309.892z"/>
			
				<path fill="none" stroke="#00C7C4" stroke-width="2.0201" stroke-linecap="round" stroke-linejoin="round" stroke-miterlimit="10" d="
				M314.754,289.199l18.691,49.585c9.574-0.658,20.021-1.269,28.438-1.498c-21.933-20.959-22.672-54.419-22.672-54.419
				C332.983,284.866,325.463,286.159,314.754,289.199z"/>
			
				<line fill="none" stroke="#00C7C4" stroke-width="1.8989" stroke-linecap="round" stroke-linejoin="round" stroke-miterlimit="10" x1="304.902" y1="292.975" x2="323.657" y2="342.728"/>
			
				<line fill="none" stroke="#00C7C4" stroke-width="1.8989" stroke-linecap="round" stroke-linejoin="round" stroke-miterlimit="10" x1="295.13" y1="296.659" x2="313.885" y2="346.412"/>
			
				<line fill="none" stroke="#00C7C4" stroke-width="1.8989" stroke-linecap="round" stroke-linejoin="round" stroke-miterlimit="10" x1="287.133" y1="299.673" x2="305.889" y2="349.426"/>
			
				<line fill="none" stroke="#00C7C4" stroke-width="1.8989" stroke-linecap="round" stroke-linejoin="round" stroke-miterlimit="10" x1="280.914" y1="302.017" x2="292.971" y2="334.001"/>
			
				<line fill="none" stroke="#00C7C4" stroke-width="1.8989" stroke-linecap="round" stroke-linejoin="round" stroke-miterlimit="10" x1="273.807" y1="304.696" x2="285.863" y2="336.681"/>
			<path fill="#D0EFEC" d="M286.369,344.607l-4.045,1.524l6.979,18.514l10.168-12.365l-0.262-0.689
				C294.288,350.546,289.85,348.059,286.369,344.607z"/>
			
				<polygon fill="none" stroke="#00C7C4" stroke-width="1.8989" stroke-linecap="round" stroke-linejoin="round" stroke-miterlimit="10" points="
				299.471,352.28 289.303,364.646 282.324,346.132 295.272,341.251 			"/>
		</g>
	</g>
	<g>
		<g>
			<g>
				<path fill="#FFFFFF" d="M969.5,261.906c0,22.972-18.623,41.594-41.595,41.594h-82.811c-22.972,0-41.595-18.622-41.595-41.594
					v-31.812c0-22.972,18.623-41.594,41.595-41.594h82.811c22.972,0,41.595,18.622,41.595,41.594V261.906z"/>
				<path fill="#FFFFFF" d="M950.5,267.608c0,12.09-9.801,21.892-21.892,21.892h-63.217c-12.091,0-21.892-9.801-21.892-21.892
					v-35.217c0-12.09,9.801-21.892,21.892-21.892h63.217c12.091,0,21.892,9.801,21.892,21.892V267.608z"/>
				<circle fill="#FFFFFF" cx="825.876" cy="267.361" r="9.669"/>
				<circle fill="#FFFFFF" cx="825.876" cy="244.375" r="7.48"/>
				<path fill="#FFFFFF" d="M916.297,310.249c-0.009,0.174-0.026,0.345-0.026,0.52v6.568c0,6.045,4.9,10.945,10.945,10.945
					c6.046,0,10.946-4.9,10.946-10.945v-6.568c0-0.175-0.018-0.346-0.026-0.52H916.297z"/>
				<path fill="#FFFFFF" d="M838.581,310.249c-0.009,0.174-0.026,0.345-0.026,0.52v6.568c0,6.045,4.9,10.945,10.945,10.945
					c6.046,0,10.946-4.9,10.946-10.945v-6.568c0-0.175-0.019-0.346-0.026-0.52H838.581z"/>
				<path fill="#FFFFFF" d="M915.34,181.746c-3.32-10.623-13.237-18.334-24.955-18.334c-11.717,0-21.633,7.711-24.954,18.334H915.34
					z"/>
				<line fill="#FFFFFF" x1="910.273" y1="163.412" x2="927.216" y2="146.47"/>
				<line fill="#FFFFFF" x1="868.496" y1="164.412" x2="851.554" y2="147.47"/>
				<circle fill="#FFFFFF" cx="934.752" cy="139.752" r="7.537"/>
				<circle fill="#FFFFFF" cx="845.449" cy="140.752" r="7.536"/>
			</g>
			<path fill="#FFFFFF" d="M976.5,356.743c0,4.836-3.921,8.757-8.757,8.757H798.257c-4.836,0-8.757-3.921-8.757-8.757v-14.486
				c0-4.836,3.921-8.757,8.757-8.757h169.486c4.836,0,8.757,3.92,8.757,8.757V356.743z"/>
			<path fill="#FFFFFF" d="M790.119,544.007v14.203c0,4.836,3.92,8.757,8.758,8.757h169.112c4.837,0,8.757-3.921,8.757-8.757
				v-14.203H790.119z"/>
			<rect x="950.5" y="374.5" fill="#FFFFFF" width="14" height="162"/>
			<rect x="803.5" y="374.5" fill="#FFFFFF" width="14" height="162"/>
			<rect x="824.5" y="418.5" fill="#FFFFFF" width="119" height="10"/>
			<line fill="#FFFFFF" x1="942.289" y1="378.56" x2="927.216" y2="413.038"/>
			<line fill="#FFFFFF" x1="934.627" y1="378.56" x2="919.554" y2="413.038"/>
			<line fill="#FFFFFF" x1="926.965" y1="378.56" x2="911.892" y2="413.038"/>
			<line fill="#FFFFFF" x1="919.303" y1="378.56" x2="904.229" y2="413.038"/>
			<line fill="#FFFFFF" x1="911.641" y1="378.56" x2="896.567" y2="413.038"/>
			<line fill="#FFFFFF" x1="903.979" y1="378.56" x2="888.905" y2="413.038"/>
			<line fill="#FFFFFF" x1="896.316" y1="378.56" x2="881.243" y2="413.038"/>
			<line fill="#FFFFFF" x1="888.654" y1="378.56" x2="873.581" y2="413.038"/>
			<path fill="#FFFFFF" d="M926.942,574.37v10.373c0,4.837,3.92,8.757,8.757,8.757h13.683c4.836,0,8.756-3.92,8.756-8.757V574.37
				H926.942z"/>
			<path fill="#FFFFFF" d="M817.759,574.37v10.373c0,4.837,3.92,8.757,8.757,8.757h13.682c4.837,0,8.757-3.92,8.757-8.757V574.37
				H817.759z"/>
			<path fill="#D0EFEC" d="M938.252,574.37h-11.31v10.373c0,4.837,3.92,8.757,8.757,8.757h13.282
				C944.871,587.466,941.275,581.066,938.252,574.37z"/>
			<path fill="#D0EFEC" d="M836.53,574.37h-18.771v10.373c0,4.837,3.92,8.757,8.757,8.757h13.682c1.044,0,2.041-0.192,2.971-0.527
				C839.321,587.644,836.902,581.244,836.53,574.37z"/>
		</g>
		<g>
			<g>
				<path fill="#D0EFEC" d="M872.614,302.005c-28.765-28.765-46.398-67.142-49.737-107.49
					c-11.575,7.386-19.258,20.331-19.258,35.079v31.812c0,22.972,18.623,41.594,41.595,41.594h28.421
					C873.296,302.667,872.95,302.341,872.614,302.005z"/>
				
					<path fill="none" stroke="#00C7C4" stroke-width="5" stroke-linecap="round" stroke-linejoin="round" stroke-miterlimit="10" d="
					M970,261.406C970,284.378,951.377,303,928.405,303h-82.811C822.623,303,804,284.378,804,261.406v-31.812
					C804,206.622,822.623,188,845.595,188h82.811C951.377,188,970,206.622,970,229.594V261.406z"/>
				<circle fill="#FFFFFF" cx="842.449" cy="136.752" r="7.536"/>
				<path fill="#D0EFEC" d="M862.373,212.5c0-0.617,0.033-1.228,0.048-1.842c-10.869,1.282-19.302,10.521-19.302,21.734v35.217
					c0,12.09,9.801,21.892,21.892,21.892h56.676C887.852,280.29,862.373,248.928,862.373,212.5z"/>
				
					<path fill="none" stroke="#00C7C4" stroke-width="5" stroke-linecap="round" stroke-linejoin="round" stroke-miterlimit="10" d="
					M951,267.108c0,12.09-9.801,21.892-21.892,21.892h-63.217C853.801,289,844,279.199,844,267.108v-35.217
					c0-12.09,9.801-21.892,21.892-21.892h63.217c12.091,0,21.892,9.801,21.892,21.892V267.108z"/>
				
					<circle fill="none" stroke="#00C7C4" stroke-width="4.6775" stroke-linecap="round" stroke-linejoin="round" stroke-miterlimit="10" cx="825.876" cy="267.361" r="9.669"/>
				
					<circle fill="none" stroke="#00C7C4" stroke-width="4.6775" stroke-linecap="round" stroke-linejoin="round" stroke-miterlimit="10" cx="825.876" cy="244.375" r="7.48"/>
				<path fill="#FFFFFF" d="M916.297,310.249c-0.009,0.174-0.026,0.345-0.026,0.52v6.568c0,6.045,4.9,10.945,10.945,10.945
					c6.046,0,10.946-4.9,10.946-10.945v-6.568c0-0.175-0.018-0.346-0.026-0.52H916.297z"/>
				<path fill="#FFFFFF" d="M838.581,310.249c-0.009,0.174-0.026,0.345-0.026,0.52v6.568c0,6.045,4.9,10.945,10.945,10.945
					c6.046,0,10.946-4.9,10.946-10.945v-6.568c0-0.175-0.019-0.346-0.026-0.52H838.581z"/>
				<path fill="#D0EFEC" d="M925.82,310.249h-9.523c-0.009,0.174-0.026,0.345-0.026,0.52v6.568c0,6.045,4.9,10.945,10.945,10.945
					c1.685,0,3.274-0.392,4.7-1.071C928.162,322.51,925.878,316.608,925.82,310.249z"/>
				<path fill="#D0EFEC" d="M845.877,310.249h-7.296c-0.009,0.174-0.026,0.345-0.026,0.52v6.568c0,6.045,4.9,10.945,10.945,10.945
					c1.41,0,2.754-0.276,3.992-0.762C849.136,322.919,846.304,316.871,845.877,310.249z"/>
				
					<path fill="none" stroke="#00C7C4" stroke-width="4.6775" stroke-linecap="round" stroke-linejoin="round" stroke-miterlimit="10" d="
					M916.297,310.249c-0.009,0.174-0.026,0.345-0.026,0.52v6.568c0,6.045,4.9,10.945,10.945,10.945
					c6.046,0,10.946-4.9,10.946-10.945v-6.568c0-0.175-0.018-0.346-0.026-0.52H916.297z"/>
				
					<path fill="none" stroke="#00C7C4" stroke-width="4.6775" stroke-linecap="round" stroke-linejoin="round" stroke-miterlimit="10" d="
					M838.581,310.249c-0.009,0.174-0.026,0.345-0.026,0.52v6.568c0,6.045,4.9,10.945,10.945,10.945
					c6.046,0,10.946-4.9,10.946-10.945v-6.568c0-0.175-0.019-0.346-0.026-0.52H838.581z"/>
				<path fill="#D0EFEC" d="M882.664,164.59c-8.195,2.533-14.676,8.972-17.233,17.156h35.77
					C894.17,177.026,887.914,171.219,882.664,164.59z"/>
				
					<path fill="none" stroke="#00C7C4" stroke-width="4.6775" stroke-linecap="round" stroke-linejoin="round" stroke-miterlimit="10" d="
					M915.34,181.746c-3.32-10.623-13.237-18.334-24.955-18.334c-11.717,0-21.633,7.711-24.954,18.334H915.34z"/>
				
					<line fill="none" stroke="#00C7C4" stroke-width="4.6775" stroke-linecap="round" stroke-linejoin="round" stroke-miterlimit="10" x1="868.496" y1="164.412" x2="851.554" y2="147.47"/>
				<path fill="#D0EFEC" d="M839.392,129.867c-2.637,1.173-4.479,3.812-4.479,6.885c0,4.162,3.374,7.536,7.536,7.536
					c1.935,0,3.693-0.735,5.028-1.934C844.414,138.457,841.703,134.279,839.392,129.867z"/>
				
					<circle fill="none" stroke="#00C7C4" stroke-width="2" stroke-linecap="round" stroke-linejoin="round" stroke-miterlimit="10" cx="842.449" cy="136.752" r="7.536"/>
				<g>
					<circle fill="#FFFFFF" cx="950.961" cy="136.752" r="7.536"/>
					
						<line fill="none" stroke="#00C7C4" stroke-width="4.6775" stroke-linecap="round" stroke-linejoin="round" stroke-miterlimit="10" x1="924.914" y1="164.412" x2="941.856" y2="147.47"/>
					<path fill="#D0EFEC" d="M954.019,129.867c2.637,1.173,4.478,3.812,4.478,6.885c0,4.162-3.374,7.536-7.536,7.536
						c-1.934,0-3.693-0.735-5.028-1.934C948.996,138.457,951.707,134.279,954.019,129.867z"/>
					
						<circle fill="none" stroke="#00C7C4" stroke-width="2" stroke-linecap="round" stroke-linejoin="round" stroke-miterlimit="10" cx="950.961" cy="136.752" r="7.536"/>
				</g>
			</g>
			
				<line fill="none" stroke="#00C7C4" stroke-width="4.6775" stroke-linecap="round" stroke-linejoin="round" stroke-miterlimit="10" x1="942.289" y1="378.56" x2="927.216" y2="413.038"/>
			
				<line fill="none" stroke="#00C7C4" stroke-width="4.6775" stroke-linecap="round" stroke-linejoin="round" stroke-miterlimit="10" x1="934.627" y1="378.56" x2="919.554" y2="413.038"/>
			
				<line fill="none" stroke="#00C7C4" stroke-width="4.6775" stroke-linecap="round" stroke-linejoin="round" stroke-miterlimit="10" x1="926.965" y1="378.56" x2="911.892" y2="413.038"/>
			
				<line fill="none" stroke="#00C7C4" stroke-width="4.6775" stroke-linecap="round" stroke-linejoin="round" stroke-miterlimit="10" x1="919.303" y1="378.56" x2="904.229" y2="413.038"/>
			
				<line fill="none" stroke="#00C7C4" stroke-width="4.6775" stroke-linecap="round" stroke-linejoin="round" stroke-miterlimit="10" x1="911.641" y1="378.56" x2="896.567" y2="413.038"/>
			
				<line fill="none" stroke="#00C7C4" stroke-width="4.6775" stroke-linecap="round" stroke-linejoin="round" stroke-miterlimit="10" x1="903.979" y1="378.56" x2="888.905" y2="413.038"/>
			
				<line fill="none" stroke="#00C7C4" stroke-width="4.6775" stroke-linecap="round" stroke-linejoin="round" stroke-miterlimit="10" x1="896.316" y1="378.56" x2="881.243" y2="413.038"/>
			
				<line fill="none" stroke="#00C7C4" stroke-width="4.6775" stroke-linecap="round" stroke-linejoin="round" stroke-miterlimit="10" x1="888.654" y1="378.56" x2="873.581" y2="413.038"/>
			<g>
				<path fill="#D0EFEC" d="M876.977,333h-78.6c-4.837,0-8.758,3.92-8.758,8.757v14.486c0,4.836,3.921,8.757,8.758,8.757h124.855
					C904.762,359.397,888.613,348.002,876.977,333z"/>
				<path fill="#D0EFEC" d="M859.1,544.007h-68.981v14.203c0,4.836,3.92,8.757,8.758,8.757h66.555
					C862.407,559.692,860.253,551.994,859.1,544.007z"/>
				<path fill="#D0EFEC" d="M951.953,433.565c-0.466-1.095-0.91-2.199-1.334-3.314v3.365
					C951.063,433.595,951.508,433.579,951.953,433.565z"/>
				<path fill="#D0EFEC" d="M817.119,450.051c-4.709,0-9.251-0.827-13.5-2.325V536h14v-85.962
					C817.452,450.04,817.287,450.051,817.119,450.051z"/>
				<path fill="#D0EFEC" d="M857.41,418.5c-0.898,3.525-2.256,6.881-4.005,10h89.714v-10H857.41z"/>
				
					<path fill="none" stroke="#00C7C4" stroke-width="4.6775" stroke-linecap="round" stroke-linejoin="round" stroke-miterlimit="10" d="
					M817.759,574.37v10.373c0,4.837,3.92,8.757,8.757,8.757h13.682c4.837,0,8.757-3.92,8.757-8.757V574.37H817.759z"/>
			</g>
			<g>
				
					<path fill="none" stroke="#00C7C4" stroke-width="5" stroke-linecap="round" stroke-linejoin="round" stroke-miterlimit="10" d="
					M977,356.243c0,4.836-3.921,8.757-8.757,8.757H798.757c-4.836,0-8.757-3.921-8.757-8.757v-14.486
					c0-4.836,3.921-8.757,8.757-8.757h169.486c4.836,0,8.757,3.92,8.757,8.757V356.243z"/>
				
					<path fill="none" stroke="#00C7C4" stroke-width="3" stroke-linecap="round" stroke-linejoin="round" stroke-miterlimit="10" d="
					M790.119,544.007v14.203c0,4.836,3.92,8.757,8.758,8.757h169.112c4.837,0,8.757-3.921,8.757-8.757v-14.203H790.119z"/>
				
					<rect x="951" y="374" fill="none" stroke="#00C7C4" stroke-width="5" stroke-linecap="round" stroke-linejoin="round" stroke-miterlimit="10" width="14" height="162"/>
				
					<rect x="804" y="374" fill="none" stroke="#00C7C4" stroke-width="5" stroke-linecap="round" stroke-linejoin="round" stroke-miterlimit="10" width="14" height="162"/>
				
					<rect x="824" y="419" fill="none" stroke="#00C7C4" stroke-width="3" stroke-linecap="round" stroke-linejoin="round" stroke-miterlimit="10" width="119" height="10"/>
				
					<path fill="none" stroke="#00C7C4" stroke-width="4.6775" stroke-linecap="round" stroke-linejoin="round" stroke-miterlimit="10" d="
					M926.942,574.37v10.373c0,4.837,3.92,8.757,8.757,8.757h13.683c4.836,0,8.756-3.92,8.756-8.757V574.37H926.942z"/>
				
					<path fill="none" stroke="#00C7C4" stroke-width="4.6775" stroke-linecap="round" stroke-linejoin="round" stroke-miterlimit="10" d="
					M817.759,574.37v10.373c0,4.837,3.92,8.757,8.757,8.757h13.682c4.837,0,8.757-3.92,8.757-8.757V574.37H817.759z"/>
			</g>
		</g>
		<g>
			<path fill="none" stroke="#00C7C4" stroke-width="3" stroke-linecap="round" stroke-linejoin="round" stroke-miterlimit="10" d="
				M848.954,531.167c6.212-27.333,15.355-56.589,24.627-76.171c18.251-3.832,55.585-3.834,76.918,8.166
				C938.162,491.863,924.094,544,924.094,544S900.075,533.834,848.954,531.167z"/>
			<path fill="none" stroke="#00C7C4" stroke-width="3" stroke-linecap="round" stroke-linejoin="round" stroke-miterlimit="10" d="
				M873.581,454.996c0,0,49.919-11.041,69.919-2.269c-1.719,6.469-1.719,6.469-1.719,6.469S910.662,447.992,873.581,454.996z"/>
			<path fill="none" stroke="#00C7C4" stroke-width="3" stroke-linecap="round" stroke-linejoin="round" stroke-miterlimit="10" d="
				M873.581,454.996c0,0,34.423-16.996,61.171-12.496c-1.823,7.54-1.823,7.54-1.823,7.54S912.662,445.492,873.581,454.996z"/>
			<path fill="none" stroke="#00C7C4" stroke-width="3" stroke-linecap="round" stroke-linejoin="round" stroke-miterlimit="10" d="
				M884,462.56c0,0,31.158-7.869,54.162,7.368c0,0-17.223,53.768-18.608,61.902c-6.72-0.532-18.789-8.078-54.122-10.667
				C868.099,511.91,884,462.56,884,462.56z"/>
			<path fill="#00C7C4" d="M877.146,511.507c0,0,24.65,4.312,32.195,7.339c0,0-0.468,2.07-0.908,4.652
				c-2.133-0.169-18.275-4.889-32.182-7.387C877.099,513.174,877.146,511.507,877.146,511.507z"/>
			<g>
				<g>
					<path fill="#00C7C4" d="M874.477,492.29c1.417-1.254,3.743-5.773,5.636-0.525c0.686,1.903,0.86,3.95,1.669,5.825
						c0.717,1.662,3.315,0.955,4.195-0.126c2.459-3.019,3.244-6.669,4.927-10.062c1.454-2.933,4.534-2.405,5.673,0.635
						c0.504,1.345,0.273,3.376,0.285,4.822c0.015,1.79,0.365,3.288,1.42,4.737c0.3,0.412,0.914,0.326,1.316,0.158
						c2.429-1.012,3.372-4.539,4.187-6.743c1.633-4.42,2.88-8.974,4.832-13.274c0.765-1.686,2.416-5.478,4.81-4.157
						c3.99,2.201,2.962,7.523,2.445,11.195c-0.752,5.344-2.062,12.953,0.327,17.982c0.199,0.419,0.707,0.586,1.149,0.424
						c1.717-0.629,2.595-1.511,3.527-3.089c0.234-0.396,3.136-7.428,4.753-3.981c0.415,0.885,0.752,2.968,0.548,3.827
						c-0.677,2.848-1.355,5.696-2.032,8.544c-1.856,7.806-3.713,15.612-5.569,23.418c0.437-0.263,0.873-0.525,1.31-0.788
						c-15.637-3.082-31.275-6.164-46.912-9.246c-2.334-0.46-4.669-0.92-7.003-1.38c0.554,0.109,0.27,1.22,0.781-0.567
						c0.49-1.71,0.979-3.42,1.469-5.13c2.18-7.612,4.359-15.224,6.539-22.836c0.313-1.093-1.609-1.093-1.853-0.242
						c-2.8,9.778-5.6,19.555-8.399,29.333c-0.137,0.478,0.133,0.75,0.597,0.841c18.041,3.556,36.081,7.111,54.122,10.667
						c0.544,0.107,1.181-0.247,1.31-0.788c2.537-10.667,5.074-21.333,7.61-32c0.439-1.845-0.431-6.115-2.802-6.427
						c-3.334-0.438-4.768,3.074-5.855,5.54c-2.344,5.32-2.46-1.008-2.427-3.447c0.032-2.338,0.352-4.663,0.417-7
						c0.131-4.781,2.111-9.738-0.564-14.129c-2.707-4.445-7.005-2.161-9.104,1.195c-3.666,5.861-4.48,13.119-7.555,19.265
						c-1.782,3.561-1.428-1.517-1.443-3.331c-0.012-1.493,0.167-3.836-0.78-5.136c-1.399-1.92-4.072-3.74-6.413-2.089
						c-2.692,1.898-3.113,4.865-4.432,7.653c-1.021,2.158-3.172,6.661-4.388,2.381c-0.457-1.608-0.563-3.941-1.848-5.178
						c-3.492-3.36-5.27,0.105-7.764,2.312C872.204,492.24,873.732,492.948,874.477,492.29z"/>
				</g>
			</g>
		</g>
	</g>
	
		<line fill="none" stroke="#00C7C4" stroke-width="5" stroke-linecap="round" stroke-linejoin="round" stroke-miterlimit="10" x1="113" y1="149.5" x2="113" y2="350.5"/>
	
		<line fill="none" stroke="#00C7C4" stroke-width="5" stroke-linecap="round" stroke-linejoin="round" stroke-miterlimit="10" x1="202" y1="149.5" x2="202" y2="350.5"/>
	
		<line fill="none" stroke="#00C7C4" stroke-width="5" stroke-linecap="round" stroke-linejoin="round" stroke-miterlimit="10" x1="157" y1="282.5" x2="157" y2="402.5"/>
	
		<line fill="none" stroke="#00C7C4" stroke-width="5" stroke-linecap="round" stroke-linejoin="round" stroke-miterlimit="10" x1="1141" y1="37.5" x2="1141" y2="126.5"/>
	
		<line fill="none" stroke="#00C7C4" stroke-width="5" stroke-linecap="round" stroke-linejoin="round" stroke-miterlimit="10" x1="733" y1="269.5" x2="733" y2="358.5"/>
	
		<line fill="none" stroke="#00C7C4" stroke-width="5" stroke-linecap="round" stroke-linejoin="round" stroke-miterlimit="10" x1="1102" y1="2.5" x2="1102" y2="88.5"/>
	
		<line fill="none" stroke="#00C7C4" stroke-width="5" stroke-linecap="round" stroke-linejoin="round" stroke-miterlimit="10" x1="1185" y1="2.5" x2="1185" y2="100.5"/>
	
		<line fill="none" stroke="#00C7C4" stroke-width="5" stroke-linecap="round" stroke-linejoin="round" stroke-miterlimit="10" x1="1022" y1="263.5" x2="1022" y2="361.5"/>
	
		<line fill="none" stroke="#00C7C4" stroke-width="5" stroke-linecap="round" stroke-linejoin="round" stroke-miterlimit="10" x1="992" y1="169.5" x2="992" y2="267.5"/>
	
		<line fill="none" stroke="#00C7C4" stroke-width="5" stroke-linecap="round" stroke-linejoin="round" stroke-miterlimit="10" x1="768" y1="211.5" x2="768" y2="309.5"/>
	<g>
		<path fill="#FFFFFF" d="M657.607,381.656l-0.001,170.522H771.32V381.656H657.607z M674.487,539.045
			c-2.276,0-4.12-1.845-4.12-4.121c0-2.276,1.844-4.121,4.12-4.121c2.276,0,4.122,1.845,4.122,4.121
			C678.609,537.2,676.764,539.045,674.487,539.045z M674.488,403.031c-2.275,0-4.121-1.845-4.121-4.121
			c0-2.276,1.846-4.121,4.121-4.121c2.275,0,4.121,1.844,4.121,4.121C678.609,401.186,676.764,403.032,674.488,403.031z
			 M714.463,528.221c-21.635,0-39.174-17.539-39.174-39.173c0-15.759,9.308-29.343,22.723-35.56
			c-5.266-4.592-8.598-11.345-8.598-18.881c0-13.834,11.215-25.049,25.049-25.048c13.835,0,25.05,11.214,25.05,25.048
			c0,7.536-3.333,14.289-8.599,18.881c13.416,6.217,22.725,19.801,22.725,35.56C753.638,510.683,736.099,528.221,714.463,528.221z
			 M754.438,539.045c-2.275,0-4.119-1.845-4.119-4.121c0-2.276,1.844-4.121,4.119-4.121c2.277,0,4.123,1.845,4.123,4.121
			C758.56,537.2,756.715,539.045,754.438,539.045z M754.438,403.032c-2.275,0-4.119-1.845-4.119-4.121
			c0-2.276,1.844-4.121,4.12-4.121c2.276,0,4.122,1.844,4.122,4.121C758.56,401.186,756.715,403.032,754.438,403.032z"/>
	</g>
	<g>
		<path fill="#D0EFEC" d="M753.588,491.039c-1.037,20.709-18.157,37.182-39.125,37.182c-21.635,0-39.174-17.539-39.174-39.173
			c0-15.759,9.308-29.343,22.723-35.56c-4.525-3.947-7.616-9.492-8.397-15.756c-13.268-16.387-24.034-34.605-32.007-53.979
			l-0.001,168.425H771.32v-52.455C765.283,497.1,759.367,494.201,753.588,491.039z M674.487,539.045c-2.276,0-4.12-1.845-4.12-4.121
			c0-2.276,1.844-4.121,4.12-4.121c2.276,0,4.122,1.845,4.122,4.121C678.609,537.2,676.764,539.045,674.487,539.045z
			 M754.438,539.045c-2.275,0-4.119-1.845-4.119-4.121c0-2.276,1.844-4.121,4.119-4.121c2.277,0,4.123,1.845,4.123,4.121
			C758.56,537.2,756.715,539.045,754.438,539.045z"/>
	</g>
	<g>
		
			<path fill="none" stroke="#00C7C4" stroke-width="4.4411" stroke-linecap="round" stroke-linejoin="round" stroke-miterlimit="10" d="
			M657.607,381.656l-0.001,170.522H771.32V381.656H657.607z M674.487,539.045c-2.276,0-4.12-1.845-4.12-4.121
			c0-2.276,1.844-4.121,4.12-4.121c2.276,0,4.122,1.845,4.122,4.121C678.609,537.2,676.764,539.045,674.487,539.045z
			 M674.488,403.031c-2.275,0-4.121-1.845-4.121-4.121c0-2.276,1.846-4.121,4.121-4.121c2.275,0,4.121,1.844,4.121,4.121
			C678.609,401.186,676.764,403.032,674.488,403.031z M714.463,528.221c-21.635,0-39.174-17.539-39.174-39.173
			c0-15.759,9.308-29.343,22.723-35.56c-5.266-4.592-8.598-11.345-8.598-18.881c0-13.834,11.215-25.049,25.049-25.048
			c13.835,0,25.05,11.214,25.05,25.048c0,7.536-3.333,14.289-8.599,18.881c13.416,6.217,22.725,19.801,22.725,35.56
			C753.638,510.683,736.099,528.221,714.463,528.221z M754.438,539.045c-2.275,0-4.119-1.845-4.119-4.121
			c0-2.276,1.844-4.121,4.119-4.121c2.277,0,4.123,1.845,4.123,4.121C758.56,537.2,756.715,539.045,754.438,539.045z
			 M754.438,403.032c-2.275,0-4.119-1.845-4.119-4.121c0-2.276,1.844-4.121,4.12-4.121c2.276,0,4.122,1.844,4.122,4.121
			C758.56,401.186,756.715,403.032,754.438,403.032z"/>
	</g>
	<g>
		<path fill="#00C7C4" d="M739.221,505.386l-8.42,8.42C734.144,511.596,737.012,508.728,739.221,505.386z"/>
		<path fill="#00C7C4" d="M708.033,460.087l-22.531,22.531c-0.248,1.124-0.434,2.27-0.551,3.436l26.518-26.519
			C710.303,459.652,709.156,459.838,708.033,460.087z"/>
		<path fill="#00C7C4" d="M702.316,461.98l-14.922,14.92c-0.644,1.435-1.178,2.931-1.59,4.476l20.986-20.987
			C705.246,460.802,703.752,461.335,702.316,461.98z"/>
		<path fill="#00C7C4" d="M688.308,475.049l12.157-12.157C695.313,465.655,691.07,469.897,688.308,475.049z"/>
		<path fill="#00C7C4" d="M717.109,484.491l17.351-17.351c-0.503-0.46-1.023-0.902-1.559-1.327l-17.983,17.984
			C715.713,483.865,716.455,484.11,717.109,484.491z"/>
		<path fill="#00C7C4" d="M713.977,483.798l18.396-18.396c-0.55-0.417-1.113-0.814-1.692-1.193l-41.054,41.056
			c0.377,0.578,0.775,1.142,1.191,1.691l18.396-18.396C709.445,486.037,711.453,484.029,713.977,483.798z"/>
		<path fill="#00C7C4" d="M719.021,486.403l17.351-17.351c-0.458-0.502-0.935-0.989-1.426-1.459l-17.274,17.275
			C718.215,485.287,718.675,485.807,719.021,486.403z"/>
		<path fill="#00C7C4" d="M725.666,461.576l-38.674,38.674c0.275,0.675,0.575,1.338,0.898,1.987l39.762-39.763
			C727.004,462.151,726.341,461.852,725.666,461.576z"/>
		<path fill="#00C7C4" d="M722.833,460.585l-36.831,36.833c0.214,0.731,0.456,1.452,0.725,2.159l38.266-38.265
			C724.285,461.042,723.565,460.8,722.833,460.585z"/>
		<path fill="#00C7C4" d="M728.273,462.793l-40.064,40.065c0.328,0.625,0.68,1.236,1.051,1.833l40.848-40.848
			C729.51,463.473,728.898,463.122,728.273,462.793z"/>
		<path fill="#00C7C4" d="M719.736,489.048c0,0.165-0.01,0.328-0.024,0.489l18.397-18.398c-0.413-0.545-0.845-1.076-1.295-1.591
			l-17.479,17.48C719.593,487.651,719.736,488.332,719.736,489.048z"/>
		<path fill="#00C7C4" d="M716.324,459.446l-31.463,31.462c0.055,0.881,0.145,1.751,0.275,2.609l33.797-33.797
			C718.075,459.591,717.205,459.5,716.324,459.446z"/>
		<path fill="#00C7C4" d="M714.463,459.386c-0.662,0-1.319,0.024-1.971,0.067l-27.624,27.624c-0.043,0.652-0.067,1.31-0.067,1.972
			c0,0.323,0.008,0.643,0.018,0.963l30.609-30.608C715.107,459.393,714.785,459.386,714.463,459.386z"/>
		<path fill="#00C7C4" d="M719.74,459.854l-34.471,34.47c0.143,0.798,0.32,1.585,0.525,2.359l36.304-36.304
			C721.324,460.174,720.537,459.997,719.74,459.854z"/>
		<path fill="#00C7C4" d="M743.32,482.165l-35.74,35.74c0.794,0.188,1.6,0.346,2.416,0.47l33.795-33.794
			C743.667,483.764,743.51,482.958,743.32,482.165z"/>
		<path fill="#00C7C4" d="M742.452,479.209l-37.827,37.827c0.723,0.254,1.458,0.482,2.205,0.68l36.302-36.301
			C742.934,480.668,742.706,479.932,742.452,479.209z"/>
		<path fill="#00C7C4" d="M744.5,489.048c0-0.013,0-0.026,0-0.039l-30.016,29.49c0.014,0-0.004,0,0.01,0
			c1.01,0,1.995,0.054,2.981-0.045l26.695-26.463C744.269,491.007,744.5,490.06,744.5,489.048z"/>
		<path fill="#00C7C4" d="M741.344,476.494l-39.434,39.434c0.662,0.31,1.338,0.596,2.027,0.858l38.264-38.264
			C741.94,477.833,741.653,477.157,741.344,476.494z"/>
		<path fill="#00C7C4" d="M742.732,498.05l-19.268,19.267c1.743-0.555,3.416-1.266,5.002-2.117l12.149-12.149
			C741.468,501.465,742.178,499.793,742.732,498.05z"/>
		<path fill="#00C7C4" d="M743.848,493.112l-25.32,25.319c1.229-0.169,2.436-0.412,3.611-0.726l20.982-20.982
			C743.435,495.546,743.678,494.341,743.848,493.112z"/>
		<path fill="#00C7C4" d="M743.902,485.408l-33.08,33.08c0.883,0.107,1.776,0.177,2.68,0.205l30.606-30.605
			C744.08,487.183,744.011,486.289,743.902,485.408z"/>
		<path fill="#00C7C4" d="M714.463,494.321c-0.715,0-1.396-0.144-2.018-0.402l-17.481,17.48c0.515,0.45,1.045,0.881,1.591,1.295
			l18.397-18.397C714.791,494.311,714.629,494.321,714.463,494.321z"/>
		<path fill="#00C7C4" d="M710.285,492.255L693.01,509.53c0.469,0.492,0.956,0.967,1.458,1.426l17.351-17.351
			C711.223,493.259,710.702,492.799,710.285,492.255z"/>
		<path fill="#00C7C4" d="M709.213,489.502l-17.984,17.984c0.426,0.534,0.867,1.055,1.328,1.558l17.35-17.351
			C709.525,491.039,709.281,490.297,709.213,489.502z"/>
		<path fill="#00C7C4" d="M740.023,473.99l-40.616,40.616c0.609,0.36,1.232,0.699,1.869,1.016l39.762-39.762
			C740.721,475.224,740.383,474.6,740.023,473.99z"/>
		<path fill="#00C7C4" d="M738.51,471.679l-19.053,19.052c-0.524,1.557-1.754,2.786-3.31,3.311l-19.051,19.051
			c0.561,0.406,1.137,0.792,1.726,1.159l40.847-40.847C739.301,472.816,738.915,472.24,738.51,471.679z"/>
		<path fill="#00C7C4" d="M710.7,438.298l-8.258,8.258c0.481,0.483,0.992,0.934,1.527,1.357l8.446-8.446
			C711.768,439.194,711.185,438.793,710.7,438.298z"/>
		<path fill="#00C7C4" d="M729.622,427.024l-22.741,22.742c0.654,0.328,1.331,0.614,2.029,0.856l21.568-21.567
			C730.236,428.356,729.95,427.679,729.622,427.024z"/>
		<path fill="#00C7C4" d="M709.19,434.607c0-2.913,2.361-5.273,5.273-5.273c0.141,0,0.279,0.01,0.418,0.021l8.902-8.904
			c-0.586-0.387-1.197-0.739-1.833-1.052l-22.694,22.695c0.313,0.635,0.664,1.247,1.051,1.833l8.904-8.904
			C709.2,434.886,709.19,434.748,709.19,434.607z"/>
		<path fill="#00C7C4" d="M730.707,429.764l-21.086,21.087c0.766,0.228,1.554,0.405,2.36,0.523l19.249-19.25
			C731.113,431.318,730.935,430.53,730.707,429.764z"/>
		<path fill="#00C7C4" d="M729.482,442.461l-7.166,7.166C725.375,448.025,727.881,445.519,729.482,442.461z"/>
		<path fill="#00C7C4" d="M715.975,417.728l-18.391,18.391c0.074,0.846,0.211,1.673,0.406,2.479l20.463-20.463
			C717.648,417.939,716.82,417.802,715.975,417.728z"/>
		<path fill="#00C7C4" d="M714.463,439.881c-0.464,0-0.912-0.066-1.342-0.179l-8.617,8.618c0.562,0.409,1.148,0.785,1.76,1.124
			l9.819-9.818C715.572,439.79,715.029,439.881,714.463,439.881z"/>
		<path fill="#00C7C4" d="M709.34,435.835l-8.648,8.649c0.399,0.556,0.83,1.089,1.293,1.592l8.283-8.283
			C709.832,437.22,709.512,436.557,709.34,435.835z"/>
		<path fill="#00C7C4" d="M720.597,450.409l9.668-9.668c0.478-1.23,0.815-2.53,0.995-3.88l-14.543,14.543
			C718.066,451.224,719.366,450.887,720.597,450.409z"/>
		<path fill="#00C7C4" d="M714.463,451.558c0.406,0,0.809-0.02,1.209-0.048l15.694-15.694c0.028-0.399,0.047-0.802,0.047-1.208
			c0-0.555-0.028-1.103-0.081-1.644l-18.513,18.514C713.36,451.529,713.908,451.558,714.463,451.558z"/>
		<path fill="#00C7C4" d="M702.184,422.93l0.602-0.602C702.58,422.523,702.379,422.724,702.184,422.93z"/>
		<path fill="#00C7C4" d="M719.736,434.607c0,0.565-0.091,1.109-0.255,1.62l9.817-9.818c-0.338-0.611-0.715-1.199-1.123-1.761
			l-8.617,8.617C719.671,433.694,719.736,434.143,719.736,434.607z"/>
		<path fill="#00C7C4" d="M719.324,432.559l8.445-8.445c-0.422-0.536-0.873-1.047-1.357-1.527l-8.258,8.258
			C718.649,431.33,719.051,431.911,719.324,432.559z"/>
		<path fill="#00C7C4" d="M717.648,430.411l8.283-8.283c-0.504-0.462-1.036-0.892-1.593-1.293l-8.648,8.648
			C716.413,429.656,717.076,429.976,717.648,430.411z"/>
		<path fill="#00C7C4" d="M714.463,417.656c-0.82,0-1.627,0.062-2.418,0.175l-14.357,14.358c-0.113,0.79-0.175,1.597-0.175,2.417
			c0,0.211,0.009,0.418,0.016,0.626l17.561-17.561C714.881,417.665,714.674,417.656,714.463,417.656z"/>
		<path fill="#00C7C4" d="M706.305,419.748l-6.701,6.701c-0.781,1.421-1.363,2.966-1.713,4.598l13.012-13.013
			C709.271,418.383,707.727,418.966,706.305,419.748z"/>
		<path fill="#00C7C4" d="M719.194,418.331l-21.007,21.007c0.211,0.727,0.468,1.433,0.769,2.115l22.353-22.353
			C720.627,418.799,719.921,418.542,719.194,418.331z"/>
	</g>
</g>
</svg>
