<?xml version="1.0" encoding="utf-8"?>
<!-- Generator: Adobe Illustrator 17.0.0, SVG Export Plug-In . SVG Version: 6.00 Build 0)  -->
<!DOCTYPE svg PUBLIC "-//W3C//DTD SVG 1.1//EN" "http://www.w3.org/Graphics/SVG/1.1/DTD/svg11.dtd">
<svg version="1.1" id="Layer_1" xmlns="http://www.w3.org/2000/svg" xmlns:xlink="http://www.w3.org/1999/xlink" x="0px" y="0px"
	 width="130.652px" height="133.342px" viewBox="0 0 130.652 133.342" enable-background="new 0 0 130.652 133.342"
	 xml:space="preserve">
<g>
</g>
<g>
	<path fill="#FFFFFF" d="M47.312,108.118c-0.37,1.447-0.589,2.958-0.589,4.521c0,10.062,8.155,18.216,18.215,18.216
		c10.061,0,18.215-8.154,18.215-18.216c0-1.492-0.199-2.936-0.538-4.324c-5.795-0.66-12.056-1.02-18.588-1.02
		C58.191,107.296,52.576,107.587,47.312,108.118z"/>
	
		<path fill="none" stroke="#00C7C4" stroke-width="4.9733" stroke-linecap="round" stroke-linejoin="round" stroke-miterlimit="10" d="
		M47.312,108.118c-0.37,1.447-0.589,2.958-0.589,4.521c0,10.062,8.155,18.216,18.215,18.216c10.061,0,18.215-8.154,18.215-18.216
		c0-1.492-0.199-2.936-0.538-4.324c-5.795-0.66-12.056-1.02-18.588-1.02C58.191,107.296,52.576,107.587,47.312,108.118z"/>
	<g>
		<g>
			<path fill="#FFFFFF" d="M66.104,38.905c7.992,0,15.666,0.862,22.833,3.351c-1.47-11.933-11.637-21.427-23.967-21.427
				c-12.494,0-22.772,9.866-24.027,22.028c7.592-2.795,15.786-3.952,24.344-3.952H66.104z"/>
		</g>
		<g>
			<path fill="#FFFFFF" d="M127.652,108.244c-1.257-33.38-28.698-60.059-62.387-60.059c-32.967,0-59.947,25.55-62.266,57.926
				C58.394,90.663,106.773,101.694,127.652,108.244z"/>
		</g>
		<g>
			<g>
				<path fill="#D0EFEC" d="M66.104,38.905c1.349,0,2.685,0.038,4.014,0.092c0.046-0.084,0.093-0.169,0.139-0.254
					c-4.867-4.516-8.115-10.756-8.685-17.666c-10.916,1.595-19.489,10.742-20.629,21.78c7.592-2.795,15.786-3.952,24.344-3.952
					H66.104z"/>
			</g>
			<path fill="#D0EFEC" d="M64.806,107.306c-0.262,0-0.517-0.01-0.779-0.01c-5.835,0-11.45,0.291-16.715,0.822
				c-0.37,1.447-0.589,2.958-0.589,4.521c0,10.062,8.155,18.216,18.215,18.216c4.397,0,8.431-1.559,11.578-4.152
				C66.433,125.47,62.531,115.397,64.806,107.306z"/>
			<g>
				<path fill="#D0EFEC" d="M75.804,97.216c-7.516-9.146-12.076-20.772-12.076-33.31c0-5.446,0.861-10.722,2.448-15.697
					c-0.304-0.004-0.604-0.022-0.91-0.022c-32.967,0-59.947,25.55-62.266,57.926c24.971-6.964,48.497-8.533,68.739-7.571
					C72.949,97.923,74.304,97.47,75.804,97.216z"/>
			</g>
		</g>
		<g>
			<path fill="none" stroke="#00C7C4" stroke-width="5" stroke-linecap="round" stroke-linejoin="round" stroke-miterlimit="10" d="
				M66.104,38.405c7.992,0,15.666,1.112,22.833,3.601c-1.47-11.933-11.637-21.302-23.967-21.302
				c-12.494,0-22.772,9.679-24.027,21.84c7.592-2.795,15.786-4.139,24.344-4.139H66.104z"/>
		</g>
		<circle fill="#00C7C4" cx="64.54" cy="7.826" r="7.825"/>
		<g>
			<path fill="none" stroke="#00C7C4" stroke-width="6" stroke-linecap="round" stroke-linejoin="round" stroke-miterlimit="10" d="
				M127.652,108.244c-1.257-33.38-28.698-60.059-62.387-60.059c-32.967,0-59.947,25.55-62.266,57.926
				C58.394,90.663,106.773,101.694,127.652,108.244z"/>
		</g>
	</g>
</g>
<g display="none">
</g>
<g display="none">
	<g display="inline">
		<path fill="#FFFFFF" d="M97.102,130.061l-0.001,170.522h113.714V130.061H97.102z M113.981,287.45c-2.276,0-4.12-1.845-4.12-4.121
			c0-2.276,1.844-4.121,4.12-4.121s4.122,1.845,4.122,4.121C118.104,285.605,116.258,287.45,113.981,287.45z M113.982,151.436
			c-2.275,0-4.121-1.845-4.121-4.121c0-2.276,1.846-4.121,4.121-4.121c2.275,0,4.121,1.844,4.121,4.121
			C118.104,149.592,116.258,151.437,113.982,151.436z M153.957,276.626c-21.635,0-39.174-17.539-39.174-39.173
			c0-15.759,9.308-29.343,22.723-35.56c-5.266-4.592-8.598-11.345-8.598-18.881c0-13.834,11.215-25.049,25.049-25.048
			c13.835,0,25.05,11.214,25.05,25.048c0,7.536-3.333,14.289-8.599,18.881c13.416,6.217,22.725,19.801,22.725,35.56
			C193.132,259.088,175.593,276.626,153.957,276.626z M193.932,287.45c-2.275,0-4.119-1.845-4.119-4.121
			c0-2.276,1.844-4.121,4.119-4.121c2.277,0,4.123,1.845,4.123,4.121C198.055,285.605,196.209,287.45,193.932,287.45z
			 M193.932,151.437c-2.275,0-4.119-1.845-4.119-4.121c0-2.276,1.844-4.121,4.12-4.121c2.276,0,4.122,1.844,4.122,4.121
			C198.055,149.592,196.209,151.437,193.932,151.437z"/>
	</g>
	<g display="inline">
		<path fill="#D0EFEC" d="M193.082,239.444c-1.037,20.709-18.157,37.182-39.125,37.182c-21.635,0-39.174-17.539-39.174-39.173
			c0-15.759,9.308-29.343,22.723-35.56c-4.525-3.947-7.616-9.492-8.397-15.756c-13.268-16.387-24.034-34.605-32.007-53.979
			l-0.001,168.425h113.714v-52.455C204.777,245.505,198.861,242.607,193.082,239.444z M113.981,287.45
			c-2.276,0-4.12-1.845-4.12-4.121c0-2.276,1.844-4.121,4.12-4.121s4.122,1.845,4.122,4.121
			C118.104,285.605,116.258,287.45,113.981,287.45z M193.932,287.45c-2.275,0-4.119-1.845-4.119-4.121
			c0-2.276,1.844-4.121,4.119-4.121c2.277,0,4.123,1.845,4.123,4.121C198.055,285.605,196.209,287.45,193.932,287.45z"/>
	</g>
	<g display="inline">
		
			<path fill="none" stroke="#00C7C4" stroke-width="4.4411" stroke-linecap="round" stroke-linejoin="round" stroke-miterlimit="10" d="
			M97.102,130.061l-0.001,170.522h113.714V130.061H97.102z M113.981,287.45c-2.276,0-4.12-1.845-4.12-4.121
			c0-2.276,1.844-4.121,4.12-4.121s4.122,1.845,4.122,4.121C118.104,285.605,116.258,287.45,113.981,287.45z M113.982,151.436
			c-2.275,0-4.121-1.845-4.121-4.121c0-2.276,1.846-4.121,4.121-4.121c2.275,0,4.121,1.844,4.121,4.121
			C118.104,149.592,116.258,151.437,113.982,151.436z M153.957,276.626c-21.635,0-39.174-17.539-39.174-39.173
			c0-15.759,9.308-29.343,22.723-35.56c-5.266-4.592-8.598-11.345-8.598-18.881c0-13.834,11.215-25.049,25.049-25.048
			c13.835,0,25.05,11.214,25.05,25.048c0,7.536-3.333,14.289-8.599,18.881c13.416,6.217,22.725,19.801,22.725,35.56
			C193.132,259.088,175.593,276.626,153.957,276.626z M193.932,287.45c-2.275,0-4.119-1.845-4.119-4.121
			c0-2.276,1.844-4.121,4.119-4.121c2.277,0,4.123,1.845,4.123,4.121C198.055,285.605,196.209,287.45,193.932,287.45z
			 M193.932,151.437c-2.275,0-4.119-1.845-4.119-4.121c0-2.276,1.844-4.121,4.12-4.121c2.276,0,4.122,1.844,4.122,4.121
			C198.055,149.592,196.209,151.437,193.932,151.437z"/>
	</g>
</g>
</svg>
