<?xml version="1.0" encoding="utf-8"?>
<!-- Generator: Adobe Illustrator 17.0.0, SVG Export Plug-In . SVG Version: 6.00 Build 0)  -->
<!DOCTYPE svg PUBLIC "-//W3C//DTD SVG 1.1//EN" "http://www.w3.org/Graphics/SVG/1.1/DTD/svg11.dtd">
<svg version="1.1" id="Layer_1" xmlns="http://www.w3.org/2000/svg" xmlns:xlink="http://www.w3.org/1999/xlink" x="0px" y="0px"
	 width="97.296px" height="129px" viewBox="0 0 97.296 129" enable-background="new 0 0 97.296 129" xml:space="preserve">
<g>
	<path fill="#D0EFEC" d="M93,117.642c0,5.168-4.189,9.358-9.357,9.358H11.357C6.189,127,2,122.811,2,117.642V12.358
		C2,7.189,6.189,3,11.357,3h72.285C88.811,3,93,7.189,93,12.358V117.642z"/>
	<path fill="none" stroke="#00C7C4" stroke-width="5" stroke-linecap="round" stroke-linejoin="round" stroke-miterlimit="10" d="
		M93.5,117.142c0,5.168-4.189,9.358-9.357,9.358H11.857c-5.168,0-9.357-4.189-9.357-9.358V11.858C2.5,6.689,6.689,2.5,11.857,2.5
		h72.285c5.168,0,9.357,4.189,9.357,9.358V117.142z"/>
	<rect x="13" y="13" fill="#FFFFFF" width="71" height="89"/>
	
		<rect x="13.5" y="12.5" fill="none" stroke="#00C7C4" stroke-width="5" stroke-linecap="round" stroke-linejoin="round" stroke-miterlimit="10" width="71" height="89"/>
	<g>
		<path fill="#FFFFFF" d="M16.27,69.609H2.756v24.922H16.27c5.813,0,10.523-4.711,10.523-10.524v-3.874
			C26.793,74.321,22.082,69.609,16.27,69.609z"/>
		<path fill="#FFFFFF" d="M82.127,94.532h13.514V69.609H82.127c-5.813,0-10.523,4.711-10.523,10.524v3.874
			C71.604,89.82,76.314,94.532,82.127,94.532z"/>
	</g>
	<g>
		<path fill="#D0EFEC" d="M11.865,69.609H2.756v24.922H16.27c3.132,0,5.936-1.376,7.863-3.546
			C17.164,86.233,12.389,78.418,11.865,69.609z"/>
		<path fill="#D0EFEC" d="M78.443,70.285c-3.992,1.494-6.84,5.333-6.84,9.848v3.874c0,5.813,4.711,10.524,10.523,10.524h8.807
			C85.469,87.276,81.203,79.088,78.443,70.285z"/>
	</g>
	<g>
		
			<path fill="none" stroke="#00C7C4" stroke-width="3.3115" stroke-linecap="round" stroke-linejoin="round" stroke-miterlimit="10" d="
			M16.27,69.609H2.756v24.922H16.27c5.813,0,10.523-4.711,10.523-10.524v-3.874C26.793,74.321,22.082,69.609,16.27,69.609z"/>
		
			<path fill="none" stroke="#00C7C4" stroke-width="3.3115" stroke-linecap="round" stroke-linejoin="round" stroke-miterlimit="10" d="
			M82.127,94.532h13.514V69.609H82.127c-5.813,0-10.523,4.711-10.523,10.524v3.874C71.604,89.82,76.314,94.532,82.127,94.532z"/>
	</g>
	<g>
		<circle fill="#FFFFFF" cx="48.767" cy="113.317" r="7.985"/>
	</g>
	<g>
		
			<circle fill="none" stroke="#00C7C4" stroke-width="3" stroke-linecap="round" stroke-linejoin="round" stroke-miterlimit="10" cx="48.767" cy="114.317" r="7.985"/>
	</g>
</g>
<g>
</g>
</svg>
