<svg xmlns="http://www.w3.org/2000/svg" version="1.1" x="0" y="0" width="97.3" height="129" viewBox="0 0 97.3 129" enable-background="new 0 0 97.296 129" xml:space="preserve"><path fill="#D0EFEC" d="M93 117.6c0 5.2-4.2 9.4-9.4 9.4H11.4C6.2 127 2 122.8 2 117.6V12.4C2 7.2 6.2 3 11.4 3h72.3C88.8 3 93 7.2 93 12.4V117.6z"/><path fill="none" stroke="#00C7C4" stroke-width="5" stroke-linecap="round" stroke-linejoin="round" stroke-miterlimit="10" d="M93.5 117.1c0 5.2-4.2 9.4-9.4 9.4H11.9c-5.2 0-9.4-4.2-9.4-9.4V11.9C2.5 6.7 6.7 2.5 11.9 2.5h72.3c5.2 0 9.4 4.2 9.4 9.4V117.1z"/><rect x="13" y="13" fill="#FFFFFF" width="71" height="89"/><rect x="13.5" y="12.5" fill="none" stroke="#00C7C4" stroke-width="5" stroke-linecap="round" stroke-linejoin="round" stroke-miterlimit="10" width="71" height="89"/><path fill="#FFFFFF" d="M16.3 69.6H2.8v24.9H16.3c5.8 0 10.5-4.7 10.5-10.5v-3.9C26.8 74.3 22.1 69.6 16.3 69.6z"/><path fill="#FFFFFF" d="M82.1 94.5h13.5V69.6H82.1c-5.8 0-10.5 4.7-10.5 10.5v3.9C71.6 89.8 76.3 94.5 82.1 94.5z"/><path fill="#D0EFEC" d="M11.9 69.6H2.8v24.9H16.3c3.1 0 5.9-1.4 7.9-3.5C17.2 86.2 12.4 78.4 11.9 69.6z"/><path fill="#D0EFEC" d="M78.4 70.3c-4 1.5-6.8 5.3-6.8 9.8v3.9c0 5.8 4.7 10.5 10.5 10.5h8.8C85.5 87.3 81.2 79.1 78.4 70.3z"/><path fill="none" stroke="#00C7C4" stroke-width="3.3" stroke-linecap="round" stroke-linejoin="round" stroke-miterlimit="10" d="M16.3 69.6H2.8v24.9H16.3c5.8 0 10.5-4.7 10.5-10.5v-3.9C26.8 74.3 22.1 69.6 16.3 69.6z"/><path fill="none" stroke="#00C7C4" stroke-width="3.3" stroke-linecap="round" stroke-linejoin="round" stroke-miterlimit="10" d="M82.1 94.5h13.5V69.6H82.1c-5.8 0-10.5 4.7-10.5 10.5v3.9C71.6 89.8 76.3 94.5 82.1 94.5z"/><circle fill="#FFFFFF" cx="48.8" cy="113.3" r="8"/><circle fill="none" stroke="#00C7C4" stroke-width="3" stroke-linecap="round" stroke-linejoin="round" stroke-miterlimit="10" cx="48.8" cy="114.3" r="8"/></svg>