<?xml version="1.0" encoding="utf-8"?>
<!-- Generator: Adobe Illustrator 17.0.0, SVG Export Plug-In . SVG Version: 6.00 Build 0)  -->
<!DOCTYPE svg PUBLIC "-//W3C//DTD SVG 1.1//EN" "http://www.w3.org/Graphics/SVG/1.1/DTD/svg11.dtd">
<svg version="1.1" id="Layer_1" xmlns="http://www.w3.org/2000/svg" xmlns:xlink="http://www.w3.org/1999/xlink" x="0px" y="0px"
	 width="118.155px" height="174.963px" viewBox="0 0 118.155 174.963" enable-background="new 0 0 118.155 174.963"
	 xml:space="preserve">
<g>
	<g>
	</g>
</g>
<g display="none">
	
		<line display="inline" fill="none" stroke="#00C7C4" stroke-width="3" stroke-linecap="round" stroke-linejoin="round" stroke-miterlimit="10" x1="-32.886" y1="99.564" x2="12.114" y2="99.564"/>
</g>
<g>
	<g>
		<path fill="#FFFFFF" d="M2.222,2.221L2.221,172.743h113.714V2.221H2.222z M19.101,159.609c-2.276,0-4.12-1.845-4.12-4.121
			c0-2.276,1.844-4.121,4.12-4.121s4.122,1.845,4.122,4.121C23.224,157.765,21.378,159.609,19.101,159.609z M19.102,23.596
			c-2.275,0-4.121-1.845-4.121-4.121c0-2.276,1.846-4.121,4.121-4.121c2.275,0,4.121,1.844,4.121,4.121
			C23.224,21.751,21.378,23.596,19.102,23.596z M59.077,148.786c-21.635,0-39.174-17.539-39.174-39.173
			c0-15.759,9.308-29.343,22.723-35.56c-5.266-4.592-8.598-11.345-8.598-18.881c0-13.834,11.215-25.049,25.049-25.048
			c13.835,0,25.05,11.214,25.05,25.048c0,7.536-3.333,14.289-8.599,18.881c13.416,6.217,22.725,19.801,22.725,35.56
			C98.252,131.247,80.713,148.786,59.077,148.786z M99.052,159.609c-2.275,0-4.119-1.845-4.119-4.121
			c0-2.276,1.844-4.121,4.119-4.121c2.277,0,4.123,1.845,4.123,4.121C103.175,157.765,101.329,159.609,99.052,159.609z
			 M99.052,23.596c-2.275,0-4.119-1.845-4.119-4.121c0-2.276,1.844-4.121,4.12-4.121c2.276,0,4.122,1.844,4.122,4.121
			C103.175,21.751,101.329,23.596,99.052,23.596z"/>
	</g>
	<g>
		<path fill="#D0EFEC" d="M98.202,111.603c-1.037,20.709-18.157,37.182-39.125,37.182c-21.635,0-39.174-17.539-39.174-39.173
			c0-15.759,9.308-29.343,22.723-35.56c-4.525-3.947-7.616-9.492-8.397-15.756C20.961,41.91,10.194,23.691,2.222,4.317
			L2.221,172.743h113.714v-52.455C109.897,117.664,103.981,114.766,98.202,111.603z M19.101,159.609c-2.276,0-4.12-1.845-4.12-4.121
			c0-2.276,1.844-4.121,4.12-4.121s4.122,1.845,4.122,4.121C23.224,157.765,21.378,159.609,19.101,159.609z M99.052,159.609
			c-2.275,0-4.119-1.845-4.119-4.121c0-2.276,1.844-4.121,4.119-4.121c2.277,0,4.123,1.845,4.123,4.121
			C103.175,157.765,101.329,159.609,99.052,159.609z"/>
	</g>
	<g>
		
			<path fill="none" stroke="#00C7C4" stroke-width="4.4411" stroke-linecap="round" stroke-linejoin="round" stroke-miterlimit="10" d="
			M2.222,2.221L2.221,172.743h113.714V2.221H2.222z M19.101,159.609c-2.276,0-4.12-1.845-4.12-4.121c0-2.276,1.844-4.121,4.12-4.121
			s4.122,1.845,4.122,4.121C23.224,157.765,21.378,159.609,19.101,159.609z M19.102,23.596c-2.275,0-4.121-1.845-4.121-4.121
			c0-2.276,1.846-4.121,4.121-4.121c2.275,0,4.121,1.844,4.121,4.121C23.224,21.751,21.378,23.596,19.102,23.596z M59.077,148.786
			c-21.635,0-39.174-17.539-39.174-39.173c0-15.759,9.308-29.343,22.723-35.56c-5.266-4.592-8.598-11.345-8.598-18.881
			c0-13.834,11.215-25.049,25.049-25.048c13.835,0,25.05,11.214,25.05,25.048c0,7.536-3.333,14.289-8.599,18.881
			c13.416,6.217,22.725,19.801,22.725,35.56C98.252,131.247,80.713,148.786,59.077,148.786z M99.052,159.609
			c-2.275,0-4.119-1.845-4.119-4.121c0-2.276,1.844-4.121,4.119-4.121c2.277,0,4.123,1.845,4.123,4.121
			C103.175,157.765,101.329,159.609,99.052,159.609z M99.052,23.596c-2.275,0-4.119-1.845-4.119-4.121
			c0-2.276,1.844-4.121,4.12-4.121c2.276,0,4.122,1.844,4.122,4.121C103.175,21.751,101.329,23.596,99.052,23.596z"/>
	</g>
	<g>
		<path fill="#00C7C4" d="M83.835,125.951l-8.42,8.419C78.758,132.161,81.626,129.292,83.835,125.951z"/>
		<path fill="#00C7C4" d="M52.647,80.651l-22.531,22.531c-0.248,1.123-0.434,2.269-0.551,3.436L56.083,80.1
			C54.917,80.217,53.77,80.403,52.647,80.651z"/>
		<path fill="#00C7C4" d="M46.931,82.544l-14.922,14.92c-0.644,1.435-1.178,2.931-1.59,4.476l20.986-20.987
			C49.86,81.367,48.366,81.899,46.931,82.544z"/>
		<path fill="#00C7C4" d="M32.922,95.614l12.157-12.157C39.927,86.22,35.684,90.461,32.922,95.614z"/>
		<path fill="#00C7C4" d="M61.724,105.055l17.351-17.351c-0.503-0.46-1.023-0.902-1.559-1.327l-17.983,17.984
			C60.327,104.429,61.069,104.674,61.724,105.055z"/>
		<path fill="#00C7C4" d="M58.591,104.363l18.396-18.396c-0.55-0.417-1.113-0.814-1.692-1.193L34.241,125.83
			c0.377,0.578,0.775,1.142,1.191,1.691l18.396-18.396C54.059,106.601,56.067,104.594,58.591,104.363z"/>
		<path fill="#00C7C4" d="M63.636,106.968l17.351-17.351c-0.458-0.502-0.935-0.989-1.426-1.459l-17.274,17.275
			C62.829,105.851,63.289,106.371,63.636,106.968z"/>
		<path fill="#00C7C4" d="M70.28,82.141l-38.674,38.674c0.275,0.675,0.575,1.338,0.898,1.987l39.762-39.763
			C71.618,82.716,70.955,82.416,70.28,82.141z"/>
		<path fill="#00C7C4" d="M67.447,81.149l-36.831,36.832c0.214,0.731,0.456,1.452,0.725,2.159l38.266-38.265
			C68.899,81.606,68.179,81.364,67.447,81.149z"/>
		<path fill="#00C7C4" d="M72.888,83.357l-40.064,40.065c0.328,0.625,0.68,1.236,1.051,1.834l40.848-40.848
			C74.124,84.037,73.513,83.686,72.888,83.357z"/>
		<path fill="#00C7C4" d="M64.35,109.612c0,0.165-0.01,0.328-0.024,0.489l18.397-18.398c-0.413-0.545-0.845-1.076-1.295-1.591
			l-17.479,17.48C64.207,108.216,64.35,108.897,64.35,109.612z"/>
		<path fill="#00C7C4" d="M60.938,80.01l-31.463,31.462c0.055,0.881,0.145,1.752,0.275,2.609l33.797-33.797
			C62.689,80.156,61.819,80.064,60.938,80.01z"/>
		<path fill="#00C7C4" d="M59.077,79.95c-0.662,0-1.319,0.024-1.971,0.067l-27.624,27.624c-0.043,0.652-0.067,1.309-0.067,1.972
			c0,0.323,0.008,0.643,0.018,0.963l30.609-30.608C59.722,79.957,59.399,79.95,59.077,79.95z"/>
		<path fill="#00C7C4" d="M64.354,80.418l-34.471,34.47c0.143,0.798,0.32,1.585,0.525,2.359l36.304-36.304
			C65.938,80.739,65.151,80.561,64.354,80.418z"/>
		<path fill="#00C7C4" d="M87.934,102.729l-35.74,35.74c0.794,0.188,1.6,0.346,2.416,0.47l33.795-33.794
			C88.281,104.328,88.124,103.523,87.934,102.729z"/>
		<path fill="#00C7C4" d="M87.066,99.773L49.239,137.6c0.723,0.254,1.458,0.482,2.205,0.68l36.302-36.301
			C87.548,101.232,87.32,100.496,87.066,99.773z"/>
		<path fill="#00C7C4" d="M89.114,109.613c0-0.013,0-0.026,0-0.039l-30.016,29.49c0.014,0-0.004,0,0.01,0
			c1.01,0,1.995,0.054,2.98-0.045l26.695-26.463C88.884,111.571,89.114,110.624,89.114,109.613z"/>
		<path fill="#00C7C4" d="M85.958,97.058l-39.434,39.434c0.662,0.31,1.338,0.596,2.027,0.857l38.264-38.264
			C86.554,98.397,86.267,97.721,85.958,97.058z"/>
		<path fill="#00C7C4" d="M87.347,118.615l-19.268,19.267c1.743-0.555,3.416-1.266,5.002-2.117l12.149-12.149
			C86.082,122.03,86.792,120.357,87.347,118.615z"/>
		<path fill="#00C7C4" d="M88.462,113.676l-25.32,25.319c1.23-0.169,2.436-0.412,3.611-0.726l20.982-20.982
			C88.05,116.111,88.292,114.905,88.462,113.676z"/>
		<path fill="#00C7C4" d="M88.516,105.972l-33.08,33.08c0.883,0.107,1.776,0.177,2.68,0.205l30.606-30.605
			C88.694,107.747,88.625,106.853,88.516,105.972z"/>
		<path fill="#00C7C4" d="M59.077,114.885c-0.715,0-1.396-0.144-2.018-0.402l-17.48,17.48c0.515,0.45,1.045,0.881,1.591,1.295
			l18.397-18.397C59.405,114.876,59.243,114.885,59.077,114.885z"/>
		<path fill="#00C7C4" d="M54.899,112.82l-17.275,17.275c0.469,0.492,0.956,0.967,1.458,1.426l17.351-17.351
			C55.837,113.823,55.316,113.364,54.899,112.82z"/>
		<path fill="#00C7C4" d="M53.827,110.066l-17.984,17.984c0.426,0.534,0.867,1.055,1.328,1.558l17.35-17.351
			C54.14,111.603,53.895,110.861,53.827,110.066z"/>
		<path fill="#00C7C4" d="M84.637,94.555L44.02,135.171c0.609,0.36,1.232,0.699,1.869,1.016l39.762-39.762
			C85.335,95.788,84.997,95.164,84.637,94.555z"/>
		<path fill="#00C7C4" d="M83.124,92.244l-19.053,19.052c-0.524,1.557-1.754,2.786-3.31,3.311L41.71,133.658
			c0.561,0.406,1.137,0.792,1.726,1.159L84.282,93.97C83.915,93.38,83.529,92.805,83.124,92.244z"/>
		<path fill="#00C7C4" d="M55.314,58.863l-8.258,8.258c0.481,0.483,0.992,0.935,1.527,1.357l8.446-8.446
			C56.382,59.759,55.8,59.358,55.314,58.863z"/>
		<path fill="#00C7C4" d="M74.236,47.589L51.495,70.33c0.654,0.328,1.331,0.614,2.029,0.856l21.568-21.567
			C74.85,48.92,74.564,48.243,74.236,47.589z"/>
		<path fill="#00C7C4" d="M53.804,55.171c0-2.913,2.361-5.273,5.273-5.273c0.141,0,0.279,0.01,0.418,0.021l8.902-8.904
			c-0.586-0.387-1.197-0.739-1.833-1.052L43.87,62.659c0.313,0.635,0.664,1.247,1.051,1.833l8.904-8.904
			C53.814,55.45,53.804,55.312,53.804,55.171z"/>
		<path fill="#00C7C4" d="M75.321,50.329L54.235,71.416c0.766,0.228,1.554,0.405,2.36,0.523l19.249-19.25
			C75.727,51.883,75.55,51.095,75.321,50.329z"/>
		<path fill="#00C7C4" d="M74.097,63.026l-7.166,7.166C69.989,68.59,72.495,66.083,74.097,63.026z"/>
		<path fill="#00C7C4" d="M60.589,38.292L42.198,56.683c0.074,0.846,0.211,1.673,0.406,2.479l20.463-20.463
			C62.262,38.503,61.434,38.366,60.589,38.292z"/>
		<path fill="#00C7C4" d="M59.077,60.445c-0.464,0-0.912-0.066-1.342-0.179l-8.617,8.618c0.562,0.409,1.148,0.785,1.76,1.124
			l9.819-9.818C60.186,60.354,59.643,60.445,59.077,60.445z"/>
		<path fill="#00C7C4" d="M53.954,56.399l-8.648,8.649c0.399,0.556,0.83,1.089,1.293,1.592l8.283-8.283
			C54.446,57.784,54.126,57.121,53.954,56.399z"/>
		<path fill="#00C7C4" d="M65.211,70.973l9.668-9.668c0.478-1.23,0.815-2.53,0.995-3.88L61.331,71.968
			C62.681,71.788,63.98,71.451,65.211,70.973z"/>
		<path fill="#00C7C4" d="M59.077,72.122c0.406,0,0.809-0.02,1.209-0.048L75.98,56.38c0.028-0.399,0.047-0.802,0.047-1.208
			c0-0.555-0.028-1.103-0.081-1.644L57.433,72.041C57.975,72.093,58.522,72.122,59.077,72.122z"/>
		<path fill="#00C7C4" d="M46.798,43.494l0.602-0.602C47.194,43.088,46.993,43.288,46.798,43.494z"/>
		<path fill="#00C7C4" d="M64.35,55.171c0,0.565-0.091,1.109-0.255,1.62l9.817-9.818c-0.338-0.611-0.715-1.199-1.123-1.761
			l-8.617,8.617C64.285,54.259,64.35,54.707,64.35,55.171z"/>
		<path fill="#00C7C4" d="M63.938,53.123l8.445-8.445c-0.422-0.536-0.873-1.047-1.357-1.527l-8.258,8.258
			C63.264,51.894,63.665,52.475,63.938,53.123z"/>
		<path fill="#00C7C4" d="M62.263,50.975l8.283-8.283c-0.504-0.462-1.036-0.893-1.593-1.293l-8.648,8.648
			C61.027,50.22,61.69,50.54,62.263,50.975z"/>
		<path fill="#00C7C4" d="M59.077,38.221c-0.82,0-1.627,0.062-2.418,0.175L42.302,52.754c-0.113,0.79-0.175,1.597-0.175,2.417
			c0,0.21,0.009,0.418,0.016,0.626l17.562-17.561C59.495,38.229,59.288,38.221,59.077,38.221z"/>
		<path fill="#00C7C4" d="M50.919,40.312l-6.701,6.701c-0.781,1.421-1.363,2.966-1.713,4.598l13.012-13.013
			C53.886,38.948,52.341,39.531,50.919,40.312z"/>
		<path fill="#00C7C4" d="M63.808,38.895L42.802,59.903c0.211,0.727,0.468,1.433,0.77,2.115l22.353-22.353
			C65.241,39.364,64.535,39.106,63.808,38.895z"/>
	</g>
</g>
</svg>
