<svg xmlns="http://www.w3.org/2000/svg" version="1.1" x="0" y="0" width="118.2" height="175" viewBox="0 0 118.2 175" enable-background="new 0 0 118.155 174.963" xml:space="preserve"><path fill="#FFFFFF" d="M2.2 2.2L2.2 172.7h113.7V2.2H2.2zM19.1 159.6c-2.3 0-4.1-1.8-4.1-4.1 0-2.3 1.8-4.1 4.1-4.1s4.1 1.8 4.1 4.1C23.2 157.8 21.4 159.6 19.1 159.6zM19.1 23.6c-2.3 0-4.1-1.8-4.1-4.1 0-2.3 1.8-4.1 4.1-4.1 2.3 0 4.1 1.8 4.1 4.1C23.2 21.8 21.4 23.6 19.1 23.6zM59.1 148.8c-21.6 0-39.2-17.5-39.2-39.2 0-15.8 9.3-29.3 22.7-35.6 -5.3-4.6-8.6-11.3-8.6-18.9 0-13.8 11.2-25 25-25 13.8 0 25.1 11.2 25.1 25 0 7.5-3.3 14.3-8.6 18.9 13.4 6.2 22.7 19.8 22.7 35.6C98.3 131.2 80.7 148.8 59.1 148.8zM99.1 159.6c-2.3 0-4.1-1.8-4.1-4.1 0-2.3 1.8-4.1 4.1-4.1 2.3 0 4.1 1.8 4.1 4.1C103.2 157.8 101.3 159.6 99.1 159.6zM99.1 23.6c-2.3 0-4.1-1.8-4.1-4.1 0-2.3 1.8-4.1 4.1-4.1 2.3 0 4.1 1.8 4.1 4.1C103.2 21.8 101.3 23.6 99.1 23.6z"/><path fill="#D0EFEC" d="M98.2 111.6c-1 20.7-18.2 37.2-39.1 37.2 -21.6 0-39.2-17.5-39.2-39.2 0-15.8 9.3-29.3 22.7-35.6 -4.5-3.9-7.6-9.5-8.4-15.8C21 41.9 10.2 23.7 2.2 4.3L2.2 172.7h113.7v-52.5C109.9 117.7 104 114.8 98.2 111.6zM19.1 159.6c-2.3 0-4.1-1.8-4.1-4.1 0-2.3 1.8-4.1 4.1-4.1s4.1 1.8 4.1 4.1C23.2 157.8 21.4 159.6 19.1 159.6zM99.1 159.6c-2.3 0-4.1-1.8-4.1-4.1 0-2.3 1.8-4.1 4.1-4.1 2.3 0 4.1 1.8 4.1 4.1C103.2 157.8 101.3 159.6 99.1 159.6z"/><path fill="none" stroke="#00C7C4" stroke-width="4.4" stroke-linecap="round" stroke-linejoin="round" stroke-miterlimit="10" d="M2.2 2.2L2.2 172.7h113.7V2.2H2.2zM19.1 159.6c-2.3 0-4.1-1.8-4.1-4.1 0-2.3 1.8-4.1 4.1-4.1s4.1 1.8 4.1 4.1C23.2 157.8 21.4 159.6 19.1 159.6zM19.1 23.6c-2.3 0-4.1-1.8-4.1-4.1 0-2.3 1.8-4.1 4.1-4.1 2.3 0 4.1 1.8 4.1 4.1C23.2 21.8 21.4 23.6 19.1 23.6zM59.1 148.8c-21.6 0-39.2-17.5-39.2-39.2 0-15.8 9.3-29.3 22.7-35.6 -5.3-4.6-8.6-11.3-8.6-18.9 0-13.8 11.2-25 25-25 13.8 0 25.1 11.2 25.1 25 0 7.5-3.3 14.3-8.6 18.9 13.4 6.2 22.7 19.8 22.7 35.6C98.3 131.2 80.7 148.8 59.1 148.8zM99.1 159.6c-2.3 0-4.1-1.8-4.1-4.1 0-2.3 1.8-4.1 4.1-4.1 2.3 0 4.1 1.8 4.1 4.1C103.2 157.8 101.3 159.6 99.1 159.6zM99.1 23.6c-2.3 0-4.1-1.8-4.1-4.1 0-2.3 1.8-4.1 4.1-4.1 2.3 0 4.1 1.8 4.1 4.1C103.2 21.8 101.3 23.6 99.1 23.6z"/><path fill="#00C7C4" d="M83.8 126l-8.4 8.4C78.8 132.2 81.6 129.3 83.8 126zM52.6 80.7l-22.5 22.5c-0.2 1.1-0.4 2.3-0.6 3.4L56.1 80.1C54.9 80.2 53.8 80.4 52.6 80.7zM46.9 82.5l-14.9 14.9c-0.6 1.4-1.2 2.9-1.6 4.5l21-21C49.9 81.4 48.4 81.9 46.9 82.5zM32.9 95.6l12.2-12.2C39.9 86.2 35.7 90.5 32.9 95.6zM61.7 105.1l17.4-17.4c-0.5-0.5-1-0.9-1.6-1.3l-18 18C60.3 104.4 61.1 104.7 61.7 105.1zM58.6 104.4l18.4-18.4c-0.5-0.4-1.1-0.8-1.7-1.2L34.2 125.8c0.4 0.6 0.8 1.1 1.2 1.7l18.4-18.4C54.1 106.6 56.1 104.6 58.6 104.4zM63.6 107l17.4-17.4c-0.5-0.5-0.9-1-1.4-1.5l-17.3 17.3C62.8 105.9 63.3 106.4 63.6 107zM70.3 82.1l-38.7 38.7c0.3 0.7 0.6 1.3 0.9 2l39.8-39.8C71.6 82.7 71 82.4 70.3 82.1zM67.4 81.1l-36.8 36.8c0.2 0.7 0.5 1.5 0.7 2.2l38.3-38.3C68.9 81.6 68.2 81.4 67.4 81.1zM72.9 83.4l-40.1 40.1c0.3 0.6 0.7 1.2 1.1 1.8l40.8-40.8C74.1 84 73.5 83.7 72.9 83.4zM64.4 109.6c0 0.2 0 0.3 0 0.5l18.4-18.4c-0.4-0.5-0.8-1.1-1.3-1.6l-17.5 17.5C64.2 108.2 64.4 108.9 64.4 109.6zM60.9 80l-31.5 31.5c0.1 0.9 0.1 1.8 0.3 2.6l33.8-33.8C62.7 80.2 61.8 80.1 60.9 80zM59.1 80c-0.7 0-1.3 0-2 0.1l-27.6 27.6c0 0.7-0.1 1.3-0.1 2 0 0.3 0 0.6 0 1l30.6-30.6C59.7 80 59.4 80 59.1 80zM64.4 80.4l-34.5 34.5c0.1 0.8 0.3 1.6 0.5 2.4l36.3-36.3C65.9 80.7 65.2 80.6 64.4 80.4zM87.9 102.7l-35.7 35.7c0.8 0.2 1.6 0.3 2.4 0.5l33.8-33.8C88.3 104.3 88.1 103.5 87.9 102.7zM87.1 99.8L49.2 137.6c0.7 0.3 1.5 0.5 2.2 0.7l36.3-36.3C87.5 101.2 87.3 100.5 87.1 99.8zM89.1 109.6c0 0 0 0 0 0l-30 29.5c0 0 0 0 0 0 1 0 2 0.1 3 0l26.7-26.5C88.9 111.6 89.1 110.6 89.1 109.6zM86 97.1l-39.4 39.4c0.7 0.3 1.3 0.6 2 0.9l38.3-38.3C86.6 98.4 86.3 97.7 86 97.1zM87.3 118.6l-19.3 19.3c1.7-0.6 3.4-1.3 5-2.1l12.1-12.1C86.1 122 86.8 120.4 87.3 118.6zM88.5 113.7l-25.3 25.3c1.2-0.2 2.4-0.4 3.6-0.7l21-21C88.1 116.1 88.3 114.9 88.5 113.7zM88.5 106l-33.1 33.1c0.9 0.1 1.8 0.2 2.7 0.2l30.6-30.6C88.7 107.7 88.6 106.9 88.5 106zM59.1 114.9c-0.7 0-1.4-0.1-2-0.4l-17.5 17.5c0.5 0.5 1 0.9 1.6 1.3l18.4-18.4C59.4 114.9 59.2 114.9 59.1 114.9zM54.9 112.8l-17.3 17.3c0.5 0.5 1 1 1.5 1.4l17.4-17.4C55.8 113.8 55.3 113.4 54.9 112.8zM53.8 110.1l-18 18c0.4 0.5 0.9 1.1 1.3 1.6l17.4-17.4C54.1 111.6 53.9 110.9 53.8 110.1zM84.6 94.6L44 135.2c0.6 0.4 1.2 0.7 1.9 1l39.8-39.8C85.3 95.8 85 95.2 84.6 94.6zM83.1 92.2l-19.1 19.1c-0.5 1.6-1.8 2.8-3.3 3.3L41.7 133.7c0.6 0.4 1.1 0.8 1.7 1.2L84.3 94C83.9 93.4 83.5 92.8 83.1 92.2zM55.3 58.9l-8.3 8.3c0.5 0.5 1 0.9 1.5 1.4l8.4-8.4C56.4 59.8 55.8 59.4 55.3 58.9zM74.2 47.6L51.5 70.3c0.7 0.3 1.3 0.6 2 0.9l21.6-21.6C74.9 48.9 74.6 48.2 74.2 47.6zM53.8 55.2c0-2.9 2.4-5.3 5.3-5.3 0.1 0 0.3 0 0.4 0l8.9-8.9c-0.6-0.4-1.2-0.7-1.8-1.1L43.9 62.7c0.3 0.6 0.7 1.2 1.1 1.8l8.9-8.9C53.8 55.5 53.8 55.3 53.8 55.2zM75.3 50.3L54.2 71.4c0.8 0.2 1.6 0.4 2.4 0.5l19.2-19.2C75.7 51.9 75.6 51.1 75.3 50.3zM74.1 63l-7.2 7.2C70 68.6 72.5 66.1 74.1 63zM60.6 38.3L42.2 56.7c0.1 0.8 0.2 1.7 0.4 2.5l20.5-20.5C62.3 38.5 61.4 38.4 60.6 38.3zM59.1 60.4c-0.5 0-0.9-0.1-1.3-0.2l-8.6 8.6c0.6 0.4 1.1 0.8 1.8 1.1l9.8-9.8C60.2 60.4 59.6 60.4 59.1 60.4zM54 56.4l-8.6 8.6c0.4 0.6 0.8 1.1 1.3 1.6l8.3-8.3C54.4 57.8 54.1 57.1 54 56.4zM65.2 71l9.7-9.7c0.5-1.2 0.8-2.5 1-3.9L61.3 72C62.7 71.8 64 71.5 65.2 71zM59.1 72.1c0.4 0 0.8 0 1.2 0L76 56.4c0-0.4 0-0.8 0-1.2 0-0.6 0-1.1-0.1-1.6L57.4 72C58 72.1 58.5 72.1 59.1 72.1zM46.8 43.5l0.6-0.6C47.2 43.1 47 43.3 46.8 43.5zM64.4 55.2c0 0.6-0.1 1.1-0.3 1.6l9.8-9.8c-0.3-0.6-0.7-1.2-1.1-1.8l-8.6 8.6C64.3 54.3 64.4 54.7 64.4 55.2zM63.9 53.1l8.4-8.4c-0.4-0.5-0.9-1-1.4-1.5l-8.3 8.3C63.3 51.9 63.7 52.5 63.9 53.1zM62.3 51l8.3-8.3c-0.5-0.5-1-0.9-1.6-1.3l-8.6 8.6C61 50.2 61.7 50.5 62.3 51zM59.1 38.2c-0.8 0-1.6 0.1-2.4 0.2L42.3 52.8c-0.1 0.8-0.2 1.6-0.2 2.4 0 0.2 0 0.4 0 0.6l17.6-17.6C59.5 38.2 59.3 38.2 59.1 38.2zM50.9 40.3l-6.7 6.7c-0.8 1.4-1.4 3-1.7 4.6l13-13C53.9 38.9 52.3 39.5 50.9 40.3zM63.8 38.9L42.8 59.9c0.2 0.7 0.5 1.4 0.8 2.1l22.4-22.4C65.2 39.4 64.5 39.1 63.8 38.9z"/></svg>