<?xml version="1.0" encoding="utf-8"?>
<!-- Generator: Adobe Illustrator 17.0.0, SVG Export Plug-In . SVG Version: 6.00 Build 0)  -->
<!DOCTYPE svg PUBLIC "-//W3C//DTD SVG 1.1//EN" "http://www.w3.org/Graphics/SVG/1.1/DTD/svg11.dtd">
<svg version="1.1" id="Layer_1" xmlns="http://www.w3.org/2000/svg" xmlns:xlink="http://www.w3.org/1999/xlink" x="0px" y="0px"
	 width="419.72px" height="335.921px" viewBox="0 0 419.72 335.921" enable-background="new 0 0 419.72 335.921"
	 xml:space="preserve">
<g>
	<g>
		
			<ellipse fill="none" stroke="#00C7C4" stroke-width="4.123" stroke-linecap="round" stroke-linejoin="round" stroke-miterlimit="10" cx="209.86" cy="313.373" rx="207.798" ry="20.487"/>
		<ellipse fill="#D0EFEC" cx="209.859" cy="312.203" rx="174.198" ry="13.263"/>
		
			<ellipse fill="none" stroke="#00C7C4" stroke-width="4.123" stroke-linecap="round" stroke-linejoin="round" stroke-miterlimit="10" cx="209.859" cy="312.203" rx="174.198" ry="13.263"/>
		<ellipse fill="#00C7C4" cx="209.86" cy="312.203" rx="77.401" ry="6.894"/>
	</g>
	<g>
		<g>
			<path fill="#FFFFFF" d="M357.571,252.764h-12.27l13.721,33.295c0.719,1.903,2.508,3.075,4.408,3.075
				c0.56,0,1.13-0.103,1.684-0.317c2.434-0.942,3.652-3.706,2.721-6.173L357.571,252.764z"/>
		</g>
		<g>
			<path fill="#FFFFFF" d="M49.663,252.764L39.4,282.644c-0.931,2.467,0.288,5.23,2.722,6.173c0.553,0.215,1.123,0.317,1.683,0.317
				c1.899,0,3.688-1.172,4.406-3.075l13.721-33.295H49.663z"/>
		</g>
		<g>
			<path fill="#FFFFFF" d="M56.181,127.32c1.154-7.948,3.635-18.046,8.809-29.091c8.372-17.862,21.195-32.708,38.117-44.124
				c25.413-17.147,59.228-25.841,100.511-25.841c26.52,0,50.428,4.126,71.058,12.263c17.871,7.047,33.278,17.074,45.797,29.798
				c18.492,18.796,27.494,40.426,30.41,57.003c0.764-0.038,1.529-0.063,2.301-0.063c4.622,0,9.107,0.696,13.236,2.009
				C363.268,89.99,324.193,14.376,203.618,14.376c-50.727,0-86.334,11.705-111.025,28.307
				c-37.974,25.532-50.13,62.638-51.784,86.594c4.129-1.313,8.619-2.012,13.244-2.012C54.767,127.265,55.475,127.288,56.181,127.32z
				"/>
		</g>
		<g>
			<path fill="#FFFFFF" d="M95.776,157.097c0,5.719-6.234,18.394-10.682,25.394h237.047c-4.447-7-10.683-19.675-10.683-25.394
				c0-6.45,3.417-12.812,9.621-17.194c4.248-3.001,9.491-5.204,15.165-6.052c-5.945-33.446-39.854-88.35-132.627-88.35
				c-41.58,0-70.764,9.578-91.006,23.235c-27.979,18.878-38.857,45.427-41.756,64.92c5.725,0.838,11.018,3.235,15.299,6.259
				C92.36,144.296,95.776,150.647,95.776,157.097z"/>
		</g>
		<g>
			<g>
				<path fill="#FFFFFF" d="M352.775,241.687l0.041-3.766l-17.652-0.156l-0.024-0.275H72.096h-2.231h-2.229H54.417h-4.301v4.291
					c0,0,1.051,0.072,1.145,0.108l0.515,0.019c1.158,0.037,5.986,0.237,12.897,0.443l0.156-0.058c0.7,0.022,1.494,0.102,2.242,0.123
					l0.057-0.059c0.707,0.023,1.449,0.101,2.196,0.123l0.033-0.058c33.332,0.986,105.541,2.959,134.255,2.959
					c28.722,0,100.44-1.945,133.763-2.93l0,0C344.327,242.252,352.775,241.687,352.775,241.687z"/>
			</g>
		</g>
		<path fill="#FFFFFF" d="M347.065,141.608c-0.672,0.064-1.174,0.142-1.821,0.239c-0.003-0.022-0.005-0.044-0.008-0.066
			c-12.151,1.825-21.408,10.251-21.408,19.377c0,5.216,7.361,19.333,11.399,25.333h10.539h1.65h2.473h12.656c0.14,0,0.307,0,0.419,0
			h0.118h2.475h0.828c0.396,0,0.821-1.918,0.821-2.544c4.122-6.923,10.276-18.371,10.276-23.133c0-6.058-3.681-11.618-10.276-15.096
			c-0.825-0.369-0.825-0.825-1.649-1.149c-0.824-0.305-1.564-0.645-2.273-0.907c0.002,0.1-0.201,0.175-0.201,0.273
			c0-0.099,0.059-0.216,0.059-0.314c-3.732-1.385-7.877-2.179-12.385-2.179c-0.514,0-0.922,0.009-1.429,0.029
			c-0.693,0.027-1.515,0.075-2.194,0.14"/>
		<path fill="#FFFFFF" d="M51.858,140.784c-0.672,0.063-1.174,0.142-1.822,0.239c-0.002-0.023-0.004-0.045-0.008-0.066
			c-12.15,1.824-21.408,10.663-21.408,19.789c0,5.215,7.362,18.745,11.399,25.745h10.54h1.649h2.474h12.656c0.139,0,0.307,0,0.418,0
			h0.12h2.474h0.827c0.397,0,0.821-2.329,0.821-2.956c4.123-6.924,10.277-18.578,10.277-23.339c0-6.06-3.682-11.723-10.277-15.2
			c-0.825-0.367-0.825-0.876-1.648-1.2c-0.825-0.305-1.564-0.669-2.272-0.933c0.001,0.101-0.201,0.162-0.201,0.262
			c0-0.1,0.058-0.223,0.057-0.322c-3.731-1.384-7.877-2.181-12.384-2.181c-0.514,0-0.923,0.006-1.43,0.026
			c-0.693,0.028-1.515,0.073-2.192,0.138"/>
		<g>
			<path fill="#FFFFFF" d="M363.116,210.703c0,8.167-6.621,14.788-14.788,14.788H48.904c-8.167,0-14.788-6.621-14.788-14.788v-0.424
				c0-8.167,6.621-14.788,14.788-14.788h299.424c8.167,0,14.788,6.621,14.788,14.788V210.703z"/>
		</g>
	</g>
	<g>
		<g>
			<path fill="#D0EFEC" d="M361.376,263.838c-4.025-0.296-8.033-0.718-12.022-1.244l9.669,23.466
				c0.719,1.903,2.508,3.075,4.408,3.075c0.56,0,1.13-0.103,1.684-0.317c2.434-0.942,3.652-3.706,2.721-6.173L361.376,263.838z"/>
		</g>
		<g>
			<path fill="#D0EFEC" d="M48.279,256.791L39.4,282.644c-0.931,2.467,0.288,5.23,2.722,6.173c0.553,0.215,1.123,0.317,1.683,0.317
				c1.899,0,3.688-1.172,4.406-3.075l8.962-21.747C54.146,261.889,51.178,259.385,48.279,256.791z"/>
		</g>
		<g>
			<path fill="#D0EFEC" d="M175.878,15.643c-36.335,3.445-63.365,13.647-83.284,27.04c-37.974,25.532-50.13,62.638-51.784,86.594
				c4.129-1.313,8.619-2.012,13.244-2.012c0.713,0,1.421,0.022,2.127,0.055c1.154-7.948,3.635-18.046,8.809-29.091
				c8.372-17.862,21.195-32.708,38.117-44.124c20.727-13.986,47.048-22.343,78.447-24.951
				C179.509,24.716,177.613,20.211,175.878,15.643z"/>
		</g>
		<g>
			<path fill="#D0EFEC" d="M306.53,166.615c-55.987,0-110.299-22.509-149.865-62.076c-12.764-12.763-23.74-27.067-32.771-42.46
				c-4.035,2.083-7.796,4.31-11.282,6.663c-27.979,18.878-38.857,45.424-41.756,64.917c5.725,0.838,11.018,3.279,15.299,6.304
				c6.205,4.381,9.621,10.775,9.621,17.226c0,5.719-6.234,18.063-10.682,25.485h237.047c-2.674-4.461-5.983-10.695-8.207-16.206
				C311.47,166.555,309.002,166.615,306.53,166.615z"/>
		</g>
		<g>
			<g>
				<path fill="#D0EFEC" d="M185.835,237.922H50.147v3.86c0,0,1.036,0.072,1.13,0.108l0.508,0.019
					c1.158,0.037,5.982,0.237,12.893,0.443l0.154-0.058c0.7,0.022,1.493,0.102,2.241,0.123l0.057-0.059
					c0.707,0.023,1.449,0.101,2.195,0.123l0.033-0.058c30.65,0.906,94.17,2.647,126.519,2.922
					C192.462,242.973,189.112,240.498,185.835,237.922z"/>
			</g>
		</g>
		<path fill="#D0EFEC" d="M362.548,173.931c-12.902,0-23.668-10.766-23.668-23.669c0-2.523,0.417-4.963,1.176-7.258
			c-9.506,3.093-16.228,10.303-16.228,18.079c0,5.216,7.361,19.561,11.399,25.259h31.158c0.396,0,0.821-1.844,0.821-2.47
			c2.183-3.666,4.928-8.585,7.036-13.114C370.775,172.769,366.778,173.931,362.548,173.931z"/>
		<path fill="#D0EFEC" d="M66.315,180.578c-12.903,0-23.67-10.766-23.67-23.669c0-5.994,2.326-11.525,6.108-15.73
			c-11.517,2.225-20.134,10.689-20.134,19.493c0,5.215,7.362,19.024,11.399,25.671h31.158c0.397,0,0.821-2.255,0.821-2.882
			c0.787-1.319,1.646-2.811,2.522-4.393C71.956,180.041,69.189,180.578,66.315,180.578z"/>
		<g>
			<path fill="#D0EFEC" d="M174.814,195.043H48.444c-8.169,0-14.789,6.621-14.789,14.788v0.109c0,8.167,6.62,14.788,14.789,14.788
				h183.697C211.69,217.814,192.324,207.811,174.814,195.043z"/>
		</g>
	</g>
	<g>
		<g>
			<path fill="#00C7C4" d="M357.571,252.764l10.264,29.88c0.932,2.467-0.287,5.23-2.721,6.173c-0.554,0.215-1.124,0.317-1.684,0.317
				c-1.9,0-3.689-1.172-4.408-3.075l-13.721-33.295H357.571 M357.571,248.641h-12.27c-1.375,0-2.661,0.686-3.426,1.829
				c-0.765,1.143-0.91,2.593-0.386,3.865l13.701,33.247c1.314,3.398,4.617,5.676,8.24,5.676c1.086,0,2.155-0.201,3.175-0.597
				c4.508-1.745,6.791-6.851,5.112-11.406l-10.247-29.83C360.898,249.76,359.332,248.641,357.571,248.641L357.571,248.641z"/>
		</g>
		<g>
			<path fill="#00C7C4" d="M61.932,252.764h0.005 M61.932,252.764l-13.721,33.295c-0.718,1.903-2.507,3.075-4.406,3.075
				c-0.56,0-1.13-0.103-1.683-0.317c-2.434-0.942-3.652-3.706-2.722-6.173l10.263-29.88H61.932 M61.937,248.641h-0.005H49.663
				c-1.761,0-3.328,1.118-3.899,2.784l-10.246,29.83c-1.678,4.555,0.605,9.66,5.115,11.407c1.015,0.395,2.083,0.596,3.171,0.596
				c3.624,0,6.925-2.278,8.238-5.676l13.642-33.104c0.239-0.522,0.372-1.102,0.372-1.713
				C66.057,250.487,64.214,248.641,61.937,248.641L61.937,248.641z"/>
		</g>
		<g>
			<path fill="#00C7C4" d="M203.618,14.376c120.575,0,159.65,75.614,162.803,114.898c-4.129-1.313-8.614-2.009-13.236-2.009
				c-0.771,0-1.537,0.024-2.301,0.063c-2.916-16.577-11.918-38.207-30.41-57.003c-12.519-12.724-27.926-22.75-45.797-29.798
				c-20.631-8.137-44.539-12.263-71.059-12.263c-41.283,0-75.098,8.694-100.511,25.841C86.186,65.521,73.362,80.367,64.99,98.229
				c-5.175,11.045-7.655,21.143-8.81,29.091c-0.706-0.032-1.414-0.055-2.127-0.055c-4.625,0-9.115,0.698-13.244,2.012
				c1.654-23.956,13.811-61.062,51.784-86.594C117.284,26.081,152.892,14.376,203.618,14.376 M203.618,9.934
				c-46.635,0-84.822,9.778-113.502,29.063C72.376,50.924,58.589,66.244,49.137,84.532c-7.211,13.951-11.742,29.734-12.758,44.439
				c-0.101,1.467,0.531,2.89,1.687,3.798c0.793,0.623,1.762,0.949,2.744,0.949c0.451,0,0.905-0.069,1.346-0.209
				c3.76-1.196,7.763-1.803,11.898-1.803c0.564,0,1.175,0.016,1.925,0.05c0.068,0.003,0.137,0.005,0.205,0.005
				c2.194,0,4.074-1.611,4.393-3.803c1.374-9.462,4.212-18.83,8.436-27.845c8.027-17.126,20.334-31.367,36.58-42.327
				c24.666-16.643,57.646-25.082,98.027-25.082c25.958,0,49.318,4.022,69.429,11.954c17.286,6.817,32.177,16.5,44.261,28.781
				c21.528,21.881,27.593,45.513,29.202,54.658c0.375,2.132,2.228,3.672,4.372,3.672c0.074,0,0.148-0.002,0.224-0.006
				c0.77-0.038,1.45-0.057,2.08-0.057c4.133,0,8.133,0.606,11.891,1.8c0.44,0.14,0.894,0.209,1.345,0.209
				c0.991,0,1.968-0.332,2.764-0.964c1.158-0.921,1.782-2.357,1.664-3.832c-0.784-9.769-5.895-44.053-38.747-75.056
				c-14.163-13.366-31.345-23.87-51.07-31.221C258.404,14.21,232.359,9.934,203.618,9.934L203.618,9.934z"/>
		</g>
		<g>
			<path fill="#00C7C4" d="M203.618,45.512c92.773,0,126.682,54.915,132.627,88.361c-5.674,0.849-10.917,3.074-15.165,6.075
				c-6.204,4.382-9.621,10.698-9.621,17.148c0,5.719,6.235,18.394,10.683,25.394H85.095c4.447-7,10.682-19.675,10.682-25.394
				c0-6.45-3.416-12.799-9.621-17.18c-4.281-3.024-9.574-5.443-15.299-6.281c2.898-19.493,13.777-46.028,41.756-64.906
				C132.854,55.073,162.038,45.512,203.618,45.512 M203.618,41.389c-38.378,0-69.772,8.053-93.312,23.935
				C97.05,74.268,86.435,85.57,78.756,98.913c-7.691,13.365-10.759,25.942-11.978,34.139c-0.161,1.083,0.115,2.186,0.769,3.065
				c0.653,0.879,1.629,1.462,2.712,1.621c5.84,0.855,10.574,3.513,13.517,5.592c5.006,3.534,7.877,8.585,7.877,13.858
				c0,3.716-4.34,13.761-10.095,23.366c-0.763,1.274-0.783,2.707-0.051,3.999c0.732,1.292,2.103,1.938,3.587,1.938h237.047
				c1.485,0,2.855-0.646,3.587-1.938c0.732-1.292,0.712-2.802-0.051-4.075c-5.756-9.606-10.096-19.613-10.096-23.328
				c0-5.28,2.871-10.317,7.876-13.852c3.95-2.79,8.582-4.635,13.396-5.356c1.101-0.165,2.088-0.763,2.738-1.666
				c0.649-0.904,0.906-2.03,0.711-3.126c-1.824-10.261-8.898-36.563-35.124-59.126c-11.635-10.01-25.491-17.85-41.184-23.304
				C246.18,44.528,225.865,41.389,203.618,41.389L203.618,41.389z"/>
		</g>
		<g>
			<g>
				<path fill="#00C7C4" d="M353.116,237.491L353.116,237.491 M352.816,237.922l-0.041,3.766c0,0-8.448,0.564-15.399,0.767
					c-33.322,0.984-105.041,2.93-133.763,2.93c-28.714,0-100.923-1.973-134.255-2.959l-0.033,0.058
					c-0.746-0.021-1.488-0.1-2.195-0.123l-0.057,0.059c-0.748-0.021-1.541-0.102-2.241-0.123l-0.154,0.058
					c-6.911-0.206-11.735-0.406-12.894-0.443l-0.523-0.019c-0.094-0.036-1.145-0.108-1.145-0.108v-4.291h4.301h13.219h2.229h2.231
					H335.14l0.024,0.275L352.816,237.922 M352.816,233.491c-0.005,0-0.009,0-0.014,0l-16.977,0.057
					c-0.225-0.038-0.454-0.057-0.686-0.057H72.096h-2.231h-2.229H54.417h-4.271c-2.277,0-4.03,2.154-4.03,4.431v3.86
					c0,2.166,1.629,3.962,3.79,4.113c0.011,0.001,0.422,0.03,0.682,0.057c0.186,0.032,0.361,0.052,0.55,0.059l0.502,0.019
					c0.312,0.01,0.842,0.03,1.587,0.058c2.16,0.081,6.18,0.233,11.329,0.386c0.041,0.001,0.081,0.002,0.122,0.002
					c0.179,0,0.357-0.012,0.534-0.035c0.136,0.008,0.275,0.018,0.414,0.027c0.442,0.03,0.892,0.059,1.329,0.071
					c0.04,0.001,0.08,0.002,0.119,0.002c0.168,0,0.334-0.01,0.499-0.03c0.104,0.007,0.207,0.014,0.312,0.021
					c0.436,0.03,0.878,0.059,1.322,0.072c0.04,0.001,0.08,0.002,0.119,0.002c0.193,0,0.384-0.014,0.573-0.04
					c12.972,0.382,100.983,2.941,133.715,2.941c33.68,0,123.728-2.631,133.884-2.932c6.947-0.202,15.467-0.768,15.553-0.774
					c2.148-0.144,3.824-1.916,3.848-4.069l0.04-3.62c0.003-0.063,0.004-0.28,0.004-0.344c0-2.273-1.836-4.277-4.108-4.277
					C352.828,233.491,352.822,233.491,352.816,233.491L352.816,233.491z"/>
			</g>
		</g>
		<path fill="none" stroke="#00C7C4" stroke-width="4" stroke-linecap="round" stroke-linejoin="round" stroke-miterlimit="10" d="
			M347.065,141.608c-0.672,0.064-1.174,0.142-1.821,0.239c-0.003-0.022-0.005-0.044-0.008-0.066
			c-12.151,1.825-21.408,10.251-21.408,19.377c0,5.216,7.361,19.333,11.399,25.333h10.539h1.65h2.473h12.656c0.14,0,0.307,0,0.419,0
			h0.118h2.475h0.828c0.396,0,0.821-1.918,0.821-2.544c4.122-6.923,10.276-18.371,10.276-23.133c0-6.058-3.681-11.618-10.276-15.096
			c-0.825-0.369-0.825-0.825-1.649-1.149c-0.824-0.305-1.564-0.645-2.273-0.907c0.002,0.1-0.201,0.175-0.201,0.273
			c0-0.099,0.059-0.216,0.059-0.314c-3.732-1.385-7.877-2.179-12.385-2.179c-0.514,0-0.922,0.009-1.429,0.029
			c-0.693,0.027-1.515,0.075-2.194,0.14"/>
		<path fill="none" stroke="#00C7C4" stroke-width="4" stroke-linecap="round" stroke-linejoin="round" stroke-miterlimit="10" d="
			M51.858,140.784c-0.672,0.063-1.174,0.142-1.822,0.239c-0.002-0.023-0.004-0.045-0.008-0.066
			c-12.15,1.824-21.408,10.663-21.408,19.789c0,5.215,7.362,18.745,11.399,25.745h10.54h1.649h2.474h12.656c0.139,0,0.307,0,0.418,0
			h0.12h2.474h0.827c0.397,0,0.821-2.329,0.821-2.956c4.123-6.924,10.277-18.578,10.277-23.339c0-6.06-3.682-11.723-10.277-15.2
			c-0.825-0.367-0.825-0.876-1.648-1.2c-0.825-0.305-1.564-0.669-2.272-0.933c0.001,0.101-0.201,0.162-0.201,0.262
			c0-0.1,0.058-0.223,0.057-0.322c-3.731-1.384-7.877-2.181-12.384-2.181c-0.514,0-0.923,0.006-1.43,0.026
			c-0.693,0.028-1.515,0.073-2.192,0.138"/>
		<g>
			<path fill="#00C7C4" d="M347.883,195.491c8.168,0,15.233,6.173,15.233,14.34v0.109c0,8.167-7.065,14.551-15.233,14.551H48.444
				c-8.169,0-14.328-6.384-14.328-14.551v-0.109c0-8.167,6.159-14.34,14.328-14.34h299.672 M347.883,190.491H48.444
				c-10.428,0-19.328,8.912-19.328,19.34v0.109c0,10.428,8.9,18.551,19.328,18.551h299.438c10.428,0,19.233-8.123,19.233-18.551
				v-0.109C367.116,199.403,358.311,190.491,347.883,190.491L347.883,190.491z"/>
		</g>
	</g>
	<path fill="#FFFFFF" d="M176.814,1.159c0.485-0.129,0.789-0.227-0.024-0.053c-0.007-0.014-0.015-0.03-0.015-0.03
		c-0.186,0.06-0.379,0.117-0.568,0.176c-0.055,0.017-0.116,0.035-0.158,0.048c-14.436,4.445-35.954,5.7-87.164,32.907
		c11.45,7.47,29.172,77.389,29.172,77.389l5.273-5.063c1.226,4.783,1.935,7.725,1.935,7.725l8.214-7.568l-2.258,5.505
		c1.227,4.783,1.935,7.725,1.935,7.725l37.163-34.244c0,0,33.813-4.237,55.188-4.385C204.446,60.331,177.896,3.487,176.814,1.159z"
		/>
	<g>
		
			<path fill="none" stroke="#00C7C4" stroke-width="2.0201" stroke-linecap="round" stroke-linejoin="round" stroke-miterlimit="10" d="
			M176.774,1.076c0,0,11.646,50.938,33.578,71.897c-21.367,0.581-55.837,3.63-55.837,3.63l-36.46,34.993
			c0,0-17.722-69.919-29.172-77.389C140.954,6.544,162.334,5.713,176.774,1.076z"/>
		
			<path fill="none" stroke="#00C7C4" stroke-width="2.0201" stroke-linecap="round" stroke-linejoin="round" stroke-miterlimit="10" d="
			M131.22,112.195c1.227,4.783,1.935,7.725,1.935,7.725l37.163-34.244c0,0,33.813-4.237,55.188-4.385
			c-21.501-21.399-48.731-80.214-48.731-80.214"/>
		<path fill="#D0EFEC" d="M176.429,1.184C179.273,0.554,174.058,1.892,176.429,1.184c0,0,20.397,54.937,41.898,76.336
			c-21.375,0.147-55.898,2.494-55.898,2.494l-37.165,34.244c0,0-0.709-2.941-1.935-7.725l31.187-29.931l55.837-3.63
			C210.353,72.973,186.849,46.271,176.429,1.184z"/>
		
			<path fill="none" stroke="#00C7C4" stroke-width="2.0201" stroke-linecap="round" stroke-linejoin="round" stroke-miterlimit="10" d="
			M123.329,106.534c1.226,4.783,1.935,7.725,1.935,7.725l37.165-34.244c0,0,34.523-2.347,55.898-2.494
			c-21.501-21.399-41.898-76.336-41.898-76.336c-2.371,0.708,2.844-0.629,0,0"/>
		<path fill="#D0EFEC" d="M174.079,37.883c-12.448,0-23.063-9.208-25.318-21.081c-0.459,0.128-0.918,0.254-1.391,0.388
			l18.691,49.585c9.574-0.658,20.021-1.269,28.438-1.498c-8.588-8.206-13.916-18.325-17.233-27.605
			C176.22,37.806,175.157,37.883,174.079,37.883z"/>
		
			<path fill="none" stroke="#00C7C4" stroke-width="2.0201" stroke-linecap="round" stroke-linejoin="round" stroke-miterlimit="10" d="
			M147.37,17.19l18.691,49.585c9.574-0.658,20.021-1.269,28.438-1.498c-21.933-20.959-22.672-54.419-22.672-54.419
			C165.6,12.857,158.079,14.15,147.37,17.19z"/>
		
			<line fill="none" stroke="#00C7C4" stroke-width="1.8989" stroke-linecap="round" stroke-linejoin="round" stroke-miterlimit="10" x1="137.519" y1="20.966" x2="156.273" y2="70.719"/>
		
			<line fill="none" stroke="#00C7C4" stroke-width="1.8989" stroke-linecap="round" stroke-linejoin="round" stroke-miterlimit="10" x1="127.746" y1="24.65" x2="146.501" y2="74.403"/>
		
			<line fill="none" stroke="#00C7C4" stroke-width="1.8989" stroke-linecap="round" stroke-linejoin="round" stroke-miterlimit="10" x1="119.749" y1="27.664" x2="138.505" y2="77.417"/>
		
			<line fill="none" stroke="#00C7C4" stroke-width="1.8989" stroke-linecap="round" stroke-linejoin="round" stroke-miterlimit="10" x1="113.53" y1="30.008" x2="125.587" y2="61.992"/>
		
			<line fill="none" stroke="#00C7C4" stroke-width="1.8989" stroke-linecap="round" stroke-linejoin="round" stroke-miterlimit="10" x1="106.423" y1="32.687" x2="118.48" y2="64.672"/>
		<path fill="#D0EFEC" d="M118.985,72.598l-4.045,1.524l6.979,18.514l10.168-12.365l-0.262-0.688
			C126.904,78.537,122.466,76.049,118.985,72.598z"/>
		
			<polygon fill="none" stroke="#00C7C4" stroke-width="1.8989" stroke-linecap="round" stroke-linejoin="round" stroke-miterlimit="10" points="
			132.087,80.271 121.919,92.636 114.94,74.123 127.888,69.242 		"/>
	</g>
</g>
<g display="none">
	<g display="inline">
		<g>
			<path fill="#FFFFFF" d="M520.774,87.83c-1.257-33.38-28.698-60.059-62.387-60.059c-32.967,0-59.947,25.55-62.266,57.926
				C451.516,70.249,499.896,81.28,520.774,87.83z"/>
		</g>
		<g>
			<g>
				<path fill="#D0EFEC" d="M468.926,76.801c-7.516-9.146-12.076-20.772-12.076-33.31c0-5.446,0.861-10.722,2.448-15.697
					c-0.304-0.004-0.604-0.022-0.91-0.022c-32.967,0-59.947,25.55-62.266,57.926c24.971-6.964,48.497-8.533,68.739-7.571
					C466.071,77.508,467.426,77.055,468.926,76.801z"/>
			</g>
		</g>
		<g>
			<path fill="none" stroke="#00C7C4" stroke-width="6" stroke-linecap="round" stroke-linejoin="round" stroke-miterlimit="10" d="
				M520.774,87.83c-1.257-33.38-28.698-60.059-62.387-60.059c-32.967,0-59.947,25.55-62.266,57.926
				C451.516,70.249,499.896,81.28,520.774,87.83z"/>
		</g>
	</g>
</g>
<g display="none">
	
		<line display="inline" fill="none" stroke="#00C7C4" stroke-width="5" stroke-linecap="round" stroke-linejoin="round" stroke-miterlimit="10" x1="34.616" y1="-122.509" x2="34.616" y2="78.491"/>
</g>
</svg>
