<?xml version="1.0" encoding="utf-8"?>
<!-- Generator: Adobe Illustrator 17.0.0, SVG Export Plug-In . SVG Version: 6.00 Build 0)  -->
<!DOCTYPE svg PUBLIC "-//W3C//DTD SVG 1.1//EN" "http://www.w3.org/Graphics/SVG/1.1/DTD/svg11.dtd">
<svg version="1.1" id="Layer_1" xmlns="http://www.w3.org/2000/svg" xmlns:xlink="http://www.w3.org/1999/xlink" x="0px" y="0px"
	 width="192px" height="467.624px" viewBox="0 0 192 467.624" enable-background="new 0 0 192 467.624" xml:space="preserve">
<g>
	<g>
		<g>
			<path fill="#FFFFFF" d="M182,133.691c0,22.972-18.623,41.594-41.595,41.594H57.595C34.623,175.285,16,156.663,16,133.691v-31.813
				c0-22.972,18.623-41.594,41.595-41.594h82.811c22.972,0,41.595,18.622,41.595,41.594V133.691z"/>
			<path fill="#FFFFFF" d="M163,139.394c0,12.09-9.801,21.892-21.892,21.892H77.892c-12.091,0-21.892-9.801-21.892-21.892v-35.217
				c0-12.09,9.801-21.892,21.892-21.892h63.217c12.091,0,21.892,9.801,21.892,21.892V139.394z"/>
			<circle fill="#FFFFFF" cx="38.376" cy="139.147" r="9.669"/>
			<circle fill="#FFFFFF" cx="38.376" cy="116.16" r="7.48"/>
			<path fill="#FFFFFF" d="M128.797,182.034c-0.009,0.174-0.026,0.345-0.026,0.52v6.568c0,6.045,4.9,10.945,10.945,10.945
				c6.046,0,10.946-4.9,10.946-10.945v-6.568c0-0.175-0.018-0.346-0.026-0.52H128.797z"/>
			<path fill="#FFFFFF" d="M51.081,182.034c-0.009,0.174-0.026,0.345-0.026,0.52v6.568c0,6.045,4.9,10.945,10.945,10.945
				c6.046,0,10.946-4.9,10.946-10.945v-6.568c0-0.175-0.019-0.346-0.026-0.52H51.081z"/>
			<path fill="#FFFFFF" d="M127.84,53.531c-3.32-10.623-13.237-18.334-24.955-18.334c-11.717,0-21.633,7.711-24.954,18.334H127.84z"
				/>
			<line fill="#FFFFFF" x1="122.773" y1="35.197" x2="139.716" y2="18.255"/>
			<line fill="#FFFFFF" x1="80.996" y1="36.197" x2="64.054" y2="19.255"/>
			<circle fill="#FFFFFF" cx="147.252" cy="11.537" r="7.537"/>
			<circle fill="#FFFFFF" cx="57.949" cy="12.537" r="7.536"/>
		</g>
		<path fill="#FFFFFF" d="M189,228.528c0,4.836-3.921,8.757-8.757,8.757H10.757c-4.836,0-8.757-3.921-8.757-8.757v-14.486
			c0-4.836,3.921-8.757,8.757-8.757h169.486c4.836,0,8.757,3.92,8.757,8.757V228.528z"/>
		<path fill="#FFFFFF" d="M2.619,415.792v14.203c0,4.836,3.92,8.757,8.758,8.757h169.112c4.837,0,8.757-3.921,8.757-8.757v-14.203
			H2.619z"/>
		<rect x="163" y="246.285" fill="#FFFFFF" width="14" height="162"/>
		<rect x="16" y="246.285" fill="#FFFFFF" width="14" height="162"/>
		<rect x="37" y="290.285" fill="#FFFFFF" width="119" height="10"/>
		<line fill="#FFFFFF" x1="154.789" y1="250.346" x2="139.716" y2="284.823"/>
		<line fill="#FFFFFF" x1="147.127" y1="250.346" x2="132.054" y2="284.823"/>
		<line fill="#FFFFFF" x1="139.465" y1="250.346" x2="124.392" y2="284.823"/>
		<line fill="#FFFFFF" x1="131.803" y1="250.346" x2="116.729" y2="284.823"/>
		<line fill="#FFFFFF" x1="124.141" y1="250.346" x2="109.067" y2="284.823"/>
		<line fill="#FFFFFF" x1="116.479" y1="250.346" x2="101.405" y2="284.823"/>
		<line fill="#FFFFFF" x1="108.816" y1="250.346" x2="93.743" y2="284.823"/>
		<line fill="#FFFFFF" x1="101.154" y1="250.346" x2="86.081" y2="284.823"/>
		<path fill="#FFFFFF" d="M139.442,446.155v10.373c0,4.837,3.92,8.757,8.757,8.757h13.683c4.836,0,8.756-3.92,8.756-8.757v-10.373
			H139.442z"/>
		<path fill="#FFFFFF" d="M30.259,446.155v10.373c0,4.837,3.92,8.757,8.757,8.757h13.682c4.837,0,8.757-3.92,8.757-8.757v-10.373
			H30.259z"/>
		<path fill="#D0EFEC" d="M150.752,446.155h-11.31v10.373c0,4.837,3.92,8.757,8.757,8.757h13.282
			C157.371,459.251,153.775,452.852,150.752,446.155z"/>
		<path fill="#D0EFEC" d="M49.03,446.155H30.259v10.373c0,4.837,3.92,8.757,8.757,8.757h13.682c1.044,0,2.041-0.192,2.971-0.527
			C51.821,459.429,49.402,453.029,49.03,446.155z"/>
	</g>
	<g>
		<g>
			<path fill="#D0EFEC" d="M85.114,173.79C56.35,145.025,38.716,106.648,35.377,66.3c-11.575,7.386-19.258,20.331-19.258,35.079
				v31.813c0,22.972,18.623,41.594,41.595,41.594h28.421C85.796,174.452,85.45,174.126,85.114,173.79z"/>
			<path fill="none" stroke="#00C7C4" stroke-width="5" stroke-linecap="round" stroke-linejoin="round" stroke-miterlimit="10" d="
				M182.5,133.191c0,22.972-18.623,41.594-41.595,41.594H58.095c-22.972,0-41.595-18.622-41.595-41.594v-31.813
				c0-22.972,18.623-41.594,41.595-41.594h82.811c22.972,0,41.595,18.622,41.595,41.594V133.191z"/>
			<circle fill="#FFFFFF" cx="54.949" cy="8.537" r="7.536"/>
			<path fill="#D0EFEC" d="M74.873,84.285c0-0.617,0.033-1.228,0.048-1.842c-10.869,1.282-19.302,10.521-19.302,21.734v35.217
				c0,12.09,9.801,21.892,21.892,21.892h56.676C100.352,152.075,74.873,120.713,74.873,84.285z"/>
			<path fill="none" stroke="#00C7C4" stroke-width="5" stroke-linecap="round" stroke-linejoin="round" stroke-miterlimit="10" d="
				M163.5,138.894c0,12.09-9.801,21.892-21.892,21.892H78.392c-12.091,0-21.892-9.801-21.892-21.892v-35.217
				c0-12.09,9.801-21.892,21.892-21.892h63.217c12.091,0,21.892,9.801,21.892,21.892V138.894z"/>
			
				<circle fill="none" stroke="#00C7C4" stroke-width="4.6775" stroke-linecap="round" stroke-linejoin="round" stroke-miterlimit="10" cx="38.376" cy="139.147" r="9.669"/>
			
				<circle fill="none" stroke="#00C7C4" stroke-width="4.6775" stroke-linecap="round" stroke-linejoin="round" stroke-miterlimit="10" cx="38.376" cy="116.16" r="7.48"/>
			<path fill="#FFFFFF" d="M128.797,182.034c-0.009,0.174-0.026,0.345-0.026,0.52v6.568c0,6.045,4.9,10.945,10.945,10.945
				c6.046,0,10.946-4.9,10.946-10.945v-6.568c0-0.175-0.018-0.346-0.026-0.52H128.797z"/>
			<path fill="#FFFFFF" d="M51.081,182.034c-0.009,0.174-0.026,0.345-0.026,0.52v6.568c0,6.045,4.9,10.945,10.945,10.945
				c6.046,0,10.946-4.9,10.946-10.945v-6.568c0-0.175-0.019-0.346-0.026-0.52H51.081z"/>
			<path fill="#D0EFEC" d="M138.32,182.034h-9.523c-0.009,0.174-0.026,0.345-0.026,0.52v6.568c0,6.045,4.9,10.945,10.945,10.945
				c1.685,0,3.274-0.392,4.7-1.071C140.662,194.296,138.378,188.394,138.32,182.034z"/>
			<path fill="#D0EFEC" d="M58.377,182.034h-7.296c-0.009,0.174-0.026,0.345-0.026,0.52v6.568c0,6.045,4.9,10.945,10.945,10.945
				c1.41,0,2.754-0.276,3.992-0.762C61.636,194.705,58.804,188.656,58.377,182.034z"/>
			
				<path fill="none" stroke="#00C7C4" stroke-width="4.6775" stroke-linecap="round" stroke-linejoin="round" stroke-miterlimit="10" d="
				M128.797,182.034c-0.009,0.174-0.026,0.345-0.026,0.52v6.568c0,6.045,4.9,10.945,10.945,10.945c6.046,0,10.946-4.9,10.946-10.945
				v-6.568c0-0.175-0.018-0.346-0.026-0.52H128.797z"/>
			
				<path fill="none" stroke="#00C7C4" stroke-width="4.6775" stroke-linecap="round" stroke-linejoin="round" stroke-miterlimit="10" d="
				M51.081,182.034c-0.009,0.174-0.026,0.345-0.026,0.52v6.568c0,6.045,4.9,10.945,10.945,10.945c6.046,0,10.946-4.9,10.946-10.945
				v-6.568c0-0.175-0.019-0.346-0.026-0.52H51.081z"/>
			<path fill="#D0EFEC" d="M95.164,36.375c-8.195,2.533-14.676,8.972-17.233,17.156h35.771
				C106.67,48.812,100.414,43.004,95.164,36.375z"/>
			
				<path fill="none" stroke="#00C7C4" stroke-width="4.6775" stroke-linecap="round" stroke-linejoin="round" stroke-miterlimit="10" d="
				M127.84,53.531c-3.32-10.623-13.237-18.334-24.955-18.334c-11.717,0-21.633,7.711-24.954,18.334H127.84z"/>
			
				<line fill="none" stroke="#00C7C4" stroke-width="4.6775" stroke-linecap="round" stroke-linejoin="round" stroke-miterlimit="10" x1="80.996" y1="36.197" x2="64.054" y2="19.255"/>
			<path fill="#D0EFEC" d="M51.892,1.652c-2.637,1.173-4.479,3.812-4.479,6.885c0,4.162,3.374,7.536,7.536,7.536
				c1.935,0,3.693-0.735,5.028-1.934C56.914,10.242,54.203,6.064,51.892,1.652z"/>
			
				<circle fill="none" stroke="#00C7C4" stroke-width="2" stroke-linecap="round" stroke-linejoin="round" stroke-miterlimit="10" cx="54.949" cy="8.537" r="7.536"/>
			<g>
				<circle fill="#FFFFFF" cx="163.461" cy="8.537" r="7.536"/>
				
					<line fill="none" stroke="#00C7C4" stroke-width="4.6775" stroke-linecap="round" stroke-linejoin="round" stroke-miterlimit="10" x1="137.414" y1="36.197" x2="154.356" y2="19.255"/>
				<path fill="#D0EFEC" d="M166.519,1.652c2.637,1.173,4.479,3.812,4.479,6.885c0,4.162-3.374,7.536-7.536,7.536
					c-1.935,0-3.693-0.735-5.028-1.934C161.496,10.242,164.207,6.064,166.519,1.652z"/>
				
					<circle fill="none" stroke="#00C7C4" stroke-width="2" stroke-linecap="round" stroke-linejoin="round" stroke-miterlimit="10" cx="163.461" cy="8.537" r="7.536"/>
			</g>
		</g>
		
			<line fill="none" stroke="#00C7C4" stroke-width="4.6775" stroke-linecap="round" stroke-linejoin="round" stroke-miterlimit="10" x1="154.789" y1="250.346" x2="139.716" y2="284.823"/>
		
			<line fill="none" stroke="#00C7C4" stroke-width="4.6775" stroke-linecap="round" stroke-linejoin="round" stroke-miterlimit="10" x1="147.127" y1="250.346" x2="132.054" y2="284.823"/>
		
			<line fill="none" stroke="#00C7C4" stroke-width="4.6775" stroke-linecap="round" stroke-linejoin="round" stroke-miterlimit="10" x1="139.465" y1="250.346" x2="124.392" y2="284.823"/>
		
			<line fill="none" stroke="#00C7C4" stroke-width="4.6775" stroke-linecap="round" stroke-linejoin="round" stroke-miterlimit="10" x1="131.803" y1="250.346" x2="116.729" y2="284.823"/>
		
			<line fill="none" stroke="#00C7C4" stroke-width="4.6775" stroke-linecap="round" stroke-linejoin="round" stroke-miterlimit="10" x1="124.141" y1="250.346" x2="109.067" y2="284.823"/>
		
			<line fill="none" stroke="#00C7C4" stroke-width="4.6775" stroke-linecap="round" stroke-linejoin="round" stroke-miterlimit="10" x1="116.479" y1="250.346" x2="101.405" y2="284.823"/>
		
			<line fill="none" stroke="#00C7C4" stroke-width="4.6775" stroke-linecap="round" stroke-linejoin="round" stroke-miterlimit="10" x1="108.816" y1="250.346" x2="93.743" y2="284.823"/>
		
			<line fill="none" stroke="#00C7C4" stroke-width="4.6775" stroke-linecap="round" stroke-linejoin="round" stroke-miterlimit="10" x1="101.154" y1="250.346" x2="86.081" y2="284.823"/>
		<g>
			<path fill="#D0EFEC" d="M89.477,204.785h-78.6c-4.837,0-8.758,3.92-8.758,8.757v14.486c0,4.836,3.921,8.757,8.758,8.757h124.855
				C117.262,231.183,101.113,219.787,89.477,204.785z"/>
			<path fill="#D0EFEC" d="M71.6,415.792H2.619v14.203c0,4.836,3.92,8.757,8.758,8.757h66.555
				C74.907,431.478,72.753,423.779,71.6,415.792z"/>
			<path fill="#D0EFEC" d="M164.453,305.35c-0.466-1.095-0.91-2.199-1.334-3.314v3.365
				C163.564,305.38,164.008,305.364,164.453,305.35z"/>
			<path fill="#D0EFEC" d="M29.619,321.836c-4.709,0-9.251-0.827-13.5-2.325v88.274h14v-85.962
				C29.952,321.825,29.787,321.836,29.619,321.836z"/>
			<path fill="#D0EFEC" d="M69.91,290.285c-0.897,3.525-2.256,6.881-4.005,10h89.714v-10H69.91z"/>
			
				<path fill="none" stroke="#00C7C4" stroke-width="4.6775" stroke-linecap="round" stroke-linejoin="round" stroke-miterlimit="10" d="
				M30.259,446.155v10.373c0,4.837,3.92,8.757,8.757,8.757h13.682c4.837,0,8.757-3.92,8.757-8.757v-10.373H30.259z"/>
		</g>
		<g>
			<path fill="none" stroke="#00C7C4" stroke-width="5" stroke-linecap="round" stroke-linejoin="round" stroke-miterlimit="10" d="
				M189.5,228.028c0,4.836-3.921,8.757-8.757,8.757H11.257c-4.836,0-8.757-3.921-8.757-8.757v-14.486
				c0-4.836,3.921-8.757,8.757-8.757h169.486c4.836,0,8.757,3.92,8.757,8.757V228.028z"/>
			<path fill="none" stroke="#00C7C4" stroke-width="3" stroke-linecap="round" stroke-linejoin="round" stroke-miterlimit="10" d="
				M2.619,415.792v14.203c0,4.836,3.92,8.757,8.758,8.757h169.112c4.837,0,8.757-3.921,8.757-8.757v-14.203H2.619z"/>
			
				<rect x="163.5" y="245.785" fill="none" stroke="#00C7C4" stroke-width="5" stroke-linecap="round" stroke-linejoin="round" stroke-miterlimit="10" width="14" height="162"/>
			
				<rect x="16.5" y="245.785" fill="none" stroke="#00C7C4" stroke-width="5" stroke-linecap="round" stroke-linejoin="round" stroke-miterlimit="10" width="14" height="162"/>
			
				<rect x="36.5" y="290.785" fill="none" stroke="#00C7C4" stroke-width="3" stroke-linecap="round" stroke-linejoin="round" stroke-miterlimit="10" width="119" height="10"/>
			
				<path fill="none" stroke="#00C7C4" stroke-width="4.6775" stroke-linecap="round" stroke-linejoin="round" stroke-miterlimit="10" d="
				M139.442,446.155v10.373c0,4.837,3.92,8.757,8.757,8.757h13.683c4.836,0,8.756-3.92,8.756-8.757v-10.373H139.442z"/>
			
				<path fill="none" stroke="#00C7C4" stroke-width="4.6775" stroke-linecap="round" stroke-linejoin="round" stroke-miterlimit="10" d="
				M30.259,446.155v10.373c0,4.837,3.92,8.757,8.757,8.757h13.682c4.837,0,8.757-3.92,8.757-8.757v-10.373H30.259z"/>
		</g>
	</g>
	<g>
		<path fill="none" stroke="#00C7C4" stroke-width="3" stroke-linecap="round" stroke-linejoin="round" stroke-miterlimit="10" d="
			M61.454,402.952c6.212-27.333,15.355-56.589,24.627-76.171c18.251-3.832,55.585-3.834,76.918,8.166
			c-12.337,28.701-26.405,80.838-26.405,80.838S112.575,405.619,61.454,402.952z"/>
		<path fill="none" stroke="#00C7C4" stroke-width="3" stroke-linecap="round" stroke-linejoin="round" stroke-miterlimit="10" d="
			M86.081,326.781c0,0,49.919-11.041,69.919-2.269c-1.719,6.469-1.719,6.469-1.719,6.469S123.162,319.777,86.081,326.781z"/>
		<path fill="none" stroke="#00C7C4" stroke-width="3" stroke-linecap="round" stroke-linejoin="round" stroke-miterlimit="10" d="
			M86.081,326.781c0,0,34.423-16.996,61.171-12.496c-1.823,7.54-1.823,7.54-1.823,7.54S125.162,317.277,86.081,326.781z"/>
		<path fill="none" stroke="#00C7C4" stroke-width="3" stroke-linecap="round" stroke-linejoin="round" stroke-miterlimit="10" d="
			M96.5,334.346c0,0,31.158-7.869,54.162,7.368c0,0-17.223,53.768-18.608,61.902c-6.72-0.532-18.789-8.078-54.122-10.667
			C80.599,383.695,96.5,334.346,96.5,334.346z"/>
		<path fill="#00C7C4" d="M89.646,383.292c0,0,24.65,4.312,32.195,7.339c0,0-0.468,2.07-0.908,4.652
			c-2.133-0.169-18.275-4.889-32.182-7.387C89.599,384.959,89.646,383.292,89.646,383.292z"/>
		<g>
			<g>
				<path fill="#00C7C4" d="M86.977,364.075c1.417-1.254,3.743-5.773,5.636-0.525c0.686,1.903,0.86,3.95,1.669,5.825
					c0.717,1.662,3.315,0.955,4.195-0.126c2.459-3.019,3.244-6.669,4.927-10.062c1.454-2.933,4.534-2.405,5.673,0.635
					c0.504,1.345,0.273,3.376,0.285,4.822c0.015,1.79,0.365,3.288,1.42,4.737c0.3,0.412,0.914,0.326,1.316,0.158
					c2.429-1.012,3.373-4.539,4.187-6.743c1.633-4.42,2.88-8.974,4.832-13.274c0.765-1.686,2.416-5.478,4.811-4.157
					c3.99,2.201,2.962,7.523,2.445,11.195c-0.752,5.344-2.062,12.953,0.327,17.982c0.199,0.419,0.707,0.586,1.149,0.424
					c1.717-0.629,2.595-1.511,3.527-3.089c0.234-0.396,3.136-7.428,4.753-3.981c0.415,0.885,0.752,2.968,0.548,3.827
					c-0.677,2.848-1.355,5.696-2.032,8.544c-1.856,7.806-3.713,15.612-5.569,23.418c0.437-0.263,0.873-0.525,1.31-0.788
					c-15.637-3.082-31.275-6.164-46.912-9.246c-2.334-0.46-4.669-0.92-7.003-1.38c0.554,0.109,0.27,1.22,0.781-0.567
					c0.49-1.71,0.979-3.42,1.469-5.13c2.18-7.612,4.359-15.224,6.539-22.836c0.313-1.093-1.609-1.093-1.853-0.242
					c-2.8,9.778-5.6,19.555-8.399,29.333c-0.137,0.478,0.133,0.75,0.597,0.841c18.041,3.556,36.081,7.111,54.122,10.667
					c0.545,0.107,1.181-0.247,1.31-0.788c2.537-10.667,5.074-21.333,7.61-32c0.439-1.845-0.431-6.115-2.802-6.427
					c-3.334-0.438-4.768,3.074-5.855,5.54c-2.344,5.32-2.46-1.008-2.427-3.447c0.032-2.338,0.352-4.663,0.417-7
					c0.131-4.781,2.111-9.738-0.564-14.129c-2.707-4.445-7.005-2.161-9.104,1.195c-3.666,5.861-4.48,13.119-7.555,19.265
					c-1.782,3.561-1.428-1.517-1.443-3.331c-0.012-1.493,0.167-3.836-0.78-5.136c-1.399-1.92-4.072-3.74-6.413-2.089
					c-2.692,1.898-3.113,4.865-4.432,7.653c-1.021,2.158-3.172,6.661-4.388,2.381c-0.457-1.608-0.563-3.941-1.848-5.178
					c-3.492-3.36-5.27,0.105-7.764,2.312C84.704,364.026,86.232,364.733,86.977,364.075z"/>
			</g>
		</g>
	</g>
</g>
<g display="none">
	
		<line display="inline" fill="none" stroke="#00C7C4" stroke-width="3" stroke-linecap="round" stroke-linejoin="round" stroke-miterlimit="10" x1="123" y1="350.785" x2="345" y2="350.785"/>
</g>
</svg>
