<?xml version="1.0" encoding="utf-8"?>
<!-- Generator: Adobe Illustrator 15.0.0, SVG Export Plug-In  -->
<!DOCTYPE svg PUBLIC "-//W3C//DTD SVG 1.1//EN" "http://www.w3.org/Graphics/SVG/1.1/DTD/svg11.dtd" [
	<!ENTITY ns_flows "http://ns.adobe.com/Flows/1.0/">
]>
<svg version="1.1"
	 xmlns="http://www.w3.org/2000/svg" xmlns:xlink="http://www.w3.org/1999/xlink" xmlns:a="http://ns.adobe.com/AdobeSVGViewerExtensions/3.0/"
	 x="0px" y="0px" width="746px" height="376px" viewBox="0.876 0.883 746 376" enable-background="new 0.876 0.883 746 376"
	 xml:space="preserve">
<defs>
</defs>
<g>
	<g>
		<path fill="#00C7C4" d="M144.56,2.361c-3.244,6.283-4.876,13.702-10.377,18.535c-0.401,0.353-0.317,1.142,0.178,1.375
			c4.775,2.252,9.896,4.097,14.274,7.089c2.164,1.48,5.287,5.512,8.135,4.679c2.141-0.626,4.281-1.253,6.421-1.879
			c0.494-0.145,0.81-0.729,1.133-1.086c0.757-0.835,1.634-1.562,2.502-2.276c1.87-1.54,3.978-2.883,6.197-3.855
			c0.35-0.153,0.504-0.646,0.402-0.988c-1.219-4.098-2.108-8.267-2.852-12.475c-0.195-1.11-1.883-0.639-1.688,0.465
			c0.743,4.208,1.633,8.377,2.852,12.475c0.134-0.329,0.268-0.659,0.402-0.988c-3.365,1.474-6.493,3.781-9.054,6.405
			c-0.708,0.725-0.876,0.786-1.979,1.108c-1.356,0.397-2.713,0.794-4.069,1.191c-0.426,0.125-0.852,0.249-1.278,0.374
			c-0.425,0.124-0.504-0.354-1.012-0.701c-2.034-1.392-3.88-3.039-5.917-4.431c-4.115-2.814-9.096-4.502-13.587-6.62
			c0.06,0.458,0.118,0.917,0.178,1.375c5.633-4.949,7.33-12.461,10.65-18.889C146.588,2.244,145.078,1.358,144.56,2.361
			L144.56,2.361z"/>
	</g>
</g>
<g>
	<g>
		<path fill="#00C7C4" d="M156.792,34.222c0.762,3.572,1.968,7.017,2.937,10.533c1.007,3.657,1.258,7.457,2.587,11.031
			c0.39,1.048,2.082,0.595,1.688-0.466c-1.222-3.287-1.553-6.757-2.358-10.149c-0.914-3.845-2.34-7.542-3.165-11.413
			C158.244,32.653,156.557,33.122,156.792,34.222L156.792,34.222z"/>
	</g>
</g>
<g>
	<g>
		<path fill="#00C7C4" d="M162.694,54.042c-3.93,3.338-6.708,7.83-10.871,10.912c-0.475,0.352-0.572,0.914-0.178,1.375
			c1.995,2.328,3.197,5.185,4.676,7.842c0.549,0.986,2.061,0.104,1.512-0.884c-1.559-2.8-2.847-5.743-4.949-8.197
			c-0.06,0.458-0.118,0.917-0.178,1.375c4.296-3.18,7.177-7.747,11.227-11.186C164.794,54.549,163.55,53.317,162.694,54.042
			L162.694,54.042z"/>
	</g>
</g>
<g>
	<g>
		<path fill="#00C7C4" d="M163.051,56.487c2.276,1.695,4.716,2.938,7.337,4.009c-0.204-0.359-0.408-0.718-0.611-1.077
			c-1.627,5.266-1.314,10.655-1.456,16.094c-0.03,1.13,1.721,1.127,1.75,0c0.138-5.279-0.187-10.513,1.394-15.628
			c0.153-0.497-0.181-0.901-0.611-1.077c-2.481-1.014-4.766-2.229-6.919-3.832C163.027,54.3,162.156,55.821,163.051,56.487
			L163.051,56.487z"/>
	</g>
</g>
<path fill="#00C7C4" d="M155.554,10.997c-9.596,0-9.596,14.88,0,14.88S165.149,10.997,155.554,10.997z"/>
<path fill="#00C7C4" d="M222.342,31.791c-9.596,0-9.596,14.88,0,14.88C231.937,46.67,231.937,31.791,222.342,31.791z"/>
<path fill="#00C7C4" d="M432.472,14.85c-9.596,0-9.596,14.88,0,14.88S442.067,14.85,432.472,14.85z"/>
<g>
	<g>
		<path fill="#00C7C4" d="M517.006,75.078c0.046,0.005,0.092,0.009,0.138,0.013c0.146-0.543,0.294-1.087,0.441-1.631
			c-1.041,0.093-2.095-0.311-3.144-0.259c-1.592,0.078-3.198,0.556-4.731,0.948c-3.092,0.793-6.153,1.732-9.188,2.72
			c-0.628,0.204-0.856,0.974-0.387,1.463c1.479,1.54,4.376,4.497,3.854,6.825c-0.247,1.1,1.44,1.566,1.688,0.465
			c0.704-3.137-2.297-6.438-4.304-8.528c-0.129,0.488-0.258,0.976-0.387,1.463c2.706-0.88,5.433-1.699,8.176-2.45
			c1.722-0.471,3.496-0.987,5.279-1.156c1.049-0.099,2.099,0.353,3.144,0.26c0.777-0.069,1.307-1.228,0.441-1.631
			c-0.188-0.087-0.353-0.14-0.556-0.189C516.374,73.123,515.909,74.811,517.006,75.078L517.006,75.078z"/>
	</g>
</g>
<g>
	<g>
		<path fill="#00C7C4" d="M496.571,43.7c1.438,1.22,2.849,2.474,4.265,3.72c0.94,0.827,1.899,1.979,2.987,2.617
			c0.857,0.502,2.699,0.116,3.622,0.106c1.752-0.018,3.598,0.06,5.326-0.276c1.108-0.215,0.638-1.902-0.465-1.688
			c-1.399,0.271-2.923,0.184-4.342,0.207c-0.793,0.013-1.585,0.017-2.378,0.02c-0.319,0.001-0.639,0.001-0.958,0.001
			c-0.565-0.001-0.165-0.116,0.224,0.228c-2.338-2.068-4.663-4.153-7.043-6.173C496.954,41.736,495.71,42.968,496.571,43.7
			L496.571,43.7z"/>
	</g>
</g>
<g>
	<g>
		<path fill="#00C7C4" d="M512.665,48.736c-2.109,1.666-4.725,2.307-7.204,3.213c-1.836,0.67-3.304,1.694-4.803,2.921
			c0.354-0.045,0.707-0.091,1.062-0.137c-2.075-1.522-2.82-4.419-4.371-6.409c-2.02-2.59-4.938-4.646-7.574-6.563
			c-0.914-0.666-1.786,0.854-0.883,1.512c2.887,2.102,6.195,4.456,8.07,7.568c1.175,1.95,1.986,4.019,3.873,5.404
			c0.336,0.246,0.778,0.095,1.062-0.137c3.604-2.95,8.374-3.266,12.007-6.134C514.789,49.275,513.541,48.044,512.665,48.736
			L512.665,48.736z"/>
	</g>
</g>
<path fill="#00C7C4" d="M515.13,32.542c10.646,0,10.646,14.775,0,14.775C504.487,47.317,504.487,32.542,515.13,32.542z"/>
<path d="M289.097,240.478c0,0-1.147,19.285,0,21.351c1.148,2.067-49.819-1.607-49.819-1.607s-6.657-0.576-6.657,2.238
	c0,2.814-0.23,19.917,0,20.606c0.229,0.689,4.82,4.133,6.657,3.673s41.784-2.984,41.784-2.984s10.791-1.837,10.561,9.643
	c-0.23,11.479-2.984,25.828-2.984,32.486s-7.117,10.561-13.315,10.561s-87.472,3.903-87.472,3.903s-8.035-17.678-5.051-21.121
	c2.985-3.444,11.48-1.148,18.367-1.148s45.228,1.148,56.248,1.263c11.02,0.115,14.004-0.516,14.75-6.371
	c0,0,2.123-12.914,0.059-13.03c-2.067-0.114-51.313,4.248-52.116,3.33s-5.97-1.723-5.739-10.676
	c0.229-8.953-4.822-42.587-4.477-42.702c0.344-0.115,0-10.446,17.791-9.987C245.476,240.364,289.097,240.478,289.097,240.478z"/>
<path d="M305.282,226.129l1.492,12.455c0,0,0.631,3.272-2.755,3.157c-3.386-0.115-9.964-1.852-9.964-1.852v21.356l10.676-0.172
	c0,0,2.642-0.17,2.756,5.856c0.115,6.026-0.023,63.2-0.023,63.2s0.229,9.068,8.148,10.216c7.922,1.148,28.584,0,28.584,0v-17.448
	h-10.33c0,0-6.715,1.033-6.372-7.404c0.345-8.437-1.55-51.483-1.55-51.483s-1.033-4.821,7.404-5.166S550.95,258.5,550.95,258.5
	v-19.458l-215.19,2.239c0,0-8.438,1.032-8.608-3.961c-0.174-4.993,1.549-11.191,1.549-11.191H305.282z"/>
<path d="M366.467,271.149c0,0-5.188-1.823-11.378,5.925c-6.189,7.747,1.126,54.551,1.126,54.551s1,7.762,7.751,9.188
	c6.752,1.427,26.257,0,26.257,0s10.252,0.438,10.752-8.693c0.501-9.134,2.407-39.587,0-55.045c-0.84-2.733-0.25-5.185-5.751-5.925
	C389.722,270.409,366.467,271.149,366.467,271.149z"/>
<path d="M416.53,271.702c3.201,14.807,1.34,68.367-0.383,69.103c-1.721,0.737,20.574,2.232,20.229-0.229
	c-0.345-2.461-1.606-33.979,1.377-38.341c2.985-4.362,14.119-10.331,14.119-10.331s5.511-1.852,8.266,2.69s7.481,5.221,7.481,5.221
	l2.865-19.963c0,0-6.033-8.955-16.545-8.955c-6.248,0-16.817,7.863-21.352,12.595c-0.296-3.799,1.98-13.369,1.98-13.369
	S414.188,270.211,416.53,271.702z"/>
<path d="M477.354,276.982l7.034,53.722c0,0,3.444,10.102,10.331,10.102c6.889,0,24.336,0,24.336,0s3.182,12.168-8.871,16.301
	s-320.495-9.593-318.711,3.444c1.852,13.516,7.189,16.061,7.189,16.061h180.82h136.348c0,0,23.051-5.959,23.511-11.01
	s7.576-86.552,11.249-85.979c3.674,0.574-22.039-2.64-22.039-2.64s-1.607,39.133-5.281,40.344c-3.673,1.21-11.02,2.588-11.02,2.588
	s-9.125-0.172-9.471-2.927c-0.344-2.755,0.172-43.563,0.172-43.563L477.354,276.982z"/>
<path fill="#00C7C4" d="M291.677,235.715c0,0-1.148,19.284,0,21.351s-49.819-1.607-49.819-1.607s-6.658-0.576-6.658,2.238
	c0,2.813-0.229,19.917,0,20.606s4.821,4.132,6.658,3.673s41.784-2.984,41.784-2.984s10.79-1.837,10.561,9.642
	c-0.23,11.479-2.984,25.829-2.984,32.486c0,6.658-7.117,10.561-13.316,10.561c-6.198,0-87.471,3.903-87.471,3.903
	s-8.035-17.679-5.051-21.121c2.984-3.444,11.479-1.148,18.367-1.148c6.887,0,45.227,1.148,56.248,1.263
	c11.02,0.114,14.004-0.517,14.75-6.372c0,0,2.123-12.914,0.058-13.028c-2.067-0.115-51.312,4.248-52.116,3.33
	c-0.803-0.919-5.969-1.723-5.739-10.676s-4.821-42.587-4.476-42.702c0.343-0.115,0-10.446,17.792-9.987
	S291.677,235.715,291.677,235.715z"/>
<path fill="#00C7C4" d="M307.862,221.366l1.492,12.455c0,0,0.631,3.271-2.755,3.156c-3.386-0.114-9.964-1.852-9.964-1.852v21.357
	l10.675-0.173c0,0,2.642-0.169,2.757,5.857c0.114,6.026-0.023,63.2-0.023,63.2s0.229,9.068,8.149,10.216
	c7.921,1.147,28.583,0,28.583,0v-17.448h-10.331c0,0-6.715,1.033-6.371-7.404c0.345-8.438-1.549-51.483-1.549-51.483
	s-1.034-4.821,7.403-5.167c8.438-0.344,217.602-0.344,217.602-0.344V234.28l-215.19,2.239c0,0-8.438,1.032-8.609-3.961
	c-0.173-4.994,1.549-11.192,1.549-11.192H307.862z"/>
<path fill="#00C7C4" d="M369.046,266.386c0,0-5.188-1.824-11.377,5.924s1.125,54.552,1.125,54.552s1,7.761,7.752,9.188
	c6.752,1.426,26.256,0,26.256,0s10.253,0.438,10.754-8.694c0.499-9.133,2.406-39.587,0-55.045c-0.842-2.732-0.25-5.184-5.752-5.924
	S369.046,266.386,369.046,266.386z"/>
<path fill="#00C7C4" d="M419.11,266.939c3.201,14.808,1.34,68.367-0.383,69.104c-1.721,0.737,20.574,2.232,20.229-0.229
	c-0.344-2.462-1.606-33.979,1.377-38.34c2.985-4.362,14.121-10.332,14.121-10.332s5.51-1.852,8.264,2.69
	c2.756,4.542,7.482,5.221,7.482,5.221l2.865-19.963c0,0-6.033-8.954-16.546-8.954c-6.247,0-16.816,7.862-21.351,12.595
	c-0.297-3.799,1.98-13.37,1.98-13.37S416.769,265.448,419.11,266.939z"/>
<path fill="#00C7C4" d="M479.935,272.218l7.035,53.723c0,0,3.442,10.102,10.33,10.102c6.889,0,24.336,0,24.336,0
	s3.182,12.168-8.871,16.301c-12.053,4.132-320.496-9.593-318.711,3.443c1.852,13.517,7.189,16.062,7.189,16.062h180.82h136.349
	c0,0,23.051-5.96,23.51-11.011c0.459-5.05,7.575-86.552,11.249-85.978s-22.04-2.641-22.04-2.641s-1.606,39.134-5.28,40.345
	c-3.674,1.21-11.02,2.587-11.02,2.587s-9.126-0.171-9.471-2.927c-0.344-2.755,0.172-43.563,0.172-43.563L479.935,272.218z"/>
<path opacity="0.2" fill="#FFFFFF" d="M292.474,293.853c-0.679-1.936-1.363-5.974-1.916-6.863c-0.437-0.705-2.903-1.715-4.487-2.06
	c-4.955-1.08-10.298-0.712-15.256,0.183c-5.987,1.08-11.714,0.995-17.744,1.132c-5.614,0.129-10.923-0.396-15.336-4.17
	c-1.036-0.886-1.686-2.053-2.001-3.317c-0.193-0.194-0.326-0.355-0.359-0.455c-0.229-0.689,0-17.793,0-20.606
	c0-2.813,6.658-2.238,6.658-2.238s50.967,3.673,49.82,1.607c-0.668-1.2-0.56-8.211-0.352-13.877
	c-0.647,0.44-1.361,0.807-2.131,1.077c-6.109,2.158-12.801,1.433-19.132,1.095c-6.688-0.357-13.441-0.337-20.139-0.545
	c-7.116-0.22-14.423,0.045-21.5,0.905c-4.229,0.514-6.747,1.453-8.698,5.534c-1.117,2.337-3.586,3.589-6.104,3.73
	c1.381,10.691,3.475,27.009,3.324,32.845c-0.229,8.954,4.936,9.757,5.739,10.676c0.805,0.918,50.05-3.444,52.116-3.33
	s-0.057,13.028-0.057,13.028c-0.219,1.709-0.631,2.971-1.375,3.902c-0.426,1.688-1.483,3.273-3.355,4.454
	c-4.869,3.07-10.934,3.506-16.547,3.527c-5.592,0.021-11.198,0.278-16.786,0.014c-7.788-0.368-15.302-1.739-22.962-2.992
	c-4.354-0.712-5.144-0.892-9.83-1.269c-3.51-0.282-7.063-0.457-10.577-0.17c-0.312,0.025-2.253,0.307-1.817,0.212
	c-0.588,0.107-1.176,0.221-1.754,0.377c-0.553,0.149-1.103,0.313-1.646,0.5c-0.233,0.106-0.521,0.239-0.65,0.314
	c-0.246,0.145-0.413,0.237-0.53,0.294c-0.141,0.132-0.246,0.23-0.33,0.302c-0.059,0.1-0.111,0.188-0.156,0.261
	c-0.008,0.046-0.018,0.094-0.033,0.158c-0.035,0.149-0.063,0.25-0.087,0.33c-0.112,1.143-0.427,2.226-0.908,3.2
	c1.517,6.233,5.03,13.964,5.03,13.964s81.271-3.903,87.471-3.903c6.198,0,13.314-3.903,13.314-10.561
	c0-5.197,1.68-15.082,2.525-24.63C293.308,295.718,292.816,294.827,292.474,293.853z"/>
<path opacity="0.2" fill="#FFFFFF" d="M336.104,254.081c8.438-0.344,217.603-0.344,217.603-0.344v-10.512
	c-6.935-0.473-13.867-0.59-20.875-0.456c-21.607,0.412-43.102-0.636-64.691-1.241c-10.856-0.305-21.729-0.362-32.59-0.273
	c-10.886,0.087-21.576,1.324-32.418,1.919c-21.032,1.154-43.726,1.317-64.482-2.493c-4.305-0.791-6.272-0.793-6.272-4.649
	c0-0.052,0.007-0.101,0.007-0.153c-1.357-0.575-2.42-1.581-2.479-3.319c-0.172-4.994,1.55-11.192,1.55-11.192h-16.22
	c0.023,0.143,0.051,0.285,0.068,0.43c0.537,4.257,0.104,9.125-2.448,12.725c-3.18,4.487-8.044,6.456-13.466,6.403
	c-0.902-0.009-1.77-0.184-2.58-0.482v16.041c0,0,2.959,0.528,10.676-0.173c7.717-0.701,7.133,6.409,7.129,10.025
	c-0.01,10.098-0.25,20.194-0.224,30.291c0.024,9.112-0.649,19.118,1.458,28.041c0.874,3.701,2.248,7.477,3.967,11.087
	c8.724,0.853,27.137-0.17,27.137-0.17v-17.448H336.62c0,0-6.715,1.033-6.37-7.404c0.344-8.438-1.55-51.483-1.55-51.483
	S327.667,254.426,336.104,254.081z"/>
<path opacity="0.2" fill="#FFFFFF" d="M368.701,266.3c4.083-0.506,8.86-0.124,8.86-0.124s14.916-0.531,20.418,0.209
	c5.5,0.74,4.911,3.192,5.75,5.924c2.407,15.458,0.501,45.912,0,55.045c-0.5,9.133-10.753,8.694-10.753,8.694s-19.504,1.426-26.255,0
	c-3.828-0.809-5.807-3.653-6.803-5.965c0.345-8.263,1.115-16.502,1.885-24.741c0.584-6.264,3.911-10.436,4.309-16.71L368.701,266.3z
	"/>
<path opacity="0.2" fill="#FFFFFF" d="M465.533,275.965c-2.292-1.39-4.692-2.639-7.388-3.004c-4.924-0.667-9.589,0.732-14.268,1.967
	c-1.947,1.152-4.066,2.096-5.92,3.483c-0.923,0.688-2.554,0.072-2.789,0.319c-0.297-3.799,2.155-13.37,2.155-13.37
	s-5.159,0.023-9.989,0.235c0.023,0.239,0.039,0.486,0.037,0.74c-0.029,11.603-1.031,23.01-2.971,34.446
	c-1.923,11.324-2.844,22.772-3.916,34.2c-0.05,0.528-0.156,1.039-0.306,1.527c4.606,0.694,19.231,1.302,18.952-0.695
	c-0.344-2.462-1.607-33.979,1.377-38.34s14.12-10.332,14.12-10.332s5.51-1.852,8.265,2.69s7.48,5.221,7.48,5.221l2.07-14.416
	C470.327,278.579,468.11,277.527,465.533,275.965z"/>
<path opacity="0.2" fill="#FFFFFF" d="M541.444,273.476c0.043,0.371,0.068,0.745,0.073,1.125c0.134,11.062-3.741,23.11-9.038,32.725
	c-1.292,2.346-3.451,3.947-5.883,4.724c-0.184,0.27-0.375,0.448-0.571,0.514c-3.673,1.21-11.02,2.587-11.02,2.587
	s-9.126-0.171-9.47-2.927c-0.345-2.755,0.172-43.563,0.172-43.563l-11.798,1.64c0.129,0.724,0.167,1.47,0.083,2.234
	c-0.72,6.686,0.519,14.782-0.639,21.383c-0.342,1.947-0.545,4.687-0.599,7.339c-0.052,2.523-0.056,5.045-0.034,7.568
	c0.042,4.843-0.668,24.318-0.449,25.09c0.131,0.113,0.268,0.22,0.402,0.327c0.563-0.055,2.922,1.74,3.483,1.676
	c3.577-0.413,6.835,1.056,11.664,0.125c5.239-1.01,8.471,0.069,13.813,0c0.461,4.737,0.213,0.069,0.213,5.85
	c-2.4,8.83-6.918,10.128-12.883,11.346c-6.117,1.25-12.332,2.233-18.572,2.569c-6.164,0.334-12.355,0.156-18.514,0.615
	c-5.585,0.416-11.305,1.738-17.374,2.417c-22.45,2.51-44.847-0.577-67.308-1.118c-21.563-0.52-43.27-1.383-64.836-0.919
	c-22.439,0.483-42.875,4.374-65.547,6.547c-20.092,1.926-40.289,2.81-60.421,1.349c2.243,5.822,5.024,7.15,5.024,7.15h317.168
	c0,0,23.051-5.96,23.51-11.011c0.453-4.987,7.396-84.493,11.107-85.952C551.601,274.718,546.386,274.084,541.444,273.476z"/>
<path d="M21.906,96.593l35.937-14.421c0,0,17.557,71.369,16.775,95.787c0.781,12.893-1.389,24.148-8.516,26.14
	c-7.129,1.991-18.178,10.353-17.643,9.158c0.533-1.194-7.664-30.659-7.664-30.659l9.623-5.177L21.906,96.593z"/>
<path d="M403.548,82.172c0,0,8.719,28.065,7.844,66.945c-0.322,14.264-5.412,27.766-7.743,45.032
	c-0.327,4.212,2.687,11.285,9.755,16.22c8.08-0.79,53.416,0,54.84,0c1.426,0,14.297,0.463,14.06-4.802
	c-0.118-2.631,7.793-31.521,8.301-61.596c0.508-30.109-6.388-61.403-4.961-61.799h-24.607c0,0,6.558,32.083,6.623,59.226
	c0.05,20.455-6.079,37.824-7.509,38.106c-3.326,0.658-20.791,0-20.791,0s-3.208-0.395-3.326-5.265
	c-0.051-2.076,2.244-17.51,2.057-36.38c-0.254-25.386-3-55.687-3-55.687H403.548z"/>
<path d="M92.853,96.044c0,0,15.261,66.929-0.926,111.212c15.053,6.896,24.988,3.3,24.988,3.3l6.155-32.653l3.071-0.247l1.885,32.714
	h38.566c0,0,5.221-26.137,9.795-56.752c4.982-33.343-1.807-71.445,0.895-71.445c5.18,0-22.914,0-22.914,0
	s-0.773,79.395-5.952,87.366l-3.337-0.328l-17.164-87.417c0,0-7.932,0.19-10.359,0.759S92.853,96.044,92.853,96.044z"/>
<path d="M507.565,82.167c0,0,14.158,77.65,0,124.25c16.395,6.847,21.205,2.91,21.205,2.91l6.703-32.419l3.344-0.244l1.938,33.705h42
	c0,0,5.802-27.177,10.784-57.57c5.427-33.104-1.969-70.933,0.973-70.933c5.641,0-24.953,0-24.953,0s-0.844,78.823-6.484,86.737
	l-3.633-0.325L540.749,81.49c0,0-8.638,0.188-11.281,0.754C526.823,82.809,507.565,82.167,507.565,82.167z"/>
<path d="M694.009,96.334c1.615-3.92-9.689-9.979-14.937-10.336c-5.248-0.356-38.351-4.99-41.581-3.564
	c-3.229,1.425-21.813,3.184-21.813,3.184s4.761,29.217,3.4,57.469c-1.359,28.252-8.838,55.538-7.021,58.39
	c3.635,5.703,9.716,8.438,11.734,8.438s43.6,1.069,45.215,0c1.615-1.068,30.654-19.842,30.654-29.466
	C699.661,170.825,692.394,100.255,694.009,96.334z M668.142,188.64c-9.246,4.205-19.066,0.482-28.537,0.038
	c-0.393-9.127-0.192-65.522-0.192-74.688l16.18-6.662c2.964-0.59,7.317,1.137,10.084,1.866c2.601,0.685,3.622,0.705,5.003,2.946
	c2.255,3.662,1.406,10.369,1.146,14.448c-0.368,5.749-0.892,11.497-0.739,17.265c0.209,10.093,2.313,20.187,2.313,30.279
	C673.397,180.86,675.079,185.486,668.142,188.64z"/>
<path d="M381.347,95.421c0-10.401-13.765-13.959-22.797-13.44c-4.504,0.258-32.486,0.191-43.621,0.907
	c-10.497,0.675-13.639,4.282-13.867,9.778c-0.222,5.351,1.923,27.062,1.224,55.808c-0.38,15.622,1.698,34.368-2.739,51.787
	c-1.03,4.045,5.424,8.525,11.137,10.108c6.551,1.813,45.905,0,52.961,0c8.459,0,16.395-7.722,17.703-15.017
	C391.771,137.216,381.347,101.855,381.347,95.421z M361.948,183.246c-0.846,6.008-8.467,8.165-12.676,8.165
	c-8.82,0-21.637-1.23-23.473-11.256c-1.384-7.564-0.578-65.22,0.609-72.598l27.927-2.913c5.079,3.138,8.216,4.412,8.428,11.625
	c0.229,7.766-0.29,20.563-0.015,28.326c0.184,5.122,0.278,10.264,0.287,15.43c0.01,5.17-0.967,10.046-1.088,15.159
	C361.888,177.756,362.308,180.69,361.948,183.246z"/>
<path d="M281.503,159.088c-0.464-2.773-16.583-4.677-17.655-4.931c-0.116-0.027-0.191-0.036-0.235-0.039
	c0.295-0.024,1.992-0.408,3.988-4.65c2.68-5.698,7.237-47.363,3.217-52.684c-4.021-5.32-11.434-14.948-16.258-14.948
	c-4.826,0-27.214,0-27.214,0l-28.632,0.335c0,0,7.432,35.188,3.32,66.042c-2.638,19.793-6.932,51.84-6.932,51.84l7.985,10.315
	c0,0,53.522,2.061,62.368-2.246c8.846-4.308,8.744-6.442,10.454-9.121C278.236,195.356,285.345,182.112,281.503,159.088z
	 M246.337,101.02c7.365,4.777,6.89,20.702,5.227,28.664c-1.174,5.625-6.039,10.348-11.485,11.936
	c-2.959,0.863-13.583,1.029-16.122-0.226c-1.63-0.807-1.564-4.125-1.914-5.959c-0.689-3.628-0.814-26.558-1.512-30.129
	L246.337,101.02z M259.239,180.491c-0.125,3.909-0.882,7.49-2.887,10.649c-3.682,5.801-8.672,2.263-13.781,2.828
	c-0.666-0.688-5.523,0.134-6.422,0.166c-3.76,0.129-7.518,0.271-11.279,0.373c-2.912,0.079-4.857,0.743-5.539-2.567
	c-0.637-3.098-0.535-6.578-0.229-9.713c0.049-0.494-0.951-10.177-0.824-10.661l24.174-9.907c7.595-0.517,12.543-0.383,14.139,2.161
	c0.959,1.53,1.619,3.725,2.048,5.56C259.474,172.946,259.358,176.803,259.239,180.491z"/>
<path fill="#C4C4C4" d="M25.659,91.905l35.937-14.42c0,0,17.556,71.368,16.776,95.786c0.779,12.893-1.389,24.149-8.517,26.141
	c-7.129,1.99-18.178,10.352-17.643,9.158c0.534-1.195-7.664-30.659-7.664-30.659l9.623-5.177L25.659,91.905z"/>
<path fill="#C4C4C4" d="M407.302,77.485c0,0,8.719,28.064,7.842,66.944c-0.322,14.264-5.412,27.767-7.742,45.033
	c-0.327,4.212,2.686,11.284,9.755,16.22c8.079-0.79,53.415,0,54.841,0s14.296,0.462,14.059-4.803
	c-0.119-2.631,7.793-31.52,8.301-61.596c0.508-30.109-6.387-61.403-4.961-61.798h-24.607c0,0,6.558,32.083,6.623,59.225
	c0.049,20.456-6.08,37.825-7.509,38.106c-3.327,0.658-20.792,0-20.792,0s-3.207-0.395-3.326-5.265
	c-0.051-2.076,2.245-17.51,2.057-36.379c-0.254-25.386-3-55.687-3-55.687H407.302z"/>
<path fill="#C4C4C4" d="M96.606,91.356c0,0,15.26,66.929-0.927,111.213c15.053,6.896,24.989,3.3,24.989,3.3l6.154-32.654l3.07-0.246
	l1.886,32.714h38.567c0,0,5.219-26.138,9.795-56.752c4.981-33.343-1.808-71.445,0.893-71.445c5.18,0-22.912,0-22.912,0
	s-0.774,79.394-5.953,87.365l-3.338-0.327l-17.164-87.418c0,0-7.932,0.189-10.359,0.759S96.606,91.356,96.606,91.356z"/>
<path fill="#C4C4C4" d="M511.319,77.48c0,0,14.157,77.649,0,124.25c16.394,6.846,21.203,2.91,21.203,2.91l6.704-32.418l3.344-0.245
	l1.938,33.706h42c0,0,5.801-27.177,10.783-57.571c5.428-33.103-1.968-70.932,0.973-70.932c5.641,0-24.952,0-24.952,0
	s-0.844,78.823-6.484,86.737l-3.634-0.325l-18.693-86.789c0,0-8.637,0.188-11.281,0.753C530.576,78.121,511.319,77.48,511.319,77.48
	z"/>
<path fill="#C4C4C4" d="M697.761,91.646c1.616-3.92-9.688-9.979-14.936-10.336s-38.352-4.99-41.58-3.564
	c-3.23,1.425-21.813,3.184-21.813,3.184s4.761,29.217,3.4,57.469c-1.359,28.252-8.838,55.538-7.021,58.39
	c3.633,5.703,9.715,8.438,11.733,8.438s43.6,1.068,45.214,0c1.615-1.069,30.654-19.843,30.654-29.467
	C703.413,166.137,696.146,95.567,697.761,91.646z M671.894,183.952c-9.246,4.205-19.066,0.482-28.536,0.038
	c-0.394-9.126-0.192-65.522-0.192-74.688l16.18-6.662c2.963-0.589,7.316,1.137,10.084,1.866c2.601,0.686,3.622,0.704,5.002,2.946
	c2.256,3.662,1.407,10.369,1.146,14.447c-0.369,5.75-0.893,11.497-0.74,17.266c0.211,10.093,2.313,20.186,2.313,30.279
	C677.149,176.172,678.831,180.798,671.894,183.952z"/>
<path fill="#C4C4C4" d="M385.099,90.733c0-10.4-13.764-13.959-22.795-13.441c-4.506,0.259-32.487,0.192-43.623,0.908
	c-10.496,0.675-13.638,4.281-13.866,9.778c-0.222,5.351,1.923,27.062,1.224,55.808c-0.38,15.621,1.697,34.369-2.739,51.788
	c-1.03,4.044,5.423,8.525,11.138,10.108c6.551,1.813,45.904,0,52.96,0c8.46,0,16.396-7.722,17.702-15.018
	C395.524,132.528,385.099,97.167,385.099,90.733z M365.7,178.558c-0.846,6.008-8.467,8.165-12.675,8.165
	c-8.82-0.001-21.638-1.231-23.473-11.256c-1.384-7.565-0.578-65.221,0.608-72.598l27.928-2.913
	c5.078,3.138,8.215,4.413,8.428,11.625c0.229,7.766-0.291,20.563-0.014,28.327c0.183,5.122,0.277,10.264,0.286,15.43
	c0.009,5.17-0.967,10.045-1.089,15.159C365.642,173.069,366.061,176.002,365.7,178.558z"/>
<path fill="#C4C4C4" d="M285.255,154.401c-0.463-2.773-16.582-4.678-17.654-4.931c-0.115-0.027-0.191-0.037-0.236-0.039
	c0.296-0.024,1.994-0.409,3.988-4.651c2.681-5.697,7.238-47.363,3.218-52.683s-11.434-14.948-16.258-14.948
	c-4.825,0-27.214,0-27.214,0l-28.632,0.336c0,0,7.431,35.188,3.319,66.042c-2.637,19.793-6.932,51.84-6.932,51.84l7.986,10.315
	c0,0,53.521,2.06,62.368-2.246c8.845-4.308,8.745-6.443,10.454-9.122C281.989,190.668,289.098,177.423,285.255,154.401z
	 M250.089,96.332c7.366,4.777,6.891,20.702,5.229,28.665c-1.175,5.624-6.04,10.348-11.486,11.936
	c-2.959,0.862-13.582,1.029-16.123-0.227c-1.629-0.806-1.564-4.124-1.913-5.958c-0.69-3.628-0.815-26.558-1.513-30.13
	L250.089,96.332z M262.991,175.802c-0.125,3.909-0.881,7.492-2.886,10.649c-3.683,5.802-8.673,2.264-13.78,2.829
	c-0.667-0.688-5.524,0.133-6.424,0.165c-3.758,0.13-7.518,0.272-11.277,0.373c-2.912,0.079-4.858,0.744-5.541-2.567
	c-0.637-3.098-0.534-6.577-0.228-9.712c0.049-0.495-0.951-10.177-0.825-10.661l24.176-9.906c7.594-0.517,12.542-0.383,14.137,2.16
	c0.959,1.53,1.619,3.726,2.049,5.56C263.227,168.257,263.11,172.114,262.991,175.802z"/>
<path fill="#FFFFFF" d="M78.37,173.271c0.781-24.418-16.774-95.786-16.774-95.786l-24.474,9.82c0.813,1.472,1.332,3.165,1.529,4.954
	c0.391,3.565,26.345,80.521,26.345,80.521s-8.388,7.64-16.962,10.503c-0.627,0.209-1.265,0.337-1.899,0.395
	c2.354,8.641,6.461,24.035,6.078,24.891c-0.535,1.194,10.514-7.167,17.643-9.158C76.982,197.419,79.151,186.164,78.37,173.271z"/>
<path fill="#FFFFFF" d="M489.396,77.485h-10.104c2.268,6.239-0.705,69.036-1.209,76.101c-0.602,8.435-2.504,18.181-11.963,20.848
	c-0.787,0.223-1.582,0.355-2.373,0.409c-3.66,0.614-20.637-0.026-20.637-0.026s-3.207-0.395-3.326-5.265
	c-0.051-2.076,2.245-17.51,2.057-36.379c-0.254-25.386-3-55.687-3-55.687h-12.723c-0.002,2.333,0.101,4.665,0.328,6.989
	c0.045,0.448,0.508,4.094,0.308,2.83c0.181,1.219,0.368,2.438,0.579,3.652c1.005,5.819,0.779,43.986-3.046,57.119
	c-3.479,11.949-1.821,23.58-4.931,35.639c-0.856,3.32-8.404,15.779-8.418,15.863c-0.082,0.695,3.016,3.479,4.8,5.038
	c0.455,0.364,0.925,0.721,1.418,1.067c8.079-0.79,53.415,0,54.841,0c1.425,0,14.296,0.462,14.059-4.803
	c-0.119-2.631,7.793-31.52,8.301-61.596C494.864,109.174,487.97,77.88,489.396,77.485z"/>
<path fill="#FFFFFF" d="M181.034,77.485h-13.711c0.281,0.499-4.336,53.796-4.624,59.354c-0.241,4.678-6.782,24.309-10.53,28.011
	l-3.338-0.327l-0.223-1.139c-0.119-0.1-16.941-86.279-16.941-86.279s-7.932,0.189-10.359,0.759c-1.73,0.406-6.985,3.35-13.626,7.152
	c-0.038,3.722,3.856,33.381,4.276,35.549c0.705,19.668,0.303,36.556-0.643,41.172c-0.773,3.768-5.998,20.787-7.078,25.089
	c-1.063,4.242-5.772,8.311-6.584,12.612c-0.239,1.269-0.877,2.359-1.756,3.226c14.93,6.762,24.771,3.204,24.771,3.204l6.154-32.654
	l3.07-0.246l1.886,32.714h38.567c0,0,5.219-26.138,9.795-56.752C185.123,115.587,178.334,77.485,181.034,77.485z"/>
<path fill="#FFFFFF" d="M598.265,77.179h-12.583c0.005,0.095,0.019,0.188,0.021,0.284c0.291,13.306-0.107,26.51,0.749,39.803
	c0.789,12.252-6.505,43.962-6.505,43.962l-8.501,2.358c0,0-3.631,0.597-6.632,0.15l-1.619-0.146l-0.322-1.499
	c-0.615-2.855-3.295-12.477-3.125-14.509l-15.246-70.781c0,0-8.637,0.188-11.281,0.753c-1.062,0.228,0.547,0.256-3.551,0.214
	c1.123,8.846,0.67,18.109,0.658,27.035c-0.016,11.224,0.277,23.158-1.072,34.31c-1.448,11.958-6.777,27.389-8.793,39.243
	c-1.629,9.587-4.844,14.59-9.064,23.405c16.329,6.799,21.125,2.877,21.125,2.877l6.704-32.418l3.344-0.245l1.938,33.706h42
	c0,0,5.801-27.177,10.784-57.571C602.72,115.008,595.324,77.179,598.265,77.179z"/>
<path fill="#FFFFFF" d="M385.099,90.733c0-10.401-13.764-13.959-22.795-13.441c-4.506,0.259-32.487,0.192-43.623,0.908
	c-0.332,0.021,5.872-0.285,5.555-0.258c1.646,4.751-4.916,49.292-5.936,59.368c-1.079,10.657-1.615,21.165-3.73,31.715
	c-0.998,4.979-2.113,9.931-3.115,14.907c-0.465,2.305-0.922,4.611-1.313,6.93c-0.195,1.164-0.395,2.328-0.563,3.497
	c-0.025,0.174-0.047,0.321-0.066,0.456c-0.021,0.208-0.058,0.534-0.114,1.018c-0.273,2.347-0.989,4.561-2.114,6.445
	c2.08,1.496,4.685,2.72,7.15,3.404c6.551,1.813,45.906,0,52.962,0c8.459,0,16.396-7.722,17.702-15.018
	C395.524,132.528,385.099,97.167,385.099,90.733z M376.024,149.083c-1.082,11.751-6.781,33.864-13.736,35.679
	c-2.439,1.421-11.365,2.52-16.508,1.598c-7.375-0.83-14.858-3.413-16.228-10.893c-1.384-7.565-0.578-65.221,0.608-72.598
	l27.928-2.913c0.324,0.2,0.64,0.392,0.947,0.58c0.953-0.247,1.941-0.393,2.957-0.393c6.672,0,12.111,5.535,12.166,12.166
	C374.259,124.609,377.161,136.755,376.024,149.083z"/>
<path fill="#FFFFFF" d="M285.255,154.401c-0.463-2.773-16.582-4.678-17.654-4.931c-0.115-0.027-0.191-0.037-0.236-0.039
	c0.296-0.024,1.994-0.409,3.988-4.651c2.681-5.697,7.238-47.363,3.218-52.683c-4.022-5.32-11.434-14.948-16.258-14.948
	c-4.825,0-25.606-0.019-25.606-0.019l-15.407,0.181c-1.606,9.289-2.841,55.063-4.341,64.645c-1.417,9.058-4.12,23.269-5.789,32.326
	c-1.215,9.087-7.449,14.619-8.314,21.085c2.283,2.932,7.986,10.315,7.986,10.315s53.521,2.06,62.368-2.246
	c8.845-4.309,8.744-6.443,10.454-9.122C281.989,190.668,289.098,177.423,285.255,154.401z M250.089,96.332
	c0.043,0.028,0.084,0.062,0.126,0.09c0.478-0.226,8.956-0.22,8.956-0.22s2.893,13.585,2.21,17.845
	c-0.53,3.305-1.901,6.283-3.315,9.292c-2.57,5.469-6.197,11.559-12.527,13.049c-0.107,0.025-0.213,0.038-0.319,0.059
	c-0.458,0.182-0.919,0.35-1.388,0.486c-2.959,0.862-13.584,1.029-16.123-0.227c-1.629-0.806-1.564-4.124-1.913-5.958
	c-0.69-3.629-0.815-26.558-1.513-30.13L250.089,96.332z M269.838,172.293c-0.615,9.633-3.726,16.306-13.798,17.339
	c-2.239,0.229-3.59,0.092-5.854-0.207c-0.232,0.009-3.628-0.171-3.861-0.146c-0.667-0.688-5.524,0.133-6.424,0.165
	c-3.76,0.129-7.518,0.271-11.279,0.373c-2.912,0.079-4.856,0.744-5.539-2.567c-0.637-3.098-0.534-6.577-0.228-9.712
	c0.049-0.495-0.951-10.177-0.825-10.661l24.176-9.906c2.678-0.183,5.02-0.28,7.008-0.224c0.518-1.226,16.355,1.236,16.355,1.236
	S270.038,169.157,269.838,172.293z"/>
<path fill="#FFFFFF" d="M697.761,91.924c1.616-3.92-9.688-9.979-14.936-10.336c-5.248-0.357-38.352-4.99-41.582-3.565
	c-1.053,0.466-3.748,0.967-6.895,1.431c2.497,14.238,1.396,28.279-1.033,42.456c-2.17,12.646-4.578,25.356-7.498,37.85
	c-1.443,6.174-3.499,12.193-4.891,18.374c-0.331,1.469-0.652,2.942-0.894,4.429c-0.053,0.33-0.288,2.005-0.334,2.209
	c-0.144,1.367-0.272,2.735-0.397,4.104c-0.315,3.464-0.564,7.33-1.235,11.083c3.513,3.739,7.837,5.546,9.479,5.546
	c2.019,0,43.599,1.07,45.214,0c1.615-1.068,30.654-19.843,30.654-29.466C703.413,166.415,696.146,95.844,697.761,91.924z
	 M686.53,146.588c-0.178,5.785-2.29,21.754-4.273,27.211c-1.789,4.92-9.711,11.946-14.271,11.755
	c-8.076,1.898-16.48-0.905-24.628-1.287c-0.394-9.126-0.192-65.522-0.192-74.688l16.18-6.661c2.963-0.59,7.316,1.137,10.084,1.865
	c2.128,0.561,16.045,0.663,16.045,0.663S686.861,135.796,686.53,146.588z"/>
<g>
	<g>
		<path fill="#00C7C4" d="M344.041,69.248c-3.519-0.811-6.61-2.627-9.801-4.246c-0.034,0.267-0.069,0.533-0.104,0.8
			c1.905-0.55,3.721-1.262,5.726-1.346c1.905-0.08,4.218,1.19,5.965,1.859c3.506,1.342,6.962,2.789,10.547,3.916
			c0.54,0.17,0.769-0.675,0.232-0.844c-4.179-1.314-8.2-3.045-12.3-4.581c-1.767-0.662-3.371-1.272-5.271-1.192
			c-1.736,0.073-3.48,0.866-5.131,1.343c-0.347,0.1-0.453,0.623-0.104,0.8c3.26,1.654,6.416,3.506,10.01,4.334
			C344.358,70.218,344.591,69.374,344.041,69.248L344.041,69.248z"/>
	</g>
</g>
<g>
	<g>
		<path d="M343.92,68.786c-3.519-0.801-6.612-2.63-9.802-4.246c-0.035,0.267-0.069,0.533-0.104,0.8
			c1.905-0.55,3.721-1.262,5.726-1.346c1.869-0.079,4.137,1.155,5.855,1.803c3.703,1.397,7.354,2.916,11.128,4.123
			c0.539,0.172,0.769-0.673,0.232-0.845c-4.062-1.298-7.995-2.94-11.981-4.444c-1.709-0.645-3.405-1.348-5.234-1.512
			c-1.984-0.179-4.099,0.84-5.958,1.377c-0.347,0.1-0.454,0.623-0.104,0.8c3.258,1.651,6.416,3.516,10.011,4.334
			C344.237,69.754,344.47,68.911,343.92,68.786L343.92,68.786z"/>
	</g>
</g>
<g>
	<g>
		<path fill="#00C7C4" d="M349.902,73.209c4.075,0.786,9.187-1.707,12.873-3.24c0.35-0.145,0.442-0.573,0.104-0.8
			c-2.612-1.752-5.217-3.565-7.956-5.116c-0.491-0.278-0.933,0.478-0.441,0.756c2.738,1.55,5.344,3.364,7.956,5.116
			c0.035-0.267,0.069-0.533,0.104-0.8c-1.532,0.637-3.093,1.205-4.663,1.738c-2.301,0.782-5.281,1.977-7.745,1.501
			C349.583,72.259,349.349,73.102,349.902,73.209L349.902,73.209z"/>
	</g>
</g>
<g>
	<g>
		<path d="M349.781,72.748c4.075,0.786,9.186-1.707,12.873-3.239c0.35-0.146,0.442-0.574,0.104-0.8
			c-2.612-1.752-5.218-3.566-7.957-5.116c-0.492-0.278-0.933,0.478-0.441,0.756c2.739,1.549,5.344,3.363,7.957,5.116
			c0.035-0.267,0.069-0.533,0.104-0.8c-1.532,0.637-3.093,1.205-4.664,1.739c-2.3,0.782-5.28,1.976-7.744,1.501
			C349.462,71.797,349.228,72.641,349.781,72.748L349.781,72.748z"/>
	</g>
</g>
<path fill="#00C7C4" d="M350.876,53.762c-10.377-2.378-13.677,12.024-3.301,14.402C357.95,70.542,361.251,56.14,350.876,53.762z"/>
<g>
	<g>
		<path fill="#00C7C4" d="M348.109,71.481c-3.021,0.604-5.729,2.581-8.103,4.449c-0.436,0.343-0.867,0.69-1.294,1.045
			c-0.313,0.261-0.847,0.461-0.364,0.433c-0.621,0.036-1.242,0.069-1.863,0.102c-5.721,0.3-11.689,0.903-17.401,0.3
			c-0.189-0.021-0.376,0.148-0.422,0.321c-0.001,0.003-1.813-1.925-1.903-2.042c-0.737-0.957-1.414-1.96-2.085-2.964
			c-0.913-1.366-1.791-2.758-2.637-4.166c-0.22-0.366-0.825-0.223-0.815,0.221c0.047,2.173-0.193,4.357-0.602,6.488
			c-0.775,4.046-3.246,6.925-5.274,10.372c-0.287,0.487,0.47,0.928,0.756,0.441c2.099-3.565,4.454-6.459,5.362-10.581
			c0.48-2.179,0.681-4.49,0.633-6.721c-0.271,0.074-0.544,0.147-0.815,0.221c1.741,2.9,3.553,5.85,5.763,8.419
			c0.406,0.472,1.415,1.677,2.152,1.087c0.533-0.426-0.078-0.203,0.82-0.144c1.178,0.078,2.363,0.069,3.543,0.065
			c4.77-0.014,9.544-0.254,14.306-0.517c0.924-0.051,1.317-0.599,2.042-1.19c2.433-1.987,5.297-4.168,8.435-4.794
			C348.896,72.215,348.66,71.372,348.109,71.481L348.109,71.481z"/>
	</g>
</g>
<g>
	<g>
		<path fill="#00C7C4" d="M319.944,79.238c1.066-3.543,0.02-7.944-0.795-11.465c-0.032-0.139-0.164-0.278-0.306-0.306
			c-2.991-0.581-6.003-1.188-9.036-1.499c-0.562-0.057-0.556,0.818,0,0.876c1.952,0.199,3.889,0.563,5.819,0.909
			c0.764,0.137,1.526,0.28,2.289,0.424c0.216,0.041,0.432,0.083,0.647,0.125c-0.278-0.054-0.294-0.464-0.189,0.007
			c0.731,3.292,1.723,7.384,0.727,10.696C318.938,79.547,319.782,79.777,319.944,79.238L319.944,79.238z"/>
	</g>
</g>
<g>
	<g>
		<path d="M347.707,71.162c-3.02,0.603-5.728,2.58-8.102,4.448c-0.436,0.343-0.867,0.69-1.294,1.045
			c-0.314,0.261-0.847,0.461-0.364,0.433c-0.621,0.036-1.242,0.069-1.864,0.102c-5.72,0.3-11.688,0.903-17.4,0.3
			c-0.189-0.021-0.376,0.148-0.422,0.321c-0.001,0.004-1.813-1.925-1.903-2.041c-0.737-0.956-1.414-1.96-2.085-2.964
			c-0.913-1.366-1.792-2.758-2.638-4.167c-0.22-0.366-0.825-0.222-0.815,0.221c0.047,2.173-0.193,4.357-0.602,6.488
			c-0.774,4.046-3.246,6.925-5.273,10.372c-0.287,0.487,0.47,0.928,0.756,0.441c2.097-3.566,4.454-6.459,5.361-10.581
			c0.48-2.179,0.682-4.49,0.633-6.72c-0.271,0.074-0.544,0.147-0.815,0.221c1.741,2.899,3.554,5.85,5.764,8.418
			c0.406,0.472,1.415,1.677,2.152,1.087c0.532-0.426-0.078-0.203,0.82-0.144c1.179,0.078,2.363,0.069,3.543,0.065
			c4.77-0.015,9.544-0.254,14.306-0.517c0.924-0.051,1.318-0.598,2.042-1.19c2.432-1.987,5.296-4.168,8.434-4.794
			C348.493,71.895,348.258,71.051,347.707,71.162L347.707,71.162z"/>
	</g>
</g>
<g>
	<g>
		<path d="M348.521,68.45c4.978,1.53,8.856-1.826,9.433-6.752c0.673-5.749-4.304-9.783-9.75-9.454
			c-4.818,0.291-7.822,4.814-7.789,9.337c0.037,5.322,4.524,8.247,9.482,7.922c0.561-0.037,0.563-0.912,0-0.875
			c-4.457,0.292-8.178-2.003-8.59-6.673c-0.339-3.839,1.998-7.607,5.748-8.643c4.904-1.355,9.733,2.183,10.057,7.141
			c0.314,4.834-3.572,8.624-8.358,7.153C348.213,67.439,347.983,68.285,348.521,68.45L348.521,68.45z"/>
	</g>
</g>
<g>
	<g>
		<path d="M319.104,78.042c1.066-3.543,0.02-7.945-0.795-11.466c-0.032-0.138-0.164-0.278-0.306-0.306
			c-2.991-0.58-6.003-1.187-9.036-1.498c-0.562-0.058-0.556,0.818,0,0.875c1.952,0.2,3.889,0.563,5.819,0.91
			c0.764,0.137,1.526,0.28,2.289,0.424c0.216,0.041,0.432,0.083,0.647,0.124c-0.278-0.054-0.294-0.464-0.189,0.008
			c0.731,3.292,1.723,7.385,0.727,10.696C318.098,78.352,318.942,78.582,319.104,78.042L319.104,78.042z"/>
	</g>
</g>
<g>
	<g>
		<path fill="#00C7C4" d="M17.239,89.099c-0.715,1.192-1.484,2.304-2.359,3.387c-0.401,0.498-0.299,1.273,0.387,1.463
			c2.728,0.756,5.791-0.261,8.396-1.055c4.389-1.337,8.555-2.771,13.221-2.657c1.13,0.028,1.127-1.723,0-1.75
			c-3.909-0.096-7.701,0.733-11.396,1.971c-2.889,0.969-6.69,2.652-9.757,1.804c0.129,0.487,0.258,0.975,0.387,1.463
			c0.964-1.194,1.843-2.424,2.633-3.742C19.333,89.011,17.819,88.132,17.239,89.099L17.239,89.099z"/>
	</g>
</g>
<g>
	<g>
		<path fill="#00C7C4" d="M15.991,93.773c4.608,7.86,9.661,15.443,14.568,23.117c0.25,0.392,1.375,1.647,1.131,2.194
			c-0.378,0.844-0.66,1.726-0.938,2.606c-0.611,1.938-0.969,3.96-1.351,5.952c-0.604,3.147-2.058,6.619-1.946,9.835
			c0.039,1.126,1.789,1.129,1.75,0c-0.057-1.646,0.506-3.253,0.933-4.825c0.481-1.772,0.771-3.601,1.116-5.403
			c0.383-1.997,0.831-3.97,1.443-5.909c0.811-2.57,1.302-2.298-0.133-4.559c-5.046-7.949-10.299-15.767-15.063-23.893
			C16.933,91.917,15.419,92.797,15.991,93.773L15.991,93.773z"/>
	</g>
</g>
<g>
	<g>
		<path d="M15.704,88.37c-0.714,1.192-1.484,2.303-2.357,3.387c-0.4,0.497-0.299,1.272,0.387,1.463
			c2.727,0.756,5.791-0.261,8.396-1.054c4.389-1.337,8.555-2.771,13.222-2.657c1.13,0.027,1.127-1.723,0-1.751
			c-3.91-0.096-7.702,0.733-11.396,1.972c-2.889,0.968-6.691,2.652-9.756,1.802c0.129,0.488,0.258,0.976,0.387,1.463
			c0.963-1.194,1.842-2.424,2.631-3.741C17.798,88.283,16.283,87.403,15.704,88.37L15.704,88.37z"/>
	</g>
</g>
<g>
	<g>
		<path d="M16.901,89.568c7.174-3.493,15.764-2.429,22.633-6.772c0.951-0.602,0.074-2.117-0.883-1.512
			c-6.826,4.316-15.466,3.282-22.633,6.772C15.003,88.55,15.892,90.06,16.901,89.568L16.901,89.568z"/>
	</g>
</g>
<g>
	<g>
		<path d="M14.458,93.045c4.607,7.86,9.66,15.443,14.566,23.117c0.25,0.392,1.375,1.647,1.131,2.194
			c-0.378,0.844-0.66,1.726-0.938,2.606c-0.611,1.938-0.969,3.959-1.351,5.951c-0.604,3.147-2.058,6.62-1.946,9.836
			c0.039,1.126,1.789,1.129,1.75,0c-0.057-1.647,0.506-3.253,0.933-4.825c0.481-1.773,0.771-3.601,1.116-5.403
			c0.383-1.997,0.831-3.97,1.443-5.909c0.811-2.57,1.302-2.298-0.133-4.559c-5.046-7.949-10.298-15.767-15.061-23.892
			C15.399,91.188,13.886,92.069,14.458,93.045L14.458,93.045z"/>
	</g>
</g>
<g>
	<g>
		<path fill="#00C7C4" d="M27.386,117.922c-2.742,0.417-5.236,3.004-7.227,4.746c-3.001,2.627-5.839,5.687-9.557,7.282
			c-1.035,0.444-0.143,1.952,0.883,1.512c3.299-1.415,5.922-3.979,8.559-6.349c2.125-1.91,4.85-5.054,7.807-5.504
			C28.964,119.441,28.489,117.754,27.386,117.922L27.386,117.922z"/>
	</g>
</g>
<g>
	<g>
		<path d="M25.851,117.194c-2.741,0.417-5.235,3.005-7.225,4.746c-3.001,2.627-5.84,5.687-9.557,7.282
			c-1.035,0.444-0.143,1.952,0.883,1.512c3.298-1.415,5.922-3.979,8.559-6.349c2.124-1.909,4.849-5.054,7.805-5.504
			C27.429,118.712,26.954,117.026,25.851,117.194L25.851,117.194z"/>
	</g>
</g>
<g>
	<g>
		<path fill="#00C7C4" d="M18.437,90.296c7.174-3.493,15.765-2.43,22.633-6.772c0.951-0.602,0.074-2.117-0.883-1.512
			c-6.826,4.316-15.466,3.283-22.633,6.772C16.538,89.279,17.427,90.789,18.437,90.296L18.437,90.296z"/>
	</g>
</g>
<g>
	<g>
		<path d="M14.585,86.895c7.874-5.803,0.763-19.633-8.51-15.136c-5.348,2.594-8.271,8.92-3.831,13.866
			c4.206,4.686,10.39,2.797,14.835-0.512c0.895-0.666,0.023-2.187-0.883-1.512c-3.092,2.301-7.24,4.345-10.981,2.315
			c-2.146-1.165-3.449-3.833-3.456-6.184c-0.008-2.743,2.366-4.909,4.545-6.146c7.332-4.159,13.87,7.026,7.398,11.795
			C12.804,86.045,13.675,87.565,14.585,86.895L14.585,86.895z"/>
	</g>
</g>
<g>
	<g>
		<path d="M158.847,27.876c2.039-2.313,3.899-4.109,4.322-7.283c0.399-3.008-0.936-6.164-3.11-8.188
			c-3.377-3.145-9.297-2.68-11.903,1.123c-2.09,3.049-1.418,7.579,0.503,10.513c2.27,3.465,6.259,3.811,9.655,1.834
			c0.976-0.567,0.095-2.081-0.883-1.512c-5.831,3.393-9.994-3.227-8.417-8.574c1.068-3.622,5.316-4.393,8.436-3.029
			c2.494,1.091,3.732,3.786,3.981,6.348c0.323,3.334-1.821,5.261-3.822,7.53C156.865,27.482,158.099,28.725,158.847,27.876
			L158.847,27.876z"/>
	</g>
</g>
<g>
	<g>
		<path d="M168.79,10.026c0.741,4.208,1.632,8.376,2.85,12.475c0.134-0.33,0.268-0.659,0.402-0.989
			c-3.365,1.473-6.493,3.782-9.054,6.405c-0.708,0.725-0.876,0.786-1.979,1.109c-1.356,0.397-2.713,0.794-4.069,1.191
			c-0.426,0.124-0.852,0.249-1.278,0.374c-0.425,0.124-0.503-0.354-1.012-0.702c-2.033-1.392-3.88-3.039-5.916-4.431
			c-4.117-2.813-9.097-4.502-13.588-6.62c0.06,0.458,0.118,0.917,0.178,1.375c5.633-4.948,7.331-12.46,10.65-18.889
			c0.517-1.001-0.993-1.887-1.512-0.884c-3.244,6.282-4.876,13.702-10.377,18.534c-0.401,0.353-0.317,1.142,0.178,1.375
			c4.775,2.252,9.896,4.098,14.274,7.09c2.164,1.479,5.288,5.513,8.135,4.68c2.141-0.627,4.281-1.253,6.421-1.88
			c0.494-0.145,0.81-0.729,1.133-1.085c0.757-0.834,1.635-1.562,2.502-2.276c1.87-1.539,3.979-2.883,6.197-3.854
			c0.35-0.153,0.504-0.646,0.402-0.989c-1.217-4.098-2.108-8.267-2.85-12.475C170.282,8.45,168.596,8.922,168.79,10.026
			L168.79,10.026z"/>
	</g>
</g>
<g>
	<g>
		<path d="M157.229,32.248c0.762,3.572,1.968,7.017,2.937,10.533c1.007,3.657,1.258,7.457,2.588,11.03
			c0.39,1.048,2.082,0.595,1.688-0.466c-1.223-3.286-1.554-6.756-2.359-10.148c-0.914-3.846-2.339-7.543-3.165-11.414
			C158.682,30.679,156.994,31.147,157.229,32.248L157.229,32.248z"/>
	</g>
</g>
<g>
	<g>
		<path d="M162.599,52.122c-3.931,3.337-6.708,7.83-10.871,10.913c-0.475,0.352-0.572,0.914-0.178,1.375
			c1.994,2.328,3.195,5.185,4.674,7.841c0.549,0.986,2.062,0.104,1.512-0.884c-1.559-2.8-2.846-5.742-4.947-8.196
			c-0.06,0.458-0.118,0.917-0.178,1.375c4.295-3.181,7.176-7.748,11.227-11.187C164.698,52.628,163.454,51.396,162.599,52.122
			L162.599,52.122z"/>
	</g>
</g>
<g>
	<g>
		<path d="M162.954,54.566c2.277,1.695,4.717,2.938,7.338,4.009c-0.204-0.358-0.408-0.718-0.611-1.076
			c-1.629,5.265-1.315,10.654-1.457,16.093c-0.029,1.13,1.721,1.127,1.75,0c0.138-5.279-0.188-10.513,1.395-15.628
			c0.153-0.496-0.182-0.9-0.611-1.076c-2.482-1.015-4.767-2.23-6.92-3.833C162.931,52.379,162.06,53.9,162.954,54.566
			L162.954,54.566z"/>
	</g>
</g>
<g>
	<g>
		<path fill="#00C7C4" d="M208.294,45.687c3.464,1.806,7.308,4.208,11.176,4.963c-0.175-0.429-0.349-0.857-0.523-1.286
			c-0.664,1.102-1.82,1.673-2.49,2.784c0.458-0.059,0.916-0.118,1.375-0.177c-0.638-0.772-3.063-0.134-3.84-0.061
			c-2.76,0.26-5.514,0.569-8.268,0.878c-0.938,0.105-1.873,0.211-2.81,0.32c-0.156,0.018-0.313,0.036-0.47,0.054
			c0.625-0.072,0.657,0.318-0.041-0.383c-1.547-1.55-3.093-3.101-4.639-4.651c-0.798-0.8-2.036,0.438-1.238,1.238
			c1.463,1.467,2.926,2.934,4.389,4.4c1.121,1.124,1.451,1.154,2.997,0.978c2.464-0.281,4.929-0.555,7.396-0.813
			c1.273-0.134,2.548-0.262,3.823-0.375c0.399-0.035,0.799-0.066,1.198-0.094c0.755-0.052,0.643,0.206,0.264-0.253
			c0.368,0.446,1.105,0.27,1.375-0.177c0.664-1.102,1.82-1.672,2.49-2.784c0.275-0.458,0.033-1.177-0.523-1.286
			c-3.723-0.726-7.417-3.045-10.758-4.786C208.178,43.654,207.292,45.165,208.294,45.687L208.294,45.687z"/>
	</g>
</g>
<g>
	<g>
		<path fill="#00C7C4" d="M217.295,51.556c-1.673,3.07-2.027,6.729-2.695,10.11c-0.877,4.441-2.594,8.607-3.126,13.143
			c0.291-0.292,0.583-0.583,0.875-0.875c-3.348,0.114-6.828,1.705-9.929,2.829c-2.916,1.056-5.81,2.181-8.68,3.355
			c-0.856,0.351-0.757,1.46-0.877,2.242c-0.348,2.264-0.71,4.526-1.099,6.784c-0.65,3.779-1.39,7.516-1.854,11.327
			c-0.137,1.119,1.615,1.106,1.75,0c0.423-3.461,1.077-6.854,1.69-10.281c0.384-2.141,0.722-4.29,1.058-6.438
			c0.103-0.66,0.204-1.321,0.304-1.981c0.157-1.031-0.486,0.026-0.362-0.024c2.655-1.083,5.331-2.115,8.021-3.107
			c3.07-1.133,6.657-2.841,9.979-2.955c0.52-0.018,0.818-0.388,0.875-0.875c0.487-4.153,2.016-7.978,2.928-12.023
			c0.77-3.417,0.952-7.221,2.655-10.345C219.347,51.448,217.835,50.564,217.295,51.556L217.295,51.556z"/>
	</g>
</g>
<g>
	<g>
		<path fill="#00C7C4" d="M199.113,102.019c-1.079-5.316-1.605-10.689-2.494-16.038c-0.134,0.329-0.268,0.659-0.402,0.988
			c5.524-3.802,11.049-7.604,16.573-11.405c0.924-0.636,0.05-2.153-0.883-1.512c-5.524,3.802-11.049,7.604-16.573,11.405
			c-0.354,0.243-0.472,0.572-0.402,0.988c0.888,5.352,1.413,10.718,2.494,16.039C197.65,103.59,199.337,103.122,199.113,102.019
			L199.113,102.019z"/>
	</g>
</g>
<g>
	<g>
		<path d="M208.507,44.596c3.464,1.806,7.309,4.208,11.177,4.963c-0.175-0.428-0.349-0.857-0.523-1.286
			c-0.664,1.102-1.82,1.672-2.49,2.784c0.458-0.059,0.917-0.118,1.375-0.177c-0.64-0.772-3.061-0.135-3.841-0.061
			c-2.759,0.26-5.514,0.57-8.268,0.878c-0.937,0.105-1.873,0.212-2.809,0.319c-0.156,0.018-0.313,0.036-0.47,0.055
			c0.624-0.073,0.657,0.317-0.042-0.383c-1.546-1.551-3.092-3.102-4.638-4.651c-0.798-0.8-2.036,0.438-1.238,1.237
			c1.463,1.467,2.926,2.934,4.389,4.4c1.121,1.124,1.451,1.155,2.997,0.978c2.464-0.282,4.929-0.554,7.396-0.813
			c1.272-0.134,2.547-0.261,3.822-0.375c0.399-0.035,0.799-0.066,1.199-0.094c0.754-0.052,0.644,0.206,0.264-0.253
			c0.369,0.445,1.105,0.271,1.375-0.177c0.663-1.102,1.82-1.673,2.49-2.784c0.275-0.458,0.033-1.177-0.523-1.286
			c-3.723-0.727-7.417-3.046-10.759-4.787C208.391,42.563,207.505,44.074,208.507,44.596L208.507,44.596z"/>
	</g>
</g>
<g>
	<g>
		<path d="M217.509,50.465c-1.673,3.07-2.027,6.73-2.695,10.11c-0.877,4.442-2.594,8.607-3.126,13.143
			c0.292-0.292,0.583-0.583,0.875-0.875c-3.348,0.114-6.827,1.705-9.929,2.828c-2.915,1.057-5.809,2.181-8.679,3.355
			c-0.856,0.35-0.757,1.46-0.877,2.242c-0.348,2.265-0.711,4.527-1.1,6.785c-0.65,3.779-1.39,7.516-1.854,11.327
			c-0.137,1.119,1.615,1.106,1.75,0c0.423-3.461,1.076-6.854,1.69-10.281c0.384-2.141,0.723-4.29,1.058-6.438
			c0.104-0.66,0.205-1.32,0.305-1.98c0.157-1.032-0.486,0.025-0.362-0.024c2.654-1.083,5.33-2.116,8.021-3.108
			c3.07-1.132,6.656-2.84,9.978-2.955c0.52-0.018,0.818-0.388,0.875-0.875c0.487-4.153,2.015-7.978,2.928-12.023
			c0.771-3.417,0.952-7.221,2.655-10.346C219.561,50.357,218.049,49.474,217.509,50.465L217.509,50.465z"/>
	</g>
</g>
<g>
	<g>
		<path d="M199.327,100.929c-1.079-5.316-1.605-10.689-2.494-16.038c-0.134,0.329-0.268,0.659-0.402,0.988
			c5.524-3.802,11.049-7.604,16.573-11.405c0.924-0.636,0.05-2.153-0.883-1.512c-5.524,3.802-11.049,7.604-16.573,11.405
			c-0.354,0.243-0.472,0.572-0.402,0.988c0.889,5.352,1.414,10.718,2.494,16.038C197.864,102.5,199.551,102.031,199.327,100.929
			L199.327,100.929z"/>
	</g>
</g>
<g>
	<g>
		<path d="M219.156,46.08c2.62,0.117,5.631,0.043,7.712-1.81c2.365-2.107,3.519-5.137,2.488-8.208
			c-1.452-4.327-7.954-6.251-11.578-3.579c-5.436,4.01-2.767,15.747,4.996,12.853c1.048-0.391,0.595-2.083-0.465-1.688
			c-5.542,2.065-6.832-5.172-4.453-8.772c1.946-2.945,6.313-1.989,8.589-0.062c2.531,2.144,1.646,5.646-0.323,7.78
			c-1.744,1.89-4.615,1.84-6.966,1.736C218.027,44.279,218.032,46.03,219.156,46.08L219.156,46.08z"/>
	</g>
</g>
<g>
	<g>
		<path d="M434.889,29.673c8.694-1.41,6.966-13.23-0.611-15.017c-4.539-1.07-10.039,3.038-10.195,7.665
			c-0.149,4.403,5.87,8.984,9.927,7.263c1.037-0.44,0.144-1.947-0.883-1.512c-1.962,0.833-3.916-0.664-5.239-1.954
			c-1.824-1.779-2.608-4.04-1.255-6.319c1.751-2.952,5.904-4.435,8.945-2.79c2.066,1.118,3.336,3.536,3.527,5.814
			c0.252,3.008-1.938,4.716-4.681,5.16C433.312,28.166,433.785,29.852,434.889,29.673L434.889,29.673z"/>
	</g>
</g>
<g>
	<g>
		<path fill="#00C7C4" d="M454.315,22.242c-2.277-0.402-4.81,4.877-5.75,6.312c-2.189,3.338-4.11,6.904-6.465,10.129
			c0.399-0.104,0.799-0.209,1.197-0.314c-1.434-0.96-3.027-1.701-4.564-2.475c-0.751-0.377-2.189-1.489-3.09-1.089
			c-1.018,0.453-1.973,0.69-2.601,1.626c-1.141,1.7-2.281,3.4-3.417,5.104c0.399-0.104,0.799-0.209,1.197-0.314
			c-3.847-1.759-8.262-2.657-11.584-5.387c-0.865-0.711-2.111,0.521-1.238,1.237c3.482,2.862,7.915,3.821,11.939,5.662
			c0.454,0.208,0.912,0.113,1.197-0.314c0.899-1.349,1.802-2.695,2.705-4.042c1.021-1.524,0.68-1.168,2.287-1.883
			c0.491-0.219-0.967-0.413,0.156,0.137c0.68,0.333,1.357,0.672,2.033,1.012c1.383,0.696,2.807,1.375,4.096,2.238
			c0.426,0.285,0.93,0.052,1.197-0.314c1.833-2.511,3.361-5.271,5.026-7.895c1.085-1.71,2.189-3.409,3.351-5.069
			c0.463-0.662,0.944-1.312,1.463-1.932c0.404-0.484,1-0.634,0.398-0.741C454.954,24.125,455.426,22.438,454.315,22.242
			L454.315,22.242z"/>
	</g>
</g>
<g>
	<g>
		<path fill="#00C7C4" d="M434.234,36.415c-0.395,0.879,0.41,2.094,0.746,2.882c0.997,2.341,2.055,4.657,3.088,6.983
			c1.226,2.756,2.444,5.517,3.586,8.309c0.511,1.251,1.708,3.268,1.563,4.672c-0.115,1.123,1.637,1.112,1.75,0
			c0.132-1.278-0.726-2.854-1.17-3.998c-0.928-2.388-1.96-4.736-2.987-7.083c-1.091-2.489-2.205-4.967-3.306-7.452
			c-0.389-0.875-0.775-1.751-1.148-2.633c-0.116-0.276-0.229-0.554-0.338-0.833c-0.219-0.558,0.008-0.589-0.272,0.036
			C436.204,36.278,434.696,35.387,434.234,36.415L434.234,36.415z"/>
	</g>
</g>
<g>
	<g>
		<path fill="#00C7C4" d="M417.95,59.354c-0.03,0.046-0.06,0.093-0.09,0.14c-0.358,0.204-0.718,0.407-1.076,0.611
			c5.499,1.486,9.899,5.416,14.582,8.466c0.331,0.216,0.787,0.127,1.061-0.137c3.508-3.396,7.785-6.032,12.119-8.239
			c-0.438-0.252-0.878-0.504-1.316-0.756c-0.029,1.279-0.058,2.559-0.086,3.837c-0.016,0.324,0.002,0.257,0.052-0.201
			c-0.215,0.169-0.396,0.471-0.557,0.685c-0.585,0.782-0.964,1.75-1.355,2.637c-0.779,1.763-1.425,3.583-2.142,5.372
			c-1.146,2.863-3.397,5.391-5.152,7.899c0.399-0.104,0.799-0.209,1.197-0.314c-3.974-2.151-8.206,0.237-12.327-0.801
			c-1.095-0.276-1.56,1.412-0.465,1.688c3.887,0.98,8.257-1.352,11.909,0.625c0.445,0.241,0.917,0.086,1.197-0.314
			c1.672-2.391,3.688-4.752,4.94-7.401c0.899-1.902,1.53-3.935,2.354-5.871c0.388-0.912,0.818-1.804,1.355-2.637
			c0.295-0.458,0.726-0.572,0.739-1.176c0.03-1.343,0.061-2.686,0.09-4.029c0.016-0.696-0.746-1.046-1.316-0.756
			c-4.467,2.274-8.859,5.013-12.475,8.513c0.354-0.045,0.707-0.091,1.061-0.137c-4.822-3.143-9.334-7.111-15-8.643
			c-0.443-0.12-0.971,0.145-1.076,0.611c-0.117,0.521-0.031,0.765,0.266,1.209C417.062,61.172,418.579,60.297,417.95,59.354
			L417.95,59.354z"/>
	</g>
</g>
<g>
	<g>
		<path d="M454.848,20.322c-2.277-0.402-4.81,4.878-5.75,6.312c-2.19,3.338-4.11,6.904-6.466,10.129
			c0.399-0.104,0.799-0.209,1.197-0.314c-1.433-0.96-3.026-1.701-4.564-2.475c-0.751-0.378-2.189-1.49-3.09-1.089
			c-1.018,0.453-1.973,0.69-2.601,1.625c-1.14,1.701-2.28,3.401-3.417,5.104c0.399-0.104,0.799-0.209,1.197-0.314
			c-3.847-1.759-8.261-2.657-11.584-5.388c-0.865-0.71-2.111,0.521-1.238,1.238c3.483,2.861,7.915,3.821,11.939,5.661
			c0.454,0.208,0.912,0.113,1.197-0.314c0.899-1.349,1.803-2.695,2.705-4.042c1.021-1.524,0.68-1.168,2.287-1.883
			c0.491-0.218-0.967-0.412,0.156,0.138c0.68,0.333,1.357,0.671,2.034,1.012c1.382,0.696,2.807,1.375,4.095,2.238
			c0.426,0.285,0.93,0.052,1.197-0.314c1.834-2.511,3.363-5.271,5.027-7.895c1.085-1.71,2.189-3.409,3.351-5.068
			c0.464-0.663,0.944-1.312,1.463-1.933c0.404-0.484,1.001-0.634,0.398-0.74C455.486,22.205,455.958,20.518,454.848,20.322
			L454.848,20.322z"/>
	</g>
</g>
<g>
	<g>
		<path d="M434.767,34.495c-0.396,0.878,0.41,2.095,0.745,2.882c0.998,2.342,2.056,4.658,3.089,6.984
			c1.225,2.756,2.444,5.516,3.585,8.309c0.511,1.25,1.708,3.268,1.563,4.672c-0.116,1.123,1.636,1.111,1.75,0
			c0.132-1.278-0.726-2.854-1.17-3.998c-0.928-2.388-1.959-4.737-2.987-7.083c-1.09-2.489-2.205-4.967-3.306-7.452
			c-0.388-0.875-0.775-1.751-1.147-2.633c-0.116-0.276-0.229-0.554-0.338-0.833c-0.219-0.559,0.008-0.588-0.272,0.035
			C436.737,34.358,435.229,33.467,434.767,34.495L434.767,34.495z"/>
	</g>
</g>
<g>
	<g>
		<path d="M418.482,57.435c-0.03,0.047-0.061,0.093-0.091,0.14c-0.358,0.204-0.718,0.408-1.076,0.611
			c5.498,1.486,9.899,5.416,14.582,8.466c0.331,0.216,0.787,0.127,1.061-0.137c3.509-3.395,7.785-6.031,12.119-8.239
			c-0.438-0.252-0.878-0.504-1.316-0.756c-0.029,1.279-0.058,2.559-0.086,3.838c-0.016,0.324,0.002,0.257,0.052-0.201
			c-0.215,0.169-0.396,0.471-0.557,0.685c-0.585,0.781-0.964,1.75-1.355,2.636c-0.778,1.764-1.425,3.583-2.141,5.372
			c-1.146,2.863-3.397,5.391-5.151,7.9c0.399-0.104,0.799-0.209,1.197-0.314c-3.975-2.151-8.207,0.237-12.328-0.801
			c-1.095-0.276-1.56,1.412-0.465,1.688c3.888,0.979,8.258-1.352,11.91,0.625c0.445,0.241,0.917,0.087,1.197-0.314
			c1.671-2.392,3.688-4.753,4.939-7.402c0.898-1.902,1.529-3.935,2.353-5.87c0.388-0.911,0.818-1.804,1.355-2.637
			c0.295-0.458,0.726-0.572,0.739-1.176c0.03-1.343,0.061-2.687,0.09-4.03c0.016-0.697-0.746-1.046-1.316-0.756
			c-4.466,2.275-8.858,5.014-12.475,8.512c0.354-0.045,0.707-0.091,1.061-0.137c-4.823-3.142-9.334-7.11-15-8.642
			c-0.442-0.12-0.973,0.144-1.076,0.611c-0.115,0.521-0.03,0.764,0.267,1.209C417.594,59.252,419.111,58.377,418.482,57.435
			L418.482,57.435z"/>
	</g>
</g>
<g>
	<g>
		<path fill="#00C7C4" d="M512.322,49.228c1.643,4.59,2.132,9.791,2.69,14.617c0.446,3.858,0.661,7.98,2.986,11.252
			c0.104-0.399,0.209-0.799,0.314-1.198c-3.328,2.101-7.4,3.278-11.174,4.309c-0.503,0.137-0.864,0.822-0.523,1.286
			c1.34,1.819,3.148,3.003,5.066,4.154c2.082,1.249,7.355,3.37,5.256,6.391c-0.646,0.93,0.872,1.803,1.512,0.884
			c1.814-2.611,0.883-4.055-1.441-5.956c-2.797-2.286-6.684-3.372-8.881-6.357c-0.175,0.429-0.349,0.857-0.523,1.286
			c3.91-1.068,8.139-2.305,11.592-4.485c0.376-0.237,0.598-0.799,0.314-1.198c-2.464-3.467-2.357-7.891-2.941-11.937
			c-0.648-4.496-1.021-9.217-2.56-13.514C513.633,47.708,511.94,48.163,512.322,49.228L512.322,49.228z"/>
	</g>
</g>
<g>
	<g>
		<path d="M512.322,47.833c1.643,4.59,2.132,9.791,2.69,14.617c0.446,3.858,0.661,7.98,2.986,11.252
			c0.104-0.399,0.209-0.799,0.314-1.198c-3.328,2.101-7.4,3.278-11.174,4.309c-0.503,0.137-0.864,0.822-0.523,1.286
			c1.34,1.819,3.148,3.003,5.066,4.154c2.082,1.249,7.355,3.37,5.256,6.391c-0.646,0.93,0.872,1.803,1.512,0.884
			c1.814-2.611,0.883-4.055-1.441-5.956c-2.797-2.286-6.684-3.372-8.881-6.357c-0.175,0.429-0.349,0.857-0.523,1.286
			c3.91-1.068,8.139-2.305,11.592-4.485c0.376-0.237,0.598-0.799,0.314-1.198c-2.464-3.467-2.357-7.891-2.941-11.937
			c-0.648-4.496-1.021-9.217-2.56-13.514C513.633,46.314,511.94,46.768,512.322,47.833L512.322,47.833z"/>
	</g>
</g>
<g>
	<g>
		<path d="M509.957,42.488c-3.418-3.086-1.382-6.915,2.36-8.475c3.953-1.648,8.656,0.32,10.068,4.413
			c1.137,3.297-1.74,6.261-4.561,7.392c-3.787,1.519-7.415-0.176-9.205-3.702c-0.512-1.007-2.021-0.121-1.512,0.884
			c2.263,4.458,6.947,6.205,11.59,4.343c3.863-1.55,6.92-5.836,5.14-10.018c-2.227-5.229-8.181-6.863-13.093-4.509
			c-4.535,2.174-5.871,7.438-2.026,10.911C509.555,44.48,510.796,43.246,509.957,42.488L509.957,42.488z"/>
	</g>
</g>
<g>
	<g>
		<path d="M517.006,73.683c0.046,0.005,0.092,0.009,0.138,0.013c0.146-0.543,0.294-1.087,0.441-1.631
			c-1.041,0.094-2.095-0.311-3.144-0.259c-1.592,0.078-3.198,0.556-4.731,0.948c-3.092,0.793-6.153,1.732-9.188,2.72
			c-0.628,0.204-0.856,0.974-0.387,1.463c1.479,1.54,4.376,4.498,3.854,6.825c-0.247,1.1,1.44,1.566,1.688,0.465
			c0.704-3.137-2.297-6.438-4.304-8.528c-0.129,0.488-0.258,0.976-0.387,1.463c2.706-0.88,5.433-1.699,8.176-2.45
			c1.722-0.471,3.496-0.987,5.279-1.156c1.049-0.099,2.099,0.354,3.144,0.26c0.777-0.07,1.307-1.227,0.441-1.631
			c-0.188-0.087-0.353-0.14-0.556-0.189C516.374,71.728,515.909,73.416,517.006,73.683L517.006,73.683z"/>
	</g>
</g>
<g>
	<g>
		<path d="M512.665,47.341c-2.109,1.666-4.725,2.307-7.204,3.213c-1.836,0.67-3.304,1.694-4.803,2.921
			c0.354-0.045,0.707-0.091,1.062-0.137c-2.075-1.522-2.82-4.419-4.371-6.409c-2.02-2.59-4.939-4.645-7.574-6.563
			c-0.914-0.666-1.786,0.854-0.883,1.512c2.887,2.102,6.195,4.456,8.07,7.568c1.175,1.95,1.986,4.019,3.873,5.404
			c0.336,0.246,0.778,0.095,1.062-0.137c3.604-2.95,8.374-3.266,12.007-6.134C514.789,47.88,513.541,46.65,512.665,47.341
			L512.665,47.341z"/>
	</g>
</g>
<path fill="#00C7C4" d="M9.065,72.288c-9.596,0-9.596,14.88,0,14.88S18.661,72.288,9.065,72.288z"/>
<g>
	<g>
		<path d="M497.198,42.277c1.438,1.22,2.85,2.474,4.266,3.72c0.939,0.827,1.899,1.979,2.988,2.617
			c0.857,0.502,2.697,0.116,3.621,0.107c1.752-0.018,3.597,0.06,5.325-0.276c1.108-0.215,0.638-1.901-0.465-1.688
			c-1.399,0.271-2.923,0.184-4.341,0.206c-0.793,0.013-1.586,0.017-2.379,0.02c-0.318,0.001-0.638,0.001-0.957,0.001
			c-0.565-0.001-0.164-0.116,0.225,0.228c-2.339-2.068-4.665-4.153-7.045-6.173C497.581,40.313,496.337,41.545,497.198,42.277
			L497.198,42.277z"/>
	</g>
</g>
<g>
	<g>
		<path fill="#00C7C4" d="M704.652,80.727c-5.149,1.806-10.591,0.84-15.919,1.234c0,0.292,0,0.584,0,0.876
			c0.611-0.082,1.211-0.036,1.798,0.136c0.551,0.114,0.785-0.729,0.232-0.844c-0.747-0.155-1.285-0.267-2.03-0.168
			c-0.542,0.072-0.574,0.918,0,0.876c5.41-0.401,10.924,0.566,16.151-1.266C705.414,81.386,705.187,80.541,704.652,80.727
			L704.652,80.727z"/>
	</g>
</g>
<g>
	<g>
		<path fill="#00C7C4" d="M714.987,103.918c-1.129-3.452-2.762-6.686-4.222-10.003c-0.825-1.875-1.441-3.824-2.287-5.69
			c-0.937-2.065-1.966-4.042-2.548-6.249c-0.144-0.545-0.988-0.314-0.844,0.232c0.948,3.6,2.871,6.919,4.193,10.391
			c1.49,3.912,3.559,7.563,4.863,11.552C714.317,104.685,715.163,104.457,714.987,103.918L714.987,103.918z"/>
	</g>
</g>
<g>
	<g>
		<path fill="#00C7C4" d="M712.861,119.911c-0.428-1.197-0.797-2.299-0.857-3.585c-0.079-1.684,1.283-3.404,2.04-4.841
			c0.994-1.888,1.197-4.323,2.384-6.043c0.101-0.146,0.076-0.417-0.068-0.53c-0.493-0.386-0.987-0.772-1.48-1.158
			c-0.114-0.089-0.274-0.176-0.426-0.112c-3.276,1.366-5.116,4.635-8.271,6.19c-0.177,0.087-0.247,0.314-0.201,0.494
			c0.416,1.622,0.384,3.349,1.027,4.906c0.212,0.514,1.06,0.289,0.844-0.232c-0.485-1.175-0.578-2.436-0.76-3.684
			c-0.181-1.241,1.016-1.568,1.9-2.28c1.1-0.884,2.062-1.945,3.106-2.892c-0.021,0.019,2.176-1.76,2.271-1.686
			c0.328,0.257,0.657,0.515,0.986,0.772c0.594,0.464,0.08,0.013-0.061,0.356c-0.251,0.612-0.416,1.21-0.572,1.852
			c-0.437,1.799-1.336,3.443-2.213,5.057c-1.517,2.791-1.568,4.645-0.493,7.648C712.206,120.67,713.052,120.443,712.861,119.911
			L712.861,119.911z"/>
	</g>
</g>
<path fill="#00C7C4" d="M701.778,64.703c-8.363,2.599-4.201,15.994,4.163,13.395C714.305,75.499,710.143,62.104,701.778,64.703z"/>
<g>
	<g>
		<path fill="#00C7C4" d="M704.048,78.521c-5.45-0.193-10.17-3.087-15.272-4.657c-0.077,0.281-0.155,0.563-0.232,0.844
			c0.596,0.158,1.137,0.423,1.622,0.794c0.475,0.309,0.912-0.449,0.441-0.756c-0.645-0.419-1.096-0.703-1.831-0.882
			c-0.549-0.135-0.771,0.678-0.232,0.844c5.187,1.597,9.965,4.493,15.505,4.688C704.612,79.416,704.61,78.541,704.048,78.521
			L704.048,78.521z"/>
	</g>
</g>
<g>
	<g>
		<path d="M690.365,81.428c-0.747-0.154-1.284-0.267-2.028-0.167c-0.542,0.072-0.574,0.918,0,0.875
			c5.409-0.401,10.922,0.566,16.149-1.266c0.227-0.079,0.37-0.296,0.306-0.538c-0.183-0.686-0.365-1.371-0.549-2.057
			c-0.051-0.192-0.228-0.314-0.422-0.321c-5.45-0.193-10.17-3.086-15.272-4.656c-0.077,0.281-0.155,0.563-0.232,0.844
			c0.596,0.158,1.137,0.422,1.622,0.794c0.475,0.309,0.913-0.449,0.441-0.756c-0.645-0.419-1.096-0.702-1.831-0.882
			c-0.549-0.135-0.771,0.678-0.232,0.844c2.707,0.833,5.287,1.999,7.928,3.014c1.341,0.516,2.71,0.928,4.106,1.263
			c0.559,0.134,3.096,0.267,3.157,0.497c0.075,0.28,0.149,0.56,0.225,0.839c0.239,0.895,0.26,0.363-0.276,0.55
			c-1.839,0.645-3.842,0.774-5.771,0.857c-3.117,0.134-6.231-0.134-9.348,0.098c0,0.292,0,0.583,0,0.875
			c0.611-0.081,1.21-0.036,1.796,0.136C690.684,82.386,690.918,81.542,690.365,81.428L690.365,81.428z"/>
	</g>
</g>
<g>
	<g>
		<path d="M715.206,102.638c-1.128-3.452-2.761-6.686-4.221-10.003c-0.826-1.875-1.442-3.824-2.288-5.691
			c-0.937-2.065-1.966-4.042-2.548-6.249c-0.144-0.545-0.988-0.314-0.844,0.232c0.948,3.6,2.871,6.919,4.193,10.391
			c1.491,3.912,3.559,7.563,4.863,11.552C714.536,103.405,715.382,103.176,715.206,102.638L715.206,102.638z"/>
	</g>
</g>
<g>
	<g>
		<path d="M712.463,118.63c-0.427-1.197-0.796-2.3-0.856-3.585c-0.08-1.684,1.282-3.403,2.04-4.841
			c0.994-1.889,1.198-4.322,2.383-6.044c0.101-0.146,0.076-0.417-0.068-0.53c-0.493-0.386-0.986-0.771-1.479-1.157
			c-0.114-0.089-0.274-0.176-0.426-0.112c-3.276,1.366-5.116,4.635-8.271,6.19c-0.177,0.087-0.248,0.314-0.201,0.495
			c0.416,1.62,0.383,3.348,1.026,4.905c0.212,0.514,1.06,0.289,0.844-0.232c-0.485-1.175-0.578-2.435-0.759-3.683
			c-0.181-1.242,1.016-1.569,1.899-2.28c1.1-0.884,2.062-1.944,3.106-2.892c-0.021,0.019,2.177-1.76,2.271-1.686
			c0.329,0.257,0.658,0.514,0.986,0.771c0.594,0.463,0.08,0.013-0.061,0.356c-0.25,0.611-0.415,1.211-0.57,1.853
			c-0.438,1.799-1.336,3.443-2.214,5.057c-1.519,2.792-1.567,4.645-0.494,7.648C711.808,119.39,712.653,119.163,712.463,118.63
			L712.463,118.63z"/>
	</g>
</g>
<g>
	<g>
		<path d="M703.679,78.111c3.321,2.051,7.327-0.891,7.629-4.394c0.349-4.057-2.286-8.889-6.458-9.603
			c-4.542-0.777-8.169,3.608-8.589,7.708c-0.463,4.521,4.8,5.834,8.249,5.91c0.564,0.013,0.563-0.863,0-0.875
			c-3.017-0.066-6.931-0.801-7.37-4.416c-0.473-3.874,3.307-7.339,6.914-7.509c3.608-0.17,5.492,3.575,6.189,6.548
			c0.398,1.695,0.313,3.539-0.879,4.889c-1.245,1.412-3.625,1.986-5.244,0.986C703.639,77.058,703.199,77.815,703.679,78.111
			L703.679,78.111z"/>
	</g>
</g>
<g>
	<g>
		<path d="M747.229,178.15c-1.919-6.032-5.446-11.607-8.759-16.948c-4.729-7.625-9.862-14.999-15.072-22.299
			c-8.045-11.274-16.706-22.11-24.696-33.418c-0.323-0.457-1.082-0.021-0.756,0.441c7.758,10.979,16.157,21.508,23.993,32.435
			c5.255,7.327,10.402,14.741,15.206,22.373c3.485,5.537,7.242,11.368,9.24,17.648C746.556,178.918,747.4,178.689,747.229,178.15
			L747.229,178.15z"/>
	</g>
</g>
<g>
	<g>
		<path fill="#00C7C4" d="M747.227,180.509c-1.918-6.032-5.446-11.607-8.759-16.948c-4.729-7.625-9.861-14.999-15.071-22.299
			c-8.046-11.274-16.707-22.11-24.697-33.418c-0.323-0.457-1.082-0.021-0.756,0.441c7.758,10.979,16.157,21.508,23.993,32.435
			c5.255,7.327,10.402,14.741,15.207,22.373c3.485,5.537,7.241,11.367,9.239,17.648
			C746.553,181.278,747.398,181.048,747.227,180.509L747.227,180.509z"/>
	</g>
</g>
</svg>
