<?xml version="1.0" encoding="utf-8"?>
<!-- Generator: Adobe Illustrator 17.0.0, SVG Export Plug-In . SVG Version: 6.00 Build 0)  -->
<!DOCTYPE svg PUBLIC "-//W3C//DTD SVG 1.1//EN" "http://www.w3.org/Graphics/SVG/1.1/DTD/svg11.dtd">
<svg version="1.1" id="Layer_1" xmlns="http://www.w3.org/2000/svg" xmlns:xlink="http://www.w3.org/1999/xlink" x="0px" y="0px"
	 width="175.02px" height="162.449px" viewBox="0 0 175.02 162.449" enable-background="new 0 0 175.02 162.449"
	 xml:space="preserve">
<path fill="#3A122D" d="M1013.903,353.843L686.828-212.511H446.431l-328.603,569h0.113c-0.07,0.135-0.113,0.271-0.113,0.406
	c0,10.269,201.948,18.594,451.064,18.594c249.115,0,451.063-8.325,451.063-18.594
	C1019.956,355.855,1017.883,354.836,1013.903,353.843z"/>
<g>
	<g>
		<g>
			<g>
				<path fill="#FFFF00" d="M35.373,62.519c0.439-0.442,0.88-0.886,1.324-1.333c0.705-0.689,1.414-1.382,2.127-2.08
					c1.639-1.584,3.297-3.188,4.976-4.81c4.335,3.909,8.808,7.943,13.353,12.042c3.474,3.193,7.002,6.436,10.53,9.679
					c3.528,3.242,7.055,6.483,10.527,9.673c1.747,1.583,3.48,3.152,5.193,4.704l1.287,1.153l0.212,0.182l0.138,0.112l0.524,0.408
					c0.147-0.152,0.292-0.302,0.437-0.451c0.196-0.197-0.011-0.058,0.987-0.939c4.2-3.797,8.505-7.627,12.876-11.469
					c2.191-1.916,4.393-3.84,6.602-5.77c1.269-1.097,2.54-2.195,3.812-3.295c2.19-1.869,4.383-3.74,6.577-5.612
					c9.197,8.646,18.441,17.335,27.404,25.761c0.558-0.56,1.111-1.116,1.66-1.667c0.321,0.321-0.739,2.349,0.965,0.961
					c6.652-5.711,7.295-5.07,7.938-4.429c0.322,0.321-4.627,4.644-2.766,3.419c-1.457,1.462-3.282,3.327-4.775,4.89
					c-1.223,1.292-2.335,2.506-2.932,3.236c-0.546-0.407-0.684-0.402,0.006,0.411c0.171-0.122,0.439-0.34,0.795-0.642
					c1.397-0.759,7.422-7.449,9.413-8.482c2.027-1.069-0.578,2.51,1.447,1.442c1.394-1.398,4.177-4.191,5.568-5.588
					c0.571-0.251,0.411,0.393,0.359,0.847c-0.066,0.469-0.077,0.801,0.216,0.507c0.325-0.221,0.63-0.447,0.933-0.692
					c0.38,0.457,0.751,0.873,1.138,1.283c0.429,0.437,0.866,0.882,1.31,1.333c0.601,0.602,1.211,1.213,1.828,1.831
					c2.477,2.463,5.068,5.041,7.658,7.617c-0.322,0.321,0.903,2.193-2.343-0.745c-2.178-2.161-4.358-4.324-6.542-6.49l-1.638-1.625
					l-0.819-0.813l-0.156-0.146l-0.436-0.394l-0.29,0.323l-0.138,0.155l-0.119,0.127l-0.58,0.59l-4.644,4.726
					c-4.276,4.336-8.558,8.677-12.844,13.024c-5.853-5.488-11.714-10.984-17.582-16.486l-6.983-6.53l-3.289-3.073l-0.189-0.135
					l-0.176,0.193l-3.877,3.311l-7.759,6.621l-19.318,16.424c-13.816-12.554-27.625-25.101-41.38-37.599
					c-4.973,4.662-9.937,9.314-14.887,13.955c-6.266,5.836-12.516,11.656-18.746,17.459c-6.51,5.833-2.365,0.672,1.935-4.323
					c-1.432,1.664-1.899,1.168-3.336,2.837c-0.467-0.495,1.934-4.323,8.136-10.49l-4.769,4.501
					c-1.745,1.336-0.467-0.495-0.779-0.825c1.589-1.5,3.179-3.001,3.023-3.166c-0.156-0.165-0.467-0.495-0.623-0.66
					c-1.589,1.5-4.769,4.501-6.356,6c1.588-1.499,3.177-2.999,3.021-3.164s-0.467-0.495-0.624-0.661
					c3.023-3.166,8.102-7.335,11.125-10.501l-0.467-0.495c-3.335,2.836-7.946,7.5-11.125,10.501
					c1.434-1.666,1.278-1.831,0.966-2.161c4.613-4.666,9.847-8.67,14.146-13.665l-4.767,4.499
					C22.192,74.023,30.76,67.186,35.373,62.519z"/>
			</g>
		</g>
	</g>
	<g>
		<g>
			<g>
				<path fill="#FFFF00" d="M22.935,20.014c2.642-2.778,5.543-5.621,8.564-8.493C35.536,7.74,39.677,3.861,43.799,0
					c2.278,2.093,4.551,4.181,6.808,6.255c1.289,1.173,2.568,2.337,3.833,3.488c2.503,2.252,4.979,4.416,7.4,6.419
					c4.541,3.715,9.133,7.626,13.714,11.624c2.281,2.012,4.569,4.032,6.856,6.05l3.098,2.767l0.08,0.034l0.048-0.06l0.011-0.012
					l0.705-0.597l1.493-1.262c1.988-1.677,3.958-3.34,5.905-4.982c0.292,0.347-0.34,1.771,0.878,1.042
					c4.722-3.091,5.308-2.396,5.893-1.702c0.292,0.347-3.212,2.708-1.851,2.154c-3.211,2.707-8.423,7.398-4.916,5.034
					c1.364-0.556,5.355-4.514,6.865-4.896c1.512-0.383-0.193,1.945,1.317,1.562c1.072-0.904,3.215-2.71,4.286-3.613
					c1.363-0.553-0.193,1.945,0.878,1.042c3.505-2.361,7.644-6.146,11.925-9.756c0.293,0.347,1.659-0.211-0.337,1.768
					c-11.057,9.503-22.199,19.08-33.382,28.691C71.542,38.704,57.707,26.296,43.917,13.928c0.007-0.001,0.017-0.004,0.026-0.009
					l0.017-0.009l-0.98,0.93l-4.811,4.553c-3.214,3.024-6.424,6.045-9.628,9.061c-6.422,6.018-12.85,11.988-19.28,17.89
					c-4.229,3.68-1.796,0.134,0.792-3.245c-0.862,1.126-1.33,0.63-2.195,1.759c-0.467-0.495,0.792-3.245,4.711-7.257l-3.056,2.885
					c-1.174,0.797-0.467-0.495-0.779-0.825c1.019-0.962,2.038-1.923,1.882-2.089c-0.156-0.165-0.467-0.495-0.623-0.66
					c-1.019,0.962-3.056,2.885-4.074,3.846c1.018-0.96,2.037-1.922,1.881-2.087c-0.156-0.165-0.468-0.495-0.624-0.661
					c1.882-2.088,5.249-4.642,7.13-6.731l-0.467-0.495c-2.193,1.758-5.093,4.807-7.13,6.731c0.863-1.127,0.707-1.292,0.396-1.622
					c2.9-3.05,6.423-5.439,9.011-8.818l-3.055,2.884C14.319,27.21,20.035,23.064,22.935,20.014z"/>
			</g>
		</g>
	</g>
	<g>
		<g>
			<g>
				<path fill="#FFFF00" d="M28.759,134.547c2.925,2.477,5.931,5.21,8.973,8.06c1.512,1.434,3.044,2.886,4.584,4.346l0.871,0.837
					l0.233,0.238l0.483,0.493l0.834-0.718c1.246-1.14,2.483-2.272,3.706-3.391c2.471-2.288,4.852-4.554,7.068-6.783
					c4.114-4.182,8.428-8.398,12.829-12.595c2.212-2.087,4.433-4.182,6.651-6.275l3.656-3.396c2.222-2.041,4.441-4.078,6.653-6.109
					c5.307,4.462,10.557,8.877,15.677,13.183c-0.292,0.347-1.803-0.035-0.878,1.042c3.845,4.131,3.259,4.826,2.674,5.52
					c-0.292,0.347-3.212-2.708-2.436-1.46c-3.211-2.707-8.716-7.05-5.793-3.993c0.778,1.25,5.355,4.514,5.987,5.937
					c0.633,1.425-1.949,0.139-1.317,1.562c1.072,0.904,3.215,2.71,4.286,3.613c0.775,1.249-1.95,0.139-0.878,1.042
					c2.919,3.055,7.351,6.493,11.632,10.103c-0.293,0.347,0.488,1.599-1.8-0.034c-5.032-4.155-10.084-8.326-15.15-12.509
					c-2.535-2.089-5.073-4.181-7.614-6.276l-3.788-3.121l-0.318-0.196l-0.175,0.213l-0.039,0.048
					c-0.041,0.042,0.074-0.059-0.231,0.224l-1.285,1.198l-5.145,4.796c-3.435,3.196-6.872,6.393-10.309,9.592l-10.332,9.577
					c-4.762,4.38-9.523,8.758-14.281,13.133c-7.726-7.289-15.439-14.566-23.128-21.819c-6.378-6.064-12.708-12.137-18.972-18.217
					c-3.917-4.009-0.237-1.785,3.285,0.604c-1.174-0.795-0.706-1.291-1.883-2.089c0.467-0.495,3.285,0.604,7.517,4.285l-3.057-2.885
					c-0.863-1.126,0.467-0.495,0.779-0.825c1.019,0.962,2.038,1.923,2.194,1.758c0.156-0.165,0.467-0.495,0.623-0.66
					c-1.019-0.962-3.057-2.885-4.074-3.846c1.018,0.961,2.037,1.922,2.192,1.757s0.467-0.495,0.624-0.661
					c2.193,1.759,4.937,4.973,7.131,6.731l0.467-0.495c-1.882-2.089-5.093-4.807-7.131-6.731c1.175,0.796,1.331,0.631,1.642,0.301
					c3.212,2.72,5.8,6.099,9.323,8.488l-3.056-2.884C21.078,126.36,25.547,131.827,28.759,134.547z"/>
			</g>
		</g>
	</g>
</g>
</svg>
