<?xml version="1.0" encoding="utf-8"?>
<!-- Generator: Adobe Illustrator 15.0.0, SVG Export Plug-In  -->
<!DOCTYPE svg PUBLIC "-//W3C//DTD SVG 1.1//EN" "http://www.w3.org/Graphics/SVG/1.1/DTD/svg11.dtd" [
	<!ENTITY ns_flows "http://ns.adobe.com/Flows/1.0/">
]>
<svg version="1.1"
	 xmlns="http://www.w3.org/2000/svg" xmlns:xlink="http://www.w3.org/1999/xlink" xmlns:a="http://ns.adobe.com/AdobeSVGViewerExtensions/3.0/"
	 x="0px" y="0px" width="114px" height="53px" viewBox="-0.001 0 114 53" enable-background="new -0.001 0 114 53"
	 xml:space="preserve">
<defs>
</defs>
<g>
	<g>
		<g>
			<path fill="#FFFF00" d="M28.759,25.292c2.925,2.477,5.93,5.209,8.971,8.06l4.585,4.346l0.769,0.741l0.268,0.271l0.552,0.557
				l0.944-0.818l3.594-3.29c2.472-2.287,4.854-4.555,7.07-6.783c4.113-4.182,8.427-8.397,12.826-12.594l6.651-6.274L85.299,0
				l15.677,13.183c-0.292,0.347-1.802-0.035-0.877,1.042c3.844,4.132,3.259,4.826,2.674,5.521c-0.293,0.347-3.213-2.708-2.437-1.46
				c-3.211-2.707-8.716-7.05-5.794-3.993c0.779,1.25,5.355,4.514,5.988,5.937c0.633,1.425-1.949,0.139-1.317,1.562l4.286,3.613
				c0.775,1.249-1.949,0.139-0.879,1.042c2.92,3.055,7.352,6.493,11.633,10.103c-0.293,0.348,0.488,1.599-1.801-0.034l-15.15-12.509
				l-7.614-6.276l-3.659-3.012l-0.447-0.304l-0.265,0.294l-0.061,0.068l-0.03,0.034l-0.014,0.017l-0.076,0.072l-1.285,1.199
				l-5.145,4.795l-10.31,9.591l-10.331,9.577L43.784,53.194L20.657,31.375C14.278,25.311,7.948,19.238,1.684,13.159
				c-3.917-4.01-0.237-1.785,3.285,0.604c-1.174-0.795-0.706-1.291-1.883-2.089c0.468-0.495,3.285,0.604,7.517,4.285l-3.057-2.885
				c-0.863-1.127,0.467-0.495,0.779-0.826c1.019,0.961,2.037,1.923,2.193,1.758l0.623-0.66L7.067,9.5
				c1.018,0.961,2.036,1.922,2.192,1.757l0.624-0.661c2.193,1.759,4.937,4.973,7.131,6.73l0.467-0.495
				c-1.882-2.088-5.093-4.807-7.131-6.73c1.175,0.797,1.33,0.631,1.643,0.301c3.212,2.72,5.8,6.099,9.322,8.488l-3.055-2.884
				C21.077,17.105,25.546,22.572,28.759,25.292z"/>
		</g>
	</g>
</g>
</svg>
