<?xml version="1.0" encoding="utf-8"?>
<!-- Generator: Adobe Illustrator 15.0.0, SVG Export Plug-In  -->
<!DOCTYPE svg PUBLIC "-//W3C//DTD SVG 1.1//EN" "http://www.w3.org/Graphics/SVG/1.1/DTD/svg11.dtd" [
	<!ENTITY ns_flows "http://ns.adobe.com/Flows/1.0/">
]>
<svg version="1.1"
	 xmlns="http://www.w3.org/2000/svg" xmlns:xlink="http://www.w3.org/1999/xlink" xmlns:a="http://ns.adobe.com/AdobeSVGViewerExtensions/3.0/"
	 x="0px" y="0px" width="168px" height="52px" viewBox="3.43 0 168 52" enable-background="new 3.43 0 168 52" xml:space="preserve"
	>
<defs>
</defs>
<g>
	<g>
		<g>
			<path fill="#FFFF00" d="M31.9,8.223l1.326-1.335l2.211-2.158L40.328,0L53.68,12.041l10.527,9.677l10.527,9.673l5.193,4.705
				l1.252,1.121l0.313,0.261l0.599,0.476l0.504-0.508l0.227-0.242c0.054-0.054,0.033-0.046,0.145-0.148l0.548-0.491
				c4.2-3.797,8.507-7.628,12.878-11.471l6.601-5.77l3.931-3.395l6.457-5.512l27.404,25.761l1.66-1.667
				c0.321,0.32-0.739,2.349,0.965,0.961c6.652-5.711,7.295-5.07,7.938-4.429c0.321,0.321-4.627,4.643-2.766,3.419l-2.364,2.397
				l-2.372,2.454c-1.235,1.305-2.36,2.53-2.97,3.273c-0.557-0.415-0.695-0.408,0.006,0.419c0.193-0.147,0.456-0.36,0.799-0.652
				c1.406-0.769,7.41-7.438,9.408-8.479c2.027-1.069-0.577,2.51,1.447,1.442l5.535-5.555c0.578-0.258,0.41,0.395,0.346,0.86
				c-0.078,0.481-0.103,0.827,0.209,0.515c0.343-0.238,0.666-0.484,0.986-0.746c0.406,0.483,0.805,0.927,1.221,1.366l1.232,1.256
				l1.828,1.83l7.652,7.612c-0.321,0.32,0.903,2.192-2.342-0.746l-6.543-6.49l-1.638-1.625l-0.731-0.724l-0.14-0.13l-0.54-0.5
				l-0.366,0.399l-0.177,0.192l-0.086,0.095l-0.498,0.508l-4.645,4.726l-12.844,13.024L123.416,34.7l-6.982-6.53l-3.168-2.958
				l-0.31-0.25l-0.306,0.301l-3.748,3.203l-7.759,6.621L81.825,51.511l-41.38-37.599L25.562,27.864L6.813,45.326
				c-6.51,5.833-2.365,0.672,1.935-4.322c-1.432,1.664-1.899,1.168-3.337,2.837c-0.467-0.495,1.935-4.323,8.137-10.49l-4.769,4.501
				C7.033,39.187,8.312,37.357,8,37.026c1.589-1.5,3.179-3,3.022-3.167l-0.623-0.659l-6.356,6c1.588-1.499,3.178-2.999,3.021-3.164
				l-0.623-0.661c3.023-3.166,8.102-7.335,11.125-10.501l-0.468-0.495c-3.335,2.835-7.946,7.5-11.125,10.501
				c1.434-1.666,1.278-1.831,0.966-2.161c4.613-4.666,9.848-8.67,14.147-13.665l-4.767,4.5C18.72,19.728,27.287,12.89,31.9,8.223z"
				/>
		</g>
	</g>
</g>
</svg>
