<?xml version="1.0" encoding="utf-8"?>
<!-- Generator: Adobe Illustrator 15.0.0, SVG Export Plug-In  -->
<!DOCTYPE svg PUBLIC "-//W3C//DTD SVG 1.1//EN" "http://www.w3.org/Graphics/SVG/1.1/DTD/svg11.dtd" [
	<!ENTITY ns_flows "http://ns.adobe.com/Flows/1.0/">
]>
<svg version="1.1"
	 xmlns="http://www.w3.org/2000/svg" xmlns:xlink="http://www.w3.org/1999/xlink" xmlns:a="http://ns.adobe.com/AdobeSVGViewerExtensions/3.0/"
	 x="0px" y="0px" width="114px" height="51px" viewBox="2.447 0 114 51" enable-background="new 2.447 0 114 51"
	 xml:space="preserve">
<defs>
</defs>
<g>
	<g>
		<g>
			<path fill="#FFFF00" d="M19.463,20.014c2.642-2.778,5.543-5.62,8.563-8.492L40.327,0l6.696,6.153l3.944,3.589
				c2.504,2.252,4.979,4.416,7.401,6.42c4.54,3.714,9.132,7.624,13.713,11.622l6.856,6.05l2.979,2.657l0.201,0.145l0.158-0.153
				l0.604-0.515l1.493-1.262l5.906-4.983c0.293,0.347-0.34,1.771,0.878,1.042c4.723-3.09,5.308-2.396,5.893-1.702
				c0.293,0.347-3.212,2.708-1.851,2.154c-3.211,2.707-8.423,7.397-4.916,5.034c1.364-0.556,5.354-4.514,6.865-4.896
				s-0.193,1.944,1.316,1.562l4.286-3.612c1.362-0.554-0.193,1.944,0.878,1.042c3.505-2.361,7.644-6.146,11.925-9.756
				c0.293,0.348,1.658-0.211-0.338,1.769L81.836,51.05L40.445,13.928l-0.064,0.076l-0.028,0.034l-0.243,0.232l-0.602,0.57
				l-4.81,4.552l-9.629,9.061c-6.422,6.018-12.851,11.988-19.28,17.891c-4.229,3.68-1.797,0.135,0.792-3.244
				c-0.862,1.126-1.329,0.63-2.194,1.759c-0.468-0.496,0.792-3.245,4.711-7.257l-3.057,2.885c-1.174,0.797-0.467-0.495-0.778-0.825
				c1.019-0.961,2.038-1.923,1.882-2.088l-0.623-0.66l-4.074,3.846c1.018-0.961,2.036-1.923,1.881-2.088L3.704,38.01
				c1.882-2.088,5.249-4.642,7.131-6.731l-0.468-0.495c-2.193,1.758-5.093,4.807-7.131,6.731c0.863-1.127,0.707-1.292,0.396-1.622
				c2.9-3.05,6.423-5.439,9.011-8.818l-3.056,2.884C10.847,27.209,16.563,23.064,19.463,20.014z"/>
		</g>
	</g>
</g>
</svg>
