<?xml version="1.0" encoding="utf-8"?>
<!-- Generator: Adobe Illustrator 17.0.0, SVG Export Plug-In . SVG Version: 6.00 Build 0)  -->
<!DOCTYPE svg PUBLIC "-//W3C//DTD SVG 1.1//EN" "http://www.w3.org/Graphics/SVG/1.1/DTD/svg11.dtd">
<svg version="1.1" id="Layer_1" xmlns="http://www.w3.org/2000/svg" xmlns:xlink="http://www.w3.org/1999/xlink" x="0px" y="0px"
	 width="260.239px" height="190.66px" viewBox="0 0 260.239 190.66" enable-background="new 0 0 260.239 190.66"
	 xml:space="preserve">
<g>
	<path fill-rule="evenodd" clip-rule="evenodd" fill="#00C7C4" d="M258.235,32.748L107.63,0.422c-0.24-0.05-0.477-0.073-0.715-0.114
		c-0.358-0.064-0.72-0.132-1.08-0.176c-0.281-0.033-0.558-0.045-0.838-0.067c-0.352-0.024-0.707-0.055-1.057-0.062
		c-0.297-0.006-0.589,0.008-0.884,0.016c-0.333,0.01-0.667,0.015-0.999,0.041c-0.291,0.025-0.575,0.064-0.863,0.101
		c-0.338,0.042-0.677,0.082-1.013,0.142c-0.252,0.044-0.495,0.104-0.747,0.16c-0.373,0.081-0.745,0.166-1.116,0.269
		c-0.187,0.054-0.363,0.113-0.544,0.173c-0.435,0.135-0.864,0.279-1.287,0.447c-0.1,0.039-0.199,0.084-0.296,0.124
		c-0.498,0.204-0.987,0.427-1.468,0.675c-0.017,0.009-0.033,0.019-0.051,0.028c-3.137,1.624-5.875,4.113-7.786,7.391L51.939,53.312
		c-2.652,4.549-3.225,9.732-2.022,14.462c0.065,0.885,0.173,1.77,0.363,2.661l3.728,55.873c2.249,10.41,12.515,17.026,22.925,14.777
		c10.411-2.249,17.027-12.515,14.775-22.927l-3.293-49.368l22.535-28.204l139.189,29.87c10.416,2.237,20.671-4.392,22.906-14.808
		C275.282,45.237,268.651,34.982,258.235,32.748z"/>
	<g>
		<path fill-rule="evenodd" clip-rule="evenodd" fill="#61274B" d="M0.018,150.867c0,20.857-1.364,37.757,19.491,37.757H130.76
			c20.855,0,17.459-16.9,17.459-37.757l0,0c0-20.856-16.904-37.763-37.76-37.763H37.782C16.925,113.105,0.018,130.011,0.018,150.867
			L0.018,150.867z"/>
		<rect x="0.001" y="165.22" fill-rule="evenodd" clip-rule="evenodd" fill="#FFFFFF" width="148.424" height="25.44"/>
	</g>
</g>
<g>
	<path fill="#E9D234" d="M241.495,57.771c4.533,0,8.207-3.677,8.207-8.206c0-4.534-3.674-8.208-8.207-8.208"/>
	<path fill="#E9D234" d="M239.464,41.356c-4.533,0-8.207,3.674-8.207,8.208c0,4.529,3.674,8.206,8.207,8.206"/>
</g>
<g>
	<path fill="#E9D234" d="M71.03,74.187c4.534,0,8.207-3.676,8.207-8.21c0-4.53-3.673-8.207-8.207-8.207"/>
	<path fill="#E9D234" d="M69,57.771c-4.532,0-8.207,3.677-8.207,8.207c0,4.534,3.675,8.21,8.207,8.21"/>
</g>
<g>
	<path fill="#E9D234" d="M112.376,27.598c4.533,0,8.207-3.677,8.207-8.21c0-4.53-3.674-8.207-8.207-8.207"/>
	<path fill="#E9D234" d="M110.346,11.181c-4.535,0-8.209,3.677-8.209,8.207c0,4.533,3.674,8.21,8.209,8.21"/>
</g>
<g>
</g>
</svg>
