<?xml version="1.0" encoding="utf-8"?>
<!-- Generator: Adobe Illustrator 17.0.0, SVG Export Plug-In . SVG Version: 6.00 Build 0)  -->
<!DOCTYPE svg PUBLIC "-//W3C//DTD SVG 1.1//EN" "http://www.w3.org/Graphics/SVG/1.1/DTD/svg11.dtd">
<svg version="1.1" id="Layer_1" xmlns="http://www.w3.org/2000/svg" xmlns:xlink="http://www.w3.org/1999/xlink" x="0px" y="0px"
	 width="209.651px" height="205.242px" viewBox="0 0 209.651 205.242" enable-background="new 0 0 209.651 205.242"
	 xml:space="preserve">
<g>
	<path fill-rule="evenodd" clip-rule="evenodd" fill="#00C7C4" d="M201.556,73.686l1.214-2.964c0.191-0.895,0.294-1.783,0.357-2.672
		c1.209-4.75,0.631-9.95-2.024-14.521L166.008,9.604c-1.917-3.291-4.665-5.79-7.815-7.42c-0.02-0.009-0.035-0.019-0.053-0.028
		c-0.479-0.249-0.977-0.473-1.469-0.678c-0.107-0.041-0.203-0.085-0.303-0.125c-0.424-0.168-0.857-0.313-1.292-0.448
		c-0.181-0.06-0.357-0.12-0.548-0.174c-0.368-0.104-0.742-0.189-1.119-0.271c-0.251-0.057-0.497-0.117-0.753-0.161
		c-0.33-0.06-0.671-0.099-1.011-0.142c-0.292-0.037-0.582-0.076-0.868-0.101c-0.335-0.025-0.671-0.031-1.007-0.041
		c-0.295-0.008-0.585-0.022-0.886-0.016c-0.354,0.008-0.706,0.038-1.06,0.063c-0.281,0.022-0.561,0.035-0.842,0.067
		c-0.361,0.044-0.723,0.112-1.088,0.177c-0.236,0.041-0.475,0.065-0.713,0.115L-6.036,32.881
		c-10.459,2.243-17.117,12.54-14.871,22.995C-18.665,66.333-8.37,72.986,2.095,70.746l139.752-29.994l22.391,28.025
		c-7.114,5.031-11.777,13.306-11.777,22.683c0,10.726,6.087,20.012,14.986,24.639l-11.631,60.53l0.267,0.053
		c-6.042,1.651-10.498,7.17-10.498,13.743c0,7.878,6.393,14.27,14.271,14.27c7.881,0,14.269-6.392,14.269-14.27
		c0-4.652-2.238-8.766-5.681-11.374l0.189,0.035l11.504-59.859c0.029,0,0.064,0.007,0.092,0.007
		c15.34,0,27.776-12.433,27.776-27.773C208.004,84.698,205.577,78.502,201.556,73.686z"/>
	<g>
		<path fill-rule="evenodd" clip-rule="evenodd" fill="none" stroke="#E9D234" stroke-width="1.6128" stroke-miterlimit="10" d="
			M163.819,130.098c0,0-21.576,4.911-1.982,12.606c0,0,33.672,6.719,15.65-10.187"/>
		<path fill-rule="evenodd" clip-rule="evenodd" fill="none" stroke="#E9D234" stroke-width="1.6128" stroke-miterlimit="10" d="
			M161.036,147.83c0,0-18.096,3.383-1.361,8.7c0,0,11.684,3.837,15.117,0c0,0,12.858-3.934,0.978-8.7"/>
		<path fill-rule="evenodd" clip-rule="evenodd" fill="none" stroke="#E9D234" stroke-width="1.6128" stroke-miterlimit="10" d="
			M156.585,163.227c0,0-8.846,3.472-1.027,6.537c0,0,30.026,5.194,16.447-6.537"/>
	</g>
	<g>
		<path fill="#E9D234" d="M12.661,58.005c4.549,0,8.237-3.692,8.237-8.24c0-4.552-3.688-8.241-8.237-8.241"/>
		<path fill="#E9D234" d="M10.618,41.524c-4.551,0-8.24,3.689-8.24,8.241c0,4.548,3.69,8.24,8.24,8.24"/>
	</g>
	<g>
		<path fill="#E9D234" d="M144.336,27.709c4.552,0,8.239-3.692,8.239-8.243c0-4.548-3.688-8.24-8.239-8.24"/>
		<path fill="#E9D234" d="M142.297,11.226c-4.552,0-8.241,3.692-8.241,8.24c0,4.551,3.689,8.243,8.241,8.243"/>
	</g>
	<circle fill-rule="evenodd" clip-rule="evenodd" fill="#61274B" cx="180.078" cy="92.538" r="29.573"/>
	<circle fill-rule="evenodd" clip-rule="evenodd" fill="#FFFFFF" cx="159.636" cy="190.66" r="14.582"/>
	<g>
		<path fill="#E9D234" d="M181.827,101.743c4.551,0,8.244-3.686,8.244-8.241c0-4.551-3.693-8.243-8.244-8.243"/>
		<path fill="#E9D234" d="M179.79,85.258c-4.555,0-8.243,3.692-8.243,8.243c0,4.555,3.688,8.241,8.243,8.241"/>
	</g>
</g>
<g>
	<path fill-rule="evenodd" clip-rule="evenodd" fill="#61274B" d="M-218.375,3.359c0,0-24.431,6.978-24.431,24.429V336.46H0V41.249
		c0,0,0.997-37.89-26.923-37.89H-218.375z"/>
</g>
</svg>
