<?xml version="1.0" encoding="utf-8"?>
<!-- Generator: Adobe Illustrator 17.0.0, SVG Export Plug-In . SVG Version: 6.00 Build 0)  -->
<!DOCTYPE svg PUBLIC "-//W3C//DTD SVG 1.1//EN" "http://www.w3.org/Graphics/SVG/1.1/DTD/svg11.dtd">
<svg version="1.1" id="Layer_1" xmlns="http://www.w3.org/2000/svg" xmlns:xlink="http://www.w3.org/1999/xlink" x="0px" y="0px"
	 width="241.546px" height="433.027px" viewBox="0 0 241.546 433.027" enable-background="new 0 0 241.546 433.027"
	 xml:space="preserve">
<g>
	<path fill-rule="evenodd" clip-rule="evenodd" fill="#00C7C4" d="M-4.734,110.113L-155.34,77.787
		c-0.24-0.05-0.477-0.073-0.715-0.114c-0.358-0.064-0.72-0.132-1.08-0.176c-0.281-0.033-0.558-0.045-0.838-0.067
		c-0.352-0.024-0.707-0.055-1.057-0.063c-0.297-0.006-0.589,0.008-0.884,0.016c-0.333,0.01-0.667,0.015-0.999,0.041
		c-0.291,0.025-0.575,0.064-0.863,0.101c-0.338,0.042-0.677,0.082-1.013,0.142c-0.252,0.043-0.495,0.104-0.747,0.16
		c-0.373,0.081-0.745,0.166-1.116,0.27c-0.187,0.054-0.363,0.113-0.544,0.173c-0.435,0.135-0.864,0.279-1.287,0.447
		c-0.1,0.039-0.199,0.083-0.296,0.124c-0.498,0.204-0.987,0.427-1.468,0.675c-0.017,0.009-0.033,0.019-0.051,0.028
		c-3.137,1.624-5.875,4.113-7.786,7.391l-34.947,43.746c-2.652,4.549-3.225,9.732-2.022,14.462c0.065,0.885,0.173,1.77,0.363,2.661
		l3.728,55.874c2.249,10.41,12.515,17.026,22.925,14.777c10.411-2.25,17.027-12.515,14.775-22.927l-3.293-49.368l22.535-28.204
		l139.189,29.87c10.416,2.237,20.671-4.392,22.906-14.808C12.313,122.603,5.682,112.347-4.734,110.113z"/>
</g>
<path fill="none" stroke="#000000" stroke-width="1.1834" stroke-miterlimit="10" d="M0,402.861"/>
<g>
	<path fill-rule="evenodd" clip-rule="evenodd" fill="#00C7C4" d="M443.102,151.051l1.214-2.964
		c0.191-0.895,0.294-1.783,0.357-2.672c1.209-4.75,0.631-9.95-2.023-14.521L407.554,86.97c-1.917-3.29-4.665-5.79-7.815-7.42
		c-0.02-0.009-0.035-0.019-0.053-0.028c-0.478-0.249-0.976-0.473-1.469-0.678c-0.107-0.04-0.203-0.085-0.303-0.124
		c-0.424-0.168-0.857-0.313-1.292-0.448c-0.181-0.06-0.357-0.12-0.548-0.174c-0.368-0.104-0.742-0.189-1.119-0.271
		c-0.251-0.057-0.497-0.117-0.753-0.161c-0.33-0.06-0.671-0.099-1.011-0.142c-0.292-0.037-0.582-0.076-0.868-0.101
		c-0.335-0.025-0.671-0.031-1.007-0.041c-0.295-0.008-0.585-0.021-0.886-0.016c-0.354,0.008-0.706,0.038-1.06,0.063
		c-0.281,0.022-0.561,0.035-0.842,0.067c-0.361,0.044-0.723,0.112-1.088,0.177c-0.236,0.041-0.475,0.065-0.713,0.115L235.51,110.246
		c-10.459,2.243-17.117,12.54-14.871,22.995c2.242,10.458,12.537,17.111,23.002,14.871l139.752-29.994l22.391,28.025
		c-7.114,5.031-11.777,13.306-11.777,22.683c0,10.726,6.087,20.012,14.986,24.639l-11.631,60.53l0.267,0.053
		c-6.042,1.651-10.498,7.169-10.498,13.743c0,7.878,6.393,14.27,14.27,14.27c7.881,0,14.27-6.392,14.27-14.27
		c0-4.652-2.238-8.766-5.681-11.374l0.189,0.035l11.504-59.859c0.029,0,0.063,0.007,0.092,0.007
		c15.34,0,27.776-12.433,27.776-27.773C449.55,162.063,447.123,155.868,443.102,151.051z"/>
</g>
<g>
	<path fill-rule="evenodd" clip-rule="evenodd" fill="#61274B" d="M23.171,80.725c0,0-24.431,6.978-24.431,24.429v308.672h242.806
		V118.615c0,0,0.997-37.89-26.923-37.89H23.171z"/>
	<path fill-rule="evenodd" clip-rule="evenodd" fill="#160F15" d="M31.154,76.96c0,0-6.865-95.737,113.764-73.653
		c0,0,52.837,9.864,54.754,73.772L31.154,76.96z"/>
	<path fill-rule="evenodd" clip-rule="evenodd" fill="#00C7C4" d="M25.171,80.725c0,0-3.989-7.975,4.983-6.977h164.529
		c0,0,10.971-0.005,9.971,6.977H25.171z"/>
	<path fill-rule="evenodd" clip-rule="evenodd" fill="#F27751" d="M207.64,153.521c0,8.258-6.697,14.955-14.956,14.955
		c-8.26,0-14.955-6.696-14.955-14.955c0-8.266,6.695-14.961,14.955-14.961C200.942,138.56,207.64,145.256,207.64,153.521z"/>
	<path fill-rule="evenodd" clip-rule="evenodd" fill="#00C7C4" d="M161.063,153.521c0,8.258-6.696,14.955-14.955,14.955
		c-8.261,0-14.957-6.696-14.957-14.955c0-8.266,6.696-14.961,14.957-14.961C154.366,138.56,161.063,145.256,161.063,153.521z"/>
	<path fill-rule="evenodd" clip-rule="evenodd" fill="#F27751" d="M112.378,153.521c0,8.258-6.698,14.955-14.958,14.955
		s-14.957-6.696-14.957-14.955c0-8.266,6.697-14.961,14.957-14.961S112.378,145.256,112.378,153.521z"/>
	
		<line fill="none" stroke="#FFFFFF" stroke-width="1.1834" stroke-miterlimit="10" x1="35.634" y1="157.259" x2="73.775" y2="157.259"/>
	
		<line fill="none" stroke="#FFFFFF" stroke-width="1.1834" stroke-miterlimit="10" x1="35.634" y1="168.476" x2="73.775" y2="168.476"/>
	
		<line fill="none" stroke="#FFFFFF" stroke-width="1.1834" stroke-miterlimit="10" x1="35.634" y1="183.13" x2="73.775" y2="183.13"/>
	
		<line fill="none" stroke="#FFFFFF" stroke-width="1.1834" stroke-miterlimit="10" x1="35.634" y1="195.815" x2="73.775" y2="195.815"/>
	
		<line fill="none" stroke="#FFFFFF" stroke-width="1.1834" stroke-miterlimit="10" x1="35.634" y1="209.847" x2="73.775" y2="209.847"/>
	
		<line fill="none" stroke="#FFFFFF" stroke-width="1.1834" stroke-miterlimit="10" x1="35.634" y1="221.573" x2="73.775" y2="221.573"/>
	<rect x="87.236" y="183.13" fill="#FFFFFF" width="120.403" height="40.689"/>
	<rect x="35.634" y="276.167" fill="#F27751" width="172.006" height="75.532"/>
	<g>
		<g opacity="0.5">
			<path fill="#FFFFFF" d="M198.17,292.684c3.339,0,6.045-2.709,6.045-6.047c0-3.337-2.706-6.046-6.045-6.046"/>
		</g>
		<g opacity="0.5">
			<path fill="#FFFFFF" d="M196.674,280.591c-3.342,0-6.047,2.709-6.047,6.046c0,3.338,2.705,6.047,6.047,6.047"/>
		</g>
	</g>
	<g>
		<g opacity="0.5">
			<path fill="#FFFFFF" d="M198.17,348.866c3.339,0,6.045-2.709,6.045-6.049c0-3.34-2.706-6.046-6.045-6.046"/>
		</g>
		<g opacity="0.5">
			<path fill="#FFFFFF" d="M196.674,336.771c-3.342,0-6.047,2.706-6.047,6.046c0,3.34,2.705,6.049,6.047,6.049"/>
		</g>
	</g>
	<path fill="#FFFFFF" d="M48.657,292.684c3.339,0,6.048-2.709,6.048-6.047c0-3.337-2.709-6.046-6.048-6.046"/>
	<g>
		<path fill="#FFFFFF" d="M47.16,280.591c-3.34,0-6.046,2.709-6.046,6.046c0,3.338,2.706,6.047,6.046,6.047"/>
	</g>
	<path fill="#FFFFFF" d="M48.657,348.775c3.339,0,6.048-2.709,6.048-6.049c0-3.34-2.709-6.049-6.048-6.049"/>
	<g>
		<path fill="#FFFFFF" d="M47.16,336.678c-3.34,0-6.046,2.709-6.046,6.049c0,3.34,2.706,6.049,6.046,6.049"/>
	</g>
	<g>
		<g>
			<path fill="#FFFFFF" d="M196.002,294.896c0,0.876,0.709,1.588,1.588,1.588c0.876,0,1.589-0.712,1.589-1.588
				c0-0.874-0.713-1.583-1.589-1.583C196.711,293.312,196.002,294.022,196.002,294.896z"/>
			<circle fill="#FFFFFF" cx="197.59" cy="299.808" r="1.588"/>
			<circle fill="#FFFFFF" cx="197.59" cy="304.722" r="1.588"/>
			<circle fill="#FFFFFF" cx="197.59" cy="309.634" r="1.588"/>
			<circle fill="#FFFFFF" cx="197.59" cy="314.547" r="1.588"/>
			<circle fill="#FFFFFF" cx="197.59" cy="319.46" r="1.588"/>
			<circle fill="#FFFFFF" cx="197.59" cy="324.373" r="1.588"/>
			<circle fill="#FFFFFF" cx="197.59" cy="329.285" r="1.588"/>
			<circle fill="#FFFFFF" cx="197.59" cy="334.198" r="1.588"/>
		</g>
	</g>
	<g>
		<g>
			<g>
				<path fill="#FFFFFF" d="M185.669,283.554c-0.876,0-1.588,0.712-1.588,1.588c0,0.88,0.712,1.588,1.588,1.588
					c0.872,0,1.585-0.708,1.585-1.588C187.254,284.266,186.541,283.554,185.669,283.554z"/>
				<path fill="#FFFFFF" d="M180.756,283.554c-0.876,0-1.588,0.712-1.588,1.588c0,0.88,0.712,1.588,1.588,1.588
					c0.873,0,1.585-0.708,1.585-1.588C182.341,284.266,181.629,283.554,180.756,283.554z"/>
				<path fill="#FFFFFF" d="M175.844,283.554c-0.877,0-1.588,0.712-1.588,1.588c0,0.88,0.711,1.588,1.588,1.588
					c0.873,0,1.585-0.708,1.585-1.588C177.429,284.266,176.717,283.554,175.844,283.554z"/>
				<path fill="#FFFFFF" d="M170.931,283.554c-0.876,0-1.588,0.712-1.588,1.588c0,0.88,0.712,1.588,1.588,1.588
					c0.873,0,1.585-0.708,1.585-1.588C172.516,284.266,171.804,283.554,170.931,283.554z"/>
				<path fill="#FFFFFF" d="M166.018,283.554c-0.876,0-1.588,0.712-1.588,1.588c0,0.88,0.712,1.588,1.588,1.588
					c0.874,0,1.586-0.708,1.586-1.588C167.604,284.266,166.892,283.554,166.018,283.554z"/>
				<path fill="#FFFFFF" d="M161.105,283.554c-0.877,0-1.588,0.712-1.588,1.588c0,0.88,0.711,1.588,1.588,1.588
					c0.874,0,1.585-0.708,1.585-1.588C162.69,284.266,161.98,283.554,161.105,283.554z"/>
				<path fill="#FFFFFF" d="M156.192,283.554c-0.876,0-1.588,0.712-1.588,1.588c0,0.88,0.712,1.588,1.588,1.588
					c0.874,0,1.585-0.708,1.585-1.588C157.777,284.266,157.066,283.554,156.192,283.554z"/>
				<path fill="#FFFFFF" d="M151.28,283.554c-0.877,0-1.588,0.712-1.588,1.588c0,0.88,0.711,1.588,1.588,1.588
					c0.874,0,1.585-0.708,1.585-1.588C152.865,284.266,152.154,283.554,151.28,283.554z"/>
				<path fill="#FFFFFF" d="M146.367,283.554c-0.877,0-1.588,0.712-1.588,1.588c0,0.88,0.711,1.588,1.588,1.588
					c0.875,0,1.585-0.708,1.585-1.588C147.952,284.266,147.242,283.554,146.367,283.554z"/>
			</g>
		</g>
		<g>
			<g>
				<path fill="#FFFFFF" d="M141.526,283.554c-0.872,0-1.585,0.712-1.585,1.588c0,0.88,0.713,1.588,1.585,1.588
					c0.875,0,1.588-0.708,1.588-1.588C143.114,284.266,142.401,283.554,141.526,283.554z"/>
				<path fill="#FFFFFF" d="M136.614,283.554c-0.873,0-1.586,0.712-1.586,1.588c0,0.88,0.713,1.588,1.586,1.588
					c0.875,0,1.587-0.708,1.587-1.588C138.201,284.266,137.489,283.554,136.614,283.554z"/>
				<path fill="#FFFFFF" d="M131.701,283.554c-0.873,0-1.586,0.712-1.586,1.588c0,0.88,0.713,1.588,1.586,1.588
					c0.875,0,1.588-0.708,1.588-1.588C133.289,284.266,132.576,283.554,131.701,283.554z"/>
				<path fill="#FFFFFF" d="M126.789,283.554c-0.874,0-1.586,0.712-1.586,1.588c0,0.88,0.712,1.588,1.586,1.588
					c0.875,0,1.588-0.708,1.588-1.588C128.377,284.266,127.664,283.554,126.789,283.554z"/>
				<path fill="#FFFFFF" d="M121.877,283.554c-0.875,0-1.587,0.712-1.587,1.588c0,0.88,0.712,1.588,1.587,1.588
					s1.587-0.708,1.587-1.588C123.464,284.266,122.752,283.554,121.877,283.554z"/>
				<path fill="#FFFFFF" d="M116.964,283.554c-0.874,0-1.587,0.712-1.587,1.588c0,0.88,0.713,1.588,1.587,1.588
					c0.876,0,1.587-0.708,1.587-1.588C118.551,284.266,117.84,283.554,116.964,283.554z"/>
				<path fill="#FFFFFF" d="M112.052,283.554c-0.875,0-1.587,0.712-1.587,1.588c0,0.88,0.712,1.588,1.587,1.588
					c0.876,0,1.587-0.708,1.587-1.588C113.639,284.266,112.928,283.554,112.052,283.554z"/>
				<path fill="#FFFFFF" d="M107.139,283.554c-0.875,0-1.587,0.712-1.587,1.588c0,0.88,0.712,1.588,1.587,1.588
					c0.876,0,1.588-0.708,1.588-1.588C108.727,284.266,108.015,283.554,107.139,283.554z"/>
				<path fill="#FFFFFF" d="M102.227,283.554c-0.876,0-1.588,0.712-1.588,1.588c0,0.88,0.712,1.588,1.588,1.588
					c0.876,0,1.587-0.708,1.587-1.588C103.813,284.266,103.103,283.554,102.227,283.554z"/>
			</g>
		</g>
		<g>
			<g>
				<path fill="#FFFFFF" d="M97.778,283.554c-0.875,0-1.587,0.712-1.587,1.588c0,0.88,0.712,1.588,1.587,1.588
					c0.874,0,1.587-0.708,1.587-1.588C99.365,284.266,98.652,283.554,97.778,283.554z"/>
				<path fill="#FFFFFF" d="M92.865,283.554c-0.875,0-1.587,0.712-1.587,1.588c0,0.88,0.712,1.588,1.587,1.588
					s1.588-0.708,1.588-1.588C94.453,284.266,93.74,283.554,92.865,283.554z"/>
				<path fill="#FFFFFF" d="M87.953,283.554c-0.875,0-1.588,0.712-1.588,1.588c0,0.88,0.713,1.588,1.588,1.588
					s1.587-0.708,1.587-1.588C89.54,284.266,88.828,283.554,87.953,283.554z"/>
				<path fill="#FFFFFF" d="M83.04,283.554c-0.875,0-1.587,0.712-1.587,1.588c0,0.88,0.712,1.588,1.587,1.588
					s1.587-0.708,1.587-1.588C84.627,284.266,83.915,283.554,83.04,283.554z"/>
				<path fill="#FFFFFF" d="M78.127,283.554c-0.875,0-1.587,0.712-1.587,1.588c0,0.88,0.712,1.588,1.587,1.588
					c0.876,0,1.588-0.708,1.588-1.588C79.715,284.266,79.003,283.554,78.127,283.554z"/>
				<path fill="#FFFFFF" d="M73.215,283.554c-0.875,0-1.588,0.712-1.588,1.588c0,0.88,0.713,1.588,1.588,1.588
					c0.876,0,1.588-0.708,1.588-1.588C74.803,284.266,74.091,283.554,73.215,283.554z"/>
				<path fill="#FFFFFF" d="M68.302,283.554c-0.875,0-1.587,0.712-1.587,1.588c0,0.88,0.712,1.588,1.587,1.588
					c0.876,0,1.588-0.708,1.588-1.588C69.89,284.266,69.178,283.554,68.302,283.554z"/>
				<path fill="#FFFFFF" d="M63.39,283.554c-0.875,0-1.588,0.712-1.588,1.588c0,0.88,0.713,1.588,1.588,1.588
					c0.876,0,1.587-0.708,1.587-1.588C64.977,284.266,64.266,283.554,63.39,283.554z"/>
				<path fill="#FFFFFF" d="M58.477,283.554c-0.875,0-1.588,0.712-1.588,1.588c0,0.88,0.713,1.588,1.588,1.588
					c0.877,0,1.588-0.708,1.588-1.588C60.064,284.266,59.354,283.554,58.477,283.554z"/>
			</g>
		</g>
	</g>
	<g>
		<g>
			<g>
				<path fill="#FFFFFF" d="M185.669,342.726c-0.876,0-1.588,0.71-1.588,1.586c0,0.877,0.712,1.588,1.588,1.588
					c0.872,0,1.585-0.711,1.585-1.588C187.254,343.436,186.541,342.726,185.669,342.726z"/>
				<path fill="#FFFFFF" d="M180.756,342.726c-0.876,0-1.588,0.71-1.588,1.586c0,0.877,0.712,1.588,1.588,1.588
					c0.873,0,1.585-0.711,1.585-1.588C182.341,343.436,181.629,342.726,180.756,342.726z"/>
				<path fill="#FFFFFF" d="M175.844,342.726c-0.877,0-1.588,0.71-1.588,1.586c0,0.877,0.711,1.588,1.588,1.588
					c0.873,0,1.585-0.711,1.585-1.588C177.429,343.436,176.717,342.726,175.844,342.726z"/>
				<path fill="#FFFFFF" d="M170.931,342.726c-0.876,0-1.588,0.71-1.588,1.586c0,0.877,0.712,1.588,1.588,1.588
					c0.873,0,1.585-0.711,1.585-1.588C172.516,343.436,171.804,342.726,170.931,342.726z"/>
				<path fill="#FFFFFF" d="M166.018,342.726c-0.876,0-1.588,0.71-1.588,1.586c0,0.877,0.712,1.588,1.588,1.588
					c0.874,0,1.586-0.711,1.586-1.588C167.604,343.436,166.892,342.726,166.018,342.726z"/>
				<path fill="#FFFFFF" d="M161.105,342.726c-0.877,0-1.588,0.71-1.588,1.586c0,0.877,0.711,1.588,1.588,1.588
					c0.874,0,1.585-0.711,1.585-1.588C162.69,343.436,161.98,342.726,161.105,342.726z"/>
				<path fill="#FFFFFF" d="M156.192,342.726c-0.876,0-1.588,0.71-1.588,1.586c0,0.877,0.712,1.588,1.588,1.588
					c0.874,0,1.585-0.711,1.585-1.588C157.777,343.436,157.066,342.726,156.192,342.726z"/>
				<path fill="#FFFFFF" d="M151.28,342.726c-0.877,0-1.588,0.71-1.588,1.586c0,0.877,0.711,1.588,1.588,1.588
					c0.874,0,1.585-0.711,1.585-1.588C152.865,343.436,152.154,342.726,151.28,342.726z"/>
				<circle fill="#FFFFFF" cx="146.367" cy="344.313" r="1.587"/>
			</g>
		</g>
		<g>
			<g>
				<path fill="#FFFFFF" d="M141.526,342.726c-0.872,0-1.585,0.71-1.585,1.586c0,0.877,0.713,1.588,1.585,1.588
					c0.875,0,1.588-0.711,1.588-1.588C143.114,343.436,142.401,342.726,141.526,342.726z"/>
				<path fill="#FFFFFF" d="M136.614,342.726c-0.873,0-1.586,0.71-1.586,1.586c0,0.877,0.713,1.588,1.586,1.588
					c0.875,0,1.587-0.711,1.587-1.588C138.201,343.436,137.489,342.726,136.614,342.726z"/>
				<path fill="#FFFFFF" d="M131.701,342.726c-0.873,0-1.586,0.71-1.586,1.586c0,0.877,0.713,1.588,1.586,1.588
					c0.875,0,1.588-0.711,1.588-1.588C133.289,343.436,132.576,342.726,131.701,342.726z"/>
				<circle fill="#FFFFFF" cx="126.789" cy="344.313" r="1.587"/>
				<circle fill="#FFFFFF" cx="121.877" cy="344.313" r="1.587"/>
				<circle fill="#FFFFFF" cx="116.964" cy="344.313" r="1.587"/>
				<circle fill="#FFFFFF" cx="112.052" cy="344.313" r="1.587"/>
				<circle fill="#FFFFFF" cx="107.139" cy="344.313" r="1.587"/>
				<circle fill="#FFFFFF" cx="102.227" cy="344.313" r="1.587"/>
			</g>
		</g>
		<g>
			<g>
				<circle fill="#FFFFFF" cx="97.778" cy="344.313" r="1.587"/>
				<circle fill="#FFFFFF" cx="92.865" cy="344.313" r="1.587"/>
				<circle fill="#FFFFFF" cx="87.953" cy="344.313" r="1.587"/>
				<circle fill="#FFFFFF" cx="83.04" cy="344.313" r="1.587"/>
				<circle fill="#FFFFFF" cx="78.127" cy="344.313" r="1.587"/>
				<circle fill="#FFFFFF" cx="73.215" cy="344.313" r="1.587"/>
				<circle fill="#FFFFFF" cx="68.302" cy="344.313" r="1.587"/>
				<circle fill="#FFFFFF" cx="63.39" cy="344.313" r="1.587"/>
				<circle fill="#FFFFFF" cx="58.477" cy="344.313" r="1.587"/>
			</g>
		</g>
	</g>
	<g>
		<g>
			<path fill="#FFFFFF" d="M45.575,294.896c0,0.876,0.708,1.588,1.585,1.588c0.879,0,1.588-0.712,1.588-1.588
				c0-0.874-0.709-1.583-1.588-1.583C46.283,293.312,45.575,294.022,45.575,294.896z"/>
			<path fill="#FFFFFF" d="M45.575,299.808c0,0.876,0.708,1.588,1.585,1.588c0.879,0,1.588-0.712,1.588-1.588
				c0-0.874-0.709-1.583-1.588-1.583C46.283,298.225,45.575,298.934,45.575,299.808z"/>
			<path fill="#FFFFFF" d="M45.575,304.722c0,0.876,0.708,1.588,1.585,1.588c0.879,0,1.588-0.712,1.588-1.588
				c0-0.875-0.709-1.584-1.588-1.584C46.283,303.138,45.575,303.847,45.575,304.722z"/>
			<path fill="#FFFFFF" d="M45.575,309.634c0,0.876,0.708,1.588,1.585,1.588c0.879,0,1.588-0.712,1.588-1.588
				c0-0.876-0.709-1.584-1.588-1.584C46.283,308.05,45.575,308.759,45.575,309.634z"/>
			<path fill="#FFFFFF" d="M45.575,314.547c0,0.876,0.708,1.588,1.585,1.588c0.879,0,1.588-0.712,1.588-1.588
				s-0.709-1.584-1.588-1.584C46.283,312.963,45.575,313.671,45.575,314.547z"/>
			<path fill="#FFFFFF" d="M45.575,319.46c0,0.876,0.708,1.588,1.585,1.588c0.879,0,1.588-0.712,1.588-1.588
				c0-0.877-0.709-1.585-1.588-1.585C46.283,317.875,45.575,318.583,45.575,319.46z"/>
			<path fill="#FFFFFF" d="M45.575,324.373c0,0.875,0.708,1.588,1.585,1.588c0.879,0,1.588-0.713,1.588-1.588
				c0-0.878-0.709-1.586-1.588-1.586C46.283,322.787,45.575,323.495,45.575,324.373z"/>
			<path fill="#FFFFFF" d="M45.575,329.285c0,0.877,0.708,1.588,1.585,1.588c0.879,0,1.588-0.711,1.588-1.588
				c0-0.877-0.709-1.585-1.588-1.585C46.283,327.7,45.575,328.408,45.575,329.285z"/>
			<path fill="#FFFFFF" d="M45.575,334.198c0,0.876,0.708,1.588,1.585,1.588c0.879,0,1.588-0.712,1.588-1.588
				c0-0.878-0.709-1.585-1.588-1.585C46.283,332.613,45.575,333.32,45.575,334.198z"/>
		</g>
	</g>
	<g>
		<polygon fill="#00C7C4" points="148.223,219.106 131.234,198.18 120.061,217.678 109.195,191.249 104.219,204.064 87.236,204.064 
			87.236,202.88 103.408,202.88 109.164,188.06 120.236,214.992 131.066,196.094 147.682,216.563 155.292,188.321 166.254,203.075 
			184.165,198.459 192.84,203.384 207.64,203.384 207.64,204.568 192.527,204.568 183.997,199.725 165.779,204.42 155.8,190.988 		
			"/>
	</g>
</g>
<g>
	<path fill="#E9D234" d="M-1,433.027h242.546V403.86c0,0-20.506-34.901-58.283,0h-34.252c0,0-19.964-41.383-63.679-0.999H64.76
		c0,0-20.232-41.842-65.524,0v30.166"/>
	<g>
		<path fill="#E9D234" d="M155.855,421.318c0.155-1.381,0.243-2.781,0.243-4.203c0-20.506-16.624-37.131-37.131-37.131
			c-20.507,0-37.131,16.625-37.131,37.131c0,1.422,0.088,2.822,0.243,4.203H155.855z"/>
		<path fill="#E9D234" d="M240.858,401.949c-5.801-12.943-18.788-21.965-33.891-21.965c-20.507,0-37.131,16.625-37.131,37.131
			c0,1.422,0.088,2.822,0.243,4.203h70.778V401.949z"/>
		<path fill="#E9D234" d="M34.662,379.984c-15.924,0-29.5,10.026-34.775,24.107v17.227H71.55c0.155-1.381,0.243-2.781,0.243-4.203
			C71.793,396.609,55.169,379.984,34.662,379.984z"/>
	</g>
</g>
<g>
	<path fill="#FFFFFF" d="M206.363,416.853c4.533,0,8.207-3.678,8.207-8.207c0-4.533-3.674-8.207-8.207-8.207"/>
	<path fill="#FFFFFF" d="M204.332,400.439c-4.533,0-8.207,3.674-8.207,8.207c0,4.529,3.674,8.207,8.207,8.207"/>
</g>
<g>
	<path fill="#FFFFFF" d="M119.688,416.853c4.533,0,8.207-3.678,8.207-8.207c0-4.533-3.674-8.207-8.207-8.207"/>
	<path fill="#FFFFFF" d="M117.657,400.439c-4.533,0-8.207,3.674-8.207,8.207c0,4.529,3.674,8.207,8.207,8.207"/>
</g>
<g>
	<path fill="#FFFFFF" d="M35.339,416.853c4.533,0,8.207-3.678,8.207-8.207c0-4.533-3.674-8.207-8.207-8.207"/>
	<path fill="#FFFFFF" d="M33.308,400.439c-4.533,0-8.207,3.674-8.207,8.207c0,4.529,3.674,8.207,8.207,8.207"/>
</g>
</svg>
